<?xml version="1.0" encoding="UTF-8"?>
<svg xmlns="http://www.w3.org/2000/svg" xmlns:xlink="http://www.w3.org/1999/xlink" width="720pt" height="360pt" viewBox="0 0 720 360" version="1.1">
<defs>
<g>
<symbol overflow="visible" id="glyph0-0">
<path style="stroke:none;" d="M 1.375 0 L 1.375 -6.875 L 6.875 -6.875 L 6.875 0 Z M 1.546875 -0.171875 L 6.703125 -0.171875 L 6.703125 -6.703125 L 1.546875 -6.703125 Z M 1.546875 -0.171875 "/>
</symbol>
<symbol overflow="visible" id="glyph0-1">
<path style="stroke:none;" d="M 2.835938 -0.863281 L 2.976563 -0.0117188 C 2.703125 0.0429688 2.457031 0.0703125 2.246094 0.0742188 C 1.890625 0.0703125 1.621094 0.0195313 1.429688 -0.0898438 C 1.234375 -0.199219 1.097656 -0.347656 1.019531 -0.527344 C 0.941406 -0.707031 0.902344 -1.085938 0.902344 -1.671875 L 0.902344 -4.953125 L 0.195313 -4.953125 L 0.195313 -5.703125 L 0.902344 -5.703125 L 0.902344 -7.117188 L 1.863281 -7.695313 L 1.863281 -5.703125 L 2.835938 -5.703125 L 2.835938 -4.953125 L 1.863281 -4.953125 L 1.863281 -1.617188 C 1.863281 -1.339844 1.878906 -1.160156 1.914063 -1.085938 C 1.945313 -1.003906 2 -0.941406 2.078125 -0.898438 C 2.152344 -0.847656 2.261719 -0.824219 2.410156 -0.828125 C 2.515625 -0.824219 2.660156 -0.835938 2.835938 -0.863281 Z M 2.835938 -0.863281 "/>
</symbol>
<symbol overflow="visible" id="glyph0-2">
<path style="stroke:none;" d="M 0.683594 2.195313 L 0.574219 1.289063 C 0.785156 1.34375 0.96875 1.371094 1.128906 1.375 C 1.339844 1.371094 1.511719 1.335938 1.640625 1.265625 C 1.769531 1.195313 1.875 1.09375 1.960938 0.96875 C 2.019531 0.867188 2.117188 0.628906 2.257813 0.246094 C 2.269531 0.191406 2.300781 0.113281 2.34375 0.0117188 L 0.175781 -5.703125 L 1.21875 -5.703125 L 2.40625 -2.402344 C 2.558594 -1.980469 2.695313 -1.539063 2.820313 -1.078125 C 2.925781 -1.523438 3.058594 -1.957031 3.21875 -2.378906 L 4.4375 -5.703125 L 5.402344 -5.703125 L 3.234375 0.0976563 C 3 0.71875 2.816406 1.148438 2.691406 1.390625 C 2.515625 1.703125 2.320313 1.9375 2.097656 2.089844 C 1.875 2.238281 1.609375 2.3125 1.304688 2.316406 C 1.117188 2.3125 0.910156 2.273438 0.683594 2.195313 Z M 0.683594 2.195313 "/>
</symbol>
<symbol overflow="visible" id="glyph0-3">
<path style="stroke:none;" d="M 0.726563 2.1875 L 0.726563 -5.703125 L 1.605469 -5.703125 L 1.605469 -4.960938 C 1.8125 -5.25 2.046875 -5.46875 2.308594 -5.613281 C 2.570313 -5.757813 2.886719 -5.828125 3.261719 -5.832031 C 3.746094 -5.828125 4.175781 -5.703125 4.550781 -5.457031 C 4.921875 -5.203125 5.203125 -4.851563 5.390625 -4.394531 C 5.578125 -3.9375 5.671875 -3.4375 5.675781 -2.894531 C 5.671875 -2.308594 5.566406 -1.78125 5.359375 -1.316406 C 5.148438 -0.847656 4.84375 -0.488281 4.449219 -0.242188 C 4.046875 0.0078125 3.628906 0.128906 3.191406 0.128906 C 2.867188 0.128906 2.578125 0.0625 2.320313 -0.0742188 C 2.0625 -0.210938 1.851563 -0.382813 1.691406 -0.589844 L 1.691406 2.1875 Z M 1.601563 -2.820313 C 1.597656 -2.082031 1.746094 -1.539063 2.046875 -1.191406 C 2.339844 -0.835938 2.699219 -0.660156 3.125 -0.664063 C 3.550781 -0.660156 3.917969 -0.84375 4.226563 -1.210938 C 4.53125 -1.574219 4.6875 -2.136719 4.6875 -2.898438 C 4.6875 -3.625 4.535156 -4.167969 4.238281 -4.53125 C 3.9375 -4.890625 3.582031 -5.074219 3.167969 -5.074219 C 2.753906 -5.074219 2.390625 -4.878906 2.074219 -4.496094 C 1.757813 -4.109375 1.597656 -3.550781 1.601563 -2.820313 Z M 1.601563 -2.820313 "/>
</symbol>
<symbol overflow="visible" id="glyph0-4">
<path style="stroke:none;" d="M 4.628906 -1.835938 L 5.628906 -1.714844 C 5.46875 -1.125 5.175781 -0.671875 4.75 -0.351563 C 4.324219 -0.03125 3.78125 0.128906 3.121094 0.128906 C 2.28125 0.128906 1.617188 -0.125 1.132813 -0.640625 C 0.640625 -1.152344 0.398438 -1.875 0.402344 -2.804688 C 0.398438 -3.761719 0.644531 -4.503906 1.144531 -5.035156 C 1.636719 -5.5625 2.277344 -5.828125 3.066406 -5.832031 C 3.824219 -5.828125 4.449219 -5.570313 4.933594 -5.050781 C 5.417969 -4.53125 5.660156 -3.800781 5.660156 -2.863281 C 5.660156 -2.804688 5.65625 -2.71875 5.65625 -2.605469 L 1.402344 -2.605469 C 1.433594 -1.976563 1.613281 -1.496094 1.933594 -1.164063 C 2.25 -0.828125 2.644531 -0.660156 3.125 -0.664063 C 3.476563 -0.660156 3.78125 -0.753906 4.03125 -0.945313 C 4.28125 -1.128906 4.480469 -1.425781 4.628906 -1.835938 Z M 1.457031 -3.398438 L 4.640625 -3.398438 C 4.597656 -3.878906 4.472656 -4.238281 4.273438 -4.480469 C 3.960938 -4.851563 3.5625 -5.039063 3.078125 -5.039063 C 2.628906 -5.039063 2.257813 -4.890625 1.957031 -4.59375 C 1.652344 -4.296875 1.484375 -3.898438 1.457031 -3.398438 Z M 1.457031 -3.398438 "/>
</symbol>
<symbol overflow="visible" id="glyph1-0">
<path style="stroke:none;" d="M 1.101563 0 L 1.101563 -5.5 L 5.5 -5.5 L 5.5 0 Z M 1.238281 -0.136719 L 5.363281 -0.136719 L 5.363281 -5.363281 L 1.238281 -5.363281 Z M 1.238281 -0.136719 "/>
</symbol>
<symbol overflow="visible" id="glyph1-1">
<path style="stroke:none;" d="M 5.171875 -2.207031 L 6.007813 -2 C 5.828125 -1.3125 5.515625 -0.789063 5.0625 -0.429688 C 4.609375 -0.0703125 4.054688 0.105469 3.398438 0.109375 C 2.71875 0.105469 2.164063 -0.03125 1.742188 -0.304688 C 1.3125 -0.582031 0.988281 -0.980469 0.769531 -1.507813 C 0.542969 -2.027344 0.433594 -2.589844 0.4375 -3.195313 C 0.433594 -3.847656 0.558594 -4.421875 0.8125 -4.910156 C 1.0625 -5.398438 1.417969 -5.769531 1.882813 -6.023438 C 2.34375 -6.277344 2.855469 -6.402344 3.410156 -6.40625 C 4.039063 -6.402344 4.566406 -6.242188 5 -5.925781 C 5.425781 -5.601563 5.726563 -5.152344 5.898438 -4.570313 L 5.078125 -4.378906 C 4.929688 -4.832031 4.71875 -5.167969 4.441406 -5.378906 C 4.164063 -5.589844 3.8125 -5.695313 3.394531 -5.695313 C 2.90625 -5.695313 2.503906 -5.578125 2.179688 -5.34375 C 1.851563 -5.109375 1.621094 -4.796875 1.492188 -4.410156 C 1.359375 -4.015625 1.292969 -3.613281 1.296875 -3.203125 C 1.292969 -2.664063 1.371094 -2.195313 1.53125 -1.796875 C 1.683594 -1.394531 1.925781 -1.097656 2.257813 -0.902344 C 2.585938 -0.703125 2.945313 -0.601563 3.332031 -0.605469 C 3.796875 -0.601563 4.191406 -0.738281 4.515625 -1.007813 C 4.835938 -1.277344 5.054688 -1.675781 5.171875 -2.207031 Z M 5.171875 -2.207031 "/>
</symbol>
<symbol overflow="visible" id="glyph1-2">
<path style="stroke:none;" d="M -0.0117188 0 L 2.40625 -6.300781 L 3.304688 -6.300781 L 5.882813 0 L 4.933594 0 L 4.199219 -1.90625 L 1.5625 -1.90625 L 0.871094 0 Z M 1.804688 -2.585938 L 3.941406 -2.585938 L 3.28125 -4.332031 C 3.078125 -4.855469 2.929688 -5.292969 2.835938 -5.636719 C 2.753906 -5.230469 2.640625 -4.828125 2.496094 -4.433594 Z M 1.804688 -2.585938 "/>
</symbol>
<symbol overflow="visible" id="glyph1-3">
<path style="stroke:none;" d="M 0.691406 0 L 0.691406 -6.300781 L 3.484375 -6.300781 C 4.042969 -6.296875 4.46875 -6.242188 4.765625 -6.128906 C 5.054688 -6.015625 5.289063 -5.816406 5.464844 -5.53125 C 5.636719 -5.242188 5.722656 -4.925781 5.726563 -4.582031 C 5.722656 -4.132813 5.578125 -3.753906 5.292969 -3.449219 C 5 -3.140625 4.554688 -2.945313 3.953125 -2.867188 C 4.171875 -2.757813 4.339844 -2.652344 4.457031 -2.550781 C 4.695313 -2.324219 4.925781 -2.046875 5.148438 -1.714844 L 6.242188 0 L 5.195313 0 L 4.359375 -1.3125 C 4.117188 -1.6875 3.914063 -1.976563 3.757813 -2.179688 C 3.597656 -2.378906 3.457031 -2.515625 3.335938 -2.597656 C 3.207031 -2.675781 3.082031 -2.734375 2.957031 -2.765625 C 2.859375 -2.785156 2.703125 -2.792969 2.492188 -2.796875 L 1.527344 -2.796875 L 1.527344 0 Z M 1.527344 -3.519531 L 3.316406 -3.519531 C 3.699219 -3.515625 3.996094 -3.554688 4.210938 -3.636719 C 4.421875 -3.710938 4.585938 -3.835938 4.699219 -4.011719 C 4.808594 -4.183594 4.863281 -4.375 4.867188 -4.582031 C 4.863281 -4.878906 4.753906 -5.121094 4.542969 -5.3125 C 4.324219 -5.503906 3.984375 -5.601563 3.519531 -5.601563 L 1.527344 -5.601563 Z M 1.527344 -3.519531 "/>
</symbol>
<symbol overflow="visible" id="glyph1-4">
<path style="stroke:none;" d="M 0.695313 0 L 0.695313 -6.300781 L 5.25 -6.300781 L 5.25 -5.554688 L 1.53125 -5.554688 L 1.53125 -3.625 L 5.015625 -3.625 L 5.015625 -2.886719 L 1.53125 -2.886719 L 1.53125 -0.742188 L 5.398438 -0.742188 L 5.398438 0 Z M 0.695313 0 "/>
</symbol>
<symbol overflow="visible" id="glyph1-5">
<path style="stroke:none;" d="M 3.703125 -1.46875 L 4.503906 -1.371094 C 4.375 -0.902344 4.140625 -0.539063 3.800781 -0.285156 C 3.460938 -0.0273438 3.027344 0.0976563 2.496094 0.101563 C 1.828125 0.0976563 1.296875 -0.101563 0.90625 -0.511719 C 0.511719 -0.917969 0.316406 -1.496094 0.320313 -2.242188 C 0.316406 -3.007813 0.515625 -3.605469 0.914063 -4.03125 C 1.308594 -4.453125 1.820313 -4.664063 2.453125 -4.667969 C 3.058594 -4.664063 3.554688 -4.457031 3.945313 -4.042969 C 4.328125 -3.628906 4.523438 -3.042969 4.527344 -2.289063 C 4.523438 -2.242188 4.523438 -2.175781 4.523438 -2.085938 L 1.121094 -2.085938 C 1.144531 -1.582031 1.289063 -1.195313 1.546875 -0.929688 C 1.800781 -0.660156 2.117188 -0.527344 2.5 -0.53125 C 2.78125 -0.527344 3.023438 -0.601563 3.226563 -0.753906 C 3.425781 -0.902344 3.585938 -1.140625 3.703125 -1.46875 Z M 1.164063 -2.71875 L 3.710938 -2.71875 C 3.671875 -3.101563 3.578125 -3.386719 3.421875 -3.582031 C 3.171875 -3.878906 2.851563 -4.03125 2.460938 -4.03125 C 2.105469 -4.03125 1.804688 -3.910156 1.566406 -3.671875 C 1.320313 -3.433594 1.1875 -3.117188 1.164063 -2.71875 Z M 1.164063 -2.71875 "/>
</symbol>
<symbol overflow="visible" id="glyph1-6">
<path style="stroke:none;" d="M 0.570313 0 L 0.570313 -4.5625 L 1.265625 -4.5625 L 1.265625 -3.871094 C 1.445313 -4.191406 1.609375 -4.40625 1.757813 -4.511719 C 1.90625 -4.613281 2.070313 -4.664063 2.257813 -4.667969 C 2.515625 -4.664063 2.78125 -4.582031 3.050781 -4.417969 L 2.785156 -3.699219 C 2.589844 -3.808594 2.402344 -3.867188 2.21875 -3.867188 C 2.046875 -3.867188 1.894531 -3.816406 1.761719 -3.714844 C 1.625 -3.613281 1.527344 -3.472656 1.472656 -3.292969 C 1.382813 -3.015625 1.339844 -2.714844 1.34375 -2.390625 L 1.34375 0 Z M 0.570313 0 "/>
</symbol>
<symbol overflow="visible" id="glyph1-7">
<path style="stroke:none;" d="M 0.679688 0 L 0.679688 -6.300781 L 2.847656 -6.300781 C 3.335938 -6.296875 3.707031 -6.269531 3.96875 -6.210938 C 4.328125 -6.125 4.636719 -5.972656 4.894531 -5.757813 C 5.222656 -5.472656 5.472656 -5.113281 5.636719 -4.679688 C 5.800781 -4.242188 5.882813 -3.742188 5.886719 -3.183594 C 5.882813 -2.699219 5.828125 -2.277344 5.71875 -1.910156 C 5.605469 -1.542969 5.460938 -1.238281 5.289063 -0.996094 C 5.113281 -0.753906 4.921875 -0.5625 4.714844 -0.421875 C 4.507813 -0.28125 4.257813 -0.175781 3.964844 -0.105469 C 3.667969 -0.0351563 3.332031 0 2.953125 0 Z M 1.511719 -0.742188 L 2.859375 -0.742188 C 3.273438 -0.738281 3.597656 -0.777344 3.832031 -0.859375 C 4.066406 -0.933594 4.253906 -1.042969 4.398438 -1.1875 C 4.59375 -1.382813 4.746094 -1.648438 4.859375 -1.984375 C 4.96875 -2.316406 5.027344 -2.71875 5.027344 -3.195313 C 5.027344 -3.851563 4.917969 -4.359375 4.703125 -4.714844 C 4.484375 -5.066406 4.222656 -5.304688 3.914063 -5.425781 C 3.6875 -5.511719 3.328125 -5.554688 2.835938 -5.554688 L 1.511719 -5.554688 Z M 1.511719 -0.742188 "/>
</symbol>
<symbol overflow="visible" id="glyph1-8">
<path style="stroke:none;" d="M 3.625 -2.46875 L 3.625 -3.210938 L 6.296875 -3.214844 L 6.296875 -0.875 C 5.882813 -0.546875 5.460938 -0.300781 5.027344 -0.136719 C 4.589844 0.0273438 4.140625 0.105469 3.6875 0.109375 C 3.0625 0.105469 2.5 -0.0234375 2 -0.289063 C 1.492188 -0.550781 1.113281 -0.933594 0.855469 -1.4375 C 0.597656 -1.9375 0.46875 -2.5 0.46875 -3.121094 C 0.46875 -3.730469 0.59375 -4.300781 0.851563 -4.835938 C 1.105469 -5.363281 1.476563 -5.757813 1.957031 -6.019531 C 2.4375 -6.273438 2.992188 -6.402344 3.621094 -6.40625 C 4.074219 -6.402344 4.484375 -6.328125 4.855469 -6.183594 C 5.222656 -6.035156 5.511719 -5.832031 5.722656 -5.566406 C 5.929688 -5.300781 6.089844 -4.957031 6.199219 -4.539063 L 5.449219 -4.332031 C 5.351563 -4.648438 5.230469 -4.902344 5.09375 -5.085938 C 4.953125 -5.269531 4.753906 -5.414063 4.492188 -5.527344 C 4.230469 -5.636719 3.941406 -5.695313 3.625 -5.695313 C 3.242188 -5.695313 2.914063 -5.636719 2.636719 -5.519531 C 2.359375 -5.402344 2.132813 -5.246094 1.964844 -5.058594 C 1.792969 -4.867188 1.664063 -4.660156 1.570313 -4.4375 C 1.40625 -4.046875 1.324219 -3.625 1.328125 -3.171875 C 1.324219 -2.605469 1.421875 -2.136719 1.617188 -1.761719 C 1.808594 -1.382813 2.089844 -1.101563 2.460938 -0.917969 C 2.828125 -0.734375 3.21875 -0.644531 3.640625 -0.644531 C 3.996094 -0.644531 4.347656 -0.710938 4.695313 -0.851563 C 5.035156 -0.988281 5.296875 -1.136719 5.476563 -1.296875 L 5.476563 -2.46875 Z M 3.625 -2.46875 "/>
</symbol>
<symbol overflow="visible" id="glyph1-9">
<path style="stroke:none;" d="M 0.679688 0 L 0.679688 -6.300781 L 3.054688 -6.300781 C 3.46875 -6.296875 3.789063 -6.277344 4.011719 -6.238281 C 4.320313 -6.183594 4.578125 -6.085938 4.789063 -5.941406 C 4.996094 -5.796875 5.167969 -5.59375 5.296875 -5.335938 C 5.421875 -5.074219 5.484375 -4.789063 5.488281 -4.476563 C 5.484375 -3.941406 5.3125 -3.488281 4.976563 -3.117188 C 4.632813 -2.746094 4.019531 -2.558594 3.128906 -2.5625 L 1.511719 -2.5625 L 1.511719 0 Z M 1.511719 -3.304688 L 3.140625 -3.304688 C 3.679688 -3.304688 4.0625 -3.402344 4.289063 -3.605469 C 4.515625 -3.800781 4.628906 -4.085938 4.628906 -4.453125 C 4.628906 -4.714844 4.558594 -4.9375 4.425781 -5.128906 C 4.289063 -5.3125 4.117188 -5.4375 3.902344 -5.5 C 3.761719 -5.535156 3.5 -5.554688 3.125 -5.554688 L 1.511719 -5.554688 Z M 1.511719 -3.304688 "/>
</symbol>
<symbol overflow="visible" id="glyph1-10">
<path style="stroke:none;" d="M 0.820313 0 L 0.820313 -6.300781 L 1.65625 -6.300781 L 1.65625 0 Z M 0.820313 0 "/>
</symbol>
<symbol overflow="visible" id="glyph1-11">
<path style="stroke:none;" d="M 0.394531 -2.023438 L 1.179688 -2.09375 C 1.214844 -1.773438 1.304688 -1.515625 1.441406 -1.316406 C 1.574219 -1.113281 1.785156 -0.949219 2.074219 -0.828125 C 2.359375 -0.699219 2.679688 -0.636719 3.042969 -0.640625 C 3.355469 -0.636719 3.636719 -0.683594 3.882813 -0.78125 C 4.125 -0.875 4.304688 -1.007813 4.425781 -1.171875 C 4.542969 -1.335938 4.605469 -1.515625 4.605469 -1.710938 C 4.605469 -1.90625 4.546875 -2.078125 4.433594 -2.226563 C 4.316406 -2.375 4.128906 -2.5 3.867188 -2.601563 C 3.695313 -2.664063 3.320313 -2.765625 2.746094 -2.90625 C 2.164063 -3.046875 1.757813 -3.175781 1.53125 -3.300781 C 1.226563 -3.453125 1.003906 -3.648438 0.855469 -3.886719 C 0.707031 -4.117188 0.632813 -4.378906 0.636719 -4.671875 C 0.632813 -4.984375 0.722656 -5.28125 0.90625 -5.5625 C 1.082031 -5.835938 1.34375 -6.046875 1.695313 -6.191406 C 2.039063 -6.332031 2.425781 -6.402344 2.851563 -6.40625 C 3.316406 -6.402344 3.730469 -6.328125 4.089844 -6.179688 C 4.445313 -6.027344 4.71875 -5.804688 4.910156 -5.515625 C 5.101563 -5.21875 5.203125 -4.890625 5.21875 -4.523438 L 4.421875 -4.464844 C 4.375 -4.863281 4.230469 -5.164063 3.984375 -5.367188 C 3.734375 -5.570313 3.367188 -5.671875 2.886719 -5.671875 C 2.382813 -5.671875 2.015625 -5.578125 1.785156 -5.394531 C 1.554688 -5.207031 1.441406 -4.984375 1.441406 -4.726563 C 1.441406 -4.496094 1.519531 -4.308594 1.683594 -4.167969 C 1.839844 -4.019531 2.261719 -3.871094 2.941406 -3.71875 C 3.617188 -3.5625 4.082031 -3.429688 4.335938 -3.316406 C 4.703125 -3.144531 4.972656 -2.929688 5.148438 -2.671875 C 5.320313 -2.414063 5.40625 -2.113281 5.410156 -1.777344 C 5.40625 -1.441406 5.3125 -1.128906 5.121094 -0.832031 C 4.929688 -0.535156 4.652344 -0.300781 4.292969 -0.136719 C 3.929688 0.0273438 3.527344 0.105469 3.082031 0.109375 C 2.511719 0.105469 2.03125 0.0234375 1.648438 -0.140625 C 1.257813 -0.304688 0.957031 -0.554688 0.742188 -0.890625 C 0.519531 -1.222656 0.402344 -1.597656 0.394531 -2.023438 Z M 0.394531 -2.023438 "/>
</symbol>
<symbol overflow="visible" id="glyph1-12">
<path style="stroke:none;" d="M 0.652344 0 L 0.652344 -6.300781 L 1.90625 -6.300781 L 3.398438 -1.839844 C 3.535156 -1.421875 3.632813 -1.109375 3.699219 -0.90625 C 3.769531 -1.132813 3.882813 -1.46875 4.035156 -1.917969 L 5.542969 -6.300781 L 6.664063 -6.300781 L 6.664063 0 L 5.859375 0 L 5.859375 -5.273438 L 4.03125 0 L 3.277344 0 L 1.457031 -5.363281 L 1.457031 0 Z M 0.652344 0 "/>
</symbol>
<symbol overflow="visible" id="glyph1-13">
<path style="stroke:none;" d="M 2.28125 0 L 2.28125 -5.554688 L 0.207031 -5.554688 L 0.207031 -6.300781 L 5.199219 -6.300781 L 5.199219 -5.554688 L 3.117188 -5.554688 L 3.117188 0 Z M 2.28125 0 "/>
</symbol>
<symbol overflow="visible" id="glyph2-0">
<path style="stroke:none;" d="M 1.648438 0 L 1.648438 -8.25 L 8.25 -8.25 L 8.25 0 Z M 1.855469 -0.207031 L 8.042969 -0.207031 L 8.042969 -8.042969 L 1.855469 -8.042969 Z M 1.855469 -0.207031 "/>
</symbol>
<symbol overflow="visible" id="glyph2-1">
<path style="stroke:none;" d="M 0.59375 -3.035156 L 1.773438 -3.140625 C 1.824219 -2.664063 1.953125 -2.273438 2.160156 -1.972656 C 2.363281 -1.667969 2.679688 -1.421875 3.113281 -1.238281 C 3.539063 -1.050781 4.023438 -0.960938 4.5625 -0.960938 C 5.035156 -0.960938 5.457031 -1.03125 5.824219 -1.171875 C 6.191406 -1.3125 6.460938 -1.503906 6.640625 -1.753906 C 6.816406 -1.996094 6.90625 -2.269531 6.910156 -2.566406 C 6.90625 -2.863281 6.820313 -3.121094 6.652344 -3.339844 C 6.476563 -3.558594 6.195313 -3.742188 5.800781 -3.898438 C 5.546875 -3.992188 4.984375 -4.148438 4.117188 -4.359375 C 3.246094 -4.566406 2.636719 -4.761719 2.292969 -4.949219 C 1.839844 -5.183594 1.503906 -5.476563 1.285156 -5.828125 C 1.058594 -6.175781 0.949219 -6.570313 0.953125 -7.007813 C 0.949219 -7.484375 1.085938 -7.929688 1.359375 -8.34375 C 1.628906 -8.757813 2.023438 -9.070313 2.542969 -9.285156 C 3.0625 -9.5 3.640625 -9.609375 4.28125 -9.609375 C 4.980469 -9.609375 5.597656 -9.496094 6.132813 -9.269531 C 6.664063 -9.042969 7.074219 -8.710938 7.363281 -8.273438 C 7.648438 -7.835938 7.804688 -7.339844 7.832031 -6.785156 L 6.632813 -6.695313 C 6.566406 -7.292969 6.347656 -7.746094 5.976563 -8.050781 C 5.605469 -8.355469 5.054688 -8.507813 4.332031 -8.507813 C 3.570313 -8.507813 3.019531 -8.367188 2.675781 -8.089844 C 2.328125 -7.8125 2.15625 -7.480469 2.160156 -7.089844 C 2.15625 -6.75 2.277344 -6.46875 2.527344 -6.25 C 2.761719 -6.027344 3.390625 -5.804688 4.410156 -5.578125 C 5.425781 -5.347656 6.125 -5.144531 6.503906 -4.976563 C 7.050781 -4.71875 7.453125 -4.398438 7.71875 -4.011719 C 7.976563 -3.621094 8.109375 -3.171875 8.113281 -2.667969 C 8.109375 -2.160156 7.964844 -1.6875 7.679688 -1.246094 C 7.390625 -0.796875 6.976563 -0.449219 6.441406 -0.207031 C 5.898438 0.0390625 5.292969 0.15625 4.621094 0.160156 C 3.765625 0.15625 3.050781 0.0351563 2.472656 -0.210938 C 1.894531 -0.460938 1.4375 -0.835938 1.109375 -1.335938 C 0.777344 -1.835938 0.605469 -2.402344 0.59375 -3.035156 Z M 0.59375 -3.035156 "/>
</symbol>
<symbol overflow="visible" id="glyph2-2">
<path style="stroke:none;" d="M 5.335938 -0.84375 C 4.902344 -0.476563 4.488281 -0.21875 4.09375 -0.0703125 C 3.695313 0.078125 3.269531 0.152344 2.816406 0.15625 C 2.0625 0.152344 1.484375 -0.0273438 1.082031 -0.394531 C 0.675781 -0.761719 0.472656 -1.234375 0.476563 -1.804688 C 0.472656 -2.140625 0.550781 -2.445313 0.703125 -2.722656 C 0.855469 -3 1.054688 -3.222656 1.304688 -3.390625 C 1.550781 -3.554688 1.828125 -3.679688 2.140625 -3.769531 C 2.363281 -3.824219 2.707031 -3.882813 3.171875 -3.945313 C 4.105469 -4.054688 4.796875 -4.1875 5.238281 -4.34375 C 5.242188 -4.5 5.242188 -4.601563 5.246094 -4.648438 C 5.242188 -5.117188 5.132813 -5.449219 4.917969 -5.644531 C 4.617188 -5.902344 4.179688 -6.035156 3.597656 -6.039063 C 3.050781 -6.035156 2.644531 -5.9375 2.386719 -5.75 C 2.125 -5.554688 1.933594 -5.21875 1.8125 -4.738281 L 0.675781 -4.890625 C 0.777344 -5.375 0.949219 -5.765625 1.183594 -6.066406 C 1.417969 -6.363281 1.757813 -6.59375 2.210938 -6.757813 C 2.65625 -6.914063 3.175781 -6.996094 3.765625 -7 C 4.347656 -6.996094 4.820313 -6.925781 5.1875 -6.792969 C 5.546875 -6.652344 5.816406 -6.480469 5.992188 -6.273438 C 6.160156 -6.0625 6.28125 -5.800781 6.355469 -5.484375 C 6.390625 -5.285156 6.410156 -4.925781 6.414063 -4.414063 L 6.414063 -2.867188 C 6.410156 -1.785156 6.433594 -1.105469 6.488281 -0.820313 C 6.535156 -0.535156 6.632813 -0.261719 6.78125 0 L 5.570313 0 C 5.445313 -0.238281 5.367188 -0.519531 5.335938 -0.84375 Z M 5.238281 -3.433594 C 4.816406 -3.261719 4.183594 -3.113281 3.34375 -2.996094 C 2.863281 -2.925781 2.527344 -2.851563 2.332031 -2.765625 C 2.132813 -2.679688 1.980469 -2.550781 1.875 -2.386719 C 1.765625 -2.21875 1.710938 -2.035156 1.714844 -1.835938 C 1.710938 -1.523438 1.828125 -1.265625 2.066406 -1.0625 C 2.296875 -0.851563 2.640625 -0.75 3.09375 -0.753906 C 3.539063 -0.75 3.933594 -0.847656 4.285156 -1.046875 C 4.628906 -1.238281 4.886719 -1.507813 5.054688 -1.851563 C 5.175781 -2.109375 5.238281 -2.496094 5.238281 -3.011719 Z M 5.238281 -3.433594 "/>
</symbol>
<symbol overflow="visible" id="glyph2-3">
<path style="stroke:none;" d="M 0.871094 0 L 0.871094 -6.84375 L 1.90625 -6.84375 L 1.90625 -5.882813 C 2.117188 -6.21875 2.40625 -6.488281 2.765625 -6.691406 C 3.121094 -6.894531 3.527344 -6.996094 3.984375 -7 C 4.488281 -6.996094 4.902344 -6.890625 5.230469 -6.683594 C 5.554688 -6.46875 5.785156 -6.175781 5.917969 -5.800781 C 6.457031 -6.597656 7.160156 -6.996094 8.03125 -7 C 8.707031 -6.996094 9.230469 -6.808594 9.597656 -6.433594 C 9.960938 -6.058594 10.140625 -5.480469 10.144531 -4.699219 L 10.144531 0 L 8.992188 0 L 8.992188 -4.3125 C 8.988281 -4.773438 8.949219 -5.105469 8.878906 -5.3125 C 8.800781 -5.515625 8.664063 -5.679688 8.46875 -5.804688 C 8.265625 -5.925781 8.035156 -5.988281 7.773438 -5.992188 C 7.289063 -5.988281 6.890625 -5.828125 6.574219 -5.511719 C 6.253906 -5.191406 6.09375 -4.679688 6.097656 -3.976563 L 6.097656 0 L 4.9375 0 L 4.9375 -4.445313 C 4.933594 -4.957031 4.839844 -5.34375 4.652344 -5.605469 C 4.464844 -5.859375 4.15625 -5.988281 3.726563 -5.992188 C 3.398438 -5.988281 3.09375 -5.902344 2.816406 -5.734375 C 2.539063 -5.558594 2.339844 -5.308594 2.214844 -4.980469 C 2.089844 -4.648438 2.027344 -4.171875 2.03125 -3.550781 L 2.03125 0 Z M 0.871094 0 "/>
</symbol>
<symbol overflow="visible" id="glyph2-4">
<path style="stroke:none;" d="M 0.871094 2.625 L 0.871094 -6.84375 L 1.925781 -6.84375 L 1.925781 -5.957031 C 2.171875 -6.300781 2.453125 -6.5625 2.769531 -6.738281 C 3.082031 -6.910156 3.464844 -6.996094 3.914063 -7 C 4.496094 -6.996094 5.007813 -6.84375 5.457031 -6.546875 C 5.902344 -6.242188 6.242188 -5.820313 6.46875 -5.273438 C 6.695313 -4.726563 6.808594 -4.125 6.8125 -3.472656 C 6.808594 -2.769531 6.683594 -2.140625 6.433594 -1.582031 C 6.183594 -1.019531 5.816406 -0.589844 5.339844 -0.292969 C 4.855469 0.00390625 4.351563 0.152344 3.828125 0.15625 C 3.4375 0.152344 3.09375 0.0742188 2.789063 -0.0898438 C 2.480469 -0.25 2.226563 -0.457031 2.03125 -0.710938 L 2.03125 2.625 Z M 1.921875 -3.382813 C 1.921875 -2.5 2.097656 -1.851563 2.457031 -1.429688 C 2.808594 -1.007813 3.242188 -0.796875 3.75 -0.800781 C 4.265625 -0.796875 4.707031 -1.015625 5.074219 -1.453125 C 5.441406 -1.890625 5.625 -2.566406 5.625 -3.480469 C 5.625 -4.351563 5.445313 -5.003906 5.085938 -5.4375 C 4.726563 -5.871094 4.296875 -6.085938 3.804688 -6.089844 C 3.304688 -6.085938 2.867188 -5.855469 2.492188 -5.394531 C 2.109375 -4.929688 1.921875 -4.257813 1.921875 -3.382813 Z M 1.921875 -3.382813 "/>
</symbol>
<symbol overflow="visible" id="glyph2-5">
<path style="stroke:none;" d="M 0.84375 0 L 0.84375 -9.449219 L 2.003906 -9.449219 L 2.003906 0 Z M 0.84375 0 "/>
</symbol>
<symbol overflow="visible" id="glyph2-6">
<path style="stroke:none;" d="M 5.554688 -2.203125 L 6.753906 -2.054688 C 6.5625 -1.351563 6.210938 -0.808594 5.703125 -0.421875 C 5.1875 -0.0390625 4.535156 0.152344 3.746094 0.15625 C 2.738281 0.152344 1.945313 -0.152344 1.363281 -0.769531 C 0.773438 -1.382813 0.480469 -2.25 0.484375 -3.363281 C 0.480469 -4.515625 0.777344 -5.410156 1.371094 -6.046875 C 1.964844 -6.679688 2.734375 -6.996094 3.679688 -7 C 4.59375 -6.996094 5.339844 -6.683594 5.921875 -6.0625 C 6.5 -5.4375 6.789063 -4.5625 6.792969 -3.433594 C 6.789063 -3.363281 6.789063 -3.257813 6.785156 -3.125 L 1.683594 -3.125 C 1.722656 -2.371094 1.9375 -1.796875 2.320313 -1.398438 C 2.703125 -0.996094 3.179688 -0.796875 3.75 -0.800781 C 4.175781 -0.796875 4.539063 -0.90625 4.839844 -1.132813 C 5.140625 -1.351563 5.378906 -1.710938 5.554688 -2.203125 Z M 1.746094 -4.078125 L 5.570313 -4.078125 C 5.515625 -4.65625 5.367188 -5.085938 5.128906 -5.375 C 4.757813 -5.820313 4.28125 -6.046875 3.691406 -6.046875 C 3.160156 -6.046875 2.710938 -5.867188 2.347656 -5.511719 C 1.984375 -5.152344 1.785156 -4.675781 1.746094 -4.078125 Z M 1.746094 -4.078125 "/>
</symbol>
<symbol overflow="visible" id="glyph2-7">
<path style="stroke:none;" d="M 3.421875 0 L 3.421875 -8.332031 L 0.308594 -8.332031 L 0.308594 -9.449219 L 7.796875 -9.449219 L 7.796875 -8.332031 L 4.671875 -8.332031 L 4.671875 0 Z M 3.421875 0 "/>
</symbol>
<symbol overflow="visible" id="glyph2-8">
<path style="stroke:none;" d="M 0.820313 2.636719 L 0.691406 1.546875 C 0.941406 1.613281 1.160156 1.644531 1.351563 1.648438 C 1.609375 1.644531 1.816406 1.601563 1.972656 1.519531 C 2.125 1.429688 2.25 1.3125 2.351563 1.160156 C 2.421875 1.042969 2.542969 0.753906 2.707031 0.296875 C 2.726563 0.230469 2.757813 0.136719 2.808594 0.0117188 L 0.210938 -6.84375 L 1.464844 -6.84375 L 2.886719 -2.882813 C 3.070313 -2.375 3.234375 -1.84375 3.382813 -1.296875 C 3.511719 -1.824219 3.671875 -2.34375 3.859375 -2.855469 L 5.324219 -6.84375 L 6.484375 -6.84375 L 3.878906 0.117188 C 3.597656 0.867188 3.378906 1.382813 3.230469 1.667969 C 3.019531 2.046875 2.785156 2.328125 2.519531 2.507813 C 2.253906 2.6875 1.933594 2.777344 1.566406 2.777344 C 1.339844 2.777344 1.09375 2.730469 0.820313 2.636719 Z M 0.820313 2.636719 "/>
</symbol>
<symbol overflow="visible" id="glyph2-9">
<path style="stroke:none;" d="M -0.199219 2.625 L -0.199219 1.785156 L 7.488281 1.785156 L 7.488281 2.625 Z M -0.199219 2.625 "/>
</symbol>
<symbol overflow="visible" id="glyph2-10">
<path style="stroke:none;" d="M 5.441406 -3.707031 L 5.441406 -4.816406 L 9.441406 -4.820313 L 9.441406 -1.316406 C 8.824219 -0.820313 8.191406 -0.449219 7.539063 -0.207031 C 6.886719 0.0390625 6.21875 0.15625 5.53125 0.160156 C 4.601563 0.15625 3.757813 -0.0390625 3 -0.433594 C 2.242188 -0.832031 1.667969 -1.40625 1.28125 -2.160156 C 0.894531 -2.910156 0.703125 -3.75 0.703125 -4.679688 C 0.703125 -5.597656 0.894531 -6.457031 1.277344 -7.253906 C 1.660156 -8.050781 2.210938 -8.640625 2.9375 -9.027344 C 3.65625 -9.414063 4.488281 -9.609375 5.433594 -9.609375 C 6.113281 -9.609375 6.730469 -9.496094 7.285156 -9.277344 C 7.832031 -9.050781 8.265625 -8.742188 8.582031 -8.351563 C 8.894531 -7.953125 9.132813 -7.4375 9.300781 -6.804688 L 8.171875 -6.496094 C 8.027344 -6.976563 7.851563 -7.355469 7.644531 -7.628906 C 7.429688 -7.902344 7.128906 -8.121094 6.742188 -8.289063 C 6.347656 -8.453125 5.914063 -8.535156 5.441406 -8.539063 C 4.867188 -8.535156 4.371094 -8.449219 3.957031 -8.277344 C 3.535156 -8.101563 3.199219 -7.875 2.949219 -7.59375 C 2.691406 -7.308594 2.492188 -6.996094 2.351563 -6.65625 C 2.109375 -6.070313 1.992188 -5.4375 1.992188 -4.757813 C 1.992188 -3.914063 2.136719 -3.207031 2.425781 -2.640625 C 2.714844 -2.074219 3.136719 -1.652344 3.691406 -1.378906 C 4.246094 -1.101563 4.835938 -0.964844 5.460938 -0.96875 C 6 -0.964844 6.527344 -1.070313 7.042969 -1.28125 C 7.558594 -1.488281 7.949219 -1.710938 8.21875 -1.945313 L 8.21875 -3.707031 Z M 5.441406 -3.707031 "/>
</symbol>
<symbol overflow="visible" id="glyph2-11">
<path style="stroke:none;" d="M 0.875 -8.113281 L 0.875 -9.449219 L 2.035156 -9.449219 L 2.035156 -8.113281 Z M 0.875 0 L 0.875 -6.84375 L 2.035156 -6.84375 L 2.035156 0 Z M 0.875 0 "/>
</symbol>
<symbol overflow="visible" id="glyph2-12">
<path style="stroke:none;" d="M 7.761719 -3.3125 L 9.011719 -2.996094 C 8.746094 -1.964844 8.273438 -1.183594 7.59375 -0.648438 C 6.914063 -0.109375 6.082031 0.15625 5.097656 0.160156 C 4.078125 0.15625 3.25 -0.046875 2.613281 -0.460938 C 1.972656 -0.871094 1.484375 -1.472656 1.15625 -2.261719 C 0.820313 -3.046875 0.65625 -3.890625 0.65625 -4.796875 C 0.65625 -5.777344 0.84375 -6.632813 1.21875 -7.367188 C 1.59375 -8.097656 2.128906 -8.65625 2.824219 -9.039063 C 3.519531 -9.417969 4.28125 -9.609375 5.117188 -9.609375 C 6.058594 -9.609375 6.855469 -9.367188 7.5 -8.886719 C 8.144531 -8.40625 8.59375 -7.730469 8.847656 -6.859375 L 7.617188 -6.566406 C 7.398438 -7.25 7.078125 -7.75 6.664063 -8.066406 C 6.242188 -8.378906 5.71875 -8.535156 5.09375 -8.539063 C 4.363281 -8.535156 3.757813 -8.363281 3.269531 -8.015625 C 2.78125 -7.667969 2.4375 -7.199219 2.242188 -6.613281 C 2.042969 -6.023438 1.945313 -5.417969 1.945313 -4.800781 C 1.945313 -3.996094 2.0625 -3.296875 2.296875 -2.695313 C 2.53125 -2.09375 2.894531 -1.644531 3.390625 -1.351563 C 3.882813 -1.054688 4.417969 -0.90625 4.996094 -0.910156 C 5.695313 -0.90625 6.289063 -1.109375 6.773438 -1.515625 C 7.257813 -1.917969 7.585938 -2.515625 7.761719 -3.3125 Z M 7.761719 -3.3125 "/>
</symbol>
<symbol overflow="visible" id="glyph2-13">
<path style="stroke:none;" d="M 0.4375 -3.421875 C 0.433594 -4.6875 0.785156 -5.625 1.496094 -6.238281 C 2.082031 -6.742188 2.800781 -6.996094 3.648438 -7 C 4.585938 -6.996094 5.355469 -6.6875 5.953125 -6.074219 C 6.550781 -5.453125 6.847656 -4.601563 6.851563 -3.519531 C 6.847656 -2.636719 6.714844 -1.945313 6.453125 -1.441406 C 6.1875 -0.933594 5.804688 -0.539063 5.300781 -0.261719 C 4.792969 0.015625 4.242188 0.152344 3.648438 0.15625 C 2.6875 0.152344 1.914063 -0.152344 1.324219 -0.765625 C 0.730469 -1.378906 0.433594 -2.265625 0.4375 -3.421875 Z M 1.628906 -3.421875 C 1.628906 -2.546875 1.820313 -1.890625 2.203125 -1.453125 C 2.585938 -1.015625 3.066406 -0.796875 3.648438 -0.800781 C 4.222656 -0.796875 4.703125 -1.015625 5.085938 -1.457031 C 5.46875 -1.890625 5.660156 -2.558594 5.660156 -3.460938 C 5.660156 -4.304688 5.464844 -4.945313 5.082031 -5.382813 C 4.691406 -5.816406 4.214844 -6.035156 3.648438 -6.039063 C 3.066406 -6.035156 2.585938 -5.816406 2.203125 -5.386719 C 1.820313 -4.949219 1.628906 -4.296875 1.628906 -3.421875 Z M 1.628906 -3.421875 "/>
</symbol>
<symbol overflow="visible" id="glyph2-14">
<path style="stroke:none;" d="M 0.871094 0 L 0.871094 -6.84375 L 1.914063 -6.84375 L 1.914063 -5.871094 C 2.414063 -6.621094 3.140625 -6.996094 4.09375 -7 C 4.503906 -6.996094 4.882813 -6.921875 5.230469 -6.777344 C 5.574219 -6.625 5.832031 -6.429688 6.007813 -6.191406 C 6.175781 -5.949219 6.296875 -5.664063 6.367188 -5.335938 C 6.410156 -5.121094 6.433594 -4.746094 6.433594 -4.207031 L 6.433594 0 L 5.273438 0 L 5.273438 -4.164063 C 5.273438 -4.632813 5.226563 -4.984375 5.136719 -5.222656 C 5.042969 -5.453125 4.882813 -5.640625 4.65625 -5.78125 C 4.425781 -5.917969 4.15625 -5.988281 3.847656 -5.992188 C 3.351563 -5.988281 2.925781 -5.832031 2.566406 -5.523438 C 2.207031 -5.207031 2.027344 -4.613281 2.03125 -3.738281 L 2.03125 0 Z M 0.871094 0 "/>
</symbol>
<symbol overflow="visible" id="glyph2-15">
<path style="stroke:none;" d="M 5.3125 0 L 5.3125 -0.863281 C 4.875 -0.183594 4.238281 0.152344 3.398438 0.15625 C 2.851563 0.152344 2.347656 0.00390625 1.890625 -0.292969 C 1.433594 -0.59375 1.078125 -1.011719 0.828125 -1.554688 C 0.574219 -2.09375 0.449219 -2.714844 0.453125 -3.414063 C 0.449219 -4.097656 0.5625 -4.71875 0.792969 -5.273438 C 1.015625 -5.828125 1.359375 -6.253906 1.816406 -6.554688 C 2.269531 -6.847656 2.777344 -6.996094 3.34375 -7 C 3.753906 -6.996094 4.121094 -6.910156 4.445313 -6.738281 C 4.765625 -6.5625 5.027344 -6.335938 5.234375 -6.058594 L 5.234375 -9.449219 L 6.386719 -9.449219 L 6.386719 0 Z M 1.644531 -3.414063 C 1.640625 -2.535156 1.824219 -1.878906 2.199219 -1.449219 C 2.566406 -1.011719 3.003906 -0.796875 3.507813 -0.800781 C 4.011719 -0.796875 4.441406 -1.003906 4.796875 -1.421875 C 5.152344 -1.832031 5.332031 -2.464844 5.332031 -3.320313 C 5.332031 -4.253906 5.148438 -4.941406 4.789063 -5.378906 C 4.421875 -5.816406 3.976563 -6.035156 3.453125 -6.039063 C 2.933594 -6.035156 2.503906 -5.824219 2.160156 -5.40625 C 1.8125 -4.984375 1.640625 -4.320313 1.644531 -3.414063 Z M 1.644531 -3.414063 "/>
</symbol>
<symbol overflow="visible" id="glyph2-16">
<path style="stroke:none;" d="M 3.402344 -1.039063 L 3.570313 -0.0117188 C 3.242188 0.0546875 2.953125 0.0859375 2.695313 0.0898438 C 2.273438 0.0859375 1.945313 0.0234375 1.714844 -0.109375 C 1.480469 -0.238281 1.316406 -0.414063 1.222656 -0.632813 C 1.125 -0.851563 1.078125 -1.308594 1.082031 -2.003906 L 1.082031 -5.941406 L 0.230469 -5.941406 L 0.230469 -6.84375 L 1.082031 -6.84375 L 1.082031 -8.539063 L 2.238281 -9.234375 L 2.238281 -6.84375 L 3.402344 -6.84375 L 3.402344 -5.941406 L 2.238281 -5.941406 L 2.238281 -1.941406 C 2.238281 -1.605469 2.257813 -1.394531 2.296875 -1.300781 C 2.335938 -1.207031 2.402344 -1.128906 2.496094 -1.074219 C 2.589844 -1.015625 2.722656 -0.988281 2.894531 -0.992188 C 3.019531 -0.988281 3.1875 -1.003906 3.402344 -1.039063 Z M 3.402344 -1.039063 "/>
</symbol>
<symbol overflow="visible" id="glyph2-17">
<path style="stroke:none;" d="M 0.65625 0.566406 L 1.785156 0.734375 C 1.828125 1.078125 1.960938 1.332031 2.179688 1.496094 C 2.464844 1.707031 2.855469 1.816406 3.359375 1.816406 C 3.890625 1.816406 4.304688 1.707031 4.601563 1.492188 C 4.890625 1.277344 5.089844 0.976563 5.195313 0.59375 C 5.253906 0.351563 5.28125 -0.140625 5.277344 -0.894531 C 4.769531 -0.296875 4.136719 0 3.382813 0 C 2.4375 0 1.710938 -0.335938 1.199219 -1.015625 C 0.679688 -1.691406 0.421875 -2.507813 0.425781 -3.460938 C 0.421875 -4.113281 0.539063 -4.714844 0.777344 -5.269531 C 1.011719 -5.816406 1.355469 -6.242188 1.804688 -6.546875 C 2.253906 -6.84375 2.78125 -6.996094 3.390625 -7 C 4.195313 -6.996094 4.859375 -6.667969 5.386719 -6.019531 L 5.386719 -6.84375 L 6.457031 -6.84375 L 6.457031 -0.929688 C 6.457031 0.136719 6.347656 0.890625 6.132813 1.335938 C 5.914063 1.78125 5.570313 2.132813 5.101563 2.390625 C 4.628906 2.648438 4.050781 2.777344 3.363281 2.777344 C 2.546875 2.777344 1.886719 2.59375 1.386719 2.226563 C 0.882813 1.859375 0.640625 1.304688 0.65625 0.566406 Z M 1.617188 -3.546875 C 1.617188 -2.644531 1.792969 -1.988281 2.152344 -1.578125 C 2.503906 -1.164063 2.953125 -0.960938 3.492188 -0.960938 C 4.023438 -0.960938 4.46875 -1.164063 4.832031 -1.574219 C 5.191406 -1.984375 5.371094 -2.628906 5.375 -3.507813 C 5.371094 -4.339844 5.1875 -4.96875 4.816406 -5.398438 C 4.445313 -5.820313 3.996094 -6.035156 3.472656 -6.039063 C 2.953125 -6.035156 2.515625 -5.824219 2.15625 -5.410156 C 1.796875 -4.988281 1.617188 -4.367188 1.617188 -3.546875 Z M 1.617188 -3.546875 "/>
</symbol>
<symbol overflow="visible" id="glyph2-18">
<path style="stroke:none;" d="M 0.40625 -2.042969 L 1.554688 -2.222656 C 1.613281 -1.761719 1.792969 -1.410156 2.089844 -1.167969 C 2.382813 -0.917969 2.792969 -0.796875 3.324219 -0.800781 C 3.855469 -0.796875 4.253906 -0.90625 4.511719 -1.125 C 4.769531 -1.339844 4.898438 -1.59375 4.898438 -1.886719 C 4.898438 -2.148438 4.785156 -2.355469 4.558594 -2.507813 C 4.398438 -2.609375 4 -2.738281 3.371094 -2.898438 C 2.515625 -3.113281 1.925781 -3.300781 1.601563 -3.457031 C 1.269531 -3.613281 1.019531 -3.828125 0.851563 -4.105469 C 0.679688 -4.382813 0.597656 -4.691406 0.597656 -5.027344 C 0.597656 -5.332031 0.667969 -5.613281 0.808594 -5.875 C 0.949219 -6.132813 1.136719 -6.347656 1.378906 -6.523438 C 1.554688 -6.652344 1.800781 -6.765625 2.117188 -6.859375 C 2.425781 -6.949219 2.761719 -6.996094 3.121094 -7 C 3.65625 -6.996094 4.128906 -6.917969 4.535156 -6.765625 C 4.941406 -6.609375 5.238281 -6.398438 5.433594 -6.136719 C 5.621094 -5.871094 5.753906 -5.519531 5.832031 -5.078125 L 4.699219 -4.925781 C 4.644531 -5.273438 4.492188 -5.546875 4.25 -5.75 C 4 -5.945313 3.652344 -6.046875 3.203125 -6.046875 C 2.667969 -6.046875 2.289063 -5.957031 2.0625 -5.78125 C 1.835938 -5.601563 1.722656 -5.394531 1.722656 -5.164063 C 1.722656 -5.007813 1.769531 -4.875 1.863281 -4.757813 C 1.957031 -4.632813 2.105469 -4.527344 2.308594 -4.445313 C 2.421875 -4.402344 2.761719 -4.304688 3.332031 -4.152344 C 4.148438 -3.929688 4.71875 -3.75 5.046875 -3.609375 C 5.367188 -3.46875 5.625 -3.265625 5.8125 -3.003906 C 5.996094 -2.734375 6.085938 -2.402344 6.089844 -2.011719 C 6.085938 -1.621094 5.972656 -1.257813 5.75 -0.917969 C 5.523438 -0.574219 5.199219 -0.308594 4.773438 -0.125 C 4.347656 0.0625 3.867188 0.152344 3.332031 0.15625 C 2.441406 0.152344 1.761719 -0.03125 1.296875 -0.398438 C 0.828125 -0.765625 0.53125 -1.3125 0.40625 -2.042969 Z M 0.40625 -2.042969 "/>
</symbol>
<symbol overflow="visible" id="glyph2-19">
<path style="stroke:none;" d="M 0.0976563 0 L 2.597656 -3.558594 L 0.285156 -6.84375 L 1.734375 -6.84375 L 2.785156 -5.238281 C 2.980469 -4.933594 3.140625 -4.675781 3.261719 -4.472656 C 3.449219 -4.753906 3.625 -5.007813 3.785156 -5.226563 L 4.9375 -6.84375 L 6.324219 -6.84375 L 3.957031 -3.621094 L 6.503906 0 L 5.078125 0 L 3.671875 -2.125 L 3.300781 -2.699219 L 1.5 0 Z M 0.0976563 0 "/>
</symbol>
<symbol overflow="visible" id="glyph2-20">
<path style="stroke:none;" d=""/>
</symbol>
<symbol overflow="visible" id="glyph2-21">
<path style="stroke:none;" d="M 3.085938 2.777344 C 2.441406 1.96875 1.898438 1.023438 1.460938 -0.0585938 C 1.015625 -1.140625 0.796875 -2.261719 0.800781 -3.421875 C 0.796875 -4.445313 0.960938 -5.425781 1.296875 -6.363281 C 1.679688 -7.449219 2.277344 -8.53125 3.085938 -9.609375 L 3.917969 -9.609375 C 3.398438 -8.714844 3.054688 -8.074219 2.886719 -7.695313 C 2.625 -7.097656 2.417969 -6.480469 2.269531 -5.839844 C 2.082031 -5.03125 1.992188 -4.222656 1.992188 -3.414063 C 1.992188 -1.347656 2.632813 0.714844 3.917969 2.777344 Z M 3.085938 2.777344 "/>
</symbol>
<symbol overflow="visible" id="glyph2-22">
<path style="stroke:none;" d="M 1.003906 0 L 1.003906 -9.449219 L 2.289063 -9.449219 L 7.25 -2.03125 L 7.25 -9.449219 L 8.449219 -9.449219 L 8.449219 0 L 7.167969 0 L 2.203125 -7.425781 L 2.203125 0 Z M 1.003906 0 "/>
</symbol>
<symbol overflow="visible" id="glyph2-23">
<path style="stroke:none;" d="M 1.082031 0 L 1.082031 -9.449219 L 7.457031 -9.449219 L 7.457031 -8.332031 L 2.332031 -8.332031 L 2.332031 -5.40625 L 6.765625 -5.40625 L 6.765625 -4.292969 L 2.332031 -4.292969 L 2.332031 0 Z M 1.082031 0 "/>
</symbol>
<symbol overflow="visible" id="glyph2-24">
<path style="stroke:none;" d="M -0.0195313 0 L 3.609375 -9.449219 L 4.957031 -9.449219 L 8.824219 0 L 7.398438 0 L 6.296875 -2.863281 L 2.347656 -2.863281 L 1.308594 0 Z M 2.707031 -3.878906 L 5.910156 -3.878906 L 4.925781 -6.496094 C 4.621094 -7.289063 4.398438 -7.941406 4.253906 -8.457031 C 4.132813 -7.847656 3.960938 -7.246094 3.746094 -6.652344 Z M 2.707031 -3.878906 "/>
</symbol>
<symbol overflow="visible" id="glyph2-25">
<path style="stroke:none;" d="M 1.628906 2.777344 L 0.800781 2.777344 C 2.082031 0.714844 2.722656 -1.347656 2.726563 -3.414063 C 2.722656 -4.222656 2.632813 -5.023438 2.449219 -5.820313 C 2.300781 -6.460938 2.09375 -7.082031 1.835938 -7.675781 C 1.664063 -8.0625 1.320313 -8.707031 0.800781 -9.609375 L 1.628906 -9.609375 C 2.4375 -8.53125 3.035156 -7.449219 3.421875 -6.363281 C 3.75 -5.425781 3.914063 -4.445313 3.917969 -3.421875 C 3.914063 -2.261719 3.691406 -1.140625 3.25 -0.0585938 C 2.804688 1.023438 2.265625 1.96875 1.628906 2.777344 Z M 1.628906 2.777344 "/>
</symbol>
</g>
</defs>
<g id="surface406">
<rect x="0" y="0" width="720" height="360" style="fill:rgb(100%,100%,100%);fill-opacity:1;stroke:none;"/>
<path style=" stroke:none;fill-rule:nonzero;fill:rgb(65.098039%,80.784314%,89.019608%);fill-opacity:0.501961;" d="M 156.25 188.851563 L 156.25 63.851563 L 151.875 63.929688 L 147.507813 64.160156 L 143.148438 64.542969 L 138.804688 65.074219 L 134.484375 65.761719 L 130.1875 66.597656 L 125.925781 67.585938 L 121.699219 68.722656 L 117.515625 70.003906 L 113.378906 71.433594 L 109.296875 73.007813 L 105.273438 74.71875 L 101.308594 76.574219 L 105.097656 84.316406 L 106.992188 88.191406 L 118.359375 111.417969 L 120.253906 115.292969 L 131.621094 138.519531 L 133.515625 142.394531 L 144.882813 165.621094 L 146.777344 169.496094 Z M 156.25 188.851563 "/>
<path style=" stroke:none;fill-rule:nonzero;fill:rgb(12.156863%,47.058824%,70.588235%);fill-opacity:0.501961;" d="M 156.25 188.851563 L 146.777344 169.496094 L 144.882813 165.621094 L 133.515625 142.394531 L 131.621094 138.519531 L 120.253906 115.292969 L 118.359375 111.417969 L 106.992188 88.191406 L 105.097656 84.316406 L 101.308594 76.574219 L 97.515625 78.511719 L 93.789063 80.578125 L 90.132813 82.769531 L 86.554688 85.085938 L 83.058594 87.519531 L 79.648438 90.074219 L 76.328125 92.742188 L 73.097656 95.519531 L 69.964844 98.410156 L 66.933594 101.402344 L 64.003906 104.496094 L 61.183594 107.691406 L 58.472656 110.976563 L 55.875 114.355469 L 53.394531 117.820313 L 51.035156 121.367188 L 48.796875 124.992188 L 52.5 127.191406 L 56.207031 129.394531 L 59.910156 131.597656 L 63.617188 133.800781 L 67.320313 136 L 74.734375 140.40625 L 78.4375 142.609375 L 82.144531 144.808594 L 85.847656 147.011719 L 89.554688 149.214844 L 93.257813 151.417969 L 96.964844 153.617188 L 100.671875 155.820313 L 104.375 158.023438 L 108.082031 160.226563 L 111.785156 162.425781 L 115.492188 164.628906 L 119.195313 166.832031 L 122.902344 169.035156 L 126.609375 171.234375 L 130.3125 173.4375 L 134.019531 175.640625 L 137.722656 177.84375 L 141.429688 180.042969 L 145.132813 182.246094 L 152.546875 186.652344 Z M 156.25 188.851563 "/>
<path style=" stroke:none;fill-rule:nonzero;fill:rgb(69.803922%,87.45098%,54.117647%);fill-opacity:0.501961;" d="M 156.25 188.851563 L 152.546875 186.652344 L 145.132813 182.246094 L 141.429688 180.042969 L 137.722656 177.84375 L 134.019531 175.640625 L 130.3125 173.4375 L 126.609375 171.234375 L 122.902344 169.035156 L 119.195313 166.832031 L 115.492188 164.628906 L 111.785156 162.425781 L 108.082031 160.226563 L 104.375 158.023438 L 100.671875 155.820313 L 96.964844 153.617188 L 93.257813 151.417969 L 89.554688 149.214844 L 85.847656 147.011719 L 82.144531 144.808594 L 78.4375 142.609375 L 74.734375 140.40625 L 67.320313 136 L 63.617188 133.800781 L 59.910156 131.597656 L 56.207031 129.394531 L 52.5 127.191406 L 48.796875 124.992188 L 46.207031 129.5625 L 43.8125 134.238281 L 47.691406 136.121094 L 51.566406 138.003906 L 55.445313 139.886719 L 59.320313 141.769531 L 63.199219 143.652344 L 67.074219 145.535156 L 70.953125 147.421875 L 74.832031 149.304688 L 78.707031 151.1875 L 82.585938 153.070313 L 86.460938 154.953125 L 90.339844 156.835938 L 94.214844 158.71875 L 98.09375 160.601563 L 101.96875 162.488281 L 109.726563 166.253906 L 113.601563 168.136719 L 117.480469 170.019531 L 121.355469 171.902344 L 125.234375 173.785156 L 129.109375 175.671875 L 132.988281 177.554688 L 136.863281 179.4375 L 144.621094 183.203125 L 148.496094 185.085938 L 152.375 186.96875 Z M 156.25 188.851563 "/>
<path style=" stroke:none;fill-rule:nonzero;fill:rgb(55.294118%,82.745098%,78.039216%);fill-opacity:0.501961;" d="M 156.25 188.851563 L 152.375 186.96875 L 148.496094 185.085938 L 144.621094 183.203125 L 136.863281 179.4375 L 132.988281 177.554688 L 129.109375 175.671875 L 125.234375 173.785156 L 121.355469 171.902344 L 117.480469 170.019531 L 113.601563 168.136719 L 109.726563 166.253906 L 101.96875 162.488281 L 98.09375 160.601563 L 94.214844 158.71875 L 90.339844 156.835938 L 86.460938 154.953125 L 82.585938 153.070313 L 78.707031 151.1875 L 74.832031 149.304688 L 70.953125 147.421875 L 67.074219 145.535156 L 63.199219 143.652344 L 59.320313 141.769531 L 55.445313 139.886719 L 51.566406 138.003906 L 47.691406 136.121094 L 43.8125 134.238281 L 42.015625 138.105469 L 40.351563 142.03125 L 38.820313 146.011719 L 37.425781 150.042969 L 36.171875 154.121094 L 35.058594 158.238281 L 34.082031 162.390625 L 33.25 166.574219 L 32.5625 170.78125 L 32.019531 175.011719 L 31.617188 179.257813 L 31.363281 183.515625 L 31.253906 187.78125 L 31.289063 192.046875 L 31.472656 196.304688 L 31.800781 200.558594 L 32.269531 204.796875 L 32.886719 209.019531 L 33.648438 213.214844 L 34.550781 217.382813 L 35.59375 221.519531 L 36.777344 225.617188 L 38.101563 229.671875 L 39.5625 233.675781 L 41.160156 237.632813 L 42.890625 241.53125 L 44.753906 245.367188 L 46.746094 249.136719 L 48.867188 252.839844 L 51.113281 256.464844 L 53.480469 260.011719 L 55.96875 263.476563 L 58.574219 266.855469 L 61.292969 270.140625 L 64.121094 273.335938 L 67.054688 276.429688 L 70.09375 279.421875 L 73.234375 282.304688 L 76.472656 285.085938 L 79.800781 287.75 L 83.21875 290.300781 L 86.722656 292.734375 L 90.308594 295.042969 L 93.96875 297.234375 L 97.703125 299.292969 L 101.503906 301.226563 L 105.371094 303.03125 L 109.292969 304.699219 L 113.273438 306.234375 L 117.304688 307.632813 L 121.378906 308.890625 L 125.496094 310.011719 L 129.644531 310.988281 L 133.828125 311.828125 L 138.035156 312.519531 L 142.265625 313.070313 L 146.511719 313.472656 L 150.769531 313.734375 L 155.03125 313.847656 L 159.296875 313.816406 L 163.558594 313.640625 L 163.308594 309.335938 L 163.054688 305.035156 L 162.804688 300.730469 L 162.550781 296.429688 L 162.300781 292.125 L 162.046875 287.820313 L 161.796875 283.519531 L 161.542969 279.214844 L 161.289063 274.914063 L 161.039063 270.609375 L 160.785156 266.308594 L 160.535156 262.003906 L 160.28125 257.699219 L 160.03125 253.398438 L 159.777344 249.09375 L 159.527344 244.792969 L 159.273438 240.488281 L 159.023438 236.1875 L 158.769531 231.882813 L 158.519531 227.578125 L 158.265625 223.277344 L 158.015625 218.972656 L 157.761719 214.671875 L 157.511719 210.367188 L 157.257813 206.066406 L 157.007813 201.761719 L 156.753906 197.460938 L 156.503906 193.15625 Z M 156.25 188.851563 "/>
<path style=" stroke:none;fill-rule:nonzero;fill:rgb(98.431373%,60.392157%,60%);fill-opacity:0.501961;" d="M 156.25 188.851563 L 156.503906 193.15625 L 156.753906 197.460938 L 157.007813 201.761719 L 157.257813 206.066406 L 157.511719 210.367188 L 157.761719 214.671875 L 158.015625 218.972656 L 158.265625 223.277344 L 158.519531 227.578125 L 158.769531 231.882813 L 159.023438 236.1875 L 159.273438 240.488281 L 159.527344 244.792969 L 159.777344 249.09375 L 160.03125 253.398438 L 160.28125 257.699219 L 160.535156 262.003906 L 160.785156 266.308594 L 161.039063 270.609375 L 161.289063 274.914063 L 161.542969 279.214844 L 161.796875 283.519531 L 162.046875 287.820313 L 162.300781 292.125 L 162.550781 296.429688 L 162.804688 300.730469 L 163.054688 305.035156 L 163.308594 309.335938 L 163.558594 313.640625 L 167.886719 313.3125 L 172.195313 312.832031 L 176.488281 312.203125 L 180.757813 311.425781 L 184.996094 310.503906 L 189.203125 309.433594 L 193.367188 308.214844 L 197.488281 306.855469 L 201.558594 305.355469 L 205.574219 303.710938 L 209.527344 301.929688 L 213.421875 300.015625 L 217.246094 297.964844 L 220.996094 295.78125 L 224.664063 293.46875 L 228.253906 291.03125 L 231.757813 288.472656 L 235.167969 285.792969 L 238.484375 282.992188 L 241.703125 280.082031 L 244.816406 277.0625 L 241.765625 274.019531 L 238.710938 270.980469 L 232.601563 264.894531 L 229.546875 261.855469 L 226.492188 258.8125 L 223.441406 255.769531 L 220.386719 252.730469 L 214.277344 246.644531 L 211.222656 243.605469 L 208.167969 240.5625 L 205.117188 237.519531 L 202.0625 234.480469 L 195.953125 228.394531 L 192.898438 225.355469 L 189.84375 222.3125 L 186.792969 219.269531 L 183.738281 216.230469 L 174.574219 207.101563 L 171.519531 204.0625 L 168.46875 201.019531 L 165.414063 197.976563 L 162.359375 194.9375 Z M 156.25 188.851563 "/>
<path style=" stroke:none;fill-rule:nonzero;fill:rgb(89.019608%,10.196078%,10.980392%);fill-opacity:0.501961;" d="M 156.25 188.851563 L 162.359375 194.9375 L 165.414063 197.976563 L 168.46875 201.019531 L 171.519531 204.0625 L 174.574219 207.101563 L 183.738281 216.230469 L 186.792969 219.269531 L 189.84375 222.3125 L 192.898438 225.355469 L 195.953125 228.394531 L 202.0625 234.480469 L 205.117188 237.519531 L 208.167969 240.5625 L 211.222656 243.605469 L 214.277344 246.644531 L 220.386719 252.730469 L 223.441406 255.769531 L 226.492188 258.8125 L 229.546875 261.855469 L 232.601563 264.894531 L 238.710938 270.980469 L 241.765625 274.019531 L 244.816406 277.0625 L 248.320313 273.402344 L 251.667969 269.601563 L 254.863281 265.671875 L 251.460938 263.023438 L 248.0625 260.375 L 244.660156 257.726563 L 241.261719 255.074219 L 237.859375 252.425781 L 234.460938 249.777344 L 231.058594 247.128906 L 227.660156 244.480469 L 224.257813 241.832031 L 220.859375 239.183594 L 217.457031 236.535156 L 214.058594 233.882813 L 210.65625 231.234375 L 207.257813 228.585938 L 203.855469 225.9375 L 200.457031 223.289063 L 197.054688 220.640625 L 193.65625 217.992188 L 190.253906 215.34375 L 186.855469 212.691406 L 183.453125 210.042969 L 180.054688 207.394531 L 176.652344 204.746094 L 173.253906 202.097656 L 169.851563 199.449219 L 166.453125 196.800781 L 163.050781 194.152344 L 159.652344 191.503906 Z M 156.25 188.851563 "/>
<path style=" stroke:none;fill-rule:nonzero;fill:rgb(99.215686%,74.901961%,43.529412%);fill-opacity:0.501961;" d="M 156.25 188.851563 L 159.652344 191.503906 L 163.050781 194.152344 L 166.453125 196.800781 L 169.851563 199.449219 L 173.253906 202.097656 L 176.652344 204.746094 L 180.054688 207.394531 L 183.453125 210.042969 L 186.855469 212.691406 L 190.253906 215.34375 L 193.65625 217.992188 L 197.054688 220.640625 L 200.457031 223.289063 L 203.855469 225.9375 L 207.257813 228.585938 L 210.65625 231.234375 L 214.058594 233.882813 L 217.457031 236.535156 L 220.859375 239.183594 L 224.257813 241.832031 L 227.660156 244.480469 L 231.058594 247.128906 L 234.460938 249.777344 L 237.859375 252.425781 L 241.261719 255.074219 L 244.660156 257.726563 L 248.0625 260.375 L 251.460938 263.023438 L 254.863281 265.671875 L 257.699219 261.886719 L 254.199219 259.367188 L 250.703125 256.847656 L 247.203125 254.328125 L 243.707031 251.8125 L 236.707031 246.773438 L 233.210938 244.257813 L 229.710938 241.738281 L 226.214844 239.21875 L 222.714844 236.703125 L 219.21875 234.183594 L 215.71875 231.664063 L 212.222656 229.148438 L 208.722656 226.628906 L 205.226563 224.109375 L 201.726563 221.589844 L 198.230469 219.074219 L 194.730469 216.554688 L 191.234375 214.035156 L 187.734375 211.519531 L 184.234375 209 L 180.738281 206.480469 L 177.238281 203.964844 L 173.742188 201.445313 L 170.242188 198.925781 L 166.746094 196.40625 L 163.246094 193.890625 L 159.75 191.371094 Z M 156.25 188.851563 "/>
<path style=" stroke:none;fill-rule:nonzero;fill:rgb(100%,49.803922%,0%);fill-opacity:0.501961;" d="M 156.25 188.851563 L 159.75 191.371094 L 163.246094 193.890625 L 166.746094 196.40625 L 170.242188 198.925781 L 173.742188 201.445313 L 177.238281 203.964844 L 180.738281 206.480469 L 184.234375 209 L 187.734375 211.519531 L 191.234375 214.035156 L 194.730469 216.554688 L 198.230469 219.074219 L 201.726563 221.589844 L 205.226563 224.109375 L 208.722656 226.628906 L 212.222656 229.148438 L 215.71875 231.664063 L 219.21875 234.183594 L 222.714844 236.703125 L 226.214844 239.21875 L 229.710938 241.738281 L 233.210938 244.257813 L 236.707031 246.773438 L 243.707031 251.8125 L 247.203125 254.328125 L 250.703125 256.847656 L 254.199219 259.367188 L 257.699219 261.886719 L 260.664063 257.574219 L 257.066406 255.207031 L 249.863281 250.464844 L 246.265625 248.097656 L 239.0625 243.355469 L 235.460938 240.988281 L 231.863281 238.617188 L 228.261719 236.246094 L 224.660156 233.878906 L 221.058594 231.507813 L 217.460938 229.136719 L 213.859375 226.769531 L 206.65625 222.027344 L 203.058594 219.660156 L 199.457031 217.289063 L 195.855469 214.921875 L 192.257813 212.550781 L 188.65625 210.179688 L 185.054688 207.8125 L 181.453125 205.441406 L 177.855469 203.070313 L 174.253906 200.703125 L 167.050781 195.960938 L 163.453125 193.59375 Z M 156.25 188.851563 "/>
<path style=" stroke:none;fill-rule:nonzero;fill:rgb(50.196078%,50.196078%,50.196078%);fill-opacity:0.501961;" d="M 156.25 188.851563 L 163.453125 193.59375 L 167.050781 195.960938 L 174.253906 200.703125 L 177.855469 203.070313 L 181.453125 205.441406 L 185.054688 207.8125 L 188.65625 210.179688 L 192.257813 212.550781 L 195.855469 214.921875 L 199.457031 217.289063 L 203.058594 219.660156 L 206.65625 222.027344 L 213.859375 226.769531 L 217.460938 229.136719 L 221.058594 231.507813 L 224.660156 233.878906 L 228.261719 236.246094 L 231.863281 238.617188 L 235.460938 240.988281 L 239.0625 243.355469 L 246.265625 248.097656 L 249.863281 250.464844 L 257.066406 255.207031 L 260.664063 257.574219 L 262.972656 253.933594 L 265.15625 250.214844 L 267.207031 246.421875 L 269.125 242.558594 L 270.910156 238.632813 L 272.558594 234.648438 L 274.070313 230.609375 L 275.441406 226.519531 L 276.667969 222.386719 L 277.753906 218.214844 L 278.695313 214.007813 L 279.488281 209.769531 L 280.136719 205.503906 L 280.636719 201.222656 L 280.992188 196.925781 L 281.195313 192.617188 L 281.25 188.304688 L 281.15625 183.992188 L 280.914063 179.6875 L 280.523438 175.394531 L 279.988281 171.117188 L 279.300781 166.859375 L 278.46875 162.628906 L 277.492188 158.425781 L 276.371094 154.261719 L 275.105469 150.140625 L 273.699219 146.066406 L 272.152344 142.039063 L 270.46875 138.070313 L 268.652344 134.160156 L 266.699219 130.316406 L 264.613281 126.539063 L 262.398438 122.839844 L 260.058594 119.21875 L 256.480469 121.621094 L 252.898438 124.019531 L 245.742188 128.824219 L 242.160156 131.222656 L 238.582031 133.625 L 235 136.027344 L 231.421875 138.429688 L 227.84375 140.828125 L 224.261719 143.230469 L 220.683594 145.632813 L 217.105469 148.03125 L 213.523438 150.433594 L 209.945313 152.835938 L 206.363281 155.234375 L 199.207031 160.039063 L 195.625 162.441406 L 192.046875 164.839844 L 188.46875 167.242188 L 184.886719 169.644531 L 181.308594 172.042969 L 177.726563 174.445313 L 170.570313 179.25 L 166.988281 181.648438 L 159.832031 186.453125 Z M 156.25 188.851563 "/>
<path style=" stroke:none;fill-rule:nonzero;fill:rgb(79.215686%,69.803922%,83.921569%);fill-opacity:0.501961;" d="M 156.25 188.851563 L 159.832031 186.453125 L 166.988281 181.648438 L 170.570313 179.25 L 177.726563 174.445313 L 181.308594 172.042969 L 184.886719 169.644531 L 188.46875 167.242188 L 192.046875 164.839844 L 195.625 162.441406 L 199.207031 160.039063 L 206.363281 155.234375 L 209.945313 152.835938 L 213.523438 150.433594 L 217.105469 148.03125 L 220.683594 145.632813 L 224.261719 143.230469 L 227.84375 140.828125 L 231.421875 138.429688 L 235 136.027344 L 238.582031 133.625 L 242.160156 131.222656 L 245.742188 128.824219 L 252.898438 124.019531 L 256.480469 121.621094 L 260.058594 119.21875 L 257.613281 115.703125 L 255.046875 112.269531 L 252.363281 108.929688 L 249.566406 105.683594 L 246.664063 102.535156 L 243.652344 99.488281 L 240.539063 96.542969 L 237.324219 93.710938 L 234.527344 96.992188 L 231.734375 100.269531 L 226.140625 106.832031 L 223.347656 110.113281 L 217.753906 116.675781 L 214.960938 119.957031 L 209.367188 126.519531 L 206.574219 129.796875 L 198.183594 139.640625 L 195.390625 142.921875 L 189.796875 149.484375 L 187.003906 152.765625 L 184.207031 156.046875 L 181.410156 159.324219 L 178.617188 162.605469 L 173.023438 169.167969 L 170.230469 172.449219 L 164.636719 179.011719 L 161.84375 182.292969 L 159.046875 185.574219 Z M 156.25 188.851563 "/>
<path style=" stroke:none;fill-rule:nonzero;fill:rgb(41.568627%,23.921569%,60.392157%);fill-opacity:0.501961;" d="M 156.25 188.851563 L 159.046875 185.574219 L 161.84375 182.292969 L 164.636719 179.011719 L 170.230469 172.449219 L 173.023438 169.167969 L 178.617188 162.605469 L 181.410156 159.324219 L 184.207031 156.046875 L 187.003906 152.765625 L 189.796875 149.484375 L 195.390625 142.921875 L 198.183594 139.640625 L 206.574219 129.796875 L 209.367188 126.519531 L 214.960938 119.957031 L 217.753906 116.675781 L 223.347656 110.113281 L 226.140625 106.832031 L 231.734375 100.269531 L 234.527344 96.992188 L 237.324219 93.710938 L 233.917969 90.910156 L 230.414063 88.230469 L 226.816406 85.675781 L 223.132813 83.25 L 219.367188 80.957031 L 215.519531 78.796875 L 211.601563 76.773438 L 207.613281 74.890625 L 203.558594 73.152344 L 199.449219 71.554688 L 195.285156 70.101563 L 191.070313 68.800781 L 186.8125 67.644531 L 182.519531 66.644531 L 178.191406 65.792969 L 173.835938 65.09375 L 169.457031 64.550781 L 165.066406 64.164063 L 160.660156 63.929688 L 156.25 63.851563 Z M 156.25 188.851563 "/>
<g style="fill:rgb(0%,0%,0%);fill-opacity:1;">
  <use xlink:href="#glyph0-1" x="318.171875" y="95.011719"/>
  <use xlink:href="#glyph0-2" x="321.228027" y="95.011719"/>
  <use xlink:href="#glyph0-3" x="326.728027" y="95.011719"/>
  <use xlink:href="#glyph0-4" x="332.845703" y="95.011719"/>
</g>
<path style=" stroke:none;fill-rule:nonzero;fill:rgb(65.098039%,80.784314%,89.019608%);fill-opacity:0.501961;" d="M 318.878906 118.21875 L 334.742188 118.21875 L 334.742188 102.355469 L 318.878906 102.355469 Z M 318.878906 118.21875 "/>
<path style=" stroke:none;fill-rule:nonzero;fill:rgb(12.156863%,47.058824%,70.588235%);fill-opacity:0.501961;" d="M 318.878906 135.5 L 334.742188 135.5 L 334.742188 119.636719 L 318.878906 119.636719 Z M 318.878906 135.5 "/>
<path style=" stroke:none;fill-rule:nonzero;fill:rgb(69.803922%,87.45098%,54.117647%);fill-opacity:0.501961;" d="M 318.878906 152.777344 L 334.742188 152.777344 L 334.742188 136.914063 L 318.878906 136.914063 Z M 318.878906 152.777344 "/>
<path style=" stroke:none;fill-rule:nonzero;fill:rgb(55.294118%,82.745098%,78.039216%);fill-opacity:0.501961;" d="M 318.878906 170.058594 L 334.742188 170.058594 L 334.742188 154.195313 L 318.878906 154.195313 Z M 318.878906 170.058594 "/>
<path style=" stroke:none;fill-rule:nonzero;fill:rgb(98.431373%,60.392157%,60%);fill-opacity:0.501961;" d="M 318.878906 187.339844 L 334.742188 187.339844 L 334.742188 171.476563 L 318.878906 171.476563 Z M 318.878906 187.339844 "/>
<path style=" stroke:none;fill-rule:nonzero;fill:rgb(89.019608%,10.196078%,10.980392%);fill-opacity:0.501961;" d="M 318.878906 204.617188 L 334.742188 204.617188 L 334.742188 188.753906 L 318.878906 188.753906 Z M 318.878906 204.617188 "/>
<path style=" stroke:none;fill-rule:nonzero;fill:rgb(99.215686%,74.901961%,43.529412%);fill-opacity:0.501961;" d="M 318.878906 221.898438 L 334.742188 221.898438 L 334.742188 206.035156 L 318.878906 206.035156 Z M 318.878906 221.898438 "/>
<path style=" stroke:none;fill-rule:nonzero;fill:rgb(100%,49.803922%,0%);fill-opacity:0.501961;" d="M 318.878906 239.179688 L 334.742188 239.179688 L 334.742188 223.316406 L 318.878906 223.316406 Z M 318.878906 239.179688 "/>
<path style=" stroke:none;fill-rule:nonzero;fill:rgb(50.196078%,50.196078%,50.196078%);fill-opacity:0.501961;" d="M 318.878906 256.457031 L 334.742188 256.457031 L 334.742188 240.59375 L 318.878906 240.59375 Z M 318.878906 256.457031 "/>
<path style=" stroke:none;fill-rule:nonzero;fill:rgb(79.215686%,69.803922%,83.921569%);fill-opacity:0.501961;" d="M 318.878906 273.738281 L 334.742188 273.738281 L 334.742188 257.875 L 318.878906 257.875 Z M 318.878906 273.738281 "/>
<path style=" stroke:none;fill-rule:nonzero;fill:rgb(41.568627%,23.921569%,60.392157%);fill-opacity:0.501961;" d="M 318.878906 291.019531 L 334.742188 291.019531 L 334.742188 275.15625 L 318.878906 275.15625 Z M 318.878906 291.019531 "/>
<g style="fill:rgb(0%,0%,0%);fill-opacity:1;">
  <use xlink:href="#glyph1-1" x="340.929688" y="113.4375"/>
  <use xlink:href="#glyph1-2" x="347.284766" y="113.4375"/>
  <use xlink:href="#glyph1-3" x="353.154297" y="113.4375"/>
</g>
<g style="fill:rgb(0%,0%,0%);fill-opacity:1;">
  <use xlink:href="#glyph1-1" x="340.929688" y="130.71875"/>
  <use xlink:href="#glyph1-4" x="347.284766" y="130.71875"/>
</g>
<g style="fill:rgb(0%,0%,0%);fill-opacity:1;">
  <use xlink:href="#glyph1-1" x="340.929688" y="147.996094"/>
  <use xlink:href="#glyph1-5" x="347.284766" y="147.996094"/>
  <use xlink:href="#glyph1-6" x="352.178906" y="147.996094"/>
</g>
<g style="fill:rgb(0%,0%,0%);fill-opacity:1;">
  <use xlink:href="#glyph1-7" x="340.929688" y="165.277344"/>
  <use xlink:href="#glyph1-2" x="347.284766" y="165.277344"/>
  <use xlink:href="#glyph1-8" x="353.154297" y="165.277344"/>
</g>
<g style="fill:rgb(0%,0%,0%);fill-opacity:1;">
  <use xlink:href="#glyph1-9" x="340.929688" y="182.558594"/>
  <use xlink:href="#glyph1-1" x="346.799219" y="182.558594"/>
</g>
<g style="fill:rgb(0%,0%,0%);fill-opacity:1;">
  <use xlink:href="#glyph1-9" x="340.929688" y="199.835938"/>
  <use xlink:href="#glyph1-4" x="346.799219" y="199.835938"/>
</g>
<g style="fill:rgb(0%,0%,0%);fill-opacity:1;">
  <use xlink:href="#glyph1-9" x="340.929688" y="217.117188"/>
  <use xlink:href="#glyph1-8" x="346.799219" y="217.117188"/>
</g>
<g style="fill:rgb(0%,0%,0%);fill-opacity:1;">
  <use xlink:href="#glyph1-9" x="340.929688" y="234.398438"/>
  <use xlink:href="#glyph1-10" x="346.799219" y="234.398438"/>
</g>
<g style="fill:rgb(0%,0%,0%);fill-opacity:1;">
  <use xlink:href="#glyph1-9" x="340.929688" y="251.675781"/>
  <use xlink:href="#glyph1-11" x="346.799219" y="251.675781"/>
</g>
<g style="fill:rgb(0%,0%,0%);fill-opacity:1;">
  <use xlink:href="#glyph1-11" x="340.929688" y="268.957031"/>
  <use xlink:href="#glyph1-12" x="346.799219" y="268.957031"/>
</g>
<g style="fill:rgb(0%,0%,0%);fill-opacity:1;">
  <use xlink:href="#glyph1-13" x="340.929688" y="286.238281"/>
  <use xlink:href="#glyph1-2" x="346.305078" y="286.238281"/>
  <use xlink:href="#glyph1-8" x="352.174609" y="286.238281"/>
</g>
<g style="fill:rgb(0%,0%,0%);fill-opacity:1;">
  <use xlink:href="#glyph2-1" x="0" y="29.824219"/>
  <use xlink:href="#glyph2-2" x="8.804297" y="29.824219"/>
  <use xlink:href="#glyph2-3" x="16.145508" y="29.824219"/>
  <use xlink:href="#glyph2-4" x="27.141211" y="29.824219"/>
  <use xlink:href="#glyph2-5" x="34.482422" y="29.824219"/>
  <use xlink:href="#glyph2-6" x="37.415039" y="29.824219"/>
  <use xlink:href="#glyph2-7" x="44.75625" y="29.824219"/>
  <use xlink:href="#glyph2-8" x="52.819336" y="29.824219"/>
  <use xlink:href="#glyph2-4" x="59.419336" y="29.824219"/>
  <use xlink:href="#glyph2-6" x="66.760547" y="29.824219"/>
  <use xlink:href="#glyph2-9" x="74.101758" y="29.824219"/>
  <use xlink:href="#glyph2-10" x="81.442969" y="29.824219"/>
  <use xlink:href="#glyph2-5" x="91.710352" y="29.824219"/>
  <use xlink:href="#glyph2-11" x="94.642969" y="29.824219"/>
  <use xlink:href="#glyph2-2" x="97.575586" y="29.824219"/>
  <use xlink:href="#glyph2-9" x="104.916797" y="29.824219"/>
  <use xlink:href="#glyph2-1" x="112.258008" y="29.824219"/>
  <use xlink:href="#glyph2-5" x="121.062305" y="29.824219"/>
  <use xlink:href="#glyph2-6" x="123.994922" y="29.824219"/>
  <use xlink:href="#glyph2-6" x="131.336133" y="29.824219"/>
  <use xlink:href="#glyph2-4" x="138.677344" y="29.824219"/>
  <use xlink:href="#glyph2-12" x="146.018555" y="29.824219"/>
  <use xlink:href="#glyph2-13" x="155.551172" y="29.824219"/>
  <use xlink:href="#glyph2-14" x="162.892383" y="29.824219"/>
  <use xlink:href="#glyph2-15" x="170.233594" y="29.824219"/>
  <use xlink:href="#glyph2-11" x="177.574805" y="29.824219"/>
  <use xlink:href="#glyph2-16" x="180.507422" y="29.824219"/>
  <use xlink:href="#glyph2-11" x="184.174805" y="29.824219"/>
  <use xlink:href="#glyph2-13" x="187.107422" y="29.824219"/>
  <use xlink:href="#glyph2-14" x="194.448633" y="29.824219"/>
  <use xlink:href="#glyph2-9" x="201.789844" y="29.824219"/>
  <use xlink:href="#glyph2-10" x="209.131055" y="29.824219"/>
  <use xlink:href="#glyph2-13" x="219.398437" y="29.824219"/>
  <use xlink:href="#glyph2-11" x="226.739648" y="29.824219"/>
  <use xlink:href="#glyph2-14" x="229.672266" y="29.824219"/>
  <use xlink:href="#glyph2-17" x="237.013477" y="29.824219"/>
  <use xlink:href="#glyph2-16" x="244.354687" y="29.824219"/>
  <use xlink:href="#glyph2-13" x="248.02207" y="29.824219"/>
  <use xlink:href="#glyph2-18" x="255.363281" y="29.824219"/>
  <use xlink:href="#glyph2-5" x="261.963281" y="29.824219"/>
  <use xlink:href="#glyph2-6" x="264.895898" y="29.824219"/>
  <use xlink:href="#glyph2-6" x="272.237109" y="29.824219"/>
  <use xlink:href="#glyph2-4" x="279.57832" y="29.824219"/>
  <use xlink:href="#glyph2-9" x="286.919531" y="29.824219"/>
  <use xlink:href="#glyph2-1" x="294.260742" y="29.824219"/>
  <use xlink:href="#glyph2-6" x="303.065039" y="29.824219"/>
  <use xlink:href="#glyph2-19" x="310.40625" y="29.824219"/>
  <use xlink:href="#glyph2-9" x="317.00625" y="29.824219"/>
  <use xlink:href="#glyph2-3" x="324.347461" y="29.824219"/>
  <use xlink:href="#glyph2-2" x="335.343164" y="29.824219"/>
  <use xlink:href="#glyph2-5" x="342.684375" y="29.824219"/>
  <use xlink:href="#glyph2-6" x="345.616992" y="29.824219"/>
  <use xlink:href="#glyph2-20" x="352.958203" y="29.824219"/>
  <use xlink:href="#glyph2-21" x="356.625586" y="29.824219"/>
  <use xlink:href="#glyph2-22" x="361.021289" y="29.824219"/>
  <use xlink:href="#glyph2-13" x="370.553906" y="29.824219"/>
  <use xlink:href="#glyph2-20" x="377.895117" y="29.824219"/>
  <use xlink:href="#glyph2-23" x="381.5625" y="29.824219"/>
  <use xlink:href="#glyph2-24" x="389.625586" y="29.824219"/>
  <use xlink:href="#glyph2-25" x="398.429883" y="29.824219"/>
</g>
<path style=" stroke:none;fill-rule:nonzero;fill:rgb(65.098039%,80.784314%,89.019608%);fill-opacity:0.501961;" d="M 516.25 188.851563 L 516.25 63.851563 L 511.976563 63.925781 L 507.707031 64.144531 L 503.449219 64.511719 L 499.203125 65.019531 L 494.980469 65.675781 L 495.710938 69.921875 L 496.445313 74.171875 L 497.914063 82.664063 L 498.648438 86.914063 L 499.378906 91.160156 L 500.113281 95.40625 L 500.847656 99.65625 L 501.582031 103.902344 L 502.3125 108.152344 L 503.78125 116.644531 L 504.515625 120.894531 L 505.25 125.140625 L 505.980469 129.386719 L 506.714844 133.636719 L 508.183594 142.128906 L 508.914063 146.378906 L 509.648438 150.625 L 510.382813 154.875 L 511.851563 163.367188 L 512.582031 167.617188 L 514.050781 176.109375 L 514.785156 180.359375 L 515.515625 184.605469 Z M 516.25 188.851563 "/>
<path style=" stroke:none;fill-rule:nonzero;fill:rgb(12.156863%,47.058824%,70.588235%);fill-opacity:0.501961;" d="M 516.25 188.851563 L 515.515625 184.605469 L 514.785156 180.359375 L 514.050781 176.109375 L 512.582031 167.617188 L 511.851563 163.367188 L 510.382813 154.875 L 509.648438 150.625 L 508.914063 146.378906 L 508.183594 142.128906 L 506.714844 133.636719 L 505.980469 129.386719 L 505.25 125.140625 L 504.515625 120.894531 L 503.78125 116.644531 L 502.3125 108.152344 L 501.582031 103.902344 L 500.847656 99.65625 L 500.113281 95.40625 L 499.378906 91.160156 L 498.648438 86.914063 L 497.914063 82.664063 L 496.445313 74.171875 L 495.710938 69.921875 L 494.980469 65.675781 L 491.507813 66.324219 L 492.359375 70.550781 L 493.214844 74.777344 L 494.066406 79 L 494.917969 83.226563 L 495.773438 87.453125 L 496.625 91.675781 L 497.480469 95.902344 L 498.332031 100.125 L 499.1875 104.351563 L 500.039063 108.578125 L 500.890625 112.800781 L 501.746094 117.027344 L 502.597656 121.25 L 503.453125 125.476563 L 504.304688 129.703125 L 505.160156 133.925781 L 506.863281 142.378906 L 507.71875 146.601563 L 508.570313 150.828125 L 509.425781 155.050781 L 510.277344 159.277344 L 511.132813 163.503906 L 511.984375 167.726563 L 512.835938 171.953125 L 513.691406 176.179688 L 514.542969 180.402344 L 515.398438 184.628906 Z M 516.25 188.851563 "/>
<path style=" stroke:none;fill-rule:nonzero;fill:rgb(69.803922%,87.45098%,54.117647%);fill-opacity:0.501961;" d="M 516.25 188.851563 L 515.398438 184.628906 L 514.542969 180.402344 L 513.691406 176.179688 L 512.835938 171.953125 L 511.984375 167.726563 L 511.132813 163.503906 L 510.277344 159.277344 L 509.425781 155.050781 L 508.570313 150.828125 L 507.71875 146.601563 L 506.863281 142.378906 L 505.160156 133.925781 L 504.304688 129.703125 L 503.453125 125.476563 L 502.597656 121.25 L 501.746094 117.027344 L 500.890625 112.800781 L 500.039063 108.578125 L 499.1875 104.351563 L 498.332031 100.125 L 497.480469 95.902344 L 496.625 91.675781 L 495.773438 87.453125 L 494.917969 83.226563 L 494.066406 79 L 493.214844 74.777344 L 492.359375 70.550781 L 491.507813 66.324219 L 489.988281 66.644531 L 490.894531 70.855469 L 491.796875 75.070313 L 494.515625 87.714844 L 495.421875 91.925781 L 496.328125 96.140625 L 497.230469 100.355469 L 499.949219 113 L 500.855469 117.210938 L 502.667969 125.640625 L 503.570313 129.855469 L 505.382813 138.285156 L 506.289063 142.496094 L 508.101563 150.925781 L 509.003906 155.140625 L 509.910156 159.355469 L 510.816406 163.566406 L 514.441406 180.425781 L 515.34375 184.640625 Z M 516.25 188.851563 "/>
<path style=" stroke:none;fill-rule:nonzero;fill:rgb(55.294118%,82.745098%,78.039216%);fill-opacity:0.501961;" d="M 516.25 188.851563 L 515.34375 184.640625 L 514.441406 180.425781 L 510.816406 163.566406 L 509.910156 159.355469 L 509.003906 155.140625 L 508.101563 150.925781 L 506.289063 142.496094 L 505.382813 138.285156 L 503.570313 129.855469 L 502.667969 125.640625 L 500.855469 117.210938 L 499.949219 113 L 497.230469 100.355469 L 496.328125 96.140625 L 495.421875 91.925781 L 494.515625 87.714844 L 491.796875 75.070313 L 490.894531 70.855469 L 489.988281 66.644531 L 485.808594 67.617188 L 481.667969 68.730469 L 477.566406 69.988281 L 473.511719 71.386719 L 469.503906 72.921875 L 465.554688 74.59375 L 461.664063 76.402344 L 457.839844 78.339844 L 454.082031 80.410156 L 450.394531 82.605469 L 446.789063 84.929688 L 443.265625 87.375 L 439.824219 89.9375 L 436.476563 92.617188 L 433.222656 95.410156 L 430.0625 98.316406 L 427.007813 101.324219 L 424.058594 104.441406 L 421.214844 107.652344 L 418.484375 110.960938 L 415.871094 114.363281 L 413.375 117.851563 L 410.996094 121.421875 L 408.746094 125.074219 L 406.621094 128.800781 L 404.625 132.597656 L 402.761719 136.460938 L 401.03125 140.382813 L 399.433594 144.367188 L 397.976563 148.398438 L 396.660156 152.480469 L 395.480469 156.605469 L 394.445313 160.769531 L 393.554688 164.964844 L 392.804688 169.191406 L 392.203125 173.4375 L 391.75 177.703125 L 391.4375 181.980469 L 391.277344 186.265625 L 391.261719 190.558594 L 391.394531 194.84375 L 391.671875 199.125 L 392.097656 203.394531 L 392.671875 207.644531 L 393.386719 211.875 L 394.25 216.078125 L 395.257813 220.246094 L 396.40625 224.378906 L 397.695313 228.46875 L 399.125 232.515625 L 400.691406 236.507813 L 402.394531 240.445313 L 404.230469 244.320313 L 406.199219 248.132813 L 408.300781 251.875 L 410.523438 255.539063 L 412.875 259.128906 L 415.347656 262.632813 L 417.9375 266.054688 L 420.644531 269.382813 L 423.464844 272.613281 L 426.394531 275.75 L 429.429688 278.78125 L 432.5625 281.707031 L 435.449219 278.503906 L 438.335938 275.304688 L 441.222656 272.101563 L 444.105469 268.898438 L 446.992188 265.699219 L 452.765625 259.292969 L 455.648438 256.089844 L 458.535156 252.890625 L 464.308594 246.484375 L 467.191406 243.285156 L 472.964844 236.878906 L 475.851563 233.679688 L 478.734375 230.476563 L 481.621094 227.273438 L 484.507813 224.074219 L 487.394531 220.871094 L 490.277344 217.667969 L 493.164063 214.46875 L 498.9375 208.0625 L 501.820313 204.863281 L 507.59375 198.457031 L 510.480469 195.257813 L 513.363281 192.054688 Z M 516.25 188.851563 "/>
<path style=" stroke:none;fill-rule:nonzero;fill:rgb(98.431373%,60.392157%,60%);fill-opacity:0.501961;" d="M 516.25 188.851563 L 513.363281 192.054688 L 510.480469 195.257813 L 507.59375 198.457031 L 501.820313 204.863281 L 498.9375 208.0625 L 493.164063 214.46875 L 490.277344 217.667969 L 487.394531 220.871094 L 484.507813 224.074219 L 481.621094 227.273438 L 478.734375 230.476563 L 475.851563 233.679688 L 472.964844 236.878906 L 467.191406 243.285156 L 464.308594 246.484375 L 458.535156 252.890625 L 455.648438 256.089844 L 452.765625 259.292969 L 446.992188 265.699219 L 444.105469 268.898438 L 441.222656 272.101563 L 438.335938 275.304688 L 435.449219 278.503906 L 432.5625 281.707031 L 435.777344 284.503906 L 439.082031 287.191406 L 442.480469 289.761719 L 445.960938 292.21875 L 449.523438 294.554688 L 453.164063 296.765625 L 456.878906 298.851563 L 460.660156 300.8125 L 464.507813 302.640625 L 468.414063 304.339844 L 472.378906 305.902344 L 476.394531 307.328125 L 480.453125 308.617188 L 484.554688 309.769531 L 488.695313 310.777344 L 492.863281 311.648438 L 497.0625 312.371094 L 501.28125 312.953125 L 505.519531 313.390625 L 509.769531 313.6875 L 514.027344 313.835938 L 518.289063 313.835938 L 522.546875 313.695313 L 526.796875 313.40625 L 531.035156 312.976563 L 535.253906 312.402344 L 539.453125 311.679688 L 543.625 310.820313 L 547.765625 309.816406 L 551.871094 308.671875 L 555.933594 307.386719 L 559.949219 305.96875 L 563.914063 304.410156 L 567.824219 302.71875 L 571.675781 300.894531 L 575.460938 298.941406 L 579.175781 296.859375 L 582.820313 294.652344 L 586.386719 292.324219 L 589.871094 289.871094 L 593.273438 287.304688 L 596.582031 284.625 L 599.800781 281.832031 L 602.917969 278.929688 L 605.9375 275.925781 L 608.851563 272.816406 L 611.660156 269.613281 L 614.355469 266.316406 L 616.941406 262.925781 L 619.40625 259.453125 L 621.75 255.898438 L 623.972656 252.261719 L 626.074219 248.554688 L 628.042969 244.777344 L 629.882813 240.9375 L 631.59375 237.035156 L 633.167969 233.074219 L 634.605469 229.066406 L 635.910156 225.007813 L 637.070313 220.910156 L 638.09375 216.773438 L 638.972656 212.605469 L 639.710938 208.410156 L 640.308594 204.191406 L 640.757813 199.957031 L 641.0625 195.707031 L 641.222656 191.449219 L 641.242188 187.191406 L 641.109375 182.933594 L 640.835938 178.679688 L 640.417969 174.441406 L 639.855469 170.21875 L 639.148438 166.019531 L 638.296875 161.84375 L 634.089844 162.773438 L 629.882813 163.707031 L 625.671875 164.636719 L 621.464844 165.570313 L 617.253906 166.5 L 613.046875 167.429688 L 608.839844 168.363281 L 604.628906 169.292969 L 600.421875 170.226563 L 596.214844 171.15625 L 592.003906 172.089844 L 587.796875 173.019531 L 583.585938 173.949219 L 579.378906 174.882813 L 575.171875 175.8125 L 570.960938 176.746094 L 566.753906 177.675781 L 562.542969 178.609375 L 554.128906 180.46875 L 549.917969 181.402344 L 545.710938 182.332031 L 541.503906 183.265625 L 537.292969 184.195313 L 533.085938 185.128906 L 528.875 186.058594 L 524.667969 186.992188 L 520.460938 187.921875 Z M 516.25 188.851563 "/>
<path style=" stroke:none;fill-rule:nonzero;fill:rgb(89.019608%,10.196078%,10.980392%);fill-opacity:0.501961;" d="M 516.25 188.851563 L 520.460938 187.921875 L 524.667969 186.992188 L 528.875 186.058594 L 533.085938 185.128906 L 537.292969 184.195313 L 541.503906 183.265625 L 545.710938 182.332031 L 549.917969 181.402344 L 554.128906 180.46875 L 562.542969 178.609375 L 566.753906 177.675781 L 570.960938 176.746094 L 575.171875 175.8125 L 579.378906 174.882813 L 583.585938 173.949219 L 587.796875 173.019531 L 592.003906 172.089844 L 596.214844 171.15625 L 600.421875 170.226563 L 604.628906 169.292969 L 608.839844 168.363281 L 613.046875 167.429688 L 617.253906 166.5 L 621.464844 165.570313 L 625.671875 164.636719 L 629.882813 163.707031 L 634.089844 162.773438 L 638.296875 161.84375 L 637.230469 157.410156 L 636.003906 153.019531 L 634.617188 148.675781 L 633.074219 144.382813 L 631.375 140.152344 L 629.523438 135.988281 L 627.519531 131.890625 L 625.367188 127.871094 L 623.070313 123.929688 L 620.632813 120.078125 L 617.03125 122.449219 L 613.433594 124.820313 L 609.832031 127.195313 L 606.234375 129.566406 L 602.632813 131.9375 L 595.4375 136.679688 L 591.835938 139.050781 L 588.238281 141.421875 L 584.636719 143.792969 L 581.039063 146.164063 L 577.4375 148.539063 L 570.242188 153.28125 L 566.640625 155.652344 L 563.042969 158.023438 L 559.441406 160.394531 L 552.246094 165.136719 L 548.644531 167.507813 L 545.046875 169.882813 L 541.445313 172.253906 L 537.847656 174.625 L 534.246094 176.996094 L 527.050781 181.738281 L 523.449219 184.109375 L 519.851563 186.480469 Z M 516.25 188.851563 "/>
<path style=" stroke:none;fill-rule:nonzero;fill:rgb(99.215686%,74.901961%,43.529412%);fill-opacity:0.501961;" d="M 516.25 188.851563 L 519.851563 186.480469 L 523.449219 184.109375 L 527.050781 181.738281 L 534.246094 176.996094 L 537.847656 174.625 L 541.445313 172.253906 L 545.046875 169.882813 L 548.644531 167.507813 L 552.246094 165.136719 L 559.441406 160.394531 L 563.042969 158.023438 L 566.640625 155.652344 L 570.242188 153.28125 L 577.4375 148.539063 L 581.039063 146.164063 L 584.636719 143.792969 L 588.238281 141.421875 L 591.835938 139.050781 L 595.4375 136.679688 L 602.632813 131.9375 L 606.234375 129.566406 L 609.832031 127.195313 L 613.433594 124.820313 L 617.03125 122.449219 L 620.632813 120.078125 L 619.804688 118.839844 L 609.09375 126.082031 L 605.519531 128.496094 L 591.238281 138.152344 L 587.667969 140.570313 L 580.527344 145.398438 L 576.953125 147.8125 L 551.960938 164.710938 L 548.386719 167.125 L 526.964844 181.609375 L 523.390625 184.023438 Z M 516.25 188.851563 "/>
<path style=" stroke:none;fill-rule:nonzero;fill:rgb(100%,49.803922%,0%);fill-opacity:0.501961;" d="M 516.25 188.851563 L 523.390625 184.023438 L 526.964844 181.609375 L 548.386719 167.125 L 551.960938 164.710938 L 576.953125 147.8125 L 580.527344 145.398438 L 587.667969 140.570313 L 591.238281 138.152344 L 605.519531 128.496094 L 609.09375 126.082031 L 619.804688 118.839844 L 618.222656 116.554688 L 614.703125 119.046875 L 607.671875 124.03125 L 604.15625 126.527344 L 597.125 131.511719 L 593.605469 134.003906 L 590.089844 136.496094 L 586.574219 138.992188 L 576.027344 146.46875 L 572.511719 148.964844 L 568.992188 151.457031 L 561.960938 156.441406 L 558.445313 158.9375 L 547.898438 166.414063 L 544.378906 168.910156 L 530.316406 178.878906 L 526.800781 181.375 L 523.285156 183.867188 L 519.765625 186.359375 Z M 516.25 188.851563 "/>
<path style=" stroke:none;fill-rule:nonzero;fill:rgb(50.196078%,50.196078%,50.196078%);fill-opacity:0.501961;" d="M 516.25 188.851563 L 519.765625 186.359375 L 523.285156 183.867188 L 526.800781 181.375 L 530.316406 178.878906 L 544.378906 168.910156 L 547.898438 166.414063 L 558.445313 158.9375 L 561.960938 156.441406 L 568.992188 151.457031 L 572.511719 148.964844 L 576.027344 146.46875 L 586.574219 138.992188 L 590.089844 136.496094 L 593.605469 134.003906 L 597.125 131.511719 L 604.15625 126.527344 L 607.671875 124.03125 L 614.703125 119.046875 L 618.222656 116.554688 L 615.625 113.023438 L 612.90625 109.589844 L 610.070313 106.253906 L 607.121094 103.015625 L 604.058594 99.886719 L 600.886719 96.863281 L 597.613281 93.957031 L 594.238281 91.164063 L 590.765625 88.492188 L 587.207031 85.941406 L 583.558594 83.519531 L 579.824219 81.226563 L 576.015625 79.066406 L 573.957031 82.851563 L 569.832031 90.421875 L 567.773438 94.207031 L 565.710938 97.996094 L 563.652344 101.78125 L 559.527344 109.351563 L 557.46875 113.136719 L 555.40625 116.921875 L 553.347656 120.710938 L 551.285156 124.496094 L 549.226563 128.28125 L 545.101563 135.851563 L 543.042969 139.636719 L 540.980469 143.421875 L 538.921875 147.210938 L 534.796875 154.78125 L 532.738281 158.566406 L 530.675781 162.351563 L 528.617188 166.136719 L 526.554688 169.925781 L 524.496094 173.710938 L 520.371094 181.28125 L 518.3125 185.066406 Z M 516.25 188.851563 "/>
<path style=" stroke:none;fill-rule:nonzero;fill:rgb(79.215686%,69.803922%,83.921569%);fill-opacity:0.501961;" d="M 516.25 188.851563 L 518.3125 185.066406 L 520.371094 181.28125 L 524.496094 173.710938 L 526.554688 169.925781 L 528.617188 166.136719 L 530.675781 162.351563 L 532.738281 158.566406 L 534.796875 154.78125 L 538.921875 147.210938 L 540.980469 143.421875 L 543.042969 139.636719 L 545.101563 135.851563 L 549.226563 128.28125 L 551.285156 124.496094 L 553.347656 120.710938 L 555.40625 116.921875 L 557.46875 113.136719 L 559.527344 109.351563 L 563.652344 101.78125 L 565.710938 97.996094 L 567.773438 94.207031 L 569.832031 90.421875 L 573.957031 82.851563 L 576.015625 79.066406 L 574.46875 78.238281 L 572.460938 82.050781 L 570.453125 85.867188 L 568.445313 89.679688 L 566.4375 93.496094 L 564.429688 97.308594 L 562.421875 101.125 L 560.414063 104.9375 L 558.410156 108.75 L 556.402344 112.566406 L 554.394531 116.378906 L 552.386719 120.195313 L 550.378906 124.007813 L 548.371094 127.824219 L 546.363281 131.636719 L 544.355469 135.453125 L 542.347656 139.265625 L 540.339844 143.082031 L 538.332031 146.894531 L 536.324219 150.710938 L 534.316406 154.523438 L 532.3125 158.339844 L 530.304688 162.152344 L 528.296875 165.96875 L 526.289063 169.78125 L 524.28125 173.597656 L 520.265625 181.222656 L 518.257813 185.039063 Z M 516.25 188.851563 "/>
<path style=" stroke:none;fill-rule:nonzero;fill:rgb(41.568627%,23.921569%,60.392157%);fill-opacity:0.501961;" d="M 516.25 188.851563 L 518.257813 185.039063 L 520.265625 181.222656 L 524.28125 173.597656 L 526.289063 169.78125 L 528.296875 165.96875 L 530.304688 162.152344 L 532.3125 158.339844 L 534.316406 154.523438 L 536.324219 150.710938 L 538.332031 146.894531 L 540.339844 143.082031 L 542.347656 139.265625 L 544.355469 135.453125 L 546.363281 131.636719 L 548.371094 127.824219 L 550.378906 124.007813 L 552.386719 120.195313 L 554.394531 116.378906 L 556.402344 112.566406 L 558.410156 108.75 L 560.414063 104.9375 L 562.421875 101.125 L 564.429688 97.308594 L 566.4375 93.496094 L 568.445313 89.679688 L 570.453125 85.867188 L 572.460938 82.050781 L 574.46875 78.238281 L 570.605469 76.289063 L 566.679688 74.476563 L 562.691406 72.800781 L 558.648438 71.261719 L 554.554688 69.867188 L 550.414063 68.613281 L 546.234375 67.5 L 542.019531 66.539063 L 537.769531 65.71875 L 533.5 65.046875 L 529.203125 64.527344 L 524.894531 64.152344 L 520.574219 63.925781 L 516.25 63.851563 Z M 516.25 188.851563 "/>
<g style="fill:rgb(0%,0%,0%);fill-opacity:1;">
  <use xlink:href="#glyph0-1" x="678.171875" y="95.011719"/>
  <use xlink:href="#glyph0-2" x="681.228027" y="95.011719"/>
  <use xlink:href="#glyph0-3" x="686.728027" y="95.011719"/>
  <use xlink:href="#glyph0-4" x="692.845703" y="95.011719"/>
</g>
<path style=" stroke:none;fill-rule:nonzero;fill:rgb(65.098039%,80.784314%,89.019608%);fill-opacity:0.501961;" d="M 678.878906 118.21875 L 694.742188 118.21875 L 694.742188 102.355469 L 678.878906 102.355469 Z M 678.878906 118.21875 "/>
<path style=" stroke:none;fill-rule:nonzero;fill:rgb(12.156863%,47.058824%,70.588235%);fill-opacity:0.501961;" d="M 678.878906 135.5 L 694.742188 135.5 L 694.742188 119.636719 L 678.878906 119.636719 Z M 678.878906 135.5 "/>
<path style=" stroke:none;fill-rule:nonzero;fill:rgb(69.803922%,87.45098%,54.117647%);fill-opacity:0.501961;" d="M 678.878906 152.777344 L 694.742188 152.777344 L 694.742188 136.914063 L 678.878906 136.914063 Z M 678.878906 152.777344 "/>
<path style=" stroke:none;fill-rule:nonzero;fill:rgb(55.294118%,82.745098%,78.039216%);fill-opacity:0.501961;" d="M 678.878906 170.058594 L 694.742188 170.058594 L 694.742188 154.195313 L 678.878906 154.195313 Z M 678.878906 170.058594 "/>
<path style=" stroke:none;fill-rule:nonzero;fill:rgb(98.431373%,60.392157%,60%);fill-opacity:0.501961;" d="M 678.878906 187.339844 L 694.742188 187.339844 L 694.742188 171.476563 L 678.878906 171.476563 Z M 678.878906 187.339844 "/>
<path style=" stroke:none;fill-rule:nonzero;fill:rgb(89.019608%,10.196078%,10.980392%);fill-opacity:0.501961;" d="M 678.878906 204.617188 L 694.742188 204.617188 L 694.742188 188.753906 L 678.878906 188.753906 Z M 678.878906 204.617188 "/>
<path style=" stroke:none;fill-rule:nonzero;fill:rgb(99.215686%,74.901961%,43.529412%);fill-opacity:0.501961;" d="M 678.878906 221.898438 L 694.742188 221.898438 L 694.742188 206.035156 L 678.878906 206.035156 Z M 678.878906 221.898438 "/>
<path style=" stroke:none;fill-rule:nonzero;fill:rgb(100%,49.803922%,0%);fill-opacity:0.501961;" d="M 678.878906 239.179688 L 694.742188 239.179688 L 694.742188 223.316406 L 678.878906 223.316406 Z M 678.878906 239.179688 "/>
<path style=" stroke:none;fill-rule:nonzero;fill:rgb(50.196078%,50.196078%,50.196078%);fill-opacity:0.501961;" d="M 678.878906 256.457031 L 694.742188 256.457031 L 694.742188 240.59375 L 678.878906 240.59375 Z M 678.878906 256.457031 "/>
<path style=" stroke:none;fill-rule:nonzero;fill:rgb(79.215686%,69.803922%,83.921569%);fill-opacity:0.501961;" d="M 678.878906 273.738281 L 694.742188 273.738281 L 694.742188 257.875 L 678.878906 257.875 Z M 678.878906 273.738281 "/>
<path style=" stroke:none;fill-rule:nonzero;fill:rgb(41.568627%,23.921569%,60.392157%);fill-opacity:0.501961;" d="M 678.878906 291.019531 L 694.742188 291.019531 L 694.742188 275.15625 L 678.878906 275.15625 Z M 678.878906 291.019531 "/>
<g style="fill:rgb(0%,0%,0%);fill-opacity:1;">
  <use xlink:href="#glyph1-1" x="700.929688" y="113.4375"/>
  <use xlink:href="#glyph1-2" x="707.284766" y="113.4375"/>
  <use xlink:href="#glyph1-3" x="713.154297" y="113.4375"/>
</g>
<g style="fill:rgb(0%,0%,0%);fill-opacity:1;">
  <use xlink:href="#glyph1-1" x="700.929688" y="130.71875"/>
  <use xlink:href="#glyph1-4" x="707.284766" y="130.71875"/>
</g>
<g style="fill:rgb(0%,0%,0%);fill-opacity:1;">
  <use xlink:href="#glyph1-1" x="700.929688" y="147.996094"/>
  <use xlink:href="#glyph1-5" x="707.284766" y="147.996094"/>
  <use xlink:href="#glyph1-6" x="712.178906" y="147.996094"/>
</g>
<g style="fill:rgb(0%,0%,0%);fill-opacity:1;">
  <use xlink:href="#glyph1-7" x="700.929688" y="165.277344"/>
  <use xlink:href="#glyph1-2" x="707.284766" y="165.277344"/>
  <use xlink:href="#glyph1-8" x="713.154297" y="165.277344"/>
</g>
<g style="fill:rgb(0%,0%,0%);fill-opacity:1;">
  <use xlink:href="#glyph1-9" x="700.929688" y="182.558594"/>
  <use xlink:href="#glyph1-1" x="706.799219" y="182.558594"/>
</g>
<g style="fill:rgb(0%,0%,0%);fill-opacity:1;">
  <use xlink:href="#glyph1-9" x="700.929688" y="199.835938"/>
  <use xlink:href="#glyph1-4" x="706.799219" y="199.835938"/>
</g>
<g style="fill:rgb(0%,0%,0%);fill-opacity:1;">
  <use xlink:href="#glyph1-9" x="700.929688" y="217.117188"/>
  <use xlink:href="#glyph1-8" x="706.799219" y="217.117188"/>
</g>
<g style="fill:rgb(0%,0%,0%);fill-opacity:1;">
  <use xlink:href="#glyph1-9" x="700.929688" y="234.398438"/>
  <use xlink:href="#glyph1-10" x="706.799219" y="234.398438"/>
</g>
<g style="fill:rgb(0%,0%,0%);fill-opacity:1;">
  <use xlink:href="#glyph1-9" x="700.929688" y="251.675781"/>
  <use xlink:href="#glyph1-11" x="706.799219" y="251.675781"/>
</g>
<g style="fill:rgb(0%,0%,0%);fill-opacity:1;">
  <use xlink:href="#glyph1-11" x="700.929688" y="268.957031"/>
  <use xlink:href="#glyph1-12" x="706.799219" y="268.957031"/>
</g>
<g style="fill:rgb(0%,0%,0%);fill-opacity:1;">
  <use xlink:href="#glyph1-13" x="700.929688" y="286.238281"/>
  <use xlink:href="#glyph1-2" x="706.305078" y="286.238281"/>
  <use xlink:href="#glyph1-8" x="712.174609" y="286.238281"/>
</g>
<g style="fill:rgb(0%,0%,0%);fill-opacity:1;">
  <use xlink:href="#glyph2-1" x="360" y="29.824219"/>
  <use xlink:href="#glyph2-2" x="368.804297" y="29.824219"/>
  <use xlink:href="#glyph2-3" x="376.145508" y="29.824219"/>
  <use xlink:href="#glyph2-4" x="387.141211" y="29.824219"/>
  <use xlink:href="#glyph2-5" x="394.482422" y="29.824219"/>
  <use xlink:href="#glyph2-6" x="397.415039" y="29.824219"/>
  <use xlink:href="#glyph2-7" x="404.75625" y="29.824219"/>
  <use xlink:href="#glyph2-8" x="412.819336" y="29.824219"/>
  <use xlink:href="#glyph2-4" x="419.419336" y="29.824219"/>
  <use xlink:href="#glyph2-6" x="426.760547" y="29.824219"/>
  <use xlink:href="#glyph2-9" x="434.101758" y="29.824219"/>
  <use xlink:href="#glyph2-10" x="441.442969" y="29.824219"/>
  <use xlink:href="#glyph2-5" x="451.710352" y="29.824219"/>
  <use xlink:href="#glyph2-11" x="454.642969" y="29.824219"/>
  <use xlink:href="#glyph2-2" x="457.575586" y="29.824219"/>
  <use xlink:href="#glyph2-9" x="464.916797" y="29.824219"/>
  <use xlink:href="#glyph2-1" x="472.258008" y="29.824219"/>
  <use xlink:href="#glyph2-5" x="481.062305" y="29.824219"/>
  <use xlink:href="#glyph2-6" x="483.994922" y="29.824219"/>
  <use xlink:href="#glyph2-6" x="491.336133" y="29.824219"/>
  <use xlink:href="#glyph2-4" x="498.677344" y="29.824219"/>
  <use xlink:href="#glyph2-12" x="506.018555" y="29.824219"/>
  <use xlink:href="#glyph2-13" x="515.551172" y="29.824219"/>
  <use xlink:href="#glyph2-14" x="522.892383" y="29.824219"/>
  <use xlink:href="#glyph2-15" x="530.233594" y="29.824219"/>
  <use xlink:href="#glyph2-11" x="537.574805" y="29.824219"/>
  <use xlink:href="#glyph2-16" x="540.507422" y="29.824219"/>
  <use xlink:href="#glyph2-11" x="544.174805" y="29.824219"/>
  <use xlink:href="#glyph2-13" x="547.107422" y="29.824219"/>
  <use xlink:href="#glyph2-14" x="554.448633" y="29.824219"/>
  <use xlink:href="#glyph2-9" x="561.789844" y="29.824219"/>
  <use xlink:href="#glyph2-10" x="569.131055" y="29.824219"/>
  <use xlink:href="#glyph2-13" x="579.398438" y="29.824219"/>
  <use xlink:href="#glyph2-11" x="586.739648" y="29.824219"/>
  <use xlink:href="#glyph2-14" x="589.672266" y="29.824219"/>
  <use xlink:href="#glyph2-17" x="597.013477" y="29.824219"/>
  <use xlink:href="#glyph2-16" x="604.354688" y="29.824219"/>
  <use xlink:href="#glyph2-13" x="608.02207" y="29.824219"/>
  <use xlink:href="#glyph2-18" x="615.363281" y="29.824219"/>
  <use xlink:href="#glyph2-5" x="621.963281" y="29.824219"/>
  <use xlink:href="#glyph2-6" x="624.895898" y="29.824219"/>
  <use xlink:href="#glyph2-6" x="632.237109" y="29.824219"/>
  <use xlink:href="#glyph2-4" x="639.57832" y="29.824219"/>
  <use xlink:href="#glyph2-9" x="646.919531" y="29.824219"/>
  <use xlink:href="#glyph2-1" x="654.260742" y="29.824219"/>
  <use xlink:href="#glyph2-6" x="663.065039" y="29.824219"/>
  <use xlink:href="#glyph2-19" x="670.40625" y="29.824219"/>
  <use xlink:href="#glyph2-9" x="677.00625" y="29.824219"/>
  <use xlink:href="#glyph2-23" x="684.347461" y="29.824219"/>
  <use xlink:href="#glyph2-6" x="692.410547" y="29.824219"/>
  <use xlink:href="#glyph2-3" x="699.751758" y="29.824219"/>
  <use xlink:href="#glyph2-2" x="710.747461" y="29.824219"/>
  <use xlink:href="#glyph2-5" x="718.088672" y="29.824219"/>
  <use xlink:href="#glyph2-6" x="721.021289" y="29.824219"/>
  <use xlink:href="#glyph2-20" x="728.3625" y="29.824219"/>
  <use xlink:href="#glyph2-21" x="732.029883" y="29.824219"/>
  <use xlink:href="#glyph2-22" x="736.425586" y="29.824219"/>
  <use xlink:href="#glyph2-13" x="745.958203" y="29.824219"/>
  <use xlink:href="#glyph2-20" x="753.299414" y="29.824219"/>
  <use xlink:href="#glyph2-23" x="756.966797" y="29.824219"/>
  <use xlink:href="#glyph2-24" x="765.029883" y="29.824219"/>
  <use xlink:href="#glyph2-25" x="773.83418" y="29.824219"/>
</g>
</g>
</svg>
