<?xml version="1.0" encoding="UTF-8"?>
<svg xmlns="http://www.w3.org/2000/svg" xmlns:xlink="http://www.w3.org/1999/xlink" width="720pt" height="360pt" viewBox="0 0 720 360" version="1.1">
<defs>
<g>
<symbol overflow="visible" id="glyph0-0">
<path style="stroke:none;" d="M 1.375 0 L 1.375 -6.875 L 6.875 -6.875 L 6.875 0 Z M 1.546875 -0.171875 L 6.703125 -0.171875 L 6.703125 -6.703125 L 1.546875 -6.703125 Z M 1.546875 -0.171875 "/>
</symbol>
<symbol overflow="visible" id="glyph0-1">
<path style="stroke:none;" d="M 2.835938 -0.863281 L 2.976563 -0.0117188 C 2.703125 0.0429688 2.457031 0.0703125 2.246094 0.0742188 C 1.890625 0.0703125 1.621094 0.0195313 1.429688 -0.0898438 C 1.234375 -0.199219 1.097656 -0.347656 1.019531 -0.527344 C 0.941406 -0.707031 0.902344 -1.085938 0.902344 -1.671875 L 0.902344 -4.953125 L 0.195313 -4.953125 L 0.195313 -5.703125 L 0.902344 -5.703125 L 0.902344 -7.117188 L 1.863281 -7.695313 L 1.863281 -5.703125 L 2.835938 -5.703125 L 2.835938 -4.953125 L 1.863281 -4.953125 L 1.863281 -1.617188 C 1.863281 -1.339844 1.878906 -1.160156 1.914063 -1.085938 C 1.945313 -1.003906 2 -0.941406 2.078125 -0.898438 C 2.152344 -0.847656 2.261719 -0.824219 2.410156 -0.828125 C 2.515625 -0.824219 2.660156 -0.835938 2.835938 -0.863281 Z M 2.835938 -0.863281 "/>
</symbol>
<symbol overflow="visible" id="glyph0-2">
<path style="stroke:none;" d="M 0.683594 2.195313 L 0.574219 1.289063 C 0.785156 1.34375 0.96875 1.371094 1.128906 1.375 C 1.339844 1.371094 1.511719 1.335938 1.640625 1.265625 C 1.769531 1.195313 1.875 1.09375 1.960938 0.96875 C 2.019531 0.867188 2.117188 0.628906 2.257813 0.246094 C 2.269531 0.191406 2.300781 0.113281 2.34375 0.0117188 L 0.175781 -5.703125 L 1.21875 -5.703125 L 2.40625 -2.402344 C 2.558594 -1.980469 2.695313 -1.539063 2.820313 -1.078125 C 2.925781 -1.523438 3.058594 -1.957031 3.21875 -2.378906 L 4.4375 -5.703125 L 5.402344 -5.703125 L 3.234375 0.0976563 C 3 0.71875 2.816406 1.148438 2.691406 1.390625 C 2.515625 1.703125 2.320313 1.9375 2.097656 2.089844 C 1.875 2.238281 1.609375 2.3125 1.304688 2.316406 C 1.117188 2.3125 0.910156 2.273438 0.683594 2.195313 Z M 0.683594 2.195313 "/>
</symbol>
<symbol overflow="visible" id="glyph0-3">
<path style="stroke:none;" d="M 0.726563 2.1875 L 0.726563 -5.703125 L 1.605469 -5.703125 L 1.605469 -4.960938 C 1.8125 -5.25 2.046875 -5.46875 2.308594 -5.613281 C 2.570313 -5.757813 2.886719 -5.828125 3.261719 -5.832031 C 3.746094 -5.828125 4.175781 -5.703125 4.550781 -5.457031 C 4.921875 -5.203125 5.203125 -4.851563 5.390625 -4.394531 C 5.578125 -3.9375 5.671875 -3.4375 5.675781 -2.894531 C 5.671875 -2.308594 5.566406 -1.78125 5.359375 -1.316406 C 5.148438 -0.847656 4.84375 -0.488281 4.449219 -0.242188 C 4.046875 0.0078125 3.628906 0.128906 3.191406 0.128906 C 2.867188 0.128906 2.578125 0.0625 2.320313 -0.0742188 C 2.0625 -0.210938 1.851563 -0.382813 1.691406 -0.589844 L 1.691406 2.1875 Z M 1.601563 -2.820313 C 1.597656 -2.082031 1.746094 -1.539063 2.046875 -1.191406 C 2.339844 -0.835938 2.699219 -0.660156 3.125 -0.664063 C 3.550781 -0.660156 3.917969 -0.84375 4.226563 -1.210938 C 4.53125 -1.574219 4.6875 -2.136719 4.6875 -2.898438 C 4.6875 -3.625 4.535156 -4.167969 4.238281 -4.53125 C 3.9375 -4.890625 3.582031 -5.074219 3.167969 -5.074219 C 2.753906 -5.074219 2.390625 -4.878906 2.074219 -4.496094 C 1.757813 -4.109375 1.597656 -3.550781 1.601563 -2.820313 Z M 1.601563 -2.820313 "/>
</symbol>
<symbol overflow="visible" id="glyph0-4">
<path style="stroke:none;" d="M 4.628906 -1.835938 L 5.628906 -1.714844 C 5.46875 -1.125 5.175781 -0.671875 4.75 -0.351563 C 4.324219 -0.03125 3.78125 0.128906 3.121094 0.128906 C 2.28125 0.128906 1.617188 -0.125 1.132813 -0.640625 C 0.640625 -1.152344 0.398438 -1.875 0.402344 -2.804688 C 0.398438 -3.761719 0.644531 -4.503906 1.144531 -5.035156 C 1.636719 -5.5625 2.277344 -5.828125 3.066406 -5.832031 C 3.824219 -5.828125 4.449219 -5.570313 4.933594 -5.050781 C 5.417969 -4.53125 5.660156 -3.800781 5.660156 -2.863281 C 5.660156 -2.804688 5.65625 -2.71875 5.65625 -2.605469 L 1.402344 -2.605469 C 1.433594 -1.976563 1.613281 -1.496094 1.933594 -1.164063 C 2.25 -0.828125 2.644531 -0.660156 3.125 -0.664063 C 3.476563 -0.660156 3.78125 -0.753906 4.03125 -0.945313 C 4.28125 -1.128906 4.480469 -1.425781 4.628906 -1.835938 Z M 1.457031 -3.398438 L 4.640625 -3.398438 C 4.597656 -3.878906 4.472656 -4.238281 4.273438 -4.480469 C 3.960938 -4.851563 3.5625 -5.039063 3.078125 -5.039063 C 2.628906 -5.039063 2.257813 -4.890625 1.957031 -4.59375 C 1.652344 -4.296875 1.484375 -3.898438 1.457031 -3.398438 Z M 1.457031 -3.398438 "/>
</symbol>
<symbol overflow="visible" id="glyph1-0">
<path style="stroke:none;" d="M 1.101563 0 L 1.101563 -5.5 L 5.5 -5.5 L 5.5 0 Z M 1.238281 -0.136719 L 5.363281 -0.136719 L 5.363281 -5.363281 L 1.238281 -5.363281 Z M 1.238281 -0.136719 "/>
</symbol>
<symbol overflow="visible" id="glyph1-1">
<path style="stroke:none;" d="M 5.171875 -2.207031 L 6.007813 -2 C 5.828125 -1.3125 5.515625 -0.789063 5.0625 -0.429688 C 4.609375 -0.0703125 4.054688 0.105469 3.398438 0.109375 C 2.71875 0.105469 2.164063 -0.03125 1.742188 -0.304688 C 1.3125 -0.582031 0.988281 -0.980469 0.769531 -1.507813 C 0.542969 -2.027344 0.433594 -2.589844 0.4375 -3.195313 C 0.433594 -3.847656 0.558594 -4.421875 0.8125 -4.910156 C 1.0625 -5.398438 1.417969 -5.769531 1.882813 -6.023438 C 2.34375 -6.277344 2.855469 -6.402344 3.410156 -6.40625 C 4.039063 -6.402344 4.566406 -6.242188 5 -5.925781 C 5.425781 -5.601563 5.726563 -5.152344 5.898438 -4.570313 L 5.078125 -4.378906 C 4.929688 -4.832031 4.71875 -5.167969 4.441406 -5.378906 C 4.164063 -5.589844 3.8125 -5.695313 3.394531 -5.695313 C 2.90625 -5.695313 2.503906 -5.578125 2.179688 -5.34375 C 1.851563 -5.109375 1.621094 -4.796875 1.492188 -4.410156 C 1.359375 -4.015625 1.292969 -3.613281 1.296875 -3.203125 C 1.292969 -2.664063 1.371094 -2.195313 1.53125 -1.796875 C 1.683594 -1.394531 1.925781 -1.097656 2.257813 -0.902344 C 2.585938 -0.703125 2.945313 -0.601563 3.332031 -0.605469 C 3.796875 -0.601563 4.191406 -0.738281 4.515625 -1.007813 C 4.835938 -1.277344 5.054688 -1.675781 5.171875 -2.207031 Z M 5.171875 -2.207031 "/>
</symbol>
<symbol overflow="visible" id="glyph1-2">
<path style="stroke:none;" d="M -0.0117188 0 L 2.40625 -6.300781 L 3.304688 -6.300781 L 5.882813 0 L 4.933594 0 L 4.199219 -1.90625 L 1.5625 -1.90625 L 0.871094 0 Z M 1.804688 -2.585938 L 3.941406 -2.585938 L 3.28125 -4.332031 C 3.078125 -4.855469 2.929688 -5.292969 2.835938 -5.636719 C 2.753906 -5.230469 2.640625 -4.828125 2.496094 -4.433594 Z M 1.804688 -2.585938 "/>
</symbol>
<symbol overflow="visible" id="glyph1-3">
<path style="stroke:none;" d="M 0.691406 0 L 0.691406 -6.300781 L 3.484375 -6.300781 C 4.042969 -6.296875 4.46875 -6.242188 4.765625 -6.128906 C 5.054688 -6.015625 5.289063 -5.816406 5.464844 -5.53125 C 5.636719 -5.242188 5.722656 -4.925781 5.726563 -4.582031 C 5.722656 -4.132813 5.578125 -3.753906 5.292969 -3.449219 C 5 -3.140625 4.554688 -2.945313 3.953125 -2.867188 C 4.171875 -2.757813 4.339844 -2.652344 4.457031 -2.550781 C 4.695313 -2.324219 4.925781 -2.046875 5.148438 -1.714844 L 6.242188 0 L 5.195313 0 L 4.359375 -1.3125 C 4.117188 -1.6875 3.914063 -1.976563 3.757813 -2.179688 C 3.597656 -2.378906 3.457031 -2.515625 3.335938 -2.597656 C 3.207031 -2.675781 3.082031 -2.734375 2.957031 -2.765625 C 2.859375 -2.785156 2.703125 -2.792969 2.492188 -2.796875 L 1.527344 -2.796875 L 1.527344 0 Z M 1.527344 -3.519531 L 3.316406 -3.519531 C 3.699219 -3.515625 3.996094 -3.554688 4.210938 -3.636719 C 4.421875 -3.710938 4.585938 -3.835938 4.699219 -4.011719 C 4.808594 -4.183594 4.863281 -4.375 4.867188 -4.582031 C 4.863281 -4.878906 4.753906 -5.121094 4.542969 -5.3125 C 4.324219 -5.503906 3.984375 -5.601563 3.519531 -5.601563 L 1.527344 -5.601563 Z M 1.527344 -3.519531 "/>
</symbol>
<symbol overflow="visible" id="glyph1-4">
<path style="stroke:none;" d="M 0.695313 0 L 0.695313 -6.300781 L 5.25 -6.300781 L 5.25 -5.554688 L 1.53125 -5.554688 L 1.53125 -3.625 L 5.015625 -3.625 L 5.015625 -2.886719 L 1.53125 -2.886719 L 1.53125 -0.742188 L 5.398438 -0.742188 L 5.398438 0 Z M 0.695313 0 "/>
</symbol>
<symbol overflow="visible" id="glyph1-5">
<path style="stroke:none;" d="M 3.703125 -1.46875 L 4.503906 -1.371094 C 4.375 -0.902344 4.140625 -0.539063 3.800781 -0.285156 C 3.460938 -0.0273438 3.027344 0.0976563 2.496094 0.101563 C 1.828125 0.0976563 1.296875 -0.101563 0.90625 -0.511719 C 0.511719 -0.917969 0.316406 -1.496094 0.320313 -2.242188 C 0.316406 -3.007813 0.515625 -3.605469 0.914063 -4.03125 C 1.308594 -4.453125 1.820313 -4.664063 2.453125 -4.667969 C 3.058594 -4.664063 3.554688 -4.457031 3.945313 -4.042969 C 4.328125 -3.628906 4.523438 -3.042969 4.527344 -2.289063 C 4.523438 -2.242188 4.523438 -2.175781 4.523438 -2.085938 L 1.121094 -2.085938 C 1.144531 -1.582031 1.289063 -1.195313 1.546875 -0.929688 C 1.800781 -0.660156 2.117188 -0.527344 2.5 -0.53125 C 2.78125 -0.527344 3.023438 -0.601563 3.226563 -0.753906 C 3.425781 -0.902344 3.585938 -1.140625 3.703125 -1.46875 Z M 1.164063 -2.71875 L 3.710938 -2.71875 C 3.671875 -3.101563 3.578125 -3.386719 3.421875 -3.582031 C 3.171875 -3.878906 2.851563 -4.03125 2.460938 -4.03125 C 2.105469 -4.03125 1.804688 -3.910156 1.566406 -3.671875 C 1.320313 -3.433594 1.1875 -3.117188 1.164063 -2.71875 Z M 1.164063 -2.71875 "/>
</symbol>
<symbol overflow="visible" id="glyph1-6">
<path style="stroke:none;" d="M 0.570313 0 L 0.570313 -4.5625 L 1.265625 -4.5625 L 1.265625 -3.871094 C 1.445313 -4.191406 1.609375 -4.40625 1.757813 -4.511719 C 1.90625 -4.613281 2.070313 -4.664063 2.257813 -4.667969 C 2.515625 -4.664063 2.78125 -4.582031 3.050781 -4.417969 L 2.785156 -3.699219 C 2.589844 -3.808594 2.402344 -3.867188 2.21875 -3.867188 C 2.046875 -3.867188 1.894531 -3.816406 1.761719 -3.714844 C 1.625 -3.613281 1.527344 -3.472656 1.472656 -3.292969 C 1.382813 -3.015625 1.339844 -2.714844 1.34375 -2.390625 L 1.34375 0 Z M 0.570313 0 "/>
</symbol>
<symbol overflow="visible" id="glyph1-7">
<path style="stroke:none;" d="M 0.679688 0 L 0.679688 -6.300781 L 2.847656 -6.300781 C 3.335938 -6.296875 3.707031 -6.269531 3.96875 -6.210938 C 4.328125 -6.125 4.636719 -5.972656 4.894531 -5.757813 C 5.222656 -5.472656 5.472656 -5.113281 5.636719 -4.679688 C 5.800781 -4.242188 5.882813 -3.742188 5.886719 -3.183594 C 5.882813 -2.699219 5.828125 -2.277344 5.71875 -1.910156 C 5.605469 -1.542969 5.460938 -1.238281 5.289063 -0.996094 C 5.113281 -0.753906 4.921875 -0.5625 4.714844 -0.421875 C 4.507813 -0.28125 4.257813 -0.175781 3.964844 -0.105469 C 3.667969 -0.0351563 3.332031 0 2.953125 0 Z M 1.511719 -0.742188 L 2.859375 -0.742188 C 3.273438 -0.738281 3.597656 -0.777344 3.832031 -0.859375 C 4.066406 -0.933594 4.253906 -1.042969 4.398438 -1.1875 C 4.59375 -1.382813 4.746094 -1.648438 4.859375 -1.984375 C 4.96875 -2.316406 5.027344 -2.71875 5.027344 -3.195313 C 5.027344 -3.851563 4.917969 -4.359375 4.703125 -4.714844 C 4.484375 -5.066406 4.222656 -5.304688 3.914063 -5.425781 C 3.6875 -5.511719 3.328125 -5.554688 2.835938 -5.554688 L 1.511719 -5.554688 Z M 1.511719 -0.742188 "/>
</symbol>
<symbol overflow="visible" id="glyph1-8">
<path style="stroke:none;" d="M 3.625 -2.46875 L 3.625 -3.210938 L 6.296875 -3.214844 L 6.296875 -0.875 C 5.882813 -0.546875 5.460938 -0.300781 5.027344 -0.136719 C 4.589844 0.0273438 4.140625 0.105469 3.6875 0.109375 C 3.0625 0.105469 2.5 -0.0234375 2 -0.289063 C 1.492188 -0.550781 1.113281 -0.933594 0.855469 -1.4375 C 0.597656 -1.9375 0.46875 -2.5 0.46875 -3.121094 C 0.46875 -3.730469 0.59375 -4.300781 0.851563 -4.835938 C 1.105469 -5.363281 1.476563 -5.757813 1.957031 -6.019531 C 2.4375 -6.273438 2.992188 -6.402344 3.621094 -6.40625 C 4.074219 -6.402344 4.484375 -6.328125 4.855469 -6.183594 C 5.222656 -6.035156 5.511719 -5.832031 5.722656 -5.566406 C 5.929688 -5.300781 6.089844 -4.957031 6.199219 -4.539063 L 5.449219 -4.332031 C 5.351563 -4.648438 5.230469 -4.902344 5.09375 -5.085938 C 4.953125 -5.269531 4.753906 -5.414063 4.492188 -5.527344 C 4.230469 -5.636719 3.941406 -5.695313 3.625 -5.695313 C 3.242188 -5.695313 2.914063 -5.636719 2.636719 -5.519531 C 2.359375 -5.402344 2.132813 -5.246094 1.964844 -5.058594 C 1.792969 -4.867188 1.664063 -4.660156 1.570313 -4.4375 C 1.40625 -4.046875 1.324219 -3.625 1.328125 -3.171875 C 1.324219 -2.605469 1.421875 -2.136719 1.617188 -1.761719 C 1.808594 -1.382813 2.089844 -1.101563 2.460938 -0.917969 C 2.828125 -0.734375 3.21875 -0.644531 3.640625 -0.644531 C 3.996094 -0.644531 4.347656 -0.710938 4.695313 -0.851563 C 5.035156 -0.988281 5.296875 -1.136719 5.476563 -1.296875 L 5.476563 -2.46875 Z M 3.625 -2.46875 "/>
</symbol>
<symbol overflow="visible" id="glyph1-9">
<path style="stroke:none;" d="M 0.722656 0 L 0.722656 -6.300781 L 4.972656 -6.300781 L 4.972656 -5.554688 L 1.554688 -5.554688 L 1.554688 -3.605469 L 4.511719 -3.605469 L 4.511719 -2.863281 L 1.554688 -2.863281 L 1.554688 0 Z M 0.722656 0 "/>
</symbol>
<symbol overflow="visible" id="glyph1-10">
<path style="stroke:none;" d="M 0.679688 0 L 0.679688 -6.300781 L 3.054688 -6.300781 C 3.46875 -6.296875 3.789063 -6.277344 4.011719 -6.238281 C 4.320313 -6.183594 4.578125 -6.085938 4.789063 -5.941406 C 4.996094 -5.796875 5.167969 -5.59375 5.296875 -5.335938 C 5.421875 -5.074219 5.484375 -4.789063 5.488281 -4.476563 C 5.484375 -3.941406 5.3125 -3.488281 4.976563 -3.117188 C 4.632813 -2.746094 4.019531 -2.558594 3.128906 -2.5625 L 1.511719 -2.5625 L 1.511719 0 Z M 1.511719 -3.304688 L 3.140625 -3.304688 C 3.679688 -3.304688 4.0625 -3.402344 4.289063 -3.605469 C 4.515625 -3.800781 4.628906 -4.085938 4.628906 -4.453125 C 4.628906 -4.714844 4.558594 -4.9375 4.425781 -5.128906 C 4.289063 -5.3125 4.117188 -5.4375 3.902344 -5.5 C 3.761719 -5.535156 3.5 -5.554688 3.125 -5.554688 L 1.511719 -5.554688 Z M 1.511719 -3.304688 "/>
</symbol>
<symbol overflow="visible" id="glyph1-11">
<path style="stroke:none;" d="M 0.820313 0 L 0.820313 -6.300781 L 1.65625 -6.300781 L 1.65625 0 Z M 0.820313 0 "/>
</symbol>
<symbol overflow="visible" id="glyph1-12">
<path style="stroke:none;" d="M 0.394531 -2.023438 L 1.179688 -2.09375 C 1.214844 -1.773438 1.304688 -1.515625 1.441406 -1.316406 C 1.574219 -1.113281 1.785156 -0.949219 2.074219 -0.828125 C 2.359375 -0.699219 2.679688 -0.636719 3.042969 -0.640625 C 3.355469 -0.636719 3.636719 -0.683594 3.882813 -0.78125 C 4.125 -0.875 4.304688 -1.007813 4.425781 -1.171875 C 4.542969 -1.335938 4.605469 -1.515625 4.605469 -1.710938 C 4.605469 -1.90625 4.546875 -2.078125 4.433594 -2.226563 C 4.316406 -2.375 4.128906 -2.5 3.867188 -2.601563 C 3.695313 -2.664063 3.320313 -2.765625 2.746094 -2.90625 C 2.164063 -3.046875 1.757813 -3.175781 1.53125 -3.300781 C 1.226563 -3.453125 1.003906 -3.648438 0.855469 -3.886719 C 0.707031 -4.117188 0.632813 -4.378906 0.636719 -4.671875 C 0.632813 -4.984375 0.722656 -5.28125 0.90625 -5.5625 C 1.082031 -5.835938 1.34375 -6.046875 1.695313 -6.191406 C 2.039063 -6.332031 2.425781 -6.402344 2.851563 -6.40625 C 3.316406 -6.402344 3.730469 -6.328125 4.089844 -6.179688 C 4.445313 -6.027344 4.71875 -5.804688 4.910156 -5.515625 C 5.101563 -5.21875 5.203125 -4.890625 5.21875 -4.523438 L 4.421875 -4.464844 C 4.375 -4.863281 4.230469 -5.164063 3.984375 -5.367188 C 3.734375 -5.570313 3.367188 -5.671875 2.886719 -5.671875 C 2.382813 -5.671875 2.015625 -5.578125 1.785156 -5.394531 C 1.554688 -5.207031 1.441406 -4.984375 1.441406 -4.726563 C 1.441406 -4.496094 1.519531 -4.308594 1.683594 -4.167969 C 1.839844 -4.019531 2.261719 -3.871094 2.941406 -3.71875 C 3.617188 -3.5625 4.082031 -3.429688 4.335938 -3.316406 C 4.703125 -3.144531 4.972656 -2.929688 5.148438 -2.671875 C 5.320313 -2.414063 5.40625 -2.113281 5.410156 -1.777344 C 5.40625 -1.441406 5.3125 -1.128906 5.121094 -0.832031 C 4.929688 -0.535156 4.652344 -0.300781 4.292969 -0.136719 C 3.929688 0.0273438 3.527344 0.105469 3.082031 0.109375 C 2.511719 0.105469 2.03125 0.0234375 1.648438 -0.140625 C 1.257813 -0.304688 0.957031 -0.554688 0.742188 -0.890625 C 0.519531 -1.222656 0.402344 -1.597656 0.394531 -2.023438 Z M 0.394531 -2.023438 "/>
</symbol>
<symbol overflow="visible" id="glyph1-13">
<path style="stroke:none;" d="M 0.652344 0 L 0.652344 -6.300781 L 1.90625 -6.300781 L 3.398438 -1.839844 C 3.535156 -1.421875 3.632813 -1.109375 3.699219 -0.90625 C 3.769531 -1.132813 3.882813 -1.46875 4.035156 -1.917969 L 5.542969 -6.300781 L 6.664063 -6.300781 L 6.664063 0 L 5.859375 0 L 5.859375 -5.273438 L 4.03125 0 L 3.277344 0 L 1.457031 -5.363281 L 1.457031 0 Z M 0.652344 0 "/>
</symbol>
<symbol overflow="visible" id="glyph1-14">
<path style="stroke:none;" d="M 2.28125 0 L 2.28125 -5.554688 L 0.207031 -5.554688 L 0.207031 -6.300781 L 5.199219 -6.300781 L 5.199219 -5.554688 L 3.117188 -5.554688 L 3.117188 0 Z M 2.28125 0 "/>
</symbol>
<symbol overflow="visible" id="glyph2-0">
<path style="stroke:none;" d="M 1.648438 0 L 1.648438 -8.25 L 8.25 -8.25 L 8.25 0 Z M 1.855469 -0.207031 L 8.042969 -0.207031 L 8.042969 -8.042969 L 1.855469 -8.042969 Z M 1.855469 -0.207031 "/>
</symbol>
<symbol overflow="visible" id="glyph2-1">
<path style="stroke:none;" d="M 0.59375 -3.035156 L 1.773438 -3.140625 C 1.824219 -2.664063 1.953125 -2.273438 2.160156 -1.972656 C 2.363281 -1.667969 2.679688 -1.421875 3.113281 -1.238281 C 3.539063 -1.050781 4.023438 -0.960938 4.5625 -0.960938 C 5.035156 -0.960938 5.457031 -1.03125 5.824219 -1.171875 C 6.191406 -1.3125 6.460938 -1.503906 6.640625 -1.753906 C 6.816406 -1.996094 6.90625 -2.269531 6.910156 -2.566406 C 6.90625 -2.863281 6.820313 -3.121094 6.652344 -3.339844 C 6.476563 -3.558594 6.195313 -3.742188 5.800781 -3.898438 C 5.546875 -3.992188 4.984375 -4.148438 4.117188 -4.359375 C 3.246094 -4.566406 2.636719 -4.761719 2.292969 -4.949219 C 1.839844 -5.183594 1.503906 -5.476563 1.285156 -5.828125 C 1.058594 -6.175781 0.949219 -6.570313 0.953125 -7.007813 C 0.949219 -7.484375 1.085938 -7.929688 1.359375 -8.34375 C 1.628906 -8.757813 2.023438 -9.070313 2.542969 -9.285156 C 3.0625 -9.5 3.640625 -9.609375 4.28125 -9.609375 C 4.980469 -9.609375 5.597656 -9.496094 6.132813 -9.269531 C 6.664063 -9.042969 7.074219 -8.710938 7.363281 -8.273438 C 7.648438 -7.835938 7.804688 -7.339844 7.832031 -6.785156 L 6.632813 -6.695313 C 6.566406 -7.292969 6.347656 -7.746094 5.976563 -8.050781 C 5.605469 -8.355469 5.054688 -8.507813 4.332031 -8.507813 C 3.570313 -8.507813 3.019531 -8.367188 2.675781 -8.089844 C 2.328125 -7.8125 2.15625 -7.480469 2.160156 -7.089844 C 2.15625 -6.75 2.277344 -6.46875 2.527344 -6.25 C 2.761719 -6.027344 3.390625 -5.804688 4.410156 -5.578125 C 5.425781 -5.347656 6.125 -5.144531 6.503906 -4.976563 C 7.050781 -4.71875 7.453125 -4.398438 7.71875 -4.011719 C 7.976563 -3.621094 8.109375 -3.171875 8.113281 -2.667969 C 8.109375 -2.160156 7.964844 -1.6875 7.679688 -1.246094 C 7.390625 -0.796875 6.976563 -0.449219 6.441406 -0.207031 C 5.898438 0.0390625 5.292969 0.15625 4.621094 0.160156 C 3.765625 0.15625 3.050781 0.0351563 2.472656 -0.210938 C 1.894531 -0.460938 1.4375 -0.835938 1.109375 -1.335938 C 0.777344 -1.835938 0.605469 -2.402344 0.59375 -3.035156 Z M 0.59375 -3.035156 "/>
</symbol>
<symbol overflow="visible" id="glyph2-2">
<path style="stroke:none;" d="M 5.335938 -0.84375 C 4.902344 -0.476563 4.488281 -0.21875 4.09375 -0.0703125 C 3.695313 0.078125 3.269531 0.152344 2.816406 0.15625 C 2.0625 0.152344 1.484375 -0.0273438 1.082031 -0.394531 C 0.675781 -0.761719 0.472656 -1.234375 0.476563 -1.804688 C 0.472656 -2.140625 0.550781 -2.445313 0.703125 -2.722656 C 0.855469 -3 1.054688 -3.222656 1.304688 -3.390625 C 1.550781 -3.554688 1.828125 -3.679688 2.140625 -3.769531 C 2.363281 -3.824219 2.707031 -3.882813 3.171875 -3.945313 C 4.105469 -4.054688 4.796875 -4.1875 5.238281 -4.34375 C 5.242188 -4.5 5.242188 -4.601563 5.246094 -4.648438 C 5.242188 -5.117188 5.132813 -5.449219 4.917969 -5.644531 C 4.617188 -5.902344 4.179688 -6.035156 3.597656 -6.039063 C 3.050781 -6.035156 2.644531 -5.9375 2.386719 -5.75 C 2.125 -5.554688 1.933594 -5.21875 1.8125 -4.738281 L 0.675781 -4.890625 C 0.777344 -5.375 0.949219 -5.765625 1.183594 -6.066406 C 1.417969 -6.363281 1.757813 -6.59375 2.210938 -6.757813 C 2.65625 -6.914063 3.175781 -6.996094 3.765625 -7 C 4.347656 -6.996094 4.820313 -6.925781 5.1875 -6.792969 C 5.546875 -6.652344 5.816406 -6.480469 5.992188 -6.273438 C 6.160156 -6.0625 6.28125 -5.800781 6.355469 -5.484375 C 6.390625 -5.285156 6.410156 -4.925781 6.414063 -4.414063 L 6.414063 -2.867188 C 6.410156 -1.785156 6.433594 -1.105469 6.488281 -0.820313 C 6.535156 -0.535156 6.632813 -0.261719 6.78125 0 L 5.570313 0 C 5.445313 -0.238281 5.367188 -0.519531 5.335938 -0.84375 Z M 5.238281 -3.433594 C 4.816406 -3.261719 4.183594 -3.113281 3.34375 -2.996094 C 2.863281 -2.925781 2.527344 -2.851563 2.332031 -2.765625 C 2.132813 -2.679688 1.980469 -2.550781 1.875 -2.386719 C 1.765625 -2.21875 1.710938 -2.035156 1.714844 -1.835938 C 1.710938 -1.523438 1.828125 -1.265625 2.066406 -1.0625 C 2.296875 -0.851563 2.640625 -0.75 3.09375 -0.753906 C 3.539063 -0.75 3.933594 -0.847656 4.285156 -1.046875 C 4.628906 -1.238281 4.886719 -1.507813 5.054688 -1.851563 C 5.175781 -2.109375 5.238281 -2.496094 5.238281 -3.011719 Z M 5.238281 -3.433594 "/>
</symbol>
<symbol overflow="visible" id="glyph2-3">
<path style="stroke:none;" d="M 0.871094 0 L 0.871094 -6.84375 L 1.90625 -6.84375 L 1.90625 -5.882813 C 2.117188 -6.21875 2.40625 -6.488281 2.765625 -6.691406 C 3.121094 -6.894531 3.527344 -6.996094 3.984375 -7 C 4.488281 -6.996094 4.902344 -6.890625 5.230469 -6.683594 C 5.554688 -6.46875 5.785156 -6.175781 5.917969 -5.800781 C 6.457031 -6.597656 7.160156 -6.996094 8.03125 -7 C 8.707031 -6.996094 9.230469 -6.808594 9.597656 -6.433594 C 9.960938 -6.058594 10.140625 -5.480469 10.144531 -4.699219 L 10.144531 0 L 8.992188 0 L 8.992188 -4.3125 C 8.988281 -4.773438 8.949219 -5.105469 8.878906 -5.3125 C 8.800781 -5.515625 8.664063 -5.679688 8.46875 -5.804688 C 8.265625 -5.925781 8.035156 -5.988281 7.773438 -5.992188 C 7.289063 -5.988281 6.890625 -5.828125 6.574219 -5.511719 C 6.253906 -5.191406 6.09375 -4.679688 6.097656 -3.976563 L 6.097656 0 L 4.9375 0 L 4.9375 -4.445313 C 4.933594 -4.957031 4.839844 -5.34375 4.652344 -5.605469 C 4.464844 -5.859375 4.15625 -5.988281 3.726563 -5.992188 C 3.398438 -5.988281 3.09375 -5.902344 2.816406 -5.734375 C 2.539063 -5.558594 2.339844 -5.308594 2.214844 -4.980469 C 2.089844 -4.648438 2.027344 -4.171875 2.03125 -3.550781 L 2.03125 0 Z M 0.871094 0 "/>
</symbol>
<symbol overflow="visible" id="glyph2-4">
<path style="stroke:none;" d="M 0.871094 2.625 L 0.871094 -6.84375 L 1.925781 -6.84375 L 1.925781 -5.957031 C 2.171875 -6.300781 2.453125 -6.5625 2.769531 -6.738281 C 3.082031 -6.910156 3.464844 -6.996094 3.914063 -7 C 4.496094 -6.996094 5.007813 -6.84375 5.457031 -6.546875 C 5.902344 -6.242188 6.242188 -5.820313 6.46875 -5.273438 C 6.695313 -4.726563 6.808594 -4.125 6.8125 -3.472656 C 6.808594 -2.769531 6.683594 -2.140625 6.433594 -1.582031 C 6.183594 -1.019531 5.816406 -0.589844 5.339844 -0.292969 C 4.855469 0.00390625 4.351563 0.152344 3.828125 0.15625 C 3.4375 0.152344 3.09375 0.0742188 2.789063 -0.0898438 C 2.480469 -0.25 2.226563 -0.457031 2.03125 -0.710938 L 2.03125 2.625 Z M 1.921875 -3.382813 C 1.921875 -2.5 2.097656 -1.851563 2.457031 -1.429688 C 2.808594 -1.007813 3.242188 -0.796875 3.75 -0.800781 C 4.265625 -0.796875 4.707031 -1.015625 5.074219 -1.453125 C 5.441406 -1.890625 5.625 -2.566406 5.625 -3.480469 C 5.625 -4.351563 5.445313 -5.003906 5.085938 -5.4375 C 4.726563 -5.871094 4.296875 -6.085938 3.804688 -6.089844 C 3.304688 -6.085938 2.867188 -5.855469 2.492188 -5.394531 C 2.109375 -4.929688 1.921875 -4.257813 1.921875 -3.382813 Z M 1.921875 -3.382813 "/>
</symbol>
<symbol overflow="visible" id="glyph2-5">
<path style="stroke:none;" d="M 0.84375 0 L 0.84375 -9.449219 L 2.003906 -9.449219 L 2.003906 0 Z M 0.84375 0 "/>
</symbol>
<symbol overflow="visible" id="glyph2-6">
<path style="stroke:none;" d="M 5.554688 -2.203125 L 6.753906 -2.054688 C 6.5625 -1.351563 6.210938 -0.808594 5.703125 -0.421875 C 5.1875 -0.0390625 4.535156 0.152344 3.746094 0.15625 C 2.738281 0.152344 1.945313 -0.152344 1.363281 -0.769531 C 0.773438 -1.382813 0.480469 -2.25 0.484375 -3.363281 C 0.480469 -4.515625 0.777344 -5.410156 1.371094 -6.046875 C 1.964844 -6.679688 2.734375 -6.996094 3.679688 -7 C 4.59375 -6.996094 5.339844 -6.683594 5.921875 -6.0625 C 6.5 -5.4375 6.789063 -4.5625 6.792969 -3.433594 C 6.789063 -3.363281 6.789063 -3.257813 6.785156 -3.125 L 1.683594 -3.125 C 1.722656 -2.371094 1.9375 -1.796875 2.320313 -1.398438 C 2.703125 -0.996094 3.179688 -0.796875 3.75 -0.800781 C 4.175781 -0.796875 4.539063 -0.90625 4.839844 -1.132813 C 5.140625 -1.351563 5.378906 -1.710938 5.554688 -2.203125 Z M 1.746094 -4.078125 L 5.570313 -4.078125 C 5.515625 -4.65625 5.367188 -5.085938 5.128906 -5.375 C 4.757813 -5.820313 4.28125 -6.046875 3.691406 -6.046875 C 3.160156 -6.046875 2.710938 -5.867188 2.347656 -5.511719 C 1.984375 -5.152344 1.785156 -4.675781 1.746094 -4.078125 Z M 1.746094 -4.078125 "/>
</symbol>
<symbol overflow="visible" id="glyph2-7">
<path style="stroke:none;" d="M 3.421875 0 L 3.421875 -8.332031 L 0.308594 -8.332031 L 0.308594 -9.449219 L 7.796875 -9.449219 L 7.796875 -8.332031 L 4.671875 -8.332031 L 4.671875 0 Z M 3.421875 0 "/>
</symbol>
<symbol overflow="visible" id="glyph2-8">
<path style="stroke:none;" d="M 0.820313 2.636719 L 0.691406 1.546875 C 0.941406 1.613281 1.160156 1.644531 1.351563 1.648438 C 1.609375 1.644531 1.816406 1.601563 1.972656 1.519531 C 2.125 1.429688 2.25 1.3125 2.351563 1.160156 C 2.421875 1.042969 2.542969 0.753906 2.707031 0.296875 C 2.726563 0.230469 2.757813 0.136719 2.808594 0.0117188 L 0.210938 -6.84375 L 1.464844 -6.84375 L 2.886719 -2.882813 C 3.070313 -2.375 3.234375 -1.84375 3.382813 -1.296875 C 3.511719 -1.824219 3.671875 -2.34375 3.859375 -2.855469 L 5.324219 -6.84375 L 6.484375 -6.84375 L 3.878906 0.117188 C 3.597656 0.867188 3.378906 1.382813 3.230469 1.667969 C 3.019531 2.046875 2.785156 2.328125 2.519531 2.507813 C 2.253906 2.6875 1.933594 2.777344 1.566406 2.777344 C 1.339844 2.777344 1.09375 2.730469 0.820313 2.636719 Z M 0.820313 2.636719 "/>
</symbol>
<symbol overflow="visible" id="glyph2-9">
<path style="stroke:none;" d="M -0.199219 2.625 L -0.199219 1.785156 L 7.488281 1.785156 L 7.488281 2.625 Z M -0.199219 2.625 "/>
</symbol>
<symbol overflow="visible" id="glyph2-10">
<path style="stroke:none;" d="M 5.441406 -3.707031 L 5.441406 -4.816406 L 9.441406 -4.820313 L 9.441406 -1.316406 C 8.824219 -0.820313 8.191406 -0.449219 7.539063 -0.207031 C 6.886719 0.0390625 6.21875 0.15625 5.53125 0.160156 C 4.601563 0.15625 3.757813 -0.0390625 3 -0.433594 C 2.242188 -0.832031 1.667969 -1.40625 1.28125 -2.160156 C 0.894531 -2.910156 0.703125 -3.75 0.703125 -4.679688 C 0.703125 -5.597656 0.894531 -6.457031 1.277344 -7.253906 C 1.660156 -8.050781 2.210938 -8.640625 2.9375 -9.027344 C 3.65625 -9.414063 4.488281 -9.609375 5.433594 -9.609375 C 6.113281 -9.609375 6.730469 -9.496094 7.285156 -9.277344 C 7.832031 -9.050781 8.265625 -8.742188 8.582031 -8.351563 C 8.894531 -7.953125 9.132813 -7.4375 9.300781 -6.804688 L 8.171875 -6.496094 C 8.027344 -6.976563 7.851563 -7.355469 7.644531 -7.628906 C 7.429688 -7.902344 7.128906 -8.121094 6.742188 -8.289063 C 6.347656 -8.453125 5.914063 -8.535156 5.441406 -8.539063 C 4.867188 -8.535156 4.371094 -8.449219 3.957031 -8.277344 C 3.535156 -8.101563 3.199219 -7.875 2.949219 -7.59375 C 2.691406 -7.308594 2.492188 -6.996094 2.351563 -6.65625 C 2.109375 -6.070313 1.992188 -5.4375 1.992188 -4.757813 C 1.992188 -3.914063 2.136719 -3.207031 2.425781 -2.640625 C 2.714844 -2.074219 3.136719 -1.652344 3.691406 -1.378906 C 4.246094 -1.101563 4.835938 -0.964844 5.460938 -0.96875 C 6 -0.964844 6.527344 -1.070313 7.042969 -1.28125 C 7.558594 -1.488281 7.949219 -1.710938 8.21875 -1.945313 L 8.21875 -3.707031 Z M 5.441406 -3.707031 "/>
</symbol>
<symbol overflow="visible" id="glyph2-11">
<path style="stroke:none;" d="M 0.875 -8.113281 L 0.875 -9.449219 L 2.035156 -9.449219 L 2.035156 -8.113281 Z M 0.875 0 L 0.875 -6.84375 L 2.035156 -6.84375 L 2.035156 0 Z M 0.875 0 "/>
</symbol>
<symbol overflow="visible" id="glyph2-12">
<path style="stroke:none;" d="M 7.761719 -3.3125 L 9.011719 -2.996094 C 8.746094 -1.964844 8.273438 -1.183594 7.59375 -0.648438 C 6.914063 -0.109375 6.082031 0.15625 5.097656 0.160156 C 4.078125 0.15625 3.25 -0.046875 2.613281 -0.460938 C 1.972656 -0.871094 1.484375 -1.472656 1.15625 -2.261719 C 0.820313 -3.046875 0.65625 -3.890625 0.65625 -4.796875 C 0.65625 -5.777344 0.84375 -6.632813 1.21875 -7.367188 C 1.59375 -8.097656 2.128906 -8.65625 2.824219 -9.039063 C 3.519531 -9.417969 4.28125 -9.609375 5.117188 -9.609375 C 6.058594 -9.609375 6.855469 -9.367188 7.5 -8.886719 C 8.144531 -8.40625 8.59375 -7.730469 8.847656 -6.859375 L 7.617188 -6.566406 C 7.398438 -7.25 7.078125 -7.75 6.664063 -8.066406 C 6.242188 -8.378906 5.71875 -8.535156 5.09375 -8.539063 C 4.363281 -8.535156 3.757813 -8.363281 3.269531 -8.015625 C 2.78125 -7.667969 2.4375 -7.199219 2.242188 -6.613281 C 2.042969 -6.023438 1.945313 -5.417969 1.945313 -4.800781 C 1.945313 -3.996094 2.0625 -3.296875 2.296875 -2.695313 C 2.53125 -2.09375 2.894531 -1.644531 3.390625 -1.351563 C 3.882813 -1.054688 4.417969 -0.90625 4.996094 -0.910156 C 5.695313 -0.90625 6.289063 -1.109375 6.773438 -1.515625 C 7.257813 -1.917969 7.585938 -2.515625 7.761719 -3.3125 Z M 7.761719 -3.3125 "/>
</symbol>
<symbol overflow="visible" id="glyph2-13">
<path style="stroke:none;" d="M 0.4375 -3.421875 C 0.433594 -4.6875 0.785156 -5.625 1.496094 -6.238281 C 2.082031 -6.742188 2.800781 -6.996094 3.648438 -7 C 4.585938 -6.996094 5.355469 -6.6875 5.953125 -6.074219 C 6.550781 -5.453125 6.847656 -4.601563 6.851563 -3.519531 C 6.847656 -2.636719 6.714844 -1.945313 6.453125 -1.441406 C 6.1875 -0.933594 5.804688 -0.539063 5.300781 -0.261719 C 4.792969 0.015625 4.242188 0.152344 3.648438 0.15625 C 2.6875 0.152344 1.914063 -0.152344 1.324219 -0.765625 C 0.730469 -1.378906 0.433594 -2.265625 0.4375 -3.421875 Z M 1.628906 -3.421875 C 1.628906 -2.546875 1.820313 -1.890625 2.203125 -1.453125 C 2.585938 -1.015625 3.066406 -0.796875 3.648438 -0.800781 C 4.222656 -0.796875 4.703125 -1.015625 5.085938 -1.457031 C 5.46875 -1.890625 5.660156 -2.558594 5.660156 -3.460938 C 5.660156 -4.304688 5.464844 -4.945313 5.082031 -5.382813 C 4.691406 -5.816406 4.214844 -6.035156 3.648438 -6.039063 C 3.066406 -6.035156 2.585938 -5.816406 2.203125 -5.386719 C 1.820313 -4.949219 1.628906 -4.296875 1.628906 -3.421875 Z M 1.628906 -3.421875 "/>
</symbol>
<symbol overflow="visible" id="glyph2-14">
<path style="stroke:none;" d="M 0.871094 0 L 0.871094 -6.84375 L 1.914063 -6.84375 L 1.914063 -5.871094 C 2.414063 -6.621094 3.140625 -6.996094 4.09375 -7 C 4.503906 -6.996094 4.882813 -6.921875 5.230469 -6.777344 C 5.574219 -6.625 5.832031 -6.429688 6.007813 -6.191406 C 6.175781 -5.949219 6.296875 -5.664063 6.367188 -5.335938 C 6.410156 -5.121094 6.433594 -4.746094 6.433594 -4.207031 L 6.433594 0 L 5.273438 0 L 5.273438 -4.164063 C 5.273438 -4.632813 5.226563 -4.984375 5.136719 -5.222656 C 5.042969 -5.453125 4.882813 -5.640625 4.65625 -5.78125 C 4.425781 -5.917969 4.15625 -5.988281 3.847656 -5.992188 C 3.351563 -5.988281 2.925781 -5.832031 2.566406 -5.523438 C 2.207031 -5.207031 2.027344 -4.613281 2.03125 -3.738281 L 2.03125 0 Z M 0.871094 0 "/>
</symbol>
<symbol overflow="visible" id="glyph2-15">
<path style="stroke:none;" d="M 5.3125 0 L 5.3125 -0.863281 C 4.875 -0.183594 4.238281 0.152344 3.398438 0.15625 C 2.851563 0.152344 2.347656 0.00390625 1.890625 -0.292969 C 1.433594 -0.59375 1.078125 -1.011719 0.828125 -1.554688 C 0.574219 -2.09375 0.449219 -2.714844 0.453125 -3.414063 C 0.449219 -4.097656 0.5625 -4.71875 0.792969 -5.273438 C 1.015625 -5.828125 1.359375 -6.253906 1.816406 -6.554688 C 2.269531 -6.847656 2.777344 -6.996094 3.34375 -7 C 3.753906 -6.996094 4.121094 -6.910156 4.445313 -6.738281 C 4.765625 -6.5625 5.027344 -6.335938 5.234375 -6.058594 L 5.234375 -9.449219 L 6.386719 -9.449219 L 6.386719 0 Z M 1.644531 -3.414063 C 1.640625 -2.535156 1.824219 -1.878906 2.199219 -1.449219 C 2.566406 -1.011719 3.003906 -0.796875 3.507813 -0.800781 C 4.011719 -0.796875 4.441406 -1.003906 4.796875 -1.421875 C 5.152344 -1.832031 5.332031 -2.464844 5.332031 -3.320313 C 5.332031 -4.253906 5.148438 -4.941406 4.789063 -5.378906 C 4.421875 -5.816406 3.976563 -6.035156 3.453125 -6.039063 C 2.933594 -6.035156 2.503906 -5.824219 2.160156 -5.40625 C 1.8125 -4.984375 1.640625 -4.320313 1.644531 -3.414063 Z M 1.644531 -3.414063 "/>
</symbol>
<symbol overflow="visible" id="glyph2-16">
<path style="stroke:none;" d="M 3.402344 -1.039063 L 3.570313 -0.0117188 C 3.242188 0.0546875 2.953125 0.0859375 2.695313 0.0898438 C 2.273438 0.0859375 1.945313 0.0234375 1.714844 -0.109375 C 1.480469 -0.238281 1.316406 -0.414063 1.222656 -0.632813 C 1.125 -0.851563 1.078125 -1.308594 1.082031 -2.003906 L 1.082031 -5.941406 L 0.230469 -5.941406 L 0.230469 -6.84375 L 1.082031 -6.84375 L 1.082031 -8.539063 L 2.238281 -9.234375 L 2.238281 -6.84375 L 3.402344 -6.84375 L 3.402344 -5.941406 L 2.238281 -5.941406 L 2.238281 -1.941406 C 2.238281 -1.605469 2.257813 -1.394531 2.296875 -1.300781 C 2.335938 -1.207031 2.402344 -1.128906 2.496094 -1.074219 C 2.589844 -1.015625 2.722656 -0.988281 2.894531 -0.992188 C 3.019531 -0.988281 3.1875 -1.003906 3.402344 -1.039063 Z M 3.402344 -1.039063 "/>
</symbol>
<symbol overflow="visible" id="glyph2-17">
<path style="stroke:none;" d="M 1.019531 0 L 1.019531 -9.449219 L 4.273438 -9.449219 C 5.003906 -9.445313 5.566406 -9.398438 5.957031 -9.3125 C 6.492188 -9.183594 6.953125 -8.960938 7.339844 -8.636719 C 7.835938 -8.214844 8.207031 -7.675781 8.457031 -7.019531 C 8.699219 -6.363281 8.824219 -5.613281 8.828125 -4.777344 C 8.824219 -4.054688 8.742188 -3.417969 8.578125 -2.867188 C 8.410156 -2.308594 8.195313 -1.851563 7.933594 -1.492188 C 7.667969 -1.128906 7.378906 -0.84375 7.070313 -0.632813 C 6.757813 -0.421875 6.382813 -0.261719 5.945313 -0.160156 C 5.503906 -0.0507813 5 0 4.429688 0 Z M 2.269531 -1.113281 L 4.285156 -1.113281 C 4.902344 -1.113281 5.390625 -1.171875 5.75 -1.289063 C 6.101563 -1.40625 6.386719 -1.566406 6.601563 -1.777344 C 6.894531 -2.070313 7.125 -2.46875 7.289063 -2.972656 C 7.453125 -3.472656 7.535156 -4.082031 7.539063 -4.796875 C 7.535156 -5.78125 7.371094 -6.539063 7.050781 -7.074219 C 6.722656 -7.601563 6.332031 -7.957031 5.871094 -8.140625 C 5.535156 -8.265625 4.996094 -8.332031 4.253906 -8.332031 L 2.269531 -8.332031 Z M 2.269531 -1.113281 "/>
</symbol>
<symbol overflow="visible" id="glyph2-18">
<path style="stroke:none;" d="M 0.855469 0 L 0.855469 -6.84375 L 1.902344 -6.84375 L 1.902344 -5.808594 C 2.164063 -6.289063 2.410156 -6.609375 2.636719 -6.765625 C 2.863281 -6.917969 3.109375 -6.996094 3.382813 -7 C 3.769531 -6.996094 4.167969 -6.871094 4.578125 -6.625 L 4.175781 -5.550781 C 3.890625 -5.714844 3.605469 -5.800781 3.324219 -5.800781 C 3.066406 -5.800781 2.839844 -5.722656 2.640625 -5.570313 C 2.4375 -5.417969 2.292969 -5.207031 2.210938 -4.9375 C 2.078125 -4.523438 2.015625 -4.070313 2.015625 -3.582031 L 2.015625 0 Z M 0.855469 0 "/>
</symbol>
<symbol overflow="visible" id="glyph2-19">
<path style="stroke:none;" d="M 2.773438 0 L 0.167969 -6.84375 L 1.390625 -6.84375 L 2.863281 -2.746094 C 3.019531 -2.300781 3.164063 -1.839844 3.300781 -1.367188 C 3.398438 -1.722656 3.542969 -2.15625 3.730469 -2.667969 L 5.253906 -6.84375 L 6.445313 -6.84375 L 3.855469 0 Z M 2.773438 0 "/>
</symbol>
<symbol overflow="visible" id="glyph2-20">
<path style="stroke:none;" d="M 0.0976563 0 L 2.597656 -3.558594 L 0.285156 -6.84375 L 1.734375 -6.84375 L 2.785156 -5.238281 C 2.980469 -4.933594 3.140625 -4.675781 3.261719 -4.472656 C 3.449219 -4.753906 3.625 -5.007813 3.785156 -5.226563 L 4.9375 -6.84375 L 6.324219 -6.84375 L 3.957031 -3.621094 L 6.503906 0 L 5.078125 0 L 3.671875 -2.125 L 3.300781 -2.699219 L 1.5 0 Z M 0.0976563 0 "/>
</symbol>
<symbol overflow="visible" id="glyph2-21">
<path style="stroke:none;" d="M 2.667969 0 L 0.160156 -9.449219 L 1.445313 -9.449219 L 2.882813 -3.253906 C 3.035156 -2.601563 3.167969 -1.957031 3.28125 -1.320313 C 3.519531 -2.328125 3.660156 -2.910156 3.707031 -3.066406 L 5.503906 -9.449219 L 7.011719 -9.449219 L 8.367188 -4.667969 C 8.703125 -3.476563 8.945313 -2.359375 9.101563 -1.320313 C 9.21875 -1.914063 9.375 -2.601563 9.570313 -3.378906 L 11.054688 -9.449219 L 12.3125 -9.449219 L 9.71875 0 L 8.515625 0 L 6.523438 -7.199219 C 6.351563 -7.796875 6.253906 -8.167969 6.226563 -8.308594 C 6.125 -7.871094 6.03125 -7.5 5.949219 -7.199219 L 3.945313 0 Z M 2.667969 0 "/>
</symbol>
<symbol overflow="visible" id="glyph2-22">
<path style="stroke:none;" d="M 0.875 0 L 0.875 -9.449219 L 2.035156 -9.449219 L 2.035156 -4.0625 L 4.78125 -6.84375 L 6.285156 -6.84375 L 3.667969 -4.304688 L 6.546875 0 L 5.117188 0 L 2.855469 -3.5 L 2.035156 -2.714844 L 2.035156 0 Z M 0.875 0 "/>
</symbol>
<symbol overflow="visible" id="glyph2-23">
<path style="stroke:none;" d="M 0.65625 0.566406 L 1.785156 0.734375 C 1.828125 1.078125 1.960938 1.332031 2.179688 1.496094 C 2.464844 1.707031 2.855469 1.816406 3.359375 1.816406 C 3.890625 1.816406 4.304688 1.707031 4.601563 1.492188 C 4.890625 1.277344 5.089844 0.976563 5.195313 0.59375 C 5.253906 0.351563 5.28125 -0.140625 5.277344 -0.894531 C 4.769531 -0.296875 4.136719 0 3.382813 0 C 2.4375 0 1.710938 -0.335938 1.199219 -1.015625 C 0.679688 -1.691406 0.421875 -2.507813 0.425781 -3.460938 C 0.421875 -4.113281 0.539063 -4.714844 0.777344 -5.269531 C 1.011719 -5.816406 1.355469 -6.242188 1.804688 -6.546875 C 2.253906 -6.84375 2.78125 -6.996094 3.390625 -7 C 4.195313 -6.996094 4.859375 -6.667969 5.386719 -6.019531 L 5.386719 -6.84375 L 6.457031 -6.84375 L 6.457031 -0.929688 C 6.457031 0.136719 6.347656 0.890625 6.132813 1.335938 C 5.914063 1.78125 5.570313 2.132813 5.101563 2.390625 C 4.628906 2.648438 4.050781 2.777344 3.363281 2.777344 C 2.546875 2.777344 1.886719 2.59375 1.386719 2.226563 C 0.882813 1.859375 0.640625 1.304688 0.65625 0.566406 Z M 1.617188 -3.546875 C 1.617188 -2.644531 1.792969 -1.988281 2.152344 -1.578125 C 2.503906 -1.164063 2.953125 -0.960938 3.492188 -0.960938 C 4.023438 -0.960938 4.46875 -1.164063 4.832031 -1.574219 C 5.191406 -1.984375 5.371094 -2.628906 5.375 -3.507813 C 5.371094 -4.339844 5.1875 -4.96875 4.816406 -5.398438 C 4.445313 -5.820313 3.996094 -6.035156 3.472656 -6.039063 C 2.953125 -6.035156 2.515625 -5.824219 2.15625 -5.410156 C 1.796875 -4.988281 1.617188 -4.367188 1.617188 -3.546875 Z M 1.617188 -3.546875 "/>
</symbol>
<symbol overflow="visible" id="glyph2-24">
<path style="stroke:none;" d="M 5.355469 0 L 5.355469 -1.003906 C 4.824219 -0.230469 4.097656 0.152344 3.183594 0.15625 C 2.777344 0.152344 2.402344 0.078125 2.050781 -0.0742188 C 1.699219 -0.226563 1.4375 -0.421875 1.273438 -0.660156 C 1.101563 -0.890625 0.984375 -1.175781 0.914063 -1.519531 C 0.867188 -1.746094 0.84375 -2.109375 0.84375 -2.605469 L 0.84375 -6.84375 L 2.003906 -6.84375 L 2.003906 -3.046875 C 2.003906 -2.441406 2.027344 -2.03125 2.074219 -1.824219 C 2.144531 -1.515625 2.296875 -1.277344 2.539063 -1.105469 C 2.773438 -0.929688 3.066406 -0.84375 3.414063 -0.84375 C 3.761719 -0.84375 4.089844 -0.929688 4.394531 -1.109375 C 4.699219 -1.285156 4.914063 -1.53125 5.042969 -1.839844 C 5.167969 -2.144531 5.230469 -2.589844 5.234375 -3.175781 L 5.234375 -6.84375 L 6.394531 -6.84375 L 6.394531 0 Z M 5.355469 0 "/>
</symbol>
</g>
</defs>
<g id="surface361">
<rect x="0" y="0" width="720" height="360" style="fill:rgb(100%,100%,100%);fill-opacity:1;stroke:none;"/>
<path style=" stroke:none;fill-rule:nonzero;fill:rgb(65.098039%,80.784314%,89.019608%);fill-opacity:0.501961;" d="M 156.25 188.851563 L 156.25 63.851563 L 155.632813 63.855469 L 155.65625 68.164063 L 155.675781 72.472656 L 155.699219 76.785156 L 155.71875 81.09375 L 155.742188 85.40625 L 155.761719 89.714844 L 155.785156 94.027344 L 155.804688 98.335938 L 155.824219 102.648438 L 155.847656 106.957031 L 155.867188 111.265625 L 155.890625 115.578125 L 155.910156 119.886719 L 155.933594 124.199219 L 155.953125 128.507813 L 155.976563 132.820313 L 155.996094 137.128906 L 156.015625 141.441406 L 156.039063 145.75 L 156.058594 150.058594 L 156.082031 154.371094 L 156.101563 158.679688 L 156.125 162.992188 L 156.144531 167.300781 L 156.164063 171.613281 L 156.1875 175.921875 L 156.207031 180.234375 L 156.230469 184.542969 Z M 156.25 188.851563 "/>
<path style=" stroke:none;fill-rule:nonzero;fill:rgb(12.156863%,47.058824%,70.588235%);fill-opacity:0.501961;" d="M 156.25 188.851563 L 156.230469 184.542969 L 156.207031 180.234375 L 156.1875 175.921875 L 156.164063 171.613281 L 156.144531 167.300781 L 156.125 162.992188 L 156.101563 158.679688 L 156.082031 154.371094 L 156.058594 150.058594 L 156.039063 145.75 L 156.015625 141.441406 L 155.996094 137.128906 L 155.976563 132.820313 L 155.953125 128.507813 L 155.933594 124.199219 L 155.910156 119.886719 L 155.890625 115.578125 L 155.867188 111.265625 L 155.847656 106.957031 L 155.824219 102.648438 L 155.804688 98.335938 L 155.785156 94.027344 L 155.761719 89.714844 L 155.742188 85.40625 L 155.71875 81.09375 L 155.699219 76.785156 L 155.675781 72.472656 L 155.65625 68.164063 L 155.632813 63.855469 L 154.585938 63.863281 L 154.644531 68.171875 L 154.699219 72.484375 L 154.816406 81.101563 L 154.871094 85.414063 L 154.929688 89.722656 L 154.988281 94.035156 L 155.046875 98.34375 L 155.101563 102.652344 L 155.160156 106.964844 L 155.21875 111.273438 L 155.273438 115.582031 L 155.332031 119.894531 L 155.390625 124.203125 L 155.445313 128.511719 L 155.503906 132.824219 L 155.621094 141.441406 L 155.675781 145.753906 L 155.734375 150.0625 L 155.792969 154.375 L 155.847656 158.683594 L 155.90625 162.992188 L 155.964844 167.304688 L 156.019531 171.613281 L 156.078125 175.921875 L 156.136719 180.234375 L 156.195313 184.542969 Z M 156.25 188.851563 "/>
<path style=" stroke:none;fill-rule:nonzero;fill:rgb(69.803922%,87.45098%,54.117647%);fill-opacity:0.501961;" d="M 156.25 188.851563 L 156.195313 184.542969 L 156.136719 180.234375 L 156.078125 175.921875 L 156.019531 171.613281 L 155.964844 167.304688 L 155.90625 162.992188 L 155.847656 158.683594 L 155.792969 154.375 L 155.734375 150.0625 L 155.675781 145.753906 L 155.621094 141.441406 L 155.503906 132.824219 L 155.445313 128.511719 L 155.390625 124.203125 L 155.332031 119.894531 L 155.273438 115.582031 L 155.21875 111.273438 L 155.160156 106.964844 L 155.101563 102.652344 L 155.046875 98.34375 L 154.988281 94.035156 L 154.929688 89.722656 L 154.871094 85.414063 L 154.816406 81.101563 L 154.699219 72.484375 L 154.644531 68.171875 L 154.585938 63.863281 L 154.460938 63.863281 L 154.523438 68.175781 L 154.585938 72.484375 L 154.648438 76.796875 L 154.707031 81.105469 L 154.769531 85.414063 L 154.832031 89.726563 L 154.957031 98.34375 L 155.015625 102.65625 L 155.140625 111.273438 L 155.203125 115.585938 L 155.265625 119.894531 L 155.324219 124.203125 L 155.386719 128.515625 L 155.511719 137.132813 L 155.570313 141.445313 L 155.695313 150.0625 L 155.757813 154.375 L 155.820313 158.683594 L 155.878906 162.992188 L 155.941406 167.304688 L 156.066406 175.921875 L 156.128906 180.234375 L 156.1875 184.542969 Z M 156.25 188.851563 "/>
<path style=" stroke:none;fill-rule:nonzero;fill:rgb(55.294118%,82.745098%,78.039216%);fill-opacity:0.501961;" d="M 156.25 188.851563 L 156.1875 184.542969 L 156.128906 180.234375 L 156.066406 175.921875 L 155.941406 167.304688 L 155.878906 162.992188 L 155.820313 158.683594 L 155.757813 154.375 L 155.695313 150.0625 L 155.570313 141.445313 L 155.511719 137.132813 L 155.386719 128.515625 L 155.324219 124.203125 L 155.265625 119.894531 L 155.203125 115.585938 L 155.140625 111.273438 L 155.015625 102.65625 L 154.957031 98.34375 L 154.832031 89.726563 L 154.769531 85.414063 L 154.707031 81.105469 L 154.648438 76.796875 L 154.585938 72.484375 L 154.523438 68.175781 L 154.460938 63.863281 L 151.597656 63.9375 L 151.917969 72.554688 L 152.078125 76.859375 L 152.558594 89.785156 L 152.71875 94.089844 L 152.878906 98.398438 L 153.042969 102.707031 L 153.203125 107.011719 L 153.523438 115.628906 L 153.683594 119.933594 L 154.003906 128.550781 L 154.164063 132.855469 L 154.644531 145.78125 L 154.804688 150.085938 L 154.96875 154.394531 L 155.128906 158.703125 L 155.289063 163.007813 L 155.609375 171.625 L 155.769531 175.929688 L 156.089844 184.546875 Z M 156.25 188.851563 "/>
<path style=" stroke:none;fill-rule:nonzero;fill:rgb(20%,62.745098%,17.254902%);fill-opacity:0.501961;" d="M 156.25 188.851563 L 156.089844 184.546875 L 155.769531 175.929688 L 155.609375 171.625 L 155.289063 163.007813 L 155.128906 158.703125 L 154.96875 154.394531 L 154.804688 150.085938 L 154.644531 145.78125 L 154.164063 132.855469 L 154.003906 128.550781 L 153.683594 119.933594 L 153.523438 115.628906 L 153.203125 107.011719 L 153.042969 102.707031 L 152.878906 98.398438 L 152.71875 94.089844 L 152.558594 89.785156 L 152.078125 76.859375 L 151.917969 72.554688 L 151.597656 63.9375 L 147.359375 64.167969 L 143.132813 64.542969 L 138.921875 65.058594 L 134.730469 65.71875 L 130.5625 66.519531 L 126.425781 67.460938 L 122.324219 68.542969 L 118.261719 69.765625 L 114.242188 71.125 L 110.269531 72.617188 L 106.351563 74.246094 L 102.488281 76.003906 L 98.691406 77.894531 L 94.957031 79.910156 L 91.296875 82.054688 L 87.707031 84.320313 L 84.199219 86.707031 L 80.777344 89.210938 L 77.4375 91.828125 L 74.191406 94.558594 L 71.035156 97.398438 L 67.980469 100.34375 L 65.027344 103.390625 L 62.179688 106.535156 L 59.441406 109.777344 L 56.8125 113.109375 L 54.300781 116.527344 L 51.902344 120.027344 L 49.628906 123.609375 L 47.476563 127.265625 L 45.449219 130.992188 L 43.546875 134.785156 L 41.777344 138.644531 L 40.140625 142.558594 L 38.636719 146.523438 L 37.265625 150.539063 L 36.035156 154.601563 L 34.941406 158.699219 L 33.988281 162.835938 L 33.175781 167 L 32.503906 171.1875 L 31.976563 175.398438 L 31.589844 179.625 L 31.351563 183.859375 L 31.253906 188.101563 L 31.300781 192.34375 L 31.488281 196.582031 L 31.824219 200.8125 L 32.300781 205.03125 L 32.921875 209.226563 L 33.683594 213.402344 L 34.589844 217.546875 L 35.632813 221.660156 L 36.816406 225.734375 L 38.136719 229.765625 L 39.59375 233.75 L 41.183594 237.683594 L 42.90625 241.5625 L 44.761719 245.378906 L 46.742188 249.128906 L 48.851563 252.8125 L 51.085938 256.421875 L 53.4375 259.949219 L 55.910156 263.398438 L 58.5 266.761719 L 61.199219 270.035156 L 64.007813 273.214844 L 66.925781 276.296875 L 69.945313 279.277344 L 73.0625 282.152344 L 76.277344 284.921875 L 79.585938 287.582031 L 82.980469 290.128906 L 86.457031 292.554688 L 90.019531 294.863281 L 93.652344 297.050781 L 97.363281 299.113281 L 101.136719 301.046875 L 104.976563 302.855469 L 108.875 304.527344 L 112.828125 306.070313 L 116.832031 307.476563 L 120.882813 308.746094 L 124.972656 309.875 L 129.097656 310.867188 L 133.253906 311.71875 L 137.4375 312.429688 L 141.640625 312.996094 L 145.863281 313.421875 L 150.097656 313.703125 L 154.335938 313.839844 L 158.582031 313.832031 L 162.820313 313.679688 L 167.054688 313.386719 L 171.273438 312.949219 L 175.476563 312.367188 L 179.65625 311.644531 L 183.8125 310.777344 L 187.933594 309.773438 L 192.019531 308.625 L 196.0625 307.34375 L 200.0625 305.925781 L 204.011719 304.371094 L 207.902344 302.683594 L 211.738281 300.863281 L 215.507813 298.917969 L 219.207031 296.84375 L 222.835938 294.644531 L 226.390625 292.320313 L 229.859375 289.882813 L 233.246094 287.324219 L 236.542969 284.65625 L 239.75 281.875 L 242.859375 278.988281 L 245.867188 275.996094 L 248.773438 272.90625 L 251.574219 269.714844 L 254.261719 266.433594 L 256.839844 263.0625 L 259.300781 259.605469 L 261.640625 256.070313 L 263.863281 252.453125 L 265.957031 248.765625 L 267.929688 245.007813 L 269.769531 241.183594 L 271.480469 237.300781 L 273.058594 233.363281 L 274.503906 229.371094 L 275.808594 225.335938 L 276.980469 221.257813 L 278.007813 217.140625 L 278.898438 212.992188 L 279.648438 208.816406 L 280.253906 204.617188 L 280.71875 200.398438 L 281.039063 196.167969 L 281.214844 191.929688 L 281.246094 187.683594 L 281.132813 183.445313 L 280.878906 179.207031 L 280.480469 174.984375 L 279.9375 170.777344 L 279.253906 166.589844 L 278.425781 162.425781 L 277.460938 158.296875 L 276.351563 154.199219 L 275.105469 150.144531 L 273.722656 146.132813 L 272.207031 142.167969 L 270.554688 138.261719 L 268.773438 134.410156 L 266.859375 130.625 L 264.820313 126.902344 L 262.65625 123.253906 L 260.367188 119.679688 L 257.960938 116.1875 L 255.433594 112.777344 L 252.796875 109.453125 L 250.046875 106.222656 L 247.1875 103.085938 L 244.222656 100.050781 L 241.160156 97.117188 L 237.996094 94.289063 L 234.742188 91.566406 L 231.394531 88.960938 L 227.960938 86.464844 L 224.445313 84.09375 L 220.847656 81.835938 L 217.179688 79.707031 L 213.441406 77.703125 L 209.636719 75.824219 L 205.769531 74.078125 L 201.84375 72.464844 L 197.867188 70.984375 L 193.84375 69.640625 L 189.777344 68.433594 L 185.667969 67.363281 L 181.53125 66.433594 L 177.359375 65.648438 L 173.167969 65.003906 L 168.953125 64.5 L 164.726563 64.140625 L 160.488281 63.925781 L 160.34375 68.230469 L 160.195313 72.539063 L 160.050781 76.847656 L 159.902344 81.15625 L 159.613281 89.773438 L 159.464844 94.078125 L 159.320313 98.386719 L 159.171875 102.695313 L 159.027344 107.003906 L 158.878906 111.3125 L 158.734375 115.617188 L 158.589844 119.925781 L 158.441406 124.234375 L 158.296875 128.542969 L 158.148438 132.851563 L 158.003906 137.160156 L 157.859375 141.464844 L 157.710938 145.773438 L 157.566406 150.082031 L 157.417969 154.390625 L 157.273438 158.699219 L 157.128906 163.003906 L 156.980469 167.3125 L 156.835938 171.621094 L 156.6875 175.929688 L 156.398438 184.546875 Z M 156.25 188.851563 "/>
<path style=" stroke:none;fill-rule:nonzero;fill:rgb(98.431373%,60.392157%,60%);fill-opacity:0.501961;" d="M 156.25 188.851563 L 156.398438 184.546875 L 156.6875 175.929688 L 156.835938 171.621094 L 156.980469 167.3125 L 157.128906 163.003906 L 157.273438 158.699219 L 157.417969 154.390625 L 157.566406 150.082031 L 157.710938 145.773438 L 157.859375 141.464844 L 158.003906 137.160156 L 158.148438 132.851563 L 158.296875 128.542969 L 158.441406 124.234375 L 158.589844 119.925781 L 158.734375 115.617188 L 158.878906 111.3125 L 159.027344 107.003906 L 159.171875 102.695313 L 159.320313 98.386719 L 159.464844 94.078125 L 159.613281 89.773438 L 159.902344 81.15625 L 160.050781 76.847656 L 160.195313 72.539063 L 160.34375 68.230469 L 160.488281 63.925781 L 159.167969 63.886719 L 158.964844 72.503906 L 158.867188 76.8125 L 158.765625 81.125 L 158.5625 89.742188 L 158.464844 94.050781 L 158.160156 106.976563 L 158.0625 111.289063 L 157.757813 124.214844 L 157.660156 128.523438 L 157.558594 132.832031 L 157.457031 137.144531 L 157.355469 141.453125 L 157.257813 145.761719 L 156.953125 158.6875 L 156.855469 162.996094 L 156.753906 167.308594 L 156.550781 175.925781 L 156.453125 180.234375 Z M 156.25 188.851563 "/>
<path style=" stroke:none;fill-rule:nonzero;fill:rgb(89.019608%,10.196078%,10.980392%);fill-opacity:0.501961;" d="M 156.25 188.851563 L 156.453125 180.234375 L 156.550781 175.925781 L 156.753906 167.308594 L 156.855469 162.996094 L 156.953125 158.6875 L 157.257813 145.761719 L 157.355469 141.453125 L 157.457031 137.144531 L 157.558594 132.832031 L 157.660156 128.523438 L 157.757813 124.214844 L 158.0625 111.289063 L 158.160156 106.976563 L 158.464844 94.050781 L 158.5625 89.742188 L 158.765625 81.125 L 158.867188 76.8125 L 158.964844 72.503906 L 159.167969 63.886719 L 158.996094 63.882813 L 158.902344 68.191406 L 158.804688 72.5 L 158.710938 76.808594 L 158.617188 81.121094 L 158.523438 85.429688 L 158.425781 89.738281 L 158.238281 98.355469 L 158.144531 102.667969 L 158.050781 106.976563 L 157.953125 111.285156 L 157.765625 119.902344 L 157.671875 124.214844 L 157.574219 128.523438 L 157.292969 141.449219 L 157.199219 145.761719 L 157.101563 150.070313 L 156.820313 162.996094 L 156.722656 167.304688 L 156.628906 171.617188 L 156.441406 180.234375 L 156.34375 184.542969 Z M 156.25 188.851563 "/>
<path style=" stroke:none;fill-rule:nonzero;fill:rgb(99.215686%,74.901961%,43.529412%);fill-opacity:0.501961;" d="M 156.25 188.851563 L 156.34375 184.542969 L 156.441406 180.234375 L 156.628906 171.617188 L 156.722656 167.304688 L 156.820313 162.996094 L 157.101563 150.070313 L 157.199219 145.761719 L 157.292969 141.449219 L 157.574219 128.523438 L 157.671875 124.214844 L 157.765625 119.902344 L 157.953125 111.285156 L 158.050781 106.976563 L 158.144531 102.667969 L 158.238281 98.355469 L 158.425781 89.738281 L 158.523438 85.429688 L 158.617188 81.121094 L 158.710938 76.808594 L 158.804688 72.5 L 158.902344 68.191406 L 158.996094 63.882813 L 158.953125 63.882813 L 158.578125 81.117188 L 158.488281 85.429688 L 158.113281 102.664063 L 158.019531 106.976563 L 157.929688 111.285156 L 157.648438 124.210938 L 157.554688 128.523438 L 157.367188 137.140625 L 157.277344 141.449219 L 157.183594 145.757813 L 157.089844 150.070313 L 156.714844 167.304688 L 156.625 171.617188 Z M 156.25 188.851563 "/>
<path style=" stroke:none;fill-rule:nonzero;fill:rgb(100%,49.803922%,0%);fill-opacity:0.501961;" d="M 156.25 188.851563 L 156.625 171.617188 L 156.714844 167.304688 L 157.089844 150.070313 L 157.183594 145.757813 L 157.277344 141.449219 L 157.367188 137.140625 L 157.554688 128.523438 L 157.648438 124.210938 L 157.929688 111.285156 L 158.019531 106.976563 L 158.113281 102.664063 L 158.488281 85.429688 L 158.578125 81.117188 L 158.953125 63.882813 L 158.890625 63.878906 L 158.800781 68.191406 L 158.710938 72.5 L 158.617188 76.808594 L 158.4375 85.425781 L 158.347656 89.738281 L 158.253906 94.046875 L 158.074219 102.664063 L 157.980469 106.972656 L 157.890625 111.285156 L 157.800781 115.59375 L 157.707031 119.902344 L 157.527344 128.519531 L 157.433594 132.832031 L 157.253906 141.449219 L 157.160156 145.757813 L 157.070313 150.070313 L 156.980469 154.378906 L 156.886719 158.6875 L 156.707031 167.304688 L 156.613281 171.617188 L 156.34375 184.542969 Z M 156.25 188.851563 "/>
<path style=" stroke:none;fill-rule:nonzero;fill:rgb(50.196078%,50.196078%,50.196078%);fill-opacity:0.501961;" d="M 156.25 188.851563 L 156.34375 184.542969 L 156.613281 171.617188 L 156.707031 167.304688 L 156.886719 158.6875 L 156.980469 154.378906 L 157.070313 150.070313 L 157.160156 145.757813 L 157.253906 141.449219 L 157.433594 132.832031 L 157.527344 128.519531 L 157.707031 119.902344 L 157.800781 115.59375 L 157.890625 111.285156 L 157.980469 106.972656 L 158.074219 102.664063 L 158.253906 94.046875 L 158.347656 89.738281 L 158.4375 85.425781 L 158.617188 76.808594 L 158.710938 72.5 L 158.800781 68.191406 L 158.890625 63.878906 L 157.617188 63.859375 L 157.570313 68.171875 L 157.476563 76.789063 L 157.429688 81.101563 L 157.335938 89.71875 L 157.289063 94.03125 L 157.242188 98.339844 L 157.195313 102.652344 L 157.101563 111.269531 L 157.050781 115.582031 L 157.003906 119.890625 L 156.957031 124.203125 L 156.863281 132.820313 L 156.816406 137.132813 L 156.769531 141.441406 L 156.722656 145.753906 L 156.628906 154.371094 L 156.582031 158.683594 L 156.488281 167.300781 L 156.441406 171.613281 L 156.390625 175.921875 L 156.34375 180.234375 Z M 156.25 188.851563 "/>
<path style=" stroke:none;fill-rule:nonzero;fill:rgb(79.215686%,69.803922%,83.921569%);fill-opacity:0.501961;" d="M 156.25 188.851563 L 156.34375 180.234375 L 156.390625 175.921875 L 156.441406 171.613281 L 156.488281 167.300781 L 156.582031 158.683594 L 156.628906 154.371094 L 156.722656 145.753906 L 156.769531 141.441406 L 156.816406 137.132813 L 156.863281 132.820313 L 156.957031 124.203125 L 157.003906 119.890625 L 157.050781 115.582031 L 157.101563 111.269531 L 157.195313 102.652344 L 157.242188 98.339844 L 157.289063 94.03125 L 157.335938 89.71875 L 157.429688 81.101563 L 157.476563 76.789063 L 157.570313 68.171875 L 157.617188 63.859375 L 157.144531 63.855469 L 157.113281 68.164063 L 157.085938 72.476563 L 157.054688 76.785156 L 157.023438 81.097656 L 156.992188 85.40625 L 156.960938 89.71875 L 156.898438 98.335938 L 156.867188 102.648438 L 156.835938 106.957031 L 156.804688 111.269531 L 156.777344 115.578125 L 156.746094 119.890625 L 156.683594 128.507813 L 156.652344 132.820313 L 156.621094 137.128906 L 156.589844 141.441406 L 156.558594 145.75 L 156.527344 150.0625 L 156.496094 154.371094 L 156.46875 158.679688 L 156.4375 162.992188 L 156.40625 167.300781 L 156.375 171.613281 L 156.34375 175.921875 L 156.3125 180.234375 Z M 156.25 188.851563 "/>
<path style=" stroke:none;fill-rule:nonzero;fill:rgb(41.568627%,23.921569%,60.392157%);fill-opacity:0.501961;" d="M 156.25 188.851563 L 156.3125 180.234375 L 156.34375 175.921875 L 156.375 171.613281 L 156.40625 167.300781 L 156.4375 162.992188 L 156.46875 158.679688 L 156.496094 154.371094 L 156.527344 150.0625 L 156.558594 145.75 L 156.589844 141.441406 L 156.621094 137.128906 L 156.652344 132.820313 L 156.683594 128.507813 L 156.746094 119.890625 L 156.777344 115.578125 L 156.804688 111.269531 L 156.835938 106.957031 L 156.867188 102.648438 L 156.898438 98.335938 L 156.960938 89.71875 L 156.992188 85.40625 L 157.023438 81.097656 L 157.054688 76.785156 L 157.085938 72.476563 L 157.113281 68.164063 L 157.144531 63.855469 L 156.25 63.851563 Z M 156.25 188.851563 "/>
<g style="fill:rgb(0%,0%,0%);fill-opacity:1;">
  <use xlink:href="#glyph0-1" x="318.171875" y="86.371094"/>
  <use xlink:href="#glyph0-2" x="321.228027" y="86.371094"/>
  <use xlink:href="#glyph0-3" x="326.728027" y="86.371094"/>
  <use xlink:href="#glyph0-4" x="332.845703" y="86.371094"/>
</g>
<path style=" stroke:none;fill-rule:nonzero;fill:rgb(65.098039%,80.784314%,89.019608%);fill-opacity:0.501961;" d="M 318.878906 109.578125 L 334.742188 109.578125 L 334.742188 93.714844 L 318.878906 93.714844 Z M 318.878906 109.578125 "/>
<path style=" stroke:none;fill-rule:nonzero;fill:rgb(12.156863%,47.058824%,70.588235%);fill-opacity:0.501961;" d="M 318.878906 126.859375 L 334.742188 126.859375 L 334.742188 110.996094 L 318.878906 110.996094 Z M 318.878906 126.859375 "/>
<path style=" stroke:none;fill-rule:nonzero;fill:rgb(69.803922%,87.45098%,54.117647%);fill-opacity:0.501961;" d="M 318.878906 144.136719 L 334.742188 144.136719 L 334.742188 128.273438 L 318.878906 128.273438 Z M 318.878906 144.136719 "/>
<path style=" stroke:none;fill-rule:nonzero;fill:rgb(55.294118%,82.745098%,78.039216%);fill-opacity:0.501961;" d="M 318.878906 161.417969 L 334.742188 161.417969 L 334.742188 145.554688 L 318.878906 145.554688 Z M 318.878906 161.417969 "/>
<path style=" stroke:none;fill-rule:nonzero;fill:rgb(20%,62.745098%,17.254902%);fill-opacity:0.501961;" d="M 318.878906 178.699219 L 334.742188 178.699219 L 334.742188 162.835938 L 318.878906 162.835938 Z M 318.878906 178.699219 "/>
<path style=" stroke:none;fill-rule:nonzero;fill:rgb(98.431373%,60.392157%,60%);fill-opacity:0.501961;" d="M 318.878906 195.980469 L 334.742188 195.980469 L 334.742188 180.117188 L 318.878906 180.117188 Z M 318.878906 195.980469 "/>
<path style=" stroke:none;fill-rule:nonzero;fill:rgb(89.019608%,10.196078%,10.980392%);fill-opacity:0.501961;" d="M 318.878906 213.257813 L 334.742188 213.257813 L 334.742188 197.394531 L 318.878906 197.394531 Z M 318.878906 213.257813 "/>
<path style=" stroke:none;fill-rule:nonzero;fill:rgb(99.215686%,74.901961%,43.529412%);fill-opacity:0.501961;" d="M 318.878906 230.539063 L 334.742188 230.539063 L 334.742188 214.675781 L 318.878906 214.675781 Z M 318.878906 230.539063 "/>
<path style=" stroke:none;fill-rule:nonzero;fill:rgb(100%,49.803922%,0%);fill-opacity:0.501961;" d="M 318.878906 247.820313 L 334.742188 247.820313 L 334.742188 231.957031 L 318.878906 231.957031 Z M 318.878906 247.820313 "/>
<path style=" stroke:none;fill-rule:nonzero;fill:rgb(50.196078%,50.196078%,50.196078%);fill-opacity:0.501961;" d="M 318.878906 265.097656 L 334.742188 265.097656 L 334.742188 249.234375 L 318.878906 249.234375 Z M 318.878906 265.097656 "/>
<path style=" stroke:none;fill-rule:nonzero;fill:rgb(79.215686%,69.803922%,83.921569%);fill-opacity:0.501961;" d="M 318.878906 282.378906 L 334.742188 282.378906 L 334.742188 266.515625 L 318.878906 266.515625 Z M 318.878906 282.378906 "/>
<path style=" stroke:none;fill-rule:nonzero;fill:rgb(41.568627%,23.921569%,60.392157%);fill-opacity:0.501961;" d="M 318.878906 299.660156 L 334.742188 299.660156 L 334.742188 283.796875 L 318.878906 283.796875 Z M 318.878906 299.660156 "/>
<g style="fill:rgb(0%,0%,0%);fill-opacity:1;">
  <use xlink:href="#glyph1-1" x="340.929688" y="104.796875"/>
  <use xlink:href="#glyph1-2" x="347.284766" y="104.796875"/>
  <use xlink:href="#glyph1-3" x="353.154297" y="104.796875"/>
</g>
<g style="fill:rgb(0%,0%,0%);fill-opacity:1;">
  <use xlink:href="#glyph1-1" x="340.929688" y="122.078125"/>
  <use xlink:href="#glyph1-4" x="347.284766" y="122.078125"/>
</g>
<g style="fill:rgb(0%,0%,0%);fill-opacity:1;">
  <use xlink:href="#glyph1-1" x="340.929688" y="139.355469"/>
  <use xlink:href="#glyph1-5" x="347.284766" y="139.355469"/>
  <use xlink:href="#glyph1-6" x="352.178906" y="139.355469"/>
</g>
<g style="fill:rgb(0%,0%,0%);fill-opacity:1;">
  <use xlink:href="#glyph1-7" x="340.929688" y="156.636719"/>
  <use xlink:href="#glyph1-2" x="347.284766" y="156.636719"/>
  <use xlink:href="#glyph1-8" x="353.154297" y="156.636719"/>
</g>
<g style="fill:rgb(0%,0%,0%);fill-opacity:1;">
  <use xlink:href="#glyph1-9" x="340.929688" y="173.917969"/>
  <use xlink:href="#glyph1-2" x="346.305078" y="173.917969"/>
</g>
<g style="fill:rgb(0%,0%,0%);fill-opacity:1;">
  <use xlink:href="#glyph1-10" x="340.929688" y="191.195313"/>
  <use xlink:href="#glyph1-1" x="346.799219" y="191.195313"/>
</g>
<g style="fill:rgb(0%,0%,0%);fill-opacity:1;">
  <use xlink:href="#glyph1-10" x="340.929688" y="208.476563"/>
  <use xlink:href="#glyph1-4" x="346.799219" y="208.476563"/>
</g>
<g style="fill:rgb(0%,0%,0%);fill-opacity:1;">
  <use xlink:href="#glyph1-10" x="340.929688" y="225.757813"/>
  <use xlink:href="#glyph1-8" x="346.799219" y="225.757813"/>
</g>
<g style="fill:rgb(0%,0%,0%);fill-opacity:1;">
  <use xlink:href="#glyph1-10" x="340.929688" y="243.035156"/>
  <use xlink:href="#glyph1-11" x="346.799219" y="243.035156"/>
</g>
<g style="fill:rgb(0%,0%,0%);fill-opacity:1;">
  <use xlink:href="#glyph1-10" x="340.929688" y="260.316406"/>
  <use xlink:href="#glyph1-12" x="346.799219" y="260.316406"/>
</g>
<g style="fill:rgb(0%,0%,0%);fill-opacity:1;">
  <use xlink:href="#glyph1-12" x="340.929688" y="277.597656"/>
  <use xlink:href="#glyph1-13" x="346.799219" y="277.597656"/>
</g>
<g style="fill:rgb(0%,0%,0%);fill-opacity:1;">
  <use xlink:href="#glyph1-14" x="340.929688" y="294.875"/>
  <use xlink:href="#glyph1-2" x="346.305078" y="294.875"/>
  <use xlink:href="#glyph1-8" x="352.174609" y="294.875"/>
</g>
<g style="fill:rgb(0%,0%,0%);fill-opacity:1;">
  <use xlink:href="#glyph2-1" x="0" y="29.824219"/>
  <use xlink:href="#glyph2-2" x="8.804297" y="29.824219"/>
  <use xlink:href="#glyph2-3" x="16.145508" y="29.824219"/>
  <use xlink:href="#glyph2-4" x="27.141211" y="29.824219"/>
  <use xlink:href="#glyph2-5" x="34.482422" y="29.824219"/>
  <use xlink:href="#glyph2-6" x="37.415039" y="29.824219"/>
  <use xlink:href="#glyph2-7" x="44.75625" y="29.824219"/>
  <use xlink:href="#glyph2-8" x="52.819336" y="29.824219"/>
  <use xlink:href="#glyph2-4" x="59.419336" y="29.824219"/>
  <use xlink:href="#glyph2-6" x="66.760547" y="29.824219"/>
  <use xlink:href="#glyph2-9" x="74.101758" y="29.824219"/>
  <use xlink:href="#glyph2-10" x="81.442969" y="29.824219"/>
  <use xlink:href="#glyph2-5" x="91.710352" y="29.824219"/>
  <use xlink:href="#glyph2-11" x="94.642969" y="29.824219"/>
  <use xlink:href="#glyph2-2" x="97.575586" y="29.824219"/>
  <use xlink:href="#glyph2-9" x="104.916797" y="29.824219"/>
  <use xlink:href="#glyph2-1" x="112.258008" y="29.824219"/>
  <use xlink:href="#glyph2-5" x="121.062305" y="29.824219"/>
  <use xlink:href="#glyph2-6" x="123.994922" y="29.824219"/>
  <use xlink:href="#glyph2-6" x="131.336133" y="29.824219"/>
  <use xlink:href="#glyph2-4" x="138.677344" y="29.824219"/>
  <use xlink:href="#glyph2-12" x="146.018555" y="29.824219"/>
  <use xlink:href="#glyph2-13" x="155.551172" y="29.824219"/>
  <use xlink:href="#glyph2-14" x="162.892383" y="29.824219"/>
  <use xlink:href="#glyph2-15" x="170.233594" y="29.824219"/>
  <use xlink:href="#glyph2-11" x="177.574805" y="29.824219"/>
  <use xlink:href="#glyph2-16" x="180.507422" y="29.824219"/>
  <use xlink:href="#glyph2-11" x="184.174805" y="29.824219"/>
  <use xlink:href="#glyph2-13" x="187.107422" y="29.824219"/>
  <use xlink:href="#glyph2-14" x="194.448633" y="29.824219"/>
  <use xlink:href="#glyph2-9" x="201.789844" y="29.824219"/>
  <use xlink:href="#glyph2-17" x="209.131055" y="29.824219"/>
  <use xlink:href="#glyph2-6" x="218.663672" y="29.824219"/>
  <use xlink:href="#glyph2-4" x="226.004883" y="29.824219"/>
  <use xlink:href="#glyph2-18" x="233.346094" y="29.824219"/>
  <use xlink:href="#glyph2-11" x="237.741797" y="29.824219"/>
  <use xlink:href="#glyph2-19" x="240.674414" y="29.824219"/>
  <use xlink:href="#glyph2-6" x="247.274414" y="29.824219"/>
  <use xlink:href="#glyph2-15" x="254.615625" y="29.824219"/>
  <use xlink:href="#glyph2-9" x="261.956836" y="29.824219"/>
  <use xlink:href="#glyph2-1" x="269.298047" y="29.824219"/>
  <use xlink:href="#glyph2-6" x="278.102344" y="29.824219"/>
  <use xlink:href="#glyph2-20" x="285.443555" y="29.824219"/>
  <use xlink:href="#glyph2-9" x="292.043555" y="29.824219"/>
  <use xlink:href="#glyph2-3" x="299.384766" y="29.824219"/>
  <use xlink:href="#glyph2-2" x="310.380469" y="29.824219"/>
  <use xlink:href="#glyph2-5" x="317.72168" y="29.824219"/>
  <use xlink:href="#glyph2-6" x="320.654297" y="29.824219"/>
</g>
<path style=" stroke:none;fill-rule:nonzero;fill:rgb(65.098039%,80.784314%,89.019608%);fill-opacity:0.501961;" d="M 516.25 188.851563 L 516.25 63.851563 L 515.328125 63.855469 L 515.359375 68.167969 L 515.421875 76.785156 L 515.453125 81.097656 L 515.484375 85.40625 L 515.515625 89.71875 L 515.550781 94.027344 L 515.582031 98.335938 L 515.613281 102.648438 L 515.644531 106.957031 L 515.675781 111.269531 L 515.707031 115.578125 L 515.742188 119.890625 L 515.804688 128.507813 L 515.835938 132.820313 L 515.867188 137.128906 L 515.898438 141.441406 L 515.933594 145.75 L 515.964844 150.0625 L 516.027344 158.679688 L 516.058594 162.992188 L 516.089844 167.300781 L 516.125 171.613281 L 516.15625 175.921875 L 516.1875 180.234375 Z M 516.25 188.851563 "/>
<path style=" stroke:none;fill-rule:nonzero;fill:rgb(12.156863%,47.058824%,70.588235%);fill-opacity:0.501961;" d="M 516.25 188.851563 L 516.1875 180.234375 L 516.15625 175.921875 L 516.125 171.613281 L 516.089844 167.300781 L 516.058594 162.992188 L 516.027344 158.679688 L 515.964844 150.0625 L 515.933594 145.75 L 515.898438 141.441406 L 515.867188 137.128906 L 515.835938 132.820313 L 515.804688 128.507813 L 515.742188 119.890625 L 515.707031 115.578125 L 515.675781 111.269531 L 515.644531 106.957031 L 515.613281 102.648438 L 515.582031 98.335938 L 515.550781 94.027344 L 515.515625 89.71875 L 515.484375 85.40625 L 515.453125 81.097656 L 515.421875 76.785156 L 515.359375 68.167969 L 515.328125 63.855469 L 513.914063 63.875 L 513.992188 68.183594 L 514.074219 72.492188 L 514.15625 76.804688 L 514.234375 81.113281 L 514.398438 89.730469 L 514.476563 94.042969 L 514.640625 102.660156 L 514.71875 106.96875 L 514.800781 111.28125 L 514.878906 115.589844 L 515.042969 124.207031 L 515.121094 128.519531 L 515.285156 137.136719 L 515.363281 141.449219 L 515.527344 150.066406 L 515.605469 154.375 L 515.6875 158.6875 L 515.765625 162.996094 L 515.929688 171.613281 L 516.007813 175.925781 L 516.171875 184.542969 Z M 516.25 188.851563 "/>
<path style=" stroke:none;fill-rule:nonzero;fill:rgb(69.803922%,87.45098%,54.117647%);fill-opacity:0.501961;" d="M 516.25 188.851563 L 516.171875 184.542969 L 516.007813 175.925781 L 515.929688 171.613281 L 515.765625 162.996094 L 515.6875 158.6875 L 515.605469 154.375 L 515.527344 150.066406 L 515.363281 141.449219 L 515.285156 137.136719 L 515.121094 128.519531 L 515.042969 124.207031 L 514.878906 115.589844 L 514.800781 111.28125 L 514.71875 106.96875 L 514.640625 102.660156 L 514.476563 94.042969 L 514.398438 89.730469 L 514.234375 81.113281 L 514.15625 76.804688 L 514.074219 72.492188 L 513.992188 68.183594 L 513.914063 63.875 L 513.746094 63.878906 L 514.003906 76.804688 L 514.089844 81.117188 L 514.175781 85.425781 L 514.265625 89.734375 L 514.351563 94.042969 L 514.4375 98.355469 L 514.78125 115.589844 L 514.867188 119.902344 L 514.953125 124.210938 L 515.042969 128.519531 L 515.128906 132.828125 L 515.214844 137.140625 L 515.472656 150.066406 L 515.558594 154.378906 L 515.644531 158.6875 L 515.734375 162.996094 L 515.90625 171.613281 L 515.992188 175.925781 Z M 516.25 188.851563 "/>
<path style=" stroke:none;fill-rule:nonzero;fill:rgb(55.294118%,82.745098%,78.039216%);fill-opacity:0.501961;" d="M 516.25 188.851563 L 515.992188 175.925781 L 515.90625 171.613281 L 515.734375 162.996094 L 515.644531 158.6875 L 515.558594 154.378906 L 515.472656 150.066406 L 515.214844 137.140625 L 515.128906 132.828125 L 515.042969 128.519531 L 514.953125 124.210938 L 514.867188 119.902344 L 514.78125 115.589844 L 514.4375 98.355469 L 514.351563 94.042969 L 514.265625 89.734375 L 514.175781 85.425781 L 514.089844 81.117188 L 514.003906 76.804688 L 513.746094 63.878906 L 510.09375 64.003906 L 510.304688 68.308594 L 510.519531 72.613281 L 510.730469 76.917969 L 510.941406 81.226563 L 511.15625 85.53125 L 511.578125 94.140625 L 511.792969 98.445313 L 512.214844 107.054688 L 512.429688 111.359375 L 512.640625 115.664063 L 512.855469 119.972656 L 513.277344 128.582031 L 513.492188 132.886719 L 513.914063 141.496094 L 514.128906 145.800781 L 514.550781 154.410156 L 514.765625 158.71875 L 515.1875 167.328125 L 515.402344 171.632813 L 515.613281 175.9375 L 515.828125 180.242188 Z M 516.25 188.851563 "/>
<path style=" stroke:none;fill-rule:nonzero;fill:rgb(20%,62.745098%,17.254902%);fill-opacity:0.501961;" d="M 516.25 188.851563 L 515.828125 180.242188 L 515.613281 175.9375 L 515.402344 171.632813 L 515.1875 167.328125 L 514.765625 158.71875 L 514.550781 154.410156 L 514.128906 145.800781 L 513.914063 141.496094 L 513.492188 132.886719 L 513.277344 128.582031 L 512.855469 119.972656 L 512.640625 115.664063 L 512.429688 111.359375 L 512.214844 107.054688 L 511.792969 98.445313 L 511.578125 94.140625 L 511.15625 85.53125 L 510.941406 81.226563 L 510.730469 76.917969 L 510.519531 72.613281 L 510.304688 68.308594 L 510.09375 64.003906 L 505.855469 64.285156 L 501.628906 64.710938 L 497.417969 65.277344 L 493.230469 65.992188 L 489.070313 66.84375 L 484.941406 67.835938 L 480.847656 68.972656 L 476.792969 70.242188 L 472.785156 71.652344 L 468.828125 73.195313 L 464.925781 74.875 L 461.085938 76.683594 L 457.304688 78.625 L 453.59375 80.691406 L 449.953125 82.882813 L 446.394531 85.195313 L 442.910156 87.628906 L 439.515625 90.179688 L 436.207031 92.84375 L 432.988281 95.617188 L 429.871094 98.5 L 426.851563 101.488281 L 423.933594 104.574219 L 421.125 107.761719 L 418.421875 111.039063 L 415.835938 114.410156 L 413.363281 117.863281 L 411.011719 121.402344 L 408.78125 125.015625 L 406.671875 128.703125 L 404.691406 132.460938 L 402.839844 136.285156 L 401.121094 140.167969 L 399.53125 144.109375 L 398.082031 148.097656 L 396.765625 152.136719 L 395.585938 156.21875 L 394.546875 160.335938 L 393.648438 164.488281 L 392.890625 168.667969 L 392.277344 172.871094 L 391.804688 177.09375 L 391.476563 181.328125 L 391.292969 185.574219 L 391.253906 189.820313 L 391.359375 194.066406 L 391.609375 198.308594 L 392 202.535156 L 392.539063 206.75 L 393.21875 210.941406 L 394.039063 215.109375 L 395 219.246094 L 396.105469 223.351563 L 397.347656 227.410156 L 398.726563 231.429688 L 400.238281 235.398438 L 401.886719 239.3125 L 403.667969 243.167969 L 405.578125 246.964844 L 407.617188 250.691406 L 409.78125 254.34375 L 412.066406 257.925781 L 414.472656 261.425781 L 417 264.839844 L 419.636719 268.167969 L 422.390625 271.40625 L 425.246094 274.546875 L 428.210938 277.589844 L 431.277344 280.53125 L 434.441406 283.363281 L 437.699219 286.089844 L 441.050781 288.703125 L 444.484375 291.199219 L 448.003906 293.578125 L 451.601563 295.835938 L 455.273438 297.972656 L 459.015625 299.980469 L 462.824219 301.863281 L 466.695313 303.613281 L 470.625 305.230469 L 474.605469 306.710938 L 478.632813 308.058594 L 482.703125 309.269531 L 486.816406 310.339844 L 490.960938 311.269531 L 495.132813 312.058594 L 499.332031 312.703125 L 503.550781 313.207031 L 507.78125 313.566406 L 512.023438 313.78125 L 516.273438 313.855469 L 520.519531 313.78125 L 524.761719 313.5625 L 528.992188 313.203125 L 533.210938 312.699219 L 537.410156 312.050781 L 541.582031 311.261719 L 545.726563 310.328125 L 549.839844 309.257813 L 553.910156 308.046875 L 557.9375 306.699219 L 561.917969 305.214844 L 565.84375 303.59375 L 569.714844 301.84375 L 573.523438 299.960938 L 577.265625 297.953125 L 580.9375 295.816406 L 584.535156 293.554688 L 588.050781 291.175781 L 591.488281 288.675781 L 594.835938 286.0625 L 598.09375 283.335938 L 601.253906 280.5 L 604.320313 277.558594 L 607.28125 274.515625 L 610.140625 271.375 L 612.890625 268.136719 L 615.527344 264.808594 L 618.050781 261.390625 L 620.457031 257.890625 L 622.742188 254.308594 L 624.90625 250.652344 L 626.941406 246.925781 L 628.851563 243.132813 L 630.632813 239.273438 L 632.277344 235.359375 L 633.792969 231.390625 L 635.167969 227.371094 L 636.410156 223.308594 L 637.511719 219.207031 L 638.472656 215.070313 L 639.292969 210.902344 L 639.96875 206.707031 L 640.503906 202.492188 L 640.898438 198.265625 L 641.144531 194.023438 L 641.25 189.777344 L 641.207031 185.53125 L 641.023438 181.285156 L 640.691406 177.050781 L 640.21875 172.828125 L 639.605469 168.625 L 638.847656 164.445313 L 637.945313 160.296875 L 636.90625 156.175781 L 635.726563 152.097656 L 634.40625 148.058594 L 632.953125 144.066406 L 631.363281 140.128906 L 629.640625 136.246094 L 627.789063 132.421875 L 625.808594 128.664063 L 623.699219 124.976563 L 621.46875 121.363281 L 619.113281 117.828125 L 616.640625 114.375 L 614.050781 111.007813 L 611.351563 107.730469 L 608.539063 104.542969 L 605.621094 101.457031 L 602.601563 98.472656 L 599.480469 95.589844 L 596.261719 92.816406 L 592.953125 90.152344 L 589.554688 87.601563 L 586.074219 85.171875 L 582.511719 82.859375 L 578.871094 80.667969 L 575.160156 78.601563 L 571.378906 76.664063 L 567.535156 74.855469 L 563.632813 73.179688 L 559.675781 71.636719 L 555.667969 70.230469 L 551.613281 68.957031 L 547.519531 67.828125 L 543.390625 66.835938 L 539.226563 65.984375 L 535.039063 65.273438 L 530.832031 64.707031 L 526.605469 64.28125 L 522.367188 64.003906 L 520.890625 94.136719 L 520.679688 98.445313 L 519.414063 124.273438 L 519.203125 128.582031 L 517.726563 158.714844 L 517.515625 163.023438 Z M 516.25 188.851563 "/>
<path style=" stroke:none;fill-rule:nonzero;fill:rgb(98.431373%,60.392157%,60%);fill-opacity:0.501961;" d="M 516.25 188.851563 L 517.515625 163.023438 L 517.726563 158.714844 L 519.203125 128.582031 L 519.414063 124.273438 L 520.679688 98.445313 L 520.890625 94.136719 L 522.367188 64.003906 L 520.484375 63.925781 L 520.335938 68.230469 L 520.191406 72.539063 L 520.042969 76.847656 L 519.753906 85.464844 L 519.605469 89.769531 L 519.316406 98.386719 L 519.167969 102.695313 L 518.878906 111.3125 L 518.730469 115.617188 L 518.441406 124.234375 L 518.292969 128.542969 L 518.148438 132.851563 L 518 137.160156 L 517.855469 141.464844 L 517.710938 145.773438 L 517.5625 150.082031 L 517.273438 158.699219 L 517.125 163.003906 L 516.835938 171.621094 L 516.6875 175.929688 L 516.398438 184.546875 Z M 516.25 188.851563 "/>
<path style=" stroke:none;fill-rule:nonzero;fill:rgb(89.019608%,10.196078%,10.980392%);fill-opacity:0.501961;" d="M 516.25 188.851563 L 516.398438 184.546875 L 516.6875 175.929688 L 516.835938 171.621094 L 517.125 163.003906 L 517.273438 158.699219 L 517.5625 150.082031 L 517.710938 145.773438 L 517.855469 141.464844 L 518 137.160156 L 518.148438 132.851563 L 518.292969 128.542969 L 518.441406 124.234375 L 518.730469 115.617188 L 518.878906 111.3125 L 519.167969 102.695313 L 519.316406 98.386719 L 519.605469 89.769531 L 519.753906 85.464844 L 520.042969 76.847656 L 520.191406 72.539063 L 520.335938 68.230469 L 520.484375 63.925781 L 520.210938 63.914063 L 519.253906 94.074219 L 519.117188 98.378906 L 518.023438 132.847656 L 517.890625 137.15625 L 517.753906 141.460938 L 516.523438 180.238281 L 516.386719 184.542969 Z M 516.25 188.851563 "/>
<path style=" stroke:none;fill-rule:nonzero;fill:rgb(99.215686%,74.901961%,43.529412%);fill-opacity:0.501961;" d="M 516.25 188.851563 L 516.386719 184.542969 L 516.523438 180.238281 L 517.753906 141.460938 L 517.890625 137.15625 L 518.023438 132.847656 L 519.117188 98.378906 L 519.253906 94.074219 L 520.210938 63.914063 L 520.125 63.914063 L 519.992188 68.222656 L 519.855469 72.527344 L 519.324219 89.761719 L 519.1875 94.070313 L 518.65625 111.304688 L 518.519531 115.613281 L 518.253906 124.230469 L 518.121094 128.535156 L 517.855469 137.152344 L 517.71875 141.460938 L 517.1875 158.695313 L 517.050781 163.003906 L 516.519531 180.238281 L 516.382813 184.542969 Z M 516.25 188.851563 "/>
<path style=" stroke:none;fill-rule:nonzero;fill:rgb(100%,49.803922%,0%);fill-opacity:0.501961;" d="M 516.25 188.851563 L 516.382813 184.542969 L 516.519531 180.238281 L 517.050781 163.003906 L 517.1875 158.695313 L 517.71875 141.460938 L 517.855469 137.152344 L 518.121094 128.535156 L 518.253906 124.230469 L 518.519531 115.613281 L 518.65625 111.304688 L 519.1875 94.070313 L 519.324219 89.761719 L 519.855469 72.527344 L 519.992188 68.222656 L 520.125 63.914063 L 520.042969 63.910156 L 519.914063 68.21875 L 519.78125 72.527344 L 519.652344 76.835938 L 519.519531 81.144531 L 519.390625 85.453125 L 519.257813 89.761719 L 519.128906 94.070313 L 518.996094 98.378906 L 518.867188 102.683594 L 518.734375 106.992188 L 518.605469 111.300781 L 518.472656 115.609375 L 518.34375 119.917969 L 518.210938 124.226563 L 518.082031 128.535156 L 517.949219 132.84375 L 517.691406 141.460938 L 517.558594 145.769531 L 517.429688 150.078125 L 517.296875 154.386719 L 517.167969 158.695313 L 517.035156 163.003906 L 516.90625 167.3125 L 516.773438 171.621094 L 516.644531 175.929688 L 516.511719 180.238281 L 516.382813 184.542969 Z M 516.25 188.851563 "/>
<path style=" stroke:none;fill-rule:nonzero;fill:rgb(50.196078%,50.196078%,50.196078%);fill-opacity:0.501961;" d="M 516.25 188.851563 L 516.382813 184.542969 L 516.511719 180.238281 L 516.644531 175.929688 L 516.773438 171.621094 L 516.90625 167.3125 L 517.035156 163.003906 L 517.167969 158.695313 L 517.296875 154.386719 L 517.429688 150.078125 L 517.558594 145.769531 L 517.691406 141.460938 L 517.949219 132.84375 L 518.082031 128.535156 L 518.210938 124.226563 L 518.34375 119.917969 L 518.472656 115.609375 L 518.605469 111.300781 L 518.734375 106.992188 L 518.867188 102.683594 L 518.996094 98.378906 L 519.128906 94.070313 L 519.257813 89.761719 L 519.390625 85.453125 L 519.519531 81.144531 L 519.652344 76.835938 L 519.78125 72.527344 L 519.914063 68.21875 L 520.042969 63.910156 L 518.046875 63.867188 L 517.921875 72.484375 L 517.859375 76.796875 L 517.796875 81.105469 L 517.738281 85.414063 L 517.675781 89.726563 L 517.550781 98.34375 L 517.488281 102.65625 L 517.363281 111.273438 L 517.304688 115.585938 L 517.179688 124.203125 L 517.117188 128.515625 L 516.992188 137.132813 L 516.933594 141.445313 L 516.808594 150.0625 L 516.746094 154.375 L 516.621094 162.992188 L 516.558594 167.304688 L 516.5 171.613281 L 516.4375 175.921875 L 516.375 180.234375 Z M 516.25 188.851563 "/>
<path style=" stroke:none;fill-rule:nonzero;fill:rgb(79.215686%,69.803922%,83.921569%);fill-opacity:0.501961;" d="M 516.25 188.851563 L 516.375 180.234375 L 516.4375 175.921875 L 516.5 171.613281 L 516.558594 167.304688 L 516.621094 162.992188 L 516.746094 154.375 L 516.808594 150.0625 L 516.933594 141.445313 L 516.992188 137.132813 L 517.117188 128.515625 L 517.179688 124.203125 L 517.304688 115.585938 L 517.363281 111.273438 L 517.488281 102.65625 L 517.550781 98.34375 L 517.675781 89.726563 L 517.738281 85.414063 L 517.796875 81.105469 L 517.859375 76.796875 L 517.921875 72.484375 L 518.046875 63.867188 L 517.410156 63.859375 L 517.332031 72.476563 L 517.292969 76.789063 L 517.25 81.097656 L 517.210938 85.410156 L 517.132813 94.027344 L 517.089844 98.339844 L 517.050781 102.648438 L 517.011719 106.960938 L 516.972656 111.269531 L 516.929688 115.578125 L 516.890625 119.890625 L 516.851563 124.199219 L 516.8125 128.511719 L 516.769531 132.820313 L 516.730469 137.132813 L 516.652344 145.75 L 516.609375 150.0625 L 516.570313 154.371094 L 516.53125 158.683594 L 516.492188 162.992188 L 516.449219 167.300781 L 516.410156 171.613281 L 516.371094 175.921875 L 516.332031 180.234375 L 516.289063 184.542969 Z M 516.25 188.851563 "/>
<path style=" stroke:none;fill-rule:nonzero;fill:rgb(41.568627%,23.921569%,60.392157%);fill-opacity:0.501961;" d="M 516.25 188.851563 L 516.289063 184.542969 L 516.332031 180.234375 L 516.371094 175.921875 L 516.410156 171.613281 L 516.449219 167.300781 L 516.492188 162.992188 L 516.53125 158.683594 L 516.570313 154.371094 L 516.609375 150.0625 L 516.652344 145.75 L 516.730469 137.132813 L 516.769531 132.820313 L 516.8125 128.511719 L 516.851563 124.199219 L 516.890625 119.890625 L 516.929688 115.578125 L 516.972656 111.269531 L 517.011719 106.960938 L 517.050781 102.648438 L 517.089844 98.339844 L 517.132813 94.027344 L 517.210938 85.410156 L 517.25 81.097656 L 517.292969 76.789063 L 517.332031 72.476563 L 517.410156 63.859375 L 516.25 63.851563 Z M 516.25 188.851563 "/>
<g style="fill:rgb(0%,0%,0%);fill-opacity:1;">
  <use xlink:href="#glyph0-1" x="678.171875" y="86.371094"/>
  <use xlink:href="#glyph0-2" x="681.228027" y="86.371094"/>
  <use xlink:href="#glyph0-3" x="686.728027" y="86.371094"/>
  <use xlink:href="#glyph0-4" x="692.845703" y="86.371094"/>
</g>
<path style=" stroke:none;fill-rule:nonzero;fill:rgb(65.098039%,80.784314%,89.019608%);fill-opacity:0.501961;" d="M 678.878906 109.578125 L 694.742188 109.578125 L 694.742188 93.714844 L 678.878906 93.714844 Z M 678.878906 109.578125 "/>
<path style=" stroke:none;fill-rule:nonzero;fill:rgb(12.156863%,47.058824%,70.588235%);fill-opacity:0.501961;" d="M 678.878906 126.859375 L 694.742188 126.859375 L 694.742188 110.996094 L 678.878906 110.996094 Z M 678.878906 126.859375 "/>
<path style=" stroke:none;fill-rule:nonzero;fill:rgb(69.803922%,87.45098%,54.117647%);fill-opacity:0.501961;" d="M 678.878906 144.136719 L 694.742188 144.136719 L 694.742188 128.273438 L 678.878906 128.273438 Z M 678.878906 144.136719 "/>
<path style=" stroke:none;fill-rule:nonzero;fill:rgb(55.294118%,82.745098%,78.039216%);fill-opacity:0.501961;" d="M 678.878906 161.417969 L 694.742188 161.417969 L 694.742188 145.554688 L 678.878906 145.554688 Z M 678.878906 161.417969 "/>
<path style=" stroke:none;fill-rule:nonzero;fill:rgb(20%,62.745098%,17.254902%);fill-opacity:0.501961;" d="M 678.878906 178.699219 L 694.742188 178.699219 L 694.742188 162.835938 L 678.878906 162.835938 Z M 678.878906 178.699219 "/>
<path style=" stroke:none;fill-rule:nonzero;fill:rgb(98.431373%,60.392157%,60%);fill-opacity:0.501961;" d="M 678.878906 195.980469 L 694.742188 195.980469 L 694.742188 180.117188 L 678.878906 180.117188 Z M 678.878906 195.980469 "/>
<path style=" stroke:none;fill-rule:nonzero;fill:rgb(89.019608%,10.196078%,10.980392%);fill-opacity:0.501961;" d="M 678.878906 213.257813 L 694.742188 213.257813 L 694.742188 197.394531 L 678.878906 197.394531 Z M 678.878906 213.257813 "/>
<path style=" stroke:none;fill-rule:nonzero;fill:rgb(99.215686%,74.901961%,43.529412%);fill-opacity:0.501961;" d="M 678.878906 230.539063 L 694.742188 230.539063 L 694.742188 214.675781 L 678.878906 214.675781 Z M 678.878906 230.539063 "/>
<path style=" stroke:none;fill-rule:nonzero;fill:rgb(100%,49.803922%,0%);fill-opacity:0.501961;" d="M 678.878906 247.820313 L 694.742188 247.820313 L 694.742188 231.957031 L 678.878906 231.957031 Z M 678.878906 247.820313 "/>
<path style=" stroke:none;fill-rule:nonzero;fill:rgb(50.196078%,50.196078%,50.196078%);fill-opacity:0.501961;" d="M 678.878906 265.097656 L 694.742188 265.097656 L 694.742188 249.234375 L 678.878906 249.234375 Z M 678.878906 265.097656 "/>
<path style=" stroke:none;fill-rule:nonzero;fill:rgb(79.215686%,69.803922%,83.921569%);fill-opacity:0.501961;" d="M 678.878906 282.378906 L 694.742188 282.378906 L 694.742188 266.515625 L 678.878906 266.515625 Z M 678.878906 282.378906 "/>
<path style=" stroke:none;fill-rule:nonzero;fill:rgb(41.568627%,23.921569%,60.392157%);fill-opacity:0.501961;" d="M 678.878906 299.660156 L 694.742188 299.660156 L 694.742188 283.796875 L 678.878906 283.796875 Z M 678.878906 299.660156 "/>
<g style="fill:rgb(0%,0%,0%);fill-opacity:1;">
  <use xlink:href="#glyph1-1" x="700.929688" y="104.796875"/>
  <use xlink:href="#glyph1-2" x="707.284766" y="104.796875"/>
  <use xlink:href="#glyph1-3" x="713.154297" y="104.796875"/>
</g>
<g style="fill:rgb(0%,0%,0%);fill-opacity:1;">
  <use xlink:href="#glyph1-1" x="700.929688" y="122.078125"/>
  <use xlink:href="#glyph1-4" x="707.284766" y="122.078125"/>
</g>
<g style="fill:rgb(0%,0%,0%);fill-opacity:1;">
  <use xlink:href="#glyph1-1" x="700.929688" y="139.355469"/>
  <use xlink:href="#glyph1-5" x="707.284766" y="139.355469"/>
  <use xlink:href="#glyph1-6" x="712.178906" y="139.355469"/>
</g>
<g style="fill:rgb(0%,0%,0%);fill-opacity:1;">
  <use xlink:href="#glyph1-7" x="700.929688" y="156.636719"/>
  <use xlink:href="#glyph1-2" x="707.284766" y="156.636719"/>
  <use xlink:href="#glyph1-8" x="713.154297" y="156.636719"/>
</g>
<g style="fill:rgb(0%,0%,0%);fill-opacity:1;">
  <use xlink:href="#glyph1-9" x="700.929688" y="173.917969"/>
  <use xlink:href="#glyph1-2" x="706.305078" y="173.917969"/>
</g>
<g style="fill:rgb(0%,0%,0%);fill-opacity:1;">
  <use xlink:href="#glyph1-10" x="700.929688" y="191.195313"/>
  <use xlink:href="#glyph1-1" x="706.799219" y="191.195313"/>
</g>
<g style="fill:rgb(0%,0%,0%);fill-opacity:1;">
  <use xlink:href="#glyph1-10" x="700.929688" y="208.476563"/>
  <use xlink:href="#glyph1-4" x="706.799219" y="208.476563"/>
</g>
<g style="fill:rgb(0%,0%,0%);fill-opacity:1;">
  <use xlink:href="#glyph1-10" x="700.929688" y="225.757813"/>
  <use xlink:href="#glyph1-8" x="706.799219" y="225.757813"/>
</g>
<g style="fill:rgb(0%,0%,0%);fill-opacity:1;">
  <use xlink:href="#glyph1-10" x="700.929688" y="243.035156"/>
  <use xlink:href="#glyph1-11" x="706.799219" y="243.035156"/>
</g>
<g style="fill:rgb(0%,0%,0%);fill-opacity:1;">
  <use xlink:href="#glyph1-10" x="700.929688" y="260.316406"/>
  <use xlink:href="#glyph1-12" x="706.799219" y="260.316406"/>
</g>
<g style="fill:rgb(0%,0%,0%);fill-opacity:1;">
  <use xlink:href="#glyph1-12" x="700.929688" y="277.597656"/>
  <use xlink:href="#glyph1-13" x="706.799219" y="277.597656"/>
</g>
<g style="fill:rgb(0%,0%,0%);fill-opacity:1;">
  <use xlink:href="#glyph1-14" x="700.929688" y="294.875"/>
  <use xlink:href="#glyph1-2" x="706.305078" y="294.875"/>
  <use xlink:href="#glyph1-8" x="712.174609" y="294.875"/>
</g>
<g style="fill:rgb(0%,0%,0%);fill-opacity:1;">
  <use xlink:href="#glyph2-1" x="360" y="29.824219"/>
  <use xlink:href="#glyph2-2" x="368.804297" y="29.824219"/>
  <use xlink:href="#glyph2-3" x="376.145508" y="29.824219"/>
  <use xlink:href="#glyph2-4" x="387.141211" y="29.824219"/>
  <use xlink:href="#glyph2-5" x="394.482422" y="29.824219"/>
  <use xlink:href="#glyph2-6" x="397.415039" y="29.824219"/>
  <use xlink:href="#glyph2-7" x="404.75625" y="29.824219"/>
  <use xlink:href="#glyph2-8" x="412.819336" y="29.824219"/>
  <use xlink:href="#glyph2-4" x="419.419336" y="29.824219"/>
  <use xlink:href="#glyph2-6" x="426.760547" y="29.824219"/>
  <use xlink:href="#glyph2-9" x="434.101758" y="29.824219"/>
  <use xlink:href="#glyph2-10" x="441.442969" y="29.824219"/>
  <use xlink:href="#glyph2-5" x="451.710352" y="29.824219"/>
  <use xlink:href="#glyph2-11" x="454.642969" y="29.824219"/>
  <use xlink:href="#glyph2-2" x="457.575586" y="29.824219"/>
  <use xlink:href="#glyph2-9" x="464.916797" y="29.824219"/>
  <use xlink:href="#glyph2-1" x="472.258008" y="29.824219"/>
  <use xlink:href="#glyph2-5" x="481.062305" y="29.824219"/>
  <use xlink:href="#glyph2-6" x="483.994922" y="29.824219"/>
  <use xlink:href="#glyph2-6" x="491.336133" y="29.824219"/>
  <use xlink:href="#glyph2-4" x="498.677344" y="29.824219"/>
  <use xlink:href="#glyph2-12" x="506.018555" y="29.824219"/>
  <use xlink:href="#glyph2-13" x="515.551172" y="29.824219"/>
  <use xlink:href="#glyph2-14" x="522.892383" y="29.824219"/>
  <use xlink:href="#glyph2-15" x="530.233594" y="29.824219"/>
  <use xlink:href="#glyph2-11" x="537.574805" y="29.824219"/>
  <use xlink:href="#glyph2-16" x="540.507422" y="29.824219"/>
  <use xlink:href="#glyph2-11" x="544.174805" y="29.824219"/>
  <use xlink:href="#glyph2-13" x="547.107422" y="29.824219"/>
  <use xlink:href="#glyph2-14" x="554.448633" y="29.824219"/>
  <use xlink:href="#glyph2-9" x="561.789844" y="29.824219"/>
  <use xlink:href="#glyph2-21" x="569.131055" y="29.824219"/>
  <use xlink:href="#glyph2-2" x="581.589844" y="29.824219"/>
  <use xlink:href="#glyph2-22" x="588.931055" y="29.824219"/>
  <use xlink:href="#glyph2-11" x="595.531055" y="29.824219"/>
  <use xlink:href="#glyph2-14" x="598.463672" y="29.824219"/>
  <use xlink:href="#glyph2-23" x="605.804883" y="29.824219"/>
  <use xlink:href="#glyph2-24" x="613.146094" y="29.824219"/>
  <use xlink:href="#glyph2-4" x="620.487305" y="29.824219"/>
  <use xlink:href="#glyph2-9" x="627.828516" y="29.824219"/>
  <use xlink:href="#glyph2-1" x="635.169727" y="29.824219"/>
  <use xlink:href="#glyph2-6" x="643.974023" y="29.824219"/>
  <use xlink:href="#glyph2-20" x="651.315234" y="29.824219"/>
  <use xlink:href="#glyph2-9" x="657.915234" y="29.824219"/>
  <use xlink:href="#glyph2-3" x="665.256445" y="29.824219"/>
  <use xlink:href="#glyph2-2" x="676.252148" y="29.824219"/>
  <use xlink:href="#glyph2-5" x="683.593359" y="29.824219"/>
  <use xlink:href="#glyph2-6" x="686.525977" y="29.824219"/>
</g>
</g>
</svg>
