<?xml version="1.0" encoding="UTF-8"?>
<svg xmlns="http://www.w3.org/2000/svg" xmlns:xlink="http://www.w3.org/1999/xlink" width="720pt" height="360pt" viewBox="0 0 720 360" version="1.1">
<defs>
<g>
<symbol overflow="visible" id="glyph0-0">
<path style="stroke:none;" d="M 1.375 0 L 1.375 -6.875 L 6.875 -6.875 L 6.875 0 Z M 1.546875 -0.171875 L 6.703125 -0.171875 L 6.703125 -6.703125 L 1.546875 -6.703125 Z M 1.546875 -0.171875 "/>
</symbol>
<symbol overflow="visible" id="glyph0-1">
<path style="stroke:none;" d="M 0.804688 0 L 0.804688 -7.875 L 1.847656 -7.875 L 1.847656 -0.929688 L 5.726563 -0.929688 L 5.726563 0 Z M 0.804688 0 "/>
</symbol>
<symbol overflow="visible" id="glyph0-2">
<path style="stroke:none;" d="M 0.730469 -6.761719 L 0.730469 -7.875 L 1.695313 -7.875 L 1.695313 -6.761719 Z M 0.730469 0 L 0.730469 -5.703125 L 1.695313 -5.703125 L 1.695313 0 Z M 0.730469 0 "/>
</symbol>
<symbol overflow="visible" id="glyph0-3">
<path style="stroke:none;" d="M 0.726563 2.1875 L 0.726563 -5.703125 L 1.605469 -5.703125 L 1.605469 -4.960938 C 1.8125 -5.25 2.046875 -5.46875 2.308594 -5.613281 C 2.570313 -5.757813 2.886719 -5.828125 3.261719 -5.832031 C 3.746094 -5.828125 4.175781 -5.703125 4.550781 -5.457031 C 4.921875 -5.203125 5.203125 -4.851563 5.390625 -4.394531 C 5.578125 -3.9375 5.671875 -3.4375 5.675781 -2.894531 C 5.671875 -2.308594 5.566406 -1.78125 5.359375 -1.316406 C 5.148438 -0.847656 4.84375 -0.488281 4.449219 -0.242188 C 4.046875 0.0078125 3.628906 0.128906 3.191406 0.128906 C 2.867188 0.128906 2.578125 0.0625 2.320313 -0.0742188 C 2.0625 -0.210938 1.851563 -0.382813 1.691406 -0.589844 L 1.691406 2.1875 Z M 1.601563 -2.820313 C 1.597656 -2.082031 1.746094 -1.539063 2.046875 -1.191406 C 2.339844 -0.835938 2.699219 -0.660156 3.125 -0.664063 C 3.550781 -0.660156 3.917969 -0.84375 4.226563 -1.210938 C 4.53125 -1.574219 4.6875 -2.136719 4.6875 -2.898438 C 4.6875 -3.625 4.535156 -4.167969 4.238281 -4.53125 C 3.9375 -4.890625 3.582031 -5.074219 3.167969 -5.074219 C 2.753906 -5.074219 2.390625 -4.878906 2.074219 -4.496094 C 1.757813 -4.109375 1.597656 -3.550781 1.601563 -2.820313 Z M 1.601563 -2.820313 "/>
</symbol>
<symbol overflow="visible" id="glyph0-4">
<path style="stroke:none;" d="M 4.425781 0 L 4.425781 -0.71875 C 4.058594 -0.152344 3.527344 0.128906 2.832031 0.128906 C 2.371094 0.128906 1.953125 0.00390625 1.574219 -0.246094 C 1.191406 -0.496094 0.894531 -0.84375 0.6875 -1.296875 C 0.476563 -1.742188 0.375 -2.261719 0.375 -2.847656 C 0.375 -3.414063 0.46875 -3.929688 0.660156 -4.394531 C 0.847656 -4.859375 1.132813 -5.214844 1.515625 -5.460938 C 1.894531 -5.707031 2.320313 -5.828125 2.789063 -5.832031 C 3.132813 -5.828125 3.4375 -5.757813 3.707031 -5.613281 C 3.972656 -5.46875 4.191406 -5.277344 4.359375 -5.046875 L 4.359375 -7.875 L 5.324219 -7.875 L 5.324219 0 Z M 1.371094 -2.847656 C 1.371094 -2.113281 1.523438 -1.566406 1.832031 -1.207031 C 2.136719 -0.84375 2.5 -0.660156 2.921875 -0.664063 C 3.339844 -0.660156 3.699219 -0.835938 3.996094 -1.183594 C 4.292969 -1.527344 4.441406 -2.054688 4.441406 -2.765625 C 4.441406 -3.546875 4.289063 -4.117188 3.988281 -4.484375 C 3.6875 -4.84375 3.316406 -5.027344 2.878906 -5.03125 C 2.445313 -5.027344 2.085938 -4.851563 1.800781 -4.503906 C 1.511719 -4.152344 1.371094 -3.601563 1.371094 -2.847656 Z M 1.371094 -2.847656 "/>
</symbol>
<symbol overflow="visible" id="glyph0-5">
<path style="stroke:none;" d=""/>
</symbol>
<symbol overflow="visible" id="glyph0-6">
<path style="stroke:none;" d="M 4.445313 -2.089844 L 5.398438 -1.964844 C 5.289063 -1.308594 5.023438 -0.796875 4.597656 -0.425781 C 4.167969 -0.0546875 3.644531 0.128906 3.023438 0.128906 C 2.242188 0.128906 1.613281 -0.125 1.140625 -0.636719 C 0.664063 -1.144531 0.425781 -1.875 0.429688 -2.832031 C 0.425781 -3.441406 0.527344 -3.980469 0.734375 -4.445313 C 0.9375 -4.90625 1.25 -5.253906 1.667969 -5.484375 C 2.082031 -5.714844 2.535156 -5.828125 3.03125 -5.832031 C 3.644531 -5.828125 4.152344 -5.671875 4.546875 -5.363281 C 4.941406 -5.046875 5.191406 -4.601563 5.304688 -4.027344 L 4.367188 -3.882813 C 4.273438 -4.261719 4.117188 -4.550781 3.890625 -4.746094 C 3.664063 -4.941406 3.386719 -5.039063 3.066406 -5.039063 C 2.574219 -5.039063 2.179688 -4.863281 1.878906 -4.515625 C 1.570313 -4.164063 1.417969 -3.613281 1.421875 -2.859375 C 1.417969 -2.089844 1.566406 -1.53125 1.863281 -1.183594 C 2.15625 -0.835938 2.539063 -0.660156 3.011719 -0.664063 C 3.390625 -0.660156 3.707031 -0.777344 3.960938 -1.011719 C 4.214844 -1.242188 4.375 -1.601563 4.445313 -2.089844 Z M 4.445313 -2.089844 "/>
</symbol>
<symbol overflow="visible" id="glyph0-7">
<path style="stroke:none;" d="M 0.703125 0 L 0.703125 -7.875 L 1.671875 -7.875 L 1.671875 0 Z M 0.703125 0 "/>
</symbol>
<symbol overflow="visible" id="glyph0-8">
<path style="stroke:none;" d="M 4.445313 -0.703125 C 4.085938 -0.398438 3.742188 -0.183594 3.414063 -0.0585938 C 3.082031 0.0664063 2.726563 0.128906 2.347656 0.128906 C 1.71875 0.128906 1.238281 -0.0234375 0.902344 -0.328125 C 0.566406 -0.632813 0.398438 -1.023438 0.398438 -1.503906 C 0.398438 -1.78125 0.460938 -2.035156 0.585938 -2.269531 C 0.710938 -2.496094 0.875 -2.683594 1.085938 -2.824219 C 1.289063 -2.964844 1.523438 -3.070313 1.78125 -3.140625 C 1.96875 -3.191406 2.253906 -3.238281 2.640625 -3.289063 C 3.417969 -3.375 3.992188 -3.488281 4.367188 -3.621094 C 4.367188 -3.753906 4.371094 -3.835938 4.371094 -3.871094 C 4.371094 -4.265625 4.277344 -4.542969 4.097656 -4.703125 C 3.847656 -4.917969 3.480469 -5.027344 2.996094 -5.03125 C 2.539063 -5.027344 2.203125 -4.949219 1.988281 -4.792969 C 1.769531 -4.632813 1.609375 -4.351563 1.507813 -3.949219 L 0.5625 -4.078125 C 0.648438 -4.480469 0.789063 -4.804688 0.988281 -5.054688 C 1.183594 -5.300781 1.46875 -5.492188 1.84375 -5.628906 C 2.214844 -5.761719 2.644531 -5.828125 3.136719 -5.832031 C 3.621094 -5.828125 4.019531 -5.773438 4.324219 -5.660156 C 4.628906 -5.542969 4.851563 -5.398438 4.996094 -5.226563 C 5.136719 -5.054688 5.238281 -4.835938 5.296875 -4.570313 C 5.328125 -4.40625 5.34375 -4.109375 5.34375 -3.679688 L 5.34375 -2.390625 C 5.34375 -1.492188 5.363281 -0.921875 5.40625 -0.683594 C 5.445313 -0.445313 5.527344 -0.21875 5.648438 0 L 4.640625 0 C 4.539063 -0.199219 4.472656 -0.433594 4.445313 -0.703125 Z M 4.367188 -2.863281 C 4.011719 -2.71875 3.488281 -2.597656 2.789063 -2.496094 C 2.390625 -2.4375 2.105469 -2.371094 1.941406 -2.300781 C 1.773438 -2.226563 1.648438 -2.121094 1.5625 -1.988281 C 1.472656 -1.847656 1.429688 -1.695313 1.429688 -1.53125 C 1.429688 -1.269531 1.527344 -1.054688 1.722656 -0.886719 C 1.917969 -0.710938 2.203125 -0.625 2.578125 -0.628906 C 2.949219 -0.625 3.277344 -0.707031 3.570313 -0.871094 C 3.859375 -1.03125 4.074219 -1.253906 4.210938 -1.542969 C 4.3125 -1.753906 4.363281 -2.078125 4.367188 -2.507813 Z M 4.367188 -2.863281 "/>
</symbol>
<symbol overflow="visible" id="glyph0-9">
<path style="stroke:none;" d="M 0.339844 -1.703125 L 1.292969 -1.851563 C 1.34375 -1.46875 1.492188 -1.171875 1.742188 -0.96875 C 1.984375 -0.761719 2.328125 -0.660156 2.773438 -0.664063 C 3.210938 -0.660156 3.539063 -0.75 3.757813 -0.933594 C 3.96875 -1.113281 4.078125 -1.328125 4.082031 -1.574219 C 4.078125 -1.789063 3.984375 -1.960938 3.796875 -2.089844 C 3.664063 -2.171875 3.332031 -2.28125 2.808594 -2.417969 C 2.097656 -2.59375 1.605469 -2.75 1.332031 -2.882813 C 1.054688 -3.011719 0.847656 -3.191406 0.710938 -3.421875 C 0.566406 -3.652344 0.496094 -3.90625 0.5 -4.1875 C 0.496094 -4.441406 0.554688 -4.675781 0.671875 -4.894531 C 0.785156 -5.105469 0.945313 -5.289063 1.148438 -5.4375 C 1.296875 -5.546875 1.5 -5.636719 1.761719 -5.714844 C 2.019531 -5.789063 2.300781 -5.828125 2.601563 -5.832031 C 3.046875 -5.828125 3.4375 -5.765625 3.777344 -5.636719 C 4.113281 -5.507813 4.363281 -5.332031 4.527344 -5.113281 C 4.6875 -4.890625 4.796875 -4.597656 4.859375 -4.234375 L 3.914063 -4.101563 C 3.871094 -4.394531 3.746094 -4.621094 3.542969 -4.789063 C 3.335938 -4.953125 3.042969 -5.039063 2.667969 -5.039063 C 2.222656 -5.039063 1.90625 -4.964844 1.71875 -4.816406 C 1.523438 -4.667969 1.429688 -4.496094 1.433594 -4.300781 C 1.429688 -4.175781 1.46875 -4.0625 1.550781 -3.964844 C 1.628906 -3.859375 1.753906 -3.773438 1.921875 -3.707031 C 2.015625 -3.667969 2.300781 -3.585938 2.777344 -3.460938 C 3.460938 -3.273438 3.9375 -3.121094 4.207031 -3.007813 C 4.476563 -2.890625 4.6875 -2.722656 4.84375 -2.503906 C 4.996094 -2.277344 5.074219 -2.003906 5.074219 -1.675781 C 5.074219 -1.351563 4.980469 -1.046875 4.792969 -0.765625 C 4.605469 -0.480469 4.332031 -0.261719 3.980469 -0.105469 C 3.621094 0.0507813 3.222656 0.128906 2.777344 0.128906 C 2.035156 0.128906 1.46875 -0.0234375 1.082031 -0.332031 C 0.691406 -0.640625 0.445313 -1.097656 0.339844 -1.703125 Z M 0.339844 -1.703125 "/>
</symbol>
<symbol overflow="visible" id="glyph1-0">
<path style="stroke:none;" d="M 1.101563 0 L 1.101563 -5.5 L 5.5 -5.5 L 5.5 0 Z M 1.238281 -0.136719 L 5.363281 -0.136719 L 5.363281 -5.363281 L 1.238281 -5.363281 Z M 1.238281 -0.136719 "/>
</symbol>
<symbol overflow="visible" id="glyph1-1">
<path style="stroke:none;" d="M 5.171875 -2.207031 L 6.007813 -2 C 5.828125 -1.3125 5.515625 -0.789063 5.0625 -0.429688 C 4.609375 -0.0703125 4.054688 0.105469 3.398438 0.109375 C 2.71875 0.105469 2.164063 -0.03125 1.742188 -0.304688 C 1.3125 -0.582031 0.988281 -0.980469 0.769531 -1.507813 C 0.542969 -2.027344 0.433594 -2.589844 0.4375 -3.195313 C 0.433594 -3.847656 0.558594 -4.421875 0.8125 -4.910156 C 1.0625 -5.398438 1.417969 -5.769531 1.882813 -6.023438 C 2.34375 -6.277344 2.855469 -6.402344 3.410156 -6.40625 C 4.039063 -6.402344 4.566406 -6.242188 5 -5.925781 C 5.425781 -5.601563 5.726563 -5.152344 5.898438 -4.570313 L 5.078125 -4.378906 C 4.929688 -4.832031 4.71875 -5.167969 4.441406 -5.378906 C 4.164063 -5.589844 3.8125 -5.695313 3.394531 -5.695313 C 2.90625 -5.695313 2.503906 -5.578125 2.179688 -5.34375 C 1.851563 -5.109375 1.621094 -4.796875 1.492188 -4.410156 C 1.359375 -4.015625 1.292969 -3.613281 1.296875 -3.203125 C 1.292969 -2.664063 1.371094 -2.195313 1.53125 -1.796875 C 1.683594 -1.394531 1.925781 -1.097656 2.257813 -0.902344 C 2.585938 -0.703125 2.945313 -0.601563 3.332031 -0.605469 C 3.796875 -0.601563 4.191406 -0.738281 4.515625 -1.007813 C 4.835938 -1.277344 5.054688 -1.675781 5.171875 -2.207031 Z M 5.171875 -2.207031 "/>
</symbol>
<symbol overflow="visible" id="glyph1-2">
<path style="stroke:none;" d="M -0.0117188 0 L 2.40625 -6.300781 L 3.304688 -6.300781 L 5.882813 0 L 4.933594 0 L 4.199219 -1.90625 L 1.5625 -1.90625 L 0.871094 0 Z M 1.804688 -2.585938 L 3.941406 -2.585938 L 3.28125 -4.332031 C 3.078125 -4.855469 2.929688 -5.292969 2.835938 -5.636719 C 2.753906 -5.230469 2.640625 -4.828125 2.496094 -4.433594 Z M 1.804688 -2.585938 "/>
</symbol>
<symbol overflow="visible" id="glyph1-3">
<path style="stroke:none;" d="M 0.691406 0 L 0.691406 -6.300781 L 3.484375 -6.300781 C 4.042969 -6.296875 4.46875 -6.242188 4.765625 -6.128906 C 5.054688 -6.015625 5.289063 -5.816406 5.464844 -5.53125 C 5.636719 -5.242188 5.722656 -4.925781 5.726563 -4.582031 C 5.722656 -4.132813 5.578125 -3.753906 5.292969 -3.449219 C 5 -3.140625 4.554688 -2.945313 3.953125 -2.867188 C 4.171875 -2.757813 4.339844 -2.652344 4.457031 -2.550781 C 4.695313 -2.324219 4.925781 -2.046875 5.148438 -1.714844 L 6.242188 0 L 5.195313 0 L 4.359375 -1.3125 C 4.117188 -1.6875 3.914063 -1.976563 3.757813 -2.179688 C 3.597656 -2.378906 3.457031 -2.515625 3.335938 -2.597656 C 3.207031 -2.675781 3.082031 -2.734375 2.957031 -2.765625 C 2.859375 -2.785156 2.703125 -2.792969 2.492188 -2.796875 L 1.527344 -2.796875 L 1.527344 0 Z M 1.527344 -3.519531 L 3.316406 -3.519531 C 3.699219 -3.515625 3.996094 -3.554688 4.210938 -3.636719 C 4.421875 -3.710938 4.585938 -3.835938 4.699219 -4.011719 C 4.808594 -4.183594 4.863281 -4.375 4.867188 -4.582031 C 4.863281 -4.878906 4.753906 -5.121094 4.542969 -5.3125 C 4.324219 -5.503906 3.984375 -5.601563 3.519531 -5.601563 L 1.527344 -5.601563 Z M 1.527344 -3.519531 "/>
</symbol>
<symbol overflow="visible" id="glyph1-4">
<path style="stroke:none;" d="M 0.695313 0 L 0.695313 -6.300781 L 5.25 -6.300781 L 5.25 -5.554688 L 1.53125 -5.554688 L 1.53125 -3.625 L 5.015625 -3.625 L 5.015625 -2.886719 L 1.53125 -2.886719 L 1.53125 -0.742188 L 5.398438 -0.742188 L 5.398438 0 Z M 0.695313 0 "/>
</symbol>
<symbol overflow="visible" id="glyph1-5">
<path style="stroke:none;" d="M 3.703125 -1.46875 L 4.503906 -1.371094 C 4.375 -0.902344 4.140625 -0.539063 3.800781 -0.285156 C 3.460938 -0.0273438 3.027344 0.0976563 2.496094 0.101563 C 1.828125 0.0976563 1.296875 -0.101563 0.90625 -0.511719 C 0.511719 -0.917969 0.316406 -1.496094 0.320313 -2.242188 C 0.316406 -3.007813 0.515625 -3.605469 0.914063 -4.03125 C 1.308594 -4.453125 1.820313 -4.664063 2.453125 -4.667969 C 3.058594 -4.664063 3.554688 -4.457031 3.945313 -4.042969 C 4.328125 -3.628906 4.523438 -3.042969 4.527344 -2.289063 C 4.523438 -2.242188 4.523438 -2.175781 4.523438 -2.085938 L 1.121094 -2.085938 C 1.144531 -1.582031 1.289063 -1.195313 1.546875 -0.929688 C 1.800781 -0.660156 2.117188 -0.527344 2.5 -0.53125 C 2.78125 -0.527344 3.023438 -0.601563 3.226563 -0.753906 C 3.425781 -0.902344 3.585938 -1.140625 3.703125 -1.46875 Z M 1.164063 -2.71875 L 3.710938 -2.71875 C 3.671875 -3.101563 3.578125 -3.386719 3.421875 -3.582031 C 3.171875 -3.878906 2.851563 -4.03125 2.460938 -4.03125 C 2.105469 -4.03125 1.804688 -3.910156 1.566406 -3.671875 C 1.320313 -3.433594 1.1875 -3.117188 1.164063 -2.71875 Z M 1.164063 -2.71875 "/>
</symbol>
<symbol overflow="visible" id="glyph1-6">
<path style="stroke:none;" d="M 0.570313 0 L 0.570313 -4.5625 L 1.265625 -4.5625 L 1.265625 -3.871094 C 1.445313 -4.191406 1.609375 -4.40625 1.757813 -4.511719 C 1.90625 -4.613281 2.070313 -4.664063 2.257813 -4.667969 C 2.515625 -4.664063 2.78125 -4.582031 3.050781 -4.417969 L 2.785156 -3.699219 C 2.589844 -3.808594 2.402344 -3.867188 2.21875 -3.867188 C 2.046875 -3.867188 1.894531 -3.816406 1.761719 -3.714844 C 1.625 -3.613281 1.527344 -3.472656 1.472656 -3.292969 C 1.382813 -3.015625 1.339844 -2.714844 1.34375 -2.390625 L 1.34375 0 Z M 0.570313 0 "/>
</symbol>
<symbol overflow="visible" id="glyph1-7">
<path style="stroke:none;" d="M 0.679688 0 L 0.679688 -6.300781 L 2.847656 -6.300781 C 3.335938 -6.296875 3.707031 -6.269531 3.96875 -6.210938 C 4.328125 -6.125 4.636719 -5.972656 4.894531 -5.757813 C 5.222656 -5.472656 5.472656 -5.113281 5.636719 -4.679688 C 5.800781 -4.242188 5.882813 -3.742188 5.886719 -3.183594 C 5.882813 -2.699219 5.828125 -2.277344 5.71875 -1.910156 C 5.605469 -1.542969 5.460938 -1.238281 5.289063 -0.996094 C 5.113281 -0.753906 4.921875 -0.5625 4.714844 -0.421875 C 4.507813 -0.28125 4.257813 -0.175781 3.964844 -0.105469 C 3.667969 -0.0351563 3.332031 0 2.953125 0 Z M 1.511719 -0.742188 L 2.859375 -0.742188 C 3.273438 -0.738281 3.597656 -0.777344 3.832031 -0.859375 C 4.066406 -0.933594 4.253906 -1.042969 4.398438 -1.1875 C 4.59375 -1.382813 4.746094 -1.648438 4.859375 -1.984375 C 4.96875 -2.316406 5.027344 -2.71875 5.027344 -3.195313 C 5.027344 -3.851563 4.917969 -4.359375 4.703125 -4.714844 C 4.484375 -5.066406 4.222656 -5.304688 3.914063 -5.425781 C 3.6875 -5.511719 3.328125 -5.554688 2.835938 -5.554688 L 1.511719 -5.554688 Z M 1.511719 -0.742188 "/>
</symbol>
<symbol overflow="visible" id="glyph1-8">
<path style="stroke:none;" d="M 3.625 -2.46875 L 3.625 -3.210938 L 6.296875 -3.214844 L 6.296875 -0.875 C 5.882813 -0.546875 5.460938 -0.300781 5.027344 -0.136719 C 4.589844 0.0273438 4.140625 0.105469 3.6875 0.109375 C 3.0625 0.105469 2.5 -0.0234375 2 -0.289063 C 1.492188 -0.550781 1.113281 -0.933594 0.855469 -1.4375 C 0.597656 -1.9375 0.46875 -2.5 0.46875 -3.121094 C 0.46875 -3.730469 0.59375 -4.300781 0.851563 -4.835938 C 1.105469 -5.363281 1.476563 -5.757813 1.957031 -6.019531 C 2.4375 -6.273438 2.992188 -6.402344 3.621094 -6.40625 C 4.074219 -6.402344 4.484375 -6.328125 4.855469 -6.183594 C 5.222656 -6.035156 5.511719 -5.832031 5.722656 -5.566406 C 5.929688 -5.300781 6.089844 -4.957031 6.199219 -4.539063 L 5.449219 -4.332031 C 5.351563 -4.648438 5.230469 -4.902344 5.09375 -5.085938 C 4.953125 -5.269531 4.753906 -5.414063 4.492188 -5.527344 C 4.230469 -5.636719 3.941406 -5.695313 3.625 -5.695313 C 3.242188 -5.695313 2.914063 -5.636719 2.636719 -5.519531 C 2.359375 -5.402344 2.132813 -5.246094 1.964844 -5.058594 C 1.792969 -4.867188 1.664063 -4.660156 1.570313 -4.4375 C 1.40625 -4.046875 1.324219 -3.625 1.328125 -3.171875 C 1.324219 -2.605469 1.421875 -2.136719 1.617188 -1.761719 C 1.808594 -1.382813 2.089844 -1.101563 2.460938 -0.917969 C 2.828125 -0.734375 3.21875 -0.644531 3.640625 -0.644531 C 3.996094 -0.644531 4.347656 -0.710938 4.695313 -0.851563 C 5.035156 -0.988281 5.296875 -1.136719 5.476563 -1.296875 L 5.476563 -2.46875 Z M 3.625 -2.46875 "/>
</symbol>
<symbol overflow="visible" id="glyph1-9">
<path style="stroke:none;" d="M 0.722656 0 L 0.722656 -6.300781 L 4.972656 -6.300781 L 4.972656 -5.554688 L 1.554688 -5.554688 L 1.554688 -3.605469 L 4.511719 -3.605469 L 4.511719 -2.863281 L 1.554688 -2.863281 L 1.554688 0 Z M 0.722656 0 "/>
</symbol>
<symbol overflow="visible" id="glyph1-10">
<path style="stroke:none;" d="M 0.679688 0 L 0.679688 -6.300781 L 3.054688 -6.300781 C 3.46875 -6.296875 3.789063 -6.277344 4.011719 -6.238281 C 4.320313 -6.183594 4.578125 -6.085938 4.789063 -5.941406 C 4.996094 -5.796875 5.167969 -5.59375 5.296875 -5.335938 C 5.421875 -5.074219 5.484375 -4.789063 5.488281 -4.476563 C 5.484375 -3.941406 5.3125 -3.488281 4.976563 -3.117188 C 4.632813 -2.746094 4.019531 -2.558594 3.128906 -2.5625 L 1.511719 -2.5625 L 1.511719 0 Z M 1.511719 -3.304688 L 3.140625 -3.304688 C 3.679688 -3.304688 4.0625 -3.402344 4.289063 -3.605469 C 4.515625 -3.800781 4.628906 -4.085938 4.628906 -4.453125 C 4.628906 -4.714844 4.558594 -4.9375 4.425781 -5.128906 C 4.289063 -5.3125 4.117188 -5.4375 3.902344 -5.5 C 3.761719 -5.535156 3.5 -5.554688 3.125 -5.554688 L 1.511719 -5.554688 Z M 1.511719 -3.304688 "/>
</symbol>
<symbol overflow="visible" id="glyph1-11">
<path style="stroke:none;" d="M 0.820313 0 L 0.820313 -6.300781 L 1.65625 -6.300781 L 1.65625 0 Z M 0.820313 0 "/>
</symbol>
<symbol overflow="visible" id="glyph1-12">
<path style="stroke:none;" d="M 0.394531 -2.023438 L 1.179688 -2.09375 C 1.214844 -1.773438 1.304688 -1.515625 1.441406 -1.316406 C 1.574219 -1.113281 1.785156 -0.949219 2.074219 -0.828125 C 2.359375 -0.699219 2.679688 -0.636719 3.042969 -0.640625 C 3.355469 -0.636719 3.636719 -0.683594 3.882813 -0.78125 C 4.125 -0.875 4.304688 -1.007813 4.425781 -1.171875 C 4.542969 -1.335938 4.605469 -1.515625 4.605469 -1.710938 C 4.605469 -1.90625 4.546875 -2.078125 4.433594 -2.226563 C 4.316406 -2.375 4.128906 -2.5 3.867188 -2.601563 C 3.695313 -2.664063 3.320313 -2.765625 2.746094 -2.90625 C 2.164063 -3.046875 1.757813 -3.175781 1.53125 -3.300781 C 1.226563 -3.453125 1.003906 -3.648438 0.855469 -3.886719 C 0.707031 -4.117188 0.632813 -4.378906 0.636719 -4.671875 C 0.632813 -4.984375 0.722656 -5.28125 0.90625 -5.5625 C 1.082031 -5.835938 1.34375 -6.046875 1.695313 -6.191406 C 2.039063 -6.332031 2.425781 -6.402344 2.851563 -6.40625 C 3.316406 -6.402344 3.730469 -6.328125 4.089844 -6.179688 C 4.445313 -6.027344 4.71875 -5.804688 4.910156 -5.515625 C 5.101563 -5.21875 5.203125 -4.890625 5.21875 -4.523438 L 4.421875 -4.464844 C 4.375 -4.863281 4.230469 -5.164063 3.984375 -5.367188 C 3.734375 -5.570313 3.367188 -5.671875 2.886719 -5.671875 C 2.382813 -5.671875 2.015625 -5.578125 1.785156 -5.394531 C 1.554688 -5.207031 1.441406 -4.984375 1.441406 -4.726563 C 1.441406 -4.496094 1.519531 -4.308594 1.683594 -4.167969 C 1.839844 -4.019531 2.261719 -3.871094 2.941406 -3.71875 C 3.617188 -3.5625 4.082031 -3.429688 4.335938 -3.316406 C 4.703125 -3.144531 4.972656 -2.929688 5.148438 -2.671875 C 5.320313 -2.414063 5.40625 -2.113281 5.410156 -1.777344 C 5.40625 -1.441406 5.3125 -1.128906 5.121094 -0.832031 C 4.929688 -0.535156 4.652344 -0.300781 4.292969 -0.136719 C 3.929688 0.0273438 3.527344 0.105469 3.082031 0.109375 C 2.511719 0.105469 2.03125 0.0234375 1.648438 -0.140625 C 1.257813 -0.304688 0.957031 -0.554688 0.742188 -0.890625 C 0.519531 -1.222656 0.402344 -1.597656 0.394531 -2.023438 Z M 0.394531 -2.023438 "/>
</symbol>
<symbol overflow="visible" id="glyph1-13">
<path style="stroke:none;" d="M 0.652344 0 L 0.652344 -6.300781 L 1.90625 -6.300781 L 3.398438 -1.839844 C 3.535156 -1.421875 3.632813 -1.109375 3.699219 -0.90625 C 3.769531 -1.132813 3.882813 -1.46875 4.035156 -1.917969 L 5.542969 -6.300781 L 6.664063 -6.300781 L 6.664063 0 L 5.859375 0 L 5.859375 -5.273438 L 4.03125 0 L 3.277344 0 L 1.457031 -5.363281 L 1.457031 0 Z M 0.652344 0 "/>
</symbol>
<symbol overflow="visible" id="glyph1-14">
<path style="stroke:none;" d="M 2.28125 0 L 2.28125 -5.554688 L 0.207031 -5.554688 L 0.207031 -6.300781 L 5.199219 -6.300781 L 5.199219 -5.554688 L 3.117188 -5.554688 L 3.117188 0 Z M 2.28125 0 "/>
</symbol>
<symbol overflow="visible" id="glyph2-0">
<path style="stroke:none;" d="M 1.648438 0 L 1.648438 -8.25 L 8.25 -8.25 L 8.25 0 Z M 1.855469 -0.207031 L 8.042969 -0.207031 L 8.042969 -8.042969 L 1.855469 -8.042969 Z M 1.855469 -0.207031 "/>
</symbol>
<symbol overflow="visible" id="glyph2-1">
<path style="stroke:none;" d="M 0.59375 -3.035156 L 1.773438 -3.140625 C 1.824219 -2.664063 1.953125 -2.273438 2.160156 -1.972656 C 2.363281 -1.667969 2.679688 -1.421875 3.113281 -1.238281 C 3.539063 -1.050781 4.023438 -0.960938 4.5625 -0.960938 C 5.035156 -0.960938 5.457031 -1.03125 5.824219 -1.171875 C 6.191406 -1.3125 6.460938 -1.503906 6.640625 -1.753906 C 6.816406 -1.996094 6.90625 -2.269531 6.910156 -2.566406 C 6.90625 -2.863281 6.820313 -3.121094 6.652344 -3.339844 C 6.476563 -3.558594 6.195313 -3.742188 5.800781 -3.898438 C 5.546875 -3.992188 4.984375 -4.148438 4.117188 -4.359375 C 3.246094 -4.566406 2.636719 -4.761719 2.292969 -4.949219 C 1.839844 -5.183594 1.503906 -5.476563 1.285156 -5.828125 C 1.058594 -6.175781 0.949219 -6.570313 0.953125 -7.007813 C 0.949219 -7.484375 1.085938 -7.929688 1.359375 -8.34375 C 1.628906 -8.757813 2.023438 -9.070313 2.542969 -9.285156 C 3.0625 -9.5 3.640625 -9.609375 4.28125 -9.609375 C 4.980469 -9.609375 5.597656 -9.496094 6.132813 -9.269531 C 6.664063 -9.042969 7.074219 -8.710938 7.363281 -8.273438 C 7.648438 -7.835938 7.804688 -7.339844 7.832031 -6.785156 L 6.632813 -6.695313 C 6.566406 -7.292969 6.347656 -7.746094 5.976563 -8.050781 C 5.605469 -8.355469 5.054688 -8.507813 4.332031 -8.507813 C 3.570313 -8.507813 3.019531 -8.367188 2.675781 -8.089844 C 2.328125 -7.8125 2.15625 -7.480469 2.160156 -7.089844 C 2.15625 -6.75 2.277344 -6.46875 2.527344 -6.25 C 2.761719 -6.027344 3.390625 -5.804688 4.410156 -5.578125 C 5.425781 -5.347656 6.125 -5.144531 6.503906 -4.976563 C 7.050781 -4.71875 7.453125 -4.398438 7.71875 -4.011719 C 7.976563 -3.621094 8.109375 -3.171875 8.113281 -2.667969 C 8.109375 -2.160156 7.964844 -1.6875 7.679688 -1.246094 C 7.390625 -0.796875 6.976563 -0.449219 6.441406 -0.207031 C 5.898438 0.0390625 5.292969 0.15625 4.621094 0.160156 C 3.765625 0.15625 3.050781 0.0351563 2.472656 -0.210938 C 1.894531 -0.460938 1.4375 -0.835938 1.109375 -1.335938 C 0.777344 -1.835938 0.605469 -2.402344 0.59375 -3.035156 Z M 0.59375 -3.035156 "/>
</symbol>
<symbol overflow="visible" id="glyph2-2">
<path style="stroke:none;" d="M 5.335938 -0.84375 C 4.902344 -0.476563 4.488281 -0.21875 4.09375 -0.0703125 C 3.695313 0.078125 3.269531 0.152344 2.816406 0.15625 C 2.0625 0.152344 1.484375 -0.0273438 1.082031 -0.394531 C 0.675781 -0.761719 0.472656 -1.234375 0.476563 -1.804688 C 0.472656 -2.140625 0.550781 -2.445313 0.703125 -2.722656 C 0.855469 -3 1.054688 -3.222656 1.304688 -3.390625 C 1.550781 -3.554688 1.828125 -3.679688 2.140625 -3.769531 C 2.363281 -3.824219 2.707031 -3.882813 3.171875 -3.945313 C 4.105469 -4.054688 4.796875 -4.1875 5.238281 -4.34375 C 5.242188 -4.5 5.242188 -4.601563 5.246094 -4.648438 C 5.242188 -5.117188 5.132813 -5.449219 4.917969 -5.644531 C 4.617188 -5.902344 4.179688 -6.035156 3.597656 -6.039063 C 3.050781 -6.035156 2.644531 -5.9375 2.386719 -5.75 C 2.125 -5.554688 1.933594 -5.21875 1.8125 -4.738281 L 0.675781 -4.890625 C 0.777344 -5.375 0.949219 -5.765625 1.183594 -6.066406 C 1.417969 -6.363281 1.757813 -6.59375 2.210938 -6.757813 C 2.65625 -6.914063 3.175781 -6.996094 3.765625 -7 C 4.347656 -6.996094 4.820313 -6.925781 5.1875 -6.792969 C 5.546875 -6.652344 5.816406 -6.480469 5.992188 -6.273438 C 6.160156 -6.0625 6.28125 -5.800781 6.355469 -5.484375 C 6.390625 -5.285156 6.410156 -4.925781 6.414063 -4.414063 L 6.414063 -2.867188 C 6.410156 -1.785156 6.433594 -1.105469 6.488281 -0.820313 C 6.535156 -0.535156 6.632813 -0.261719 6.78125 0 L 5.570313 0 C 5.445313 -0.238281 5.367188 -0.519531 5.335938 -0.84375 Z M 5.238281 -3.433594 C 4.816406 -3.261719 4.183594 -3.113281 3.34375 -2.996094 C 2.863281 -2.925781 2.527344 -2.851563 2.332031 -2.765625 C 2.132813 -2.679688 1.980469 -2.550781 1.875 -2.386719 C 1.765625 -2.21875 1.710938 -2.035156 1.714844 -1.835938 C 1.710938 -1.523438 1.828125 -1.265625 2.066406 -1.0625 C 2.296875 -0.851563 2.640625 -0.75 3.09375 -0.753906 C 3.539063 -0.75 3.933594 -0.847656 4.285156 -1.046875 C 4.628906 -1.238281 4.886719 -1.507813 5.054688 -1.851563 C 5.175781 -2.109375 5.238281 -2.496094 5.238281 -3.011719 Z M 5.238281 -3.433594 "/>
</symbol>
<symbol overflow="visible" id="glyph2-3">
<path style="stroke:none;" d="M 0.871094 0 L 0.871094 -6.84375 L 1.90625 -6.84375 L 1.90625 -5.882813 C 2.117188 -6.21875 2.40625 -6.488281 2.765625 -6.691406 C 3.121094 -6.894531 3.527344 -6.996094 3.984375 -7 C 4.488281 -6.996094 4.902344 -6.890625 5.230469 -6.683594 C 5.554688 -6.46875 5.785156 -6.175781 5.917969 -5.800781 C 6.457031 -6.597656 7.160156 -6.996094 8.03125 -7 C 8.707031 -6.996094 9.230469 -6.808594 9.597656 -6.433594 C 9.960938 -6.058594 10.140625 -5.480469 10.144531 -4.699219 L 10.144531 0 L 8.992188 0 L 8.992188 -4.3125 C 8.988281 -4.773438 8.949219 -5.105469 8.878906 -5.3125 C 8.800781 -5.515625 8.664063 -5.679688 8.46875 -5.804688 C 8.265625 -5.925781 8.035156 -5.988281 7.773438 -5.992188 C 7.289063 -5.988281 6.890625 -5.828125 6.574219 -5.511719 C 6.253906 -5.191406 6.09375 -4.679688 6.097656 -3.976563 L 6.097656 0 L 4.9375 0 L 4.9375 -4.445313 C 4.933594 -4.957031 4.839844 -5.34375 4.652344 -5.605469 C 4.464844 -5.859375 4.15625 -5.988281 3.726563 -5.992188 C 3.398438 -5.988281 3.09375 -5.902344 2.816406 -5.734375 C 2.539063 -5.558594 2.339844 -5.308594 2.214844 -4.980469 C 2.089844 -4.648438 2.027344 -4.171875 2.03125 -3.550781 L 2.03125 0 Z M 0.871094 0 "/>
</symbol>
<symbol overflow="visible" id="glyph2-4">
<path style="stroke:none;" d="M 0.871094 2.625 L 0.871094 -6.84375 L 1.925781 -6.84375 L 1.925781 -5.957031 C 2.171875 -6.300781 2.453125 -6.5625 2.769531 -6.738281 C 3.082031 -6.910156 3.464844 -6.996094 3.914063 -7 C 4.496094 -6.996094 5.007813 -6.84375 5.457031 -6.546875 C 5.902344 -6.242188 6.242188 -5.820313 6.46875 -5.273438 C 6.695313 -4.726563 6.808594 -4.125 6.8125 -3.472656 C 6.808594 -2.769531 6.683594 -2.140625 6.433594 -1.582031 C 6.183594 -1.019531 5.816406 -0.589844 5.339844 -0.292969 C 4.855469 0.00390625 4.351563 0.152344 3.828125 0.15625 C 3.4375 0.152344 3.09375 0.0742188 2.789063 -0.0898438 C 2.480469 -0.25 2.226563 -0.457031 2.03125 -0.710938 L 2.03125 2.625 Z M 1.921875 -3.382813 C 1.921875 -2.5 2.097656 -1.851563 2.457031 -1.429688 C 2.808594 -1.007813 3.242188 -0.796875 3.75 -0.800781 C 4.265625 -0.796875 4.707031 -1.015625 5.074219 -1.453125 C 5.441406 -1.890625 5.625 -2.566406 5.625 -3.480469 C 5.625 -4.351563 5.445313 -5.003906 5.085938 -5.4375 C 4.726563 -5.871094 4.296875 -6.085938 3.804688 -6.089844 C 3.304688 -6.085938 2.867188 -5.855469 2.492188 -5.394531 C 2.109375 -4.929688 1.921875 -4.257813 1.921875 -3.382813 Z M 1.921875 -3.382813 "/>
</symbol>
<symbol overflow="visible" id="glyph2-5">
<path style="stroke:none;" d="M 0.84375 0 L 0.84375 -9.449219 L 2.003906 -9.449219 L 2.003906 0 Z M 0.84375 0 "/>
</symbol>
<symbol overflow="visible" id="glyph2-6">
<path style="stroke:none;" d="M 5.554688 -2.203125 L 6.753906 -2.054688 C 6.5625 -1.351563 6.210938 -0.808594 5.703125 -0.421875 C 5.1875 -0.0390625 4.535156 0.152344 3.746094 0.15625 C 2.738281 0.152344 1.945313 -0.152344 1.363281 -0.769531 C 0.773438 -1.382813 0.480469 -2.25 0.484375 -3.363281 C 0.480469 -4.515625 0.777344 -5.410156 1.371094 -6.046875 C 1.964844 -6.679688 2.734375 -6.996094 3.679688 -7 C 4.59375 -6.996094 5.339844 -6.683594 5.921875 -6.0625 C 6.5 -5.4375 6.789063 -4.5625 6.792969 -3.433594 C 6.789063 -3.363281 6.789063 -3.257813 6.785156 -3.125 L 1.683594 -3.125 C 1.722656 -2.371094 1.9375 -1.796875 2.320313 -1.398438 C 2.703125 -0.996094 3.179688 -0.796875 3.75 -0.800781 C 4.175781 -0.796875 4.539063 -0.90625 4.839844 -1.132813 C 5.140625 -1.351563 5.378906 -1.710938 5.554688 -2.203125 Z M 1.746094 -4.078125 L 5.570313 -4.078125 C 5.515625 -4.65625 5.367188 -5.085938 5.128906 -5.375 C 4.757813 -5.820313 4.28125 -6.046875 3.691406 -6.046875 C 3.160156 -6.046875 2.710938 -5.867188 2.347656 -5.511719 C 1.984375 -5.152344 1.785156 -4.675781 1.746094 -4.078125 Z M 1.746094 -4.078125 "/>
</symbol>
<symbol overflow="visible" id="glyph2-7">
<path style="stroke:none;" d="M -0.199219 2.625 L -0.199219 1.785156 L 7.488281 1.785156 L 7.488281 2.625 Z M -0.199219 2.625 "/>
</symbol>
<symbol overflow="visible" id="glyph2-8">
<path style="stroke:none;" d="M 3.421875 0 L 3.421875 -8.332031 L 0.308594 -8.332031 L 0.308594 -9.449219 L 7.796875 -9.449219 L 7.796875 -8.332031 L 4.671875 -8.332031 L 4.671875 0 Z M 3.421875 0 "/>
</symbol>
<symbol overflow="visible" id="glyph2-9">
<path style="stroke:none;" d="M 0.820313 2.636719 L 0.691406 1.546875 C 0.941406 1.613281 1.160156 1.644531 1.351563 1.648438 C 1.609375 1.644531 1.816406 1.601563 1.972656 1.519531 C 2.125 1.429688 2.25 1.3125 2.351563 1.160156 C 2.421875 1.042969 2.542969 0.753906 2.707031 0.296875 C 2.726563 0.230469 2.757813 0.136719 2.808594 0.0117188 L 0.210938 -6.84375 L 1.464844 -6.84375 L 2.886719 -2.882813 C 3.070313 -2.375 3.234375 -1.84375 3.382813 -1.296875 C 3.511719 -1.824219 3.671875 -2.34375 3.859375 -2.855469 L 5.324219 -6.84375 L 6.484375 -6.84375 L 3.878906 0.117188 C 3.597656 0.867188 3.378906 1.382813 3.230469 1.667969 C 3.019531 2.046875 2.785156 2.328125 2.519531 2.507813 C 2.253906 2.6875 1.933594 2.777344 1.566406 2.777344 C 1.339844 2.777344 1.09375 2.730469 0.820313 2.636719 Z M 0.820313 2.636719 "/>
</symbol>
<symbol overflow="visible" id="glyph2-10">
<path style="stroke:none;" d="M 1.003906 0 L 1.003906 -9.449219 L 2.289063 -9.449219 L 7.25 -2.03125 L 7.25 -9.449219 L 8.449219 -9.449219 L 8.449219 0 L 7.167969 0 L 2.203125 -7.425781 L 2.203125 0 Z M 1.003906 0 "/>
</symbol>
<symbol overflow="visible" id="glyph2-11">
<path style="stroke:none;" d="M 5.355469 0 L 5.355469 -1.003906 C 4.824219 -0.230469 4.097656 0.152344 3.183594 0.15625 C 2.777344 0.152344 2.402344 0.078125 2.050781 -0.0742188 C 1.699219 -0.226563 1.4375 -0.421875 1.273438 -0.660156 C 1.101563 -0.890625 0.984375 -1.175781 0.914063 -1.519531 C 0.867188 -1.746094 0.84375 -2.109375 0.84375 -2.605469 L 0.84375 -6.84375 L 2.003906 -6.84375 L 2.003906 -3.046875 C 2.003906 -2.441406 2.027344 -2.03125 2.074219 -1.824219 C 2.144531 -1.515625 2.296875 -1.277344 2.539063 -1.105469 C 2.773438 -0.929688 3.066406 -0.84375 3.414063 -0.84375 C 3.761719 -0.84375 4.089844 -0.929688 4.394531 -1.109375 C 4.699219 -1.285156 4.914063 -1.53125 5.042969 -1.839844 C 5.167969 -2.144531 5.230469 -2.589844 5.234375 -3.175781 L 5.234375 -6.84375 L 6.394531 -6.84375 L 6.394531 0 Z M 5.355469 0 "/>
</symbol>
<symbol overflow="visible" id="glyph2-12">
<path style="stroke:none;" d="M 0.855469 0 L 0.855469 -6.84375 L 1.902344 -6.84375 L 1.902344 -5.808594 C 2.164063 -6.289063 2.410156 -6.609375 2.636719 -6.765625 C 2.863281 -6.917969 3.109375 -6.996094 3.382813 -7 C 3.769531 -6.996094 4.167969 -6.871094 4.578125 -6.625 L 4.175781 -5.550781 C 3.890625 -5.714844 3.605469 -5.800781 3.324219 -5.800781 C 3.066406 -5.800781 2.839844 -5.722656 2.640625 -5.570313 C 2.4375 -5.417969 2.292969 -5.207031 2.210938 -4.9375 C 2.078125 -4.523438 2.015625 -4.070313 2.015625 -3.582031 L 2.015625 0 Z M 0.855469 0 "/>
</symbol>
<symbol overflow="visible" id="glyph2-13">
<path style="stroke:none;" d="M 0.4375 -3.421875 C 0.433594 -4.6875 0.785156 -5.625 1.496094 -6.238281 C 2.082031 -6.742188 2.800781 -6.996094 3.648438 -7 C 4.585938 -6.996094 5.355469 -6.6875 5.953125 -6.074219 C 6.550781 -5.453125 6.847656 -4.601563 6.851563 -3.519531 C 6.847656 -2.636719 6.714844 -1.945313 6.453125 -1.441406 C 6.1875 -0.933594 5.804688 -0.539063 5.300781 -0.261719 C 4.792969 0.015625 4.242188 0.152344 3.648438 0.15625 C 2.6875 0.152344 1.914063 -0.152344 1.324219 -0.765625 C 0.730469 -1.378906 0.433594 -2.265625 0.4375 -3.421875 Z M 1.628906 -3.421875 C 1.628906 -2.546875 1.820313 -1.890625 2.203125 -1.453125 C 2.585938 -1.015625 3.066406 -0.796875 3.648438 -0.800781 C 4.222656 -0.796875 4.703125 -1.015625 5.085938 -1.457031 C 5.46875 -1.890625 5.660156 -2.558594 5.660156 -3.460938 C 5.660156 -4.304688 5.464844 -4.945313 5.082031 -5.382813 C 4.691406 -5.816406 4.214844 -6.035156 3.648438 -6.039063 C 3.066406 -6.035156 2.585938 -5.816406 2.203125 -5.386719 C 1.820313 -4.949219 1.628906 -4.296875 1.628906 -3.421875 Z M 1.628906 -3.421875 "/>
</symbol>
<symbol overflow="visible" id="glyph2-14">
<path style="stroke:none;" d="M 0.871094 0 L 0.871094 -6.84375 L 1.914063 -6.84375 L 1.914063 -5.871094 C 2.414063 -6.621094 3.140625 -6.996094 4.09375 -7 C 4.503906 -6.996094 4.882813 -6.921875 5.230469 -6.777344 C 5.574219 -6.625 5.832031 -6.429688 6.007813 -6.191406 C 6.175781 -5.949219 6.296875 -5.664063 6.367188 -5.335938 C 6.410156 -5.121094 6.433594 -4.746094 6.433594 -4.207031 L 6.433594 0 L 5.273438 0 L 5.273438 -4.164063 C 5.273438 -4.632813 5.226563 -4.984375 5.136719 -5.222656 C 5.042969 -5.453125 4.882813 -5.640625 4.65625 -5.78125 C 4.425781 -5.917969 4.15625 -5.988281 3.847656 -5.992188 C 3.351563 -5.988281 2.925781 -5.832031 2.566406 -5.523438 C 2.207031 -5.207031 2.027344 -4.613281 2.03125 -3.738281 L 2.03125 0 Z M 0.871094 0 "/>
</symbol>
<symbol overflow="visible" id="glyph2-15">
<path style="stroke:none;" d="M 7.761719 -3.3125 L 9.011719 -2.996094 C 8.746094 -1.964844 8.273438 -1.183594 7.59375 -0.648438 C 6.914063 -0.109375 6.082031 0.15625 5.097656 0.160156 C 4.078125 0.15625 3.25 -0.046875 2.613281 -0.460938 C 1.972656 -0.871094 1.484375 -1.472656 1.15625 -2.261719 C 0.820313 -3.046875 0.65625 -3.890625 0.65625 -4.796875 C 0.65625 -5.777344 0.84375 -6.632813 1.21875 -7.367188 C 1.59375 -8.097656 2.128906 -8.65625 2.824219 -9.039063 C 3.519531 -9.417969 4.28125 -9.609375 5.117188 -9.609375 C 6.058594 -9.609375 6.855469 -9.367188 7.5 -8.886719 C 8.144531 -8.40625 8.59375 -7.730469 8.847656 -6.859375 L 7.617188 -6.566406 C 7.398438 -7.25 7.078125 -7.75 6.664063 -8.066406 C 6.242188 -8.378906 5.71875 -8.535156 5.09375 -8.539063 C 4.363281 -8.535156 3.757813 -8.363281 3.269531 -8.015625 C 2.78125 -7.667969 2.4375 -7.199219 2.242188 -6.613281 C 2.042969 -6.023438 1.945313 -5.417969 1.945313 -4.800781 C 1.945313 -3.996094 2.0625 -3.296875 2.296875 -2.695313 C 2.53125 -2.09375 2.894531 -1.644531 3.390625 -1.351563 C 3.882813 -1.054688 4.417969 -0.90625 4.996094 -0.910156 C 5.695313 -0.90625 6.289063 -1.109375 6.773438 -1.515625 C 7.257813 -1.917969 7.585938 -2.515625 7.761719 -3.3125 Z M 7.761719 -3.3125 "/>
</symbol>
<symbol overflow="visible" id="glyph2-16">
<path style="stroke:none;" d="M 5.3125 0 L 5.3125 -0.863281 C 4.875 -0.183594 4.238281 0.152344 3.398438 0.15625 C 2.851563 0.152344 2.347656 0.00390625 1.890625 -0.292969 C 1.433594 -0.59375 1.078125 -1.011719 0.828125 -1.554688 C 0.574219 -2.09375 0.449219 -2.714844 0.453125 -3.414063 C 0.449219 -4.097656 0.5625 -4.71875 0.792969 -5.273438 C 1.015625 -5.828125 1.359375 -6.253906 1.816406 -6.554688 C 2.269531 -6.847656 2.777344 -6.996094 3.34375 -7 C 3.753906 -6.996094 4.121094 -6.910156 4.445313 -6.738281 C 4.765625 -6.5625 5.027344 -6.335938 5.234375 -6.058594 L 5.234375 -9.449219 L 6.386719 -9.449219 L 6.386719 0 Z M 1.644531 -3.414063 C 1.640625 -2.535156 1.824219 -1.878906 2.199219 -1.449219 C 2.566406 -1.011719 3.003906 -0.796875 3.507813 -0.800781 C 4.011719 -0.796875 4.441406 -1.003906 4.796875 -1.421875 C 5.152344 -1.832031 5.332031 -2.464844 5.332031 -3.320313 C 5.332031 -4.253906 5.148438 -4.941406 4.789063 -5.378906 C 4.421875 -5.816406 3.976563 -6.035156 3.453125 -6.039063 C 2.933594 -6.035156 2.503906 -5.824219 2.160156 -5.40625 C 1.8125 -4.984375 1.640625 -4.320313 1.644531 -3.414063 Z M 1.644531 -3.414063 "/>
</symbol>
<symbol overflow="visible" id="glyph2-17">
<path style="stroke:none;" d="M 0.875 -8.113281 L 0.875 -9.449219 L 2.035156 -9.449219 L 2.035156 -8.113281 Z M 0.875 0 L 0.875 -6.84375 L 2.035156 -6.84375 L 2.035156 0 Z M 0.875 0 "/>
</symbol>
<symbol overflow="visible" id="glyph2-18">
<path style="stroke:none;" d="M 3.402344 -1.039063 L 3.570313 -0.0117188 C 3.242188 0.0546875 2.953125 0.0859375 2.695313 0.0898438 C 2.273438 0.0859375 1.945313 0.0234375 1.714844 -0.109375 C 1.480469 -0.238281 1.316406 -0.414063 1.222656 -0.632813 C 1.125 -0.851563 1.078125 -1.308594 1.082031 -2.003906 L 1.082031 -5.941406 L 0.230469 -5.941406 L 0.230469 -6.84375 L 1.082031 -6.84375 L 1.082031 -8.539063 L 2.238281 -9.234375 L 2.238281 -6.84375 L 3.402344 -6.84375 L 3.402344 -5.941406 L 2.238281 -5.941406 L 2.238281 -1.941406 C 2.238281 -1.605469 2.257813 -1.394531 2.296875 -1.300781 C 2.335938 -1.207031 2.402344 -1.128906 2.496094 -1.074219 C 2.589844 -1.015625 2.722656 -0.988281 2.894531 -0.992188 C 3.019531 -0.988281 3.1875 -1.003906 3.402344 -1.039063 Z M 3.402344 -1.039063 "/>
</symbol>
<symbol overflow="visible" id="glyph2-19">
<path style="stroke:none;" d="M 5.441406 -3.707031 L 5.441406 -4.816406 L 9.441406 -4.820313 L 9.441406 -1.316406 C 8.824219 -0.820313 8.191406 -0.449219 7.539063 -0.207031 C 6.886719 0.0390625 6.21875 0.15625 5.53125 0.160156 C 4.601563 0.15625 3.757813 -0.0390625 3 -0.433594 C 2.242188 -0.832031 1.667969 -1.40625 1.28125 -2.160156 C 0.894531 -2.910156 0.703125 -3.75 0.703125 -4.679688 C 0.703125 -5.597656 0.894531 -6.457031 1.277344 -7.253906 C 1.660156 -8.050781 2.210938 -8.640625 2.9375 -9.027344 C 3.65625 -9.414063 4.488281 -9.609375 5.433594 -9.609375 C 6.113281 -9.609375 6.730469 -9.496094 7.285156 -9.277344 C 7.832031 -9.050781 8.265625 -8.742188 8.582031 -8.351563 C 8.894531 -7.953125 9.132813 -7.4375 9.300781 -6.804688 L 8.171875 -6.496094 C 8.027344 -6.976563 7.851563 -7.355469 7.644531 -7.628906 C 7.429688 -7.902344 7.128906 -8.121094 6.742188 -8.289063 C 6.347656 -8.453125 5.914063 -8.535156 5.441406 -8.539063 C 4.867188 -8.535156 4.371094 -8.449219 3.957031 -8.277344 C 3.535156 -8.101563 3.199219 -7.875 2.949219 -7.59375 C 2.691406 -7.308594 2.492188 -6.996094 2.351563 -6.65625 C 2.109375 -6.070313 1.992188 -5.4375 1.992188 -4.757813 C 1.992188 -3.914063 2.136719 -3.207031 2.425781 -2.640625 C 2.714844 -2.074219 3.136719 -1.652344 3.691406 -1.378906 C 4.246094 -1.101563 4.835938 -0.964844 5.460938 -0.96875 C 6 -0.964844 6.527344 -1.070313 7.042969 -1.28125 C 7.558594 -1.488281 7.949219 -1.710938 8.21875 -1.945313 L 8.21875 -3.707031 Z M 5.441406 -3.707031 "/>
</symbol>
<symbol overflow="visible" id="glyph2-20">
<path style="stroke:none;" d="M 0.65625 0.566406 L 1.785156 0.734375 C 1.828125 1.078125 1.960938 1.332031 2.179688 1.496094 C 2.464844 1.707031 2.855469 1.816406 3.359375 1.816406 C 3.890625 1.816406 4.304688 1.707031 4.601563 1.492188 C 4.890625 1.277344 5.089844 0.976563 5.195313 0.59375 C 5.253906 0.351563 5.28125 -0.140625 5.277344 -0.894531 C 4.769531 -0.296875 4.136719 0 3.382813 0 C 2.4375 0 1.710938 -0.335938 1.199219 -1.015625 C 0.679688 -1.691406 0.421875 -2.507813 0.425781 -3.460938 C 0.421875 -4.113281 0.539063 -4.714844 0.777344 -5.269531 C 1.011719 -5.816406 1.355469 -6.242188 1.804688 -6.546875 C 2.253906 -6.84375 2.78125 -6.996094 3.390625 -7 C 4.195313 -6.996094 4.859375 -6.667969 5.386719 -6.019531 L 5.386719 -6.84375 L 6.457031 -6.84375 L 6.457031 -0.929688 C 6.457031 0.136719 6.347656 0.890625 6.132813 1.335938 C 5.914063 1.78125 5.570313 2.132813 5.101563 2.390625 C 4.628906 2.648438 4.050781 2.777344 3.363281 2.777344 C 2.546875 2.777344 1.886719 2.59375 1.386719 2.226563 C 0.882813 1.859375 0.640625 1.304688 0.65625 0.566406 Z M 1.617188 -3.546875 C 1.617188 -2.644531 1.792969 -1.988281 2.152344 -1.578125 C 2.503906 -1.164063 2.953125 -0.960938 3.492188 -0.960938 C 4.023438 -0.960938 4.46875 -1.164063 4.832031 -1.574219 C 5.191406 -1.984375 5.371094 -2.628906 5.375 -3.507813 C 5.371094 -4.339844 5.1875 -4.96875 4.816406 -5.398438 C 4.445313 -5.820313 3.996094 -6.035156 3.472656 -6.039063 C 2.953125 -6.035156 2.515625 -5.824219 2.15625 -5.410156 C 1.796875 -4.988281 1.617188 -4.367188 1.617188 -3.546875 Z M 1.617188 -3.546875 "/>
</symbol>
<symbol overflow="visible" id="glyph2-21">
<path style="stroke:none;" d="M 0.40625 -2.042969 L 1.554688 -2.222656 C 1.613281 -1.761719 1.792969 -1.410156 2.089844 -1.167969 C 2.382813 -0.917969 2.792969 -0.796875 3.324219 -0.800781 C 3.855469 -0.796875 4.253906 -0.90625 4.511719 -1.125 C 4.769531 -1.339844 4.898438 -1.59375 4.898438 -1.886719 C 4.898438 -2.148438 4.785156 -2.355469 4.558594 -2.507813 C 4.398438 -2.609375 4 -2.738281 3.371094 -2.898438 C 2.515625 -3.113281 1.925781 -3.300781 1.601563 -3.457031 C 1.269531 -3.613281 1.019531 -3.828125 0.851563 -4.105469 C 0.679688 -4.382813 0.597656 -4.691406 0.597656 -5.027344 C 0.597656 -5.332031 0.667969 -5.613281 0.808594 -5.875 C 0.949219 -6.132813 1.136719 -6.347656 1.378906 -6.523438 C 1.554688 -6.652344 1.800781 -6.765625 2.117188 -6.859375 C 2.425781 -6.949219 2.761719 -6.996094 3.121094 -7 C 3.65625 -6.996094 4.128906 -6.917969 4.535156 -6.765625 C 4.941406 -6.609375 5.238281 -6.398438 5.433594 -6.136719 C 5.621094 -5.871094 5.753906 -5.519531 5.832031 -5.078125 L 4.699219 -4.925781 C 4.644531 -5.273438 4.492188 -5.546875 4.25 -5.75 C 4 -5.945313 3.652344 -6.046875 3.203125 -6.046875 C 2.667969 -6.046875 2.289063 -5.957031 2.0625 -5.78125 C 1.835938 -5.601563 1.722656 -5.394531 1.722656 -5.164063 C 1.722656 -5.007813 1.769531 -4.875 1.863281 -4.757813 C 1.957031 -4.632813 2.105469 -4.527344 2.308594 -4.445313 C 2.421875 -4.402344 2.761719 -4.304688 3.332031 -4.152344 C 4.148438 -3.929688 4.71875 -3.75 5.046875 -3.609375 C 5.367188 -3.46875 5.625 -3.265625 5.8125 -3.003906 C 5.996094 -2.734375 6.085938 -2.402344 6.089844 -2.011719 C 6.085938 -1.621094 5.972656 -1.257813 5.75 -0.917969 C 5.523438 -0.574219 5.199219 -0.308594 4.773438 -0.125 C 4.347656 0.0625 3.867188 0.152344 3.332031 0.15625 C 2.441406 0.152344 1.761719 -0.03125 1.296875 -0.398438 C 0.828125 -0.765625 0.53125 -1.3125 0.40625 -2.042969 Z M 0.40625 -2.042969 "/>
</symbol>
<symbol overflow="visible" id="glyph2-22">
<path style="stroke:none;" d="M 2.667969 0 L 0.160156 -9.449219 L 1.445313 -9.449219 L 2.882813 -3.253906 C 3.035156 -2.601563 3.167969 -1.957031 3.28125 -1.320313 C 3.519531 -2.328125 3.660156 -2.910156 3.707031 -3.066406 L 5.503906 -9.449219 L 7.011719 -9.449219 L 8.367188 -4.667969 C 8.703125 -3.476563 8.945313 -2.359375 9.101563 -1.320313 C 9.21875 -1.914063 9.375 -2.601563 9.570313 -3.378906 L 11.054688 -9.449219 L 12.3125 -9.449219 L 9.71875 0 L 8.515625 0 L 6.523438 -7.199219 C 6.351563 -7.796875 6.253906 -8.167969 6.226563 -8.308594 C 6.125 -7.871094 6.03125 -7.5 5.949219 -7.199219 L 3.945313 0 Z M 2.667969 0 "/>
</symbol>
<symbol overflow="visible" id="glyph2-23">
<path style="stroke:none;" d="M 0.875 0 L 0.875 -9.449219 L 2.035156 -9.449219 L 2.035156 -4.0625 L 4.78125 -6.84375 L 6.285156 -6.84375 L 3.667969 -4.304688 L 6.546875 0 L 5.117188 0 L 2.855469 -3.5 L 2.035156 -2.714844 L 2.035156 0 Z M 0.875 0 "/>
</symbol>
</g>
</defs>
<g id="surface111">
<rect x="0" y="0" width="720" height="360" style="fill:rgb(100%,100%,100%);fill-opacity:1;stroke:none;"/>
<path style=" stroke:none;fill-rule:nonzero;fill:rgb(65.098039%,80.784314%,89.019608%);fill-opacity:0.501961;" d="M 151.484375 188.851563 L 151.484375 67.664063 L 147.382813 67.734375 L 143.285156 67.941406 L 139.199219 68.289063 L 135.125 68.773438 L 131.070313 69.394531 L 127.039063 70.15625 L 123.035156 71.050781 L 119.0625 72.082031 L 115.128906 73.246094 L 111.238281 74.542969 L 112.625 78.484375 L 114.015625 82.425781 L 118.175781 94.25 L 119.566406 98.191406 L 120.953125 102.136719 L 122.339844 106.078125 L 123.730469 110.019531 L 126.503906 117.902344 L 127.894531 121.84375 L 132.054688 133.667969 L 133.445313 137.609375 L 136.21875 145.492188 L 137.609375 149.4375 L 141.769531 161.261719 L 143.160156 165.203125 L 145.933594 173.085938 L 147.324219 177.027344 Z M 151.484375 188.851563 "/>
<path style=" stroke:none;fill-rule:nonzero;fill:rgb(12.156863%,47.058824%,70.588235%);fill-opacity:0.501961;" d="M 151.484375 188.851563 L 147.324219 177.027344 L 145.933594 173.085938 L 143.160156 165.203125 L 141.769531 161.261719 L 137.609375 149.4375 L 136.21875 145.492188 L 133.445313 137.609375 L 132.054688 133.667969 L 127.894531 121.84375 L 126.503906 117.902344 L 123.730469 110.019531 L 122.339844 106.078125 L 120.953125 102.136719 L 119.566406 98.191406 L 118.175781 94.25 L 114.015625 82.425781 L 112.625 78.484375 L 111.238281 74.542969 L 108.652344 75.488281 L 110.128906 79.394531 L 114.558594 91.125 L 116.035156 95.03125 L 117.515625 98.941406 L 120.46875 106.761719 L 121.945313 110.667969 L 126.375 122.398438 L 127.851563 126.304688 L 129.332031 130.214844 L 132.285156 138.035156 L 133.761719 141.941406 L 138.191406 153.671875 L 139.667969 157.578125 L 141.148438 161.488281 L 144.101563 169.308594 L 145.578125 173.214844 L 150.007813 184.945313 Z M 151.484375 188.851563 "/>
<path style=" stroke:none;fill-rule:nonzero;fill:rgb(69.803922%,87.45098%,54.117647%);fill-opacity:0.501961;" d="M 151.484375 188.851563 L 150.007813 184.945313 L 145.578125 173.214844 L 144.101563 169.308594 L 141.148438 161.488281 L 139.667969 157.578125 L 138.191406 153.671875 L 133.761719 141.941406 L 132.285156 138.035156 L 129.332031 130.214844 L 127.851563 126.304688 L 126.375 122.398438 L 121.945313 110.667969 L 120.46875 106.761719 L 117.515625 98.941406 L 116.035156 95.03125 L 114.558594 91.125 L 110.128906 79.394531 L 108.652344 75.488281 L 108.394531 75.585938 L 109.878906 79.492188 L 111.363281 83.394531 L 112.851563 87.300781 L 114.335938 91.207031 L 115.824219 95.113281 L 118.792969 102.925781 L 120.28125 106.832031 L 121.765625 110.738281 L 123.253906 114.644531 L 124.738281 118.546875 L 126.226563 122.453125 L 129.195313 130.265625 L 130.683594 134.171875 L 132.167969 138.078125 L 133.65625 141.984375 L 136.625 149.796875 L 138.113281 153.699219 L 139.597656 157.605469 L 141.085938 161.511719 L 144.054688 169.324219 L 145.542969 173.230469 L 147.027344 177.136719 L 148.515625 181.042969 L 150 184.949219 Z M 151.484375 188.851563 "/>
<path style=" stroke:none;fill-rule:nonzero;fill:rgb(55.294118%,82.745098%,78.039216%);fill-opacity:0.501961;" d="M 151.484375 188.851563 L 150 184.949219 L 148.515625 181.042969 L 147.027344 177.136719 L 145.542969 173.230469 L 144.054688 169.324219 L 141.085938 161.511719 L 139.597656 157.605469 L 138.113281 153.699219 L 136.625 149.796875 L 133.65625 141.984375 L 132.167969 138.078125 L 130.683594 134.171875 L 129.195313 130.265625 L 126.226563 122.453125 L 124.738281 118.546875 L 123.253906 114.644531 L 121.765625 110.738281 L 120.28125 106.832031 L 118.792969 102.925781 L 115.824219 95.113281 L 114.335938 91.207031 L 112.851563 87.300781 L 111.363281 83.394531 L 109.878906 79.492188 L 108.394531 75.585938 L 103.414063 77.605469 L 98.53125 79.84375 L 100.359375 83.605469 L 102.183594 87.363281 L 104.011719 91.121094 L 105.835938 94.882813 L 107.664063 98.640625 L 111.3125 106.15625 L 113.140625 109.917969 L 114.964844 113.675781 L 116.792969 117.433594 L 118.617188 121.191406 L 120.445313 124.953125 L 122.269531 128.710938 L 124.097656 132.46875 L 125.921875 136.230469 L 127.75 139.988281 L 131.398438 147.503906 L 133.226563 151.265625 L 135.050781 155.023438 L 136.878906 158.78125 L 138.703125 162.539063 L 140.53125 166.300781 L 142.355469 170.058594 L 144.183594 173.816406 L 146.007813 177.578125 L 147.835938 181.335938 Z M 151.484375 188.851563 "/>
<path style=" stroke:none;fill-rule:nonzero;fill:rgb(20%,62.745098%,17.254902%);fill-opacity:0.501961;" d="M 151.484375 188.851563 L 147.835938 181.335938 L 146.007813 177.578125 L 144.183594 173.816406 L 142.355469 170.058594 L 140.53125 166.300781 L 138.703125 162.539063 L 136.878906 158.78125 L 135.050781 155.023438 L 133.226563 151.265625 L 131.398438 147.503906 L 127.75 139.988281 L 125.921875 136.230469 L 124.097656 132.46875 L 122.269531 128.710938 L 120.445313 124.953125 L 118.617188 121.191406 L 116.792969 117.433594 L 114.964844 113.675781 L 113.140625 109.917969 L 111.3125 106.15625 L 107.664063 98.640625 L 105.835938 94.882813 L 104.011719 91.121094 L 102.183594 87.363281 L 100.359375 83.605469 L 98.53125 79.84375 L 94.863281 81.703125 L 91.261719 83.6875 L 87.730469 85.789063 L 84.269531 88.011719 L 80.886719 90.351563 L 77.585938 92.800781 L 74.371094 95.363281 L 71.246094 98.035156 L 68.210938 100.808594 L 65.269531 103.683594 L 62.433594 106.65625 L 59.695313 109.726563 L 57.0625 112.886719 L 54.539063 116.132813 L 52.128906 119.460938 L 49.832031 122.871094 L 47.652344 126.359375 L 45.59375 129.917969 L 43.65625 133.542969 L 41.839844 137.234375 L 40.152344 140.980469 L 38.59375 144.785156 L 37.164063 148.640625 L 35.863281 152.542969 L 34.699219 156.484375 L 33.667969 160.464844 L 32.773438 164.480469 L 32.015625 168.519531 L 31.394531 172.585938 L 30.910156 176.667969 L 30.566406 180.765625 L 30.363281 184.871094 L 30.296875 188.984375 L 30.371094 193.09375 L 30.585938 197.199219 L 30.9375 201.296875 L 31.429688 205.378906 L 32.058594 209.441406 L 32.824219 213.480469 L 33.730469 217.492188 L 34.769531 221.46875 L 35.941406 225.410156 L 37.25 229.308594 L 38.6875 233.160156 L 40.253906 236.960938 L 41.953125 240.707031 L 43.773438 244.394531 L 45.71875 248.015625 L 47.789063 251.570313 L 49.972656 255.050781 L 52.277344 258.457031 L 54.695313 261.78125 L 57.226563 265.023438 L 59.863281 268.175781 L 62.609375 271.238281 L 65.453125 274.207031 L 68.398438 277.074219 L 71.4375 279.84375 L 74.570313 282.507813 L 77.792969 285.0625 L 81.097656 287.507813 L 84.488281 289.835938 L 87.949219 292.050781 L 91.488281 294.148438 L 95.09375 296.121094 L 98.765625 297.972656 L 102.496094 299.699219 L 106.285156 301.296875 L 110.125 302.765625 L 114.015625 304.101563 L 117.945313 305.308594 L 121.914063 306.378906 L 125.917969 307.3125 L 129.953125 308.113281 L 134.011719 308.773438 L 138.089844 309.300781 L 142.183594 309.683594 L 146.285156 309.929688 L 150.394531 310.039063 L 154.507813 310.003906 L 158.617188 309.832031 L 162.714844 309.519531 L 166.800781 309.070313 L 170.871094 308.480469 L 174.917969 307.753906 L 178.9375 306.890625 L 182.925781 305.890625 L 186.878906 304.757813 L 190.789063 303.492188 L 194.65625 302.09375 L 198.472656 300.5625 L 202.234375 298.902344 L 205.941406 297.121094 L 209.582031 295.210938 L 213.15625 293.179688 L 216.660156 291.027344 L 220.085938 288.757813 L 223.4375 286.371094 L 226.703125 283.875 L 229.882813 281.269531 L 232.972656 278.554688 L 235.96875 275.738281 L 238.867188 272.824219 L 241.667969 269.8125 L 244.359375 266.707031 L 246.949219 263.511719 L 249.425781 260.230469 L 251.792969 256.867188 L 254.039063 253.421875 L 256.171875 249.90625 L 258.183594 246.320313 L 260.070313 242.667969 L 261.832031 238.953125 L 263.46875 235.183594 L 264.976563 231.355469 L 266.355469 227.484375 L 267.597656 223.5625 L 268.707031 219.605469 L 269.683594 215.609375 L 270.523438 211.585938 L 271.226563 207.535156 L 271.792969 203.460938 L 272.21875 199.371094 L 272.503906 195.269531 L 272.652344 191.160156 L 272.660156 187.050781 L 272.53125 182.941406 L 272.261719 178.839844 L 271.851563 174.746094 L 271.304688 170.671875 L 270.617188 166.617188 L 269.796875 162.589844 L 268.835938 158.589844 L 267.742188 154.628906 L 266.515625 150.703125 L 265.152344 146.824219 L 263.664063 142.992188 L 262.042969 139.214844 L 260.292969 135.492188 L 258.421875 131.832031 L 256.425781 128.238281 L 254.308594 124.710938 L 252.074219 121.261719 L 249.722656 117.886719 L 247.257813 114.59375 L 244.683594 111.390625 L 242.003906 108.273438 L 239.21875 105.25 L 236.332031 102.320313 L 233.347656 99.492188 L 230.269531 96.765625 L 227.101563 94.148438 L 223.84375 91.636719 L 220.503906 89.238281 L 217.085938 86.953125 L 213.589844 84.785156 L 210.023438 82.738281 L 206.390625 80.816406 L 202.695313 79.015625 L 198.941406 77.339844 L 195.128906 75.796875 L 191.269531 74.378906 L 187.363281 73.097656 L 183.414063 71.945313 L 179.433594 70.929688 L 176.539063 83.128906 L 175.578125 87.195313 L 173.648438 95.328125 L 172.6875 99.394531 L 170.757813 107.527344 L 169.796875 111.59375 L 167.867188 119.726563 L 166.90625 123.792969 L 164.011719 135.992188 L 163.050781 140.058594 L 161.121094 148.191406 L 160.160156 152.257813 L 158.230469 160.390625 L 157.269531 164.457031 L 156.304688 168.523438 L 155.339844 172.585938 L 154.378906 176.652344 Z M 151.484375 188.851563 "/>
<path style=" stroke:none;fill-rule:nonzero;fill:rgb(98.431373%,60.392157%,60%);fill-opacity:0.501961;" d="M 151.484375 188.851563 L 154.378906 176.652344 L 155.339844 172.585938 L 156.304688 168.523438 L 157.269531 164.457031 L 158.230469 160.390625 L 160.160156 152.257813 L 161.121094 148.191406 L 163.050781 140.058594 L 164.011719 135.992188 L 166.90625 123.792969 L 167.867188 119.726563 L 169.796875 111.59375 L 170.757813 107.527344 L 172.6875 99.394531 L 173.648438 95.328125 L 175.578125 87.195313 L 176.539063 83.128906 L 179.433594 70.929688 L 174.628906 69.894531 L 169.785156 69.054688 L 164.914063 68.410156 L 160.019531 67.964844 L 159.722656 72.132813 L 159.136719 80.46875 L 158.839844 84.640625 L 157.960938 97.144531 L 157.664063 101.3125 L 157.371094 105.480469 L 157.078125 109.652344 L 156.78125 113.820313 L 156.195313 122.15625 L 155.898438 126.324219 L 155.3125 134.660156 L 155.015625 138.832031 L 154.429688 147.167969 L 154.132813 151.335938 L 153.546875 159.671875 L 153.25 163.839844 L 152.957031 168.011719 L 152.664063 172.179688 L 152.367188 176.347656 L 151.78125 184.683594 Z M 151.484375 188.851563 "/>
<path style=" stroke:none;fill-rule:nonzero;fill:rgb(89.019608%,10.196078%,10.980392%);fill-opacity:0.501961;" d="M 151.484375 188.851563 L 151.78125 184.683594 L 152.367188 176.347656 L 152.664063 172.179688 L 152.957031 168.011719 L 153.25 163.839844 L 153.546875 159.671875 L 154.132813 151.335938 L 154.429688 147.167969 L 155.015625 138.832031 L 155.3125 134.660156 L 155.898438 126.324219 L 156.195313 122.15625 L 156.78125 113.820313 L 157.078125 109.652344 L 157.371094 105.480469 L 157.664063 101.3125 L 157.960938 97.144531 L 158.839844 84.640625 L 159.136719 80.46875 L 159.722656 72.132813 L 160.019531 67.964844 L 158.269531 67.855469 L 157.332031 84.542969 L 157.101563 88.714844 L 156.867188 92.886719 L 156.632813 97.0625 L 155.460938 117.921875 L 155.230469 122.09375 L 154.996094 126.265625 L 154.761719 130.441406 L 153.355469 155.472656 L 153.125 159.644531 L 152.890625 163.820313 Z M 151.484375 188.851563 "/>
<path style=" stroke:none;fill-rule:nonzero;fill:rgb(99.215686%,74.901961%,43.529412%);fill-opacity:0.501961;" d="M 151.484375 188.851563 L 152.890625 163.820313 L 153.125 159.644531 L 153.355469 155.472656 L 154.761719 130.441406 L 154.996094 126.265625 L 155.230469 122.09375 L 155.460938 117.921875 L 156.632813 97.0625 L 156.867188 92.886719 L 157.101563 88.714844 L 157.332031 84.542969 L 158.269531 67.855469 L 158.164063 67.847656 L 157.933594 72.019531 L 157.703125 76.195313 L 156.550781 97.054688 L 156.320313 101.230469 L 156.09375 105.402344 L 155.402344 117.917969 L 155.171875 122.09375 L 154.019531 142.953125 L 153.789063 147.128906 L 152.636719 167.988281 L 152.40625 172.164063 Z M 151.484375 188.851563 "/>
<path style=" stroke:none;fill-rule:nonzero;fill:rgb(100%,49.803922%,0%);fill-opacity:0.501961;" d="M 151.484375 188.851563 L 152.40625 172.164063 L 152.636719 167.988281 L 153.789063 147.128906 L 154.019531 142.953125 L 155.171875 122.09375 L 155.402344 117.917969 L 156.09375 105.402344 L 156.320313 101.230469 L 156.550781 97.054688 L 157.703125 76.195313 L 157.933594 72.019531 L 158.164063 67.847656 L 158.039063 67.839844 L 157.8125 72.015625 L 157.589844 76.1875 L 157.136719 84.53125 L 156.910156 88.707031 L 156.230469 101.222656 L 156.007813 105.398438 L 155.328125 117.914063 L 155.101563 122.089844 L 154.648438 130.433594 L 154.425781 134.605469 L 154.199219 138.78125 L 153.292969 155.46875 L 153.066406 159.644531 L 152.84375 163.816406 L 152.390625 172.160156 L 152.164063 176.335938 Z M 151.484375 188.851563 "/>
<path style=" stroke:none;fill-rule:nonzero;fill:rgb(50.196078%,50.196078%,50.196078%);fill-opacity:0.501961;" d="M 151.484375 188.851563 L 152.164063 176.335938 L 152.390625 172.160156 L 152.84375 163.816406 L 153.066406 159.644531 L 153.292969 155.46875 L 154.199219 138.78125 L 154.425781 134.605469 L 154.648438 130.433594 L 155.101563 122.089844 L 155.328125 117.914063 L 156.007813 105.398438 L 156.230469 101.222656 L 156.910156 88.707031 L 157.136719 84.53125 L 157.589844 76.1875 L 157.8125 72.015625 L 158.039063 67.839844 L 154.570313 67.703125 L 154.464844 71.882813 L 154.355469 76.058594 L 154.25 80.234375 L 154.144531 84.414063 L 154.039063 88.589844 L 153.933594 92.769531 L 153.824219 96.945313 L 153.71875 101.125 L 153.613281 105.300781 L 153.507813 109.480469 L 153.398438 113.65625 L 153.292969 117.835938 L 153.1875 122.011719 L 153.082031 126.191406 L 152.976563 130.367188 L 152.867188 134.542969 L 152.761719 138.722656 L 152.65625 142.898438 L 152.550781 147.078125 L 152.441406 151.253906 L 152.335938 155.433594 L 152.230469 159.609375 L 152.125 163.789063 L 152.019531 167.964844 L 151.910156 172.144531 L 151.699219 180.496094 L 151.59375 184.675781 Z M 151.484375 188.851563 "/>
<path style=" stroke:none;fill-rule:nonzero;fill:rgb(79.215686%,69.803922%,83.921569%);fill-opacity:0.501961;" d="M 151.484375 188.851563 L 151.59375 184.675781 L 151.699219 180.496094 L 151.910156 172.144531 L 152.019531 167.964844 L 152.125 163.789063 L 152.230469 159.609375 L 152.335938 155.433594 L 152.441406 151.253906 L 152.550781 147.078125 L 152.65625 142.898438 L 152.761719 138.722656 L 152.867188 134.542969 L 152.976563 130.367188 L 153.082031 126.191406 L 153.1875 122.011719 L 153.292969 117.835938 L 153.398438 113.65625 L 153.507813 109.480469 L 153.613281 105.300781 L 153.71875 101.125 L 153.824219 96.945313 L 153.933594 92.769531 L 154.039063 88.589844 L 154.144531 84.414063 L 154.25 80.234375 L 154.355469 76.058594 L 154.464844 71.882813 L 154.570313 67.703125 L 153.703125 67.683594 L 153.628906 71.863281 L 153.550781 76.039063 L 153.476563 80.21875 L 153.398438 84.398438 L 153.324219 88.574219 L 153.167969 96.933594 L 153.09375 101.109375 L 153.015625 105.289063 L 152.941406 109.464844 L 152.785156 117.824219 L 152.710938 122 L 152.632813 126.179688 L 152.558594 130.359375 L 152.480469 134.535156 L 152.40625 138.714844 L 152.328125 142.894531 L 152.25 147.070313 L 152.175781 151.25 L 152.097656 155.425781 L 152.023438 159.605469 L 151.945313 163.785156 L 151.867188 167.960938 L 151.792969 172.140625 L 151.714844 176.320313 L 151.640625 180.496094 L 151.5625 184.675781 Z M 151.484375 188.851563 "/>
<path style=" stroke:none;fill-rule:nonzero;fill:rgb(41.568627%,23.921569%,60.392157%);fill-opacity:0.501961;" d="M 151.484375 188.851563 L 151.5625 184.675781 L 151.640625 180.496094 L 151.714844 176.320313 L 151.792969 172.140625 L 151.867188 167.960938 L 151.945313 163.785156 L 152.023438 159.605469 L 152.097656 155.425781 L 152.175781 151.25 L 152.25 147.070313 L 152.328125 142.894531 L 152.40625 138.714844 L 152.480469 134.535156 L 152.558594 130.359375 L 152.632813 126.179688 L 152.710938 122 L 152.785156 117.824219 L 152.941406 109.464844 L 153.015625 105.289063 L 153.09375 101.109375 L 153.167969 96.933594 L 153.324219 88.574219 L 153.398438 84.398438 L 153.476563 80.21875 L 153.550781 76.039063 L 153.628906 71.863281 L 153.703125 67.683594 L 151.484375 67.664063 Z M 151.484375 188.851563 "/>
<g style="fill:rgb(0%,0%,0%);fill-opacity:1;">
  <use xlink:href="#glyph0-1" x="308.640625" y="86.371094"/>
  <use xlink:href="#glyph0-2" x="314.758301" y="86.371094"/>
  <use xlink:href="#glyph0-3" x="317.202148" y="86.371094"/>
  <use xlink:href="#glyph0-2" x="323.319824" y="86.371094"/>
  <use xlink:href="#glyph0-4" x="325.763672" y="86.371094"/>
  <use xlink:href="#glyph0-5" x="331.881348" y="86.371094"/>
  <use xlink:href="#glyph0-6" x="334.9375" y="86.371094"/>
  <use xlink:href="#glyph0-7" x="340.4375" y="86.371094"/>
  <use xlink:href="#glyph0-8" x="342.881348" y="86.371094"/>
  <use xlink:href="#glyph0-9" x="348.999023" y="86.371094"/>
  <use xlink:href="#glyph0-9" x="354.499023" y="86.371094"/>
</g>
<path style=" stroke:none;fill-rule:nonzero;fill:rgb(65.098039%,80.784314%,89.019608%);fill-opacity:0.501961;" d="M 309.351563 109.578125 L 325.214844 109.578125 L 325.214844 93.714844 L 309.351563 93.714844 Z M 309.351563 109.578125 "/>
<path style=" stroke:none;fill-rule:nonzero;fill:rgb(12.156863%,47.058824%,70.588235%);fill-opacity:0.501961;" d="M 309.351563 126.859375 L 325.214844 126.859375 L 325.214844 110.996094 L 309.351563 110.996094 Z M 309.351563 126.859375 "/>
<path style=" stroke:none;fill-rule:nonzero;fill:rgb(69.803922%,87.45098%,54.117647%);fill-opacity:0.501961;" d="M 309.351563 144.136719 L 325.214844 144.136719 L 325.214844 128.273438 L 309.351563 128.273438 Z M 309.351563 144.136719 "/>
<path style=" stroke:none;fill-rule:nonzero;fill:rgb(55.294118%,82.745098%,78.039216%);fill-opacity:0.501961;" d="M 309.351563 161.417969 L 325.214844 161.417969 L 325.214844 145.554688 L 309.351563 145.554688 Z M 309.351563 161.417969 "/>
<path style=" stroke:none;fill-rule:nonzero;fill:rgb(20%,62.745098%,17.254902%);fill-opacity:0.501961;" d="M 309.351563 178.699219 L 325.214844 178.699219 L 325.214844 162.835938 L 309.351563 162.835938 Z M 309.351563 178.699219 "/>
<path style=" stroke:none;fill-rule:nonzero;fill:rgb(98.431373%,60.392157%,60%);fill-opacity:0.501961;" d="M 309.351563 195.980469 L 325.214844 195.980469 L 325.214844 180.117188 L 309.351563 180.117188 Z M 309.351563 195.980469 "/>
<path style=" stroke:none;fill-rule:nonzero;fill:rgb(89.019608%,10.196078%,10.980392%);fill-opacity:0.501961;" d="M 309.351563 213.257813 L 325.214844 213.257813 L 325.214844 197.394531 L 309.351563 197.394531 Z M 309.351563 213.257813 "/>
<path style=" stroke:none;fill-rule:nonzero;fill:rgb(99.215686%,74.901961%,43.529412%);fill-opacity:0.501961;" d="M 309.351563 230.539063 L 325.214844 230.539063 L 325.214844 214.675781 L 309.351563 214.675781 Z M 309.351563 230.539063 "/>
<path style=" stroke:none;fill-rule:nonzero;fill:rgb(100%,49.803922%,0%);fill-opacity:0.501961;" d="M 309.351563 247.820313 L 325.214844 247.820313 L 325.214844 231.957031 L 309.351563 231.957031 Z M 309.351563 247.820313 "/>
<path style=" stroke:none;fill-rule:nonzero;fill:rgb(50.196078%,50.196078%,50.196078%);fill-opacity:0.501961;" d="M 309.351563 265.097656 L 325.214844 265.097656 L 325.214844 249.234375 L 309.351563 249.234375 Z M 309.351563 265.097656 "/>
<path style=" stroke:none;fill-rule:nonzero;fill:rgb(79.215686%,69.803922%,83.921569%);fill-opacity:0.501961;" d="M 309.351563 282.378906 L 325.214844 282.378906 L 325.214844 266.515625 L 309.351563 266.515625 Z M 309.351563 282.378906 "/>
<path style=" stroke:none;fill-rule:nonzero;fill:rgb(41.568627%,23.921569%,60.392157%);fill-opacity:0.501961;" d="M 309.351563 299.660156 L 325.214844 299.660156 L 325.214844 283.796875 L 309.351563 283.796875 Z M 309.351563 299.660156 "/>
<g style="fill:rgb(0%,0%,0%);fill-opacity:1;">
  <use xlink:href="#glyph1-1" x="331.402344" y="104.796875"/>
  <use xlink:href="#glyph1-2" x="337.757422" y="104.796875"/>
  <use xlink:href="#glyph1-3" x="343.626953" y="104.796875"/>
</g>
<g style="fill:rgb(0%,0%,0%);fill-opacity:1;">
  <use xlink:href="#glyph1-1" x="331.402344" y="122.078125"/>
  <use xlink:href="#glyph1-4" x="337.757422" y="122.078125"/>
</g>
<g style="fill:rgb(0%,0%,0%);fill-opacity:1;">
  <use xlink:href="#glyph1-1" x="331.402344" y="139.355469"/>
  <use xlink:href="#glyph1-5" x="337.757422" y="139.355469"/>
  <use xlink:href="#glyph1-6" x="342.651562" y="139.355469"/>
</g>
<g style="fill:rgb(0%,0%,0%);fill-opacity:1;">
  <use xlink:href="#glyph1-7" x="331.402344" y="156.636719"/>
  <use xlink:href="#glyph1-2" x="337.757422" y="156.636719"/>
  <use xlink:href="#glyph1-8" x="343.626953" y="156.636719"/>
</g>
<g style="fill:rgb(0%,0%,0%);fill-opacity:1;">
  <use xlink:href="#glyph1-9" x="331.402344" y="173.917969"/>
  <use xlink:href="#glyph1-2" x="336.777734" y="173.917969"/>
</g>
<g style="fill:rgb(0%,0%,0%);fill-opacity:1;">
  <use xlink:href="#glyph1-10" x="331.402344" y="191.195313"/>
  <use xlink:href="#glyph1-1" x="337.271875" y="191.195313"/>
</g>
<g style="fill:rgb(0%,0%,0%);fill-opacity:1;">
  <use xlink:href="#glyph1-10" x="331.402344" y="208.476563"/>
  <use xlink:href="#glyph1-4" x="337.271875" y="208.476563"/>
</g>
<g style="fill:rgb(0%,0%,0%);fill-opacity:1;">
  <use xlink:href="#glyph1-10" x="331.402344" y="225.757813"/>
  <use xlink:href="#glyph1-8" x="337.271875" y="225.757813"/>
</g>
<g style="fill:rgb(0%,0%,0%);fill-opacity:1;">
  <use xlink:href="#glyph1-10" x="331.402344" y="243.035156"/>
  <use xlink:href="#glyph1-11" x="337.271875" y="243.035156"/>
</g>
<g style="fill:rgb(0%,0%,0%);fill-opacity:1;">
  <use xlink:href="#glyph1-10" x="331.402344" y="260.316406"/>
  <use xlink:href="#glyph1-12" x="337.271875" y="260.316406"/>
</g>
<g style="fill:rgb(0%,0%,0%);fill-opacity:1;">
  <use xlink:href="#glyph1-12" x="331.402344" y="277.597656"/>
  <use xlink:href="#glyph1-13" x="337.271875" y="277.597656"/>
</g>
<g style="fill:rgb(0%,0%,0%);fill-opacity:1;">
  <use xlink:href="#glyph1-14" x="331.402344" y="294.875"/>
  <use xlink:href="#glyph1-2" x="336.777734" y="294.875"/>
  <use xlink:href="#glyph1-8" x="342.647266" y="294.875"/>
</g>
<g style="fill:rgb(0%,0%,0%);fill-opacity:1;">
  <use xlink:href="#glyph2-1" x="0" y="34.589844"/>
  <use xlink:href="#glyph2-2" x="8.804297" y="34.589844"/>
  <use xlink:href="#glyph2-3" x="16.145508" y="34.589844"/>
  <use xlink:href="#glyph2-4" x="27.141211" y="34.589844"/>
  <use xlink:href="#glyph2-5" x="34.482422" y="34.589844"/>
  <use xlink:href="#glyph2-6" x="37.415039" y="34.589844"/>
  <use xlink:href="#glyph2-7" x="44.75625" y="34.589844"/>
  <use xlink:href="#glyph2-8" x="52.097461" y="34.589844"/>
  <use xlink:href="#glyph2-9" x="60.160547" y="34.589844"/>
  <use xlink:href="#glyph2-4" x="66.760547" y="34.589844"/>
  <use xlink:href="#glyph2-6" x="74.101758" y="34.589844"/>
  <use xlink:href="#glyph2-7" x="81.442969" y="34.589844"/>
  <use xlink:href="#glyph2-10" x="88.78418" y="34.589844"/>
  <use xlink:href="#glyph2-6" x="98.316797" y="34.589844"/>
  <use xlink:href="#glyph2-11" x="105.658008" y="34.589844"/>
  <use xlink:href="#glyph2-12" x="112.999219" y="34.589844"/>
  <use xlink:href="#glyph2-13" x="117.394922" y="34.589844"/>
  <use xlink:href="#glyph2-14" x="124.736133" y="34.589844"/>
  <use xlink:href="#glyph2-7" x="132.077344" y="34.589844"/>
  <use xlink:href="#glyph2-7" x="139.418555" y="34.589844"/>
  <use xlink:href="#glyph2-1" x="146.759766" y="34.589844"/>
  <use xlink:href="#glyph2-5" x="155.564062" y="34.589844"/>
  <use xlink:href="#glyph2-6" x="158.49668" y="34.589844"/>
  <use xlink:href="#glyph2-6" x="165.837891" y="34.589844"/>
  <use xlink:href="#glyph2-4" x="173.179102" y="34.589844"/>
  <use xlink:href="#glyph2-7" x="180.520312" y="34.589844"/>
  <use xlink:href="#glyph2-15" x="187.861523" y="34.589844"/>
  <use xlink:href="#glyph2-13" x="197.394141" y="34.589844"/>
  <use xlink:href="#glyph2-14" x="204.735352" y="34.589844"/>
  <use xlink:href="#glyph2-16" x="212.076562" y="34.589844"/>
  <use xlink:href="#glyph2-17" x="219.417773" y="34.589844"/>
  <use xlink:href="#glyph2-18" x="222.350391" y="34.589844"/>
  <use xlink:href="#glyph2-17" x="226.017773" y="34.589844"/>
  <use xlink:href="#glyph2-13" x="228.950391" y="34.589844"/>
  <use xlink:href="#glyph2-14" x="236.291602" y="34.589844"/>
  <use xlink:href="#glyph2-7" x="243.632812" y="34.589844"/>
  <use xlink:href="#glyph2-19" x="250.974023" y="34.589844"/>
  <use xlink:href="#glyph2-13" x="261.241406" y="34.589844"/>
  <use xlink:href="#glyph2-17" x="268.582617" y="34.589844"/>
  <use xlink:href="#glyph2-14" x="271.515234" y="34.589844"/>
  <use xlink:href="#glyph2-20" x="278.856445" y="34.589844"/>
  <use xlink:href="#glyph2-7" x="286.197656" y="34.589844"/>
  <use xlink:href="#glyph2-18" x="293.538867" y="34.589844"/>
  <use xlink:href="#glyph2-13" x="297.20625" y="34.589844"/>
  <use xlink:href="#glyph2-7" x="304.547461" y="34.589844"/>
  <use xlink:href="#glyph2-21" x="311.888672" y="34.589844"/>
  <use xlink:href="#glyph2-5" x="318.488672" y="34.589844"/>
  <use xlink:href="#glyph2-6" x="321.421289" y="34.589844"/>
  <use xlink:href="#glyph2-6" x="328.7625" y="34.589844"/>
  <use xlink:href="#glyph2-4" x="336.103711" y="34.589844"/>
</g>
<path style=" stroke:none;fill-rule:nonzero;fill:rgb(65.098039%,80.784314%,89.019608%);fill-opacity:0.501961;" d="M 511.484375 188.851563 L 511.484375 67.664063 L 507.128906 67.742188 L 502.78125 67.976563 L 498.441406 68.367188 L 494.117188 68.914063 L 489.820313 69.617188 L 485.546875 70.472656 L 481.308594 71.480469 L 482.351563 75.527344 L 483.390625 79.574219 L 484.429688 83.625 L 485.472656 87.671875 L 486.511719 91.71875 L 487.554688 95.765625 L 489.632813 103.859375 L 490.675781 107.90625 L 491.714844 111.953125 L 492.757813 116 L 493.796875 120.050781 L 494.835938 124.097656 L 495.878906 128.144531 L 497.957031 136.238281 L 499 140.285156 L 500.039063 144.332031 L 501.082031 148.378906 L 502.121094 152.425781 L 503.160156 156.476563 L 504.203125 160.523438 L 505.242188 164.570313 L 506.285156 168.617188 L 508.363281 176.710938 L 509.40625 180.757813 Z M 511.484375 188.851563 "/>
<path style=" stroke:none;fill-rule:nonzero;fill:rgb(12.156863%,47.058824%,70.588235%);fill-opacity:0.501961;" d="M 511.484375 188.851563 L 509.40625 180.757813 L 508.363281 176.710938 L 506.285156 168.617188 L 505.242188 164.570313 L 504.203125 160.523438 L 503.160156 156.476563 L 502.121094 152.425781 L 501.082031 148.378906 L 500.039063 144.332031 L 499 140.285156 L 497.957031 136.238281 L 495.878906 128.144531 L 494.835938 124.097656 L 493.796875 120.050781 L 492.757813 116 L 491.714844 111.953125 L 490.675781 107.90625 L 489.632813 103.859375 L 487.554688 95.765625 L 486.511719 91.71875 L 485.472656 87.671875 L 484.429688 83.625 L 483.390625 79.574219 L 482.351563 75.527344 L 481.308594 71.480469 L 477.296875 72.585938 L 478.472656 76.597656 L 480.832031 84.613281 L 482.011719 88.625 L 484.371094 96.640625 L 485.546875 100.652344 L 487.90625 108.667969 L 489.085938 112.679688 L 491.445313 120.695313 L 492.621094 124.707031 L 493.800781 128.714844 L 494.980469 132.726563 L 497.339844 140.742188 L 498.515625 144.753906 L 500.875 152.769531 L 502.054688 156.78125 L 504.414063 164.796875 L 505.589844 168.808594 L 507.949219 176.824219 L 509.128906 180.835938 L 510.308594 184.84375 Z M 511.484375 188.851563 "/>
<path style=" stroke:none;fill-rule:nonzero;fill:rgb(69.803922%,87.45098%,54.117647%);fill-opacity:0.501961;" d="M 511.484375 188.851563 L 510.308594 184.84375 L 509.128906 180.835938 L 507.949219 176.824219 L 505.589844 168.808594 L 504.414063 164.796875 L 502.054688 156.78125 L 500.875 152.769531 L 498.515625 144.753906 L 497.339844 140.742188 L 494.980469 132.726563 L 493.800781 128.714844 L 492.621094 124.707031 L 491.445313 120.695313 L 489.085938 112.679688 L 487.90625 108.667969 L 485.546875 100.652344 L 484.371094 96.640625 L 482.011719 88.625 L 480.832031 84.613281 L 478.472656 76.597656 L 477.296875 72.585938 L 476.894531 72.707031 L 478.089844 76.710938 L 480.472656 84.71875 L 481.667969 88.726563 L 484.050781 96.734375 L 485.246094 100.742188 L 486.4375 104.746094 L 487.632813 108.75 L 488.824219 112.757813 L 490.015625 116.761719 L 491.210938 120.765625 L 492.402344 124.773438 L 493.59375 128.777344 L 494.789063 132.78125 L 495.980469 136.785156 L 497.171875 140.792969 L 498.367188 144.796875 L 499.558594 148.800781 L 500.75 152.808594 L 501.945313 156.8125 L 503.136719 160.816406 L 504.328125 164.824219 L 505.523438 168.828125 L 507.90625 176.835938 L 509.101563 180.84375 Z M 511.484375 188.851563 "/>
<path style=" stroke:none;fill-rule:nonzero;fill:rgb(55.294118%,82.745098%,78.039216%);fill-opacity:0.501961;" d="M 511.484375 188.851563 L 509.101563 180.84375 L 507.90625 176.835938 L 505.523438 168.828125 L 504.328125 164.824219 L 503.136719 160.816406 L 501.945313 156.8125 L 500.75 152.808594 L 499.558594 148.800781 L 498.367188 144.796875 L 497.171875 140.792969 L 495.980469 136.785156 L 494.789063 132.78125 L 493.59375 128.777344 L 492.402344 124.773438 L 491.210938 120.765625 L 490.015625 116.761719 L 488.824219 112.757813 L 487.632813 108.75 L 486.4375 104.746094 L 485.246094 100.742188 L 484.050781 96.734375 L 481.667969 88.726563 L 480.472656 84.71875 L 478.089844 76.710938 L 476.894531 72.707031 L 472.851563 73.988281 L 468.855469 75.410156 L 470.324219 79.320313 L 471.796875 83.234375 L 473.265625 87.144531 L 474.734375 91.058594 L 476.207031 94.96875 L 477.675781 98.882813 L 479.144531 102.792969 L 480.617188 106.703125 L 482.085938 110.617188 L 483.554688 114.527344 L 485.027344 118.441406 L 486.496094 122.351563 L 487.964844 126.265625 L 489.4375 130.175781 L 490.90625 134.085938 L 492.375 138 L 493.847656 141.910156 L 495.316406 145.824219 L 496.785156 149.734375 L 498.257813 153.648438 L 501.195313 161.46875 L 502.664063 165.382813 L 504.136719 169.292969 L 505.605469 173.207031 L 507.074219 177.117188 L 508.546875 181.03125 Z M 511.484375 188.851563 "/>
<path style=" stroke:none;fill-rule:nonzero;fill:rgb(20%,62.745098%,17.254902%);fill-opacity:0.501961;" d="M 511.484375 188.851563 L 508.546875 181.03125 L 507.074219 177.117188 L 505.605469 173.207031 L 504.136719 169.292969 L 502.664063 165.382813 L 501.195313 161.46875 L 498.257813 153.648438 L 496.785156 149.734375 L 495.316406 145.824219 L 493.847656 141.910156 L 492.375 138 L 490.90625 134.085938 L 489.4375 130.175781 L 487.964844 126.265625 L 486.496094 122.351563 L 485.027344 118.441406 L 483.554688 114.527344 L 482.085938 110.617188 L 480.617188 106.703125 L 479.144531 102.792969 L 477.675781 98.882813 L 476.207031 94.96875 L 474.734375 91.058594 L 473.265625 87.144531 L 471.796875 83.234375 L 470.324219 79.320313 L 468.855469 75.410156 L 465.039063 76.917969 L 461.277344 78.554688 L 457.570313 80.316406 L 453.929688 82.203125 L 450.351563 84.214844 L 446.84375 86.34375 L 443.410156 88.589844 L 440.054688 90.953125 L 436.785156 93.425781 L 433.597656 96.011719 L 430.496094 98.699219 L 427.492188 101.492188 L 424.582031 104.386719 L 421.773438 107.375 L 419.066406 110.460938 L 416.464844 113.632813 L 413.976563 116.894531 L 411.59375 120.234375 L 409.328125 123.65625 L 407.179688 127.152344 L 405.152344 130.71875 L 403.246094 134.351563 L 401.460938 138.046875 L 399.804688 141.800781 L 398.277344 145.605469 L 396.878906 149.464844 L 395.609375 153.367188 L 394.472656 157.308594 L 393.472656 161.289063 L 392.609375 165.296875 L 391.878906 169.335938 L 391.285156 173.394531 L 390.832031 177.472656 L 390.515625 181.566406 L 390.339844 185.664063 L 390.300781 189.765625 L 390.402344 193.867188 L 390.640625 197.964844 L 391.019531 202.050781 L 391.535156 206.121094 L 392.1875 210.171875 L 392.976563 214.195313 L 393.902344 218.195313 L 394.964844 222.15625 L 396.15625 226.082031 L 397.484375 229.964844 L 398.941406 233.800781 L 400.527344 237.585938 L 402.242188 241.3125 L 404.078125 244.980469 L 406.039063 248.585938 L 408.121094 252.121094 L 410.324219 255.582031 L 412.640625 258.96875 L 415.070313 262.273438 L 417.609375 265.496094 L 420.257813 268.628906 L 423.011719 271.671875 L 425.867188 274.621094 L 428.820313 277.46875 L 431.867188 280.21875 L 435.003906 282.859375 L 438.230469 285.394531 L 441.539063 287.820313 L 444.929688 290.128906 L 448.398438 292.324219 L 451.9375 294.402344 L 455.542969 296.355469 L 459.214844 298.1875 L 462.945313 299.894531 L 466.730469 301.476563 L 470.570313 302.925781 L 474.457031 304.246094 L 478.382813 305.433594 L 482.347656 306.488281 L 486.347656 307.40625 L 490.375 308.1875 L 494.425781 308.835938 L 498.496094 309.34375 L 502.582031 309.714844 L 506.679688 309.945313 L 510.78125 310.039063 L 514.882813 309.996094 L 518.984375 309.808594 L 523.074219 309.488281 L 527.152344 309.027344 L 531.210938 308.425781 L 535.246094 307.691406 L 539.253906 306.816406 L 543.230469 305.808594 L 547.171875 304.667969 L 551.074219 303.394531 L 554.929688 301.988281 L 558.734375 300.453125 L 562.484375 298.789063 L 566.175781 297 L 569.804688 295.085938 L 573.367188 293.050781 L 576.859375 290.898438 L 580.277344 288.625 L 583.613281 286.242188 L 586.871094 283.742188 L 590.039063 281.136719 L 593.117188 278.425781 L 596.101563 275.609375 L 598.992188 272.695313 L 601.777344 269.6875 L 604.464844 266.582031 L 607.042969 263.390625 L 609.511719 260.113281 L 611.867188 256.753906 L 614.105469 253.316406 L 616.230469 249.808594 L 618.234375 246.226563 L 620.113281 242.578125 L 621.871094 238.871094 L 623.5 235.105469 L 625.003906 231.289063 L 626.375 227.421875 L 627.613281 223.511719 L 628.71875 219.558594 L 629.691406 215.574219 L 630.53125 211.554688 L 631.230469 207.511719 L 631.792969 203.449219 L 632.21875 199.367188 L 632.503906 195.277344 L 632.652344 191.175781 L 632.660156 187.074219 L 632.53125 182.972656 L 632.265625 178.878906 L 631.855469 174.792969 L 631.3125 170.726563 L 630.628906 166.683594 L 629.8125 162.660156 L 628.855469 158.671875 L 627.769531 154.714844 L 626.546875 150.796875 L 625.191406 146.925781 L 623.707031 143.101563 L 622.09375 139.328125 L 620.355469 135.613281 L 618.488281 131.957031 L 616.5 128.367188 L 614.394531 124.847656 L 612.167969 121.402344 L 609.828125 118.03125 L 607.375 114.742188 L 604.808594 111.539063 L 602.140625 108.425781 L 599.363281 105.402344 L 596.488281 102.476563 L 593.515625 99.648438 L 590.449219 96.921875 L 587.292969 94.300781 L 584.050781 91.789063 L 580.722656 89.386719 L 577.316406 87.101563 L 573.832031 84.933594 L 570.28125 82.878906 L 566.660156 80.953125 L 562.972656 79.144531 L 559.230469 77.464844 L 555.433594 75.914063 L 551.585938 74.492188 L 547.691406 73.199219 L 543.753906 72.039063 L 539.78125 71.015625 L 538.804688 75.078125 L 537.832031 79.140625 L 535.878906 87.265625 L 534.902344 91.332031 L 533.925781 95.394531 L 532.953125 99.457031 L 531.976563 103.519531 L 531 107.585938 L 530.023438 111.648438 L 529.050781 115.710938 L 528.074219 119.773438 L 527.097656 123.839844 L 525.144531 131.964844 L 524.171875 136.027344 L 523.195313 140.09375 L 520.265625 152.28125 L 519.292969 156.34375 L 518.316406 160.410156 L 516.363281 168.535156 L 515.390625 172.597656 L 514.414063 176.664063 Z M 511.484375 188.851563 "/>
<path style=" stroke:none;fill-rule:nonzero;fill:rgb(98.431373%,60.392157%,60%);fill-opacity:0.501961;" d="M 511.484375 188.851563 L 514.414063 176.664063 L 515.390625 172.597656 L 516.363281 168.535156 L 518.316406 160.410156 L 519.292969 156.34375 L 520.265625 152.28125 L 523.195313 140.09375 L 524.171875 136.027344 L 525.144531 131.964844 L 527.097656 123.839844 L 528.074219 119.773438 L 529.050781 115.710938 L 530.023438 111.648438 L 531 107.585938 L 531.976563 103.519531 L 532.953125 99.457031 L 533.925781 95.394531 L 534.902344 91.332031 L 535.878906 87.265625 L 537.832031 79.140625 L 538.804688 75.078125 L 539.78125 71.015625 L 535.515625 70.070313 L 531.222656 69.28125 L 526.898438 68.648438 L 522.558594 68.171875 L 522.175781 72.332031 L 521.796875 76.492188 L 521.414063 80.65625 L 520.648438 88.976563 L 520.269531 93.140625 L 519.503906 101.460938 L 519.121094 105.625 L 518.742188 109.785156 L 518.359375 113.945313 L 517.976563 118.109375 L 517.59375 122.269531 L 517.214844 126.429688 L 516.832031 130.59375 L 516.066406 138.914063 L 515.6875 143.078125 L 514.921875 151.398438 L 514.539063 155.5625 L 514.160156 159.722656 L 513.777344 163.882813 L 513.394531 168.046875 L 513.011719 172.207031 L 512.632813 176.367188 L 512.25 180.53125 Z M 511.484375 188.851563 "/>
<path style=" stroke:none;fill-rule:nonzero;fill:rgb(89.019608%,10.196078%,10.980392%);fill-opacity:0.501961;" d="M 511.484375 188.851563 L 512.25 180.53125 L 512.632813 176.367188 L 513.011719 172.207031 L 513.394531 168.046875 L 513.777344 163.882813 L 514.160156 159.722656 L 514.539063 155.5625 L 514.921875 151.398438 L 515.6875 143.078125 L 516.066406 138.914063 L 516.832031 130.59375 L 517.214844 126.429688 L 517.59375 122.269531 L 517.976563 118.109375 L 518.359375 113.945313 L 518.742188 109.785156 L 519.121094 105.625 L 519.503906 101.460938 L 520.269531 93.140625 L 520.648438 88.976563 L 521.414063 80.65625 L 521.796875 76.492188 L 522.175781 72.332031 L 522.558594 68.171875 L 520.007813 67.964844 L 519.128906 80.46875 L 518.832031 84.636719 L 518.539063 88.808594 L 517.660156 101.3125 L 517.363281 105.480469 L 517.070313 109.648438 L 516.777344 113.820313 L 516.484375 117.988281 L 516.1875 122.15625 L 515.308594 134.660156 L 515.011719 138.832031 L 514.132813 151.335938 L 513.835938 155.503906 L 513.25 163.839844 L 512.957031 168.011719 L 512.660156 172.179688 L 511.78125 184.683594 Z M 511.484375 188.851563 "/>
<path style=" stroke:none;fill-rule:nonzero;fill:rgb(99.215686%,74.901961%,43.529412%);fill-opacity:0.501961;" d="M 511.484375 188.851563 L 511.78125 184.683594 L 512.660156 172.179688 L 512.957031 168.011719 L 513.25 163.839844 L 513.835938 155.503906 L 514.132813 151.335938 L 515.011719 138.832031 L 515.308594 134.660156 L 516.1875 122.15625 L 516.484375 117.988281 L 516.777344 113.820313 L 517.070313 109.648438 L 517.363281 105.480469 L 517.660156 101.3125 L 518.539063 88.808594 L 518.832031 84.636719 L 519.128906 80.46875 L 520.007813 67.964844 L 519.851563 67.953125 L 519.566406 72.121094 L 519.277344 76.292969 L 518.410156 88.796875 L 518.121094 92.96875 L 517.832031 97.136719 L 517.546875 101.304688 L 517.257813 105.472656 L 516.96875 109.644531 L 516.101563 122.148438 L 515.8125 126.320313 L 515.523438 130.488281 L 515.238281 134.65625 L 514.949219 138.824219 L 514.660156 142.996094 L 513.792969 155.5 L 513.503906 159.671875 L 513.21875 163.839844 L 512.640625 172.175781 L 512.351563 176.347656 Z M 511.484375 188.851563 "/>
<path style=" stroke:none;fill-rule:nonzero;fill:rgb(100%,49.803922%,0%);fill-opacity:0.501961;" d="M 511.484375 188.851563 L 512.351563 176.347656 L 512.640625 172.175781 L 513.21875 163.839844 L 513.503906 159.671875 L 513.792969 155.5 L 514.660156 142.996094 L 514.949219 138.824219 L 515.238281 134.65625 L 515.523438 130.488281 L 515.8125 126.320313 L 516.101563 122.148438 L 516.96875 109.644531 L 517.257813 105.472656 L 517.546875 101.304688 L 517.832031 97.136719 L 518.121094 92.96875 L 518.410156 88.796875 L 519.277344 76.292969 L 519.566406 72.121094 L 519.851563 67.953125 L 519.679688 67.941406 L 519.394531 72.109375 L 519.113281 76.28125 L 518.832031 80.449219 L 518.546875 84.617188 L 518.265625 88.789063 L 517.984375 92.957031 L 517.699219 97.125 L 517.417969 101.296875 L 517.136719 105.464844 L 516.851563 109.636719 L 516.289063 117.972656 L 516.003906 122.144531 L 515.441406 130.480469 L 515.160156 134.652344 L 514.875 138.820313 L 514.59375 142.988281 L 514.3125 147.160156 L 514.027344 151.328125 L 513.746094 155.5 L 513.464844 159.667969 L 513.179688 163.835938 L 512.898438 168.007813 L 512.617188 172.175781 L 512.332031 176.34375 L 512.050781 180.515625 L 511.769531 184.683594 Z M 511.484375 188.851563 "/>
<path style=" stroke:none;fill-rule:nonzero;fill:rgb(50.196078%,50.196078%,50.196078%);fill-opacity:0.501961;" d="M 511.484375 188.851563 L 511.769531 184.683594 L 512.050781 180.515625 L 512.332031 176.34375 L 512.617188 172.175781 L 512.898438 168.007813 L 513.179688 163.835938 L 513.464844 159.667969 L 513.746094 155.5 L 514.027344 151.328125 L 514.3125 147.160156 L 514.59375 142.988281 L 514.875 138.820313 L 515.160156 134.652344 L 515.441406 130.480469 L 516.003906 122.144531 L 516.289063 117.972656 L 516.851563 109.636719 L 517.136719 105.464844 L 517.417969 101.296875 L 517.699219 97.125 L 517.984375 92.957031 L 518.265625 88.789063 L 518.546875 84.617188 L 518.832031 80.449219 L 519.113281 76.28125 L 519.394531 72.109375 L 519.679688 67.941406 L 514.84375 67.710938 L 514.726563 71.886719 L 514.613281 76.066406 L 514.496094 80.242188 L 514.378906 84.421875 L 514.265625 88.597656 L 514.148438 92.773438 L 514.035156 96.953125 L 513.800781 105.304688 L 513.6875 109.484375 L 513.570313 113.660156 L 513.453125 117.839844 L 513.339844 122.015625 L 513.222656 126.191406 L 513.105469 130.371094 L 512.992188 134.546875 L 512.875 138.726563 L 512.761719 142.902344 L 512.644531 147.078125 L 512.527344 151.257813 L 512.414063 155.433594 L 512.296875 159.613281 L 512.179688 163.789063 L 512.066406 167.964844 L 511.949219 172.144531 L 511.832031 176.320313 L 511.71875 180.5 Z M 511.484375 188.851563 "/>
<path style=" stroke:none;fill-rule:nonzero;fill:rgb(79.215686%,69.803922%,83.921569%);fill-opacity:0.501961;" d="M 511.484375 188.851563 L 511.71875 180.5 L 511.832031 176.320313 L 511.949219 172.144531 L 512.066406 167.964844 L 512.179688 163.789063 L 512.296875 159.613281 L 512.414063 155.433594 L 512.527344 151.257813 L 512.644531 147.078125 L 512.761719 142.902344 L 512.875 138.726563 L 512.992188 134.546875 L 513.105469 130.371094 L 513.222656 126.191406 L 513.339844 122.015625 L 513.453125 117.839844 L 513.570313 113.660156 L 513.6875 109.484375 L 513.800781 105.304688 L 514.035156 96.953125 L 514.148438 92.773438 L 514.265625 88.597656 L 514.378906 84.421875 L 514.496094 80.242188 L 514.613281 76.066406 L 514.726563 71.886719 L 514.84375 67.710938 L 513.761719 67.6875 L 513.683594 71.863281 L 513.605469 76.042969 L 513.527344 80.21875 L 513.371094 88.578125 L 513.292969 92.753906 L 513.210938 96.933594 L 513.132813 101.109375 L 512.976563 109.46875 L 512.898438 113.644531 L 512.742188 122.003906 L 512.664063 126.179688 L 512.585938 130.359375 L 512.507813 134.535156 L 512.429688 138.714844 L 512.347656 142.894531 L 512.269531 147.070313 L 512.191406 151.25 L 512.113281 155.425781 L 511.957031 163.785156 L 511.878906 167.960938 L 511.722656 176.320313 L 511.644531 180.496094 L 511.566406 184.675781 Z M 511.484375 188.851563 "/>
<path style=" stroke:none;fill-rule:nonzero;fill:rgb(41.568627%,23.921569%,60.392157%);fill-opacity:0.501961;" d="M 511.484375 188.851563 L 511.566406 184.675781 L 511.644531 180.496094 L 511.722656 176.320313 L 511.878906 167.960938 L 511.957031 163.785156 L 512.113281 155.425781 L 512.191406 151.25 L 512.269531 147.070313 L 512.347656 142.894531 L 512.429688 138.714844 L 512.507813 134.535156 L 512.585938 130.359375 L 512.664063 126.179688 L 512.742188 122.003906 L 512.898438 113.644531 L 512.976563 109.46875 L 513.132813 101.109375 L 513.210938 96.933594 L 513.292969 92.753906 L 513.371094 88.578125 L 513.527344 80.21875 L 513.605469 76.042969 L 513.683594 71.863281 L 513.761719 67.6875 L 511.484375 67.664063 Z M 511.484375 188.851563 "/>
<g style="fill:rgb(0%,0%,0%);fill-opacity:1;">
  <use xlink:href="#glyph0-1" x="668.640625" y="86.371094"/>
  <use xlink:href="#glyph0-2" x="674.758301" y="86.371094"/>
  <use xlink:href="#glyph0-3" x="677.202148" y="86.371094"/>
  <use xlink:href="#glyph0-2" x="683.319824" y="86.371094"/>
  <use xlink:href="#glyph0-4" x="685.763672" y="86.371094"/>
  <use xlink:href="#glyph0-5" x="691.881348" y="86.371094"/>
  <use xlink:href="#glyph0-6" x="694.9375" y="86.371094"/>
  <use xlink:href="#glyph0-7" x="700.4375" y="86.371094"/>
  <use xlink:href="#glyph0-8" x="702.881348" y="86.371094"/>
  <use xlink:href="#glyph0-9" x="708.999023" y="86.371094"/>
  <use xlink:href="#glyph0-9" x="714.499023" y="86.371094"/>
</g>
<path style=" stroke:none;fill-rule:nonzero;fill:rgb(65.098039%,80.784314%,89.019608%);fill-opacity:0.501961;" d="M 669.351563 109.578125 L 685.214844 109.578125 L 685.214844 93.714844 L 669.351563 93.714844 Z M 669.351563 109.578125 "/>
<path style=" stroke:none;fill-rule:nonzero;fill:rgb(12.156863%,47.058824%,70.588235%);fill-opacity:0.501961;" d="M 669.351563 126.859375 L 685.214844 126.859375 L 685.214844 110.996094 L 669.351563 110.996094 Z M 669.351563 126.859375 "/>
<path style=" stroke:none;fill-rule:nonzero;fill:rgb(69.803922%,87.45098%,54.117647%);fill-opacity:0.501961;" d="M 669.351563 144.136719 L 685.214844 144.136719 L 685.214844 128.273438 L 669.351563 128.273438 Z M 669.351563 144.136719 "/>
<path style=" stroke:none;fill-rule:nonzero;fill:rgb(55.294118%,82.745098%,78.039216%);fill-opacity:0.501961;" d="M 669.351563 161.417969 L 685.214844 161.417969 L 685.214844 145.554688 L 669.351563 145.554688 Z M 669.351563 161.417969 "/>
<path style=" stroke:none;fill-rule:nonzero;fill:rgb(20%,62.745098%,17.254902%);fill-opacity:0.501961;" d="M 669.351563 178.699219 L 685.214844 178.699219 L 685.214844 162.835938 L 669.351563 162.835938 Z M 669.351563 178.699219 "/>
<path style=" stroke:none;fill-rule:nonzero;fill:rgb(98.431373%,60.392157%,60%);fill-opacity:0.501961;" d="M 669.351563 195.980469 L 685.214844 195.980469 L 685.214844 180.117188 L 669.351563 180.117188 Z M 669.351563 195.980469 "/>
<path style=" stroke:none;fill-rule:nonzero;fill:rgb(89.019608%,10.196078%,10.980392%);fill-opacity:0.501961;" d="M 669.351563 213.257813 L 685.214844 213.257813 L 685.214844 197.394531 L 669.351563 197.394531 Z M 669.351563 213.257813 "/>
<path style=" stroke:none;fill-rule:nonzero;fill:rgb(99.215686%,74.901961%,43.529412%);fill-opacity:0.501961;" d="M 669.351563 230.539063 L 685.214844 230.539063 L 685.214844 214.675781 L 669.351563 214.675781 Z M 669.351563 230.539063 "/>
<path style=" stroke:none;fill-rule:nonzero;fill:rgb(100%,49.803922%,0%);fill-opacity:0.501961;" d="M 669.351563 247.820313 L 685.214844 247.820313 L 685.214844 231.957031 L 669.351563 231.957031 Z M 669.351563 247.820313 "/>
<path style=" stroke:none;fill-rule:nonzero;fill:rgb(50.196078%,50.196078%,50.196078%);fill-opacity:0.501961;" d="M 669.351563 265.097656 L 685.214844 265.097656 L 685.214844 249.234375 L 669.351563 249.234375 Z M 669.351563 265.097656 "/>
<path style=" stroke:none;fill-rule:nonzero;fill:rgb(79.215686%,69.803922%,83.921569%);fill-opacity:0.501961;" d="M 669.351563 282.378906 L 685.214844 282.378906 L 685.214844 266.515625 L 669.351563 266.515625 Z M 669.351563 282.378906 "/>
<path style=" stroke:none;fill-rule:nonzero;fill:rgb(41.568627%,23.921569%,60.392157%);fill-opacity:0.501961;" d="M 669.351563 299.660156 L 685.214844 299.660156 L 685.214844 283.796875 L 669.351563 283.796875 Z M 669.351563 299.660156 "/>
<g style="fill:rgb(0%,0%,0%);fill-opacity:1;">
  <use xlink:href="#glyph1-1" x="691.402344" y="104.796875"/>
  <use xlink:href="#glyph1-2" x="697.757422" y="104.796875"/>
  <use xlink:href="#glyph1-3" x="703.626953" y="104.796875"/>
</g>
<g style="fill:rgb(0%,0%,0%);fill-opacity:1;">
  <use xlink:href="#glyph1-1" x="691.402344" y="122.078125"/>
  <use xlink:href="#glyph1-4" x="697.757422" y="122.078125"/>
</g>
<g style="fill:rgb(0%,0%,0%);fill-opacity:1;">
  <use xlink:href="#glyph1-1" x="691.402344" y="139.355469"/>
  <use xlink:href="#glyph1-5" x="697.757422" y="139.355469"/>
  <use xlink:href="#glyph1-6" x="702.651562" y="139.355469"/>
</g>
<g style="fill:rgb(0%,0%,0%);fill-opacity:1;">
  <use xlink:href="#glyph1-7" x="691.402344" y="156.636719"/>
  <use xlink:href="#glyph1-2" x="697.757422" y="156.636719"/>
  <use xlink:href="#glyph1-8" x="703.626953" y="156.636719"/>
</g>
<g style="fill:rgb(0%,0%,0%);fill-opacity:1;">
  <use xlink:href="#glyph1-9" x="691.402344" y="173.917969"/>
  <use xlink:href="#glyph1-2" x="696.777734" y="173.917969"/>
</g>
<g style="fill:rgb(0%,0%,0%);fill-opacity:1;">
  <use xlink:href="#glyph1-10" x="691.402344" y="191.195313"/>
  <use xlink:href="#glyph1-1" x="697.271875" y="191.195313"/>
</g>
<g style="fill:rgb(0%,0%,0%);fill-opacity:1;">
  <use xlink:href="#glyph1-10" x="691.402344" y="208.476563"/>
  <use xlink:href="#glyph1-4" x="697.271875" y="208.476563"/>
</g>
<g style="fill:rgb(0%,0%,0%);fill-opacity:1;">
  <use xlink:href="#glyph1-10" x="691.402344" y="225.757813"/>
  <use xlink:href="#glyph1-8" x="697.271875" y="225.757813"/>
</g>
<g style="fill:rgb(0%,0%,0%);fill-opacity:1;">
  <use xlink:href="#glyph1-10" x="691.402344" y="243.035156"/>
  <use xlink:href="#glyph1-11" x="697.271875" y="243.035156"/>
</g>
<g style="fill:rgb(0%,0%,0%);fill-opacity:1;">
  <use xlink:href="#glyph1-10" x="691.402344" y="260.316406"/>
  <use xlink:href="#glyph1-12" x="697.271875" y="260.316406"/>
</g>
<g style="fill:rgb(0%,0%,0%);fill-opacity:1;">
  <use xlink:href="#glyph1-12" x="691.402344" y="277.597656"/>
  <use xlink:href="#glyph1-13" x="697.271875" y="277.597656"/>
</g>
<g style="fill:rgb(0%,0%,0%);fill-opacity:1;">
  <use xlink:href="#glyph1-14" x="691.402344" y="294.875"/>
  <use xlink:href="#glyph1-2" x="696.777734" y="294.875"/>
  <use xlink:href="#glyph1-8" x="702.647266" y="294.875"/>
</g>
<g style="fill:rgb(0%,0%,0%);fill-opacity:1;">
  <use xlink:href="#glyph2-1" x="360" y="34.589844"/>
  <use xlink:href="#glyph2-2" x="368.804297" y="34.589844"/>
  <use xlink:href="#glyph2-3" x="376.145508" y="34.589844"/>
  <use xlink:href="#glyph2-4" x="387.141211" y="34.589844"/>
  <use xlink:href="#glyph2-5" x="394.482422" y="34.589844"/>
  <use xlink:href="#glyph2-6" x="397.415039" y="34.589844"/>
  <use xlink:href="#glyph2-7" x="404.75625" y="34.589844"/>
  <use xlink:href="#glyph2-8" x="412.097461" y="34.589844"/>
  <use xlink:href="#glyph2-9" x="420.160547" y="34.589844"/>
  <use xlink:href="#glyph2-4" x="426.760547" y="34.589844"/>
  <use xlink:href="#glyph2-6" x="434.101758" y="34.589844"/>
  <use xlink:href="#glyph2-7" x="441.442969" y="34.589844"/>
  <use xlink:href="#glyph2-10" x="448.78418" y="34.589844"/>
  <use xlink:href="#glyph2-6" x="458.316797" y="34.589844"/>
  <use xlink:href="#glyph2-11" x="465.658008" y="34.589844"/>
  <use xlink:href="#glyph2-12" x="472.999219" y="34.589844"/>
  <use xlink:href="#glyph2-13" x="477.394922" y="34.589844"/>
  <use xlink:href="#glyph2-14" x="484.736133" y="34.589844"/>
  <use xlink:href="#glyph2-7" x="492.077344" y="34.589844"/>
  <use xlink:href="#glyph2-7" x="499.418555" y="34.589844"/>
  <use xlink:href="#glyph2-1" x="506.759766" y="34.589844"/>
  <use xlink:href="#glyph2-5" x="515.564063" y="34.589844"/>
  <use xlink:href="#glyph2-6" x="518.49668" y="34.589844"/>
  <use xlink:href="#glyph2-6" x="525.837891" y="34.589844"/>
  <use xlink:href="#glyph2-4" x="533.179102" y="34.589844"/>
  <use xlink:href="#glyph2-7" x="540.520313" y="34.589844"/>
  <use xlink:href="#glyph2-15" x="547.861523" y="34.589844"/>
  <use xlink:href="#glyph2-13" x="557.394141" y="34.589844"/>
  <use xlink:href="#glyph2-14" x="564.735352" y="34.589844"/>
  <use xlink:href="#glyph2-16" x="572.076563" y="34.589844"/>
  <use xlink:href="#glyph2-17" x="579.417773" y="34.589844"/>
  <use xlink:href="#glyph2-18" x="582.350391" y="34.589844"/>
  <use xlink:href="#glyph2-17" x="586.017773" y="34.589844"/>
  <use xlink:href="#glyph2-13" x="588.950391" y="34.589844"/>
  <use xlink:href="#glyph2-14" x="596.291602" y="34.589844"/>
  <use xlink:href="#glyph2-7" x="603.632813" y="34.589844"/>
  <use xlink:href="#glyph2-22" x="610.974023" y="34.589844"/>
  <use xlink:href="#glyph2-2" x="623.432813" y="34.589844"/>
  <use xlink:href="#glyph2-23" x="630.774023" y="34.589844"/>
  <use xlink:href="#glyph2-17" x="637.374023" y="34.589844"/>
  <use xlink:href="#glyph2-14" x="640.306641" y="34.589844"/>
  <use xlink:href="#glyph2-20" x="647.647852" y="34.589844"/>
  <use xlink:href="#glyph2-7" x="654.989063" y="34.589844"/>
  <use xlink:href="#glyph2-11" x="662.330273" y="34.589844"/>
  <use xlink:href="#glyph2-4" x="669.671484" y="34.589844"/>
</g>
</g>
</svg>
