<?xml version="1.0" encoding="UTF-8"?>
<svg xmlns="http://www.w3.org/2000/svg" xmlns:xlink="http://www.w3.org/1999/xlink" width="720pt" height="360pt" viewBox="0 0 720 360" version="1.1">
<defs>
<g>
<symbol overflow="visible" id="glyph0-0">
<path style="stroke:none;" d="M 1.375 0 L 1.375 -6.875 L 6.875 -6.875 L 6.875 0 Z M 1.546875 -0.171875 L 6.703125 -0.171875 L 6.703125 -6.703125 L 1.546875 -6.703125 Z M 1.546875 -0.171875 "/>
</symbol>
<symbol overflow="visible" id="glyph0-1">
<path style="stroke:none;" d="M 0.804688 0 L 0.804688 -7.875 L 1.847656 -7.875 L 1.847656 -0.929688 L 5.726563 -0.929688 L 5.726563 0 Z M 0.804688 0 "/>
</symbol>
<symbol overflow="visible" id="glyph0-2">
<path style="stroke:none;" d="M 0.730469 -6.761719 L 0.730469 -7.875 L 1.695313 -7.875 L 1.695313 -6.761719 Z M 0.730469 0 L 0.730469 -5.703125 L 1.695313 -5.703125 L 1.695313 0 Z M 0.730469 0 "/>
</symbol>
<symbol overflow="visible" id="glyph0-3">
<path style="stroke:none;" d="M 0.726563 2.1875 L 0.726563 -5.703125 L 1.605469 -5.703125 L 1.605469 -4.960938 C 1.8125 -5.25 2.046875 -5.46875 2.308594 -5.613281 C 2.570313 -5.757813 2.886719 -5.828125 3.261719 -5.832031 C 3.746094 -5.828125 4.175781 -5.703125 4.550781 -5.457031 C 4.921875 -5.203125 5.203125 -4.851563 5.390625 -4.394531 C 5.578125 -3.9375 5.671875 -3.4375 5.675781 -2.894531 C 5.671875 -2.308594 5.566406 -1.78125 5.359375 -1.316406 C 5.148438 -0.847656 4.84375 -0.488281 4.449219 -0.242188 C 4.046875 0.0078125 3.628906 0.128906 3.191406 0.128906 C 2.867188 0.128906 2.578125 0.0625 2.320313 -0.0742188 C 2.0625 -0.210938 1.851563 -0.382813 1.691406 -0.589844 L 1.691406 2.1875 Z M 1.601563 -2.820313 C 1.597656 -2.082031 1.746094 -1.539063 2.046875 -1.191406 C 2.339844 -0.835938 2.699219 -0.660156 3.125 -0.664063 C 3.550781 -0.660156 3.917969 -0.84375 4.226563 -1.210938 C 4.53125 -1.574219 4.6875 -2.136719 4.6875 -2.898438 C 4.6875 -3.625 4.535156 -4.167969 4.238281 -4.53125 C 3.9375 -4.890625 3.582031 -5.074219 3.167969 -5.074219 C 2.753906 -5.074219 2.390625 -4.878906 2.074219 -4.496094 C 1.757813 -4.109375 1.597656 -3.550781 1.601563 -2.820313 Z M 1.601563 -2.820313 "/>
</symbol>
<symbol overflow="visible" id="glyph0-4">
<path style="stroke:none;" d="M 4.425781 0 L 4.425781 -0.71875 C 4.058594 -0.152344 3.527344 0.128906 2.832031 0.128906 C 2.371094 0.128906 1.953125 0.00390625 1.574219 -0.246094 C 1.191406 -0.496094 0.894531 -0.84375 0.6875 -1.296875 C 0.476563 -1.742188 0.375 -2.261719 0.375 -2.847656 C 0.375 -3.414063 0.46875 -3.929688 0.660156 -4.394531 C 0.847656 -4.859375 1.132813 -5.214844 1.515625 -5.460938 C 1.894531 -5.707031 2.320313 -5.828125 2.789063 -5.832031 C 3.132813 -5.828125 3.4375 -5.757813 3.707031 -5.613281 C 3.972656 -5.46875 4.191406 -5.277344 4.359375 -5.046875 L 4.359375 -7.875 L 5.324219 -7.875 L 5.324219 0 Z M 1.371094 -2.847656 C 1.371094 -2.113281 1.523438 -1.566406 1.832031 -1.207031 C 2.136719 -0.84375 2.5 -0.660156 2.921875 -0.664063 C 3.339844 -0.660156 3.699219 -0.835938 3.996094 -1.183594 C 4.292969 -1.527344 4.441406 -2.054688 4.441406 -2.765625 C 4.441406 -3.546875 4.289063 -4.117188 3.988281 -4.484375 C 3.6875 -4.84375 3.316406 -5.027344 2.878906 -5.03125 C 2.445313 -5.027344 2.085938 -4.851563 1.800781 -4.503906 C 1.511719 -4.152344 1.371094 -3.601563 1.371094 -2.847656 Z M 1.371094 -2.847656 "/>
</symbol>
<symbol overflow="visible" id="glyph0-5">
<path style="stroke:none;" d=""/>
</symbol>
<symbol overflow="visible" id="glyph0-6">
<path style="stroke:none;" d="M 4.445313 -2.089844 L 5.398438 -1.964844 C 5.289063 -1.308594 5.023438 -0.796875 4.597656 -0.425781 C 4.167969 -0.0546875 3.644531 0.128906 3.023438 0.128906 C 2.242188 0.128906 1.613281 -0.125 1.140625 -0.636719 C 0.664063 -1.144531 0.425781 -1.875 0.429688 -2.832031 C 0.425781 -3.441406 0.527344 -3.980469 0.734375 -4.445313 C 0.9375 -4.90625 1.25 -5.253906 1.667969 -5.484375 C 2.082031 -5.714844 2.535156 -5.828125 3.03125 -5.832031 C 3.644531 -5.828125 4.152344 -5.671875 4.546875 -5.363281 C 4.941406 -5.046875 5.191406 -4.601563 5.304688 -4.027344 L 4.367188 -3.882813 C 4.273438 -4.261719 4.117188 -4.550781 3.890625 -4.746094 C 3.664063 -4.941406 3.386719 -5.039063 3.066406 -5.039063 C 2.574219 -5.039063 2.179688 -4.863281 1.878906 -4.515625 C 1.570313 -4.164063 1.417969 -3.613281 1.421875 -2.859375 C 1.417969 -2.089844 1.566406 -1.53125 1.863281 -1.183594 C 2.15625 -0.835938 2.539063 -0.660156 3.011719 -0.664063 C 3.390625 -0.660156 3.707031 -0.777344 3.960938 -1.011719 C 4.214844 -1.242188 4.375 -1.601563 4.445313 -2.089844 Z M 4.445313 -2.089844 "/>
</symbol>
<symbol overflow="visible" id="glyph0-7">
<path style="stroke:none;" d="M 0.703125 0 L 0.703125 -7.875 L 1.671875 -7.875 L 1.671875 0 Z M 0.703125 0 "/>
</symbol>
<symbol overflow="visible" id="glyph0-8">
<path style="stroke:none;" d="M 4.445313 -0.703125 C 4.085938 -0.398438 3.742188 -0.183594 3.414063 -0.0585938 C 3.082031 0.0664063 2.726563 0.128906 2.347656 0.128906 C 1.71875 0.128906 1.238281 -0.0234375 0.902344 -0.328125 C 0.566406 -0.632813 0.398438 -1.023438 0.398438 -1.503906 C 0.398438 -1.78125 0.460938 -2.035156 0.585938 -2.269531 C 0.710938 -2.496094 0.875 -2.683594 1.085938 -2.824219 C 1.289063 -2.964844 1.523438 -3.070313 1.78125 -3.140625 C 1.96875 -3.191406 2.253906 -3.238281 2.640625 -3.289063 C 3.417969 -3.375 3.992188 -3.488281 4.367188 -3.621094 C 4.367188 -3.753906 4.371094 -3.835938 4.371094 -3.871094 C 4.371094 -4.265625 4.277344 -4.542969 4.097656 -4.703125 C 3.847656 -4.917969 3.480469 -5.027344 2.996094 -5.03125 C 2.539063 -5.027344 2.203125 -4.949219 1.988281 -4.792969 C 1.769531 -4.632813 1.609375 -4.351563 1.507813 -3.949219 L 0.5625 -4.078125 C 0.648438 -4.480469 0.789063 -4.804688 0.988281 -5.054688 C 1.183594 -5.300781 1.46875 -5.492188 1.84375 -5.628906 C 2.214844 -5.761719 2.644531 -5.828125 3.136719 -5.832031 C 3.621094 -5.828125 4.019531 -5.773438 4.324219 -5.660156 C 4.628906 -5.542969 4.851563 -5.398438 4.996094 -5.226563 C 5.136719 -5.054688 5.238281 -4.835938 5.296875 -4.570313 C 5.328125 -4.40625 5.34375 -4.109375 5.34375 -3.679688 L 5.34375 -2.390625 C 5.34375 -1.492188 5.363281 -0.921875 5.40625 -0.683594 C 5.445313 -0.445313 5.527344 -0.21875 5.648438 0 L 4.640625 0 C 4.539063 -0.199219 4.472656 -0.433594 4.445313 -0.703125 Z M 4.367188 -2.863281 C 4.011719 -2.71875 3.488281 -2.597656 2.789063 -2.496094 C 2.390625 -2.4375 2.105469 -2.371094 1.941406 -2.300781 C 1.773438 -2.226563 1.648438 -2.121094 1.5625 -1.988281 C 1.472656 -1.847656 1.429688 -1.695313 1.429688 -1.53125 C 1.429688 -1.269531 1.527344 -1.054688 1.722656 -0.886719 C 1.917969 -0.710938 2.203125 -0.625 2.578125 -0.628906 C 2.949219 -0.625 3.277344 -0.707031 3.570313 -0.871094 C 3.859375 -1.03125 4.074219 -1.253906 4.210938 -1.542969 C 4.3125 -1.753906 4.363281 -2.078125 4.367188 -2.507813 Z M 4.367188 -2.863281 "/>
</symbol>
<symbol overflow="visible" id="glyph0-9">
<path style="stroke:none;" d="M 0.339844 -1.703125 L 1.292969 -1.851563 C 1.34375 -1.46875 1.492188 -1.171875 1.742188 -0.96875 C 1.984375 -0.761719 2.328125 -0.660156 2.773438 -0.664063 C 3.210938 -0.660156 3.539063 -0.75 3.757813 -0.933594 C 3.96875 -1.113281 4.078125 -1.328125 4.082031 -1.574219 C 4.078125 -1.789063 3.984375 -1.960938 3.796875 -2.089844 C 3.664063 -2.171875 3.332031 -2.28125 2.808594 -2.417969 C 2.097656 -2.59375 1.605469 -2.75 1.332031 -2.882813 C 1.054688 -3.011719 0.847656 -3.191406 0.710938 -3.421875 C 0.566406 -3.652344 0.496094 -3.90625 0.5 -4.1875 C 0.496094 -4.441406 0.554688 -4.675781 0.671875 -4.894531 C 0.785156 -5.105469 0.945313 -5.289063 1.148438 -5.4375 C 1.296875 -5.546875 1.5 -5.636719 1.761719 -5.714844 C 2.019531 -5.789063 2.300781 -5.828125 2.601563 -5.832031 C 3.046875 -5.828125 3.4375 -5.765625 3.777344 -5.636719 C 4.113281 -5.507813 4.363281 -5.332031 4.527344 -5.113281 C 4.6875 -4.890625 4.796875 -4.597656 4.859375 -4.234375 L 3.914063 -4.101563 C 3.871094 -4.394531 3.746094 -4.621094 3.542969 -4.789063 C 3.335938 -4.953125 3.042969 -5.039063 2.667969 -5.039063 C 2.222656 -5.039063 1.90625 -4.964844 1.71875 -4.816406 C 1.523438 -4.667969 1.429688 -4.496094 1.433594 -4.300781 C 1.429688 -4.175781 1.46875 -4.0625 1.550781 -3.964844 C 1.628906 -3.859375 1.753906 -3.773438 1.921875 -3.707031 C 2.015625 -3.667969 2.300781 -3.585938 2.777344 -3.460938 C 3.460938 -3.273438 3.9375 -3.121094 4.207031 -3.007813 C 4.476563 -2.890625 4.6875 -2.722656 4.84375 -2.503906 C 4.996094 -2.277344 5.074219 -2.003906 5.074219 -1.675781 C 5.074219 -1.351563 4.980469 -1.046875 4.792969 -0.765625 C 4.605469 -0.480469 4.332031 -0.261719 3.980469 -0.105469 C 3.621094 0.0507813 3.222656 0.128906 2.777344 0.128906 C 2.035156 0.128906 1.46875 -0.0234375 1.082031 -0.332031 C 0.691406 -0.640625 0.445313 -1.097656 0.339844 -1.703125 Z M 0.339844 -1.703125 "/>
</symbol>
<symbol overflow="visible" id="glyph1-0">
<path style="stroke:none;" d="M 1.101563 0 L 1.101563 -5.5 L 5.5 -5.5 L 5.5 0 Z M 1.238281 -0.136719 L 5.363281 -0.136719 L 5.363281 -5.363281 L 1.238281 -5.363281 Z M 1.238281 -0.136719 "/>
</symbol>
<symbol overflow="visible" id="glyph1-1">
<path style="stroke:none;" d="M 5.171875 -2.207031 L 6.007813 -2 C 5.828125 -1.3125 5.515625 -0.789063 5.0625 -0.429688 C 4.609375 -0.0703125 4.054688 0.105469 3.398438 0.109375 C 2.71875 0.105469 2.164063 -0.03125 1.742188 -0.304688 C 1.3125 -0.582031 0.988281 -0.980469 0.769531 -1.507813 C 0.542969 -2.027344 0.433594 -2.589844 0.4375 -3.195313 C 0.433594 -3.847656 0.558594 -4.421875 0.8125 -4.910156 C 1.0625 -5.398438 1.417969 -5.769531 1.882813 -6.023438 C 2.34375 -6.277344 2.855469 -6.402344 3.410156 -6.40625 C 4.039063 -6.402344 4.566406 -6.242188 5 -5.925781 C 5.425781 -5.601563 5.726563 -5.152344 5.898438 -4.570313 L 5.078125 -4.378906 C 4.929688 -4.832031 4.71875 -5.167969 4.441406 -5.378906 C 4.164063 -5.589844 3.8125 -5.695313 3.394531 -5.695313 C 2.90625 -5.695313 2.503906 -5.578125 2.179688 -5.34375 C 1.851563 -5.109375 1.621094 -4.796875 1.492188 -4.410156 C 1.359375 -4.015625 1.292969 -3.613281 1.296875 -3.203125 C 1.292969 -2.664063 1.371094 -2.195313 1.53125 -1.796875 C 1.683594 -1.394531 1.925781 -1.097656 2.257813 -0.902344 C 2.585938 -0.703125 2.945313 -0.601563 3.332031 -0.605469 C 3.796875 -0.601563 4.191406 -0.738281 4.515625 -1.007813 C 4.835938 -1.277344 5.054688 -1.675781 5.171875 -2.207031 Z M 5.171875 -2.207031 "/>
</symbol>
<symbol overflow="visible" id="glyph1-2">
<path style="stroke:none;" d="M -0.0117188 0 L 2.40625 -6.300781 L 3.304688 -6.300781 L 5.882813 0 L 4.933594 0 L 4.199219 -1.90625 L 1.5625 -1.90625 L 0.871094 0 Z M 1.804688 -2.585938 L 3.941406 -2.585938 L 3.28125 -4.332031 C 3.078125 -4.855469 2.929688 -5.292969 2.835938 -5.636719 C 2.753906 -5.230469 2.640625 -4.828125 2.496094 -4.433594 Z M 1.804688 -2.585938 "/>
</symbol>
<symbol overflow="visible" id="glyph1-3">
<path style="stroke:none;" d="M 0.691406 0 L 0.691406 -6.300781 L 3.484375 -6.300781 C 4.042969 -6.296875 4.46875 -6.242188 4.765625 -6.128906 C 5.054688 -6.015625 5.289063 -5.816406 5.464844 -5.53125 C 5.636719 -5.242188 5.722656 -4.925781 5.726563 -4.582031 C 5.722656 -4.132813 5.578125 -3.753906 5.292969 -3.449219 C 5 -3.140625 4.554688 -2.945313 3.953125 -2.867188 C 4.171875 -2.757813 4.339844 -2.652344 4.457031 -2.550781 C 4.695313 -2.324219 4.925781 -2.046875 5.148438 -1.714844 L 6.242188 0 L 5.195313 0 L 4.359375 -1.3125 C 4.117188 -1.6875 3.914063 -1.976563 3.757813 -2.179688 C 3.597656 -2.378906 3.457031 -2.515625 3.335938 -2.597656 C 3.207031 -2.675781 3.082031 -2.734375 2.957031 -2.765625 C 2.859375 -2.785156 2.703125 -2.792969 2.492188 -2.796875 L 1.527344 -2.796875 L 1.527344 0 Z M 1.527344 -3.519531 L 3.316406 -3.519531 C 3.699219 -3.515625 3.996094 -3.554688 4.210938 -3.636719 C 4.421875 -3.710938 4.585938 -3.835938 4.699219 -4.011719 C 4.808594 -4.183594 4.863281 -4.375 4.867188 -4.582031 C 4.863281 -4.878906 4.753906 -5.121094 4.542969 -5.3125 C 4.324219 -5.503906 3.984375 -5.601563 3.519531 -5.601563 L 1.527344 -5.601563 Z M 1.527344 -3.519531 "/>
</symbol>
<symbol overflow="visible" id="glyph1-4">
<path style="stroke:none;" d="M 0.695313 0 L 0.695313 -6.300781 L 5.25 -6.300781 L 5.25 -5.554688 L 1.53125 -5.554688 L 1.53125 -3.625 L 5.015625 -3.625 L 5.015625 -2.886719 L 1.53125 -2.886719 L 1.53125 -0.742188 L 5.398438 -0.742188 L 5.398438 0 Z M 0.695313 0 "/>
</symbol>
<symbol overflow="visible" id="glyph1-5">
<path style="stroke:none;" d="M 3.703125 -1.46875 L 4.503906 -1.371094 C 4.375 -0.902344 4.140625 -0.539063 3.800781 -0.285156 C 3.460938 -0.0273438 3.027344 0.0976563 2.496094 0.101563 C 1.828125 0.0976563 1.296875 -0.101563 0.90625 -0.511719 C 0.511719 -0.917969 0.316406 -1.496094 0.320313 -2.242188 C 0.316406 -3.007813 0.515625 -3.605469 0.914063 -4.03125 C 1.308594 -4.453125 1.820313 -4.664063 2.453125 -4.667969 C 3.058594 -4.664063 3.554688 -4.457031 3.945313 -4.042969 C 4.328125 -3.628906 4.523438 -3.042969 4.527344 -2.289063 C 4.523438 -2.242188 4.523438 -2.175781 4.523438 -2.085938 L 1.121094 -2.085938 C 1.144531 -1.582031 1.289063 -1.195313 1.546875 -0.929688 C 1.800781 -0.660156 2.117188 -0.527344 2.5 -0.53125 C 2.78125 -0.527344 3.023438 -0.601563 3.226563 -0.753906 C 3.425781 -0.902344 3.585938 -1.140625 3.703125 -1.46875 Z M 1.164063 -2.71875 L 3.710938 -2.71875 C 3.671875 -3.101563 3.578125 -3.386719 3.421875 -3.582031 C 3.171875 -3.878906 2.851563 -4.03125 2.460938 -4.03125 C 2.105469 -4.03125 1.804688 -3.910156 1.566406 -3.671875 C 1.320313 -3.433594 1.1875 -3.117188 1.164063 -2.71875 Z M 1.164063 -2.71875 "/>
</symbol>
<symbol overflow="visible" id="glyph1-6">
<path style="stroke:none;" d="M 0.570313 0 L 0.570313 -4.5625 L 1.265625 -4.5625 L 1.265625 -3.871094 C 1.445313 -4.191406 1.609375 -4.40625 1.757813 -4.511719 C 1.90625 -4.613281 2.070313 -4.664063 2.257813 -4.667969 C 2.515625 -4.664063 2.78125 -4.582031 3.050781 -4.417969 L 2.785156 -3.699219 C 2.589844 -3.808594 2.402344 -3.867188 2.21875 -3.867188 C 2.046875 -3.867188 1.894531 -3.816406 1.761719 -3.714844 C 1.625 -3.613281 1.527344 -3.472656 1.472656 -3.292969 C 1.382813 -3.015625 1.339844 -2.714844 1.34375 -2.390625 L 1.34375 0 Z M 0.570313 0 "/>
</symbol>
<symbol overflow="visible" id="glyph1-7">
<path style="stroke:none;" d="M 0.679688 0 L 0.679688 -6.300781 L 2.847656 -6.300781 C 3.335938 -6.296875 3.707031 -6.269531 3.96875 -6.210938 C 4.328125 -6.125 4.636719 -5.972656 4.894531 -5.757813 C 5.222656 -5.472656 5.472656 -5.113281 5.636719 -4.679688 C 5.800781 -4.242188 5.882813 -3.742188 5.886719 -3.183594 C 5.882813 -2.699219 5.828125 -2.277344 5.71875 -1.910156 C 5.605469 -1.542969 5.460938 -1.238281 5.289063 -0.996094 C 5.113281 -0.753906 4.921875 -0.5625 4.714844 -0.421875 C 4.507813 -0.28125 4.257813 -0.175781 3.964844 -0.105469 C 3.667969 -0.0351563 3.332031 0 2.953125 0 Z M 1.511719 -0.742188 L 2.859375 -0.742188 C 3.273438 -0.738281 3.597656 -0.777344 3.832031 -0.859375 C 4.066406 -0.933594 4.253906 -1.042969 4.398438 -1.1875 C 4.59375 -1.382813 4.746094 -1.648438 4.859375 -1.984375 C 4.96875 -2.316406 5.027344 -2.71875 5.027344 -3.195313 C 5.027344 -3.851563 4.917969 -4.359375 4.703125 -4.714844 C 4.484375 -5.066406 4.222656 -5.304688 3.914063 -5.425781 C 3.6875 -5.511719 3.328125 -5.554688 2.835938 -5.554688 L 1.511719 -5.554688 Z M 1.511719 -0.742188 "/>
</symbol>
<symbol overflow="visible" id="glyph1-8">
<path style="stroke:none;" d="M 3.625 -2.46875 L 3.625 -3.210938 L 6.296875 -3.214844 L 6.296875 -0.875 C 5.882813 -0.546875 5.460938 -0.300781 5.027344 -0.136719 C 4.589844 0.0273438 4.140625 0.105469 3.6875 0.109375 C 3.0625 0.105469 2.5 -0.0234375 2 -0.289063 C 1.492188 -0.550781 1.113281 -0.933594 0.855469 -1.4375 C 0.597656 -1.9375 0.46875 -2.5 0.46875 -3.121094 C 0.46875 -3.730469 0.59375 -4.300781 0.851563 -4.835938 C 1.105469 -5.363281 1.476563 -5.757813 1.957031 -6.019531 C 2.4375 -6.273438 2.992188 -6.402344 3.621094 -6.40625 C 4.074219 -6.402344 4.484375 -6.328125 4.855469 -6.183594 C 5.222656 -6.035156 5.511719 -5.832031 5.722656 -5.566406 C 5.929688 -5.300781 6.089844 -4.957031 6.199219 -4.539063 L 5.449219 -4.332031 C 5.351563 -4.648438 5.230469 -4.902344 5.09375 -5.085938 C 4.953125 -5.269531 4.753906 -5.414063 4.492188 -5.527344 C 4.230469 -5.636719 3.941406 -5.695313 3.625 -5.695313 C 3.242188 -5.695313 2.914063 -5.636719 2.636719 -5.519531 C 2.359375 -5.402344 2.132813 -5.246094 1.964844 -5.058594 C 1.792969 -4.867188 1.664063 -4.660156 1.570313 -4.4375 C 1.40625 -4.046875 1.324219 -3.625 1.328125 -3.171875 C 1.324219 -2.605469 1.421875 -2.136719 1.617188 -1.761719 C 1.808594 -1.382813 2.089844 -1.101563 2.460938 -0.917969 C 2.828125 -0.734375 3.21875 -0.644531 3.640625 -0.644531 C 3.996094 -0.644531 4.347656 -0.710938 4.695313 -0.851563 C 5.035156 -0.988281 5.296875 -1.136719 5.476563 -1.296875 L 5.476563 -2.46875 Z M 3.625 -2.46875 "/>
</symbol>
<symbol overflow="visible" id="glyph1-9">
<path style="stroke:none;" d="M 0.722656 0 L 0.722656 -6.300781 L 4.972656 -6.300781 L 4.972656 -5.554688 L 1.554688 -5.554688 L 1.554688 -3.605469 L 4.511719 -3.605469 L 4.511719 -2.863281 L 1.554688 -2.863281 L 1.554688 0 Z M 0.722656 0 "/>
</symbol>
<symbol overflow="visible" id="glyph1-10">
<path style="stroke:none;" d="M 0.679688 0 L 0.679688 -6.300781 L 3.054688 -6.300781 C 3.46875 -6.296875 3.789063 -6.277344 4.011719 -6.238281 C 4.320313 -6.183594 4.578125 -6.085938 4.789063 -5.941406 C 4.996094 -5.796875 5.167969 -5.59375 5.296875 -5.335938 C 5.421875 -5.074219 5.484375 -4.789063 5.488281 -4.476563 C 5.484375 -3.941406 5.3125 -3.488281 4.976563 -3.117188 C 4.632813 -2.746094 4.019531 -2.558594 3.128906 -2.5625 L 1.511719 -2.5625 L 1.511719 0 Z M 1.511719 -3.304688 L 3.140625 -3.304688 C 3.679688 -3.304688 4.0625 -3.402344 4.289063 -3.605469 C 4.515625 -3.800781 4.628906 -4.085938 4.628906 -4.453125 C 4.628906 -4.714844 4.558594 -4.9375 4.425781 -5.128906 C 4.289063 -5.3125 4.117188 -5.4375 3.902344 -5.5 C 3.761719 -5.535156 3.5 -5.554688 3.125 -5.554688 L 1.511719 -5.554688 Z M 1.511719 -3.304688 "/>
</symbol>
<symbol overflow="visible" id="glyph1-11">
<path style="stroke:none;" d="M 0.820313 0 L 0.820313 -6.300781 L 1.65625 -6.300781 L 1.65625 0 Z M 0.820313 0 "/>
</symbol>
<symbol overflow="visible" id="glyph1-12">
<path style="stroke:none;" d="M 0.394531 -2.023438 L 1.179688 -2.09375 C 1.214844 -1.773438 1.304688 -1.515625 1.441406 -1.316406 C 1.574219 -1.113281 1.785156 -0.949219 2.074219 -0.828125 C 2.359375 -0.699219 2.679688 -0.636719 3.042969 -0.640625 C 3.355469 -0.636719 3.636719 -0.683594 3.882813 -0.78125 C 4.125 -0.875 4.304688 -1.007813 4.425781 -1.171875 C 4.542969 -1.335938 4.605469 -1.515625 4.605469 -1.710938 C 4.605469 -1.90625 4.546875 -2.078125 4.433594 -2.226563 C 4.316406 -2.375 4.128906 -2.5 3.867188 -2.601563 C 3.695313 -2.664063 3.320313 -2.765625 2.746094 -2.90625 C 2.164063 -3.046875 1.757813 -3.175781 1.53125 -3.300781 C 1.226563 -3.453125 1.003906 -3.648438 0.855469 -3.886719 C 0.707031 -4.117188 0.632813 -4.378906 0.636719 -4.671875 C 0.632813 -4.984375 0.722656 -5.28125 0.90625 -5.5625 C 1.082031 -5.835938 1.34375 -6.046875 1.695313 -6.191406 C 2.039063 -6.332031 2.425781 -6.402344 2.851563 -6.40625 C 3.316406 -6.402344 3.730469 -6.328125 4.089844 -6.179688 C 4.445313 -6.027344 4.71875 -5.804688 4.910156 -5.515625 C 5.101563 -5.21875 5.203125 -4.890625 5.21875 -4.523438 L 4.421875 -4.464844 C 4.375 -4.863281 4.230469 -5.164063 3.984375 -5.367188 C 3.734375 -5.570313 3.367188 -5.671875 2.886719 -5.671875 C 2.382813 -5.671875 2.015625 -5.578125 1.785156 -5.394531 C 1.554688 -5.207031 1.441406 -4.984375 1.441406 -4.726563 C 1.441406 -4.496094 1.519531 -4.308594 1.683594 -4.167969 C 1.839844 -4.019531 2.261719 -3.871094 2.941406 -3.71875 C 3.617188 -3.5625 4.082031 -3.429688 4.335938 -3.316406 C 4.703125 -3.144531 4.972656 -2.929688 5.148438 -2.671875 C 5.320313 -2.414063 5.40625 -2.113281 5.410156 -1.777344 C 5.40625 -1.441406 5.3125 -1.128906 5.121094 -0.832031 C 4.929688 -0.535156 4.652344 -0.300781 4.292969 -0.136719 C 3.929688 0.0273438 3.527344 0.105469 3.082031 0.109375 C 2.511719 0.105469 2.03125 0.0234375 1.648438 -0.140625 C 1.257813 -0.304688 0.957031 -0.554688 0.742188 -0.890625 C 0.519531 -1.222656 0.402344 -1.597656 0.394531 -2.023438 Z M 0.394531 -2.023438 "/>
</symbol>
<symbol overflow="visible" id="glyph1-13">
<path style="stroke:none;" d="M 0.652344 0 L 0.652344 -6.300781 L 1.90625 -6.300781 L 3.398438 -1.839844 C 3.535156 -1.421875 3.632813 -1.109375 3.699219 -0.90625 C 3.769531 -1.132813 3.882813 -1.46875 4.035156 -1.917969 L 5.542969 -6.300781 L 6.664063 -6.300781 L 6.664063 0 L 5.859375 0 L 5.859375 -5.273438 L 4.03125 0 L 3.277344 0 L 1.457031 -5.363281 L 1.457031 0 Z M 0.652344 0 "/>
</symbol>
<symbol overflow="visible" id="glyph1-14">
<path style="stroke:none;" d="M 2.28125 0 L 2.28125 -5.554688 L 0.207031 -5.554688 L 0.207031 -6.300781 L 5.199219 -6.300781 L 5.199219 -5.554688 L 3.117188 -5.554688 L 3.117188 0 Z M 2.28125 0 "/>
</symbol>
<symbol overflow="visible" id="glyph2-0">
<path style="stroke:none;" d="M 1.648438 0 L 1.648438 -8.25 L 8.25 -8.25 L 8.25 0 Z M 1.855469 -0.207031 L 8.042969 -0.207031 L 8.042969 -8.042969 L 1.855469 -8.042969 Z M 1.855469 -0.207031 "/>
</symbol>
<symbol overflow="visible" id="glyph2-1">
<path style="stroke:none;" d="M 0.59375 -3.035156 L 1.773438 -3.140625 C 1.824219 -2.664063 1.953125 -2.273438 2.160156 -1.972656 C 2.363281 -1.667969 2.679688 -1.421875 3.113281 -1.238281 C 3.539063 -1.050781 4.023438 -0.960938 4.5625 -0.960938 C 5.035156 -0.960938 5.457031 -1.03125 5.824219 -1.171875 C 6.191406 -1.3125 6.460938 -1.503906 6.640625 -1.753906 C 6.816406 -1.996094 6.90625 -2.269531 6.910156 -2.566406 C 6.90625 -2.863281 6.820313 -3.121094 6.652344 -3.339844 C 6.476563 -3.558594 6.195313 -3.742188 5.800781 -3.898438 C 5.546875 -3.992188 4.984375 -4.148438 4.117188 -4.359375 C 3.246094 -4.566406 2.636719 -4.761719 2.292969 -4.949219 C 1.839844 -5.183594 1.503906 -5.476563 1.285156 -5.828125 C 1.058594 -6.175781 0.949219 -6.570313 0.953125 -7.007813 C 0.949219 -7.484375 1.085938 -7.929688 1.359375 -8.34375 C 1.628906 -8.757813 2.023438 -9.070313 2.542969 -9.285156 C 3.0625 -9.5 3.640625 -9.609375 4.28125 -9.609375 C 4.980469 -9.609375 5.597656 -9.496094 6.132813 -9.269531 C 6.664063 -9.042969 7.074219 -8.710938 7.363281 -8.273438 C 7.648438 -7.835938 7.804688 -7.339844 7.832031 -6.785156 L 6.632813 -6.695313 C 6.566406 -7.292969 6.347656 -7.746094 5.976563 -8.050781 C 5.605469 -8.355469 5.054688 -8.507813 4.332031 -8.507813 C 3.570313 -8.507813 3.019531 -8.367188 2.675781 -8.089844 C 2.328125 -7.8125 2.15625 -7.480469 2.160156 -7.089844 C 2.15625 -6.75 2.277344 -6.46875 2.527344 -6.25 C 2.761719 -6.027344 3.390625 -5.804688 4.410156 -5.578125 C 5.425781 -5.347656 6.125 -5.144531 6.503906 -4.976563 C 7.050781 -4.71875 7.453125 -4.398438 7.71875 -4.011719 C 7.976563 -3.621094 8.109375 -3.171875 8.113281 -2.667969 C 8.109375 -2.160156 7.964844 -1.6875 7.679688 -1.246094 C 7.390625 -0.796875 6.976563 -0.449219 6.441406 -0.207031 C 5.898438 0.0390625 5.292969 0.15625 4.621094 0.160156 C 3.765625 0.15625 3.050781 0.0351563 2.472656 -0.210938 C 1.894531 -0.460938 1.4375 -0.835938 1.109375 -1.335938 C 0.777344 -1.835938 0.605469 -2.402344 0.59375 -3.035156 Z M 0.59375 -3.035156 "/>
</symbol>
<symbol overflow="visible" id="glyph2-2">
<path style="stroke:none;" d="M 5.335938 -0.84375 C 4.902344 -0.476563 4.488281 -0.21875 4.09375 -0.0703125 C 3.695313 0.078125 3.269531 0.152344 2.816406 0.15625 C 2.0625 0.152344 1.484375 -0.0273438 1.082031 -0.394531 C 0.675781 -0.761719 0.472656 -1.234375 0.476563 -1.804688 C 0.472656 -2.140625 0.550781 -2.445313 0.703125 -2.722656 C 0.855469 -3 1.054688 -3.222656 1.304688 -3.390625 C 1.550781 -3.554688 1.828125 -3.679688 2.140625 -3.769531 C 2.363281 -3.824219 2.707031 -3.882813 3.171875 -3.945313 C 4.105469 -4.054688 4.796875 -4.1875 5.238281 -4.34375 C 5.242188 -4.5 5.242188 -4.601563 5.246094 -4.648438 C 5.242188 -5.117188 5.132813 -5.449219 4.917969 -5.644531 C 4.617188 -5.902344 4.179688 -6.035156 3.597656 -6.039063 C 3.050781 -6.035156 2.644531 -5.9375 2.386719 -5.75 C 2.125 -5.554688 1.933594 -5.21875 1.8125 -4.738281 L 0.675781 -4.890625 C 0.777344 -5.375 0.949219 -5.765625 1.183594 -6.066406 C 1.417969 -6.363281 1.757813 -6.59375 2.210938 -6.757813 C 2.65625 -6.914063 3.175781 -6.996094 3.765625 -7 C 4.347656 -6.996094 4.820313 -6.925781 5.1875 -6.792969 C 5.546875 -6.652344 5.816406 -6.480469 5.992188 -6.273438 C 6.160156 -6.0625 6.28125 -5.800781 6.355469 -5.484375 C 6.390625 -5.285156 6.410156 -4.925781 6.414063 -4.414063 L 6.414063 -2.867188 C 6.410156 -1.785156 6.433594 -1.105469 6.488281 -0.820313 C 6.535156 -0.535156 6.632813 -0.261719 6.78125 0 L 5.570313 0 C 5.445313 -0.238281 5.367188 -0.519531 5.335938 -0.84375 Z M 5.238281 -3.433594 C 4.816406 -3.261719 4.183594 -3.113281 3.34375 -2.996094 C 2.863281 -2.925781 2.527344 -2.851563 2.332031 -2.765625 C 2.132813 -2.679688 1.980469 -2.550781 1.875 -2.386719 C 1.765625 -2.21875 1.710938 -2.035156 1.714844 -1.835938 C 1.710938 -1.523438 1.828125 -1.265625 2.066406 -1.0625 C 2.296875 -0.851563 2.640625 -0.75 3.09375 -0.753906 C 3.539063 -0.75 3.933594 -0.847656 4.285156 -1.046875 C 4.628906 -1.238281 4.886719 -1.507813 5.054688 -1.851563 C 5.175781 -2.109375 5.238281 -2.496094 5.238281 -3.011719 Z M 5.238281 -3.433594 "/>
</symbol>
<symbol overflow="visible" id="glyph2-3">
<path style="stroke:none;" d="M 0.871094 0 L 0.871094 -6.84375 L 1.90625 -6.84375 L 1.90625 -5.882813 C 2.117188 -6.21875 2.40625 -6.488281 2.765625 -6.691406 C 3.121094 -6.894531 3.527344 -6.996094 3.984375 -7 C 4.488281 -6.996094 4.902344 -6.890625 5.230469 -6.683594 C 5.554688 -6.46875 5.785156 -6.175781 5.917969 -5.800781 C 6.457031 -6.597656 7.160156 -6.996094 8.03125 -7 C 8.707031 -6.996094 9.230469 -6.808594 9.597656 -6.433594 C 9.960938 -6.058594 10.140625 -5.480469 10.144531 -4.699219 L 10.144531 0 L 8.992188 0 L 8.992188 -4.3125 C 8.988281 -4.773438 8.949219 -5.105469 8.878906 -5.3125 C 8.800781 -5.515625 8.664063 -5.679688 8.46875 -5.804688 C 8.265625 -5.925781 8.035156 -5.988281 7.773438 -5.992188 C 7.289063 -5.988281 6.890625 -5.828125 6.574219 -5.511719 C 6.253906 -5.191406 6.09375 -4.679688 6.097656 -3.976563 L 6.097656 0 L 4.9375 0 L 4.9375 -4.445313 C 4.933594 -4.957031 4.839844 -5.34375 4.652344 -5.605469 C 4.464844 -5.859375 4.15625 -5.988281 3.726563 -5.992188 C 3.398438 -5.988281 3.09375 -5.902344 2.816406 -5.734375 C 2.539063 -5.558594 2.339844 -5.308594 2.214844 -4.980469 C 2.089844 -4.648438 2.027344 -4.171875 2.03125 -3.550781 L 2.03125 0 Z M 0.871094 0 "/>
</symbol>
<symbol overflow="visible" id="glyph2-4">
<path style="stroke:none;" d="M 0.871094 2.625 L 0.871094 -6.84375 L 1.925781 -6.84375 L 1.925781 -5.957031 C 2.171875 -6.300781 2.453125 -6.5625 2.769531 -6.738281 C 3.082031 -6.910156 3.464844 -6.996094 3.914063 -7 C 4.496094 -6.996094 5.007813 -6.84375 5.457031 -6.546875 C 5.902344 -6.242188 6.242188 -5.820313 6.46875 -5.273438 C 6.695313 -4.726563 6.808594 -4.125 6.8125 -3.472656 C 6.808594 -2.769531 6.683594 -2.140625 6.433594 -1.582031 C 6.183594 -1.019531 5.816406 -0.589844 5.339844 -0.292969 C 4.855469 0.00390625 4.351563 0.152344 3.828125 0.15625 C 3.4375 0.152344 3.09375 0.0742188 2.789063 -0.0898438 C 2.480469 -0.25 2.226563 -0.457031 2.03125 -0.710938 L 2.03125 2.625 Z M 1.921875 -3.382813 C 1.921875 -2.5 2.097656 -1.851563 2.457031 -1.429688 C 2.808594 -1.007813 3.242188 -0.796875 3.75 -0.800781 C 4.265625 -0.796875 4.707031 -1.015625 5.074219 -1.453125 C 5.441406 -1.890625 5.625 -2.566406 5.625 -3.480469 C 5.625 -4.351563 5.445313 -5.003906 5.085938 -5.4375 C 4.726563 -5.871094 4.296875 -6.085938 3.804688 -6.089844 C 3.304688 -6.085938 2.867188 -5.855469 2.492188 -5.394531 C 2.109375 -4.929688 1.921875 -4.257813 1.921875 -3.382813 Z M 1.921875 -3.382813 "/>
</symbol>
<symbol overflow="visible" id="glyph2-5">
<path style="stroke:none;" d="M 0.84375 0 L 0.84375 -9.449219 L 2.003906 -9.449219 L 2.003906 0 Z M 0.84375 0 "/>
</symbol>
<symbol overflow="visible" id="glyph2-6">
<path style="stroke:none;" d="M 5.554688 -2.203125 L 6.753906 -2.054688 C 6.5625 -1.351563 6.210938 -0.808594 5.703125 -0.421875 C 5.1875 -0.0390625 4.535156 0.152344 3.746094 0.15625 C 2.738281 0.152344 1.945313 -0.152344 1.363281 -0.769531 C 0.773438 -1.382813 0.480469 -2.25 0.484375 -3.363281 C 0.480469 -4.515625 0.777344 -5.410156 1.371094 -6.046875 C 1.964844 -6.679688 2.734375 -6.996094 3.679688 -7 C 4.59375 -6.996094 5.339844 -6.683594 5.921875 -6.0625 C 6.5 -5.4375 6.789063 -4.5625 6.792969 -3.433594 C 6.789063 -3.363281 6.789063 -3.257813 6.785156 -3.125 L 1.683594 -3.125 C 1.722656 -2.371094 1.9375 -1.796875 2.320313 -1.398438 C 2.703125 -0.996094 3.179688 -0.796875 3.75 -0.800781 C 4.175781 -0.796875 4.539063 -0.90625 4.839844 -1.132813 C 5.140625 -1.351563 5.378906 -1.710938 5.554688 -2.203125 Z M 1.746094 -4.078125 L 5.570313 -4.078125 C 5.515625 -4.65625 5.367188 -5.085938 5.128906 -5.375 C 4.757813 -5.820313 4.28125 -6.046875 3.691406 -6.046875 C 3.160156 -6.046875 2.710938 -5.867188 2.347656 -5.511719 C 1.984375 -5.152344 1.785156 -4.675781 1.746094 -4.078125 Z M 1.746094 -4.078125 "/>
</symbol>
<symbol overflow="visible" id="glyph2-7">
<path style="stroke:none;" d="M -0.199219 2.625 L -0.199219 1.785156 L 7.488281 1.785156 L 7.488281 2.625 Z M -0.199219 2.625 "/>
</symbol>
<symbol overflow="visible" id="glyph2-8">
<path style="stroke:none;" d="M 3.421875 0 L 3.421875 -8.332031 L 0.308594 -8.332031 L 0.308594 -9.449219 L 7.796875 -9.449219 L 7.796875 -8.332031 L 4.671875 -8.332031 L 4.671875 0 Z M 3.421875 0 "/>
</symbol>
<symbol overflow="visible" id="glyph2-9">
<path style="stroke:none;" d="M 0.820313 2.636719 L 0.691406 1.546875 C 0.941406 1.613281 1.160156 1.644531 1.351563 1.648438 C 1.609375 1.644531 1.816406 1.601563 1.972656 1.519531 C 2.125 1.429688 2.25 1.3125 2.351563 1.160156 C 2.421875 1.042969 2.542969 0.753906 2.707031 0.296875 C 2.726563 0.230469 2.757813 0.136719 2.808594 0.0117188 L 0.210938 -6.84375 L 1.464844 -6.84375 L 2.886719 -2.882813 C 3.070313 -2.375 3.234375 -1.84375 3.382813 -1.296875 C 3.511719 -1.824219 3.671875 -2.34375 3.859375 -2.855469 L 5.324219 -6.84375 L 6.484375 -6.84375 L 3.878906 0.117188 C 3.597656 0.867188 3.378906 1.382813 3.230469 1.667969 C 3.019531 2.046875 2.785156 2.328125 2.519531 2.507813 C 2.253906 2.6875 1.933594 2.777344 1.566406 2.777344 C 1.339844 2.777344 1.09375 2.730469 0.820313 2.636719 Z M 0.820313 2.636719 "/>
</symbol>
<symbol overflow="visible" id="glyph2-10">
<path style="stroke:none;" d="M 1.003906 0 L 1.003906 -9.449219 L 2.289063 -9.449219 L 7.25 -2.03125 L 7.25 -9.449219 L 8.449219 -9.449219 L 8.449219 0 L 7.167969 0 L 2.203125 -7.425781 L 2.203125 0 Z M 1.003906 0 "/>
</symbol>
<symbol overflow="visible" id="glyph2-11">
<path style="stroke:none;" d="M 5.355469 0 L 5.355469 -1.003906 C 4.824219 -0.230469 4.097656 0.152344 3.183594 0.15625 C 2.777344 0.152344 2.402344 0.078125 2.050781 -0.0742188 C 1.699219 -0.226563 1.4375 -0.421875 1.273438 -0.660156 C 1.101563 -0.890625 0.984375 -1.175781 0.914063 -1.519531 C 0.867188 -1.746094 0.84375 -2.109375 0.84375 -2.605469 L 0.84375 -6.84375 L 2.003906 -6.84375 L 2.003906 -3.046875 C 2.003906 -2.441406 2.027344 -2.03125 2.074219 -1.824219 C 2.144531 -1.515625 2.296875 -1.277344 2.539063 -1.105469 C 2.773438 -0.929688 3.066406 -0.84375 3.414063 -0.84375 C 3.761719 -0.84375 4.089844 -0.929688 4.394531 -1.109375 C 4.699219 -1.285156 4.914063 -1.53125 5.042969 -1.839844 C 5.167969 -2.144531 5.230469 -2.589844 5.234375 -3.175781 L 5.234375 -6.84375 L 6.394531 -6.84375 L 6.394531 0 Z M 5.355469 0 "/>
</symbol>
<symbol overflow="visible" id="glyph2-12">
<path style="stroke:none;" d="M 0.855469 0 L 0.855469 -6.84375 L 1.902344 -6.84375 L 1.902344 -5.808594 C 2.164063 -6.289063 2.410156 -6.609375 2.636719 -6.765625 C 2.863281 -6.917969 3.109375 -6.996094 3.382813 -7 C 3.769531 -6.996094 4.167969 -6.871094 4.578125 -6.625 L 4.175781 -5.550781 C 3.890625 -5.714844 3.605469 -5.800781 3.324219 -5.800781 C 3.066406 -5.800781 2.839844 -5.722656 2.640625 -5.570313 C 2.4375 -5.417969 2.292969 -5.207031 2.210938 -4.9375 C 2.078125 -4.523438 2.015625 -4.070313 2.015625 -3.582031 L 2.015625 0 Z M 0.855469 0 "/>
</symbol>
<symbol overflow="visible" id="glyph2-13">
<path style="stroke:none;" d="M 0.4375 -3.421875 C 0.433594 -4.6875 0.785156 -5.625 1.496094 -6.238281 C 2.082031 -6.742188 2.800781 -6.996094 3.648438 -7 C 4.585938 -6.996094 5.355469 -6.6875 5.953125 -6.074219 C 6.550781 -5.453125 6.847656 -4.601563 6.851563 -3.519531 C 6.847656 -2.636719 6.714844 -1.945313 6.453125 -1.441406 C 6.1875 -0.933594 5.804688 -0.539063 5.300781 -0.261719 C 4.792969 0.015625 4.242188 0.152344 3.648438 0.15625 C 2.6875 0.152344 1.914063 -0.152344 1.324219 -0.765625 C 0.730469 -1.378906 0.433594 -2.265625 0.4375 -3.421875 Z M 1.628906 -3.421875 C 1.628906 -2.546875 1.820313 -1.890625 2.203125 -1.453125 C 2.585938 -1.015625 3.066406 -0.796875 3.648438 -0.800781 C 4.222656 -0.796875 4.703125 -1.015625 5.085938 -1.457031 C 5.46875 -1.890625 5.660156 -2.558594 5.660156 -3.460938 C 5.660156 -4.304688 5.464844 -4.945313 5.082031 -5.382813 C 4.691406 -5.816406 4.214844 -6.035156 3.648438 -6.039063 C 3.066406 -6.035156 2.585938 -5.816406 2.203125 -5.386719 C 1.820313 -4.949219 1.628906 -4.296875 1.628906 -3.421875 Z M 1.628906 -3.421875 "/>
</symbol>
<symbol overflow="visible" id="glyph2-14">
<path style="stroke:none;" d="M 0.871094 0 L 0.871094 -6.84375 L 1.914063 -6.84375 L 1.914063 -5.871094 C 2.414063 -6.621094 3.140625 -6.996094 4.09375 -7 C 4.503906 -6.996094 4.882813 -6.921875 5.230469 -6.777344 C 5.574219 -6.625 5.832031 -6.429688 6.007813 -6.191406 C 6.175781 -5.949219 6.296875 -5.664063 6.367188 -5.335938 C 6.410156 -5.121094 6.433594 -4.746094 6.433594 -4.207031 L 6.433594 0 L 5.273438 0 L 5.273438 -4.164063 C 5.273438 -4.632813 5.226563 -4.984375 5.136719 -5.222656 C 5.042969 -5.453125 4.882813 -5.640625 4.65625 -5.78125 C 4.425781 -5.917969 4.15625 -5.988281 3.847656 -5.992188 C 3.351563 -5.988281 2.925781 -5.832031 2.566406 -5.523438 C 2.207031 -5.207031 2.027344 -4.613281 2.03125 -3.738281 L 2.03125 0 Z M 0.871094 0 "/>
</symbol>
<symbol overflow="visible" id="glyph2-15">
<path style="stroke:none;" d="M 7.761719 -3.3125 L 9.011719 -2.996094 C 8.746094 -1.964844 8.273438 -1.183594 7.59375 -0.648438 C 6.914063 -0.109375 6.082031 0.15625 5.097656 0.160156 C 4.078125 0.15625 3.25 -0.046875 2.613281 -0.460938 C 1.972656 -0.871094 1.484375 -1.472656 1.15625 -2.261719 C 0.820313 -3.046875 0.65625 -3.890625 0.65625 -4.796875 C 0.65625 -5.777344 0.84375 -6.632813 1.21875 -7.367188 C 1.59375 -8.097656 2.128906 -8.65625 2.824219 -9.039063 C 3.519531 -9.417969 4.28125 -9.609375 5.117188 -9.609375 C 6.058594 -9.609375 6.855469 -9.367188 7.5 -8.886719 C 8.144531 -8.40625 8.59375 -7.730469 8.847656 -6.859375 L 7.617188 -6.566406 C 7.398438 -7.25 7.078125 -7.75 6.664063 -8.066406 C 6.242188 -8.378906 5.71875 -8.535156 5.09375 -8.539063 C 4.363281 -8.535156 3.757813 -8.363281 3.269531 -8.015625 C 2.78125 -7.667969 2.4375 -7.199219 2.242188 -6.613281 C 2.042969 -6.023438 1.945313 -5.417969 1.945313 -4.800781 C 1.945313 -3.996094 2.0625 -3.296875 2.296875 -2.695313 C 2.53125 -2.09375 2.894531 -1.644531 3.390625 -1.351563 C 3.882813 -1.054688 4.417969 -0.90625 4.996094 -0.910156 C 5.695313 -0.90625 6.289063 -1.109375 6.773438 -1.515625 C 7.257813 -1.917969 7.585938 -2.515625 7.761719 -3.3125 Z M 7.761719 -3.3125 "/>
</symbol>
<symbol overflow="visible" id="glyph2-16">
<path style="stroke:none;" d="M 5.3125 0 L 5.3125 -0.863281 C 4.875 -0.183594 4.238281 0.152344 3.398438 0.15625 C 2.851563 0.152344 2.347656 0.00390625 1.890625 -0.292969 C 1.433594 -0.59375 1.078125 -1.011719 0.828125 -1.554688 C 0.574219 -2.09375 0.449219 -2.714844 0.453125 -3.414063 C 0.449219 -4.097656 0.5625 -4.71875 0.792969 -5.273438 C 1.015625 -5.828125 1.359375 -6.253906 1.816406 -6.554688 C 2.269531 -6.847656 2.777344 -6.996094 3.34375 -7 C 3.753906 -6.996094 4.121094 -6.910156 4.445313 -6.738281 C 4.765625 -6.5625 5.027344 -6.335938 5.234375 -6.058594 L 5.234375 -9.449219 L 6.386719 -9.449219 L 6.386719 0 Z M 1.644531 -3.414063 C 1.640625 -2.535156 1.824219 -1.878906 2.199219 -1.449219 C 2.566406 -1.011719 3.003906 -0.796875 3.507813 -0.800781 C 4.011719 -0.796875 4.441406 -1.003906 4.796875 -1.421875 C 5.152344 -1.832031 5.332031 -2.464844 5.332031 -3.320313 C 5.332031 -4.253906 5.148438 -4.941406 4.789063 -5.378906 C 4.421875 -5.816406 3.976563 -6.035156 3.453125 -6.039063 C 2.933594 -6.035156 2.503906 -5.824219 2.160156 -5.40625 C 1.8125 -4.984375 1.640625 -4.320313 1.644531 -3.414063 Z M 1.644531 -3.414063 "/>
</symbol>
<symbol overflow="visible" id="glyph2-17">
<path style="stroke:none;" d="M 0.875 -8.113281 L 0.875 -9.449219 L 2.035156 -9.449219 L 2.035156 -8.113281 Z M 0.875 0 L 0.875 -6.84375 L 2.035156 -6.84375 L 2.035156 0 Z M 0.875 0 "/>
</symbol>
<symbol overflow="visible" id="glyph2-18">
<path style="stroke:none;" d="M 3.402344 -1.039063 L 3.570313 -0.0117188 C 3.242188 0.0546875 2.953125 0.0859375 2.695313 0.0898438 C 2.273438 0.0859375 1.945313 0.0234375 1.714844 -0.109375 C 1.480469 -0.238281 1.316406 -0.414063 1.222656 -0.632813 C 1.125 -0.851563 1.078125 -1.308594 1.082031 -2.003906 L 1.082031 -5.941406 L 0.230469 -5.941406 L 0.230469 -6.84375 L 1.082031 -6.84375 L 1.082031 -8.539063 L 2.238281 -9.234375 L 2.238281 -6.84375 L 3.402344 -6.84375 L 3.402344 -5.941406 L 2.238281 -5.941406 L 2.238281 -1.941406 C 2.238281 -1.605469 2.257813 -1.394531 2.296875 -1.300781 C 2.335938 -1.207031 2.402344 -1.128906 2.496094 -1.074219 C 2.589844 -1.015625 2.722656 -0.988281 2.894531 -0.992188 C 3.019531 -0.988281 3.1875 -1.003906 3.402344 -1.039063 Z M 3.402344 -1.039063 "/>
</symbol>
<symbol overflow="visible" id="glyph2-19">
<path style="stroke:none;" d="M 1.019531 0 L 1.019531 -9.449219 L 4.273438 -9.449219 C 5.003906 -9.445313 5.566406 -9.398438 5.957031 -9.3125 C 6.492188 -9.183594 6.953125 -8.960938 7.339844 -8.636719 C 7.835938 -8.214844 8.207031 -7.675781 8.457031 -7.019531 C 8.699219 -6.363281 8.824219 -5.613281 8.828125 -4.777344 C 8.824219 -4.054688 8.742188 -3.417969 8.578125 -2.867188 C 8.410156 -2.308594 8.195313 -1.851563 7.933594 -1.492188 C 7.667969 -1.128906 7.378906 -0.84375 7.070313 -0.632813 C 6.757813 -0.421875 6.382813 -0.261719 5.945313 -0.160156 C 5.503906 -0.0507813 5 0 4.429688 0 Z M 2.269531 -1.113281 L 4.285156 -1.113281 C 4.902344 -1.113281 5.390625 -1.171875 5.75 -1.289063 C 6.101563 -1.40625 6.386719 -1.566406 6.601563 -1.777344 C 6.894531 -2.070313 7.125 -2.46875 7.289063 -2.972656 C 7.453125 -3.472656 7.535156 -4.082031 7.539063 -4.796875 C 7.535156 -5.78125 7.371094 -6.539063 7.050781 -7.074219 C 6.722656 -7.601563 6.332031 -7.957031 5.871094 -8.140625 C 5.535156 -8.265625 4.996094 -8.332031 4.253906 -8.332031 L 2.269531 -8.332031 Z M 2.269531 -1.113281 "/>
</symbol>
<symbol overflow="visible" id="glyph2-20">
<path style="stroke:none;" d="M 2.773438 0 L 0.167969 -6.84375 L 1.390625 -6.84375 L 2.863281 -2.746094 C 3.019531 -2.300781 3.164063 -1.839844 3.300781 -1.367188 C 3.398438 -1.722656 3.542969 -2.15625 3.730469 -2.667969 L 5.253906 -6.84375 L 6.445313 -6.84375 L 3.855469 0 Z M 2.773438 0 "/>
</symbol>
<symbol overflow="visible" id="glyph2-21">
<path style="stroke:none;" d="M 0.0976563 0 L 2.597656 -3.558594 L 0.285156 -6.84375 L 1.734375 -6.84375 L 2.785156 -5.238281 C 2.980469 -4.933594 3.140625 -4.675781 3.261719 -4.472656 C 3.449219 -4.753906 3.625 -5.007813 3.785156 -5.226563 L 4.9375 -6.84375 L 6.324219 -6.84375 L 3.957031 -3.621094 L 6.503906 0 L 5.078125 0 L 3.671875 -2.125 L 3.300781 -2.699219 L 1.5 0 Z M 0.0976563 0 "/>
</symbol>
<symbol overflow="visible" id="glyph2-22">
<path style="stroke:none;" d="M 1.082031 0 L 1.082031 -9.449219 L 7.457031 -9.449219 L 7.457031 -8.332031 L 2.332031 -8.332031 L 2.332031 -5.40625 L 6.765625 -5.40625 L 6.765625 -4.292969 L 2.332031 -4.292969 L 2.332031 0 Z M 1.082031 0 "/>
</symbol>
</g>
</defs>
<g id="surface96">
<rect x="0" y="0" width="720" height="360" style="fill:rgb(100%,100%,100%);fill-opacity:1;stroke:none;"/>
<path style=" stroke:none;fill-rule:nonzero;fill:rgb(65.098039%,80.784314%,89.019608%);fill-opacity:0.501961;" d="M 151.484375 188.851563 L 151.484375 67.664063 L 147.214844 67.738281 L 142.945313 67.964844 L 138.691406 68.339844 L 134.449219 68.867188 L 130.230469 69.542969 L 126.039063 70.367188 L 121.878906 71.335938 L 117.753906 72.453125 L 113.671875 73.714844 L 109.636719 75.121094 L 105.652344 76.664063 L 101.726563 78.351563 L 97.863281 80.175781 L 94.0625 82.132813 L 90.335938 84.222656 L 92.445313 87.832031 L 94.554688 91.4375 L 96.664063 95.046875 L 98.769531 98.65625 L 100.878906 102.261719 L 102.988281 105.871094 L 105.097656 109.476563 L 107.207031 113.085938 L 109.3125 116.695313 L 111.421875 120.300781 L 115.640625 127.519531 L 117.75 131.125 L 119.855469 134.734375 L 121.964844 138.34375 L 124.074219 141.949219 L 126.183594 145.558594 L 128.292969 149.164063 L 130.398438 152.773438 L 132.507813 156.382813 L 134.617188 159.988281 L 138.835938 167.207031 L 140.941406 170.8125 L 143.050781 174.421875 L 145.160156 178.027344 L 149.378906 185.246094 Z M 151.484375 188.851563 "/>
<path style=" stroke:none;fill-rule:nonzero;fill:rgb(12.156863%,47.058824%,70.588235%);fill-opacity:0.501961;" d="M 151.484375 188.851563 L 149.378906 185.246094 L 145.160156 178.027344 L 143.050781 174.421875 L 140.941406 170.8125 L 138.835938 167.207031 L 134.617188 159.988281 L 132.507813 156.382813 L 130.398438 152.773438 L 128.292969 149.164063 L 126.183594 145.558594 L 124.074219 141.949219 L 121.964844 138.34375 L 119.855469 134.734375 L 117.75 131.125 L 115.640625 127.519531 L 111.421875 120.300781 L 109.3125 116.695313 L 107.207031 113.085938 L 105.097656 109.476563 L 102.988281 105.871094 L 100.878906 102.261719 L 98.769531 98.65625 L 96.664063 95.046875 L 94.554688 91.4375 L 92.445313 87.832031 L 90.335938 84.222656 L 85.253906 87.363281 L 87.539063 90.863281 L 89.820313 94.363281 L 94.390625 101.363281 L 96.671875 104.863281 L 98.957031 108.363281 L 101.242188 111.859375 L 103.523438 115.359375 L 108.09375 122.359375 L 110.375 125.859375 L 114.945313 132.859375 L 117.226563 136.359375 L 121.796875 143.359375 L 124.078125 146.859375 L 126.363281 150.355469 L 128.648438 153.855469 L 130.929688 157.355469 L 135.5 164.355469 L 137.78125 167.855469 L 142.351563 174.855469 L 144.632813 178.355469 L 146.917969 181.855469 L 149.203125 185.351563 Z M 151.484375 188.851563 "/>
<path style=" stroke:none;fill-rule:nonzero;fill:rgb(69.803922%,87.45098%,54.117647%);fill-opacity:0.501961;" d="M 151.484375 188.851563 L 149.203125 185.351563 L 146.917969 181.855469 L 144.632813 178.355469 L 142.351563 174.855469 L 137.78125 167.855469 L 135.5 164.355469 L 130.929688 157.355469 L 128.648438 153.855469 L 126.363281 150.355469 L 124.078125 146.859375 L 121.796875 143.359375 L 117.226563 136.359375 L 114.945313 132.859375 L 110.375 125.859375 L 108.09375 122.359375 L 103.523438 115.359375 L 101.242188 111.859375 L 98.957031 108.363281 L 96.671875 104.863281 L 94.390625 101.363281 L 89.820313 94.363281 L 87.539063 90.863281 L 85.253906 87.363281 L 84.640625 87.769531 L 89.25 94.738281 L 91.554688 98.226563 L 96.164063 105.195313 L 98.46875 108.683594 L 103.078125 115.652344 L 105.382813 119.140625 L 107.691406 122.625 L 109.996094 126.109375 L 112.300781 129.597656 L 116.910156 136.566406 L 119.214844 140.054688 L 123.824219 147.023438 L 126.128906 150.511719 L 128.433594 153.996094 L 130.742188 157.480469 L 133.046875 160.96875 L 137.65625 167.9375 L 139.960938 171.425781 L 144.570313 178.394531 L 146.875 181.882813 Z M 151.484375 188.851563 "/>
<path style=" stroke:none;fill-rule:nonzero;fill:rgb(55.294118%,82.745098%,78.039216%);fill-opacity:0.501961;" d="M 151.484375 188.851563 L 146.875 181.882813 L 144.570313 178.394531 L 139.960938 171.425781 L 137.65625 167.9375 L 133.046875 160.96875 L 130.742188 157.480469 L 128.433594 153.996094 L 126.128906 150.511719 L 123.824219 147.023438 L 119.214844 140.054688 L 116.910156 136.566406 L 112.300781 129.597656 L 109.996094 126.109375 L 107.691406 122.625 L 105.382813 119.140625 L 103.078125 115.652344 L 98.46875 108.683594 L 96.164063 105.195313 L 91.554688 98.226563 L 89.25 94.738281 L 84.640625 87.769531 L 80.867188 90.363281 L 77.199219 93.101563 L 73.636719 95.976563 L 70.183594 98.984375 L 66.84375 102.121094 L 69.765625 105.109375 L 75.601563 111.09375 L 78.519531 114.082031 L 81.4375 117.074219 L 84.359375 120.0625 L 90.195313 126.046875 L 93.113281 129.035156 L 98.949219 135.019531 L 101.871094 138.007813 L 107.707031 143.992188 L 110.625 146.980469 L 116.460938 152.964844 L 119.382813 155.953125 L 125.21875 161.9375 L 128.136719 164.925781 L 133.972656 170.910156 L 136.894531 173.898438 L 139.8125 176.890625 L 142.730469 179.878906 L 148.566406 185.863281 Z M 151.484375 188.851563 "/>
<path style=" stroke:none;fill-rule:nonzero;fill:rgb(20%,62.745098%,17.254902%);fill-opacity:0.501961;" d="M 151.484375 188.851563 L 148.566406 185.863281 L 142.730469 179.878906 L 139.8125 176.890625 L 136.894531 173.898438 L 133.972656 170.910156 L 128.136719 164.925781 L 125.21875 161.9375 L 119.382813 155.953125 L 116.460938 152.964844 L 110.625 146.980469 L 107.707031 143.992188 L 101.871094 138.007813 L 98.949219 135.019531 L 93.113281 129.035156 L 90.195313 126.046875 L 84.359375 120.0625 L 81.4375 117.074219 L 78.519531 114.082031 L 75.601563 111.09375 L 69.765625 105.109375 L 66.84375 102.121094 L 63.949219 105.042969 L 61.152344 108.066406 L 58.460938 111.179688 L 55.878906 114.382813 L 53.40625 117.671875 L 51.042969 121.042969 L 48.800781 124.492188 L 46.671875 128.019531 L 44.667969 131.613281 L 42.785156 135.273438 L 41.027344 138.996094 L 39.398438 142.773438 L 37.898438 146.605469 L 36.53125 150.488281 L 35.292969 154.414063 L 34.191406 158.378906 L 33.222656 162.382813 L 32.394531 166.414063 L 31.699219 170.46875 L 31.144531 174.546875 L 30.726563 178.640625 L 30.449219 182.75 L 30.3125 186.863281 L 30.316406 190.980469 L 30.457031 195.09375 L 30.738281 199.199219 L 31.160156 203.292969 L 31.71875 207.371094 L 32.417969 211.425781 L 33.253906 215.457031 L 34.226563 219.457031 L 35.332031 223.421875 L 36.574219 227.34375 L 37.945313 231.226563 L 39.449219 235.058594 L 41.085938 238.835938 L 42.84375 242.554688 L 44.730469 246.214844 L 46.742188 249.804688 L 48.871094 253.328125 L 51.121094 256.773438 L 53.484375 260.144531 L 55.960938 263.429688 L 58.550781 266.632813 L 61.242188 269.742188 L 64.042969 272.761719 L 66.941406 275.679688 L 69.941406 278.503906 L 73.03125 281.21875 L 76.210938 283.832031 L 79.480469 286.332031 L 82.832031 288.71875 L 86.265625 290.996094 L 89.769531 293.148438 L 93.347656 295.1875 L 96.992188 297.097656 L 100.699219 298.886719 L 104.464844 300.546875 L 108.285156 302.082031 L 112.15625 303.480469 L 116.070313 304.75 L 120.027344 305.886719 L 124.019531 306.886719 L 128.042969 307.753906 L 132.09375 308.480469 L 136.167969 309.070313 L 140.257813 309.519531 L 144.363281 309.832031 L 148.476563 310.003906 L 152.589844 310.035156 L 156.707031 309.929688 L 160.8125 309.683594 L 164.910156 309.296875 L 168.992188 308.769531 L 173.054688 308.105469 L 177.09375 307.304688 L 181.101563 306.367188 L 185.074219 305.292969 L 189.007813 304.085938 L 192.902344 302.746094 L 196.746094 301.273438 L 200.535156 299.671875 L 204.269531 297.941406 L 207.945313 296.085938 L 211.554688 294.109375 L 215.09375 292.007813 L 218.558594 289.789063 L 221.949219 287.453125 L 225.257813 285.003906 L 228.480469 282.441406 L 231.613281 279.773438 L 234.652344 277 L 237.597656 274.125 L 240.445313 271.152344 L 243.1875 268.082031 L 245.824219 264.921875 L 248.355469 261.675781 L 250.773438 258.34375 L 253.074219 254.933594 L 255.261719 251.445313 L 257.324219 247.886719 L 259.269531 244.257813 L 261.089844 240.566406 L 262.78125 236.8125 L 264.34375 233.007813 L 265.78125 229.148438 L 267.082031 225.242188 L 268.25 221.296875 L 269.285156 217.3125 L 270.183594 213.296875 L 270.945313 209.253906 L 271.570313 205.183594 L 272.054688 201.097656 L 272.402344 196.996094 L 272.609375 192.882813 L 272.675781 188.769531 L 272.601563 184.652344 L 272.390625 180.542969 L 272.039063 176.441406 L 271.546875 172.355469 L 270.917969 168.289063 L 270.148438 164.246094 L 269.246094 160.230469 L 268.207031 156.246094 L 267.03125 152.300781 L 265.722656 148.398438 L 264.285156 144.542969 L 262.714844 140.738281 L 261.015625 136.988281 L 259.191406 133.300781 L 257.242188 129.675781 L 255.171875 126.117188 L 252.984375 122.632813 L 250.675781 119.222656 L 248.253906 115.894531 L 245.71875 112.652344 L 243.078125 109.496094 L 240.332031 106.429688 L 237.480469 103.460938 L 234.53125 100.589844 L 231.484375 97.820313 L 228.347656 95.15625 L 225.121094 92.601563 L 221.8125 90.15625 L 218.417969 87.824219 L 214.949219 85.609375 L 211.40625 83.515625 L 207.796875 81.539063 L 204.121094 79.691406 L 200.382813 77.964844 L 196.589844 76.371094 L 192.742188 74.902344 L 188.847656 73.566406 L 184.914063 72.367188 L 180.9375 71.296875 L 176.929688 70.363281 L 172.890625 69.570313 L 168.828125 68.910156 L 167.035156 81.320313 L 166.4375 85.453125 L 165.835938 89.589844 L 164.042969 102 L 163.445313 106.132813 L 161.054688 122.679688 L 160.457031 126.8125 L 159.261719 135.085938 L 158.660156 139.222656 L 158.0625 143.359375 L 157.464844 147.492188 L 155.074219 164.039063 L 154.476563 168.171875 L 152.085938 184.71875 Z M 151.484375 188.851563 "/>
<path style=" stroke:none;fill-rule:nonzero;fill:rgb(98.431373%,60.392157%,60%);fill-opacity:0.501961;" d="M 151.484375 188.851563 L 152.085938 184.71875 L 154.476563 168.171875 L 155.074219 164.039063 L 157.464844 147.492188 L 158.0625 143.359375 L 158.660156 139.222656 L 159.261719 135.085938 L 160.457031 126.8125 L 161.054688 122.679688 L 163.445313 106.132813 L 164.042969 102 L 165.835938 89.589844 L 166.4375 85.453125 L 167.035156 81.320313 L 168.828125 68.910156 L 161.257813 68.058594 L 160.917969 72.222656 L 160.582031 76.390625 L 159.910156 84.71875 L 159.570313 88.886719 L 158.898438 97.214844 L 158.5625 101.382813 L 158.222656 105.546875 L 157.886719 109.710938 L 157.550781 113.878906 L 157.214844 118.042969 L 156.875 122.207031 L 156.539063 126.375 L 155.867188 134.703125 L 155.527344 138.871094 L 154.519531 151.363281 L 154.179688 155.53125 L 153.507813 163.859375 L 153.171875 168.027344 L 152.832031 172.191406 L 152.496094 176.355469 L 152.160156 180.523438 L 151.824219 184.6875 Z M 151.484375 188.851563 "/>
<path style=" stroke:none;fill-rule:nonzero;fill:rgb(89.019608%,10.196078%,10.980392%);fill-opacity:0.501961;" d="M 151.484375 188.851563 L 151.824219 184.6875 L 152.160156 180.523438 L 152.496094 176.355469 L 152.832031 172.191406 L 153.171875 168.027344 L 153.507813 163.859375 L 154.179688 155.53125 L 154.519531 151.363281 L 155.527344 138.871094 L 155.867188 134.703125 L 156.539063 126.375 L 156.875 122.207031 L 157.214844 118.042969 L 157.550781 113.878906 L 157.886719 109.710938 L 158.222656 105.546875 L 158.5625 101.382813 L 158.898438 97.214844 L 159.570313 88.886719 L 159.910156 84.71875 L 160.582031 76.390625 L 160.917969 72.222656 L 161.257813 68.058594 L 160.710938 68.015625 L 160.394531 72.183594 L 160.078125 76.347656 L 159.757813 80.515625 L 159.441406 84.683594 L 159.121094 88.851563 L 158.804688 93.015625 L 158.484375 97.183594 L 158.167969 101.351563 L 157.847656 105.515625 L 157.214844 113.851563 L 156.894531 118.015625 L 156.578125 122.183594 L 156.257813 126.351563 L 155.941406 130.519531 L 155.621094 134.683594 L 155.304688 138.851563 L 154.984375 143.019531 L 154.667969 147.183594 L 154.351563 151.351563 L 154.03125 155.519531 L 153.714844 159.683594 L 153.394531 163.851563 L 153.078125 168.019531 L 152.757813 172.1875 L 152.441406 176.351563 L 152.121094 180.519531 L 151.804688 184.6875 Z M 151.484375 188.851563 "/>
<path style=" stroke:none;fill-rule:nonzero;fill:rgb(99.215686%,74.901961%,43.529412%);fill-opacity:0.501961;" d="M 151.484375 188.851563 L 151.804688 184.6875 L 152.121094 180.519531 L 152.441406 176.351563 L 152.757813 172.1875 L 153.078125 168.019531 L 153.394531 163.851563 L 153.714844 159.683594 L 154.03125 155.519531 L 154.351563 151.351563 L 154.667969 147.183594 L 154.984375 143.019531 L 155.304688 138.851563 L 155.621094 134.683594 L 155.941406 130.519531 L 156.257813 126.351563 L 156.578125 122.183594 L 156.894531 118.015625 L 157.214844 113.851563 L 157.847656 105.515625 L 158.167969 101.351563 L 158.484375 97.183594 L 158.804688 93.015625 L 159.121094 88.851563 L 159.441406 84.683594 L 159.757813 80.515625 L 160.078125 76.347656 L 160.394531 72.183594 L 160.710938 68.015625 L 160.585938 68.007813 L 160.269531 72.171875 L 159.644531 80.507813 L 159.328125 84.675781 L 159.015625 88.84375 L 158.703125 93.007813 L 158.386719 97.175781 L 157.761719 105.511719 L 157.445313 109.675781 L 156.507813 122.179688 L 156.191406 126.347656 L 155.878906 130.511719 L 155.566406 134.679688 L 155.25 138.847656 L 154.625 147.183594 L 154.308594 151.347656 L 153.683594 159.683594 L 153.367188 163.851563 L 153.054688 168.015625 L 152.742188 172.183594 L 152.425781 176.351563 L 151.800781 184.6875 Z M 151.484375 188.851563 "/>
<path style=" stroke:none;fill-rule:nonzero;fill:rgb(100%,49.803922%,0%);fill-opacity:0.501961;" d="M 151.484375 188.851563 L 151.800781 184.6875 L 152.425781 176.351563 L 152.742188 172.183594 L 153.054688 168.015625 L 153.367188 163.851563 L 153.683594 159.683594 L 154.308594 151.347656 L 154.625 147.183594 L 155.25 138.847656 L 155.566406 134.679688 L 155.878906 130.511719 L 156.191406 126.347656 L 156.507813 122.179688 L 157.445313 109.675781 L 157.761719 105.511719 L 158.386719 97.175781 L 158.703125 93.007813 L 159.015625 88.84375 L 159.328125 84.675781 L 159.644531 80.507813 L 160.269531 72.171875 L 160.585938 68.007813 L 160.46875 67.996094 L 160.160156 72.164063 L 159.847656 76.332031 L 159.230469 84.667969 L 158.917969 88.835938 L 158.609375 93.003906 L 158.300781 97.167969 L 157.988281 101.335938 L 157.0625 113.839844 L 156.75 118.007813 L 156.441406 122.175781 L 156.132813 126.339844 L 155.820313 130.507813 L 154.894531 143.011719 L 154.582031 147.179688 L 154.273438 151.347656 L 153.964844 155.511719 L 153.652344 159.679688 L 152.726563 172.183594 L 152.414063 176.351563 L 151.796875 184.6875 Z M 151.484375 188.851563 "/>
<path style=" stroke:none;fill-rule:nonzero;fill:rgb(50.196078%,50.196078%,50.196078%);fill-opacity:0.501961;" d="M 151.484375 188.851563 L 151.796875 184.6875 L 152.414063 176.351563 L 152.726563 172.183594 L 153.652344 159.679688 L 153.964844 155.511719 L 154.273438 151.347656 L 154.582031 147.179688 L 154.894531 143.011719 L 155.820313 130.507813 L 156.132813 126.339844 L 156.441406 122.175781 L 156.75 118.007813 L 157.0625 113.839844 L 157.988281 101.335938 L 158.300781 97.167969 L 158.609375 93.003906 L 158.917969 88.835938 L 159.230469 84.667969 L 159.847656 76.332031 L 160.160156 72.164063 L 160.46875 67.996094 L 155.460938 67.730469 L 155.050781 80.257813 L 154.914063 84.4375 L 154.503906 96.964844 L 154.367188 101.144531 L 154.226563 105.320313 L 153.816406 117.847656 L 153.679688 122.027344 L 153.269531 134.554688 L 153.132813 138.734375 L 152.996094 142.910156 L 152.855469 147.085938 L 152.71875 151.261719 L 152.582031 155.441406 L 152.035156 172.144531 L 151.898438 176.324219 L 151.625 184.675781 Z M 151.484375 188.851563 "/>
<path style=" stroke:none;fill-rule:nonzero;fill:rgb(79.215686%,69.803922%,83.921569%);fill-opacity:0.501961;" d="M 151.484375 188.851563 L 151.625 184.675781 L 151.898438 176.324219 L 152.035156 172.144531 L 152.582031 155.441406 L 152.71875 151.261719 L 152.855469 147.085938 L 152.996094 142.910156 L 153.132813 138.734375 L 153.269531 134.554688 L 153.679688 122.027344 L 153.816406 117.847656 L 154.226563 105.320313 L 154.367188 101.144531 L 154.503906 96.964844 L 154.914063 84.4375 L 155.050781 80.257813 L 155.460938 67.730469 L 153.652344 67.683594 L 153.578125 71.863281 L 153.5 76.039063 L 153.351563 84.398438 L 153.277344 88.574219 L 153.203125 92.753906 L 153.128906 96.929688 L 152.980469 105.289063 L 152.90625 109.464844 L 152.828125 113.644531 L 152.753906 117.824219 L 152.679688 122 L 152.53125 130.359375 L 152.457031 134.535156 L 152.382813 138.714844 L 152.308594 142.890625 L 152.234375 147.070313 L 152.15625 151.25 L 152.082031 155.425781 L 151.933594 163.785156 L 151.859375 167.960938 L 151.785156 172.140625 L 151.710938 176.316406 L 151.5625 184.675781 Z M 151.484375 188.851563 "/>
<path style=" stroke:none;fill-rule:nonzero;fill:rgb(41.568627%,23.921569%,60.392157%);fill-opacity:0.501961;" d="M 151.484375 188.851563 L 151.5625 184.675781 L 151.710938 176.316406 L 151.785156 172.140625 L 151.859375 167.960938 L 151.933594 163.785156 L 152.082031 155.425781 L 152.15625 151.25 L 152.234375 147.070313 L 152.308594 142.890625 L 152.382813 138.714844 L 152.457031 134.535156 L 152.53125 130.359375 L 152.679688 122 L 152.753906 117.824219 L 152.828125 113.644531 L 152.90625 109.464844 L 152.980469 105.289063 L 153.128906 96.929688 L 153.203125 92.753906 L 153.277344 88.574219 L 153.351563 84.398438 L 153.5 76.039063 L 153.578125 71.863281 L 153.652344 67.683594 L 151.484375 67.664063 Z M 151.484375 188.851563 "/>
<g style="fill:rgb(0%,0%,0%);fill-opacity:1;">
  <use xlink:href="#glyph0-1" x="308.640625" y="86.371094"/>
  <use xlink:href="#glyph0-2" x="314.758301" y="86.371094"/>
  <use xlink:href="#glyph0-3" x="317.202148" y="86.371094"/>
  <use xlink:href="#glyph0-2" x="323.319824" y="86.371094"/>
  <use xlink:href="#glyph0-4" x="325.763672" y="86.371094"/>
  <use xlink:href="#glyph0-5" x="331.881348" y="86.371094"/>
  <use xlink:href="#glyph0-6" x="334.9375" y="86.371094"/>
  <use xlink:href="#glyph0-7" x="340.4375" y="86.371094"/>
  <use xlink:href="#glyph0-8" x="342.881348" y="86.371094"/>
  <use xlink:href="#glyph0-9" x="348.999023" y="86.371094"/>
  <use xlink:href="#glyph0-9" x="354.499023" y="86.371094"/>
</g>
<path style=" stroke:none;fill-rule:nonzero;fill:rgb(65.098039%,80.784314%,89.019608%);fill-opacity:0.501961;" d="M 309.351563 109.578125 L 325.214844 109.578125 L 325.214844 93.714844 L 309.351563 93.714844 Z M 309.351563 109.578125 "/>
<path style=" stroke:none;fill-rule:nonzero;fill:rgb(12.156863%,47.058824%,70.588235%);fill-opacity:0.501961;" d="M 309.351563 126.859375 L 325.214844 126.859375 L 325.214844 110.996094 L 309.351563 110.996094 Z M 309.351563 126.859375 "/>
<path style=" stroke:none;fill-rule:nonzero;fill:rgb(69.803922%,87.45098%,54.117647%);fill-opacity:0.501961;" d="M 309.351563 144.136719 L 325.214844 144.136719 L 325.214844 128.273438 L 309.351563 128.273438 Z M 309.351563 144.136719 "/>
<path style=" stroke:none;fill-rule:nonzero;fill:rgb(55.294118%,82.745098%,78.039216%);fill-opacity:0.501961;" d="M 309.351563 161.417969 L 325.214844 161.417969 L 325.214844 145.554688 L 309.351563 145.554688 Z M 309.351563 161.417969 "/>
<path style=" stroke:none;fill-rule:nonzero;fill:rgb(20%,62.745098%,17.254902%);fill-opacity:0.501961;" d="M 309.351563 178.699219 L 325.214844 178.699219 L 325.214844 162.835938 L 309.351563 162.835938 Z M 309.351563 178.699219 "/>
<path style=" stroke:none;fill-rule:nonzero;fill:rgb(98.431373%,60.392157%,60%);fill-opacity:0.501961;" d="M 309.351563 195.980469 L 325.214844 195.980469 L 325.214844 180.117188 L 309.351563 180.117188 Z M 309.351563 195.980469 "/>
<path style=" stroke:none;fill-rule:nonzero;fill:rgb(89.019608%,10.196078%,10.980392%);fill-opacity:0.501961;" d="M 309.351563 213.257813 L 325.214844 213.257813 L 325.214844 197.394531 L 309.351563 197.394531 Z M 309.351563 213.257813 "/>
<path style=" stroke:none;fill-rule:nonzero;fill:rgb(99.215686%,74.901961%,43.529412%);fill-opacity:0.501961;" d="M 309.351563 230.539063 L 325.214844 230.539063 L 325.214844 214.675781 L 309.351563 214.675781 Z M 309.351563 230.539063 "/>
<path style=" stroke:none;fill-rule:nonzero;fill:rgb(100%,49.803922%,0%);fill-opacity:0.501961;" d="M 309.351563 247.820313 L 325.214844 247.820313 L 325.214844 231.957031 L 309.351563 231.957031 Z M 309.351563 247.820313 "/>
<path style=" stroke:none;fill-rule:nonzero;fill:rgb(50.196078%,50.196078%,50.196078%);fill-opacity:0.501961;" d="M 309.351563 265.097656 L 325.214844 265.097656 L 325.214844 249.234375 L 309.351563 249.234375 Z M 309.351563 265.097656 "/>
<path style=" stroke:none;fill-rule:nonzero;fill:rgb(79.215686%,69.803922%,83.921569%);fill-opacity:0.501961;" d="M 309.351563 282.378906 L 325.214844 282.378906 L 325.214844 266.515625 L 309.351563 266.515625 Z M 309.351563 282.378906 "/>
<path style=" stroke:none;fill-rule:nonzero;fill:rgb(41.568627%,23.921569%,60.392157%);fill-opacity:0.501961;" d="M 309.351563 299.660156 L 325.214844 299.660156 L 325.214844 283.796875 L 309.351563 283.796875 Z M 309.351563 299.660156 "/>
<g style="fill:rgb(0%,0%,0%);fill-opacity:1;">
  <use xlink:href="#glyph1-1" x="331.402344" y="104.796875"/>
  <use xlink:href="#glyph1-2" x="337.757422" y="104.796875"/>
  <use xlink:href="#glyph1-3" x="343.626953" y="104.796875"/>
</g>
<g style="fill:rgb(0%,0%,0%);fill-opacity:1;">
  <use xlink:href="#glyph1-1" x="331.402344" y="122.078125"/>
  <use xlink:href="#glyph1-4" x="337.757422" y="122.078125"/>
</g>
<g style="fill:rgb(0%,0%,0%);fill-opacity:1;">
  <use xlink:href="#glyph1-1" x="331.402344" y="139.355469"/>
  <use xlink:href="#glyph1-5" x="337.757422" y="139.355469"/>
  <use xlink:href="#glyph1-6" x="342.651562" y="139.355469"/>
</g>
<g style="fill:rgb(0%,0%,0%);fill-opacity:1;">
  <use xlink:href="#glyph1-7" x="331.402344" y="156.636719"/>
  <use xlink:href="#glyph1-2" x="337.757422" y="156.636719"/>
  <use xlink:href="#glyph1-8" x="343.626953" y="156.636719"/>
</g>
<g style="fill:rgb(0%,0%,0%);fill-opacity:1;">
  <use xlink:href="#glyph1-9" x="331.402344" y="173.917969"/>
  <use xlink:href="#glyph1-2" x="336.777734" y="173.917969"/>
</g>
<g style="fill:rgb(0%,0%,0%);fill-opacity:1;">
  <use xlink:href="#glyph1-10" x="331.402344" y="191.195313"/>
  <use xlink:href="#glyph1-1" x="337.271875" y="191.195313"/>
</g>
<g style="fill:rgb(0%,0%,0%);fill-opacity:1;">
  <use xlink:href="#glyph1-10" x="331.402344" y="208.476563"/>
  <use xlink:href="#glyph1-4" x="337.271875" y="208.476563"/>
</g>
<g style="fill:rgb(0%,0%,0%);fill-opacity:1;">
  <use xlink:href="#glyph1-10" x="331.402344" y="225.757813"/>
  <use xlink:href="#glyph1-8" x="337.271875" y="225.757813"/>
</g>
<g style="fill:rgb(0%,0%,0%);fill-opacity:1;">
  <use xlink:href="#glyph1-10" x="331.402344" y="243.035156"/>
  <use xlink:href="#glyph1-11" x="337.271875" y="243.035156"/>
</g>
<g style="fill:rgb(0%,0%,0%);fill-opacity:1;">
  <use xlink:href="#glyph1-10" x="331.402344" y="260.316406"/>
  <use xlink:href="#glyph1-12" x="337.271875" y="260.316406"/>
</g>
<g style="fill:rgb(0%,0%,0%);fill-opacity:1;">
  <use xlink:href="#glyph1-12" x="331.402344" y="277.597656"/>
  <use xlink:href="#glyph1-13" x="337.271875" y="277.597656"/>
</g>
<g style="fill:rgb(0%,0%,0%);fill-opacity:1;">
  <use xlink:href="#glyph1-14" x="331.402344" y="294.875"/>
  <use xlink:href="#glyph1-2" x="336.777734" y="294.875"/>
  <use xlink:href="#glyph1-8" x="342.647266" y="294.875"/>
</g>
<g style="fill:rgb(0%,0%,0%);fill-opacity:1;">
  <use xlink:href="#glyph2-1" x="0" y="34.589844"/>
  <use xlink:href="#glyph2-2" x="8.804297" y="34.589844"/>
  <use xlink:href="#glyph2-3" x="16.145508" y="34.589844"/>
  <use xlink:href="#glyph2-4" x="27.141211" y="34.589844"/>
  <use xlink:href="#glyph2-5" x="34.482422" y="34.589844"/>
  <use xlink:href="#glyph2-6" x="37.415039" y="34.589844"/>
  <use xlink:href="#glyph2-7" x="44.75625" y="34.589844"/>
  <use xlink:href="#glyph2-8" x="52.097461" y="34.589844"/>
  <use xlink:href="#glyph2-9" x="60.160547" y="34.589844"/>
  <use xlink:href="#glyph2-4" x="66.760547" y="34.589844"/>
  <use xlink:href="#glyph2-6" x="74.101758" y="34.589844"/>
  <use xlink:href="#glyph2-7" x="81.442969" y="34.589844"/>
  <use xlink:href="#glyph2-10" x="88.78418" y="34.589844"/>
  <use xlink:href="#glyph2-6" x="98.316797" y="34.589844"/>
  <use xlink:href="#glyph2-11" x="105.658008" y="34.589844"/>
  <use xlink:href="#glyph2-12" x="112.999219" y="34.589844"/>
  <use xlink:href="#glyph2-13" x="117.394922" y="34.589844"/>
  <use xlink:href="#glyph2-14" x="124.736133" y="34.589844"/>
  <use xlink:href="#glyph2-7" x="132.077344" y="34.589844"/>
  <use xlink:href="#glyph2-7" x="139.418555" y="34.589844"/>
  <use xlink:href="#glyph2-1" x="146.759766" y="34.589844"/>
  <use xlink:href="#glyph2-5" x="155.564062" y="34.589844"/>
  <use xlink:href="#glyph2-6" x="158.49668" y="34.589844"/>
  <use xlink:href="#glyph2-6" x="165.837891" y="34.589844"/>
  <use xlink:href="#glyph2-4" x="173.179102" y="34.589844"/>
  <use xlink:href="#glyph2-7" x="180.520312" y="34.589844"/>
  <use xlink:href="#glyph2-15" x="187.861523" y="34.589844"/>
  <use xlink:href="#glyph2-13" x="197.394141" y="34.589844"/>
  <use xlink:href="#glyph2-14" x="204.735352" y="34.589844"/>
  <use xlink:href="#glyph2-16" x="212.076562" y="34.589844"/>
  <use xlink:href="#glyph2-17" x="219.417773" y="34.589844"/>
  <use xlink:href="#glyph2-18" x="222.350391" y="34.589844"/>
  <use xlink:href="#glyph2-17" x="226.017773" y="34.589844"/>
  <use xlink:href="#glyph2-13" x="228.950391" y="34.589844"/>
  <use xlink:href="#glyph2-14" x="236.291602" y="34.589844"/>
  <use xlink:href="#glyph2-7" x="243.632812" y="34.589844"/>
  <use xlink:href="#glyph2-19" x="250.974023" y="34.589844"/>
  <use xlink:href="#glyph2-6" x="260.506641" y="34.589844"/>
  <use xlink:href="#glyph2-4" x="267.847852" y="34.589844"/>
  <use xlink:href="#glyph2-12" x="275.189062" y="34.589844"/>
  <use xlink:href="#glyph2-17" x="279.584766" y="34.589844"/>
  <use xlink:href="#glyph2-20" x="282.517383" y="34.589844"/>
  <use xlink:href="#glyph2-6" x="289.117383" y="34.589844"/>
  <use xlink:href="#glyph2-16" x="296.458594" y="34.589844"/>
  <use xlink:href="#glyph2-7" x="303.799805" y="34.589844"/>
  <use xlink:href="#glyph2-7" x="311.141016" y="34.589844"/>
  <use xlink:href="#glyph2-1" x="318.482227" y="34.589844"/>
  <use xlink:href="#glyph2-6" x="327.286523" y="34.589844"/>
  <use xlink:href="#glyph2-21" x="334.627734" y="34.589844"/>
  <use xlink:href="#glyph2-7" x="341.227734" y="34.589844"/>
  <use xlink:href="#glyph2-3" x="348.568945" y="34.589844"/>
  <use xlink:href="#glyph2-2" x="359.564648" y="34.589844"/>
  <use xlink:href="#glyph2-5" x="366.905859" y="34.589844"/>
  <use xlink:href="#glyph2-6" x="369.838477" y="34.589844"/>
</g>
<path style=" stroke:none;fill-rule:nonzero;fill:rgb(65.098039%,80.784314%,89.019608%);fill-opacity:0.501961;" d="M 511.484375 188.851563 L 511.484375 67.664063 L 510.144531 67.671875 L 510.191406 71.851563 L 510.238281 76.027344 L 510.332031 84.386719 L 510.375 88.566406 L 510.421875 92.742188 L 510.5625 105.28125 L 510.609375 109.457031 L 510.652344 113.636719 L 510.746094 121.996094 L 510.792969 126.171875 L 510.886719 134.53125 L 510.929688 138.710938 L 510.976563 142.886719 L 511.070313 151.246094 L 511.117188 155.421875 L 511.164063 159.601563 L 511.207031 163.78125 L 511.253906 167.960938 L 511.300781 172.136719 L 511.441406 184.675781 Z M 511.484375 188.851563 "/>
<path style=" stroke:none;fill-rule:nonzero;fill:rgb(12.156863%,47.058824%,70.588235%);fill-opacity:0.501961;" d="M 511.484375 188.851563 L 511.441406 184.675781 L 511.300781 172.136719 L 511.253906 167.960938 L 511.207031 163.78125 L 511.164063 159.601563 L 511.117188 155.421875 L 511.070313 151.246094 L 510.976563 142.886719 L 510.929688 138.710938 L 510.886719 134.53125 L 510.792969 126.171875 L 510.746094 121.996094 L 510.652344 113.636719 L 510.609375 109.457031 L 510.5625 105.28125 L 510.421875 92.742188 L 510.375 88.566406 L 510.332031 84.386719 L 510.238281 76.027344 L 510.191406 71.851563 L 510.144531 67.671875 L 509.96875 67.671875 L 510.019531 71.851563 L 510.074219 76.03125 L 510.125 80.210938 L 510.175781 84.386719 L 510.230469 88.566406 L 510.28125 92.746094 L 510.335938 96.925781 L 510.386719 101.101563 L 510.4375 105.28125 L 510.492188 109.460938 L 510.542969 113.636719 L 510.597656 117.816406 L 510.699219 126.175781 L 510.753906 130.351563 L 510.804688 134.53125 L 510.859375 138.710938 L 510.910156 142.886719 L 510.960938 147.066406 L 511.015625 151.246094 L 511.066406 155.425781 L 511.121094 159.601563 L 511.222656 167.960938 L 511.277344 172.140625 L 511.328125 176.316406 L 511.382813 180.496094 L 511.433594 184.675781 Z M 511.484375 188.851563 "/>
<path style=" stroke:none;fill-rule:nonzero;fill:rgb(69.803922%,87.45098%,54.117647%);fill-opacity:0.501961;" d="M 511.484375 188.851563 L 511.433594 184.675781 L 511.382813 180.496094 L 511.328125 176.316406 L 511.277344 172.140625 L 511.222656 167.960938 L 511.121094 159.601563 L 511.066406 155.425781 L 511.015625 151.246094 L 510.960938 147.066406 L 510.910156 142.886719 L 510.859375 138.710938 L 510.804688 134.53125 L 510.753906 130.351563 L 510.699219 126.175781 L 510.597656 117.816406 L 510.542969 113.636719 L 510.492188 109.460938 L 510.4375 105.28125 L 510.386719 101.101563 L 510.335938 96.925781 L 510.28125 92.746094 L 510.230469 88.566406 L 510.175781 84.386719 L 510.125 80.210938 L 510.074219 76.03125 L 510.019531 71.851563 L 509.96875 67.671875 L 509.851563 67.675781 L 509.910156 71.855469 L 509.964844 76.03125 L 510.019531 80.210938 L 510.078125 84.390625 L 510.132813 88.566406 L 510.191406 92.746094 L 510.246094 96.925781 L 510.304688 101.105469 L 510.359375 105.28125 L 510.414063 109.460938 L 510.472656 113.640625 L 510.527344 117.816406 L 510.585938 121.996094 L 510.640625 126.175781 L 510.699219 130.351563 L 510.808594 138.710938 L 510.867188 142.890625 L 510.921875 147.066406 L 510.980469 151.246094 L 511.035156 155.425781 L 511.09375 159.601563 L 511.203125 167.960938 L 511.261719 172.140625 L 511.316406 176.316406 L 511.375 180.496094 L 511.429688 184.675781 Z M 511.484375 188.851563 "/>
<path style=" stroke:none;fill-rule:nonzero;fill:rgb(55.294118%,82.745098%,78.039216%);fill-opacity:0.501961;" d="M 511.484375 188.851563 L 511.429688 184.675781 L 511.375 180.496094 L 511.316406 176.316406 L 511.261719 172.140625 L 511.203125 167.960938 L 511.09375 159.601563 L 511.035156 155.425781 L 510.980469 151.246094 L 510.921875 147.066406 L 510.867188 142.890625 L 510.808594 138.710938 L 510.699219 130.351563 L 510.640625 126.175781 L 510.585938 121.996094 L 510.527344 117.816406 L 510.472656 113.640625 L 510.414063 109.460938 L 510.359375 105.28125 L 510.304688 101.105469 L 510.246094 96.925781 L 510.191406 92.746094 L 510.132813 88.566406 L 510.078125 84.390625 L 510.019531 80.210938 L 509.964844 76.03125 L 509.910156 71.855469 L 509.851563 67.675781 L 504.542969 67.863281 L 499.246094 68.285156 L 500.089844 76.597656 L 500.511719 80.757813 L 501.355469 89.070313 L 501.777344 93.230469 L 502.621094 101.542969 L 503.042969 105.703125 L 503.886719 114.015625 L 504.308594 118.175781 L 505.152344 126.488281 L 505.578125 130.648438 L 506.421875 138.960938 L 506.84375 143.121094 L 507.6875 151.433594 L 508.109375 155.59375 L 508.953125 163.90625 L 509.375 168.066406 L 510.21875 176.378906 L 510.640625 180.539063 Z M 511.484375 188.851563 "/>
<path style=" stroke:none;fill-rule:nonzero;fill:rgb(20%,62.745098%,17.254902%);fill-opacity:0.501961;" d="M 511.484375 188.851563 L 510.640625 180.539063 L 510.21875 176.378906 L 509.375 168.066406 L 508.953125 163.90625 L 508.109375 155.59375 L 507.6875 151.433594 L 506.84375 143.121094 L 506.421875 138.960938 L 505.578125 130.648438 L 505.152344 126.488281 L 504.308594 118.175781 L 503.886719 114.015625 L 503.042969 105.703125 L 502.621094 101.542969 L 501.777344 93.230469 L 501.355469 89.070313 L 500.511719 80.757813 L 500.089844 76.597656 L 499.246094 68.285156 L 495.160156 68.769531 L 491.097656 69.390625 L 487.054688 70.152344 L 483.042969 71.050781 L 479.0625 72.082031 L 475.121094 73.25 L 471.21875 74.550781 L 467.363281 75.980469 L 463.558594 77.542969 L 459.8125 79.234375 L 456.121094 81.050781 L 452.496094 82.988281 L 448.9375 85.050781 L 445.453125 87.234375 L 442.042969 89.53125 L 438.714844 91.945313 L 435.46875 94.46875 L 432.3125 97.101563 L 429.242188 99.84375 L 426.269531 102.683594 L 423.398438 105.625 L 420.625 108.660156 L 417.957031 111.789063 L 415.394531 115.007813 L 412.945313 118.308594 L 410.609375 121.691406 L 408.386719 125.152344 L 406.285156 128.6875 L 404.304688 132.292969 L 402.449219 135.960938 L 400.71875 139.691406 L 399.113281 143.476563 L 397.636719 147.316406 L 396.292969 151.199219 L 395.082031 155.128906 L 394.007813 159.097656 L 393.066406 163.101563 L 392.257813 167.132813 L 391.589844 171.191406 L 391.0625 175.269531 L 390.667969 179.363281 L 390.417969 183.464844 L 390.304688 187.578125 L 390.332031 191.6875 L 390.496094 195.796875 L 390.800781 199.898438 L 391.246094 203.984375 L 391.828125 208.054688 L 392.546875 212.105469 L 393.40625 216.125 L 394.398438 220.117188 L 395.527344 224.070313 L 396.789063 227.984375 L 398.183594 231.851563 L 399.707031 235.671875 L 401.359375 239.4375 L 403.136719 243.144531 L 405.042969 246.789063 L 407.070313 250.367188 L 409.214844 253.875 L 411.480469 257.304688 L 413.859375 260.660156 L 416.351563 263.929688 L 418.957031 267.113281 L 421.664063 270.207031 L 424.476563 273.207031 L 427.386719 276.113281 L 430.394531 278.914063 L 433.496094 281.613281 L 436.691406 284.207031 L 439.96875 286.6875 L 443.328125 289.058594 L 446.765625 291.3125 L 450.28125 293.449219 L 453.863281 295.464844 L 457.515625 297.359375 L 461.226563 299.128906 L 464.996094 300.769531 L 468.820313 302.28125 L 472.691406 303.664063 L 476.609375 304.914063 L 480.566406 306.03125 L 484.5625 307.011719 L 488.585938 307.859375 L 492.636719 308.566406 L 496.707031 309.136719 L 500.796875 309.570313 L 504.898438 309.863281 L 509.007813 310.015625 L 513.121094 310.03125 L 517.230469 309.90625 L 521.332031 309.640625 L 525.425781 309.238281 L 529.5 308.695313 L 533.554688 308.015625 L 537.585938 307.199219 L 541.585938 306.246094 L 545.550781 305.15625 L 549.476563 303.933594 L 553.359375 302.578125 L 557.195313 301.09375 L 560.976563 299.476563 L 564.699219 297.734375 L 568.363281 295.867188 L 571.960938 293.875 L 575.488281 291.761719 L 578.941406 289.53125 L 582.320313 287.1875 L 585.613281 284.726563 L 588.824219 282.15625 L 591.945313 279.480469 L 594.972656 276.695313 L 597.90625 273.8125 L 600.738281 270.832031 L 603.46875 267.757813 L 606.09375 264.59375 L 608.609375 261.339844 L 611.011719 258.003906 L 613.300781 254.585938 L 615.472656 251.09375 L 617.523438 247.53125 L 619.453125 243.898438 L 621.257813 240.203125 L 622.9375 236.453125 L 624.488281 232.644531 L 625.90625 228.785156 L 627.195313 224.878906 L 628.351563 220.933594 L 629.375 216.949219 L 630.257813 212.933594 L 631.007813 208.890625 L 631.617188 204.824219 L 632.089844 200.738281 L 632.425781 196.640625 L 632.621094 192.535156 L 632.675781 188.421875 L 632.589844 184.3125 L 632.367188 180.207031 L 632.003906 176.109375 L 631.5 172.027344 L 630.863281 167.964844 L 630.085938 163.929688 L 629.171875 159.917969 L 628.121094 155.945313 L 626.9375 152.003906 L 625.621094 148.109375 L 624.171875 144.261719 L 622.59375 140.464844 L 620.890625 136.722656 L 619.058594 133.042969 L 617.101563 129.421875 L 615.027344 125.875 L 612.828125 122.398438 L 610.515625 119 L 608.089844 115.679688 L 605.550781 112.445313 L 602.90625 109.296875 L 600.152344 106.242188 L 597.300781 103.28125 L 594.347656 100.417969 L 591.300781 97.65625 L 588.160156 95.003906 L 584.933594 92.457031 L 581.621094 90.019531 L 578.226563 87.695313 L 574.757813 85.492188 L 571.214844 83.402344 L 567.601563 81.4375 L 563.925781 79.597656 L 560.1875 77.878906 L 556.394531 76.292969 L 554.847656 80.171875 L 553.296875 84.054688 L 551.75 87.9375 L 550.199219 91.816406 L 547.105469 99.582031 L 545.554688 103.460938 L 544.007813 107.34375 L 542.457031 111.226563 L 540.910156 115.105469 L 539.359375 118.988281 L 537.8125 122.871094 L 536.261719 126.75 L 534.714844 130.632813 L 533.167969 134.511719 L 531.617188 138.394531 L 530.070313 142.277344 L 528.519531 146.15625 L 526.972656 150.039063 L 525.421875 153.921875 L 523.875 157.800781 L 522.328125 161.683594 L 520.777344 165.566406 L 519.230469 169.445313 L 517.679688 173.328125 L 516.132813 177.207031 L 514.582031 181.089844 L 513.035156 184.972656 Z M 511.484375 188.851563 "/>
<path style=" stroke:none;fill-rule:nonzero;fill:rgb(98.431373%,60.392157%,60%);fill-opacity:0.501961;" d="M 511.484375 188.851563 L 513.035156 184.972656 L 514.582031 181.089844 L 516.132813 177.207031 L 517.679688 173.328125 L 519.230469 169.445313 L 520.777344 165.566406 L 522.328125 161.683594 L 523.875 157.800781 L 525.421875 153.921875 L 526.972656 150.039063 L 528.519531 146.15625 L 530.070313 142.277344 L 531.617188 138.394531 L 533.167969 134.511719 L 534.714844 130.632813 L 536.261719 126.75 L 537.8125 122.871094 L 539.359375 118.988281 L 540.910156 115.105469 L 542.457031 111.226563 L 544.007813 107.34375 L 545.554688 103.460938 L 547.105469 99.582031 L 550.199219 91.816406 L 551.75 87.9375 L 553.296875 84.054688 L 554.847656 80.171875 L 556.394531 76.292969 L 552.53125 74.824219 L 548.617188 73.492188 L 544.660156 72.292969 L 540.664063 71.230469 L 536.636719 70.300781 L 532.578125 69.511719 L 528.496094 68.863281 L 524.390625 68.351563 L 523.054688 80.820313 L 522.613281 84.972656 L 521.722656 93.285156 L 521.277344 97.4375 L 519.941406 109.90625 L 519.496094 114.058594 L 518.160156 126.527344 L 517.714844 130.679688 L 517.269531 134.835938 L 516.828125 138.992188 L 516.382813 143.144531 L 515.046875 155.613281 L 514.601563 159.765625 L 513.265625 172.234375 L 512.820313 176.386719 L 511.929688 184.699219 Z M 511.484375 188.851563 "/>
<path style=" stroke:none;fill-rule:nonzero;fill:rgb(89.019608%,10.196078%,10.980392%);fill-opacity:0.501961;" d="M 511.484375 188.851563 L 511.929688 184.699219 L 512.820313 176.386719 L 513.265625 172.234375 L 514.601563 159.765625 L 515.046875 155.613281 L 516.382813 143.144531 L 516.828125 138.992188 L 517.269531 134.835938 L 517.714844 130.679688 L 518.160156 126.527344 L 519.496094 114.058594 L 519.941406 109.90625 L 521.277344 97.4375 L 521.722656 93.285156 L 522.613281 84.972656 L 523.054688 80.820313 L 524.390625 68.351563 L 519.320313 67.917969 L 519.050781 72.085938 L 518.777344 76.257813 L 518.507813 80.429688 L 518.238281 84.597656 L 517.96875 88.769531 L 517.699219 92.9375 L 517.429688 97.109375 L 517.15625 101.277344 L 516.617188 109.621094 L 516.347656 113.789063 L 516.078125 117.960938 L 515.808594 122.128906 L 515.539063 126.300781 L 515.265625 130.46875 L 514.726563 138.8125 L 514.457031 142.980469 L 514.1875 147.152344 L 513.917969 151.320313 L 513.648438 155.492188 L 513.375 159.660156 L 512.835938 168.003906 L 512.566406 172.171875 L 512.296875 176.34375 L 512.027344 180.511719 L 511.757813 184.683594 Z M 511.484375 188.851563 "/>
<path style=" stroke:none;fill-rule:nonzero;fill:rgb(99.215686%,74.901961%,43.529412%);fill-opacity:0.501961;" d="M 511.484375 188.851563 L 511.757813 184.683594 L 512.027344 180.511719 L 512.296875 176.34375 L 512.566406 172.171875 L 512.835938 168.003906 L 513.375 159.660156 L 513.648438 155.492188 L 513.917969 151.320313 L 514.1875 147.152344 L 514.457031 142.980469 L 514.726563 138.8125 L 515.265625 130.46875 L 515.539063 126.300781 L 515.808594 122.128906 L 516.078125 117.960938 L 516.347656 113.789063 L 516.617188 109.621094 L 517.15625 101.277344 L 517.429688 97.109375 L 517.699219 92.9375 L 517.96875 88.769531 L 518.238281 84.597656 L 518.507813 80.429688 L 518.777344 76.257813 L 519.050781 72.085938 L 519.320313 67.917969 L 519.207031 67.910156 L 518.9375 72.082031 L 518.671875 76.25 L 518.140625 84.59375 L 517.875 88.761719 L 517.609375 92.933594 L 517.34375 97.101563 L 517.074219 101.273438 L 516.808594 105.445313 L 516.542969 109.613281 L 516.011719 117.957031 L 515.746094 122.125 L 515.480469 126.296875 L 515.210938 130.46875 L 514.945313 134.636719 L 514.679688 138.808594 L 514.414063 142.976563 L 513.882813 151.320313 L 513.617188 155.488281 L 513.347656 159.660156 L 513.082031 163.832031 L 512.816406 168 L 512.550781 172.171875 L 512.285156 176.339844 L 511.753906 184.683594 Z M 511.484375 188.851563 "/>
<path style=" stroke:none;fill-rule:nonzero;fill:rgb(100%,49.803922%,0%);fill-opacity:0.501961;" d="M 511.484375 188.851563 L 511.753906 184.683594 L 512.285156 176.339844 L 512.550781 172.171875 L 512.816406 168 L 513.082031 163.832031 L 513.347656 159.660156 L 513.617188 155.488281 L 513.882813 151.320313 L 514.414063 142.976563 L 514.679688 138.808594 L 514.945313 134.636719 L 515.210938 130.46875 L 515.480469 126.296875 L 515.746094 122.125 L 516.011719 117.957031 L 516.542969 109.613281 L 516.808594 105.445313 L 517.074219 101.273438 L 517.34375 97.101563 L 517.609375 92.933594 L 517.875 88.761719 L 518.140625 84.59375 L 518.671875 76.25 L 518.9375 72.082031 L 519.207031 67.910156 L 519 67.898438 L 518.738281 72.066406 L 518.222656 80.410156 L 517.960938 84.582031 L 517.703125 88.75 L 517.445313 92.921875 L 517.183594 97.09375 L 516.925781 101.265625 L 516.667969 105.433594 L 516.410156 109.605469 L 516.148438 113.777344 L 515.890625 117.949219 L 515.632813 122.117188 L 515.371094 126.289063 L 514.855469 134.632813 L 514.59375 138.800781 L 514.078125 147.144531 L 513.816406 151.316406 L 513.558594 155.484375 L 513.300781 159.65625 L 513.039063 163.828125 L 512.78125 168 L 512.523438 172.167969 L 512.261719 176.339844 L 511.746094 184.683594 Z M 511.484375 188.851563 "/>
<path style=" stroke:none;fill-rule:nonzero;fill:rgb(50.196078%,50.196078%,50.196078%);fill-opacity:0.501961;" d="M 511.484375 188.851563 L 511.746094 184.683594 L 512.261719 176.339844 L 512.523438 172.167969 L 512.78125 168 L 513.039063 163.828125 L 513.300781 159.65625 L 513.558594 155.484375 L 513.816406 151.316406 L 514.078125 147.144531 L 514.59375 138.800781 L 514.855469 134.632813 L 515.371094 126.289063 L 515.632813 122.117188 L 515.890625 117.949219 L 516.148438 113.777344 L 516.410156 109.605469 L 516.667969 105.433594 L 516.925781 101.265625 L 517.183594 97.09375 L 517.445313 92.921875 L 517.703125 88.75 L 517.960938 84.582031 L 518.222656 80.410156 L 518.738281 72.066406 L 519 67.898438 L 514.777344 67.707031 L 514.660156 71.886719 L 514.546875 76.0625 L 514.433594 80.242188 L 514.320313 84.417969 L 514.207031 88.597656 L 513.980469 96.949219 L 513.867188 101.128906 L 513.753906 105.304688 L 513.640625 109.484375 L 513.414063 117.835938 L 513.300781 122.015625 L 513.1875 126.191406 L 513.074219 130.371094 L 512.847656 138.722656 L 512.734375 142.902344 L 512.621094 147.078125 L 512.507813 151.257813 L 512.394531 155.433594 L 512.28125 159.613281 L 512.054688 167.964844 L 511.941406 172.144531 L 511.828125 176.320313 L 511.714844 180.5 L 511.597656 184.675781 Z M 511.484375 188.851563 "/>
<path style=" stroke:none;fill-rule:nonzero;fill:rgb(79.215686%,69.803922%,83.921569%);fill-opacity:0.501961;" d="M 511.484375 188.851563 L 511.597656 184.675781 L 511.714844 180.5 L 511.828125 176.320313 L 511.941406 172.144531 L 512.054688 167.964844 L 512.28125 159.613281 L 512.394531 155.433594 L 512.507813 151.257813 L 512.621094 147.078125 L 512.734375 142.902344 L 512.847656 138.722656 L 513.074219 130.371094 L 513.1875 126.191406 L 513.300781 122.015625 L 513.414063 117.835938 L 513.640625 109.484375 L 513.753906 105.304688 L 513.867188 101.128906 L 513.980469 96.949219 L 514.207031 88.597656 L 514.320313 84.417969 L 514.433594 80.242188 L 514.546875 76.0625 L 514.660156 71.886719 L 514.777344 67.707031 L 514.613281 67.703125 L 514.507813 71.882813 L 514.398438 76.058594 L 514.289063 80.238281 L 514.183594 84.414063 L 514.074219 88.59375 L 513.964844 92.769531 L 513.859375 96.949219 L 513.75 101.125 L 513.644531 105.300781 L 513.535156 109.480469 L 513.425781 113.65625 L 513.320313 117.835938 L 513.210938 122.011719 L 513.105469 126.191406 L 512.996094 130.367188 L 512.886719 134.546875 L 512.78125 138.722656 L 512.671875 142.898438 L 512.566406 147.078125 L 512.457031 151.253906 L 512.347656 155.433594 L 512.242188 159.609375 L 512.132813 163.789063 L 512.027344 167.964844 L 511.917969 172.144531 L 511.808594 176.320313 L 511.703125 180.496094 L 511.59375 184.675781 Z M 511.484375 188.851563 "/>
<path style=" stroke:none;fill-rule:nonzero;fill:rgb(41.568627%,23.921569%,60.392157%);fill-opacity:0.501961;" d="M 511.484375 188.851563 L 511.59375 184.675781 L 511.703125 180.496094 L 511.808594 176.320313 L 511.917969 172.144531 L 512.027344 167.964844 L 512.132813 163.789063 L 512.242188 159.609375 L 512.347656 155.433594 L 512.457031 151.253906 L 512.566406 147.078125 L 512.671875 142.898438 L 512.78125 138.722656 L 512.886719 134.546875 L 512.996094 130.367188 L 513.105469 126.191406 L 513.210938 122.011719 L 513.320313 117.835938 L 513.425781 113.65625 L 513.535156 109.480469 L 513.644531 105.300781 L 513.75 101.125 L 513.859375 96.949219 L 513.964844 92.769531 L 514.074219 88.59375 L 514.183594 84.414063 L 514.289063 80.238281 L 514.398438 76.058594 L 514.507813 71.882813 L 514.613281 67.703125 L 511.484375 67.664063 Z M 511.484375 188.851563 "/>
<g style="fill:rgb(0%,0%,0%);fill-opacity:1;">
  <use xlink:href="#glyph0-1" x="668.640625" y="86.371094"/>
  <use xlink:href="#glyph0-2" x="674.758301" y="86.371094"/>
  <use xlink:href="#glyph0-3" x="677.202148" y="86.371094"/>
  <use xlink:href="#glyph0-2" x="683.319824" y="86.371094"/>
  <use xlink:href="#glyph0-4" x="685.763672" y="86.371094"/>
  <use xlink:href="#glyph0-5" x="691.881348" y="86.371094"/>
  <use xlink:href="#glyph0-6" x="694.9375" y="86.371094"/>
  <use xlink:href="#glyph0-7" x="700.4375" y="86.371094"/>
  <use xlink:href="#glyph0-8" x="702.881348" y="86.371094"/>
  <use xlink:href="#glyph0-9" x="708.999023" y="86.371094"/>
  <use xlink:href="#glyph0-9" x="714.499023" y="86.371094"/>
</g>
<path style=" stroke:none;fill-rule:nonzero;fill:rgb(65.098039%,80.784314%,89.019608%);fill-opacity:0.501961;" d="M 669.351563 109.578125 L 685.214844 109.578125 L 685.214844 93.714844 L 669.351563 93.714844 Z M 669.351563 109.578125 "/>
<path style=" stroke:none;fill-rule:nonzero;fill:rgb(12.156863%,47.058824%,70.588235%);fill-opacity:0.501961;" d="M 669.351563 126.859375 L 685.214844 126.859375 L 685.214844 110.996094 L 669.351563 110.996094 Z M 669.351563 126.859375 "/>
<path style=" stroke:none;fill-rule:nonzero;fill:rgb(69.803922%,87.45098%,54.117647%);fill-opacity:0.501961;" d="M 669.351563 144.136719 L 685.214844 144.136719 L 685.214844 128.273438 L 669.351563 128.273438 Z M 669.351563 144.136719 "/>
<path style=" stroke:none;fill-rule:nonzero;fill:rgb(55.294118%,82.745098%,78.039216%);fill-opacity:0.501961;" d="M 669.351563 161.417969 L 685.214844 161.417969 L 685.214844 145.554688 L 669.351563 145.554688 Z M 669.351563 161.417969 "/>
<path style=" stroke:none;fill-rule:nonzero;fill:rgb(20%,62.745098%,17.254902%);fill-opacity:0.501961;" d="M 669.351563 178.699219 L 685.214844 178.699219 L 685.214844 162.835938 L 669.351563 162.835938 Z M 669.351563 178.699219 "/>
<path style=" stroke:none;fill-rule:nonzero;fill:rgb(98.431373%,60.392157%,60%);fill-opacity:0.501961;" d="M 669.351563 195.980469 L 685.214844 195.980469 L 685.214844 180.117188 L 669.351563 180.117188 Z M 669.351563 195.980469 "/>
<path style=" stroke:none;fill-rule:nonzero;fill:rgb(89.019608%,10.196078%,10.980392%);fill-opacity:0.501961;" d="M 669.351563 213.257813 L 685.214844 213.257813 L 685.214844 197.394531 L 669.351563 197.394531 Z M 669.351563 213.257813 "/>
<path style=" stroke:none;fill-rule:nonzero;fill:rgb(99.215686%,74.901961%,43.529412%);fill-opacity:0.501961;" d="M 669.351563 230.539063 L 685.214844 230.539063 L 685.214844 214.675781 L 669.351563 214.675781 Z M 669.351563 230.539063 "/>
<path style=" stroke:none;fill-rule:nonzero;fill:rgb(100%,49.803922%,0%);fill-opacity:0.501961;" d="M 669.351563 247.820313 L 685.214844 247.820313 L 685.214844 231.957031 L 669.351563 231.957031 Z M 669.351563 247.820313 "/>
<path style=" stroke:none;fill-rule:nonzero;fill:rgb(50.196078%,50.196078%,50.196078%);fill-opacity:0.501961;" d="M 669.351563 265.097656 L 685.214844 265.097656 L 685.214844 249.234375 L 669.351563 249.234375 Z M 669.351563 265.097656 "/>
<path style=" stroke:none;fill-rule:nonzero;fill:rgb(79.215686%,69.803922%,83.921569%);fill-opacity:0.501961;" d="M 669.351563 282.378906 L 685.214844 282.378906 L 685.214844 266.515625 L 669.351563 266.515625 Z M 669.351563 282.378906 "/>
<path style=" stroke:none;fill-rule:nonzero;fill:rgb(41.568627%,23.921569%,60.392157%);fill-opacity:0.501961;" d="M 669.351563 299.660156 L 685.214844 299.660156 L 685.214844 283.796875 L 669.351563 283.796875 Z M 669.351563 299.660156 "/>
<g style="fill:rgb(0%,0%,0%);fill-opacity:1;">
  <use xlink:href="#glyph1-1" x="691.402344" y="104.796875"/>
  <use xlink:href="#glyph1-2" x="697.757422" y="104.796875"/>
  <use xlink:href="#glyph1-3" x="703.626953" y="104.796875"/>
</g>
<g style="fill:rgb(0%,0%,0%);fill-opacity:1;">
  <use xlink:href="#glyph1-1" x="691.402344" y="122.078125"/>
  <use xlink:href="#glyph1-4" x="697.757422" y="122.078125"/>
</g>
<g style="fill:rgb(0%,0%,0%);fill-opacity:1;">
  <use xlink:href="#glyph1-1" x="691.402344" y="139.355469"/>
  <use xlink:href="#glyph1-5" x="697.757422" y="139.355469"/>
  <use xlink:href="#glyph1-6" x="702.651562" y="139.355469"/>
</g>
<g style="fill:rgb(0%,0%,0%);fill-opacity:1;">
  <use xlink:href="#glyph1-7" x="691.402344" y="156.636719"/>
  <use xlink:href="#glyph1-2" x="697.757422" y="156.636719"/>
  <use xlink:href="#glyph1-8" x="703.626953" y="156.636719"/>
</g>
<g style="fill:rgb(0%,0%,0%);fill-opacity:1;">
  <use xlink:href="#glyph1-9" x="691.402344" y="173.917969"/>
  <use xlink:href="#glyph1-2" x="696.777734" y="173.917969"/>
</g>
<g style="fill:rgb(0%,0%,0%);fill-opacity:1;">
  <use xlink:href="#glyph1-10" x="691.402344" y="191.195313"/>
  <use xlink:href="#glyph1-1" x="697.271875" y="191.195313"/>
</g>
<g style="fill:rgb(0%,0%,0%);fill-opacity:1;">
  <use xlink:href="#glyph1-10" x="691.402344" y="208.476563"/>
  <use xlink:href="#glyph1-4" x="697.271875" y="208.476563"/>
</g>
<g style="fill:rgb(0%,0%,0%);fill-opacity:1;">
  <use xlink:href="#glyph1-10" x="691.402344" y="225.757813"/>
  <use xlink:href="#glyph1-8" x="697.271875" y="225.757813"/>
</g>
<g style="fill:rgb(0%,0%,0%);fill-opacity:1;">
  <use xlink:href="#glyph1-10" x="691.402344" y="243.035156"/>
  <use xlink:href="#glyph1-11" x="697.271875" y="243.035156"/>
</g>
<g style="fill:rgb(0%,0%,0%);fill-opacity:1;">
  <use xlink:href="#glyph1-10" x="691.402344" y="260.316406"/>
  <use xlink:href="#glyph1-12" x="697.271875" y="260.316406"/>
</g>
<g style="fill:rgb(0%,0%,0%);fill-opacity:1;">
  <use xlink:href="#glyph1-12" x="691.402344" y="277.597656"/>
  <use xlink:href="#glyph1-13" x="697.271875" y="277.597656"/>
</g>
<g style="fill:rgb(0%,0%,0%);fill-opacity:1;">
  <use xlink:href="#glyph1-14" x="691.402344" y="294.875"/>
  <use xlink:href="#glyph1-2" x="696.777734" y="294.875"/>
  <use xlink:href="#glyph1-8" x="702.647266" y="294.875"/>
</g>
<g style="fill:rgb(0%,0%,0%);fill-opacity:1;">
  <use xlink:href="#glyph2-1" x="360" y="34.589844"/>
  <use xlink:href="#glyph2-2" x="368.804297" y="34.589844"/>
  <use xlink:href="#glyph2-3" x="376.145508" y="34.589844"/>
  <use xlink:href="#glyph2-4" x="387.141211" y="34.589844"/>
  <use xlink:href="#glyph2-5" x="394.482422" y="34.589844"/>
  <use xlink:href="#glyph2-6" x="397.415039" y="34.589844"/>
  <use xlink:href="#glyph2-7" x="404.75625" y="34.589844"/>
  <use xlink:href="#glyph2-8" x="412.097461" y="34.589844"/>
  <use xlink:href="#glyph2-9" x="420.160547" y="34.589844"/>
  <use xlink:href="#glyph2-4" x="426.760547" y="34.589844"/>
  <use xlink:href="#glyph2-6" x="434.101758" y="34.589844"/>
  <use xlink:href="#glyph2-7" x="441.442969" y="34.589844"/>
  <use xlink:href="#glyph2-10" x="448.78418" y="34.589844"/>
  <use xlink:href="#glyph2-6" x="458.316797" y="34.589844"/>
  <use xlink:href="#glyph2-11" x="465.658008" y="34.589844"/>
  <use xlink:href="#glyph2-12" x="472.999219" y="34.589844"/>
  <use xlink:href="#glyph2-13" x="477.394922" y="34.589844"/>
  <use xlink:href="#glyph2-14" x="484.736133" y="34.589844"/>
  <use xlink:href="#glyph2-7" x="492.077344" y="34.589844"/>
  <use xlink:href="#glyph2-7" x="499.418555" y="34.589844"/>
  <use xlink:href="#glyph2-1" x="506.759766" y="34.589844"/>
  <use xlink:href="#glyph2-5" x="515.564063" y="34.589844"/>
  <use xlink:href="#glyph2-6" x="518.49668" y="34.589844"/>
  <use xlink:href="#glyph2-6" x="525.837891" y="34.589844"/>
  <use xlink:href="#glyph2-4" x="533.179102" y="34.589844"/>
  <use xlink:href="#glyph2-7" x="540.520313" y="34.589844"/>
  <use xlink:href="#glyph2-15" x="547.861523" y="34.589844"/>
  <use xlink:href="#glyph2-13" x="557.394141" y="34.589844"/>
  <use xlink:href="#glyph2-14" x="564.735352" y="34.589844"/>
  <use xlink:href="#glyph2-16" x="572.076563" y="34.589844"/>
  <use xlink:href="#glyph2-17" x="579.417773" y="34.589844"/>
  <use xlink:href="#glyph2-18" x="582.350391" y="34.589844"/>
  <use xlink:href="#glyph2-17" x="586.017773" y="34.589844"/>
  <use xlink:href="#glyph2-13" x="588.950391" y="34.589844"/>
  <use xlink:href="#glyph2-14" x="596.291602" y="34.589844"/>
  <use xlink:href="#glyph2-7" x="603.632813" y="34.589844"/>
  <use xlink:href="#glyph2-19" x="610.974023" y="34.589844"/>
  <use xlink:href="#glyph2-6" x="620.506641" y="34.589844"/>
  <use xlink:href="#glyph2-4" x="627.847852" y="34.589844"/>
  <use xlink:href="#glyph2-12" x="635.189063" y="34.589844"/>
  <use xlink:href="#glyph2-17" x="639.584766" y="34.589844"/>
  <use xlink:href="#glyph2-20" x="642.517383" y="34.589844"/>
  <use xlink:href="#glyph2-6" x="649.117383" y="34.589844"/>
  <use xlink:href="#glyph2-16" x="656.458594" y="34.589844"/>
  <use xlink:href="#glyph2-7" x="663.799805" y="34.589844"/>
  <use xlink:href="#glyph2-7" x="671.141016" y="34.589844"/>
  <use xlink:href="#glyph2-1" x="678.482227" y="34.589844"/>
  <use xlink:href="#glyph2-6" x="687.286523" y="34.589844"/>
  <use xlink:href="#glyph2-21" x="694.627734" y="34.589844"/>
  <use xlink:href="#glyph2-7" x="701.227734" y="34.589844"/>
  <use xlink:href="#glyph2-22" x="708.568945" y="34.589844"/>
  <use xlink:href="#glyph2-6" x="716.632031" y="34.589844"/>
  <use xlink:href="#glyph2-3" x="723.973242" y="34.589844"/>
  <use xlink:href="#glyph2-2" x="734.968945" y="34.589844"/>
  <use xlink:href="#glyph2-5" x="742.310156" y="34.589844"/>
  <use xlink:href="#glyph2-6" x="745.242773" y="34.589844"/>
</g>
</g>
</svg>
