<?xml version="1.0" encoding="UTF-8"?>
<svg xmlns="http://www.w3.org/2000/svg" xmlns:xlink="http://www.w3.org/1999/xlink" width="720pt" height="360pt" viewBox="0 0 720 360" version="1.1">
<defs>
<g>
<symbol overflow="visible" id="glyph0-0">
<path style="stroke:none;" d="M 1.375 0 L 1.375 -6.875 L 6.875 -6.875 L 6.875 0 Z M 1.546875 -0.171875 L 6.703125 -0.171875 L 6.703125 -6.703125 L 1.546875 -6.703125 Z M 1.546875 -0.171875 "/>
</symbol>
<symbol overflow="visible" id="glyph0-1">
<path style="stroke:none;" d="M 0.804688 0 L 0.804688 -7.875 L 1.847656 -7.875 L 1.847656 -0.929688 L 5.726563 -0.929688 L 5.726563 0 Z M 0.804688 0 "/>
</symbol>
<symbol overflow="visible" id="glyph0-2">
<path style="stroke:none;" d="M 0.730469 -6.761719 L 0.730469 -7.875 L 1.695313 -7.875 L 1.695313 -6.761719 Z M 0.730469 0 L 0.730469 -5.703125 L 1.695313 -5.703125 L 1.695313 0 Z M 0.730469 0 "/>
</symbol>
<symbol overflow="visible" id="glyph0-3">
<path style="stroke:none;" d="M 0.726563 2.1875 L 0.726563 -5.703125 L 1.605469 -5.703125 L 1.605469 -4.960938 C 1.8125 -5.25 2.046875 -5.46875 2.308594 -5.613281 C 2.570313 -5.757813 2.886719 -5.828125 3.261719 -5.832031 C 3.746094 -5.828125 4.175781 -5.703125 4.550781 -5.457031 C 4.921875 -5.203125 5.203125 -4.851563 5.390625 -4.394531 C 5.578125 -3.9375 5.671875 -3.4375 5.675781 -2.894531 C 5.671875 -2.308594 5.566406 -1.78125 5.359375 -1.316406 C 5.148438 -0.847656 4.84375 -0.488281 4.449219 -0.242188 C 4.046875 0.0078125 3.628906 0.128906 3.191406 0.128906 C 2.867188 0.128906 2.578125 0.0625 2.320313 -0.0742188 C 2.0625 -0.210938 1.851563 -0.382813 1.691406 -0.589844 L 1.691406 2.1875 Z M 1.601563 -2.820313 C 1.597656 -2.082031 1.746094 -1.539063 2.046875 -1.191406 C 2.339844 -0.835938 2.699219 -0.660156 3.125 -0.664063 C 3.550781 -0.660156 3.917969 -0.84375 4.226563 -1.210938 C 4.53125 -1.574219 4.6875 -2.136719 4.6875 -2.898438 C 4.6875 -3.625 4.535156 -4.167969 4.238281 -4.53125 C 3.9375 -4.890625 3.582031 -5.074219 3.167969 -5.074219 C 2.753906 -5.074219 2.390625 -4.878906 2.074219 -4.496094 C 1.757813 -4.109375 1.597656 -3.550781 1.601563 -2.820313 Z M 1.601563 -2.820313 "/>
</symbol>
<symbol overflow="visible" id="glyph0-4">
<path style="stroke:none;" d="M 4.425781 0 L 4.425781 -0.71875 C 4.058594 -0.152344 3.527344 0.128906 2.832031 0.128906 C 2.371094 0.128906 1.953125 0.00390625 1.574219 -0.246094 C 1.191406 -0.496094 0.894531 -0.84375 0.6875 -1.296875 C 0.476563 -1.742188 0.375 -2.261719 0.375 -2.847656 C 0.375 -3.414063 0.46875 -3.929688 0.660156 -4.394531 C 0.847656 -4.859375 1.132813 -5.214844 1.515625 -5.460938 C 1.894531 -5.707031 2.320313 -5.828125 2.789063 -5.832031 C 3.132813 -5.828125 3.4375 -5.757813 3.707031 -5.613281 C 3.972656 -5.46875 4.191406 -5.277344 4.359375 -5.046875 L 4.359375 -7.875 L 5.324219 -7.875 L 5.324219 0 Z M 1.371094 -2.847656 C 1.371094 -2.113281 1.523438 -1.566406 1.832031 -1.207031 C 2.136719 -0.84375 2.5 -0.660156 2.921875 -0.664063 C 3.339844 -0.660156 3.699219 -0.835938 3.996094 -1.183594 C 4.292969 -1.527344 4.441406 -2.054688 4.441406 -2.765625 C 4.441406 -3.546875 4.289063 -4.117188 3.988281 -4.484375 C 3.6875 -4.84375 3.316406 -5.027344 2.878906 -5.03125 C 2.445313 -5.027344 2.085938 -4.851563 1.800781 -4.503906 C 1.511719 -4.152344 1.371094 -3.601563 1.371094 -2.847656 Z M 1.371094 -2.847656 "/>
</symbol>
<symbol overflow="visible" id="glyph0-5">
<path style="stroke:none;" d=""/>
</symbol>
<symbol overflow="visible" id="glyph0-6">
<path style="stroke:none;" d="M 4.445313 -2.089844 L 5.398438 -1.964844 C 5.289063 -1.308594 5.023438 -0.796875 4.597656 -0.425781 C 4.167969 -0.0546875 3.644531 0.128906 3.023438 0.128906 C 2.242188 0.128906 1.613281 -0.125 1.140625 -0.636719 C 0.664063 -1.144531 0.425781 -1.875 0.429688 -2.832031 C 0.425781 -3.441406 0.527344 -3.980469 0.734375 -4.445313 C 0.9375 -4.90625 1.25 -5.253906 1.667969 -5.484375 C 2.082031 -5.714844 2.535156 -5.828125 3.03125 -5.832031 C 3.644531 -5.828125 4.152344 -5.671875 4.546875 -5.363281 C 4.941406 -5.046875 5.191406 -4.601563 5.304688 -4.027344 L 4.367188 -3.882813 C 4.273438 -4.261719 4.117188 -4.550781 3.890625 -4.746094 C 3.664063 -4.941406 3.386719 -5.039063 3.066406 -5.039063 C 2.574219 -5.039063 2.179688 -4.863281 1.878906 -4.515625 C 1.570313 -4.164063 1.417969 -3.613281 1.421875 -2.859375 C 1.417969 -2.089844 1.566406 -1.53125 1.863281 -1.183594 C 2.15625 -0.835938 2.539063 -0.660156 3.011719 -0.664063 C 3.390625 -0.660156 3.707031 -0.777344 3.960938 -1.011719 C 4.214844 -1.242188 4.375 -1.601563 4.445313 -2.089844 Z M 4.445313 -2.089844 "/>
</symbol>
<symbol overflow="visible" id="glyph0-7">
<path style="stroke:none;" d="M 0.703125 0 L 0.703125 -7.875 L 1.671875 -7.875 L 1.671875 0 Z M 0.703125 0 "/>
</symbol>
<symbol overflow="visible" id="glyph0-8">
<path style="stroke:none;" d="M 4.445313 -0.703125 C 4.085938 -0.398438 3.742188 -0.183594 3.414063 -0.0585938 C 3.082031 0.0664063 2.726563 0.128906 2.347656 0.128906 C 1.71875 0.128906 1.238281 -0.0234375 0.902344 -0.328125 C 0.566406 -0.632813 0.398438 -1.023438 0.398438 -1.503906 C 0.398438 -1.78125 0.460938 -2.035156 0.585938 -2.269531 C 0.710938 -2.496094 0.875 -2.683594 1.085938 -2.824219 C 1.289063 -2.964844 1.523438 -3.070313 1.78125 -3.140625 C 1.96875 -3.191406 2.253906 -3.238281 2.640625 -3.289063 C 3.417969 -3.375 3.992188 -3.488281 4.367188 -3.621094 C 4.367188 -3.753906 4.371094 -3.835938 4.371094 -3.871094 C 4.371094 -4.265625 4.277344 -4.542969 4.097656 -4.703125 C 3.847656 -4.917969 3.480469 -5.027344 2.996094 -5.03125 C 2.539063 -5.027344 2.203125 -4.949219 1.988281 -4.792969 C 1.769531 -4.632813 1.609375 -4.351563 1.507813 -3.949219 L 0.5625 -4.078125 C 0.648438 -4.480469 0.789063 -4.804688 0.988281 -5.054688 C 1.183594 -5.300781 1.46875 -5.492188 1.84375 -5.628906 C 2.214844 -5.761719 2.644531 -5.828125 3.136719 -5.832031 C 3.621094 -5.828125 4.019531 -5.773438 4.324219 -5.660156 C 4.628906 -5.542969 4.851563 -5.398438 4.996094 -5.226563 C 5.136719 -5.054688 5.238281 -4.835938 5.296875 -4.570313 C 5.328125 -4.40625 5.34375 -4.109375 5.34375 -3.679688 L 5.34375 -2.390625 C 5.34375 -1.492188 5.363281 -0.921875 5.40625 -0.683594 C 5.445313 -0.445313 5.527344 -0.21875 5.648438 0 L 4.640625 0 C 4.539063 -0.199219 4.472656 -0.433594 4.445313 -0.703125 Z M 4.367188 -2.863281 C 4.011719 -2.71875 3.488281 -2.597656 2.789063 -2.496094 C 2.390625 -2.4375 2.105469 -2.371094 1.941406 -2.300781 C 1.773438 -2.226563 1.648438 -2.121094 1.5625 -1.988281 C 1.472656 -1.847656 1.429688 -1.695313 1.429688 -1.53125 C 1.429688 -1.269531 1.527344 -1.054688 1.722656 -0.886719 C 1.917969 -0.710938 2.203125 -0.625 2.578125 -0.628906 C 2.949219 -0.625 3.277344 -0.707031 3.570313 -0.871094 C 3.859375 -1.03125 4.074219 -1.253906 4.210938 -1.542969 C 4.3125 -1.753906 4.363281 -2.078125 4.367188 -2.507813 Z M 4.367188 -2.863281 "/>
</symbol>
<symbol overflow="visible" id="glyph0-9">
<path style="stroke:none;" d="M 0.339844 -1.703125 L 1.292969 -1.851563 C 1.34375 -1.46875 1.492188 -1.171875 1.742188 -0.96875 C 1.984375 -0.761719 2.328125 -0.660156 2.773438 -0.664063 C 3.210938 -0.660156 3.539063 -0.75 3.757813 -0.933594 C 3.96875 -1.113281 4.078125 -1.328125 4.082031 -1.574219 C 4.078125 -1.789063 3.984375 -1.960938 3.796875 -2.089844 C 3.664063 -2.171875 3.332031 -2.28125 2.808594 -2.417969 C 2.097656 -2.59375 1.605469 -2.75 1.332031 -2.882813 C 1.054688 -3.011719 0.847656 -3.191406 0.710938 -3.421875 C 0.566406 -3.652344 0.496094 -3.90625 0.5 -4.1875 C 0.496094 -4.441406 0.554688 -4.675781 0.671875 -4.894531 C 0.785156 -5.105469 0.945313 -5.289063 1.148438 -5.4375 C 1.296875 -5.546875 1.5 -5.636719 1.761719 -5.714844 C 2.019531 -5.789063 2.300781 -5.828125 2.601563 -5.832031 C 3.046875 -5.828125 3.4375 -5.765625 3.777344 -5.636719 C 4.113281 -5.507813 4.363281 -5.332031 4.527344 -5.113281 C 4.6875 -4.890625 4.796875 -4.597656 4.859375 -4.234375 L 3.914063 -4.101563 C 3.871094 -4.394531 3.746094 -4.621094 3.542969 -4.789063 C 3.335938 -4.953125 3.042969 -5.039063 2.667969 -5.039063 C 2.222656 -5.039063 1.90625 -4.964844 1.71875 -4.816406 C 1.523438 -4.667969 1.429688 -4.496094 1.433594 -4.300781 C 1.429688 -4.175781 1.46875 -4.0625 1.550781 -3.964844 C 1.628906 -3.859375 1.753906 -3.773438 1.921875 -3.707031 C 2.015625 -3.667969 2.300781 -3.585938 2.777344 -3.460938 C 3.460938 -3.273438 3.9375 -3.121094 4.207031 -3.007813 C 4.476563 -2.890625 4.6875 -2.722656 4.84375 -2.503906 C 4.996094 -2.277344 5.074219 -2.003906 5.074219 -1.675781 C 5.074219 -1.351563 4.980469 -1.046875 4.792969 -0.765625 C 4.605469 -0.480469 4.332031 -0.261719 3.980469 -0.105469 C 3.621094 0.0507813 3.222656 0.128906 2.777344 0.128906 C 2.035156 0.128906 1.46875 -0.0234375 1.082031 -0.332031 C 0.691406 -0.640625 0.445313 -1.097656 0.339844 -1.703125 Z M 0.339844 -1.703125 "/>
</symbol>
<symbol overflow="visible" id="glyph1-0">
<path style="stroke:none;" d="M 1.101563 0 L 1.101563 -5.5 L 5.5 -5.5 L 5.5 0 Z M 1.238281 -0.136719 L 5.363281 -0.136719 L 5.363281 -5.363281 L 1.238281 -5.363281 Z M 1.238281 -0.136719 "/>
</symbol>
<symbol overflow="visible" id="glyph1-1">
<path style="stroke:none;" d="M 5.171875 -2.207031 L 6.007813 -2 C 5.828125 -1.3125 5.515625 -0.789063 5.0625 -0.429688 C 4.609375 -0.0703125 4.054688 0.105469 3.398438 0.109375 C 2.71875 0.105469 2.164063 -0.03125 1.742188 -0.304688 C 1.3125 -0.582031 0.988281 -0.980469 0.769531 -1.507813 C 0.542969 -2.027344 0.433594 -2.589844 0.4375 -3.195313 C 0.433594 -3.847656 0.558594 -4.421875 0.8125 -4.910156 C 1.0625 -5.398438 1.417969 -5.769531 1.882813 -6.023438 C 2.34375 -6.277344 2.855469 -6.402344 3.410156 -6.40625 C 4.039063 -6.402344 4.566406 -6.242188 5 -5.925781 C 5.425781 -5.601563 5.726563 -5.152344 5.898438 -4.570313 L 5.078125 -4.378906 C 4.929688 -4.832031 4.71875 -5.167969 4.441406 -5.378906 C 4.164063 -5.589844 3.8125 -5.695313 3.394531 -5.695313 C 2.90625 -5.695313 2.503906 -5.578125 2.179688 -5.34375 C 1.851563 -5.109375 1.621094 -4.796875 1.492188 -4.410156 C 1.359375 -4.015625 1.292969 -3.613281 1.296875 -3.203125 C 1.292969 -2.664063 1.371094 -2.195313 1.53125 -1.796875 C 1.683594 -1.394531 1.925781 -1.097656 2.257813 -0.902344 C 2.585938 -0.703125 2.945313 -0.601563 3.332031 -0.605469 C 3.796875 -0.601563 4.191406 -0.738281 4.515625 -1.007813 C 4.835938 -1.277344 5.054688 -1.675781 5.171875 -2.207031 Z M 5.171875 -2.207031 "/>
</symbol>
<symbol overflow="visible" id="glyph1-2">
<path style="stroke:none;" d="M -0.0117188 0 L 2.40625 -6.300781 L 3.304688 -6.300781 L 5.882813 0 L 4.933594 0 L 4.199219 -1.90625 L 1.5625 -1.90625 L 0.871094 0 Z M 1.804688 -2.585938 L 3.941406 -2.585938 L 3.28125 -4.332031 C 3.078125 -4.855469 2.929688 -5.292969 2.835938 -5.636719 C 2.753906 -5.230469 2.640625 -4.828125 2.496094 -4.433594 Z M 1.804688 -2.585938 "/>
</symbol>
<symbol overflow="visible" id="glyph1-3">
<path style="stroke:none;" d="M 0.691406 0 L 0.691406 -6.300781 L 3.484375 -6.300781 C 4.042969 -6.296875 4.46875 -6.242188 4.765625 -6.128906 C 5.054688 -6.015625 5.289063 -5.816406 5.464844 -5.53125 C 5.636719 -5.242188 5.722656 -4.925781 5.726563 -4.582031 C 5.722656 -4.132813 5.578125 -3.753906 5.292969 -3.449219 C 5 -3.140625 4.554688 -2.945313 3.953125 -2.867188 C 4.171875 -2.757813 4.339844 -2.652344 4.457031 -2.550781 C 4.695313 -2.324219 4.925781 -2.046875 5.148438 -1.714844 L 6.242188 0 L 5.195313 0 L 4.359375 -1.3125 C 4.117188 -1.6875 3.914063 -1.976563 3.757813 -2.179688 C 3.597656 -2.378906 3.457031 -2.515625 3.335938 -2.597656 C 3.207031 -2.675781 3.082031 -2.734375 2.957031 -2.765625 C 2.859375 -2.785156 2.703125 -2.792969 2.492188 -2.796875 L 1.527344 -2.796875 L 1.527344 0 Z M 1.527344 -3.519531 L 3.316406 -3.519531 C 3.699219 -3.515625 3.996094 -3.554688 4.210938 -3.636719 C 4.421875 -3.710938 4.585938 -3.835938 4.699219 -4.011719 C 4.808594 -4.183594 4.863281 -4.375 4.867188 -4.582031 C 4.863281 -4.878906 4.753906 -5.121094 4.542969 -5.3125 C 4.324219 -5.503906 3.984375 -5.601563 3.519531 -5.601563 L 1.527344 -5.601563 Z M 1.527344 -3.519531 "/>
</symbol>
<symbol overflow="visible" id="glyph1-4">
<path style="stroke:none;" d="M 0.695313 0 L 0.695313 -6.300781 L 5.25 -6.300781 L 5.25 -5.554688 L 1.53125 -5.554688 L 1.53125 -3.625 L 5.015625 -3.625 L 5.015625 -2.886719 L 1.53125 -2.886719 L 1.53125 -0.742188 L 5.398438 -0.742188 L 5.398438 0 Z M 0.695313 0 "/>
</symbol>
<symbol overflow="visible" id="glyph1-5">
<path style="stroke:none;" d="M 3.703125 -1.46875 L 4.503906 -1.371094 C 4.375 -0.902344 4.140625 -0.539063 3.800781 -0.285156 C 3.460938 -0.0273438 3.027344 0.0976563 2.496094 0.101563 C 1.828125 0.0976563 1.296875 -0.101563 0.90625 -0.511719 C 0.511719 -0.917969 0.316406 -1.496094 0.320313 -2.242188 C 0.316406 -3.007813 0.515625 -3.605469 0.914063 -4.03125 C 1.308594 -4.453125 1.820313 -4.664063 2.453125 -4.667969 C 3.058594 -4.664063 3.554688 -4.457031 3.945313 -4.042969 C 4.328125 -3.628906 4.523438 -3.042969 4.527344 -2.289063 C 4.523438 -2.242188 4.523438 -2.175781 4.523438 -2.085938 L 1.121094 -2.085938 C 1.144531 -1.582031 1.289063 -1.195313 1.546875 -0.929688 C 1.800781 -0.660156 2.117188 -0.527344 2.5 -0.53125 C 2.78125 -0.527344 3.023438 -0.601563 3.226563 -0.753906 C 3.425781 -0.902344 3.585938 -1.140625 3.703125 -1.46875 Z M 1.164063 -2.71875 L 3.710938 -2.71875 C 3.671875 -3.101563 3.578125 -3.386719 3.421875 -3.582031 C 3.171875 -3.878906 2.851563 -4.03125 2.460938 -4.03125 C 2.105469 -4.03125 1.804688 -3.910156 1.566406 -3.671875 C 1.320313 -3.433594 1.1875 -3.117188 1.164063 -2.71875 Z M 1.164063 -2.71875 "/>
</symbol>
<symbol overflow="visible" id="glyph1-6">
<path style="stroke:none;" d="M 0.570313 0 L 0.570313 -4.5625 L 1.265625 -4.5625 L 1.265625 -3.871094 C 1.445313 -4.191406 1.609375 -4.40625 1.757813 -4.511719 C 1.90625 -4.613281 2.070313 -4.664063 2.257813 -4.667969 C 2.515625 -4.664063 2.78125 -4.582031 3.050781 -4.417969 L 2.785156 -3.699219 C 2.589844 -3.808594 2.402344 -3.867188 2.21875 -3.867188 C 2.046875 -3.867188 1.894531 -3.816406 1.761719 -3.714844 C 1.625 -3.613281 1.527344 -3.472656 1.472656 -3.292969 C 1.382813 -3.015625 1.339844 -2.714844 1.34375 -2.390625 L 1.34375 0 Z M 0.570313 0 "/>
</symbol>
<symbol overflow="visible" id="glyph1-7">
<path style="stroke:none;" d="M 0.679688 0 L 0.679688 -6.300781 L 2.847656 -6.300781 C 3.335938 -6.296875 3.707031 -6.269531 3.96875 -6.210938 C 4.328125 -6.125 4.636719 -5.972656 4.894531 -5.757813 C 5.222656 -5.472656 5.472656 -5.113281 5.636719 -4.679688 C 5.800781 -4.242188 5.882813 -3.742188 5.886719 -3.183594 C 5.882813 -2.699219 5.828125 -2.277344 5.71875 -1.910156 C 5.605469 -1.542969 5.460938 -1.238281 5.289063 -0.996094 C 5.113281 -0.753906 4.921875 -0.5625 4.714844 -0.421875 C 4.507813 -0.28125 4.257813 -0.175781 3.964844 -0.105469 C 3.667969 -0.0351563 3.332031 0 2.953125 0 Z M 1.511719 -0.742188 L 2.859375 -0.742188 C 3.273438 -0.738281 3.597656 -0.777344 3.832031 -0.859375 C 4.066406 -0.933594 4.253906 -1.042969 4.398438 -1.1875 C 4.59375 -1.382813 4.746094 -1.648438 4.859375 -1.984375 C 4.96875 -2.316406 5.027344 -2.71875 5.027344 -3.195313 C 5.027344 -3.851563 4.917969 -4.359375 4.703125 -4.714844 C 4.484375 -5.066406 4.222656 -5.304688 3.914063 -5.425781 C 3.6875 -5.511719 3.328125 -5.554688 2.835938 -5.554688 L 1.511719 -5.554688 Z M 1.511719 -0.742188 "/>
</symbol>
<symbol overflow="visible" id="glyph1-8">
<path style="stroke:none;" d="M 3.625 -2.46875 L 3.625 -3.210938 L 6.296875 -3.214844 L 6.296875 -0.875 C 5.882813 -0.546875 5.460938 -0.300781 5.027344 -0.136719 C 4.589844 0.0273438 4.140625 0.105469 3.6875 0.109375 C 3.0625 0.105469 2.5 -0.0234375 2 -0.289063 C 1.492188 -0.550781 1.113281 -0.933594 0.855469 -1.4375 C 0.597656 -1.9375 0.46875 -2.5 0.46875 -3.121094 C 0.46875 -3.730469 0.59375 -4.300781 0.851563 -4.835938 C 1.105469 -5.363281 1.476563 -5.757813 1.957031 -6.019531 C 2.4375 -6.273438 2.992188 -6.402344 3.621094 -6.40625 C 4.074219 -6.402344 4.484375 -6.328125 4.855469 -6.183594 C 5.222656 -6.035156 5.511719 -5.832031 5.722656 -5.566406 C 5.929688 -5.300781 6.089844 -4.957031 6.199219 -4.539063 L 5.449219 -4.332031 C 5.351563 -4.648438 5.230469 -4.902344 5.09375 -5.085938 C 4.953125 -5.269531 4.753906 -5.414063 4.492188 -5.527344 C 4.230469 -5.636719 3.941406 -5.695313 3.625 -5.695313 C 3.242188 -5.695313 2.914063 -5.636719 2.636719 -5.519531 C 2.359375 -5.402344 2.132813 -5.246094 1.964844 -5.058594 C 1.792969 -4.867188 1.664063 -4.660156 1.570313 -4.4375 C 1.40625 -4.046875 1.324219 -3.625 1.328125 -3.171875 C 1.324219 -2.605469 1.421875 -2.136719 1.617188 -1.761719 C 1.808594 -1.382813 2.089844 -1.101563 2.460938 -0.917969 C 2.828125 -0.734375 3.21875 -0.644531 3.640625 -0.644531 C 3.996094 -0.644531 4.347656 -0.710938 4.695313 -0.851563 C 5.035156 -0.988281 5.296875 -1.136719 5.476563 -1.296875 L 5.476563 -2.46875 Z M 3.625 -2.46875 "/>
</symbol>
<symbol overflow="visible" id="glyph1-9">
<path style="stroke:none;" d="M 0.722656 0 L 0.722656 -6.300781 L 4.972656 -6.300781 L 4.972656 -5.554688 L 1.554688 -5.554688 L 1.554688 -3.605469 L 4.511719 -3.605469 L 4.511719 -2.863281 L 1.554688 -2.863281 L 1.554688 0 Z M 0.722656 0 "/>
</symbol>
<symbol overflow="visible" id="glyph1-10">
<path style="stroke:none;" d="M 0.679688 0 L 0.679688 -6.300781 L 3.054688 -6.300781 C 3.46875 -6.296875 3.789063 -6.277344 4.011719 -6.238281 C 4.320313 -6.183594 4.578125 -6.085938 4.789063 -5.941406 C 4.996094 -5.796875 5.167969 -5.59375 5.296875 -5.335938 C 5.421875 -5.074219 5.484375 -4.789063 5.488281 -4.476563 C 5.484375 -3.941406 5.3125 -3.488281 4.976563 -3.117188 C 4.632813 -2.746094 4.019531 -2.558594 3.128906 -2.5625 L 1.511719 -2.5625 L 1.511719 0 Z M 1.511719 -3.304688 L 3.140625 -3.304688 C 3.679688 -3.304688 4.0625 -3.402344 4.289063 -3.605469 C 4.515625 -3.800781 4.628906 -4.085938 4.628906 -4.453125 C 4.628906 -4.714844 4.558594 -4.9375 4.425781 -5.128906 C 4.289063 -5.3125 4.117188 -5.4375 3.902344 -5.5 C 3.761719 -5.535156 3.5 -5.554688 3.125 -5.554688 L 1.511719 -5.554688 Z M 1.511719 -3.304688 "/>
</symbol>
<symbol overflow="visible" id="glyph1-11">
<path style="stroke:none;" d="M 0.820313 0 L 0.820313 -6.300781 L 1.65625 -6.300781 L 1.65625 0 Z M 0.820313 0 "/>
</symbol>
<symbol overflow="visible" id="glyph1-12">
<path style="stroke:none;" d="M 0.394531 -2.023438 L 1.179688 -2.09375 C 1.214844 -1.773438 1.304688 -1.515625 1.441406 -1.316406 C 1.574219 -1.113281 1.785156 -0.949219 2.074219 -0.828125 C 2.359375 -0.699219 2.679688 -0.636719 3.042969 -0.640625 C 3.355469 -0.636719 3.636719 -0.683594 3.882813 -0.78125 C 4.125 -0.875 4.304688 -1.007813 4.425781 -1.171875 C 4.542969 -1.335938 4.605469 -1.515625 4.605469 -1.710938 C 4.605469 -1.90625 4.546875 -2.078125 4.433594 -2.226563 C 4.316406 -2.375 4.128906 -2.5 3.867188 -2.601563 C 3.695313 -2.664063 3.320313 -2.765625 2.746094 -2.90625 C 2.164063 -3.046875 1.757813 -3.175781 1.53125 -3.300781 C 1.226563 -3.453125 1.003906 -3.648438 0.855469 -3.886719 C 0.707031 -4.117188 0.632813 -4.378906 0.636719 -4.671875 C 0.632813 -4.984375 0.722656 -5.28125 0.90625 -5.5625 C 1.082031 -5.835938 1.34375 -6.046875 1.695313 -6.191406 C 2.039063 -6.332031 2.425781 -6.402344 2.851563 -6.40625 C 3.316406 -6.402344 3.730469 -6.328125 4.089844 -6.179688 C 4.445313 -6.027344 4.71875 -5.804688 4.910156 -5.515625 C 5.101563 -5.21875 5.203125 -4.890625 5.21875 -4.523438 L 4.421875 -4.464844 C 4.375 -4.863281 4.230469 -5.164063 3.984375 -5.367188 C 3.734375 -5.570313 3.367188 -5.671875 2.886719 -5.671875 C 2.382813 -5.671875 2.015625 -5.578125 1.785156 -5.394531 C 1.554688 -5.207031 1.441406 -4.984375 1.441406 -4.726563 C 1.441406 -4.496094 1.519531 -4.308594 1.683594 -4.167969 C 1.839844 -4.019531 2.261719 -3.871094 2.941406 -3.71875 C 3.617188 -3.5625 4.082031 -3.429688 4.335938 -3.316406 C 4.703125 -3.144531 4.972656 -2.929688 5.148438 -2.671875 C 5.320313 -2.414063 5.40625 -2.113281 5.410156 -1.777344 C 5.40625 -1.441406 5.3125 -1.128906 5.121094 -0.832031 C 4.929688 -0.535156 4.652344 -0.300781 4.292969 -0.136719 C 3.929688 0.0273438 3.527344 0.105469 3.082031 0.109375 C 2.511719 0.105469 2.03125 0.0234375 1.648438 -0.140625 C 1.257813 -0.304688 0.957031 -0.554688 0.742188 -0.890625 C 0.519531 -1.222656 0.402344 -1.597656 0.394531 -2.023438 Z M 0.394531 -2.023438 "/>
</symbol>
<symbol overflow="visible" id="glyph1-13">
<path style="stroke:none;" d="M 0.652344 0 L 0.652344 -6.300781 L 1.90625 -6.300781 L 3.398438 -1.839844 C 3.535156 -1.421875 3.632813 -1.109375 3.699219 -0.90625 C 3.769531 -1.132813 3.882813 -1.46875 4.035156 -1.917969 L 5.542969 -6.300781 L 6.664063 -6.300781 L 6.664063 0 L 5.859375 0 L 5.859375 -5.273438 L 4.03125 0 L 3.277344 0 L 1.457031 -5.363281 L 1.457031 0 Z M 0.652344 0 "/>
</symbol>
<symbol overflow="visible" id="glyph1-14">
<path style="stroke:none;" d="M 2.28125 0 L 2.28125 -5.554688 L 0.207031 -5.554688 L 0.207031 -6.300781 L 5.199219 -6.300781 L 5.199219 -5.554688 L 3.117188 -5.554688 L 3.117188 0 Z M 2.28125 0 "/>
</symbol>
<symbol overflow="visible" id="glyph2-0">
<path style="stroke:none;" d="M 1.648438 0 L 1.648438 -8.25 L 8.25 -8.25 L 8.25 0 Z M 1.855469 -0.207031 L 8.042969 -0.207031 L 8.042969 -8.042969 L 1.855469 -8.042969 Z M 1.855469 -0.207031 "/>
</symbol>
<symbol overflow="visible" id="glyph2-1">
<path style="stroke:none;" d="M 0.59375 -3.035156 L 1.773438 -3.140625 C 1.824219 -2.664063 1.953125 -2.273438 2.160156 -1.972656 C 2.363281 -1.667969 2.679688 -1.421875 3.113281 -1.238281 C 3.539063 -1.050781 4.023438 -0.960938 4.5625 -0.960938 C 5.035156 -0.960938 5.457031 -1.03125 5.824219 -1.171875 C 6.191406 -1.3125 6.460938 -1.503906 6.640625 -1.753906 C 6.816406 -1.996094 6.90625 -2.269531 6.910156 -2.566406 C 6.90625 -2.863281 6.820313 -3.121094 6.652344 -3.339844 C 6.476563 -3.558594 6.195313 -3.742188 5.800781 -3.898438 C 5.546875 -3.992188 4.984375 -4.148438 4.117188 -4.359375 C 3.246094 -4.566406 2.636719 -4.761719 2.292969 -4.949219 C 1.839844 -5.183594 1.503906 -5.476563 1.285156 -5.828125 C 1.058594 -6.175781 0.949219 -6.570313 0.953125 -7.007813 C 0.949219 -7.484375 1.085938 -7.929688 1.359375 -8.34375 C 1.628906 -8.757813 2.023438 -9.070313 2.542969 -9.285156 C 3.0625 -9.5 3.640625 -9.609375 4.28125 -9.609375 C 4.980469 -9.609375 5.597656 -9.496094 6.132813 -9.269531 C 6.664063 -9.042969 7.074219 -8.710938 7.363281 -8.273438 C 7.648438 -7.835938 7.804688 -7.339844 7.832031 -6.785156 L 6.632813 -6.695313 C 6.566406 -7.292969 6.347656 -7.746094 5.976563 -8.050781 C 5.605469 -8.355469 5.054688 -8.507813 4.332031 -8.507813 C 3.570313 -8.507813 3.019531 -8.367188 2.675781 -8.089844 C 2.328125 -7.8125 2.15625 -7.480469 2.160156 -7.089844 C 2.15625 -6.75 2.277344 -6.46875 2.527344 -6.25 C 2.761719 -6.027344 3.390625 -5.804688 4.410156 -5.578125 C 5.425781 -5.347656 6.125 -5.144531 6.503906 -4.976563 C 7.050781 -4.71875 7.453125 -4.398438 7.71875 -4.011719 C 7.976563 -3.621094 8.109375 -3.171875 8.113281 -2.667969 C 8.109375 -2.160156 7.964844 -1.6875 7.679688 -1.246094 C 7.390625 -0.796875 6.976563 -0.449219 6.441406 -0.207031 C 5.898438 0.0390625 5.292969 0.15625 4.621094 0.160156 C 3.765625 0.15625 3.050781 0.0351563 2.472656 -0.210938 C 1.894531 -0.460938 1.4375 -0.835938 1.109375 -1.335938 C 0.777344 -1.835938 0.605469 -2.402344 0.59375 -3.035156 Z M 0.59375 -3.035156 "/>
</symbol>
<symbol overflow="visible" id="glyph2-2">
<path style="stroke:none;" d="M 5.335938 -0.84375 C 4.902344 -0.476563 4.488281 -0.21875 4.09375 -0.0703125 C 3.695313 0.078125 3.269531 0.152344 2.816406 0.15625 C 2.0625 0.152344 1.484375 -0.0273438 1.082031 -0.394531 C 0.675781 -0.761719 0.472656 -1.234375 0.476563 -1.804688 C 0.472656 -2.140625 0.550781 -2.445313 0.703125 -2.722656 C 0.855469 -3 1.054688 -3.222656 1.304688 -3.390625 C 1.550781 -3.554688 1.828125 -3.679688 2.140625 -3.769531 C 2.363281 -3.824219 2.707031 -3.882813 3.171875 -3.945313 C 4.105469 -4.054688 4.796875 -4.1875 5.238281 -4.34375 C 5.242188 -4.5 5.242188 -4.601563 5.246094 -4.648438 C 5.242188 -5.117188 5.132813 -5.449219 4.917969 -5.644531 C 4.617188 -5.902344 4.179688 -6.035156 3.597656 -6.039063 C 3.050781 -6.035156 2.644531 -5.9375 2.386719 -5.75 C 2.125 -5.554688 1.933594 -5.21875 1.8125 -4.738281 L 0.675781 -4.890625 C 0.777344 -5.375 0.949219 -5.765625 1.183594 -6.066406 C 1.417969 -6.363281 1.757813 -6.59375 2.210938 -6.757813 C 2.65625 -6.914063 3.175781 -6.996094 3.765625 -7 C 4.347656 -6.996094 4.820313 -6.925781 5.1875 -6.792969 C 5.546875 -6.652344 5.816406 -6.480469 5.992188 -6.273438 C 6.160156 -6.0625 6.28125 -5.800781 6.355469 -5.484375 C 6.390625 -5.285156 6.410156 -4.925781 6.414063 -4.414063 L 6.414063 -2.867188 C 6.410156 -1.785156 6.433594 -1.105469 6.488281 -0.820313 C 6.535156 -0.535156 6.632813 -0.261719 6.78125 0 L 5.570313 0 C 5.445313 -0.238281 5.367188 -0.519531 5.335938 -0.84375 Z M 5.238281 -3.433594 C 4.816406 -3.261719 4.183594 -3.113281 3.34375 -2.996094 C 2.863281 -2.925781 2.527344 -2.851563 2.332031 -2.765625 C 2.132813 -2.679688 1.980469 -2.550781 1.875 -2.386719 C 1.765625 -2.21875 1.710938 -2.035156 1.714844 -1.835938 C 1.710938 -1.523438 1.828125 -1.265625 2.066406 -1.0625 C 2.296875 -0.851563 2.640625 -0.75 3.09375 -0.753906 C 3.539063 -0.75 3.933594 -0.847656 4.285156 -1.046875 C 4.628906 -1.238281 4.886719 -1.507813 5.054688 -1.851563 C 5.175781 -2.109375 5.238281 -2.496094 5.238281 -3.011719 Z M 5.238281 -3.433594 "/>
</symbol>
<symbol overflow="visible" id="glyph2-3">
<path style="stroke:none;" d="M 0.871094 0 L 0.871094 -6.84375 L 1.90625 -6.84375 L 1.90625 -5.882813 C 2.117188 -6.21875 2.40625 -6.488281 2.765625 -6.691406 C 3.121094 -6.894531 3.527344 -6.996094 3.984375 -7 C 4.488281 -6.996094 4.902344 -6.890625 5.230469 -6.683594 C 5.554688 -6.46875 5.785156 -6.175781 5.917969 -5.800781 C 6.457031 -6.597656 7.160156 -6.996094 8.03125 -7 C 8.707031 -6.996094 9.230469 -6.808594 9.597656 -6.433594 C 9.960938 -6.058594 10.140625 -5.480469 10.144531 -4.699219 L 10.144531 0 L 8.992188 0 L 8.992188 -4.3125 C 8.988281 -4.773438 8.949219 -5.105469 8.878906 -5.3125 C 8.800781 -5.515625 8.664063 -5.679688 8.46875 -5.804688 C 8.265625 -5.925781 8.035156 -5.988281 7.773438 -5.992188 C 7.289063 -5.988281 6.890625 -5.828125 6.574219 -5.511719 C 6.253906 -5.191406 6.09375 -4.679688 6.097656 -3.976563 L 6.097656 0 L 4.9375 0 L 4.9375 -4.445313 C 4.933594 -4.957031 4.839844 -5.34375 4.652344 -5.605469 C 4.464844 -5.859375 4.15625 -5.988281 3.726563 -5.992188 C 3.398438 -5.988281 3.09375 -5.902344 2.816406 -5.734375 C 2.539063 -5.558594 2.339844 -5.308594 2.214844 -4.980469 C 2.089844 -4.648438 2.027344 -4.171875 2.03125 -3.550781 L 2.03125 0 Z M 0.871094 0 "/>
</symbol>
<symbol overflow="visible" id="glyph2-4">
<path style="stroke:none;" d="M 0.871094 2.625 L 0.871094 -6.84375 L 1.925781 -6.84375 L 1.925781 -5.957031 C 2.171875 -6.300781 2.453125 -6.5625 2.769531 -6.738281 C 3.082031 -6.910156 3.464844 -6.996094 3.914063 -7 C 4.496094 -6.996094 5.007813 -6.84375 5.457031 -6.546875 C 5.902344 -6.242188 6.242188 -5.820313 6.46875 -5.273438 C 6.695313 -4.726563 6.808594 -4.125 6.8125 -3.472656 C 6.808594 -2.769531 6.683594 -2.140625 6.433594 -1.582031 C 6.183594 -1.019531 5.816406 -0.589844 5.339844 -0.292969 C 4.855469 0.00390625 4.351563 0.152344 3.828125 0.15625 C 3.4375 0.152344 3.09375 0.0742188 2.789063 -0.0898438 C 2.480469 -0.25 2.226563 -0.457031 2.03125 -0.710938 L 2.03125 2.625 Z M 1.921875 -3.382813 C 1.921875 -2.5 2.097656 -1.851563 2.457031 -1.429688 C 2.808594 -1.007813 3.242188 -0.796875 3.75 -0.800781 C 4.265625 -0.796875 4.707031 -1.015625 5.074219 -1.453125 C 5.441406 -1.890625 5.625 -2.566406 5.625 -3.480469 C 5.625 -4.351563 5.445313 -5.003906 5.085938 -5.4375 C 4.726563 -5.871094 4.296875 -6.085938 3.804688 -6.089844 C 3.304688 -6.085938 2.867188 -5.855469 2.492188 -5.394531 C 2.109375 -4.929688 1.921875 -4.257813 1.921875 -3.382813 Z M 1.921875 -3.382813 "/>
</symbol>
<symbol overflow="visible" id="glyph2-5">
<path style="stroke:none;" d="M 0.84375 0 L 0.84375 -9.449219 L 2.003906 -9.449219 L 2.003906 0 Z M 0.84375 0 "/>
</symbol>
<symbol overflow="visible" id="glyph2-6">
<path style="stroke:none;" d="M 5.554688 -2.203125 L 6.753906 -2.054688 C 6.5625 -1.351563 6.210938 -0.808594 5.703125 -0.421875 C 5.1875 -0.0390625 4.535156 0.152344 3.746094 0.15625 C 2.738281 0.152344 1.945313 -0.152344 1.363281 -0.769531 C 0.773438 -1.382813 0.480469 -2.25 0.484375 -3.363281 C 0.480469 -4.515625 0.777344 -5.410156 1.371094 -6.046875 C 1.964844 -6.679688 2.734375 -6.996094 3.679688 -7 C 4.59375 -6.996094 5.339844 -6.683594 5.921875 -6.0625 C 6.5 -5.4375 6.789063 -4.5625 6.792969 -3.433594 C 6.789063 -3.363281 6.789063 -3.257813 6.785156 -3.125 L 1.683594 -3.125 C 1.722656 -2.371094 1.9375 -1.796875 2.320313 -1.398438 C 2.703125 -0.996094 3.179688 -0.796875 3.75 -0.800781 C 4.175781 -0.796875 4.539063 -0.90625 4.839844 -1.132813 C 5.140625 -1.351563 5.378906 -1.710938 5.554688 -2.203125 Z M 1.746094 -4.078125 L 5.570313 -4.078125 C 5.515625 -4.65625 5.367188 -5.085938 5.128906 -5.375 C 4.757813 -5.820313 4.28125 -6.046875 3.691406 -6.046875 C 3.160156 -6.046875 2.710938 -5.867188 2.347656 -5.511719 C 1.984375 -5.152344 1.785156 -4.675781 1.746094 -4.078125 Z M 1.746094 -4.078125 "/>
</symbol>
<symbol overflow="visible" id="glyph2-7">
<path style="stroke:none;" d="M 3.421875 0 L 3.421875 -8.332031 L 0.308594 -8.332031 L 0.308594 -9.449219 L 7.796875 -9.449219 L 7.796875 -8.332031 L 4.671875 -8.332031 L 4.671875 0 Z M 3.421875 0 "/>
</symbol>
<symbol overflow="visible" id="glyph2-8">
<path style="stroke:none;" d="M 0.820313 2.636719 L 0.691406 1.546875 C 0.941406 1.613281 1.160156 1.644531 1.351563 1.648438 C 1.609375 1.644531 1.816406 1.601563 1.972656 1.519531 C 2.125 1.429688 2.25 1.3125 2.351563 1.160156 C 2.421875 1.042969 2.542969 0.753906 2.707031 0.296875 C 2.726563 0.230469 2.757813 0.136719 2.808594 0.0117188 L 0.210938 -6.84375 L 1.464844 -6.84375 L 2.886719 -2.882813 C 3.070313 -2.375 3.234375 -1.84375 3.382813 -1.296875 C 3.511719 -1.824219 3.671875 -2.34375 3.859375 -2.855469 L 5.324219 -6.84375 L 6.484375 -6.84375 L 3.878906 0.117188 C 3.597656 0.867188 3.378906 1.382813 3.230469 1.667969 C 3.019531 2.046875 2.785156 2.328125 2.519531 2.507813 C 2.253906 2.6875 1.933594 2.777344 1.566406 2.777344 C 1.339844 2.777344 1.09375 2.730469 0.820313 2.636719 Z M 0.820313 2.636719 "/>
</symbol>
<symbol overflow="visible" id="glyph2-9">
<path style="stroke:none;" d="M -0.199219 2.625 L -0.199219 1.785156 L 7.488281 1.785156 L 7.488281 2.625 Z M -0.199219 2.625 "/>
</symbol>
<symbol overflow="visible" id="glyph2-10">
<path style="stroke:none;" d="M 1.003906 0 L 1.003906 -9.449219 L 2.289063 -9.449219 L 7.25 -2.03125 L 7.25 -9.449219 L 8.449219 -9.449219 L 8.449219 0 L 7.167969 0 L 2.203125 -7.425781 L 2.203125 0 Z M 1.003906 0 "/>
</symbol>
<symbol overflow="visible" id="glyph2-11">
<path style="stroke:none;" d="M 5.355469 0 L 5.355469 -1.003906 C 4.824219 -0.230469 4.097656 0.152344 3.183594 0.15625 C 2.777344 0.152344 2.402344 0.078125 2.050781 -0.0742188 C 1.699219 -0.226563 1.4375 -0.421875 1.273438 -0.660156 C 1.101563 -0.890625 0.984375 -1.175781 0.914063 -1.519531 C 0.867188 -1.746094 0.84375 -2.109375 0.84375 -2.605469 L 0.84375 -6.84375 L 2.003906 -6.84375 L 2.003906 -3.046875 C 2.003906 -2.441406 2.027344 -2.03125 2.074219 -1.824219 C 2.144531 -1.515625 2.296875 -1.277344 2.539063 -1.105469 C 2.773438 -0.929688 3.066406 -0.84375 3.414063 -0.84375 C 3.761719 -0.84375 4.089844 -0.929688 4.394531 -1.109375 C 4.699219 -1.285156 4.914063 -1.53125 5.042969 -1.839844 C 5.167969 -2.144531 5.230469 -2.589844 5.234375 -3.175781 L 5.234375 -6.84375 L 6.394531 -6.84375 L 6.394531 0 Z M 5.355469 0 "/>
</symbol>
<symbol overflow="visible" id="glyph2-12">
<path style="stroke:none;" d="M 0.855469 0 L 0.855469 -6.84375 L 1.902344 -6.84375 L 1.902344 -5.808594 C 2.164063 -6.289063 2.410156 -6.609375 2.636719 -6.765625 C 2.863281 -6.917969 3.109375 -6.996094 3.382813 -7 C 3.769531 -6.996094 4.167969 -6.871094 4.578125 -6.625 L 4.175781 -5.550781 C 3.890625 -5.714844 3.605469 -5.800781 3.324219 -5.800781 C 3.066406 -5.800781 2.839844 -5.722656 2.640625 -5.570313 C 2.4375 -5.417969 2.292969 -5.207031 2.210938 -4.9375 C 2.078125 -4.523438 2.015625 -4.070313 2.015625 -3.582031 L 2.015625 0 Z M 0.855469 0 "/>
</symbol>
<symbol overflow="visible" id="glyph2-13">
<path style="stroke:none;" d="M 0.4375 -3.421875 C 0.433594 -4.6875 0.785156 -5.625 1.496094 -6.238281 C 2.082031 -6.742188 2.800781 -6.996094 3.648438 -7 C 4.585938 -6.996094 5.355469 -6.6875 5.953125 -6.074219 C 6.550781 -5.453125 6.847656 -4.601563 6.851563 -3.519531 C 6.847656 -2.636719 6.714844 -1.945313 6.453125 -1.441406 C 6.1875 -0.933594 5.804688 -0.539063 5.300781 -0.261719 C 4.792969 0.015625 4.242188 0.152344 3.648438 0.15625 C 2.6875 0.152344 1.914063 -0.152344 1.324219 -0.765625 C 0.730469 -1.378906 0.433594 -2.265625 0.4375 -3.421875 Z M 1.628906 -3.421875 C 1.628906 -2.546875 1.820313 -1.890625 2.203125 -1.453125 C 2.585938 -1.015625 3.066406 -0.796875 3.648438 -0.800781 C 4.222656 -0.796875 4.703125 -1.015625 5.085938 -1.457031 C 5.46875 -1.890625 5.660156 -2.558594 5.660156 -3.460938 C 5.660156 -4.304688 5.464844 -4.945313 5.082031 -5.382813 C 4.691406 -5.816406 4.214844 -6.035156 3.648438 -6.039063 C 3.066406 -6.035156 2.585938 -5.816406 2.203125 -5.386719 C 1.820313 -4.949219 1.628906 -4.296875 1.628906 -3.421875 Z M 1.628906 -3.421875 "/>
</symbol>
<symbol overflow="visible" id="glyph2-14">
<path style="stroke:none;" d="M 0.871094 0 L 0.871094 -6.84375 L 1.914063 -6.84375 L 1.914063 -5.871094 C 2.414063 -6.621094 3.140625 -6.996094 4.09375 -7 C 4.503906 -6.996094 4.882813 -6.921875 5.230469 -6.777344 C 5.574219 -6.625 5.832031 -6.429688 6.007813 -6.191406 C 6.175781 -5.949219 6.296875 -5.664063 6.367188 -5.335938 C 6.410156 -5.121094 6.433594 -4.746094 6.433594 -4.207031 L 6.433594 0 L 5.273438 0 L 5.273438 -4.164063 C 5.273438 -4.632813 5.226563 -4.984375 5.136719 -5.222656 C 5.042969 -5.453125 4.882813 -5.640625 4.65625 -5.78125 C 4.425781 -5.917969 4.15625 -5.988281 3.847656 -5.992188 C 3.351563 -5.988281 2.925781 -5.832031 2.566406 -5.523438 C 2.207031 -5.207031 2.027344 -4.613281 2.03125 -3.738281 L 2.03125 0 Z M 0.871094 0 "/>
</symbol>
<symbol overflow="visible" id="glyph2-15">
<path style="stroke:none;" d="M 7.761719 -3.3125 L 9.011719 -2.996094 C 8.746094 -1.964844 8.273438 -1.183594 7.59375 -0.648438 C 6.914063 -0.109375 6.082031 0.15625 5.097656 0.160156 C 4.078125 0.15625 3.25 -0.046875 2.613281 -0.460938 C 1.972656 -0.871094 1.484375 -1.472656 1.15625 -2.261719 C 0.820313 -3.046875 0.65625 -3.890625 0.65625 -4.796875 C 0.65625 -5.777344 0.84375 -6.632813 1.21875 -7.367188 C 1.59375 -8.097656 2.128906 -8.65625 2.824219 -9.039063 C 3.519531 -9.417969 4.28125 -9.609375 5.117188 -9.609375 C 6.058594 -9.609375 6.855469 -9.367188 7.5 -8.886719 C 8.144531 -8.40625 8.59375 -7.730469 8.847656 -6.859375 L 7.617188 -6.566406 C 7.398438 -7.25 7.078125 -7.75 6.664063 -8.066406 C 6.242188 -8.378906 5.71875 -8.535156 5.09375 -8.539063 C 4.363281 -8.535156 3.757813 -8.363281 3.269531 -8.015625 C 2.78125 -7.667969 2.4375 -7.199219 2.242188 -6.613281 C 2.042969 -6.023438 1.945313 -5.417969 1.945313 -4.800781 C 1.945313 -3.996094 2.0625 -3.296875 2.296875 -2.695313 C 2.53125 -2.09375 2.894531 -1.644531 3.390625 -1.351563 C 3.882813 -1.054688 4.417969 -0.90625 4.996094 -0.910156 C 5.695313 -0.90625 6.289063 -1.109375 6.773438 -1.515625 C 7.257813 -1.917969 7.585938 -2.515625 7.761719 -3.3125 Z M 7.761719 -3.3125 "/>
</symbol>
<symbol overflow="visible" id="glyph2-16">
<path style="stroke:none;" d="M 5.3125 0 L 5.3125 -0.863281 C 4.875 -0.183594 4.238281 0.152344 3.398438 0.15625 C 2.851563 0.152344 2.347656 0.00390625 1.890625 -0.292969 C 1.433594 -0.59375 1.078125 -1.011719 0.828125 -1.554688 C 0.574219 -2.09375 0.449219 -2.714844 0.453125 -3.414063 C 0.449219 -4.097656 0.5625 -4.71875 0.792969 -5.273438 C 1.015625 -5.828125 1.359375 -6.253906 1.816406 -6.554688 C 2.269531 -6.847656 2.777344 -6.996094 3.34375 -7 C 3.753906 -6.996094 4.121094 -6.910156 4.445313 -6.738281 C 4.765625 -6.5625 5.027344 -6.335938 5.234375 -6.058594 L 5.234375 -9.449219 L 6.386719 -9.449219 L 6.386719 0 Z M 1.644531 -3.414063 C 1.640625 -2.535156 1.824219 -1.878906 2.199219 -1.449219 C 2.566406 -1.011719 3.003906 -0.796875 3.507813 -0.800781 C 4.011719 -0.796875 4.441406 -1.003906 4.796875 -1.421875 C 5.152344 -1.832031 5.332031 -2.464844 5.332031 -3.320313 C 5.332031 -4.253906 5.148438 -4.941406 4.789063 -5.378906 C 4.421875 -5.816406 3.976563 -6.035156 3.453125 -6.039063 C 2.933594 -6.035156 2.503906 -5.824219 2.160156 -5.40625 C 1.8125 -4.984375 1.640625 -4.320313 1.644531 -3.414063 Z M 1.644531 -3.414063 "/>
</symbol>
<symbol overflow="visible" id="glyph2-17">
<path style="stroke:none;" d="M 0.875 -8.113281 L 0.875 -9.449219 L 2.035156 -9.449219 L 2.035156 -8.113281 Z M 0.875 0 L 0.875 -6.84375 L 2.035156 -6.84375 L 2.035156 0 Z M 0.875 0 "/>
</symbol>
<symbol overflow="visible" id="glyph2-18">
<path style="stroke:none;" d="M 3.402344 -1.039063 L 3.570313 -0.0117188 C 3.242188 0.0546875 2.953125 0.0859375 2.695313 0.0898438 C 2.273438 0.0859375 1.945313 0.0234375 1.714844 -0.109375 C 1.480469 -0.238281 1.316406 -0.414063 1.222656 -0.632813 C 1.125 -0.851563 1.078125 -1.308594 1.082031 -2.003906 L 1.082031 -5.941406 L 0.230469 -5.941406 L 0.230469 -6.84375 L 1.082031 -6.84375 L 1.082031 -8.539063 L 2.238281 -9.234375 L 2.238281 -6.84375 L 3.402344 -6.84375 L 3.402344 -5.941406 L 2.238281 -5.941406 L 2.238281 -1.941406 C 2.238281 -1.605469 2.257813 -1.394531 2.296875 -1.300781 C 2.335938 -1.207031 2.402344 -1.128906 2.496094 -1.074219 C 2.589844 -1.015625 2.722656 -0.988281 2.894531 -0.992188 C 3.019531 -0.988281 3.1875 -1.003906 3.402344 -1.039063 Z M 3.402344 -1.039063 "/>
</symbol>
<symbol overflow="visible" id="glyph2-19">
<path style="stroke:none;" d="M 1.019531 0 L 1.019531 -9.449219 L 4.273438 -9.449219 C 5.003906 -9.445313 5.566406 -9.398438 5.957031 -9.3125 C 6.492188 -9.183594 6.953125 -8.960938 7.339844 -8.636719 C 7.835938 -8.214844 8.207031 -7.675781 8.457031 -7.019531 C 8.699219 -6.363281 8.824219 -5.613281 8.828125 -4.777344 C 8.824219 -4.054688 8.742188 -3.417969 8.578125 -2.867188 C 8.410156 -2.308594 8.195313 -1.851563 7.933594 -1.492188 C 7.667969 -1.128906 7.378906 -0.84375 7.070313 -0.632813 C 6.757813 -0.421875 6.382813 -0.261719 5.945313 -0.160156 C 5.503906 -0.0507813 5 0 4.429688 0 Z M 2.269531 -1.113281 L 4.285156 -1.113281 C 4.902344 -1.113281 5.390625 -1.171875 5.75 -1.289063 C 6.101563 -1.40625 6.386719 -1.566406 6.601563 -1.777344 C 6.894531 -2.070313 7.125 -2.46875 7.289063 -2.972656 C 7.453125 -3.472656 7.535156 -4.082031 7.539063 -4.796875 C 7.535156 -5.78125 7.371094 -6.539063 7.050781 -7.074219 C 6.722656 -7.601563 6.332031 -7.957031 5.871094 -8.140625 C 5.535156 -8.265625 4.996094 -8.332031 4.253906 -8.332031 L 2.269531 -8.332031 Z M 2.269531 -1.113281 "/>
</symbol>
<symbol overflow="visible" id="glyph2-20">
<path style="stroke:none;" d="M 2.773438 0 L 0.167969 -6.84375 L 1.390625 -6.84375 L 2.863281 -2.746094 C 3.019531 -2.300781 3.164063 -1.839844 3.300781 -1.367188 C 3.398438 -1.722656 3.542969 -2.15625 3.730469 -2.667969 L 5.253906 -6.84375 L 6.445313 -6.84375 L 3.855469 0 Z M 2.773438 0 "/>
</symbol>
<symbol overflow="visible" id="glyph2-21">
<path style="stroke:none;" d="M 2.667969 0 L 0.160156 -9.449219 L 1.445313 -9.449219 L 2.882813 -3.253906 C 3.035156 -2.601563 3.167969 -1.957031 3.28125 -1.320313 C 3.519531 -2.328125 3.660156 -2.910156 3.707031 -3.066406 L 5.503906 -9.449219 L 7.011719 -9.449219 L 8.367188 -4.667969 C 8.703125 -3.476563 8.945313 -2.359375 9.101563 -1.320313 C 9.21875 -1.914063 9.375 -2.601563 9.570313 -3.378906 L 11.054688 -9.449219 L 12.3125 -9.449219 L 9.71875 0 L 8.515625 0 L 6.523438 -7.199219 C 6.351563 -7.796875 6.253906 -8.167969 6.226563 -8.308594 C 6.125 -7.871094 6.03125 -7.5 5.949219 -7.199219 L 3.945313 0 Z M 2.667969 0 "/>
</symbol>
<symbol overflow="visible" id="glyph2-22">
<path style="stroke:none;" d="M 0.875 0 L 0.875 -9.449219 L 2.035156 -9.449219 L 2.035156 -4.0625 L 4.78125 -6.84375 L 6.285156 -6.84375 L 3.667969 -4.304688 L 6.546875 0 L 5.117188 0 L 2.855469 -3.5 L 2.035156 -2.714844 L 2.035156 0 Z M 0.875 0 "/>
</symbol>
<symbol overflow="visible" id="glyph2-23">
<path style="stroke:none;" d="M 0.65625 0.566406 L 1.785156 0.734375 C 1.828125 1.078125 1.960938 1.332031 2.179688 1.496094 C 2.464844 1.707031 2.855469 1.816406 3.359375 1.816406 C 3.890625 1.816406 4.304688 1.707031 4.601563 1.492188 C 4.890625 1.277344 5.089844 0.976563 5.195313 0.59375 C 5.253906 0.351563 5.28125 -0.140625 5.277344 -0.894531 C 4.769531 -0.296875 4.136719 0 3.382813 0 C 2.4375 0 1.710938 -0.335938 1.199219 -1.015625 C 0.679688 -1.691406 0.421875 -2.507813 0.425781 -3.460938 C 0.421875 -4.113281 0.539063 -4.714844 0.777344 -5.269531 C 1.011719 -5.816406 1.355469 -6.242188 1.804688 -6.546875 C 2.253906 -6.84375 2.78125 -6.996094 3.390625 -7 C 4.195313 -6.996094 4.859375 -6.667969 5.386719 -6.019531 L 5.386719 -6.84375 L 6.457031 -6.84375 L 6.457031 -0.929688 C 6.457031 0.136719 6.347656 0.890625 6.132813 1.335938 C 5.914063 1.78125 5.570313 2.132813 5.101563 2.390625 C 4.628906 2.648438 4.050781 2.777344 3.363281 2.777344 C 2.546875 2.777344 1.886719 2.59375 1.386719 2.226563 C 0.882813 1.859375 0.640625 1.304688 0.65625 0.566406 Z M 1.617188 -3.546875 C 1.617188 -2.644531 1.792969 -1.988281 2.152344 -1.578125 C 2.503906 -1.164063 2.953125 -0.960938 3.492188 -0.960938 C 4.023438 -0.960938 4.46875 -1.164063 4.832031 -1.574219 C 5.191406 -1.984375 5.371094 -2.628906 5.375 -3.507813 C 5.371094 -4.339844 5.1875 -4.96875 4.816406 -5.398438 C 4.445313 -5.820313 3.996094 -6.035156 3.472656 -6.039063 C 2.953125 -6.035156 2.515625 -5.824219 2.15625 -5.410156 C 1.796875 -4.988281 1.617188 -4.367188 1.617188 -3.546875 Z M 1.617188 -3.546875 "/>
</symbol>
</g>
</defs>
<g id="surface261">
<rect x="0" y="0" width="720" height="360" style="fill:rgb(100%,100%,100%);fill-opacity:1;stroke:none;"/>
<path style=" stroke:none;fill-rule:nonzero;fill:rgb(65.098039%,80.784314%,89.019608%);fill-opacity:0.501961;" d="M 151.484375 188.851563 L 151.484375 67.664063 L 147.039063 67.746094 L 142.597656 67.992188 L 138.167969 68.398438 L 133.757813 68.96875 L 129.371094 69.699219 L 125.011719 70.589844 L 120.691406 71.640625 L 116.410156 72.851563 L 118.832031 80.851563 L 120.039063 84.851563 L 121.25 88.851563 L 122.457031 92.851563 L 124.878906 100.851563 L 126.085938 104.851563 L 128.507813 112.851563 L 129.714844 116.851563 L 130.925781 120.851563 L 132.132813 124.851563 L 134.554688 132.851563 L 135.761719 136.851563 L 138.183594 144.851563 L 139.390625 148.851563 L 140.601563 152.851563 L 141.808594 156.851563 L 144.230469 164.851563 L 145.4375 168.851563 L 147.859375 176.851563 L 149.066406 180.851563 L 150.277344 184.851563 Z M 151.484375 188.851563 "/>
<path style=" stroke:none;fill-rule:nonzero;fill:rgb(12.156863%,47.058824%,70.588235%);fill-opacity:0.501961;" d="M 151.484375 188.851563 L 150.277344 184.851563 L 149.066406 180.851563 L 147.859375 176.851563 L 145.4375 168.851563 L 144.230469 164.851563 L 141.808594 156.851563 L 140.601563 152.851563 L 139.390625 148.851563 L 138.183594 144.851563 L 135.761719 136.851563 L 134.554688 132.851563 L 132.132813 124.851563 L 130.925781 120.851563 L 129.714844 116.851563 L 128.507813 112.851563 L 126.085938 104.851563 L 124.878906 100.851563 L 122.457031 92.851563 L 121.25 88.851563 L 120.039063 84.851563 L 118.832031 80.851563 L 116.410156 72.851563 L 113.226563 73.863281 L 114.546875 77.828125 L 115.863281 81.792969 L 119.824219 93.6875 L 121.140625 97.652344 L 123.78125 105.582031 L 125.101563 109.550781 L 126.417969 113.515625 L 130.378906 125.410156 L 131.695313 129.375 L 135.65625 141.269531 L 136.972656 145.234375 L 138.292969 149.199219 L 139.613281 153.167969 L 140.933594 157.132813 L 142.25 161.097656 L 144.890625 169.027344 L 146.207031 172.992188 L 150.167969 184.886719 Z M 151.484375 188.851563 "/>
<path style=" stroke:none;fill-rule:nonzero;fill:rgb(69.803922%,87.45098%,54.117647%);fill-opacity:0.501961;" d="M 151.484375 188.851563 L 150.167969 184.886719 L 146.207031 172.992188 L 144.890625 169.027344 L 142.25 161.097656 L 140.933594 157.132813 L 139.613281 153.167969 L 138.292969 149.199219 L 136.972656 145.234375 L 135.65625 141.269531 L 131.695313 129.375 L 130.378906 125.410156 L 126.417969 113.515625 L 125.101563 109.550781 L 123.78125 105.582031 L 121.140625 97.652344 L 119.824219 93.6875 L 115.863281 81.792969 L 114.546875 77.828125 L 113.226563 73.863281 L 112.796875 74.007813 L 114.128906 77.964844 L 115.464844 81.925781 L 116.796875 85.886719 L 118.132813 89.847656 L 119.464844 93.808594 L 120.800781 97.769531 L 122.136719 101.726563 L 123.46875 105.6875 L 124.804688 109.648438 L 126.136719 113.609375 L 127.472656 117.570313 L 128.804688 121.527344 L 130.140625 125.488281 L 131.472656 129.449219 L 132.808594 133.410156 L 134.140625 137.371094 L 135.476563 141.332031 L 136.8125 145.289063 L 138.144531 149.25 L 139.480469 153.210938 L 140.8125 157.171875 L 142.148438 161.132813 L 143.480469 165.089844 L 144.816406 169.050781 L 146.148438 173.011719 L 147.484375 176.972656 L 148.816406 180.933594 L 150.152344 184.894531 Z M 151.484375 188.851563 "/>
<path style=" stroke:none;fill-rule:nonzero;fill:rgb(55.294118%,82.745098%,78.039216%);fill-opacity:0.501961;" d="M 151.484375 188.851563 L 150.152344 184.894531 L 148.816406 180.933594 L 147.484375 176.972656 L 146.148438 173.011719 L 144.816406 169.050781 L 143.480469 165.089844 L 142.148438 161.132813 L 140.8125 157.171875 L 139.480469 153.210938 L 138.144531 149.25 L 136.8125 145.289063 L 135.476563 141.332031 L 134.140625 137.371094 L 132.808594 133.410156 L 131.472656 129.449219 L 130.140625 125.488281 L 128.804688 121.527344 L 127.472656 117.570313 L 126.136719 113.609375 L 124.804688 109.648438 L 123.46875 105.6875 L 122.136719 101.726563 L 120.800781 97.769531 L 119.464844 93.808594 L 118.132813 89.847656 L 116.796875 85.886719 L 115.464844 81.925781 L 114.128906 77.964844 L 112.796875 74.007813 L 108.71875 75.460938 L 104.695313 77.0625 L 100.730469 78.804688 L 96.832031 80.6875 L 98.714844 84.417969 L 100.601563 88.148438 L 102.484375 91.878906 L 104.371094 95.609375 L 106.253906 99.335938 L 108.140625 103.066406 L 110.023438 106.796875 L 111.910156 110.527344 L 113.792969 114.257813 L 115.679688 117.988281 L 117.5625 121.714844 L 119.445313 125.445313 L 121.332031 129.175781 L 123.214844 132.90625 L 125.101563 136.636719 L 126.984375 140.367188 L 128.871094 144.09375 L 130.753906 147.824219 L 132.640625 151.554688 L 134.523438 155.285156 L 136.410156 159.015625 L 138.292969 162.746094 L 140.179688 166.472656 L 142.0625 170.203125 L 143.949219 173.933594 L 145.832031 177.664063 L 147.71875 181.394531 L 149.601563 185.125 Z M 151.484375 188.851563 "/>
<path style=" stroke:none;fill-rule:nonzero;fill:rgb(20%,62.745098%,17.254902%);fill-opacity:0.501961;" d="M 151.484375 188.851563 L 149.601563 185.125 L 147.71875 181.394531 L 145.832031 177.664063 L 143.949219 173.933594 L 142.0625 170.203125 L 140.179688 166.472656 L 138.292969 162.746094 L 136.410156 159.015625 L 134.523438 155.285156 L 132.640625 151.554688 L 130.753906 147.824219 L 128.871094 144.09375 L 126.984375 140.367188 L 125.101563 136.636719 L 123.214844 132.90625 L 121.332031 129.175781 L 119.445313 125.445313 L 117.5625 121.714844 L 115.679688 117.988281 L 113.792969 114.257813 L 111.910156 110.527344 L 110.023438 106.796875 L 108.140625 103.066406 L 106.253906 99.335938 L 104.371094 95.609375 L 102.484375 91.878906 L 100.601563 88.148438 L 98.714844 84.417969 L 96.832031 80.6875 L 93.195313 82.605469 L 89.621094 84.644531 L 86.125 86.800781 L 82.699219 89.078125 L 79.355469 91.46875 L 76.089844 93.972656 L 72.917969 96.585938 L 69.832031 99.300781 L 66.839844 102.125 L 63.949219 105.046875 L 61.15625 108.0625 L 58.464844 111.175781 L 55.882813 114.375 L 53.414063 117.660156 L 51.054688 121.027344 L 48.8125 124.472656 L 46.6875 127.996094 L 44.683594 131.585938 L 42.800781 135.242188 L 41.042969 138.957031 L 39.414063 142.734375 L 37.914063 146.5625 L 36.546875 150.4375 L 35.308594 154.359375 L 34.207031 158.320313 L 33.238281 162.316406 L 32.40625 166.34375 L 31.710938 170.398438 L 31.152344 174.46875 L 30.734375 178.5625 L 30.457031 182.664063 L 30.316406 186.773438 L 30.3125 190.882813 L 30.453125 194.992188 L 30.730469 199.097656 L 31.148438 203.1875 L 31.703125 207.261719 L 32.398438 211.3125 L 33.226563 215.339844 L 34.195313 219.335938 L 35.296875 223.296875 L 36.53125 227.21875 L 37.898438 231.097656 L 39.398438 234.925781 L 41.023438 238.703125 L 42.777344 242.421875 L 44.660156 246.078125 L 46.660156 249.667969 L 48.785156 253.191406 L 51.027344 256.636719 L 53.382813 260.003906 L 55.855469 263.292969 L 58.433594 266.492188 L 61.121094 269.605469 L 63.914063 272.625 L 66.804688 275.546875 L 69.792969 278.371094 L 72.878906 281.089844 L 76.054688 283.703125 L 79.3125 286.207031 L 82.65625 288.601563 L 86.082031 290.878906 L 89.578125 293.039063 L 93.148438 295.078125 L 96.785156 296.996094 L 100.488281 298.789063 L 104.246094 300.457031 L 108.058594 301.992188 L 111.921875 303.402344 L 115.832031 304.679688 L 119.78125 305.820313 L 123.765625 306.828125 L 127.785156 307.703125 L 131.828125 308.4375 L 135.898438 309.035156 L 139.984375 309.496094 L 144.082031 309.816406 L 148.191406 309.996094 L 152.300781 310.039063 L 156.414063 309.941406 L 160.519531 309.703125 L 164.613281 309.328125 L 168.691406 308.816406 L 172.75 308.160156 L 176.785156 307.371094 L 180.792969 306.445313 L 184.765625 305.382813 L 188.699219 304.1875 L 192.589844 302.859375 L 196.433594 301.398438 L 200.226563 299.808594 L 203.960938 298.09375 L 207.636719 296.25 L 211.246094 294.28125 L 214.789063 292.195313 L 218.257813 289.988281 L 221.652344 287.664063 L 224.964844 285.226563 L 228.191406 282.679688 L 231.328125 280.023438 L 234.375 277.261719 L 237.328125 274.398438 L 240.179688 271.4375 L 242.929688 268.382813 L 245.574219 265.234375 L 248.113281 261.996094 L 250.539063 258.679688 L 252.851563 255.277344 L 255.042969 251.800781 L 257.121094 248.25 L 259.074219 244.632813 L 260.90625 240.953125 L 262.609375 237.210938 L 264.1875 233.414063 L 265.632813 229.5625 L 266.949219 225.667969 L 268.128906 221.730469 L 269.179688 217.753906 L 270.089844 213.746094 L 270.867188 209.707031 L 271.507813 205.644531 L 272.007813 201.5625 L 272.367188 197.46875 L 272.589844 193.363281 L 272.675781 189.253906 L 272.617188 185.140625 L 272.421875 181.035156 L 272.085938 176.9375 L 271.613281 172.851563 L 271.003906 168.785156 L 270.253906 164.742188 L 269.367188 160.726563 L 268.34375 156.746094 L 267.1875 152.800781 L 265.898438 148.894531 L 264.476563 145.035156 L 262.925781 141.230469 L 261.246094 137.476563 L 259.441406 133.78125 L 257.507813 130.152344 L 255.457031 126.589844 L 253.285156 123.097656 L 250.996094 119.683594 L 248.589844 116.347656 L 246.078125 113.09375 L 243.453125 109.929688 L 240.722656 106.855469 L 237.886719 103.875 L 234.957031 100.992188 L 231.925781 98.210938 L 228.804688 95.535156 L 225.597656 92.964844 L 222.300781 90.507813 L 218.921875 88.160156 L 215.46875 85.929688 L 211.941406 83.820313 L 208.34375 81.828125 L 204.679688 79.960938 L 200.953125 78.21875 L 197.171875 76.605469 L 193.339844 75.121094 L 189.457031 73.765625 L 185.53125 72.542969 L 181.566406 71.457031 L 180.527344 75.503906 L 179.492188 79.554688 L 178.453125 83.601563 L 177.417969 87.648438 L 176.378906 91.699219 L 175.34375 95.746094 L 174.304688 99.792969 L 173.269531 103.839844 L 172.230469 107.890625 L 171.195313 111.9375 L 170.15625 115.984375 L 169.117188 120.035156 L 168.082031 124.082031 L 167.042969 128.128906 L 166.007813 132.179688 L 164.96875 136.226563 L 163.933594 140.273438 L 162.894531 144.324219 L 161.859375 148.371094 L 160.820313 152.417969 L 159.785156 156.46875 L 158.746094 160.515625 L 157.710938 164.5625 L 156.671875 168.613281 L 155.636719 172.660156 L 154.597656 176.707031 L 153.5625 180.757813 Z M 151.484375 188.851563 "/>
<path style=" stroke:none;fill-rule:nonzero;fill:rgb(98.431373%,60.392157%,60%);fill-opacity:0.501961;" d="M 151.484375 188.851563 L 153.5625 180.757813 L 154.597656 176.707031 L 155.636719 172.660156 L 156.671875 168.613281 L 157.710938 164.5625 L 158.746094 160.515625 L 159.785156 156.46875 L 160.820313 152.417969 L 161.859375 148.371094 L 162.894531 144.324219 L 163.933594 140.273438 L 164.96875 136.226563 L 166.007813 132.179688 L 167.042969 128.128906 L 168.082031 124.082031 L 169.117188 120.035156 L 170.15625 115.984375 L 171.195313 111.9375 L 172.230469 107.890625 L 173.269531 103.839844 L 174.304688 99.792969 L 175.34375 95.746094 L 176.378906 91.699219 L 177.417969 87.648438 L 178.453125 83.601563 L 179.492188 79.554688 L 180.527344 75.503906 L 181.566406 71.457031 L 176.898438 70.359375 L 172.1875 69.445313 L 167.449219 68.71875 L 162.683594 68.183594 L 161.523438 80.664063 L 161.136719 84.828125 L 160.75 88.988281 L 160.367188 93.148438 L 159.980469 97.308594 L 159.59375 101.472656 L 158.433594 113.953125 L 158.050781 118.113281 L 157.664063 122.277344 L 156.503906 134.757813 L 156.117188 138.921875 L 155.734375 143.082031 L 154.960938 151.402344 L 154.574219 155.566406 L 153.800781 163.886719 L 153.417969 168.046875 L 153.03125 172.207031 L 152.644531 176.371094 Z M 151.484375 188.851563 "/>
<path style=" stroke:none;fill-rule:nonzero;fill:rgb(89.019608%,10.196078%,10.980392%);fill-opacity:0.501961;" d="M 151.484375 188.851563 L 152.644531 176.371094 L 153.03125 172.207031 L 153.417969 168.046875 L 153.800781 163.886719 L 154.574219 155.566406 L 154.960938 151.402344 L 155.734375 143.082031 L 156.117188 138.921875 L 156.503906 134.757813 L 157.664063 122.277344 L 158.050781 118.113281 L 158.433594 113.953125 L 159.59375 101.472656 L 159.980469 97.308594 L 160.367188 93.148438 L 160.75 88.988281 L 161.136719 84.828125 L 161.523438 80.664063 L 162.683594 68.183594 L 160.078125 67.96875 L 159.785156 72.136719 L 159.191406 80.472656 L 158.894531 84.644531 L 158.003906 97.148438 L 157.710938 101.316406 L 156.523438 117.988281 L 156.226563 122.160156 L 155.929688 126.328125 L 155.636719 130.496094 L 153.855469 155.503906 L 153.558594 159.675781 L 153.265625 163.84375 Z M 151.484375 188.851563 "/>
<path style=" stroke:none;fill-rule:nonzero;fill:rgb(99.215686%,74.901961%,43.529412%);fill-opacity:0.501961;" d="M 151.484375 188.851563 L 153.265625 163.84375 L 153.558594 159.675781 L 153.855469 155.503906 L 155.636719 130.496094 L 155.929688 126.328125 L 156.226563 122.160156 L 156.523438 117.988281 L 157.710938 101.316406 L 158.003906 97.148438 L 158.894531 84.644531 L 159.191406 80.472656 L 159.785156 72.136719 L 160.078125 67.96875 L 159.957031 67.960938 L 159.664063 72.128906 L 159.375 76.296875 L 159.082031 80.464844 L 158.789063 84.636719 L 158.496094 88.804688 L 158.207031 92.972656 L 157.621094 101.308594 L 157.328125 105.480469 L 157.035156 109.648438 L 156.746094 113.816406 L 156.160156 122.152344 L 155.867188 126.324219 L 155.574219 130.492188 L 155.285156 134.660156 L 154.699219 142.996094 L 154.40625 147.167969 L 154.117188 151.335938 L 152.945313 168.007813 L 152.65625 172.179688 Z M 151.484375 188.851563 "/>
<path style=" stroke:none;fill-rule:nonzero;fill:rgb(100%,49.803922%,0%);fill-opacity:0.501961;" d="M 151.484375 188.851563 L 152.65625 172.179688 L 152.945313 168.007813 L 154.117188 151.335938 L 154.40625 147.167969 L 154.699219 142.996094 L 155.285156 134.660156 L 155.574219 130.492188 L 155.867188 126.324219 L 156.160156 122.152344 L 156.746094 113.816406 L 157.035156 109.648438 L 157.328125 105.480469 L 157.621094 101.308594 L 158.207031 92.972656 L 158.496094 88.804688 L 158.789063 84.636719 L 159.082031 80.464844 L 159.375 76.296875 L 159.664063 72.128906 L 159.957031 67.960938 L 159.800781 67.949219 L 159.515625 72.117188 L 159.226563 76.289063 L 158.941406 80.457031 L 158.652344 84.625 L 158.367188 88.796875 L 158.082031 92.964844 L 157.792969 97.132813 L 157.507813 101.300781 L 157.21875 105.472656 L 156.648438 113.808594 L 156.359375 117.980469 L 156.074219 122.148438 L 155.785156 126.316406 L 155.5 130.484375 L 155.214844 134.65625 L 154.925781 138.824219 L 154.640625 142.992188 L 154.351563 147.164063 L 153.78125 155.5 L 153.492188 159.667969 L 153.207031 163.839844 L 152.917969 168.007813 L 152.632813 172.175781 L 152.347656 176.347656 L 152.058594 180.515625 L 151.773438 184.683594 Z M 151.484375 188.851563 "/>
<path style=" stroke:none;fill-rule:nonzero;fill:rgb(50.196078%,50.196078%,50.196078%);fill-opacity:0.501961;" d="M 151.484375 188.851563 L 151.773438 184.683594 L 152.058594 180.515625 L 152.347656 176.347656 L 152.632813 172.175781 L 152.917969 168.007813 L 153.207031 163.839844 L 153.492188 159.667969 L 153.78125 155.5 L 154.351563 147.164063 L 154.640625 142.992188 L 154.925781 138.824219 L 155.214844 134.65625 L 155.5 130.484375 L 155.785156 126.316406 L 156.074219 122.148438 L 156.359375 117.980469 L 156.648438 113.808594 L 157.21875 105.472656 L 157.507813 101.300781 L 157.792969 97.132813 L 158.082031 92.964844 L 158.367188 88.796875 L 158.652344 84.625 L 158.941406 80.457031 L 159.226563 76.289063 L 159.515625 72.117188 L 159.800781 67.949219 L 155.148438 67.71875 L 155.023438 71.898438 L 154.898438 76.074219 L 154.769531 80.25 L 154.644531 84.425781 L 154.519531 88.605469 L 154.390625 92.78125 L 154.265625 96.957031 L 154.140625 101.136719 L 154.011719 105.3125 L 153.886719 109.488281 L 153.761719 113.667969 L 153.632813 117.84375 L 153.507813 122.019531 L 153.382813 126.199219 L 153.253906 130.375 L 153.128906 134.550781 L 153.003906 138.730469 L 152.875 142.90625 L 152.75 147.082031 L 152.625 151.261719 L 152.496094 155.4375 L 152.246094 163.789063 L 152.117188 167.96875 L 151.992188 172.144531 L 151.863281 176.320313 L 151.738281 180.5 L 151.613281 184.675781 Z M 151.484375 188.851563 "/>
<path style=" stroke:none;fill-rule:nonzero;fill:rgb(79.215686%,69.803922%,83.921569%);fill-opacity:0.501961;" d="M 151.484375 188.851563 L 151.613281 184.675781 L 151.738281 180.5 L 151.863281 176.320313 L 151.992188 172.144531 L 152.117188 167.96875 L 152.246094 163.789063 L 152.496094 155.4375 L 152.625 151.261719 L 152.75 147.082031 L 152.875 142.90625 L 153.003906 138.730469 L 153.128906 134.550781 L 153.253906 130.375 L 153.382813 126.199219 L 153.507813 122.019531 L 153.632813 117.84375 L 153.761719 113.667969 L 153.886719 109.488281 L 154.011719 105.3125 L 154.140625 101.136719 L 154.265625 96.957031 L 154.390625 92.78125 L 154.519531 88.605469 L 154.644531 84.425781 L 154.769531 80.25 L 154.898438 76.074219 L 155.023438 71.898438 L 155.148438 67.71875 L 154.089844 67.691406 L 154 71.871094 L 153.910156 76.046875 L 153.820313 80.226563 L 153.730469 84.402344 L 153.550781 92.761719 L 153.460938 96.9375 L 153.371094 101.117188 L 153.28125 105.292969 L 153.191406 109.472656 L 153.101563 113.648438 L 153.011719 117.828125 L 152.921875 122.003906 L 152.742188 130.363281 L 152.652344 134.539063 L 152.5625 138.71875 L 152.472656 142.894531 L 152.382813 147.074219 L 152.292969 151.25 L 152.203125 155.429688 L 152.113281 159.605469 L 151.933594 167.964844 L 151.84375 172.140625 L 151.753906 176.320313 L 151.664063 180.496094 L 151.574219 184.675781 Z M 151.484375 188.851563 "/>
<path style=" stroke:none;fill-rule:nonzero;fill:rgb(41.568627%,23.921569%,60.392157%);fill-opacity:0.501961;" d="M 151.484375 188.851563 L 151.574219 184.675781 L 151.664063 180.496094 L 151.753906 176.320313 L 151.84375 172.140625 L 151.933594 167.964844 L 152.113281 159.605469 L 152.203125 155.429688 L 152.292969 151.25 L 152.382813 147.074219 L 152.472656 142.894531 L 152.5625 138.71875 L 152.652344 134.539063 L 152.742188 130.363281 L 152.921875 122.003906 L 153.011719 117.828125 L 153.101563 113.648438 L 153.191406 109.472656 L 153.28125 105.292969 L 153.371094 101.117188 L 153.460938 96.9375 L 153.550781 92.761719 L 153.730469 84.402344 L 153.820313 80.226563 L 153.910156 76.046875 L 154 71.871094 L 154.089844 67.691406 L 151.484375 67.664063 Z M 151.484375 188.851563 "/>
<g style="fill:rgb(0%,0%,0%);fill-opacity:1;">
  <use xlink:href="#glyph0-1" x="308.640625" y="86.371094"/>
  <use xlink:href="#glyph0-2" x="314.758301" y="86.371094"/>
  <use xlink:href="#glyph0-3" x="317.202148" y="86.371094"/>
  <use xlink:href="#glyph0-2" x="323.319824" y="86.371094"/>
  <use xlink:href="#glyph0-4" x="325.763672" y="86.371094"/>
  <use xlink:href="#glyph0-5" x="331.881348" y="86.371094"/>
  <use xlink:href="#glyph0-6" x="334.9375" y="86.371094"/>
  <use xlink:href="#glyph0-7" x="340.4375" y="86.371094"/>
  <use xlink:href="#glyph0-8" x="342.881348" y="86.371094"/>
  <use xlink:href="#glyph0-9" x="348.999023" y="86.371094"/>
  <use xlink:href="#glyph0-9" x="354.499023" y="86.371094"/>
</g>
<path style=" stroke:none;fill-rule:nonzero;fill:rgb(65.098039%,80.784314%,89.019608%);fill-opacity:0.501961;" d="M 309.351563 109.578125 L 325.214844 109.578125 L 325.214844 93.714844 L 309.351563 93.714844 Z M 309.351563 109.578125 "/>
<path style=" stroke:none;fill-rule:nonzero;fill:rgb(12.156863%,47.058824%,70.588235%);fill-opacity:0.501961;" d="M 309.351563 126.859375 L 325.214844 126.859375 L 325.214844 110.996094 L 309.351563 110.996094 Z M 309.351563 126.859375 "/>
<path style=" stroke:none;fill-rule:nonzero;fill:rgb(69.803922%,87.45098%,54.117647%);fill-opacity:0.501961;" d="M 309.351563 144.136719 L 325.214844 144.136719 L 325.214844 128.273438 L 309.351563 128.273438 Z M 309.351563 144.136719 "/>
<path style=" stroke:none;fill-rule:nonzero;fill:rgb(55.294118%,82.745098%,78.039216%);fill-opacity:0.501961;" d="M 309.351563 161.417969 L 325.214844 161.417969 L 325.214844 145.554688 L 309.351563 145.554688 Z M 309.351563 161.417969 "/>
<path style=" stroke:none;fill-rule:nonzero;fill:rgb(20%,62.745098%,17.254902%);fill-opacity:0.501961;" d="M 309.351563 178.699219 L 325.214844 178.699219 L 325.214844 162.835938 L 309.351563 162.835938 Z M 309.351563 178.699219 "/>
<path style=" stroke:none;fill-rule:nonzero;fill:rgb(98.431373%,60.392157%,60%);fill-opacity:0.501961;" d="M 309.351563 195.980469 L 325.214844 195.980469 L 325.214844 180.117188 L 309.351563 180.117188 Z M 309.351563 195.980469 "/>
<path style=" stroke:none;fill-rule:nonzero;fill:rgb(89.019608%,10.196078%,10.980392%);fill-opacity:0.501961;" d="M 309.351563 213.257813 L 325.214844 213.257813 L 325.214844 197.394531 L 309.351563 197.394531 Z M 309.351563 213.257813 "/>
<path style=" stroke:none;fill-rule:nonzero;fill:rgb(99.215686%,74.901961%,43.529412%);fill-opacity:0.501961;" d="M 309.351563 230.539063 L 325.214844 230.539063 L 325.214844 214.675781 L 309.351563 214.675781 Z M 309.351563 230.539063 "/>
<path style=" stroke:none;fill-rule:nonzero;fill:rgb(100%,49.803922%,0%);fill-opacity:0.501961;" d="M 309.351563 247.820313 L 325.214844 247.820313 L 325.214844 231.957031 L 309.351563 231.957031 Z M 309.351563 247.820313 "/>
<path style=" stroke:none;fill-rule:nonzero;fill:rgb(50.196078%,50.196078%,50.196078%);fill-opacity:0.501961;" d="M 309.351563 265.097656 L 325.214844 265.097656 L 325.214844 249.234375 L 309.351563 249.234375 Z M 309.351563 265.097656 "/>
<path style=" stroke:none;fill-rule:nonzero;fill:rgb(79.215686%,69.803922%,83.921569%);fill-opacity:0.501961;" d="M 309.351563 282.378906 L 325.214844 282.378906 L 325.214844 266.515625 L 309.351563 266.515625 Z M 309.351563 282.378906 "/>
<path style=" stroke:none;fill-rule:nonzero;fill:rgb(41.568627%,23.921569%,60.392157%);fill-opacity:0.501961;" d="M 309.351563 299.660156 L 325.214844 299.660156 L 325.214844 283.796875 L 309.351563 283.796875 Z M 309.351563 299.660156 "/>
<g style="fill:rgb(0%,0%,0%);fill-opacity:1;">
  <use xlink:href="#glyph1-1" x="331.402344" y="104.796875"/>
  <use xlink:href="#glyph1-2" x="337.757422" y="104.796875"/>
  <use xlink:href="#glyph1-3" x="343.626953" y="104.796875"/>
</g>
<g style="fill:rgb(0%,0%,0%);fill-opacity:1;">
  <use xlink:href="#glyph1-1" x="331.402344" y="122.078125"/>
  <use xlink:href="#glyph1-4" x="337.757422" y="122.078125"/>
</g>
<g style="fill:rgb(0%,0%,0%);fill-opacity:1;">
  <use xlink:href="#glyph1-1" x="331.402344" y="139.355469"/>
  <use xlink:href="#glyph1-5" x="337.757422" y="139.355469"/>
  <use xlink:href="#glyph1-6" x="342.651562" y="139.355469"/>
</g>
<g style="fill:rgb(0%,0%,0%);fill-opacity:1;">
  <use xlink:href="#glyph1-7" x="331.402344" y="156.636719"/>
  <use xlink:href="#glyph1-2" x="337.757422" y="156.636719"/>
  <use xlink:href="#glyph1-8" x="343.626953" y="156.636719"/>
</g>
<g style="fill:rgb(0%,0%,0%);fill-opacity:1;">
  <use xlink:href="#glyph1-9" x="331.402344" y="173.917969"/>
  <use xlink:href="#glyph1-2" x="336.777734" y="173.917969"/>
</g>
<g style="fill:rgb(0%,0%,0%);fill-opacity:1;">
  <use xlink:href="#glyph1-10" x="331.402344" y="191.195313"/>
  <use xlink:href="#glyph1-1" x="337.271875" y="191.195313"/>
</g>
<g style="fill:rgb(0%,0%,0%);fill-opacity:1;">
  <use xlink:href="#glyph1-10" x="331.402344" y="208.476563"/>
  <use xlink:href="#glyph1-4" x="337.271875" y="208.476563"/>
</g>
<g style="fill:rgb(0%,0%,0%);fill-opacity:1;">
  <use xlink:href="#glyph1-10" x="331.402344" y="225.757813"/>
  <use xlink:href="#glyph1-8" x="337.271875" y="225.757813"/>
</g>
<g style="fill:rgb(0%,0%,0%);fill-opacity:1;">
  <use xlink:href="#glyph1-10" x="331.402344" y="243.035156"/>
  <use xlink:href="#glyph1-11" x="337.271875" y="243.035156"/>
</g>
<g style="fill:rgb(0%,0%,0%);fill-opacity:1;">
  <use xlink:href="#glyph1-10" x="331.402344" y="260.316406"/>
  <use xlink:href="#glyph1-12" x="337.271875" y="260.316406"/>
</g>
<g style="fill:rgb(0%,0%,0%);fill-opacity:1;">
  <use xlink:href="#glyph1-12" x="331.402344" y="277.597656"/>
  <use xlink:href="#glyph1-13" x="337.271875" y="277.597656"/>
</g>
<g style="fill:rgb(0%,0%,0%);fill-opacity:1;">
  <use xlink:href="#glyph1-14" x="331.402344" y="294.875"/>
  <use xlink:href="#glyph1-2" x="336.777734" y="294.875"/>
  <use xlink:href="#glyph1-8" x="342.647266" y="294.875"/>
</g>
<g style="fill:rgb(0%,0%,0%);fill-opacity:1;">
  <use xlink:href="#glyph2-1" x="0" y="34.589844"/>
  <use xlink:href="#glyph2-2" x="8.804297" y="34.589844"/>
  <use xlink:href="#glyph2-3" x="16.145508" y="34.589844"/>
  <use xlink:href="#glyph2-4" x="27.141211" y="34.589844"/>
  <use xlink:href="#glyph2-5" x="34.482422" y="34.589844"/>
  <use xlink:href="#glyph2-6" x="37.415039" y="34.589844"/>
  <use xlink:href="#glyph2-7" x="44.75625" y="34.589844"/>
  <use xlink:href="#glyph2-8" x="52.819336" y="34.589844"/>
  <use xlink:href="#glyph2-4" x="59.419336" y="34.589844"/>
  <use xlink:href="#glyph2-6" x="66.760547" y="34.589844"/>
  <use xlink:href="#glyph2-9" x="74.101758" y="34.589844"/>
  <use xlink:href="#glyph2-10" x="81.442969" y="34.589844"/>
  <use xlink:href="#glyph2-6" x="90.975586" y="34.589844"/>
  <use xlink:href="#glyph2-11" x="98.316797" y="34.589844"/>
  <use xlink:href="#glyph2-12" x="105.658008" y="34.589844"/>
  <use xlink:href="#glyph2-13" x="110.053711" y="34.589844"/>
  <use xlink:href="#glyph2-14" x="117.394922" y="34.589844"/>
  <use xlink:href="#glyph2-9" x="124.736133" y="34.589844"/>
  <use xlink:href="#glyph2-1" x="132.077344" y="34.589844"/>
  <use xlink:href="#glyph2-5" x="140.881641" y="34.589844"/>
  <use xlink:href="#glyph2-6" x="143.814258" y="34.589844"/>
  <use xlink:href="#glyph2-6" x="151.155469" y="34.589844"/>
  <use xlink:href="#glyph2-4" x="158.49668" y="34.589844"/>
  <use xlink:href="#glyph2-15" x="165.837891" y="34.589844"/>
  <use xlink:href="#glyph2-13" x="175.370508" y="34.589844"/>
  <use xlink:href="#glyph2-14" x="182.711719" y="34.589844"/>
  <use xlink:href="#glyph2-16" x="190.05293" y="34.589844"/>
  <use xlink:href="#glyph2-17" x="197.394141" y="34.589844"/>
  <use xlink:href="#glyph2-18" x="200.326758" y="34.589844"/>
  <use xlink:href="#glyph2-17" x="203.994141" y="34.589844"/>
  <use xlink:href="#glyph2-13" x="206.926758" y="34.589844"/>
  <use xlink:href="#glyph2-14" x="214.267969" y="34.589844"/>
  <use xlink:href="#glyph2-9" x="221.60918" y="34.589844"/>
  <use xlink:href="#glyph2-19" x="228.950391" y="34.589844"/>
  <use xlink:href="#glyph2-6" x="238.483008" y="34.589844"/>
  <use xlink:href="#glyph2-4" x="245.824219" y="34.589844"/>
  <use xlink:href="#glyph2-12" x="253.16543" y="34.589844"/>
  <use xlink:href="#glyph2-17" x="257.561133" y="34.589844"/>
  <use xlink:href="#glyph2-20" x="260.49375" y="34.589844"/>
  <use xlink:href="#glyph2-6" x="267.09375" y="34.589844"/>
  <use xlink:href="#glyph2-16" x="274.434961" y="34.589844"/>
</g>
<path style=" stroke:none;fill-rule:nonzero;fill:rgb(65.098039%,80.784314%,89.019608%);fill-opacity:0.501961;" d="M 511.484375 188.851563 L 511.484375 67.664063 L 507.128906 67.742188 L 502.78125 67.976563 L 498.441406 68.367188 L 494.117188 68.914063 L 489.820313 69.617188 L 485.546875 70.472656 L 481.308594 71.480469 L 482.351563 75.527344 L 483.390625 79.574219 L 484.429688 83.625 L 485.472656 87.671875 L 486.511719 91.71875 L 487.554688 95.765625 L 489.632813 103.859375 L 490.675781 107.90625 L 491.714844 111.953125 L 492.757813 116 L 493.796875 120.050781 L 494.835938 124.097656 L 495.878906 128.144531 L 497.957031 136.238281 L 499 140.285156 L 500.039063 144.332031 L 501.082031 148.378906 L 502.121094 152.425781 L 503.160156 156.476563 L 504.203125 160.523438 L 505.242188 164.570313 L 506.285156 168.617188 L 508.363281 176.710938 L 509.40625 180.757813 Z M 511.484375 188.851563 "/>
<path style=" stroke:none;fill-rule:nonzero;fill:rgb(12.156863%,47.058824%,70.588235%);fill-opacity:0.501961;" d="M 511.484375 188.851563 L 509.40625 180.757813 L 508.363281 176.710938 L 506.285156 168.617188 L 505.242188 164.570313 L 504.203125 160.523438 L 503.160156 156.476563 L 502.121094 152.425781 L 501.082031 148.378906 L 500.039063 144.332031 L 499 140.285156 L 497.957031 136.238281 L 495.878906 128.144531 L 494.835938 124.097656 L 493.796875 120.050781 L 492.757813 116 L 491.714844 111.953125 L 490.675781 107.90625 L 489.632813 103.859375 L 487.554688 95.765625 L 486.511719 91.71875 L 485.472656 87.671875 L 484.429688 83.625 L 483.390625 79.574219 L 482.351563 75.527344 L 481.308594 71.480469 L 477.296875 72.585938 L 478.472656 76.597656 L 480.832031 84.613281 L 482.011719 88.625 L 484.371094 96.640625 L 485.546875 100.652344 L 487.90625 108.667969 L 489.085938 112.679688 L 491.445313 120.695313 L 492.621094 124.707031 L 493.800781 128.714844 L 494.980469 132.726563 L 497.339844 140.742188 L 498.515625 144.753906 L 500.875 152.769531 L 502.054688 156.78125 L 504.414063 164.796875 L 505.589844 168.808594 L 507.949219 176.824219 L 509.128906 180.835938 L 510.308594 184.84375 Z M 511.484375 188.851563 "/>
<path style=" stroke:none;fill-rule:nonzero;fill:rgb(69.803922%,87.45098%,54.117647%);fill-opacity:0.501961;" d="M 511.484375 188.851563 L 510.308594 184.84375 L 509.128906 180.835938 L 507.949219 176.824219 L 505.589844 168.808594 L 504.414063 164.796875 L 502.054688 156.78125 L 500.875 152.769531 L 498.515625 144.753906 L 497.339844 140.742188 L 494.980469 132.726563 L 493.800781 128.714844 L 492.621094 124.707031 L 491.445313 120.695313 L 489.085938 112.679688 L 487.90625 108.667969 L 485.546875 100.652344 L 484.371094 96.640625 L 482.011719 88.625 L 480.832031 84.613281 L 478.472656 76.597656 L 477.296875 72.585938 L 476.894531 72.707031 L 478.089844 76.710938 L 480.472656 84.71875 L 481.667969 88.726563 L 484.050781 96.734375 L 485.246094 100.742188 L 486.4375 104.746094 L 487.632813 108.75 L 488.824219 112.757813 L 490.015625 116.761719 L 491.210938 120.765625 L 492.402344 124.773438 L 493.59375 128.777344 L 494.789063 132.78125 L 495.980469 136.785156 L 497.171875 140.792969 L 498.367188 144.796875 L 499.558594 148.800781 L 500.75 152.808594 L 501.945313 156.8125 L 503.136719 160.816406 L 504.328125 164.824219 L 505.523438 168.828125 L 507.90625 176.835938 L 509.101563 180.84375 Z M 511.484375 188.851563 "/>
<path style=" stroke:none;fill-rule:nonzero;fill:rgb(55.294118%,82.745098%,78.039216%);fill-opacity:0.501961;" d="M 511.484375 188.851563 L 509.101563 180.84375 L 507.90625 176.835938 L 505.523438 168.828125 L 504.328125 164.824219 L 503.136719 160.816406 L 501.945313 156.8125 L 500.75 152.808594 L 499.558594 148.800781 L 498.367188 144.796875 L 497.171875 140.792969 L 495.980469 136.785156 L 494.789063 132.78125 L 493.59375 128.777344 L 492.402344 124.773438 L 491.210938 120.765625 L 490.015625 116.761719 L 488.824219 112.757813 L 487.632813 108.75 L 486.4375 104.746094 L 485.246094 100.742188 L 484.050781 96.734375 L 481.667969 88.726563 L 480.472656 84.71875 L 478.089844 76.710938 L 476.894531 72.707031 L 472.851563 73.988281 L 468.855469 75.410156 L 470.324219 79.320313 L 471.796875 83.234375 L 473.265625 87.144531 L 474.734375 91.058594 L 476.207031 94.96875 L 477.675781 98.882813 L 479.144531 102.792969 L 480.617188 106.703125 L 482.085938 110.617188 L 483.554688 114.527344 L 485.027344 118.441406 L 486.496094 122.351563 L 487.964844 126.265625 L 489.4375 130.175781 L 490.90625 134.085938 L 492.375 138 L 493.847656 141.910156 L 495.316406 145.824219 L 496.785156 149.734375 L 498.257813 153.648438 L 501.195313 161.46875 L 502.664063 165.382813 L 504.136719 169.292969 L 505.605469 173.207031 L 507.074219 177.117188 L 508.546875 181.03125 Z M 511.484375 188.851563 "/>
<path style=" stroke:none;fill-rule:nonzero;fill:rgb(20%,62.745098%,17.254902%);fill-opacity:0.501961;" d="M 511.484375 188.851563 L 508.546875 181.03125 L 507.074219 177.117188 L 505.605469 173.207031 L 504.136719 169.292969 L 502.664063 165.382813 L 501.195313 161.46875 L 498.257813 153.648438 L 496.785156 149.734375 L 495.316406 145.824219 L 493.847656 141.910156 L 492.375 138 L 490.90625 134.085938 L 489.4375 130.175781 L 487.964844 126.265625 L 486.496094 122.351563 L 485.027344 118.441406 L 483.554688 114.527344 L 482.085938 110.617188 L 480.617188 106.703125 L 479.144531 102.792969 L 477.675781 98.882813 L 476.207031 94.96875 L 474.734375 91.058594 L 473.265625 87.144531 L 471.796875 83.234375 L 470.324219 79.320313 L 468.855469 75.410156 L 465.039063 76.917969 L 461.277344 78.554688 L 457.570313 80.316406 L 453.929688 82.203125 L 450.351563 84.214844 L 446.84375 86.34375 L 443.410156 88.589844 L 440.054688 90.953125 L 436.785156 93.425781 L 433.597656 96.011719 L 430.496094 98.699219 L 427.492188 101.492188 L 424.582031 104.386719 L 421.773438 107.375 L 419.066406 110.460938 L 416.464844 113.632813 L 413.976563 116.894531 L 411.59375 120.234375 L 409.328125 123.65625 L 407.179688 127.152344 L 405.152344 130.71875 L 403.246094 134.351563 L 401.460938 138.046875 L 399.804688 141.800781 L 398.277344 145.605469 L 396.878906 149.464844 L 395.609375 153.367188 L 394.472656 157.308594 L 393.472656 161.289063 L 392.609375 165.296875 L 391.878906 169.335938 L 391.285156 173.394531 L 390.832031 177.472656 L 390.515625 181.566406 L 390.339844 185.664063 L 390.300781 189.765625 L 390.402344 193.867188 L 390.640625 197.964844 L 391.019531 202.050781 L 391.535156 206.121094 L 392.1875 210.171875 L 392.976563 214.195313 L 393.902344 218.195313 L 394.964844 222.15625 L 396.15625 226.082031 L 397.484375 229.964844 L 398.941406 233.800781 L 400.527344 237.585938 L 402.242188 241.3125 L 404.078125 244.980469 L 406.039063 248.585938 L 408.121094 252.121094 L 410.324219 255.582031 L 412.640625 258.96875 L 415.070313 262.273438 L 417.609375 265.496094 L 420.257813 268.628906 L 423.011719 271.671875 L 425.867188 274.621094 L 428.820313 277.46875 L 431.867188 280.21875 L 435.003906 282.859375 L 438.230469 285.394531 L 441.539063 287.820313 L 444.929688 290.128906 L 448.398438 292.324219 L 451.9375 294.402344 L 455.542969 296.355469 L 459.214844 298.1875 L 462.945313 299.894531 L 466.730469 301.476563 L 470.570313 302.925781 L 474.457031 304.246094 L 478.382813 305.433594 L 482.347656 306.488281 L 486.347656 307.40625 L 490.375 308.1875 L 494.425781 308.835938 L 498.496094 309.34375 L 502.582031 309.714844 L 506.679688 309.945313 L 510.78125 310.039063 L 514.882813 309.996094 L 518.984375 309.808594 L 523.074219 309.488281 L 527.152344 309.027344 L 531.210938 308.425781 L 535.246094 307.691406 L 539.253906 306.816406 L 543.230469 305.808594 L 547.171875 304.667969 L 551.074219 303.394531 L 554.929688 301.988281 L 558.734375 300.453125 L 562.484375 298.789063 L 566.175781 297 L 569.804688 295.085938 L 573.367188 293.050781 L 576.859375 290.898438 L 580.277344 288.625 L 583.613281 286.242188 L 586.871094 283.742188 L 590.039063 281.136719 L 593.117188 278.425781 L 596.101563 275.609375 L 598.992188 272.695313 L 601.777344 269.6875 L 604.464844 266.582031 L 607.042969 263.390625 L 609.511719 260.113281 L 611.867188 256.753906 L 614.105469 253.316406 L 616.230469 249.808594 L 618.234375 246.226563 L 620.113281 242.578125 L 621.871094 238.871094 L 623.5 235.105469 L 625.003906 231.289063 L 626.375 227.421875 L 627.613281 223.511719 L 628.71875 219.558594 L 629.691406 215.574219 L 630.53125 211.554688 L 631.230469 207.511719 L 631.792969 203.449219 L 632.21875 199.367188 L 632.503906 195.277344 L 632.652344 191.175781 L 632.660156 187.074219 L 632.53125 182.972656 L 632.265625 178.878906 L 631.855469 174.792969 L 631.3125 170.726563 L 630.628906 166.683594 L 629.8125 162.660156 L 628.855469 158.671875 L 627.769531 154.714844 L 626.546875 150.796875 L 625.191406 146.925781 L 623.707031 143.101563 L 622.09375 139.328125 L 620.355469 135.613281 L 618.488281 131.957031 L 616.5 128.367188 L 614.394531 124.847656 L 612.167969 121.402344 L 609.828125 118.03125 L 607.375 114.742188 L 604.808594 111.539063 L 602.140625 108.425781 L 599.363281 105.402344 L 596.488281 102.476563 L 593.515625 99.648438 L 590.449219 96.921875 L 587.292969 94.300781 L 584.050781 91.789063 L 580.722656 89.386719 L 577.316406 87.101563 L 573.832031 84.933594 L 570.28125 82.878906 L 566.660156 80.953125 L 562.972656 79.144531 L 559.230469 77.464844 L 555.433594 75.914063 L 551.585938 74.492188 L 547.691406 73.199219 L 543.753906 72.039063 L 539.78125 71.015625 L 538.804688 75.078125 L 537.832031 79.140625 L 535.878906 87.265625 L 534.902344 91.332031 L 533.925781 95.394531 L 532.953125 99.457031 L 531.976563 103.519531 L 531 107.585938 L 530.023438 111.648438 L 529.050781 115.710938 L 528.074219 119.773438 L 527.097656 123.839844 L 525.144531 131.964844 L 524.171875 136.027344 L 523.195313 140.09375 L 520.265625 152.28125 L 519.292969 156.34375 L 518.316406 160.410156 L 516.363281 168.535156 L 515.390625 172.597656 L 514.414063 176.664063 Z M 511.484375 188.851563 "/>
<path style=" stroke:none;fill-rule:nonzero;fill:rgb(98.431373%,60.392157%,60%);fill-opacity:0.501961;" d="M 511.484375 188.851563 L 514.414063 176.664063 L 515.390625 172.597656 L 516.363281 168.535156 L 518.316406 160.410156 L 519.292969 156.34375 L 520.265625 152.28125 L 523.195313 140.09375 L 524.171875 136.027344 L 525.144531 131.964844 L 527.097656 123.839844 L 528.074219 119.773438 L 529.050781 115.710938 L 530.023438 111.648438 L 531 107.585938 L 531.976563 103.519531 L 532.953125 99.457031 L 533.925781 95.394531 L 534.902344 91.332031 L 535.878906 87.265625 L 537.832031 79.140625 L 538.804688 75.078125 L 539.78125 71.015625 L 535.515625 70.070313 L 531.222656 69.28125 L 526.898438 68.648438 L 522.558594 68.171875 L 522.175781 72.332031 L 521.796875 76.492188 L 521.414063 80.65625 L 520.648438 88.976563 L 520.269531 93.140625 L 519.503906 101.460938 L 519.121094 105.625 L 518.742188 109.785156 L 518.359375 113.945313 L 517.976563 118.109375 L 517.59375 122.269531 L 517.214844 126.429688 L 516.832031 130.59375 L 516.066406 138.914063 L 515.6875 143.078125 L 514.921875 151.398438 L 514.539063 155.5625 L 514.160156 159.722656 L 513.777344 163.882813 L 513.394531 168.046875 L 513.011719 172.207031 L 512.632813 176.367188 L 512.25 180.53125 Z M 511.484375 188.851563 "/>
<path style=" stroke:none;fill-rule:nonzero;fill:rgb(89.019608%,10.196078%,10.980392%);fill-opacity:0.501961;" d="M 511.484375 188.851563 L 512.25 180.53125 L 512.632813 176.367188 L 513.011719 172.207031 L 513.394531 168.046875 L 513.777344 163.882813 L 514.160156 159.722656 L 514.539063 155.5625 L 514.921875 151.398438 L 515.6875 143.078125 L 516.066406 138.914063 L 516.832031 130.59375 L 517.214844 126.429688 L 517.59375 122.269531 L 517.976563 118.109375 L 518.359375 113.945313 L 518.742188 109.785156 L 519.121094 105.625 L 519.503906 101.460938 L 520.269531 93.140625 L 520.648438 88.976563 L 521.414063 80.65625 L 521.796875 76.492188 L 522.175781 72.332031 L 522.558594 68.171875 L 520.007813 67.964844 L 519.128906 80.46875 L 518.832031 84.636719 L 518.539063 88.808594 L 517.660156 101.3125 L 517.363281 105.480469 L 517.070313 109.648438 L 516.777344 113.820313 L 516.484375 117.988281 L 516.1875 122.15625 L 515.308594 134.660156 L 515.011719 138.832031 L 514.132813 151.335938 L 513.835938 155.503906 L 513.25 163.839844 L 512.957031 168.011719 L 512.660156 172.179688 L 511.78125 184.683594 Z M 511.484375 188.851563 "/>
<path style=" stroke:none;fill-rule:nonzero;fill:rgb(99.215686%,74.901961%,43.529412%);fill-opacity:0.501961;" d="M 511.484375 188.851563 L 511.78125 184.683594 L 512.660156 172.179688 L 512.957031 168.011719 L 513.25 163.839844 L 513.835938 155.503906 L 514.132813 151.335938 L 515.011719 138.832031 L 515.308594 134.660156 L 516.1875 122.15625 L 516.484375 117.988281 L 516.777344 113.820313 L 517.070313 109.648438 L 517.363281 105.480469 L 517.660156 101.3125 L 518.539063 88.808594 L 518.832031 84.636719 L 519.128906 80.46875 L 520.007813 67.964844 L 519.851563 67.953125 L 519.566406 72.121094 L 519.277344 76.292969 L 518.410156 88.796875 L 518.121094 92.96875 L 517.832031 97.136719 L 517.546875 101.304688 L 517.257813 105.472656 L 516.96875 109.644531 L 516.101563 122.148438 L 515.8125 126.320313 L 515.523438 130.488281 L 515.238281 134.65625 L 514.949219 138.824219 L 514.660156 142.996094 L 513.792969 155.5 L 513.503906 159.671875 L 513.21875 163.839844 L 512.640625 172.175781 L 512.351563 176.347656 Z M 511.484375 188.851563 "/>
<path style=" stroke:none;fill-rule:nonzero;fill:rgb(100%,49.803922%,0%);fill-opacity:0.501961;" d="M 511.484375 188.851563 L 512.351563 176.347656 L 512.640625 172.175781 L 513.21875 163.839844 L 513.503906 159.671875 L 513.792969 155.5 L 514.660156 142.996094 L 514.949219 138.824219 L 515.238281 134.65625 L 515.523438 130.488281 L 515.8125 126.320313 L 516.101563 122.148438 L 516.96875 109.644531 L 517.257813 105.472656 L 517.546875 101.304688 L 517.832031 97.136719 L 518.121094 92.96875 L 518.410156 88.796875 L 519.277344 76.292969 L 519.566406 72.121094 L 519.851563 67.953125 L 519.679688 67.941406 L 519.394531 72.109375 L 519.113281 76.28125 L 518.832031 80.449219 L 518.546875 84.617188 L 518.265625 88.789063 L 517.984375 92.957031 L 517.699219 97.125 L 517.417969 101.296875 L 517.136719 105.464844 L 516.851563 109.636719 L 516.289063 117.972656 L 516.003906 122.144531 L 515.441406 130.480469 L 515.160156 134.652344 L 514.875 138.820313 L 514.59375 142.988281 L 514.3125 147.160156 L 514.027344 151.328125 L 513.746094 155.5 L 513.464844 159.667969 L 513.179688 163.835938 L 512.898438 168.007813 L 512.617188 172.175781 L 512.332031 176.34375 L 512.050781 180.515625 L 511.769531 184.683594 Z M 511.484375 188.851563 "/>
<path style=" stroke:none;fill-rule:nonzero;fill:rgb(50.196078%,50.196078%,50.196078%);fill-opacity:0.501961;" d="M 511.484375 188.851563 L 511.769531 184.683594 L 512.050781 180.515625 L 512.332031 176.34375 L 512.617188 172.175781 L 512.898438 168.007813 L 513.179688 163.835938 L 513.464844 159.667969 L 513.746094 155.5 L 514.027344 151.328125 L 514.3125 147.160156 L 514.59375 142.988281 L 514.875 138.820313 L 515.160156 134.652344 L 515.441406 130.480469 L 516.003906 122.144531 L 516.289063 117.972656 L 516.851563 109.636719 L 517.136719 105.464844 L 517.417969 101.296875 L 517.699219 97.125 L 517.984375 92.957031 L 518.265625 88.789063 L 518.546875 84.617188 L 518.832031 80.449219 L 519.113281 76.28125 L 519.394531 72.109375 L 519.679688 67.941406 L 514.84375 67.710938 L 514.726563 71.886719 L 514.613281 76.066406 L 514.496094 80.242188 L 514.378906 84.421875 L 514.265625 88.597656 L 514.148438 92.773438 L 514.035156 96.953125 L 513.800781 105.304688 L 513.6875 109.484375 L 513.570313 113.660156 L 513.453125 117.839844 L 513.339844 122.015625 L 513.222656 126.191406 L 513.105469 130.371094 L 512.992188 134.546875 L 512.875 138.726563 L 512.761719 142.902344 L 512.644531 147.078125 L 512.527344 151.257813 L 512.414063 155.433594 L 512.296875 159.613281 L 512.179688 163.789063 L 512.066406 167.964844 L 511.949219 172.144531 L 511.832031 176.320313 L 511.71875 180.5 Z M 511.484375 188.851563 "/>
<path style=" stroke:none;fill-rule:nonzero;fill:rgb(79.215686%,69.803922%,83.921569%);fill-opacity:0.501961;" d="M 511.484375 188.851563 L 511.71875 180.5 L 511.832031 176.320313 L 511.949219 172.144531 L 512.066406 167.964844 L 512.179688 163.789063 L 512.296875 159.613281 L 512.414063 155.433594 L 512.527344 151.257813 L 512.644531 147.078125 L 512.761719 142.902344 L 512.875 138.726563 L 512.992188 134.546875 L 513.105469 130.371094 L 513.222656 126.191406 L 513.339844 122.015625 L 513.453125 117.839844 L 513.570313 113.660156 L 513.6875 109.484375 L 513.800781 105.304688 L 514.035156 96.953125 L 514.148438 92.773438 L 514.265625 88.597656 L 514.378906 84.421875 L 514.496094 80.242188 L 514.613281 76.066406 L 514.726563 71.886719 L 514.84375 67.710938 L 513.761719 67.6875 L 513.683594 71.863281 L 513.605469 76.042969 L 513.527344 80.21875 L 513.371094 88.578125 L 513.292969 92.753906 L 513.210938 96.933594 L 513.132813 101.109375 L 512.976563 109.46875 L 512.898438 113.644531 L 512.742188 122.003906 L 512.664063 126.179688 L 512.585938 130.359375 L 512.507813 134.535156 L 512.429688 138.714844 L 512.347656 142.894531 L 512.269531 147.070313 L 512.191406 151.25 L 512.113281 155.425781 L 511.957031 163.785156 L 511.878906 167.960938 L 511.722656 176.320313 L 511.644531 180.496094 L 511.566406 184.675781 Z M 511.484375 188.851563 "/>
<path style=" stroke:none;fill-rule:nonzero;fill:rgb(41.568627%,23.921569%,60.392157%);fill-opacity:0.501961;" d="M 511.484375 188.851563 L 511.566406 184.675781 L 511.644531 180.496094 L 511.722656 176.320313 L 511.878906 167.960938 L 511.957031 163.785156 L 512.113281 155.425781 L 512.191406 151.25 L 512.269531 147.070313 L 512.347656 142.894531 L 512.429688 138.714844 L 512.507813 134.535156 L 512.585938 130.359375 L 512.664063 126.179688 L 512.742188 122.003906 L 512.898438 113.644531 L 512.976563 109.46875 L 513.132813 101.109375 L 513.210938 96.933594 L 513.292969 92.753906 L 513.371094 88.578125 L 513.527344 80.21875 L 513.605469 76.042969 L 513.683594 71.863281 L 513.761719 67.6875 L 511.484375 67.664063 Z M 511.484375 188.851563 "/>
<g style="fill:rgb(0%,0%,0%);fill-opacity:1;">
  <use xlink:href="#glyph0-1" x="668.640625" y="86.371094"/>
  <use xlink:href="#glyph0-2" x="674.758301" y="86.371094"/>
  <use xlink:href="#glyph0-3" x="677.202148" y="86.371094"/>
  <use xlink:href="#glyph0-2" x="683.319824" y="86.371094"/>
  <use xlink:href="#glyph0-4" x="685.763672" y="86.371094"/>
  <use xlink:href="#glyph0-5" x="691.881348" y="86.371094"/>
  <use xlink:href="#glyph0-6" x="694.9375" y="86.371094"/>
  <use xlink:href="#glyph0-7" x="700.4375" y="86.371094"/>
  <use xlink:href="#glyph0-8" x="702.881348" y="86.371094"/>
  <use xlink:href="#glyph0-9" x="708.999023" y="86.371094"/>
  <use xlink:href="#glyph0-9" x="714.499023" y="86.371094"/>
</g>
<path style=" stroke:none;fill-rule:nonzero;fill:rgb(65.098039%,80.784314%,89.019608%);fill-opacity:0.501961;" d="M 669.351563 109.578125 L 685.214844 109.578125 L 685.214844 93.714844 L 669.351563 93.714844 Z M 669.351563 109.578125 "/>
<path style=" stroke:none;fill-rule:nonzero;fill:rgb(12.156863%,47.058824%,70.588235%);fill-opacity:0.501961;" d="M 669.351563 126.859375 L 685.214844 126.859375 L 685.214844 110.996094 L 669.351563 110.996094 Z M 669.351563 126.859375 "/>
<path style=" stroke:none;fill-rule:nonzero;fill:rgb(69.803922%,87.45098%,54.117647%);fill-opacity:0.501961;" d="M 669.351563 144.136719 L 685.214844 144.136719 L 685.214844 128.273438 L 669.351563 128.273438 Z M 669.351563 144.136719 "/>
<path style=" stroke:none;fill-rule:nonzero;fill:rgb(55.294118%,82.745098%,78.039216%);fill-opacity:0.501961;" d="M 669.351563 161.417969 L 685.214844 161.417969 L 685.214844 145.554688 L 669.351563 145.554688 Z M 669.351563 161.417969 "/>
<path style=" stroke:none;fill-rule:nonzero;fill:rgb(20%,62.745098%,17.254902%);fill-opacity:0.501961;" d="M 669.351563 178.699219 L 685.214844 178.699219 L 685.214844 162.835938 L 669.351563 162.835938 Z M 669.351563 178.699219 "/>
<path style=" stroke:none;fill-rule:nonzero;fill:rgb(98.431373%,60.392157%,60%);fill-opacity:0.501961;" d="M 669.351563 195.980469 L 685.214844 195.980469 L 685.214844 180.117188 L 669.351563 180.117188 Z M 669.351563 195.980469 "/>
<path style=" stroke:none;fill-rule:nonzero;fill:rgb(89.019608%,10.196078%,10.980392%);fill-opacity:0.501961;" d="M 669.351563 213.257813 L 685.214844 213.257813 L 685.214844 197.394531 L 669.351563 197.394531 Z M 669.351563 213.257813 "/>
<path style=" stroke:none;fill-rule:nonzero;fill:rgb(99.215686%,74.901961%,43.529412%);fill-opacity:0.501961;" d="M 669.351563 230.539063 L 685.214844 230.539063 L 685.214844 214.675781 L 669.351563 214.675781 Z M 669.351563 230.539063 "/>
<path style=" stroke:none;fill-rule:nonzero;fill:rgb(100%,49.803922%,0%);fill-opacity:0.501961;" d="M 669.351563 247.820313 L 685.214844 247.820313 L 685.214844 231.957031 L 669.351563 231.957031 Z M 669.351563 247.820313 "/>
<path style=" stroke:none;fill-rule:nonzero;fill:rgb(50.196078%,50.196078%,50.196078%);fill-opacity:0.501961;" d="M 669.351563 265.097656 L 685.214844 265.097656 L 685.214844 249.234375 L 669.351563 249.234375 Z M 669.351563 265.097656 "/>
<path style=" stroke:none;fill-rule:nonzero;fill:rgb(79.215686%,69.803922%,83.921569%);fill-opacity:0.501961;" d="M 669.351563 282.378906 L 685.214844 282.378906 L 685.214844 266.515625 L 669.351563 266.515625 Z M 669.351563 282.378906 "/>
<path style=" stroke:none;fill-rule:nonzero;fill:rgb(41.568627%,23.921569%,60.392157%);fill-opacity:0.501961;" d="M 669.351563 299.660156 L 685.214844 299.660156 L 685.214844 283.796875 L 669.351563 283.796875 Z M 669.351563 299.660156 "/>
<g style="fill:rgb(0%,0%,0%);fill-opacity:1;">
  <use xlink:href="#glyph1-1" x="691.402344" y="104.796875"/>
  <use xlink:href="#glyph1-2" x="697.757422" y="104.796875"/>
  <use xlink:href="#glyph1-3" x="703.626953" y="104.796875"/>
</g>
<g style="fill:rgb(0%,0%,0%);fill-opacity:1;">
  <use xlink:href="#glyph1-1" x="691.402344" y="122.078125"/>
  <use xlink:href="#glyph1-4" x="697.757422" y="122.078125"/>
</g>
<g style="fill:rgb(0%,0%,0%);fill-opacity:1;">
  <use xlink:href="#glyph1-1" x="691.402344" y="139.355469"/>
  <use xlink:href="#glyph1-5" x="697.757422" y="139.355469"/>
  <use xlink:href="#glyph1-6" x="702.651562" y="139.355469"/>
</g>
<g style="fill:rgb(0%,0%,0%);fill-opacity:1;">
  <use xlink:href="#glyph1-7" x="691.402344" y="156.636719"/>
  <use xlink:href="#glyph1-2" x="697.757422" y="156.636719"/>
  <use xlink:href="#glyph1-8" x="703.626953" y="156.636719"/>
</g>
<g style="fill:rgb(0%,0%,0%);fill-opacity:1;">
  <use xlink:href="#glyph1-9" x="691.402344" y="173.917969"/>
  <use xlink:href="#glyph1-2" x="696.777734" y="173.917969"/>
</g>
<g style="fill:rgb(0%,0%,0%);fill-opacity:1;">
  <use xlink:href="#glyph1-10" x="691.402344" y="191.195313"/>
  <use xlink:href="#glyph1-1" x="697.271875" y="191.195313"/>
</g>
<g style="fill:rgb(0%,0%,0%);fill-opacity:1;">
  <use xlink:href="#glyph1-10" x="691.402344" y="208.476563"/>
  <use xlink:href="#glyph1-4" x="697.271875" y="208.476563"/>
</g>
<g style="fill:rgb(0%,0%,0%);fill-opacity:1;">
  <use xlink:href="#glyph1-10" x="691.402344" y="225.757813"/>
  <use xlink:href="#glyph1-8" x="697.271875" y="225.757813"/>
</g>
<g style="fill:rgb(0%,0%,0%);fill-opacity:1;">
  <use xlink:href="#glyph1-10" x="691.402344" y="243.035156"/>
  <use xlink:href="#glyph1-11" x="697.271875" y="243.035156"/>
</g>
<g style="fill:rgb(0%,0%,0%);fill-opacity:1;">
  <use xlink:href="#glyph1-10" x="691.402344" y="260.316406"/>
  <use xlink:href="#glyph1-12" x="697.271875" y="260.316406"/>
</g>
<g style="fill:rgb(0%,0%,0%);fill-opacity:1;">
  <use xlink:href="#glyph1-12" x="691.402344" y="277.597656"/>
  <use xlink:href="#glyph1-13" x="697.271875" y="277.597656"/>
</g>
<g style="fill:rgb(0%,0%,0%);fill-opacity:1;">
  <use xlink:href="#glyph1-14" x="691.402344" y="294.875"/>
  <use xlink:href="#glyph1-2" x="696.777734" y="294.875"/>
  <use xlink:href="#glyph1-8" x="702.647266" y="294.875"/>
</g>
<g style="fill:rgb(0%,0%,0%);fill-opacity:1;">
  <use xlink:href="#glyph2-1" x="360" y="34.589844"/>
  <use xlink:href="#glyph2-2" x="368.804297" y="34.589844"/>
  <use xlink:href="#glyph2-3" x="376.145508" y="34.589844"/>
  <use xlink:href="#glyph2-4" x="387.141211" y="34.589844"/>
  <use xlink:href="#glyph2-5" x="394.482422" y="34.589844"/>
  <use xlink:href="#glyph2-6" x="397.415039" y="34.589844"/>
  <use xlink:href="#glyph2-7" x="404.75625" y="34.589844"/>
  <use xlink:href="#glyph2-8" x="412.819336" y="34.589844"/>
  <use xlink:href="#glyph2-4" x="419.419336" y="34.589844"/>
  <use xlink:href="#glyph2-6" x="426.760547" y="34.589844"/>
  <use xlink:href="#glyph2-9" x="434.101758" y="34.589844"/>
  <use xlink:href="#glyph2-10" x="441.442969" y="34.589844"/>
  <use xlink:href="#glyph2-6" x="450.975586" y="34.589844"/>
  <use xlink:href="#glyph2-11" x="458.316797" y="34.589844"/>
  <use xlink:href="#glyph2-12" x="465.658008" y="34.589844"/>
  <use xlink:href="#glyph2-13" x="470.053711" y="34.589844"/>
  <use xlink:href="#glyph2-14" x="477.394922" y="34.589844"/>
  <use xlink:href="#glyph2-9" x="484.736133" y="34.589844"/>
  <use xlink:href="#glyph2-1" x="492.077344" y="34.589844"/>
  <use xlink:href="#glyph2-5" x="500.881641" y="34.589844"/>
  <use xlink:href="#glyph2-6" x="503.814258" y="34.589844"/>
  <use xlink:href="#glyph2-6" x="511.155469" y="34.589844"/>
  <use xlink:href="#glyph2-4" x="518.49668" y="34.589844"/>
  <use xlink:href="#glyph2-15" x="525.837891" y="34.589844"/>
  <use xlink:href="#glyph2-13" x="535.370508" y="34.589844"/>
  <use xlink:href="#glyph2-14" x="542.711719" y="34.589844"/>
  <use xlink:href="#glyph2-16" x="550.05293" y="34.589844"/>
  <use xlink:href="#glyph2-17" x="557.394141" y="34.589844"/>
  <use xlink:href="#glyph2-18" x="560.326758" y="34.589844"/>
  <use xlink:href="#glyph2-17" x="563.994141" y="34.589844"/>
  <use xlink:href="#glyph2-13" x="566.926758" y="34.589844"/>
  <use xlink:href="#glyph2-14" x="574.267969" y="34.589844"/>
  <use xlink:href="#glyph2-9" x="581.60918" y="34.589844"/>
  <use xlink:href="#glyph2-21" x="588.950391" y="34.589844"/>
  <use xlink:href="#glyph2-2" x="601.40918" y="34.589844"/>
  <use xlink:href="#glyph2-22" x="608.750391" y="34.589844"/>
  <use xlink:href="#glyph2-17" x="615.350391" y="34.589844"/>
  <use xlink:href="#glyph2-14" x="618.283008" y="34.589844"/>
  <use xlink:href="#glyph2-23" x="625.624219" y="34.589844"/>
  <use xlink:href="#glyph2-11" x="632.96543" y="34.589844"/>
  <use xlink:href="#glyph2-4" x="640.306641" y="34.589844"/>
</g>
</g>
</svg>
