<?xml version="1.0" encoding="UTF-8"?>
<svg xmlns="http://www.w3.org/2000/svg" xmlns:xlink="http://www.w3.org/1999/xlink" width="720pt" height="360pt" viewBox="0 0 720 360" version="1.1">
<defs>
<g>
<symbol overflow="visible" id="glyph0-0">
<path style="stroke:none;" d="M 1.375 0 L 1.375 -6.875 L 6.875 -6.875 L 6.875 0 Z M 1.546875 -0.171875 L 6.703125 -0.171875 L 6.703125 -6.703125 L 1.546875 -6.703125 Z M 1.546875 -0.171875 "/>
</symbol>
<symbol overflow="visible" id="glyph0-1">
<path style="stroke:none;" d="M 2.835938 -0.863281 L 2.976563 -0.0117188 C 2.703125 0.0429688 2.457031 0.0703125 2.246094 0.0742188 C 1.890625 0.0703125 1.621094 0.0195313 1.429688 -0.0898438 C 1.234375 -0.199219 1.097656 -0.347656 1.019531 -0.527344 C 0.941406 -0.707031 0.902344 -1.085938 0.902344 -1.671875 L 0.902344 -4.953125 L 0.195313 -4.953125 L 0.195313 -5.703125 L 0.902344 -5.703125 L 0.902344 -7.117188 L 1.863281 -7.695313 L 1.863281 -5.703125 L 2.835938 -5.703125 L 2.835938 -4.953125 L 1.863281 -4.953125 L 1.863281 -1.617188 C 1.863281 -1.339844 1.878906 -1.160156 1.914063 -1.085938 C 1.945313 -1.003906 2 -0.941406 2.078125 -0.898438 C 2.152344 -0.847656 2.261719 -0.824219 2.410156 -0.828125 C 2.515625 -0.824219 2.660156 -0.835938 2.835938 -0.863281 Z M 2.835938 -0.863281 "/>
</symbol>
<symbol overflow="visible" id="glyph0-2">
<path style="stroke:none;" d="M 0.683594 2.195313 L 0.574219 1.289063 C 0.785156 1.34375 0.96875 1.371094 1.128906 1.375 C 1.339844 1.371094 1.511719 1.335938 1.640625 1.265625 C 1.769531 1.195313 1.875 1.09375 1.960938 0.96875 C 2.019531 0.867188 2.117188 0.628906 2.257813 0.246094 C 2.269531 0.191406 2.300781 0.113281 2.34375 0.0117188 L 0.175781 -5.703125 L 1.21875 -5.703125 L 2.40625 -2.402344 C 2.558594 -1.980469 2.695313 -1.539063 2.820313 -1.078125 C 2.925781 -1.523438 3.058594 -1.957031 3.21875 -2.378906 L 4.4375 -5.703125 L 5.402344 -5.703125 L 3.234375 0.0976563 C 3 0.71875 2.816406 1.148438 2.691406 1.390625 C 2.515625 1.703125 2.320313 1.9375 2.097656 2.089844 C 1.875 2.238281 1.609375 2.3125 1.304688 2.316406 C 1.117188 2.3125 0.910156 2.273438 0.683594 2.195313 Z M 0.683594 2.195313 "/>
</symbol>
<symbol overflow="visible" id="glyph0-3">
<path style="stroke:none;" d="M 0.726563 2.1875 L 0.726563 -5.703125 L 1.605469 -5.703125 L 1.605469 -4.960938 C 1.8125 -5.25 2.046875 -5.46875 2.308594 -5.613281 C 2.570313 -5.757813 2.886719 -5.828125 3.261719 -5.832031 C 3.746094 -5.828125 4.175781 -5.703125 4.550781 -5.457031 C 4.921875 -5.203125 5.203125 -4.851563 5.390625 -4.394531 C 5.578125 -3.9375 5.671875 -3.4375 5.675781 -2.894531 C 5.671875 -2.308594 5.566406 -1.78125 5.359375 -1.316406 C 5.148438 -0.847656 4.84375 -0.488281 4.449219 -0.242188 C 4.046875 0.0078125 3.628906 0.128906 3.191406 0.128906 C 2.867188 0.128906 2.578125 0.0625 2.320313 -0.0742188 C 2.0625 -0.210938 1.851563 -0.382813 1.691406 -0.589844 L 1.691406 2.1875 Z M 1.601563 -2.820313 C 1.597656 -2.082031 1.746094 -1.539063 2.046875 -1.191406 C 2.339844 -0.835938 2.699219 -0.660156 3.125 -0.664063 C 3.550781 -0.660156 3.917969 -0.84375 4.226563 -1.210938 C 4.53125 -1.574219 4.6875 -2.136719 4.6875 -2.898438 C 4.6875 -3.625 4.535156 -4.167969 4.238281 -4.53125 C 3.9375 -4.890625 3.582031 -5.074219 3.167969 -5.074219 C 2.753906 -5.074219 2.390625 -4.878906 2.074219 -4.496094 C 1.757813 -4.109375 1.597656 -3.550781 1.601563 -2.820313 Z M 1.601563 -2.820313 "/>
</symbol>
<symbol overflow="visible" id="glyph0-4">
<path style="stroke:none;" d="M 4.628906 -1.835938 L 5.628906 -1.714844 C 5.46875 -1.125 5.175781 -0.671875 4.75 -0.351563 C 4.324219 -0.03125 3.78125 0.128906 3.121094 0.128906 C 2.28125 0.128906 1.617188 -0.125 1.132813 -0.640625 C 0.640625 -1.152344 0.398438 -1.875 0.402344 -2.804688 C 0.398438 -3.761719 0.644531 -4.503906 1.144531 -5.035156 C 1.636719 -5.5625 2.277344 -5.828125 3.066406 -5.832031 C 3.824219 -5.828125 4.449219 -5.570313 4.933594 -5.050781 C 5.417969 -4.53125 5.660156 -3.800781 5.660156 -2.863281 C 5.660156 -2.804688 5.65625 -2.71875 5.65625 -2.605469 L 1.402344 -2.605469 C 1.433594 -1.976563 1.613281 -1.496094 1.933594 -1.164063 C 2.25 -0.828125 2.644531 -0.660156 3.125 -0.664063 C 3.476563 -0.660156 3.78125 -0.753906 4.03125 -0.945313 C 4.28125 -1.128906 4.480469 -1.425781 4.628906 -1.835938 Z M 1.457031 -3.398438 L 4.640625 -3.398438 C 4.597656 -3.878906 4.472656 -4.238281 4.273438 -4.480469 C 3.960938 -4.851563 3.5625 -5.039063 3.078125 -5.039063 C 2.628906 -5.039063 2.257813 -4.890625 1.957031 -4.59375 C 1.652344 -4.296875 1.484375 -3.898438 1.457031 -3.398438 Z M 1.457031 -3.398438 "/>
</symbol>
<symbol overflow="visible" id="glyph1-0">
<path style="stroke:none;" d="M 1.101563 0 L 1.101563 -5.5 L 5.5 -5.5 L 5.5 0 Z M 1.238281 -0.136719 L 5.363281 -0.136719 L 5.363281 -5.363281 L 1.238281 -5.363281 Z M 1.238281 -0.136719 "/>
</symbol>
<symbol overflow="visible" id="glyph1-1">
<path style="stroke:none;" d="M 5.171875 -2.207031 L 6.007813 -2 C 5.828125 -1.3125 5.515625 -0.789063 5.0625 -0.429688 C 4.609375 -0.0703125 4.054688 0.105469 3.398438 0.109375 C 2.71875 0.105469 2.164063 -0.03125 1.742188 -0.304688 C 1.3125 -0.582031 0.988281 -0.980469 0.769531 -1.507813 C 0.542969 -2.027344 0.433594 -2.589844 0.4375 -3.195313 C 0.433594 -3.847656 0.558594 -4.421875 0.8125 -4.910156 C 1.0625 -5.398438 1.417969 -5.769531 1.882813 -6.023438 C 2.34375 -6.277344 2.855469 -6.402344 3.410156 -6.40625 C 4.039063 -6.402344 4.566406 -6.242188 5 -5.925781 C 5.425781 -5.601563 5.726563 -5.152344 5.898438 -4.570313 L 5.078125 -4.378906 C 4.929688 -4.832031 4.71875 -5.167969 4.441406 -5.378906 C 4.164063 -5.589844 3.8125 -5.695313 3.394531 -5.695313 C 2.90625 -5.695313 2.503906 -5.578125 2.179688 -5.34375 C 1.851563 -5.109375 1.621094 -4.796875 1.492188 -4.410156 C 1.359375 -4.015625 1.292969 -3.613281 1.296875 -3.203125 C 1.292969 -2.664063 1.371094 -2.195313 1.53125 -1.796875 C 1.683594 -1.394531 1.925781 -1.097656 2.257813 -0.902344 C 2.585938 -0.703125 2.945313 -0.601563 3.332031 -0.605469 C 3.796875 -0.601563 4.191406 -0.738281 4.515625 -1.007813 C 4.835938 -1.277344 5.054688 -1.675781 5.171875 -2.207031 Z M 5.171875 -2.207031 "/>
</symbol>
<symbol overflow="visible" id="glyph1-2">
<path style="stroke:none;" d="M -0.0117188 0 L 2.40625 -6.300781 L 3.304688 -6.300781 L 5.882813 0 L 4.933594 0 L 4.199219 -1.90625 L 1.5625 -1.90625 L 0.871094 0 Z M 1.804688 -2.585938 L 3.941406 -2.585938 L 3.28125 -4.332031 C 3.078125 -4.855469 2.929688 -5.292969 2.835938 -5.636719 C 2.753906 -5.230469 2.640625 -4.828125 2.496094 -4.433594 Z M 1.804688 -2.585938 "/>
</symbol>
<symbol overflow="visible" id="glyph1-3">
<path style="stroke:none;" d="M 0.691406 0 L 0.691406 -6.300781 L 3.484375 -6.300781 C 4.042969 -6.296875 4.46875 -6.242188 4.765625 -6.128906 C 5.054688 -6.015625 5.289063 -5.816406 5.464844 -5.53125 C 5.636719 -5.242188 5.722656 -4.925781 5.726563 -4.582031 C 5.722656 -4.132813 5.578125 -3.753906 5.292969 -3.449219 C 5 -3.140625 4.554688 -2.945313 3.953125 -2.867188 C 4.171875 -2.757813 4.339844 -2.652344 4.457031 -2.550781 C 4.695313 -2.324219 4.925781 -2.046875 5.148438 -1.714844 L 6.242188 0 L 5.195313 0 L 4.359375 -1.3125 C 4.117188 -1.6875 3.914063 -1.976563 3.757813 -2.179688 C 3.597656 -2.378906 3.457031 -2.515625 3.335938 -2.597656 C 3.207031 -2.675781 3.082031 -2.734375 2.957031 -2.765625 C 2.859375 -2.785156 2.703125 -2.792969 2.492188 -2.796875 L 1.527344 -2.796875 L 1.527344 0 Z M 1.527344 -3.519531 L 3.316406 -3.519531 C 3.699219 -3.515625 3.996094 -3.554688 4.210938 -3.636719 C 4.421875 -3.710938 4.585938 -3.835938 4.699219 -4.011719 C 4.808594 -4.183594 4.863281 -4.375 4.867188 -4.582031 C 4.863281 -4.878906 4.753906 -5.121094 4.542969 -5.3125 C 4.324219 -5.503906 3.984375 -5.601563 3.519531 -5.601563 L 1.527344 -5.601563 Z M 1.527344 -3.519531 "/>
</symbol>
<symbol overflow="visible" id="glyph1-4">
<path style="stroke:none;" d="M 0.695313 0 L 0.695313 -6.300781 L 5.25 -6.300781 L 5.25 -5.554688 L 1.53125 -5.554688 L 1.53125 -3.625 L 5.015625 -3.625 L 5.015625 -2.886719 L 1.53125 -2.886719 L 1.53125 -0.742188 L 5.398438 -0.742188 L 5.398438 0 Z M 0.695313 0 "/>
</symbol>
<symbol overflow="visible" id="glyph1-5">
<path style="stroke:none;" d="M 3.703125 -1.46875 L 4.503906 -1.371094 C 4.375 -0.902344 4.140625 -0.539063 3.800781 -0.285156 C 3.460938 -0.0273438 3.027344 0.0976563 2.496094 0.101563 C 1.828125 0.0976563 1.296875 -0.101563 0.90625 -0.511719 C 0.511719 -0.917969 0.316406 -1.496094 0.320313 -2.242188 C 0.316406 -3.007813 0.515625 -3.605469 0.914063 -4.03125 C 1.308594 -4.453125 1.820313 -4.664063 2.453125 -4.667969 C 3.058594 -4.664063 3.554688 -4.457031 3.945313 -4.042969 C 4.328125 -3.628906 4.523438 -3.042969 4.527344 -2.289063 C 4.523438 -2.242188 4.523438 -2.175781 4.523438 -2.085938 L 1.121094 -2.085938 C 1.144531 -1.582031 1.289063 -1.195313 1.546875 -0.929688 C 1.800781 -0.660156 2.117188 -0.527344 2.5 -0.53125 C 2.78125 -0.527344 3.023438 -0.601563 3.226563 -0.753906 C 3.425781 -0.902344 3.585938 -1.140625 3.703125 -1.46875 Z M 1.164063 -2.71875 L 3.710938 -2.71875 C 3.671875 -3.101563 3.578125 -3.386719 3.421875 -3.582031 C 3.171875 -3.878906 2.851563 -4.03125 2.460938 -4.03125 C 2.105469 -4.03125 1.804688 -3.910156 1.566406 -3.671875 C 1.320313 -3.433594 1.1875 -3.117188 1.164063 -2.71875 Z M 1.164063 -2.71875 "/>
</symbol>
<symbol overflow="visible" id="glyph1-6">
<path style="stroke:none;" d="M 0.570313 0 L 0.570313 -4.5625 L 1.265625 -4.5625 L 1.265625 -3.871094 C 1.445313 -4.191406 1.609375 -4.40625 1.757813 -4.511719 C 1.90625 -4.613281 2.070313 -4.664063 2.257813 -4.667969 C 2.515625 -4.664063 2.78125 -4.582031 3.050781 -4.417969 L 2.785156 -3.699219 C 2.589844 -3.808594 2.402344 -3.867188 2.21875 -3.867188 C 2.046875 -3.867188 1.894531 -3.816406 1.761719 -3.714844 C 1.625 -3.613281 1.527344 -3.472656 1.472656 -3.292969 C 1.382813 -3.015625 1.339844 -2.714844 1.34375 -2.390625 L 1.34375 0 Z M 0.570313 0 "/>
</symbol>
<symbol overflow="visible" id="glyph1-7">
<path style="stroke:none;" d="M 0.679688 0 L 0.679688 -6.300781 L 2.847656 -6.300781 C 3.335938 -6.296875 3.707031 -6.269531 3.96875 -6.210938 C 4.328125 -6.125 4.636719 -5.972656 4.894531 -5.757813 C 5.222656 -5.472656 5.472656 -5.113281 5.636719 -4.679688 C 5.800781 -4.242188 5.882813 -3.742188 5.886719 -3.183594 C 5.882813 -2.699219 5.828125 -2.277344 5.71875 -1.910156 C 5.605469 -1.542969 5.460938 -1.238281 5.289063 -0.996094 C 5.113281 -0.753906 4.921875 -0.5625 4.714844 -0.421875 C 4.507813 -0.28125 4.257813 -0.175781 3.964844 -0.105469 C 3.667969 -0.0351563 3.332031 0 2.953125 0 Z M 1.511719 -0.742188 L 2.859375 -0.742188 C 3.273438 -0.738281 3.597656 -0.777344 3.832031 -0.859375 C 4.066406 -0.933594 4.253906 -1.042969 4.398438 -1.1875 C 4.59375 -1.382813 4.746094 -1.648438 4.859375 -1.984375 C 4.96875 -2.316406 5.027344 -2.71875 5.027344 -3.195313 C 5.027344 -3.851563 4.917969 -4.359375 4.703125 -4.714844 C 4.484375 -5.066406 4.222656 -5.304688 3.914063 -5.425781 C 3.6875 -5.511719 3.328125 -5.554688 2.835938 -5.554688 L 1.511719 -5.554688 Z M 1.511719 -0.742188 "/>
</symbol>
<symbol overflow="visible" id="glyph1-8">
<path style="stroke:none;" d="M 3.625 -2.46875 L 3.625 -3.210938 L 6.296875 -3.214844 L 6.296875 -0.875 C 5.882813 -0.546875 5.460938 -0.300781 5.027344 -0.136719 C 4.589844 0.0273438 4.140625 0.105469 3.6875 0.109375 C 3.0625 0.105469 2.5 -0.0234375 2 -0.289063 C 1.492188 -0.550781 1.113281 -0.933594 0.855469 -1.4375 C 0.597656 -1.9375 0.46875 -2.5 0.46875 -3.121094 C 0.46875 -3.730469 0.59375 -4.300781 0.851563 -4.835938 C 1.105469 -5.363281 1.476563 -5.757813 1.957031 -6.019531 C 2.4375 -6.273438 2.992188 -6.402344 3.621094 -6.40625 C 4.074219 -6.402344 4.484375 -6.328125 4.855469 -6.183594 C 5.222656 -6.035156 5.511719 -5.832031 5.722656 -5.566406 C 5.929688 -5.300781 6.089844 -4.957031 6.199219 -4.539063 L 5.449219 -4.332031 C 5.351563 -4.648438 5.230469 -4.902344 5.09375 -5.085938 C 4.953125 -5.269531 4.753906 -5.414063 4.492188 -5.527344 C 4.230469 -5.636719 3.941406 -5.695313 3.625 -5.695313 C 3.242188 -5.695313 2.914063 -5.636719 2.636719 -5.519531 C 2.359375 -5.402344 2.132813 -5.246094 1.964844 -5.058594 C 1.792969 -4.867188 1.664063 -4.660156 1.570313 -4.4375 C 1.40625 -4.046875 1.324219 -3.625 1.328125 -3.171875 C 1.324219 -2.605469 1.421875 -2.136719 1.617188 -1.761719 C 1.808594 -1.382813 2.089844 -1.101563 2.460938 -0.917969 C 2.828125 -0.734375 3.21875 -0.644531 3.640625 -0.644531 C 3.996094 -0.644531 4.347656 -0.710938 4.695313 -0.851563 C 5.035156 -0.988281 5.296875 -1.136719 5.476563 -1.296875 L 5.476563 -2.46875 Z M 3.625 -2.46875 "/>
</symbol>
<symbol overflow="visible" id="glyph1-9">
<path style="stroke:none;" d="M 0.679688 0 L 0.679688 -6.300781 L 3.054688 -6.300781 C 3.46875 -6.296875 3.789063 -6.277344 4.011719 -6.238281 C 4.320313 -6.183594 4.578125 -6.085938 4.789063 -5.941406 C 4.996094 -5.796875 5.167969 -5.59375 5.296875 -5.335938 C 5.421875 -5.074219 5.484375 -4.789063 5.488281 -4.476563 C 5.484375 -3.941406 5.3125 -3.488281 4.976563 -3.117188 C 4.632813 -2.746094 4.019531 -2.558594 3.128906 -2.5625 L 1.511719 -2.5625 L 1.511719 0 Z M 1.511719 -3.304688 L 3.140625 -3.304688 C 3.679688 -3.304688 4.0625 -3.402344 4.289063 -3.605469 C 4.515625 -3.800781 4.628906 -4.085938 4.628906 -4.453125 C 4.628906 -4.714844 4.558594 -4.9375 4.425781 -5.128906 C 4.289063 -5.3125 4.117188 -5.4375 3.902344 -5.5 C 3.761719 -5.535156 3.5 -5.554688 3.125 -5.554688 L 1.511719 -5.554688 Z M 1.511719 -3.304688 "/>
</symbol>
<symbol overflow="visible" id="glyph1-10">
<path style="stroke:none;" d="M 0.820313 0 L 0.820313 -6.300781 L 1.65625 -6.300781 L 1.65625 0 Z M 0.820313 0 "/>
</symbol>
<symbol overflow="visible" id="glyph1-11">
<path style="stroke:none;" d="M 0.394531 -2.023438 L 1.179688 -2.09375 C 1.214844 -1.773438 1.304688 -1.515625 1.441406 -1.316406 C 1.574219 -1.113281 1.785156 -0.949219 2.074219 -0.828125 C 2.359375 -0.699219 2.679688 -0.636719 3.042969 -0.640625 C 3.355469 -0.636719 3.636719 -0.683594 3.882813 -0.78125 C 4.125 -0.875 4.304688 -1.007813 4.425781 -1.171875 C 4.542969 -1.335938 4.605469 -1.515625 4.605469 -1.710938 C 4.605469 -1.90625 4.546875 -2.078125 4.433594 -2.226563 C 4.316406 -2.375 4.128906 -2.5 3.867188 -2.601563 C 3.695313 -2.664063 3.320313 -2.765625 2.746094 -2.90625 C 2.164063 -3.046875 1.757813 -3.175781 1.53125 -3.300781 C 1.226563 -3.453125 1.003906 -3.648438 0.855469 -3.886719 C 0.707031 -4.117188 0.632813 -4.378906 0.636719 -4.671875 C 0.632813 -4.984375 0.722656 -5.28125 0.90625 -5.5625 C 1.082031 -5.835938 1.34375 -6.046875 1.695313 -6.191406 C 2.039063 -6.332031 2.425781 -6.402344 2.851563 -6.40625 C 3.316406 -6.402344 3.730469 -6.328125 4.089844 -6.179688 C 4.445313 -6.027344 4.71875 -5.804688 4.910156 -5.515625 C 5.101563 -5.21875 5.203125 -4.890625 5.21875 -4.523438 L 4.421875 -4.464844 C 4.375 -4.863281 4.230469 -5.164063 3.984375 -5.367188 C 3.734375 -5.570313 3.367188 -5.671875 2.886719 -5.671875 C 2.382813 -5.671875 2.015625 -5.578125 1.785156 -5.394531 C 1.554688 -5.207031 1.441406 -4.984375 1.441406 -4.726563 C 1.441406 -4.496094 1.519531 -4.308594 1.683594 -4.167969 C 1.839844 -4.019531 2.261719 -3.871094 2.941406 -3.71875 C 3.617188 -3.5625 4.082031 -3.429688 4.335938 -3.316406 C 4.703125 -3.144531 4.972656 -2.929688 5.148438 -2.671875 C 5.320313 -2.414063 5.40625 -2.113281 5.410156 -1.777344 C 5.40625 -1.441406 5.3125 -1.128906 5.121094 -0.832031 C 4.929688 -0.535156 4.652344 -0.300781 4.292969 -0.136719 C 3.929688 0.0273438 3.527344 0.105469 3.082031 0.109375 C 2.511719 0.105469 2.03125 0.0234375 1.648438 -0.140625 C 1.257813 -0.304688 0.957031 -0.554688 0.742188 -0.890625 C 0.519531 -1.222656 0.402344 -1.597656 0.394531 -2.023438 Z M 0.394531 -2.023438 "/>
</symbol>
<symbol overflow="visible" id="glyph1-12">
<path style="stroke:none;" d="M 0.652344 0 L 0.652344 -6.300781 L 1.90625 -6.300781 L 3.398438 -1.839844 C 3.535156 -1.421875 3.632813 -1.109375 3.699219 -0.90625 C 3.769531 -1.132813 3.882813 -1.46875 4.035156 -1.917969 L 5.542969 -6.300781 L 6.664063 -6.300781 L 6.664063 0 L 5.859375 0 L 5.859375 -5.273438 L 4.03125 0 L 3.277344 0 L 1.457031 -5.363281 L 1.457031 0 Z M 0.652344 0 "/>
</symbol>
<symbol overflow="visible" id="glyph1-13">
<path style="stroke:none;" d="M 2.28125 0 L 2.28125 -5.554688 L 0.207031 -5.554688 L 0.207031 -6.300781 L 5.199219 -6.300781 L 5.199219 -5.554688 L 3.117188 -5.554688 L 3.117188 0 Z M 2.28125 0 "/>
</symbol>
<symbol overflow="visible" id="glyph2-0">
<path style="stroke:none;" d="M 1.648438 0 L 1.648438 -8.25 L 8.25 -8.25 L 8.25 0 Z M 1.855469 -0.207031 L 8.042969 -0.207031 L 8.042969 -8.042969 L 1.855469 -8.042969 Z M 1.855469 -0.207031 "/>
</symbol>
<symbol overflow="visible" id="glyph2-1">
<path style="stroke:none;" d="M 0.59375 -3.035156 L 1.773438 -3.140625 C 1.824219 -2.664063 1.953125 -2.273438 2.160156 -1.972656 C 2.363281 -1.667969 2.679688 -1.421875 3.113281 -1.238281 C 3.539063 -1.050781 4.023438 -0.960938 4.5625 -0.960938 C 5.035156 -0.960938 5.457031 -1.03125 5.824219 -1.171875 C 6.191406 -1.3125 6.460938 -1.503906 6.640625 -1.753906 C 6.816406 -1.996094 6.90625 -2.269531 6.910156 -2.566406 C 6.90625 -2.863281 6.820313 -3.121094 6.652344 -3.339844 C 6.476563 -3.558594 6.195313 -3.742188 5.800781 -3.898438 C 5.546875 -3.992188 4.984375 -4.148438 4.117188 -4.359375 C 3.246094 -4.566406 2.636719 -4.761719 2.292969 -4.949219 C 1.839844 -5.183594 1.503906 -5.476563 1.285156 -5.828125 C 1.058594 -6.175781 0.949219 -6.570313 0.953125 -7.007813 C 0.949219 -7.484375 1.085938 -7.929688 1.359375 -8.34375 C 1.628906 -8.757813 2.023438 -9.070313 2.542969 -9.285156 C 3.0625 -9.5 3.640625 -9.609375 4.28125 -9.609375 C 4.980469 -9.609375 5.597656 -9.496094 6.132813 -9.269531 C 6.664063 -9.042969 7.074219 -8.710938 7.363281 -8.273438 C 7.648438 -7.835938 7.804688 -7.339844 7.832031 -6.785156 L 6.632813 -6.695313 C 6.566406 -7.292969 6.347656 -7.746094 5.976563 -8.050781 C 5.605469 -8.355469 5.054688 -8.507813 4.332031 -8.507813 C 3.570313 -8.507813 3.019531 -8.367188 2.675781 -8.089844 C 2.328125 -7.8125 2.15625 -7.480469 2.160156 -7.089844 C 2.15625 -6.75 2.277344 -6.46875 2.527344 -6.25 C 2.761719 -6.027344 3.390625 -5.804688 4.410156 -5.578125 C 5.425781 -5.347656 6.125 -5.144531 6.503906 -4.976563 C 7.050781 -4.71875 7.453125 -4.398438 7.71875 -4.011719 C 7.976563 -3.621094 8.109375 -3.171875 8.113281 -2.667969 C 8.109375 -2.160156 7.964844 -1.6875 7.679688 -1.246094 C 7.390625 -0.796875 6.976563 -0.449219 6.441406 -0.207031 C 5.898438 0.0390625 5.292969 0.15625 4.621094 0.160156 C 3.765625 0.15625 3.050781 0.0351563 2.472656 -0.210938 C 1.894531 -0.460938 1.4375 -0.835938 1.109375 -1.335938 C 0.777344 -1.835938 0.605469 -2.402344 0.59375 -3.035156 Z M 0.59375 -3.035156 "/>
</symbol>
<symbol overflow="visible" id="glyph2-2">
<path style="stroke:none;" d="M 5.335938 -0.84375 C 4.902344 -0.476563 4.488281 -0.21875 4.09375 -0.0703125 C 3.695313 0.078125 3.269531 0.152344 2.816406 0.15625 C 2.0625 0.152344 1.484375 -0.0273438 1.082031 -0.394531 C 0.675781 -0.761719 0.472656 -1.234375 0.476563 -1.804688 C 0.472656 -2.140625 0.550781 -2.445313 0.703125 -2.722656 C 0.855469 -3 1.054688 -3.222656 1.304688 -3.390625 C 1.550781 -3.554688 1.828125 -3.679688 2.140625 -3.769531 C 2.363281 -3.824219 2.707031 -3.882813 3.171875 -3.945313 C 4.105469 -4.054688 4.796875 -4.1875 5.238281 -4.34375 C 5.242188 -4.5 5.242188 -4.601563 5.246094 -4.648438 C 5.242188 -5.117188 5.132813 -5.449219 4.917969 -5.644531 C 4.617188 -5.902344 4.179688 -6.035156 3.597656 -6.039063 C 3.050781 -6.035156 2.644531 -5.9375 2.386719 -5.75 C 2.125 -5.554688 1.933594 -5.21875 1.8125 -4.738281 L 0.675781 -4.890625 C 0.777344 -5.375 0.949219 -5.765625 1.183594 -6.066406 C 1.417969 -6.363281 1.757813 -6.59375 2.210938 -6.757813 C 2.65625 -6.914063 3.175781 -6.996094 3.765625 -7 C 4.347656 -6.996094 4.820313 -6.925781 5.1875 -6.792969 C 5.546875 -6.652344 5.816406 -6.480469 5.992188 -6.273438 C 6.160156 -6.0625 6.28125 -5.800781 6.355469 -5.484375 C 6.390625 -5.285156 6.410156 -4.925781 6.414063 -4.414063 L 6.414063 -2.867188 C 6.410156 -1.785156 6.433594 -1.105469 6.488281 -0.820313 C 6.535156 -0.535156 6.632813 -0.261719 6.78125 0 L 5.570313 0 C 5.445313 -0.238281 5.367188 -0.519531 5.335938 -0.84375 Z M 5.238281 -3.433594 C 4.816406 -3.261719 4.183594 -3.113281 3.34375 -2.996094 C 2.863281 -2.925781 2.527344 -2.851563 2.332031 -2.765625 C 2.132813 -2.679688 1.980469 -2.550781 1.875 -2.386719 C 1.765625 -2.21875 1.710938 -2.035156 1.714844 -1.835938 C 1.710938 -1.523438 1.828125 -1.265625 2.066406 -1.0625 C 2.296875 -0.851563 2.640625 -0.75 3.09375 -0.753906 C 3.539063 -0.75 3.933594 -0.847656 4.285156 -1.046875 C 4.628906 -1.238281 4.886719 -1.507813 5.054688 -1.851563 C 5.175781 -2.109375 5.238281 -2.496094 5.238281 -3.011719 Z M 5.238281 -3.433594 "/>
</symbol>
<symbol overflow="visible" id="glyph2-3">
<path style="stroke:none;" d="M 0.871094 0 L 0.871094 -6.84375 L 1.90625 -6.84375 L 1.90625 -5.882813 C 2.117188 -6.21875 2.40625 -6.488281 2.765625 -6.691406 C 3.121094 -6.894531 3.527344 -6.996094 3.984375 -7 C 4.488281 -6.996094 4.902344 -6.890625 5.230469 -6.683594 C 5.554688 -6.46875 5.785156 -6.175781 5.917969 -5.800781 C 6.457031 -6.597656 7.160156 -6.996094 8.03125 -7 C 8.707031 -6.996094 9.230469 -6.808594 9.597656 -6.433594 C 9.960938 -6.058594 10.140625 -5.480469 10.144531 -4.699219 L 10.144531 0 L 8.992188 0 L 8.992188 -4.3125 C 8.988281 -4.773438 8.949219 -5.105469 8.878906 -5.3125 C 8.800781 -5.515625 8.664063 -5.679688 8.46875 -5.804688 C 8.265625 -5.925781 8.035156 -5.988281 7.773438 -5.992188 C 7.289063 -5.988281 6.890625 -5.828125 6.574219 -5.511719 C 6.253906 -5.191406 6.09375 -4.679688 6.097656 -3.976563 L 6.097656 0 L 4.9375 0 L 4.9375 -4.445313 C 4.933594 -4.957031 4.839844 -5.34375 4.652344 -5.605469 C 4.464844 -5.859375 4.15625 -5.988281 3.726563 -5.992188 C 3.398438 -5.988281 3.09375 -5.902344 2.816406 -5.734375 C 2.539063 -5.558594 2.339844 -5.308594 2.214844 -4.980469 C 2.089844 -4.648438 2.027344 -4.171875 2.03125 -3.550781 L 2.03125 0 Z M 0.871094 0 "/>
</symbol>
<symbol overflow="visible" id="glyph2-4">
<path style="stroke:none;" d="M 0.871094 2.625 L 0.871094 -6.84375 L 1.925781 -6.84375 L 1.925781 -5.957031 C 2.171875 -6.300781 2.453125 -6.5625 2.769531 -6.738281 C 3.082031 -6.910156 3.464844 -6.996094 3.914063 -7 C 4.496094 -6.996094 5.007813 -6.84375 5.457031 -6.546875 C 5.902344 -6.242188 6.242188 -5.820313 6.46875 -5.273438 C 6.695313 -4.726563 6.808594 -4.125 6.8125 -3.472656 C 6.808594 -2.769531 6.683594 -2.140625 6.433594 -1.582031 C 6.183594 -1.019531 5.816406 -0.589844 5.339844 -0.292969 C 4.855469 0.00390625 4.351563 0.152344 3.828125 0.15625 C 3.4375 0.152344 3.09375 0.0742188 2.789063 -0.0898438 C 2.480469 -0.25 2.226563 -0.457031 2.03125 -0.710938 L 2.03125 2.625 Z M 1.921875 -3.382813 C 1.921875 -2.5 2.097656 -1.851563 2.457031 -1.429688 C 2.808594 -1.007813 3.242188 -0.796875 3.75 -0.800781 C 4.265625 -0.796875 4.707031 -1.015625 5.074219 -1.453125 C 5.441406 -1.890625 5.625 -2.566406 5.625 -3.480469 C 5.625 -4.351563 5.445313 -5.003906 5.085938 -5.4375 C 4.726563 -5.871094 4.296875 -6.085938 3.804688 -6.089844 C 3.304688 -6.085938 2.867188 -5.855469 2.492188 -5.394531 C 2.109375 -4.929688 1.921875 -4.257813 1.921875 -3.382813 Z M 1.921875 -3.382813 "/>
</symbol>
<symbol overflow="visible" id="glyph2-5">
<path style="stroke:none;" d="M 0.84375 0 L 0.84375 -9.449219 L 2.003906 -9.449219 L 2.003906 0 Z M 0.84375 0 "/>
</symbol>
<symbol overflow="visible" id="glyph2-6">
<path style="stroke:none;" d="M 5.554688 -2.203125 L 6.753906 -2.054688 C 6.5625 -1.351563 6.210938 -0.808594 5.703125 -0.421875 C 5.1875 -0.0390625 4.535156 0.152344 3.746094 0.15625 C 2.738281 0.152344 1.945313 -0.152344 1.363281 -0.769531 C 0.773438 -1.382813 0.480469 -2.25 0.484375 -3.363281 C 0.480469 -4.515625 0.777344 -5.410156 1.371094 -6.046875 C 1.964844 -6.679688 2.734375 -6.996094 3.679688 -7 C 4.59375 -6.996094 5.339844 -6.683594 5.921875 -6.0625 C 6.5 -5.4375 6.789063 -4.5625 6.792969 -3.433594 C 6.789063 -3.363281 6.789063 -3.257813 6.785156 -3.125 L 1.683594 -3.125 C 1.722656 -2.371094 1.9375 -1.796875 2.320313 -1.398438 C 2.703125 -0.996094 3.179688 -0.796875 3.75 -0.800781 C 4.175781 -0.796875 4.539063 -0.90625 4.839844 -1.132813 C 5.140625 -1.351563 5.378906 -1.710938 5.554688 -2.203125 Z M 1.746094 -4.078125 L 5.570313 -4.078125 C 5.515625 -4.65625 5.367188 -5.085938 5.128906 -5.375 C 4.757813 -5.820313 4.28125 -6.046875 3.691406 -6.046875 C 3.160156 -6.046875 2.710938 -5.867188 2.347656 -5.511719 C 1.984375 -5.152344 1.785156 -4.675781 1.746094 -4.078125 Z M 1.746094 -4.078125 "/>
</symbol>
<symbol overflow="visible" id="glyph2-7">
<path style="stroke:none;" d="M -0.199219 2.625 L -0.199219 1.785156 L 7.488281 1.785156 L 7.488281 2.625 Z M -0.199219 2.625 "/>
</symbol>
<symbol overflow="visible" id="glyph2-8">
<path style="stroke:none;" d="M 3.421875 0 L 3.421875 -8.332031 L 0.308594 -8.332031 L 0.308594 -9.449219 L 7.796875 -9.449219 L 7.796875 -8.332031 L 4.671875 -8.332031 L 4.671875 0 Z M 3.421875 0 "/>
</symbol>
<symbol overflow="visible" id="glyph2-9">
<path style="stroke:none;" d="M 0.820313 2.636719 L 0.691406 1.546875 C 0.941406 1.613281 1.160156 1.644531 1.351563 1.648438 C 1.609375 1.644531 1.816406 1.601563 1.972656 1.519531 C 2.125 1.429688 2.25 1.3125 2.351563 1.160156 C 2.421875 1.042969 2.542969 0.753906 2.707031 0.296875 C 2.726563 0.230469 2.757813 0.136719 2.808594 0.0117188 L 0.210938 -6.84375 L 1.464844 -6.84375 L 2.886719 -2.882813 C 3.070313 -2.375 3.234375 -1.84375 3.382813 -1.296875 C 3.511719 -1.824219 3.671875 -2.34375 3.859375 -2.855469 L 5.324219 -6.84375 L 6.484375 -6.84375 L 3.878906 0.117188 C 3.597656 0.867188 3.378906 1.382813 3.230469 1.667969 C 3.019531 2.046875 2.785156 2.328125 2.519531 2.507813 C 2.253906 2.6875 1.933594 2.777344 1.566406 2.777344 C 1.339844 2.777344 1.09375 2.730469 0.820313 2.636719 Z M 0.820313 2.636719 "/>
</symbol>
<symbol overflow="visible" id="glyph2-10">
<path style="stroke:none;" d="M 5.441406 -3.707031 L 5.441406 -4.816406 L 9.441406 -4.820313 L 9.441406 -1.316406 C 8.824219 -0.820313 8.191406 -0.449219 7.539063 -0.207031 C 6.886719 0.0390625 6.21875 0.15625 5.53125 0.160156 C 4.601563 0.15625 3.757813 -0.0390625 3 -0.433594 C 2.242188 -0.832031 1.667969 -1.40625 1.28125 -2.160156 C 0.894531 -2.910156 0.703125 -3.75 0.703125 -4.679688 C 0.703125 -5.597656 0.894531 -6.457031 1.277344 -7.253906 C 1.660156 -8.050781 2.210938 -8.640625 2.9375 -9.027344 C 3.65625 -9.414063 4.488281 -9.609375 5.433594 -9.609375 C 6.113281 -9.609375 6.730469 -9.496094 7.285156 -9.277344 C 7.832031 -9.050781 8.265625 -8.742188 8.582031 -8.351563 C 8.894531 -7.953125 9.132813 -7.4375 9.300781 -6.804688 L 8.171875 -6.496094 C 8.027344 -6.976563 7.851563 -7.355469 7.644531 -7.628906 C 7.429688 -7.902344 7.128906 -8.121094 6.742188 -8.289063 C 6.347656 -8.453125 5.914063 -8.535156 5.441406 -8.539063 C 4.867188 -8.535156 4.371094 -8.449219 3.957031 -8.277344 C 3.535156 -8.101563 3.199219 -7.875 2.949219 -7.59375 C 2.691406 -7.308594 2.492188 -6.996094 2.351563 -6.65625 C 2.109375 -6.070313 1.992188 -5.4375 1.992188 -4.757813 C 1.992188 -3.914063 2.136719 -3.207031 2.425781 -2.640625 C 2.714844 -2.074219 3.136719 -1.652344 3.691406 -1.378906 C 4.246094 -1.101563 4.835938 -0.964844 5.460938 -0.96875 C 6 -0.964844 6.527344 -1.070313 7.042969 -1.28125 C 7.558594 -1.488281 7.949219 -1.710938 8.21875 -1.945313 L 8.21875 -3.707031 Z M 5.441406 -3.707031 "/>
</symbol>
<symbol overflow="visible" id="glyph2-11">
<path style="stroke:none;" d="M 0.875 -8.113281 L 0.875 -9.449219 L 2.035156 -9.449219 L 2.035156 -8.113281 Z M 0.875 0 L 0.875 -6.84375 L 2.035156 -6.84375 L 2.035156 0 Z M 0.875 0 "/>
</symbol>
<symbol overflow="visible" id="glyph2-12">
<path style="stroke:none;" d="M 7.761719 -3.3125 L 9.011719 -2.996094 C 8.746094 -1.964844 8.273438 -1.183594 7.59375 -0.648438 C 6.914063 -0.109375 6.082031 0.15625 5.097656 0.160156 C 4.078125 0.15625 3.25 -0.046875 2.613281 -0.460938 C 1.972656 -0.871094 1.484375 -1.472656 1.15625 -2.261719 C 0.820313 -3.046875 0.65625 -3.890625 0.65625 -4.796875 C 0.65625 -5.777344 0.84375 -6.632813 1.21875 -7.367188 C 1.59375 -8.097656 2.128906 -8.65625 2.824219 -9.039063 C 3.519531 -9.417969 4.28125 -9.609375 5.117188 -9.609375 C 6.058594 -9.609375 6.855469 -9.367188 7.5 -8.886719 C 8.144531 -8.40625 8.59375 -7.730469 8.847656 -6.859375 L 7.617188 -6.566406 C 7.398438 -7.25 7.078125 -7.75 6.664063 -8.066406 C 6.242188 -8.378906 5.71875 -8.535156 5.09375 -8.539063 C 4.363281 -8.535156 3.757813 -8.363281 3.269531 -8.015625 C 2.78125 -7.667969 2.4375 -7.199219 2.242188 -6.613281 C 2.042969 -6.023438 1.945313 -5.417969 1.945313 -4.800781 C 1.945313 -3.996094 2.0625 -3.296875 2.296875 -2.695313 C 2.53125 -2.09375 2.894531 -1.644531 3.390625 -1.351563 C 3.882813 -1.054688 4.417969 -0.90625 4.996094 -0.910156 C 5.695313 -0.90625 6.289063 -1.109375 6.773438 -1.515625 C 7.257813 -1.917969 7.585938 -2.515625 7.761719 -3.3125 Z M 7.761719 -3.3125 "/>
</symbol>
<symbol overflow="visible" id="glyph2-13">
<path style="stroke:none;" d="M 0.4375 -3.421875 C 0.433594 -4.6875 0.785156 -5.625 1.496094 -6.238281 C 2.082031 -6.742188 2.800781 -6.996094 3.648438 -7 C 4.585938 -6.996094 5.355469 -6.6875 5.953125 -6.074219 C 6.550781 -5.453125 6.847656 -4.601563 6.851563 -3.519531 C 6.847656 -2.636719 6.714844 -1.945313 6.453125 -1.441406 C 6.1875 -0.933594 5.804688 -0.539063 5.300781 -0.261719 C 4.792969 0.015625 4.242188 0.152344 3.648438 0.15625 C 2.6875 0.152344 1.914063 -0.152344 1.324219 -0.765625 C 0.730469 -1.378906 0.433594 -2.265625 0.4375 -3.421875 Z M 1.628906 -3.421875 C 1.628906 -2.546875 1.820313 -1.890625 2.203125 -1.453125 C 2.585938 -1.015625 3.066406 -0.796875 3.648438 -0.800781 C 4.222656 -0.796875 4.703125 -1.015625 5.085938 -1.457031 C 5.46875 -1.890625 5.660156 -2.558594 5.660156 -3.460938 C 5.660156 -4.304688 5.464844 -4.945313 5.082031 -5.382813 C 4.691406 -5.816406 4.214844 -6.035156 3.648438 -6.039063 C 3.066406 -6.035156 2.585938 -5.816406 2.203125 -5.386719 C 1.820313 -4.949219 1.628906 -4.296875 1.628906 -3.421875 Z M 1.628906 -3.421875 "/>
</symbol>
<symbol overflow="visible" id="glyph2-14">
<path style="stroke:none;" d="M 0.871094 0 L 0.871094 -6.84375 L 1.914063 -6.84375 L 1.914063 -5.871094 C 2.414063 -6.621094 3.140625 -6.996094 4.09375 -7 C 4.503906 -6.996094 4.882813 -6.921875 5.230469 -6.777344 C 5.574219 -6.625 5.832031 -6.429688 6.007813 -6.191406 C 6.175781 -5.949219 6.296875 -5.664063 6.367188 -5.335938 C 6.410156 -5.121094 6.433594 -4.746094 6.433594 -4.207031 L 6.433594 0 L 5.273438 0 L 5.273438 -4.164063 C 5.273438 -4.632813 5.226563 -4.984375 5.136719 -5.222656 C 5.042969 -5.453125 4.882813 -5.640625 4.65625 -5.78125 C 4.425781 -5.917969 4.15625 -5.988281 3.847656 -5.992188 C 3.351563 -5.988281 2.925781 -5.832031 2.566406 -5.523438 C 2.207031 -5.207031 2.027344 -4.613281 2.03125 -3.738281 L 2.03125 0 Z M 0.871094 0 "/>
</symbol>
<symbol overflow="visible" id="glyph2-15">
<path style="stroke:none;" d="M 5.3125 0 L 5.3125 -0.863281 C 4.875 -0.183594 4.238281 0.152344 3.398438 0.15625 C 2.851563 0.152344 2.347656 0.00390625 1.890625 -0.292969 C 1.433594 -0.59375 1.078125 -1.011719 0.828125 -1.554688 C 0.574219 -2.09375 0.449219 -2.714844 0.453125 -3.414063 C 0.449219 -4.097656 0.5625 -4.71875 0.792969 -5.273438 C 1.015625 -5.828125 1.359375 -6.253906 1.816406 -6.554688 C 2.269531 -6.847656 2.777344 -6.996094 3.34375 -7 C 3.753906 -6.996094 4.121094 -6.910156 4.445313 -6.738281 C 4.765625 -6.5625 5.027344 -6.335938 5.234375 -6.058594 L 5.234375 -9.449219 L 6.386719 -9.449219 L 6.386719 0 Z M 1.644531 -3.414063 C 1.640625 -2.535156 1.824219 -1.878906 2.199219 -1.449219 C 2.566406 -1.011719 3.003906 -0.796875 3.507813 -0.800781 C 4.011719 -0.796875 4.441406 -1.003906 4.796875 -1.421875 C 5.152344 -1.832031 5.332031 -2.464844 5.332031 -3.320313 C 5.332031 -4.253906 5.148438 -4.941406 4.789063 -5.378906 C 4.421875 -5.816406 3.976563 -6.035156 3.453125 -6.039063 C 2.933594 -6.035156 2.503906 -5.824219 2.160156 -5.40625 C 1.8125 -4.984375 1.640625 -4.320313 1.644531 -3.414063 Z M 1.644531 -3.414063 "/>
</symbol>
<symbol overflow="visible" id="glyph2-16">
<path style="stroke:none;" d="M 3.402344 -1.039063 L 3.570313 -0.0117188 C 3.242188 0.0546875 2.953125 0.0859375 2.695313 0.0898438 C 2.273438 0.0859375 1.945313 0.0234375 1.714844 -0.109375 C 1.480469 -0.238281 1.316406 -0.414063 1.222656 -0.632813 C 1.125 -0.851563 1.078125 -1.308594 1.082031 -2.003906 L 1.082031 -5.941406 L 0.230469 -5.941406 L 0.230469 -6.84375 L 1.082031 -6.84375 L 1.082031 -8.539063 L 2.238281 -9.234375 L 2.238281 -6.84375 L 3.402344 -6.84375 L 3.402344 -5.941406 L 2.238281 -5.941406 L 2.238281 -1.941406 C 2.238281 -1.605469 2.257813 -1.394531 2.296875 -1.300781 C 2.335938 -1.207031 2.402344 -1.128906 2.496094 -1.074219 C 2.589844 -1.015625 2.722656 -0.988281 2.894531 -0.992188 C 3.019531 -0.988281 3.1875 -1.003906 3.402344 -1.039063 Z M 3.402344 -1.039063 "/>
</symbol>
<symbol overflow="visible" id="glyph2-17">
<path style="stroke:none;" d="M 2.667969 0 L 0.160156 -9.449219 L 1.445313 -9.449219 L 2.882813 -3.253906 C 3.035156 -2.601563 3.167969 -1.957031 3.28125 -1.320313 C 3.519531 -2.328125 3.660156 -2.910156 3.707031 -3.066406 L 5.503906 -9.449219 L 7.011719 -9.449219 L 8.367188 -4.667969 C 8.703125 -3.476563 8.945313 -2.359375 9.101563 -1.320313 C 9.21875 -1.914063 9.375 -2.601563 9.570313 -3.378906 L 11.054688 -9.449219 L 12.3125 -9.449219 L 9.71875 0 L 8.515625 0 L 6.523438 -7.199219 C 6.351563 -7.796875 6.253906 -8.167969 6.226563 -8.308594 C 6.125 -7.871094 6.03125 -7.5 5.949219 -7.199219 L 3.945313 0 Z M 2.667969 0 "/>
</symbol>
<symbol overflow="visible" id="glyph2-18">
<path style="stroke:none;" d="M 0.875 0 L 0.875 -9.449219 L 2.035156 -9.449219 L 2.035156 -4.0625 L 4.78125 -6.84375 L 6.285156 -6.84375 L 3.667969 -4.304688 L 6.546875 0 L 5.117188 0 L 2.855469 -3.5 L 2.035156 -2.714844 L 2.035156 0 Z M 0.875 0 "/>
</symbol>
<symbol overflow="visible" id="glyph2-19">
<path style="stroke:none;" d="M 0.65625 0.566406 L 1.785156 0.734375 C 1.828125 1.078125 1.960938 1.332031 2.179688 1.496094 C 2.464844 1.707031 2.855469 1.816406 3.359375 1.816406 C 3.890625 1.816406 4.304688 1.707031 4.601563 1.492188 C 4.890625 1.277344 5.089844 0.976563 5.195313 0.59375 C 5.253906 0.351563 5.28125 -0.140625 5.277344 -0.894531 C 4.769531 -0.296875 4.136719 0 3.382813 0 C 2.4375 0 1.710938 -0.335938 1.199219 -1.015625 C 0.679688 -1.691406 0.421875 -2.507813 0.425781 -3.460938 C 0.421875 -4.113281 0.539063 -4.714844 0.777344 -5.269531 C 1.011719 -5.816406 1.355469 -6.242188 1.804688 -6.546875 C 2.253906 -6.84375 2.78125 -6.996094 3.390625 -7 C 4.195313 -6.996094 4.859375 -6.667969 5.386719 -6.019531 L 5.386719 -6.84375 L 6.457031 -6.84375 L 6.457031 -0.929688 C 6.457031 0.136719 6.347656 0.890625 6.132813 1.335938 C 5.914063 1.78125 5.570313 2.132813 5.101563 2.390625 C 4.628906 2.648438 4.050781 2.777344 3.363281 2.777344 C 2.546875 2.777344 1.886719 2.59375 1.386719 2.226563 C 0.882813 1.859375 0.640625 1.304688 0.65625 0.566406 Z M 1.617188 -3.546875 C 1.617188 -2.644531 1.792969 -1.988281 2.152344 -1.578125 C 2.503906 -1.164063 2.953125 -0.960938 3.492188 -0.960938 C 4.023438 -0.960938 4.46875 -1.164063 4.832031 -1.574219 C 5.191406 -1.984375 5.371094 -2.628906 5.375 -3.507813 C 5.371094 -4.339844 5.1875 -4.96875 4.816406 -5.398438 C 4.445313 -5.820313 3.996094 -6.035156 3.472656 -6.039063 C 2.953125 -6.035156 2.515625 -5.824219 2.15625 -5.410156 C 1.796875 -4.988281 1.617188 -4.367188 1.617188 -3.546875 Z M 1.617188 -3.546875 "/>
</symbol>
<symbol overflow="visible" id="glyph2-20">
<path style="stroke:none;" d="M 5.355469 0 L 5.355469 -1.003906 C 4.824219 -0.230469 4.097656 0.152344 3.183594 0.15625 C 2.777344 0.152344 2.402344 0.078125 2.050781 -0.0742188 C 1.699219 -0.226563 1.4375 -0.421875 1.273438 -0.660156 C 1.101563 -0.890625 0.984375 -1.175781 0.914063 -1.519531 C 0.867188 -1.746094 0.84375 -2.109375 0.84375 -2.605469 L 0.84375 -6.84375 L 2.003906 -6.84375 L 2.003906 -3.046875 C 2.003906 -2.441406 2.027344 -2.03125 2.074219 -1.824219 C 2.144531 -1.515625 2.296875 -1.277344 2.539063 -1.105469 C 2.773438 -0.929688 3.066406 -0.84375 3.414063 -0.84375 C 3.761719 -0.84375 4.089844 -0.929688 4.394531 -1.109375 C 4.699219 -1.285156 4.914063 -1.53125 5.042969 -1.839844 C 5.167969 -2.144531 5.230469 -2.589844 5.234375 -3.175781 L 5.234375 -6.84375 L 6.394531 -6.84375 L 6.394531 0 Z M 5.355469 0 "/>
</symbol>
<symbol overflow="visible" id="glyph2-21">
<path style="stroke:none;" d="M 0.0976563 0 L 2.597656 -3.558594 L 0.285156 -6.84375 L 1.734375 -6.84375 L 2.785156 -5.238281 C 2.980469 -4.933594 3.140625 -4.675781 3.261719 -4.472656 C 3.449219 -4.753906 3.625 -5.007813 3.785156 -5.226563 L 4.9375 -6.84375 L 6.324219 -6.84375 L 3.957031 -3.621094 L 6.503906 0 L 5.078125 0 L 3.671875 -2.125 L 3.300781 -2.699219 L 1.5 0 Z M 0.0976563 0 "/>
</symbol>
<symbol overflow="visible" id="glyph2-22">
<path style="stroke:none;" d=""/>
</symbol>
<symbol overflow="visible" id="glyph2-23">
<path style="stroke:none;" d="M 3.085938 2.777344 C 2.441406 1.96875 1.898438 1.023438 1.460938 -0.0585938 C 1.015625 -1.140625 0.796875 -2.261719 0.800781 -3.421875 C 0.796875 -4.445313 0.960938 -5.425781 1.296875 -6.363281 C 1.679688 -7.449219 2.277344 -8.53125 3.085938 -9.609375 L 3.917969 -9.609375 C 3.398438 -8.714844 3.054688 -8.074219 2.886719 -7.695313 C 2.625 -7.097656 2.417969 -6.480469 2.269531 -5.839844 C 2.082031 -5.03125 1.992188 -4.222656 1.992188 -3.414063 C 1.992188 -1.347656 2.632813 0.714844 3.917969 2.777344 Z M 3.085938 2.777344 "/>
</symbol>
<symbol overflow="visible" id="glyph2-24">
<path style="stroke:none;" d="M 1.003906 0 L 1.003906 -9.449219 L 2.289063 -9.449219 L 7.25 -2.03125 L 7.25 -9.449219 L 8.449219 -9.449219 L 8.449219 0 L 7.167969 0 L 2.203125 -7.425781 L 2.203125 0 Z M 1.003906 0 "/>
</symbol>
<symbol overflow="visible" id="glyph2-25">
<path style="stroke:none;" d="M 1.082031 0 L 1.082031 -9.449219 L 7.457031 -9.449219 L 7.457031 -8.332031 L 2.332031 -8.332031 L 2.332031 -5.40625 L 6.765625 -5.40625 L 6.765625 -4.292969 L 2.332031 -4.292969 L 2.332031 0 Z M 1.082031 0 "/>
</symbol>
<symbol overflow="visible" id="glyph2-26">
<path style="stroke:none;" d="M -0.0195313 0 L 3.609375 -9.449219 L 4.957031 -9.449219 L 8.824219 0 L 7.398438 0 L 6.296875 -2.863281 L 2.347656 -2.863281 L 1.308594 0 Z M 2.707031 -3.878906 L 5.910156 -3.878906 L 4.925781 -6.496094 C 4.621094 -7.289063 4.398438 -7.941406 4.253906 -8.457031 C 4.132813 -7.847656 3.960938 -7.246094 3.746094 -6.652344 Z M 2.707031 -3.878906 "/>
</symbol>
<symbol overflow="visible" id="glyph2-27">
<path style="stroke:none;" d="M 1.628906 2.777344 L 0.800781 2.777344 C 2.082031 0.714844 2.722656 -1.347656 2.726563 -3.414063 C 2.722656 -4.222656 2.632813 -5.023438 2.449219 -5.820313 C 2.300781 -6.460938 2.09375 -7.082031 1.835938 -7.675781 C 1.664063 -8.0625 1.320313 -8.707031 0.800781 -9.609375 L 1.628906 -9.609375 C 2.4375 -8.53125 3.035156 -7.449219 3.421875 -6.363281 C 3.75 -5.425781 3.914063 -4.445313 3.917969 -3.421875 C 3.914063 -2.261719 3.691406 -1.140625 3.25 -0.0585938 C 2.804688 1.023438 2.265625 1.96875 1.628906 2.777344 Z M 1.628906 2.777344 "/>
</symbol>
</g>
</defs>
<g id="surface146">
<rect x="0" y="0" width="720" height="360" style="fill:rgb(100%,100%,100%);fill-opacity:1;stroke:none;"/>
<path style=" stroke:none;fill-rule:nonzero;fill:rgb(65.098039%,80.784314%,89.019608%);fill-opacity:0.501961;" d="M 156.25 188.851563 L 156.25 63.851563 L 151.703125 63.933594 L 147.160156 64.183594 L 142.628906 64.597656 L 138.113281 65.175781 L 133.625 65.917969 L 129.164063 66.820313 L 124.742188 67.886719 L 120.359375 69.117188 L 116.027344 70.5 L 111.746094 72.042969 L 107.523438 73.742188 L 103.367188 75.589844 L 99.28125 77.589844 L 105.175781 89.097656 L 107.140625 92.9375 L 109.101563 96.773438 L 114.996094 108.28125 L 116.960938 112.121094 L 124.820313 127.464844 L 126.785156 131.304688 L 128.75 135.140625 L 130.710938 138.976563 L 134.640625 146.648438 L 136.605469 150.488281 L 146.429688 169.667969 L 148.394531 173.507813 L 150.355469 177.34375 Z M 156.25 188.851563 "/>
<path style=" stroke:none;fill-rule:nonzero;fill:rgb(12.156863%,47.058824%,70.588235%);fill-opacity:0.501961;" d="M 156.25 188.851563 L 150.355469 177.34375 L 148.394531 173.507813 L 146.429688 169.667969 L 136.605469 150.488281 L 134.640625 146.648438 L 130.710938 138.976563 L 128.75 135.140625 L 126.785156 131.304688 L 124.820313 127.464844 L 116.960938 112.121094 L 114.996094 108.28125 L 109.101563 96.773438 L 107.140625 92.9375 L 105.175781 89.097656 L 99.28125 77.589844 L 95.484375 79.617188 L 91.757813 81.773438 L 88.109375 84.058594 L 84.542969 86.464844 L 81.058594 88.996094 L 77.667969 91.644531 L 74.367188 94.40625 L 71.164063 97.28125 L 68.058594 100.265625 L 65.0625 103.355469 L 62.171875 106.546875 L 59.394531 109.832031 L 56.730469 113.214844 L 54.1875 116.6875 L 51.761719 120.242188 L 49.460938 123.882813 L 47.289063 127.597656 L 45.242188 131.386719 L 43.332031 135.242188 L 41.550781 139.160156 L 39.910156 143.140625 L 43.921875 144.714844 L 47.933594 146.292969 L 51.945313 147.867188 L 55.957031 149.445313 L 59.96875 151.019531 L 63.980469 152.597656 L 67.992188 154.171875 L 76.015625 157.328125 L 80.027344 158.902344 L 84.039063 160.480469 L 88.050781 162.054688 L 92.0625 163.632813 L 96.074219 165.207031 L 100.085938 166.785156 L 104.097656 168.359375 L 108.109375 169.9375 L 112.121094 171.511719 L 120.144531 174.667969 L 124.15625 176.242188 L 128.167969 177.820313 L 132.179688 179.394531 L 136.191406 180.972656 L 140.203125 182.546875 L 144.214844 184.125 L 148.226563 185.699219 L 152.238281 187.277344 Z M 156.25 188.851563 "/>
<path style=" stroke:none;fill-rule:nonzero;fill:rgb(69.803922%,87.45098%,54.117647%);fill-opacity:0.501961;" d="M 156.25 188.851563 L 152.238281 187.277344 L 148.226563 185.699219 L 144.214844 184.125 L 140.203125 182.546875 L 136.191406 180.972656 L 132.179688 179.394531 L 128.167969 177.820313 L 124.15625 176.242188 L 120.144531 174.667969 L 112.121094 171.511719 L 108.109375 169.9375 L 104.097656 168.359375 L 100.085938 166.785156 L 96.074219 165.207031 L 92.0625 163.632813 L 88.050781 162.054688 L 84.039063 160.480469 L 80.027344 158.902344 L 76.015625 157.328125 L 67.992188 154.171875 L 63.980469 152.597656 L 59.96875 151.019531 L 55.957031 149.445313 L 51.945313 147.867188 L 47.933594 146.292969 L 43.921875 144.714844 L 39.910156 143.140625 L 38.054688 148.179688 L 36.414063 153.292969 L 40.546875 154.519531 L 44.679688 155.742188 L 57.078125 159.421875 L 61.207031 160.648438 L 86.003906 168.007813 L 90.132813 169.234375 L 94.265625 170.460938 L 98.398438 171.683594 L 114.929688 176.589844 L 119.058594 177.816406 L 147.988281 186.402344 L 152.117188 187.625 Z M 156.25 188.851563 "/>
<path style=" stroke:none;fill-rule:nonzero;fill:rgb(55.294118%,82.745098%,78.039216%);fill-opacity:0.501961;" d="M 156.25 188.851563 L 152.117188 187.625 L 147.988281 186.402344 L 119.058594 177.816406 L 114.929688 176.589844 L 98.398438 171.683594 L 94.265625 170.460938 L 90.132813 169.234375 L 86.003906 168.007813 L 61.207031 160.648438 L 57.078125 159.421875 L 44.679688 155.742188 L 40.546875 154.519531 L 36.414063 153.292969 L 35.277344 157.386719 L 34.277344 161.519531 L 33.417969 165.679688 L 32.699219 169.871094 L 32.125 174.082031 L 31.695313 178.308594 L 31.410156 182.550781 L 31.265625 186.800781 L 31.269531 191.050781 L 31.417969 195.296875 L 31.707031 199.539063 L 32.144531 203.765625 L 32.722656 207.976563 L 33.445313 212.167969 L 34.308594 216.328125 L 35.3125 220.457031 L 36.457031 224.550781 L 37.738281 228.605469 L 39.160156 232.609375 L 40.714844 236.566406 L 42.402344 240.46875 L 44.222656 244.308594 L 46.175781 248.085938 L 48.253906 251.792969 L 50.453125 255.429688 L 52.777344 258.988281 L 55.222656 262.464844 L 57.785156 265.855469 L 60.460938 269.160156 L 63.246094 272.371094 L 66.140625 275.484375 L 69.136719 278.496094 L 72.234375 281.40625 L 75.429688 284.210938 L 78.71875 286.902344 L 82.097656 289.484375 L 85.5625 291.945313 L 89.105469 294.289063 L 92.730469 296.511719 L 96.429688 298.609375 L 100.195313 300.578125 L 104.023438 302.421875 L 107.917969 304.132813 L 111.863281 305.707031 L 115.863281 307.148438 L 119.90625 308.453125 L 123.996094 309.621094 L 128.121094 310.648438 L 132.277344 311.535156 L 136.460938 312.277344 L 140.667969 312.878906 L 144.894531 313.335938 L 149.132813 313.652344 L 153.382813 313.820313 L 157.632813 313.847656 L 157.585938 309.535156 L 157.535156 305.226563 L 157.488281 300.914063 L 157.394531 292.296875 L 157.347656 287.984375 L 157.296875 283.675781 L 157.25 279.367188 L 157.203125 275.054688 L 157.15625 270.746094 L 157.109375 266.433594 L 157.058594 262.125 L 157.011719 257.816406 L 156.964844 253.503906 L 156.917969 249.195313 L 156.871094 244.882813 L 156.824219 240.574219 L 156.773438 236.265625 L 156.726563 231.953125 L 156.679688 227.644531 L 156.632813 223.332031 L 156.585938 219.023438 L 156.535156 214.714844 L 156.488281 210.402344 L 156.394531 201.785156 L 156.347656 197.472656 L 156.296875 193.164063 Z M 156.25 188.851563 "/>
<path style=" stroke:none;fill-rule:nonzero;fill:rgb(98.431373%,60.392157%,60%);fill-opacity:0.501961;" d="M 156.25 188.851563 L 156.296875 193.164063 L 156.347656 197.472656 L 156.394531 201.785156 L 156.488281 210.402344 L 156.535156 214.714844 L 156.585938 219.023438 L 156.632813 223.332031 L 156.679688 227.644531 L 156.726563 231.953125 L 156.773438 236.265625 L 156.824219 240.574219 L 156.871094 244.882813 L 156.917969 249.195313 L 156.964844 253.503906 L 157.011719 257.816406 L 157.058594 262.125 L 157.109375 266.433594 L 157.15625 270.746094 L 157.203125 275.054688 L 157.25 279.367188 L 157.296875 283.675781 L 157.347656 287.984375 L 157.394531 292.296875 L 157.488281 300.914063 L 157.535156 305.226563 L 157.585938 309.535156 L 157.632813 313.847656 L 161.9375 313.722656 L 166.234375 313.453125 L 170.519531 313.035156 L 174.789063 312.472656 L 179.035156 311.761719 L 183.253906 310.902344 L 187.441406 309.898438 L 191.59375 308.753906 L 195.703125 307.464844 L 199.761719 306.035156 L 203.773438 304.46875 L 207.726563 302.761719 L 211.621094 300.921875 L 215.449219 298.949219 L 219.203125 296.84375 L 222.886719 294.613281 L 226.488281 292.253906 L 230.007813 289.773438 L 233.441406 287.171875 L 236.78125 284.457031 L 240.027344 281.625 L 243.171875 278.683594 L 246.214844 275.636719 L 249.152344 272.488281 L 251.976563 269.238281 L 254.6875 265.894531 L 257.28125 262.457031 L 259.757813 258.933594 L 256.1875 256.519531 L 252.621094 254.101563 L 249.050781 251.683594 L 245.480469 249.269531 L 241.914063 246.851563 L 238.34375 244.433594 L 234.773438 242.019531 L 231.203125 239.601563 L 227.636719 237.183594 L 224.066406 234.769531 L 216.925781 229.933594 L 213.359375 227.519531 L 206.21875 222.683594 L 202.652344 220.269531 L 199.082031 217.851563 L 195.511719 215.4375 L 191.941406 213.019531 L 188.375 210.601563 L 184.804688 208.1875 L 181.234375 205.769531 L 177.667969 203.351563 L 174.097656 200.9375 L 166.957031 196.101563 L 163.390625 193.6875 Z M 156.25 188.851563 "/>
<path style=" stroke:none;fill-rule:nonzero;fill:rgb(89.019608%,10.196078%,10.980392%);fill-opacity:0.501961;" d="M 156.25 188.851563 L 163.390625 193.6875 L 166.957031 196.101563 L 174.097656 200.9375 L 177.667969 203.351563 L 181.234375 205.769531 L 184.804688 208.1875 L 188.375 210.601563 L 191.941406 213.019531 L 195.511719 215.4375 L 199.082031 217.851563 L 202.652344 220.269531 L 206.21875 222.683594 L 213.359375 227.519531 L 216.925781 229.933594 L 224.066406 234.769531 L 227.636719 237.183594 L 231.203125 239.601563 L 234.773438 242.019531 L 238.34375 244.433594 L 241.914063 246.851563 L 245.480469 249.269531 L 249.050781 251.683594 L 252.621094 254.101563 L 256.1875 256.519531 L 259.757813 258.933594 L 262.144531 255.269531 L 264.40625 251.527344 L 266.53125 247.703125 L 268.523438 243.808594 L 260.78125 240.019531 L 256.90625 238.125 L 245.292969 232.441406 L 241.421875 230.542969 L 218.195313 219.175781 L 214.324219 217.277344 L 210.449219 215.382813 L 187.222656 204.015625 L 183.351563 202.117188 L 171.738281 196.433594 L 167.863281 194.539063 L 160.121094 190.75 Z M 156.25 188.851563 "/>
<path style=" stroke:none;fill-rule:nonzero;fill:rgb(99.215686%,74.901961%,43.529412%);fill-opacity:0.501961;" d="M 156.25 188.851563 L 160.121094 190.75 L 167.863281 194.539063 L 171.738281 196.433594 L 183.351563 202.117188 L 187.222656 204.015625 L 210.449219 215.382813 L 214.324219 217.277344 L 218.195313 219.175781 L 241.421875 230.542969 L 245.292969 232.441406 L 256.90625 238.125 L 260.78125 240.019531 L 268.523438 243.808594 L 270.808594 238.875 L 266.855469 237.148438 L 262.90625 235.425781 L 255.007813 231.972656 L 251.054688 230.25 L 247.105469 228.523438 L 243.15625 226.800781 L 239.207031 225.074219 L 235.253906 223.351563 L 227.355469 219.898438 L 223.40625 218.175781 L 219.453125 216.449219 L 215.503906 214.726563 L 211.554688 213 L 207.605469 211.277344 L 203.652344 209.550781 L 199.703125 207.828125 L 191.804688 204.375 L 187.851563 202.652344 L 183.902344 200.925781 L 179.953125 199.203125 L 176 197.476563 L 172.050781 195.753906 L 168.101563 194.027344 L 164.152344 192.304688 L 160.199219 190.578125 Z M 156.25 188.851563 "/>
<path style=" stroke:none;fill-rule:nonzero;fill:rgb(100%,49.803922%,0%);fill-opacity:0.501961;" d="M 156.25 188.851563 L 160.199219 190.578125 L 164.152344 192.304688 L 168.101563 194.027344 L 172.050781 195.753906 L 176 197.476563 L 179.953125 199.203125 L 183.902344 200.925781 L 187.851563 202.652344 L 191.804688 204.375 L 199.703125 207.828125 L 203.652344 209.550781 L 207.605469 211.277344 L 211.554688 213 L 215.503906 214.726563 L 219.453125 216.449219 L 223.40625 218.175781 L 227.355469 219.898438 L 235.253906 223.351563 L 239.207031 225.074219 L 243.15625 226.800781 L 247.105469 228.523438 L 251.054688 230.25 L 255.007813 231.972656 L 262.90625 235.425781 L 266.855469 237.148438 L 270.808594 238.875 L 272.773438 234.109375 L 268.753906 232.546875 L 264.734375 230.988281 L 260.71875 229.425781 L 256.699219 227.867188 L 252.683594 226.304688 L 248.664063 224.746094 L 244.644531 223.183594 L 240.628906 221.625 L 236.609375 220.0625 L 232.59375 218.503906 L 228.574219 216.941406 L 224.554688 215.382813 L 220.539063 213.820313 L 216.519531 212.261719 L 212.503906 210.699219 L 208.484375 209.140625 L 204.464844 207.578125 L 200.449219 206.019531 L 196.429688 204.457031 L 192.414063 202.898438 L 188.394531 201.335938 L 184.375 199.777344 L 180.359375 198.214844 L 176.339844 196.65625 L 172.324219 195.09375 L 168.304688 193.535156 L 164.285156 191.972656 L 160.269531 190.414063 Z M 156.25 188.851563 "/>
<path style=" stroke:none;fill-rule:nonzero;fill:rgb(50.196078%,50.196078%,50.196078%);fill-opacity:0.501961;" d="M 156.25 188.851563 L 160.269531 190.414063 L 164.285156 191.972656 L 168.304688 193.535156 L 172.324219 195.09375 L 176.339844 196.65625 L 180.359375 198.214844 L 184.375 199.777344 L 188.394531 201.335938 L 192.414063 202.898438 L 196.429688 204.457031 L 200.449219 206.019531 L 204.464844 207.578125 L 208.484375 209.140625 L 212.503906 210.699219 L 216.519531 212.261719 L 220.539063 213.820313 L 224.554688 215.382813 L 228.574219 216.941406 L 232.59375 218.503906 L 236.609375 220.0625 L 240.628906 221.625 L 244.644531 223.183594 L 248.664063 224.746094 L 252.683594 226.304688 L 256.699219 227.867188 L 260.71875 229.425781 L 264.734375 230.988281 L 268.753906 232.546875 L 272.773438 234.109375 L 274.246094 230.109375 L 275.585938 226.066406 L 276.78125 221.976563 L 277.84375 217.847656 L 278.757813 213.6875 L 279.535156 209.5 L 280.167969 205.285156 L 280.65625 201.054688 L 281 196.804688 L 281.195313 192.550781 L 281.25 188.289063 L 281.160156 184.03125 L 280.921875 179.777344 L 280.539063 175.53125 L 280.011719 171.304688 L 279.34375 167.097656 L 278.53125 162.914063 L 277.574219 158.761719 L 276.480469 154.644531 L 275.242188 150.566406 L 273.871094 146.535156 L 272.359375 142.550781 L 270.714844 138.621094 L 268.9375 134.75 L 267.027344 130.941406 L 264.988281 127.199219 L 262.824219 123.527344 L 260.535156 119.933594 L 258.125 116.421875 L 255.597656 112.992188 L 252.171875 115.605469 L 245.320313 120.839844 L 241.894531 123.453125 L 235.042969 128.6875 L 231.617188 131.300781 L 224.765625 136.535156 L 221.339844 139.148438 L 214.488281 144.382813 L 211.0625 146.996094 L 204.210938 152.230469 L 200.785156 154.84375 L 190.507813 162.695313 L 187.082031 165.308594 L 180.230469 170.542969 L 176.804688 173.15625 L 169.953125 178.390625 L 166.527344 181.003906 L 159.675781 186.238281 Z M 156.25 188.851563 "/>
<path style=" stroke:none;fill-rule:nonzero;fill:rgb(79.215686%,69.803922%,83.921569%);fill-opacity:0.501961;" d="M 156.25 188.851563 L 159.675781 186.238281 L 166.527344 181.003906 L 169.953125 178.390625 L 176.804688 173.15625 L 180.230469 170.542969 L 187.082031 165.308594 L 190.507813 162.695313 L 200.785156 154.84375 L 204.210938 152.230469 L 211.0625 146.996094 L 214.488281 144.382813 L 221.339844 139.148438 L 224.765625 136.535156 L 231.617188 131.300781 L 235.042969 128.6875 L 241.894531 123.453125 L 245.320313 120.839844 L 252.171875 115.605469 L 255.597656 112.992188 L 252.796875 109.453125 L 249.867188 106.019531 L 246.816406 102.695313 L 243.648438 99.484375 L 240.367188 96.386719 L 236.972656 93.410156 L 233.476563 90.558594 L 229.878906 87.835938 L 226.183594 85.246094 L 223.773438 88.816406 L 221.359375 92.390625 L 218.949219 95.964844 L 216.539063 99.535156 L 214.125 103.109375 L 211.714844 106.679688 L 209.304688 110.253906 L 206.890625 113.828125 L 204.480469 117.398438 L 202.070313 120.972656 L 199.65625 124.542969 L 194.835938 131.691406 L 192.421875 135.261719 L 187.601563 142.410156 L 185.1875 145.980469 L 182.777344 149.554688 L 180.367188 153.125 L 177.953125 156.699219 L 175.542969 160.273438 L 173.132813 163.84375 L 170.71875 167.417969 L 168.308594 170.988281 L 165.898438 174.5625 L 163.484375 178.136719 L 161.074219 181.707031 L 158.664063 185.28125 Z M 156.25 188.851563 "/>
<path style=" stroke:none;fill-rule:nonzero;fill:rgb(41.568627%,23.921569%,60.392157%);fill-opacity:0.501961;" d="M 156.25 188.851563 L 158.664063 185.28125 L 161.074219 181.707031 L 163.484375 178.136719 L 165.898438 174.5625 L 168.308594 170.988281 L 170.71875 167.417969 L 173.132813 163.84375 L 175.542969 160.273438 L 177.953125 156.699219 L 180.367188 153.125 L 182.777344 149.554688 L 185.1875 145.980469 L 187.601563 142.410156 L 192.421875 135.261719 L 194.835938 131.691406 L 199.65625 124.542969 L 202.070313 120.972656 L 204.480469 117.398438 L 206.890625 113.828125 L 209.304688 110.253906 L 211.714844 106.679688 L 214.125 103.109375 L 216.539063 99.535156 L 218.949219 95.964844 L 221.359375 92.390625 L 223.773438 88.816406 L 226.183594 85.246094 L 222.523438 82.867188 L 218.78125 80.617188 L 214.964844 78.5 L 211.074219 76.515625 L 207.121094 74.671875 L 203.101563 72.964844 L 199.027344 71.398438 L 194.898438 69.976563 L 190.722656 68.699219 L 186.507813 67.570313 L 182.253906 66.585938 L 177.96875 65.753906 L 173.65625 65.070313 L 169.324219 64.539063 L 164.976563 64.15625 L 160.617188 63.929688 L 156.25 63.851563 Z M 156.25 188.851563 "/>
<g style="fill:rgb(0%,0%,0%);fill-opacity:1;">
  <use xlink:href="#glyph0-1" x="318.171875" y="95.011719"/>
  <use xlink:href="#glyph0-2" x="321.228027" y="95.011719"/>
  <use xlink:href="#glyph0-3" x="326.728027" y="95.011719"/>
  <use xlink:href="#glyph0-4" x="332.845703" y="95.011719"/>
</g>
<path style=" stroke:none;fill-rule:nonzero;fill:rgb(65.098039%,80.784314%,89.019608%);fill-opacity:0.501961;" d="M 318.878906 118.21875 L 334.742188 118.21875 L 334.742188 102.355469 L 318.878906 102.355469 Z M 318.878906 118.21875 "/>
<path style=" stroke:none;fill-rule:nonzero;fill:rgb(12.156863%,47.058824%,70.588235%);fill-opacity:0.501961;" d="M 318.878906 135.5 L 334.742188 135.5 L 334.742188 119.636719 L 318.878906 119.636719 Z M 318.878906 135.5 "/>
<path style=" stroke:none;fill-rule:nonzero;fill:rgb(69.803922%,87.45098%,54.117647%);fill-opacity:0.501961;" d="M 318.878906 152.777344 L 334.742188 152.777344 L 334.742188 136.914063 L 318.878906 136.914063 Z M 318.878906 152.777344 "/>
<path style=" stroke:none;fill-rule:nonzero;fill:rgb(55.294118%,82.745098%,78.039216%);fill-opacity:0.501961;" d="M 318.878906 170.058594 L 334.742188 170.058594 L 334.742188 154.195313 L 318.878906 154.195313 Z M 318.878906 170.058594 "/>
<path style=" stroke:none;fill-rule:nonzero;fill:rgb(98.431373%,60.392157%,60%);fill-opacity:0.501961;" d="M 318.878906 187.339844 L 334.742188 187.339844 L 334.742188 171.476563 L 318.878906 171.476563 Z M 318.878906 187.339844 "/>
<path style=" stroke:none;fill-rule:nonzero;fill:rgb(89.019608%,10.196078%,10.980392%);fill-opacity:0.501961;" d="M 318.878906 204.617188 L 334.742188 204.617188 L 334.742188 188.753906 L 318.878906 188.753906 Z M 318.878906 204.617188 "/>
<path style=" stroke:none;fill-rule:nonzero;fill:rgb(99.215686%,74.901961%,43.529412%);fill-opacity:0.501961;" d="M 318.878906 221.898438 L 334.742188 221.898438 L 334.742188 206.035156 L 318.878906 206.035156 Z M 318.878906 221.898438 "/>
<path style=" stroke:none;fill-rule:nonzero;fill:rgb(100%,49.803922%,0%);fill-opacity:0.501961;" d="M 318.878906 239.179688 L 334.742188 239.179688 L 334.742188 223.316406 L 318.878906 223.316406 Z M 318.878906 239.179688 "/>
<path style=" stroke:none;fill-rule:nonzero;fill:rgb(50.196078%,50.196078%,50.196078%);fill-opacity:0.501961;" d="M 318.878906 256.457031 L 334.742188 256.457031 L 334.742188 240.59375 L 318.878906 240.59375 Z M 318.878906 256.457031 "/>
<path style=" stroke:none;fill-rule:nonzero;fill:rgb(79.215686%,69.803922%,83.921569%);fill-opacity:0.501961;" d="M 318.878906 273.738281 L 334.742188 273.738281 L 334.742188 257.875 L 318.878906 257.875 Z M 318.878906 273.738281 "/>
<path style=" stroke:none;fill-rule:nonzero;fill:rgb(41.568627%,23.921569%,60.392157%);fill-opacity:0.501961;" d="M 318.878906 291.019531 L 334.742188 291.019531 L 334.742188 275.15625 L 318.878906 275.15625 Z M 318.878906 291.019531 "/>
<g style="fill:rgb(0%,0%,0%);fill-opacity:1;">
  <use xlink:href="#glyph1-1" x="340.929688" y="113.4375"/>
  <use xlink:href="#glyph1-2" x="347.284766" y="113.4375"/>
  <use xlink:href="#glyph1-3" x="353.154297" y="113.4375"/>
</g>
<g style="fill:rgb(0%,0%,0%);fill-opacity:1;">
  <use xlink:href="#glyph1-1" x="340.929688" y="130.71875"/>
  <use xlink:href="#glyph1-4" x="347.284766" y="130.71875"/>
</g>
<g style="fill:rgb(0%,0%,0%);fill-opacity:1;">
  <use xlink:href="#glyph1-1" x="340.929688" y="147.996094"/>
  <use xlink:href="#glyph1-5" x="347.284766" y="147.996094"/>
  <use xlink:href="#glyph1-6" x="352.178906" y="147.996094"/>
</g>
<g style="fill:rgb(0%,0%,0%);fill-opacity:1;">
  <use xlink:href="#glyph1-7" x="340.929688" y="165.277344"/>
  <use xlink:href="#glyph1-2" x="347.284766" y="165.277344"/>
  <use xlink:href="#glyph1-8" x="353.154297" y="165.277344"/>
</g>
<g style="fill:rgb(0%,0%,0%);fill-opacity:1;">
  <use xlink:href="#glyph1-9" x="340.929688" y="182.558594"/>
  <use xlink:href="#glyph1-1" x="346.799219" y="182.558594"/>
</g>
<g style="fill:rgb(0%,0%,0%);fill-opacity:1;">
  <use xlink:href="#glyph1-9" x="340.929688" y="199.835938"/>
  <use xlink:href="#glyph1-4" x="346.799219" y="199.835938"/>
</g>
<g style="fill:rgb(0%,0%,0%);fill-opacity:1;">
  <use xlink:href="#glyph1-9" x="340.929688" y="217.117188"/>
  <use xlink:href="#glyph1-8" x="346.799219" y="217.117188"/>
</g>
<g style="fill:rgb(0%,0%,0%);fill-opacity:1;">
  <use xlink:href="#glyph1-9" x="340.929688" y="234.398438"/>
  <use xlink:href="#glyph1-10" x="346.799219" y="234.398438"/>
</g>
<g style="fill:rgb(0%,0%,0%);fill-opacity:1;">
  <use xlink:href="#glyph1-9" x="340.929688" y="251.675781"/>
  <use xlink:href="#glyph1-11" x="346.799219" y="251.675781"/>
</g>
<g style="fill:rgb(0%,0%,0%);fill-opacity:1;">
  <use xlink:href="#glyph1-11" x="340.929688" y="268.957031"/>
  <use xlink:href="#glyph1-12" x="346.799219" y="268.957031"/>
</g>
<g style="fill:rgb(0%,0%,0%);fill-opacity:1;">
  <use xlink:href="#glyph1-13" x="340.929688" y="286.238281"/>
  <use xlink:href="#glyph1-2" x="346.305078" y="286.238281"/>
  <use xlink:href="#glyph1-8" x="352.174609" y="286.238281"/>
</g>
<g style="fill:rgb(0%,0%,0%);fill-opacity:1;">
  <use xlink:href="#glyph2-1" x="0" y="29.824219"/>
  <use xlink:href="#glyph2-2" x="8.804297" y="29.824219"/>
  <use xlink:href="#glyph2-3" x="16.145508" y="29.824219"/>
  <use xlink:href="#glyph2-4" x="27.141211" y="29.824219"/>
  <use xlink:href="#glyph2-5" x="34.482422" y="29.824219"/>
  <use xlink:href="#glyph2-6" x="37.415039" y="29.824219"/>
  <use xlink:href="#glyph2-7" x="44.75625" y="29.824219"/>
  <use xlink:href="#glyph2-8" x="52.097461" y="29.824219"/>
  <use xlink:href="#glyph2-9" x="60.160547" y="29.824219"/>
  <use xlink:href="#glyph2-4" x="66.760547" y="29.824219"/>
  <use xlink:href="#glyph2-6" x="74.101758" y="29.824219"/>
  <use xlink:href="#glyph2-7" x="81.442969" y="29.824219"/>
  <use xlink:href="#glyph2-10" x="88.78418" y="29.824219"/>
  <use xlink:href="#glyph2-5" x="99.051562" y="29.824219"/>
  <use xlink:href="#glyph2-11" x="101.98418" y="29.824219"/>
  <use xlink:href="#glyph2-2" x="104.916797" y="29.824219"/>
  <use xlink:href="#glyph2-7" x="112.258008" y="29.824219"/>
  <use xlink:href="#glyph2-7" x="119.599219" y="29.824219"/>
  <use xlink:href="#glyph2-1" x="126.94043" y="29.824219"/>
  <use xlink:href="#glyph2-5" x="135.744727" y="29.824219"/>
  <use xlink:href="#glyph2-6" x="138.677344" y="29.824219"/>
  <use xlink:href="#glyph2-6" x="146.018555" y="29.824219"/>
  <use xlink:href="#glyph2-4" x="153.359766" y="29.824219"/>
  <use xlink:href="#glyph2-7" x="160.700977" y="29.824219"/>
  <use xlink:href="#glyph2-12" x="168.042187" y="29.824219"/>
  <use xlink:href="#glyph2-13" x="177.574805" y="29.824219"/>
  <use xlink:href="#glyph2-14" x="184.916016" y="29.824219"/>
  <use xlink:href="#glyph2-15" x="192.257227" y="29.824219"/>
  <use xlink:href="#glyph2-11" x="199.598437" y="29.824219"/>
  <use xlink:href="#glyph2-16" x="202.531055" y="29.824219"/>
  <use xlink:href="#glyph2-11" x="206.198437" y="29.824219"/>
  <use xlink:href="#glyph2-13" x="209.131055" y="29.824219"/>
  <use xlink:href="#glyph2-14" x="216.472266" y="29.824219"/>
  <use xlink:href="#glyph2-7" x="223.813477" y="29.824219"/>
  <use xlink:href="#glyph2-17" x="231.154687" y="29.824219"/>
  <use xlink:href="#glyph2-2" x="243.613477" y="29.824219"/>
  <use xlink:href="#glyph2-18" x="250.954687" y="29.824219"/>
  <use xlink:href="#glyph2-11" x="257.554687" y="29.824219"/>
  <use xlink:href="#glyph2-14" x="260.487305" y="29.824219"/>
  <use xlink:href="#glyph2-19" x="267.828516" y="29.824219"/>
  <use xlink:href="#glyph2-7" x="275.169727" y="29.824219"/>
  <use xlink:href="#glyph2-20" x="282.510937" y="29.824219"/>
  <use xlink:href="#glyph2-4" x="289.852148" y="29.824219"/>
  <use xlink:href="#glyph2-7" x="297.193359" y="29.824219"/>
  <use xlink:href="#glyph2-7" x="304.53457" y="29.824219"/>
  <use xlink:href="#glyph2-1" x="311.875781" y="29.824219"/>
  <use xlink:href="#glyph2-6" x="320.680078" y="29.824219"/>
  <use xlink:href="#glyph2-21" x="328.021289" y="29.824219"/>
  <use xlink:href="#glyph2-7" x="334.621289" y="29.824219"/>
  <use xlink:href="#glyph2-3" x="341.9625" y="29.824219"/>
  <use xlink:href="#glyph2-2" x="352.958203" y="29.824219"/>
  <use xlink:href="#glyph2-5" x="360.299414" y="29.824219"/>
  <use xlink:href="#glyph2-6" x="363.232031" y="29.824219"/>
  <use xlink:href="#glyph2-22" x="370.573242" y="29.824219"/>
  <use xlink:href="#glyph2-23" x="374.240625" y="29.824219"/>
  <use xlink:href="#glyph2-24" x="378.636328" y="29.824219"/>
  <use xlink:href="#glyph2-13" x="388.168945" y="29.824219"/>
  <use xlink:href="#glyph2-22" x="395.510156" y="29.824219"/>
  <use xlink:href="#glyph2-25" x="399.177539" y="29.824219"/>
  <use xlink:href="#glyph2-26" x="407.240625" y="29.824219"/>
  <use xlink:href="#glyph2-27" x="416.044922" y="29.824219"/>
</g>
<path style=" stroke:none;fill-rule:nonzero;fill:rgb(65.098039%,80.784314%,89.019608%);fill-opacity:0.501961;" d="M 516.25 188.851563 L 516.25 63.851563 L 511.703125 63.933594 L 507.160156 64.183594 L 502.628906 64.597656 L 498.113281 65.175781 L 493.625 65.917969 L 489.164063 66.820313 L 484.742188 67.886719 L 480.359375 69.117188 L 476.027344 70.5 L 471.746094 72.042969 L 467.523438 73.742188 L 463.367188 75.589844 L 459.28125 77.589844 L 465.175781 89.097656 L 467.140625 92.9375 L 469.101563 96.773438 L 474.996094 108.28125 L 476.960938 112.121094 L 484.820313 127.464844 L 486.785156 131.304688 L 488.75 135.140625 L 490.710938 138.976563 L 494.640625 146.648438 L 496.605469 150.488281 L 506.429688 169.667969 L 508.394531 173.507813 L 510.355469 177.34375 Z M 516.25 188.851563 "/>
<path style=" stroke:none;fill-rule:nonzero;fill:rgb(12.156863%,47.058824%,70.588235%);fill-opacity:0.501961;" d="M 516.25 188.851563 L 510.355469 177.34375 L 508.394531 173.507813 L 506.429688 169.667969 L 496.605469 150.488281 L 494.640625 146.648438 L 490.710938 138.976563 L 488.75 135.140625 L 486.785156 131.304688 L 484.820313 127.464844 L 476.960938 112.121094 L 474.996094 108.28125 L 469.101563 96.773438 L 467.140625 92.9375 L 465.175781 89.097656 L 459.28125 77.589844 L 455.484375 79.617188 L 451.757813 81.773438 L 448.109375 84.058594 L 444.542969 86.464844 L 441.058594 88.996094 L 437.667969 91.644531 L 434.367188 94.40625 L 431.164063 97.28125 L 428.058594 100.265625 L 425.0625 103.355469 L 422.171875 106.546875 L 419.394531 109.832031 L 416.730469 113.214844 L 414.1875 116.6875 L 411.761719 120.242188 L 409.460938 123.882813 L 407.289063 127.597656 L 405.242188 131.386719 L 403.332031 135.242188 L 401.550781 139.160156 L 399.910156 143.140625 L 403.921875 144.714844 L 407.933594 146.292969 L 411.945313 147.867188 L 415.957031 149.445313 L 419.96875 151.019531 L 423.980469 152.597656 L 427.992188 154.171875 L 436.015625 157.328125 L 440.027344 158.902344 L 444.039063 160.480469 L 448.050781 162.054688 L 452.0625 163.632813 L 456.074219 165.207031 L 460.085938 166.785156 L 464.097656 168.359375 L 468.109375 169.9375 L 472.121094 171.511719 L 480.144531 174.667969 L 484.15625 176.242188 L 488.167969 177.820313 L 492.179688 179.394531 L 496.191406 180.972656 L 500.203125 182.546875 L 504.214844 184.125 L 508.226563 185.699219 L 512.238281 187.277344 Z M 516.25 188.851563 "/>
<path style=" stroke:none;fill-rule:nonzero;fill:rgb(69.803922%,87.45098%,54.117647%);fill-opacity:0.501961;" d="M 516.25 188.851563 L 512.238281 187.277344 L 508.226563 185.699219 L 504.214844 184.125 L 500.203125 182.546875 L 496.191406 180.972656 L 492.179688 179.394531 L 488.167969 177.820313 L 484.15625 176.242188 L 480.144531 174.667969 L 472.121094 171.511719 L 468.109375 169.9375 L 464.097656 168.359375 L 460.085938 166.785156 L 456.074219 165.207031 L 452.0625 163.632813 L 448.050781 162.054688 L 444.039063 160.480469 L 440.027344 158.902344 L 436.015625 157.328125 L 427.992188 154.171875 L 423.980469 152.597656 L 419.96875 151.019531 L 415.957031 149.445313 L 411.945313 147.867188 L 407.933594 146.292969 L 403.921875 144.714844 L 399.910156 143.140625 L 398.054688 148.179688 L 396.414063 153.292969 L 400.546875 154.519531 L 404.679688 155.742188 L 417.078125 159.421875 L 421.207031 160.648438 L 446.003906 168.007813 L 450.132813 169.234375 L 454.265625 170.460938 L 458.398438 171.683594 L 474.929688 176.589844 L 479.058594 177.816406 L 507.988281 186.402344 L 512.117188 187.625 Z M 516.25 188.851563 "/>
<path style=" stroke:none;fill-rule:nonzero;fill:rgb(55.294118%,82.745098%,78.039216%);fill-opacity:0.501961;" d="M 516.25 188.851563 L 512.117188 187.625 L 507.988281 186.402344 L 479.058594 177.816406 L 474.929688 176.589844 L 458.398438 171.683594 L 454.265625 170.460938 L 450.132813 169.234375 L 446.003906 168.007813 L 421.207031 160.648438 L 417.078125 159.421875 L 404.679688 155.742188 L 400.546875 154.519531 L 396.414063 153.292969 L 395.277344 157.386719 L 394.277344 161.519531 L 393.417969 165.679688 L 392.699219 169.871094 L 392.125 174.082031 L 391.695313 178.308594 L 391.410156 182.550781 L 391.265625 186.800781 L 391.269531 191.050781 L 391.417969 195.296875 L 391.707031 199.539063 L 392.144531 203.765625 L 392.722656 207.976563 L 393.445313 212.167969 L 394.308594 216.328125 L 395.3125 220.457031 L 396.457031 224.550781 L 397.738281 228.605469 L 399.160156 232.609375 L 400.714844 236.566406 L 402.402344 240.46875 L 404.222656 244.308594 L 406.175781 248.085938 L 408.253906 251.792969 L 410.453125 255.429688 L 412.777344 258.988281 L 415.222656 262.464844 L 417.785156 265.855469 L 420.460938 269.160156 L 423.246094 272.371094 L 426.140625 275.484375 L 429.136719 278.496094 L 432.234375 281.40625 L 435.429688 284.210938 L 438.71875 286.902344 L 442.097656 289.484375 L 445.5625 291.945313 L 449.105469 294.289063 L 452.730469 296.511719 L 456.429688 298.609375 L 460.195313 300.578125 L 464.023438 302.421875 L 467.917969 304.132813 L 471.863281 305.707031 L 475.863281 307.148438 L 479.90625 308.453125 L 483.996094 309.621094 L 488.121094 310.648438 L 492.277344 311.535156 L 496.460938 312.277344 L 500.667969 312.878906 L 504.894531 313.335938 L 509.132813 313.652344 L 513.382813 313.820313 L 517.632813 313.847656 L 517.585938 309.535156 L 517.535156 305.226563 L 517.488281 300.914063 L 517.394531 292.296875 L 517.347656 287.984375 L 517.296875 283.675781 L 517.25 279.367188 L 517.203125 275.054688 L 517.15625 270.746094 L 517.109375 266.433594 L 517.058594 262.125 L 517.011719 257.816406 L 516.964844 253.503906 L 516.917969 249.195313 L 516.871094 244.882813 L 516.824219 240.574219 L 516.773438 236.265625 L 516.726563 231.953125 L 516.679688 227.644531 L 516.632813 223.332031 L 516.585938 219.023438 L 516.535156 214.714844 L 516.488281 210.402344 L 516.394531 201.785156 L 516.347656 197.472656 L 516.296875 193.164063 Z M 516.25 188.851563 "/>
<path style=" stroke:none;fill-rule:nonzero;fill:rgb(98.431373%,60.392157%,60%);fill-opacity:0.501961;" d="M 516.25 188.851563 L 516.296875 193.164063 L 516.347656 197.472656 L 516.394531 201.785156 L 516.488281 210.402344 L 516.535156 214.714844 L 516.585938 219.023438 L 516.632813 223.332031 L 516.679688 227.644531 L 516.726563 231.953125 L 516.773438 236.265625 L 516.824219 240.574219 L 516.871094 244.882813 L 516.917969 249.195313 L 516.964844 253.503906 L 517.011719 257.816406 L 517.058594 262.125 L 517.109375 266.433594 L 517.15625 270.746094 L 517.203125 275.054688 L 517.25 279.367188 L 517.296875 283.675781 L 517.347656 287.984375 L 517.394531 292.296875 L 517.488281 300.914063 L 517.535156 305.226563 L 517.585938 309.535156 L 517.632813 313.847656 L 521.9375 313.722656 L 526.234375 313.453125 L 530.519531 313.035156 L 534.789063 312.472656 L 539.035156 311.761719 L 543.253906 310.902344 L 547.441406 309.898438 L 551.59375 308.753906 L 555.703125 307.464844 L 559.761719 306.035156 L 563.773438 304.46875 L 567.726563 302.761719 L 571.621094 300.921875 L 575.449219 298.949219 L 579.203125 296.84375 L 582.886719 294.613281 L 586.488281 292.253906 L 590.007813 289.773438 L 593.441406 287.171875 L 596.78125 284.457031 L 600.027344 281.625 L 603.171875 278.683594 L 606.214844 275.636719 L 609.152344 272.488281 L 611.976563 269.238281 L 614.6875 265.894531 L 617.28125 262.457031 L 619.757813 258.933594 L 616.1875 256.519531 L 612.621094 254.101563 L 609.050781 251.683594 L 605.480469 249.269531 L 601.914063 246.851563 L 598.34375 244.433594 L 594.773438 242.019531 L 591.203125 239.601563 L 587.636719 237.183594 L 584.066406 234.769531 L 576.925781 229.933594 L 573.359375 227.519531 L 566.21875 222.683594 L 562.652344 220.269531 L 559.082031 217.851563 L 555.511719 215.4375 L 551.941406 213.019531 L 548.375 210.601563 L 544.804688 208.1875 L 541.234375 205.769531 L 537.667969 203.351563 L 534.097656 200.9375 L 526.957031 196.101563 L 523.390625 193.6875 Z M 516.25 188.851563 "/>
<path style=" stroke:none;fill-rule:nonzero;fill:rgb(89.019608%,10.196078%,10.980392%);fill-opacity:0.501961;" d="M 516.25 188.851563 L 523.390625 193.6875 L 526.957031 196.101563 L 534.097656 200.9375 L 537.667969 203.351563 L 541.234375 205.769531 L 544.804688 208.1875 L 548.375 210.601563 L 551.941406 213.019531 L 555.511719 215.4375 L 559.082031 217.851563 L 562.652344 220.269531 L 566.21875 222.683594 L 573.359375 227.519531 L 576.925781 229.933594 L 584.066406 234.769531 L 587.636719 237.183594 L 591.203125 239.601563 L 594.773438 242.019531 L 598.34375 244.433594 L 601.914063 246.851563 L 605.480469 249.269531 L 609.050781 251.683594 L 612.621094 254.101563 L 616.1875 256.519531 L 619.757813 258.933594 L 622.144531 255.269531 L 624.40625 251.527344 L 626.53125 247.703125 L 628.523438 243.808594 L 620.78125 240.019531 L 616.90625 238.125 L 605.292969 232.441406 L 601.421875 230.542969 L 578.195313 219.175781 L 574.324219 217.277344 L 570.449219 215.382813 L 547.222656 204.015625 L 543.351563 202.117188 L 531.738281 196.433594 L 527.863281 194.539063 L 520.121094 190.75 Z M 516.25 188.851563 "/>
<path style=" stroke:none;fill-rule:nonzero;fill:rgb(99.215686%,74.901961%,43.529412%);fill-opacity:0.501961;" d="M 516.25 188.851563 L 520.121094 190.75 L 527.863281 194.539063 L 531.738281 196.433594 L 543.351563 202.117188 L 547.222656 204.015625 L 570.449219 215.382813 L 574.324219 217.277344 L 578.195313 219.175781 L 601.421875 230.542969 L 605.292969 232.441406 L 616.90625 238.125 L 620.78125 240.019531 L 628.523438 243.808594 L 630.808594 238.875 L 626.855469 237.148438 L 622.90625 235.425781 L 615.007813 231.972656 L 611.054688 230.25 L 607.105469 228.523438 L 603.15625 226.800781 L 599.207031 225.074219 L 595.253906 223.351563 L 587.355469 219.898438 L 583.40625 218.175781 L 579.453125 216.449219 L 575.503906 214.726563 L 571.554688 213 L 567.605469 211.277344 L 563.652344 209.550781 L 559.703125 207.828125 L 551.804688 204.375 L 547.851563 202.652344 L 543.902344 200.925781 L 539.953125 199.203125 L 536 197.476563 L 532.050781 195.753906 L 528.101563 194.027344 L 524.152344 192.304688 L 520.199219 190.578125 Z M 516.25 188.851563 "/>
<path style=" stroke:none;fill-rule:nonzero;fill:rgb(100%,49.803922%,0%);fill-opacity:0.501961;" d="M 516.25 188.851563 L 520.199219 190.578125 L 524.152344 192.304688 L 528.101563 194.027344 L 532.050781 195.753906 L 536 197.476563 L 539.953125 199.203125 L 543.902344 200.925781 L 547.851563 202.652344 L 551.804688 204.375 L 559.703125 207.828125 L 563.652344 209.550781 L 567.605469 211.277344 L 571.554688 213 L 575.503906 214.726563 L 579.453125 216.449219 L 583.40625 218.175781 L 587.355469 219.898438 L 595.253906 223.351563 L 599.207031 225.074219 L 603.15625 226.800781 L 607.105469 228.523438 L 611.054688 230.25 L 615.007813 231.972656 L 622.90625 235.425781 L 626.855469 237.148438 L 630.808594 238.875 L 632.773438 234.109375 L 628.753906 232.546875 L 624.734375 230.988281 L 620.71875 229.425781 L 616.699219 227.867188 L 612.683594 226.304688 L 608.664063 224.746094 L 604.644531 223.183594 L 600.628906 221.625 L 596.609375 220.0625 L 592.59375 218.503906 L 588.574219 216.941406 L 584.554688 215.382813 L 580.539063 213.820313 L 576.519531 212.261719 L 572.503906 210.699219 L 568.484375 209.140625 L 564.464844 207.578125 L 560.449219 206.019531 L 556.429688 204.457031 L 552.414063 202.898438 L 548.394531 201.335938 L 544.375 199.777344 L 540.359375 198.214844 L 536.339844 196.65625 L 532.324219 195.09375 L 528.304688 193.535156 L 524.285156 191.972656 L 520.269531 190.414063 Z M 516.25 188.851563 "/>
<path style=" stroke:none;fill-rule:nonzero;fill:rgb(50.196078%,50.196078%,50.196078%);fill-opacity:0.501961;" d="M 516.25 188.851563 L 520.269531 190.414063 L 524.285156 191.972656 L 528.304688 193.535156 L 532.324219 195.09375 L 536.339844 196.65625 L 540.359375 198.214844 L 544.375 199.777344 L 548.394531 201.335938 L 552.414063 202.898438 L 556.429688 204.457031 L 560.449219 206.019531 L 564.464844 207.578125 L 568.484375 209.140625 L 572.503906 210.699219 L 576.519531 212.261719 L 580.539063 213.820313 L 584.554688 215.382813 L 588.574219 216.941406 L 592.59375 218.503906 L 596.609375 220.0625 L 600.628906 221.625 L 604.644531 223.183594 L 608.664063 224.746094 L 612.683594 226.304688 L 616.699219 227.867188 L 620.71875 229.425781 L 624.734375 230.988281 L 628.753906 232.546875 L 632.773438 234.109375 L 634.246094 230.109375 L 635.585938 226.066406 L 636.78125 221.976563 L 637.84375 217.847656 L 638.757813 213.6875 L 639.535156 209.5 L 640.167969 205.285156 L 640.65625 201.054688 L 641 196.804688 L 641.195313 192.550781 L 641.25 188.289063 L 641.160156 184.03125 L 640.921875 179.777344 L 640.539063 175.53125 L 640.011719 171.304688 L 639.34375 167.097656 L 638.53125 162.914063 L 637.574219 158.761719 L 636.480469 154.644531 L 635.242188 150.566406 L 633.871094 146.535156 L 632.359375 142.550781 L 630.714844 138.621094 L 628.9375 134.75 L 627.027344 130.941406 L 624.988281 127.199219 L 622.824219 123.527344 L 620.535156 119.933594 L 618.125 116.421875 L 615.597656 112.992188 L 612.171875 115.605469 L 605.320313 120.839844 L 601.894531 123.453125 L 595.042969 128.6875 L 591.617188 131.300781 L 584.765625 136.535156 L 581.339844 139.148438 L 574.488281 144.382813 L 571.0625 146.996094 L 564.210938 152.230469 L 560.785156 154.84375 L 550.507813 162.695313 L 547.082031 165.308594 L 540.230469 170.542969 L 536.804688 173.15625 L 529.953125 178.390625 L 526.527344 181.003906 L 519.675781 186.238281 Z M 516.25 188.851563 "/>
<path style=" stroke:none;fill-rule:nonzero;fill:rgb(79.215686%,69.803922%,83.921569%);fill-opacity:0.501961;" d="M 516.25 188.851563 L 519.675781 186.238281 L 526.527344 181.003906 L 529.953125 178.390625 L 536.804688 173.15625 L 540.230469 170.542969 L 547.082031 165.308594 L 550.507813 162.695313 L 560.785156 154.84375 L 564.210938 152.230469 L 571.0625 146.996094 L 574.488281 144.382813 L 581.339844 139.148438 L 584.765625 136.535156 L 591.617188 131.300781 L 595.042969 128.6875 L 601.894531 123.453125 L 605.320313 120.839844 L 612.171875 115.605469 L 615.597656 112.992188 L 612.796875 109.453125 L 609.867188 106.019531 L 606.816406 102.695313 L 603.648438 99.484375 L 600.367188 96.386719 L 596.972656 93.410156 L 593.476563 90.558594 L 589.878906 87.835938 L 586.183594 85.246094 L 583.773438 88.816406 L 581.359375 92.390625 L 578.949219 95.964844 L 576.539063 99.535156 L 574.125 103.109375 L 571.714844 106.679688 L 569.304688 110.253906 L 566.890625 113.828125 L 564.480469 117.398438 L 562.070313 120.972656 L 559.65625 124.542969 L 554.835938 131.691406 L 552.421875 135.261719 L 547.601563 142.410156 L 545.1875 145.980469 L 542.777344 149.554688 L 540.367188 153.125 L 537.953125 156.699219 L 535.542969 160.273438 L 533.132813 163.84375 L 530.71875 167.417969 L 528.308594 170.988281 L 525.898438 174.5625 L 523.484375 178.136719 L 521.074219 181.707031 L 518.664063 185.28125 Z M 516.25 188.851563 "/>
<path style=" stroke:none;fill-rule:nonzero;fill:rgb(41.568627%,23.921569%,60.392157%);fill-opacity:0.501961;" d="M 516.25 188.851563 L 518.664063 185.28125 L 521.074219 181.707031 L 523.484375 178.136719 L 525.898438 174.5625 L 528.308594 170.988281 L 530.71875 167.417969 L 533.132813 163.84375 L 535.542969 160.273438 L 537.953125 156.699219 L 540.367188 153.125 L 542.777344 149.554688 L 545.1875 145.980469 L 547.601563 142.410156 L 552.421875 135.261719 L 554.835938 131.691406 L 559.65625 124.542969 L 562.070313 120.972656 L 564.480469 117.398438 L 566.890625 113.828125 L 569.304688 110.253906 L 571.714844 106.679688 L 574.125 103.109375 L 576.539063 99.535156 L 578.949219 95.964844 L 581.359375 92.390625 L 583.773438 88.816406 L 586.183594 85.246094 L 582.523438 82.867188 L 578.78125 80.617188 L 574.964844 78.5 L 571.074219 76.515625 L 567.121094 74.671875 L 563.101563 72.964844 L 559.027344 71.398438 L 554.898438 69.976563 L 550.722656 68.699219 L 546.507813 67.570313 L 542.253906 66.585938 L 537.96875 65.753906 L 533.65625 65.070313 L 529.324219 64.539063 L 524.976563 64.15625 L 520.617188 63.929688 L 516.25 63.851563 Z M 516.25 188.851563 "/>
<g style="fill:rgb(0%,0%,0%);fill-opacity:1;">
  <use xlink:href="#glyph0-1" x="678.171875" y="95.011719"/>
  <use xlink:href="#glyph0-2" x="681.228027" y="95.011719"/>
  <use xlink:href="#glyph0-3" x="686.728027" y="95.011719"/>
  <use xlink:href="#glyph0-4" x="692.845703" y="95.011719"/>
</g>
<path style=" stroke:none;fill-rule:nonzero;fill:rgb(65.098039%,80.784314%,89.019608%);fill-opacity:0.501961;" d="M 678.878906 118.21875 L 694.742188 118.21875 L 694.742188 102.355469 L 678.878906 102.355469 Z M 678.878906 118.21875 "/>
<path style=" stroke:none;fill-rule:nonzero;fill:rgb(12.156863%,47.058824%,70.588235%);fill-opacity:0.501961;" d="M 678.878906 135.5 L 694.742188 135.5 L 694.742188 119.636719 L 678.878906 119.636719 Z M 678.878906 135.5 "/>
<path style=" stroke:none;fill-rule:nonzero;fill:rgb(69.803922%,87.45098%,54.117647%);fill-opacity:0.501961;" d="M 678.878906 152.777344 L 694.742188 152.777344 L 694.742188 136.914063 L 678.878906 136.914063 Z M 678.878906 152.777344 "/>
<path style=" stroke:none;fill-rule:nonzero;fill:rgb(55.294118%,82.745098%,78.039216%);fill-opacity:0.501961;" d="M 678.878906 170.058594 L 694.742188 170.058594 L 694.742188 154.195313 L 678.878906 154.195313 Z M 678.878906 170.058594 "/>
<path style=" stroke:none;fill-rule:nonzero;fill:rgb(98.431373%,60.392157%,60%);fill-opacity:0.501961;" d="M 678.878906 187.339844 L 694.742188 187.339844 L 694.742188 171.476563 L 678.878906 171.476563 Z M 678.878906 187.339844 "/>
<path style=" stroke:none;fill-rule:nonzero;fill:rgb(89.019608%,10.196078%,10.980392%);fill-opacity:0.501961;" d="M 678.878906 204.617188 L 694.742188 204.617188 L 694.742188 188.753906 L 678.878906 188.753906 Z M 678.878906 204.617188 "/>
<path style=" stroke:none;fill-rule:nonzero;fill:rgb(99.215686%,74.901961%,43.529412%);fill-opacity:0.501961;" d="M 678.878906 221.898438 L 694.742188 221.898438 L 694.742188 206.035156 L 678.878906 206.035156 Z M 678.878906 221.898438 "/>
<path style=" stroke:none;fill-rule:nonzero;fill:rgb(100%,49.803922%,0%);fill-opacity:0.501961;" d="M 678.878906 239.179688 L 694.742188 239.179688 L 694.742188 223.316406 L 678.878906 223.316406 Z M 678.878906 239.179688 "/>
<path style=" stroke:none;fill-rule:nonzero;fill:rgb(50.196078%,50.196078%,50.196078%);fill-opacity:0.501961;" d="M 678.878906 256.457031 L 694.742188 256.457031 L 694.742188 240.59375 L 678.878906 240.59375 Z M 678.878906 256.457031 "/>
<path style=" stroke:none;fill-rule:nonzero;fill:rgb(79.215686%,69.803922%,83.921569%);fill-opacity:0.501961;" d="M 678.878906 273.738281 L 694.742188 273.738281 L 694.742188 257.875 L 678.878906 257.875 Z M 678.878906 273.738281 "/>
<path style=" stroke:none;fill-rule:nonzero;fill:rgb(41.568627%,23.921569%,60.392157%);fill-opacity:0.501961;" d="M 678.878906 291.019531 L 694.742188 291.019531 L 694.742188 275.15625 L 678.878906 275.15625 Z M 678.878906 291.019531 "/>
<g style="fill:rgb(0%,0%,0%);fill-opacity:1;">
  <use xlink:href="#glyph1-1" x="700.929688" y="113.4375"/>
  <use xlink:href="#glyph1-2" x="707.284766" y="113.4375"/>
  <use xlink:href="#glyph1-3" x="713.154297" y="113.4375"/>
</g>
<g style="fill:rgb(0%,0%,0%);fill-opacity:1;">
  <use xlink:href="#glyph1-1" x="700.929688" y="130.71875"/>
  <use xlink:href="#glyph1-4" x="707.284766" y="130.71875"/>
</g>
<g style="fill:rgb(0%,0%,0%);fill-opacity:1;">
  <use xlink:href="#glyph1-1" x="700.929688" y="147.996094"/>
  <use xlink:href="#glyph1-5" x="707.284766" y="147.996094"/>
  <use xlink:href="#glyph1-6" x="712.178906" y="147.996094"/>
</g>
<g style="fill:rgb(0%,0%,0%);fill-opacity:1;">
  <use xlink:href="#glyph1-7" x="700.929688" y="165.277344"/>
  <use xlink:href="#glyph1-2" x="707.284766" y="165.277344"/>
  <use xlink:href="#glyph1-8" x="713.154297" y="165.277344"/>
</g>
<g style="fill:rgb(0%,0%,0%);fill-opacity:1;">
  <use xlink:href="#glyph1-9" x="700.929688" y="182.558594"/>
  <use xlink:href="#glyph1-1" x="706.799219" y="182.558594"/>
</g>
<g style="fill:rgb(0%,0%,0%);fill-opacity:1;">
  <use xlink:href="#glyph1-9" x="700.929688" y="199.835938"/>
  <use xlink:href="#glyph1-4" x="706.799219" y="199.835938"/>
</g>
<g style="fill:rgb(0%,0%,0%);fill-opacity:1;">
  <use xlink:href="#glyph1-9" x="700.929688" y="217.117188"/>
  <use xlink:href="#glyph1-8" x="706.799219" y="217.117188"/>
</g>
<g style="fill:rgb(0%,0%,0%);fill-opacity:1;">
  <use xlink:href="#glyph1-9" x="700.929688" y="234.398438"/>
  <use xlink:href="#glyph1-10" x="706.799219" y="234.398438"/>
</g>
<g style="fill:rgb(0%,0%,0%);fill-opacity:1;">
  <use xlink:href="#glyph1-9" x="700.929688" y="251.675781"/>
  <use xlink:href="#glyph1-11" x="706.799219" y="251.675781"/>
</g>
<g style="fill:rgb(0%,0%,0%);fill-opacity:1;">
  <use xlink:href="#glyph1-11" x="700.929688" y="268.957031"/>
  <use xlink:href="#glyph1-12" x="706.799219" y="268.957031"/>
</g>
<g style="fill:rgb(0%,0%,0%);fill-opacity:1;">
  <use xlink:href="#glyph1-13" x="700.929688" y="286.238281"/>
  <use xlink:href="#glyph1-2" x="706.305078" y="286.238281"/>
  <use xlink:href="#glyph1-8" x="712.174609" y="286.238281"/>
</g>
<g style="fill:rgb(0%,0%,0%);fill-opacity:1;">
  <use xlink:href="#glyph2-1" x="360" y="29.824219"/>
  <use xlink:href="#glyph2-2" x="368.804297" y="29.824219"/>
  <use xlink:href="#glyph2-3" x="376.145508" y="29.824219"/>
  <use xlink:href="#glyph2-4" x="387.141211" y="29.824219"/>
  <use xlink:href="#glyph2-5" x="394.482422" y="29.824219"/>
  <use xlink:href="#glyph2-6" x="397.415039" y="29.824219"/>
  <use xlink:href="#glyph2-7" x="404.75625" y="29.824219"/>
  <use xlink:href="#glyph2-8" x="412.097461" y="29.824219"/>
  <use xlink:href="#glyph2-9" x="420.160547" y="29.824219"/>
  <use xlink:href="#glyph2-4" x="426.760547" y="29.824219"/>
  <use xlink:href="#glyph2-6" x="434.101758" y="29.824219"/>
  <use xlink:href="#glyph2-7" x="441.442969" y="29.824219"/>
  <use xlink:href="#glyph2-10" x="448.78418" y="29.824219"/>
  <use xlink:href="#glyph2-5" x="459.051563" y="29.824219"/>
  <use xlink:href="#glyph2-11" x="461.98418" y="29.824219"/>
  <use xlink:href="#glyph2-2" x="464.916797" y="29.824219"/>
  <use xlink:href="#glyph2-7" x="472.258008" y="29.824219"/>
  <use xlink:href="#glyph2-7" x="479.599219" y="29.824219"/>
  <use xlink:href="#glyph2-1" x="486.94043" y="29.824219"/>
  <use xlink:href="#glyph2-5" x="495.744727" y="29.824219"/>
  <use xlink:href="#glyph2-6" x="498.677344" y="29.824219"/>
  <use xlink:href="#glyph2-6" x="506.018555" y="29.824219"/>
  <use xlink:href="#glyph2-4" x="513.359766" y="29.824219"/>
  <use xlink:href="#glyph2-7" x="520.700977" y="29.824219"/>
  <use xlink:href="#glyph2-12" x="528.042188" y="29.824219"/>
  <use xlink:href="#glyph2-13" x="537.574805" y="29.824219"/>
  <use xlink:href="#glyph2-14" x="544.916016" y="29.824219"/>
  <use xlink:href="#glyph2-15" x="552.257227" y="29.824219"/>
  <use xlink:href="#glyph2-11" x="559.598438" y="29.824219"/>
  <use xlink:href="#glyph2-16" x="562.531055" y="29.824219"/>
  <use xlink:href="#glyph2-11" x="566.198438" y="29.824219"/>
  <use xlink:href="#glyph2-13" x="569.131055" y="29.824219"/>
  <use xlink:href="#glyph2-14" x="576.472266" y="29.824219"/>
  <use xlink:href="#glyph2-7" x="583.813477" y="29.824219"/>
  <use xlink:href="#glyph2-17" x="591.154688" y="29.824219"/>
  <use xlink:href="#glyph2-2" x="603.613477" y="29.824219"/>
  <use xlink:href="#glyph2-18" x="610.954688" y="29.824219"/>
  <use xlink:href="#glyph2-11" x="617.554688" y="29.824219"/>
  <use xlink:href="#glyph2-14" x="620.487305" y="29.824219"/>
  <use xlink:href="#glyph2-19" x="627.828516" y="29.824219"/>
  <use xlink:href="#glyph2-7" x="635.169727" y="29.824219"/>
  <use xlink:href="#glyph2-20" x="642.510938" y="29.824219"/>
  <use xlink:href="#glyph2-4" x="649.852148" y="29.824219"/>
  <use xlink:href="#glyph2-7" x="657.193359" y="29.824219"/>
  <use xlink:href="#glyph2-7" x="664.53457" y="29.824219"/>
  <use xlink:href="#glyph2-1" x="671.875781" y="29.824219"/>
  <use xlink:href="#glyph2-6" x="680.680078" y="29.824219"/>
  <use xlink:href="#glyph2-21" x="688.021289" y="29.824219"/>
  <use xlink:href="#glyph2-7" x="694.621289" y="29.824219"/>
  <use xlink:href="#glyph2-3" x="701.9625" y="29.824219"/>
  <use xlink:href="#glyph2-2" x="712.958203" y="29.824219"/>
  <use xlink:href="#glyph2-5" x="720.299414" y="29.824219"/>
  <use xlink:href="#glyph2-6" x="723.232031" y="29.824219"/>
  <use xlink:href="#glyph2-22" x="730.573242" y="29.824219"/>
  <use xlink:href="#glyph2-23" x="734.240625" y="29.824219"/>
  <use xlink:href="#glyph2-24" x="738.636328" y="29.824219"/>
  <use xlink:href="#glyph2-13" x="748.168945" y="29.824219"/>
  <use xlink:href="#glyph2-22" x="755.510156" y="29.824219"/>
  <use xlink:href="#glyph2-25" x="759.177539" y="29.824219"/>
  <use xlink:href="#glyph2-26" x="767.240625" y="29.824219"/>
  <use xlink:href="#glyph2-27" x="776.044922" y="29.824219"/>
</g>
</g>
</svg>
