<?xml version="1.0" encoding="UTF-8"?>
<svg xmlns="http://www.w3.org/2000/svg" xmlns:xlink="http://www.w3.org/1999/xlink" width="720pt" height="360pt" viewBox="0 0 720 360" version="1.1">
<defs>
<g>
<symbol overflow="visible" id="glyph0-0">
<path style="stroke:none;" d="M 1.375 0 L 1.375 -6.875 L 6.875 -6.875 L 6.875 0 Z M 1.546875 -0.171875 L 6.703125 -0.171875 L 6.703125 -6.703125 L 1.546875 -6.703125 Z M 1.546875 -0.171875 "/>
</symbol>
<symbol overflow="visible" id="glyph0-1">
<path style="stroke:none;" d="M 2.835938 -0.863281 L 2.976563 -0.0117188 C 2.703125 0.0429688 2.457031 0.0703125 2.246094 0.0742188 C 1.890625 0.0703125 1.621094 0.0195313 1.429688 -0.0898438 C 1.234375 -0.199219 1.097656 -0.347656 1.019531 -0.527344 C 0.941406 -0.707031 0.902344 -1.085938 0.902344 -1.671875 L 0.902344 -4.953125 L 0.195313 -4.953125 L 0.195313 -5.703125 L 0.902344 -5.703125 L 0.902344 -7.117188 L 1.863281 -7.695313 L 1.863281 -5.703125 L 2.835938 -5.703125 L 2.835938 -4.953125 L 1.863281 -4.953125 L 1.863281 -1.617188 C 1.863281 -1.339844 1.878906 -1.160156 1.914063 -1.085938 C 1.945313 -1.003906 2 -0.941406 2.078125 -0.898438 C 2.152344 -0.847656 2.261719 -0.824219 2.410156 -0.828125 C 2.515625 -0.824219 2.660156 -0.835938 2.835938 -0.863281 Z M 2.835938 -0.863281 "/>
</symbol>
<symbol overflow="visible" id="glyph0-2">
<path style="stroke:none;" d="M 0.683594 2.195313 L 0.574219 1.289063 C 0.785156 1.34375 0.96875 1.371094 1.128906 1.375 C 1.339844 1.371094 1.511719 1.335938 1.640625 1.265625 C 1.769531 1.195313 1.875 1.09375 1.960938 0.96875 C 2.019531 0.867188 2.117188 0.628906 2.257813 0.246094 C 2.269531 0.191406 2.300781 0.113281 2.34375 0.0117188 L 0.175781 -5.703125 L 1.21875 -5.703125 L 2.40625 -2.402344 C 2.558594 -1.980469 2.695313 -1.539063 2.820313 -1.078125 C 2.925781 -1.523438 3.058594 -1.957031 3.21875 -2.378906 L 4.4375 -5.703125 L 5.402344 -5.703125 L 3.234375 0.0976563 C 3 0.71875 2.816406 1.148438 2.691406 1.390625 C 2.515625 1.703125 2.320313 1.9375 2.097656 2.089844 C 1.875 2.238281 1.609375 2.3125 1.304688 2.316406 C 1.117188 2.3125 0.910156 2.273438 0.683594 2.195313 Z M 0.683594 2.195313 "/>
</symbol>
<symbol overflow="visible" id="glyph0-3">
<path style="stroke:none;" d="M 0.726563 2.1875 L 0.726563 -5.703125 L 1.605469 -5.703125 L 1.605469 -4.960938 C 1.8125 -5.25 2.046875 -5.46875 2.308594 -5.613281 C 2.570313 -5.757813 2.886719 -5.828125 3.261719 -5.832031 C 3.746094 -5.828125 4.175781 -5.703125 4.550781 -5.457031 C 4.921875 -5.203125 5.203125 -4.851563 5.390625 -4.394531 C 5.578125 -3.9375 5.671875 -3.4375 5.675781 -2.894531 C 5.671875 -2.308594 5.566406 -1.78125 5.359375 -1.316406 C 5.148438 -0.847656 4.84375 -0.488281 4.449219 -0.242188 C 4.046875 0.0078125 3.628906 0.128906 3.191406 0.128906 C 2.867188 0.128906 2.578125 0.0625 2.320313 -0.0742188 C 2.0625 -0.210938 1.851563 -0.382813 1.691406 -0.589844 L 1.691406 2.1875 Z M 1.601563 -2.820313 C 1.597656 -2.082031 1.746094 -1.539063 2.046875 -1.191406 C 2.339844 -0.835938 2.699219 -0.660156 3.125 -0.664063 C 3.550781 -0.660156 3.917969 -0.84375 4.226563 -1.210938 C 4.53125 -1.574219 4.6875 -2.136719 4.6875 -2.898438 C 4.6875 -3.625 4.535156 -4.167969 4.238281 -4.53125 C 3.9375 -4.890625 3.582031 -5.074219 3.167969 -5.074219 C 2.753906 -5.074219 2.390625 -4.878906 2.074219 -4.496094 C 1.757813 -4.109375 1.597656 -3.550781 1.601563 -2.820313 Z M 1.601563 -2.820313 "/>
</symbol>
<symbol overflow="visible" id="glyph0-4">
<path style="stroke:none;" d="M 4.628906 -1.835938 L 5.628906 -1.714844 C 5.46875 -1.125 5.175781 -0.671875 4.75 -0.351563 C 4.324219 -0.03125 3.78125 0.128906 3.121094 0.128906 C 2.28125 0.128906 1.617188 -0.125 1.132813 -0.640625 C 0.640625 -1.152344 0.398438 -1.875 0.402344 -2.804688 C 0.398438 -3.761719 0.644531 -4.503906 1.144531 -5.035156 C 1.636719 -5.5625 2.277344 -5.828125 3.066406 -5.832031 C 3.824219 -5.828125 4.449219 -5.570313 4.933594 -5.050781 C 5.417969 -4.53125 5.660156 -3.800781 5.660156 -2.863281 C 5.660156 -2.804688 5.65625 -2.71875 5.65625 -2.605469 L 1.402344 -2.605469 C 1.433594 -1.976563 1.613281 -1.496094 1.933594 -1.164063 C 2.25 -0.828125 2.644531 -0.660156 3.125 -0.664063 C 3.476563 -0.660156 3.78125 -0.753906 4.03125 -0.945313 C 4.28125 -1.128906 4.480469 -1.425781 4.628906 -1.835938 Z M 1.457031 -3.398438 L 4.640625 -3.398438 C 4.597656 -3.878906 4.472656 -4.238281 4.273438 -4.480469 C 3.960938 -4.851563 3.5625 -5.039063 3.078125 -5.039063 C 2.628906 -5.039063 2.257813 -4.890625 1.957031 -4.59375 C 1.652344 -4.296875 1.484375 -3.898438 1.457031 -3.398438 Z M 1.457031 -3.398438 "/>
</symbol>
<symbol overflow="visible" id="glyph1-0">
<path style="stroke:none;" d="M 1.101563 0 L 1.101563 -5.5 L 5.5 -5.5 L 5.5 0 Z M 1.238281 -0.136719 L 5.363281 -0.136719 L 5.363281 -5.363281 L 1.238281 -5.363281 Z M 1.238281 -0.136719 "/>
</symbol>
<symbol overflow="visible" id="glyph1-1">
<path style="stroke:none;" d="M 5.171875 -2.207031 L 6.007813 -2 C 5.828125 -1.3125 5.515625 -0.789063 5.0625 -0.429688 C 4.609375 -0.0703125 4.054688 0.105469 3.398438 0.109375 C 2.71875 0.105469 2.164063 -0.03125 1.742188 -0.304688 C 1.3125 -0.582031 0.988281 -0.980469 0.769531 -1.507813 C 0.542969 -2.027344 0.433594 -2.589844 0.4375 -3.195313 C 0.433594 -3.847656 0.558594 -4.421875 0.8125 -4.910156 C 1.0625 -5.398438 1.417969 -5.769531 1.882813 -6.023438 C 2.34375 -6.277344 2.855469 -6.402344 3.410156 -6.40625 C 4.039063 -6.402344 4.566406 -6.242188 5 -5.925781 C 5.425781 -5.601563 5.726563 -5.152344 5.898438 -4.570313 L 5.078125 -4.378906 C 4.929688 -4.832031 4.71875 -5.167969 4.441406 -5.378906 C 4.164063 -5.589844 3.8125 -5.695313 3.394531 -5.695313 C 2.90625 -5.695313 2.503906 -5.578125 2.179688 -5.34375 C 1.851563 -5.109375 1.621094 -4.796875 1.492188 -4.410156 C 1.359375 -4.015625 1.292969 -3.613281 1.296875 -3.203125 C 1.292969 -2.664063 1.371094 -2.195313 1.53125 -1.796875 C 1.683594 -1.394531 1.925781 -1.097656 2.257813 -0.902344 C 2.585938 -0.703125 2.945313 -0.601563 3.332031 -0.605469 C 3.796875 -0.601563 4.191406 -0.738281 4.515625 -1.007813 C 4.835938 -1.277344 5.054688 -1.675781 5.171875 -2.207031 Z M 5.171875 -2.207031 "/>
</symbol>
<symbol overflow="visible" id="glyph1-2">
<path style="stroke:none;" d="M -0.0117188 0 L 2.40625 -6.300781 L 3.304688 -6.300781 L 5.882813 0 L 4.933594 0 L 4.199219 -1.90625 L 1.5625 -1.90625 L 0.871094 0 Z M 1.804688 -2.585938 L 3.941406 -2.585938 L 3.28125 -4.332031 C 3.078125 -4.855469 2.929688 -5.292969 2.835938 -5.636719 C 2.753906 -5.230469 2.640625 -4.828125 2.496094 -4.433594 Z M 1.804688 -2.585938 "/>
</symbol>
<symbol overflow="visible" id="glyph1-3">
<path style="stroke:none;" d="M 0.691406 0 L 0.691406 -6.300781 L 3.484375 -6.300781 C 4.042969 -6.296875 4.46875 -6.242188 4.765625 -6.128906 C 5.054688 -6.015625 5.289063 -5.816406 5.464844 -5.53125 C 5.636719 -5.242188 5.722656 -4.925781 5.726563 -4.582031 C 5.722656 -4.132813 5.578125 -3.753906 5.292969 -3.449219 C 5 -3.140625 4.554688 -2.945313 3.953125 -2.867188 C 4.171875 -2.757813 4.339844 -2.652344 4.457031 -2.550781 C 4.695313 -2.324219 4.925781 -2.046875 5.148438 -1.714844 L 6.242188 0 L 5.195313 0 L 4.359375 -1.3125 C 4.117188 -1.6875 3.914063 -1.976563 3.757813 -2.179688 C 3.597656 -2.378906 3.457031 -2.515625 3.335938 -2.597656 C 3.207031 -2.675781 3.082031 -2.734375 2.957031 -2.765625 C 2.859375 -2.785156 2.703125 -2.792969 2.492188 -2.796875 L 1.527344 -2.796875 L 1.527344 0 Z M 1.527344 -3.519531 L 3.316406 -3.519531 C 3.699219 -3.515625 3.996094 -3.554688 4.210938 -3.636719 C 4.421875 -3.710938 4.585938 -3.835938 4.699219 -4.011719 C 4.808594 -4.183594 4.863281 -4.375 4.867188 -4.582031 C 4.863281 -4.878906 4.753906 -5.121094 4.542969 -5.3125 C 4.324219 -5.503906 3.984375 -5.601563 3.519531 -5.601563 L 1.527344 -5.601563 Z M 1.527344 -3.519531 "/>
</symbol>
<symbol overflow="visible" id="glyph1-4">
<path style="stroke:none;" d="M 0.695313 0 L 0.695313 -6.300781 L 5.25 -6.300781 L 5.25 -5.554688 L 1.53125 -5.554688 L 1.53125 -3.625 L 5.015625 -3.625 L 5.015625 -2.886719 L 1.53125 -2.886719 L 1.53125 -0.742188 L 5.398438 -0.742188 L 5.398438 0 Z M 0.695313 0 "/>
</symbol>
<symbol overflow="visible" id="glyph1-5">
<path style="stroke:none;" d="M 3.703125 -1.46875 L 4.503906 -1.371094 C 4.375 -0.902344 4.140625 -0.539063 3.800781 -0.285156 C 3.460938 -0.0273438 3.027344 0.0976563 2.496094 0.101563 C 1.828125 0.0976563 1.296875 -0.101563 0.90625 -0.511719 C 0.511719 -0.917969 0.316406 -1.496094 0.320313 -2.242188 C 0.316406 -3.007813 0.515625 -3.605469 0.914063 -4.03125 C 1.308594 -4.453125 1.820313 -4.664063 2.453125 -4.667969 C 3.058594 -4.664063 3.554688 -4.457031 3.945313 -4.042969 C 4.328125 -3.628906 4.523438 -3.042969 4.527344 -2.289063 C 4.523438 -2.242188 4.523438 -2.175781 4.523438 -2.085938 L 1.121094 -2.085938 C 1.144531 -1.582031 1.289063 -1.195313 1.546875 -0.929688 C 1.800781 -0.660156 2.117188 -0.527344 2.5 -0.53125 C 2.78125 -0.527344 3.023438 -0.601563 3.226563 -0.753906 C 3.425781 -0.902344 3.585938 -1.140625 3.703125 -1.46875 Z M 1.164063 -2.71875 L 3.710938 -2.71875 C 3.671875 -3.101563 3.578125 -3.386719 3.421875 -3.582031 C 3.171875 -3.878906 2.851563 -4.03125 2.460938 -4.03125 C 2.105469 -4.03125 1.804688 -3.910156 1.566406 -3.671875 C 1.320313 -3.433594 1.1875 -3.117188 1.164063 -2.71875 Z M 1.164063 -2.71875 "/>
</symbol>
<symbol overflow="visible" id="glyph1-6">
<path style="stroke:none;" d="M 0.570313 0 L 0.570313 -4.5625 L 1.265625 -4.5625 L 1.265625 -3.871094 C 1.445313 -4.191406 1.609375 -4.40625 1.757813 -4.511719 C 1.90625 -4.613281 2.070313 -4.664063 2.257813 -4.667969 C 2.515625 -4.664063 2.78125 -4.582031 3.050781 -4.417969 L 2.785156 -3.699219 C 2.589844 -3.808594 2.402344 -3.867188 2.21875 -3.867188 C 2.046875 -3.867188 1.894531 -3.816406 1.761719 -3.714844 C 1.625 -3.613281 1.527344 -3.472656 1.472656 -3.292969 C 1.382813 -3.015625 1.339844 -2.714844 1.34375 -2.390625 L 1.34375 0 Z M 0.570313 0 "/>
</symbol>
<symbol overflow="visible" id="glyph1-7">
<path style="stroke:none;" d="M 0.679688 0 L 0.679688 -6.300781 L 2.847656 -6.300781 C 3.335938 -6.296875 3.707031 -6.269531 3.96875 -6.210938 C 4.328125 -6.125 4.636719 -5.972656 4.894531 -5.757813 C 5.222656 -5.472656 5.472656 -5.113281 5.636719 -4.679688 C 5.800781 -4.242188 5.882813 -3.742188 5.886719 -3.183594 C 5.882813 -2.699219 5.828125 -2.277344 5.71875 -1.910156 C 5.605469 -1.542969 5.460938 -1.238281 5.289063 -0.996094 C 5.113281 -0.753906 4.921875 -0.5625 4.714844 -0.421875 C 4.507813 -0.28125 4.257813 -0.175781 3.964844 -0.105469 C 3.667969 -0.0351563 3.332031 0 2.953125 0 Z M 1.511719 -0.742188 L 2.859375 -0.742188 C 3.273438 -0.738281 3.597656 -0.777344 3.832031 -0.859375 C 4.066406 -0.933594 4.253906 -1.042969 4.398438 -1.1875 C 4.59375 -1.382813 4.746094 -1.648438 4.859375 -1.984375 C 4.96875 -2.316406 5.027344 -2.71875 5.027344 -3.195313 C 5.027344 -3.851563 4.917969 -4.359375 4.703125 -4.714844 C 4.484375 -5.066406 4.222656 -5.304688 3.914063 -5.425781 C 3.6875 -5.511719 3.328125 -5.554688 2.835938 -5.554688 L 1.511719 -5.554688 Z M 1.511719 -0.742188 "/>
</symbol>
<symbol overflow="visible" id="glyph1-8">
<path style="stroke:none;" d="M 3.625 -2.46875 L 3.625 -3.210938 L 6.296875 -3.214844 L 6.296875 -0.875 C 5.882813 -0.546875 5.460938 -0.300781 5.027344 -0.136719 C 4.589844 0.0273438 4.140625 0.105469 3.6875 0.109375 C 3.0625 0.105469 2.5 -0.0234375 2 -0.289063 C 1.492188 -0.550781 1.113281 -0.933594 0.855469 -1.4375 C 0.597656 -1.9375 0.46875 -2.5 0.46875 -3.121094 C 0.46875 -3.730469 0.59375 -4.300781 0.851563 -4.835938 C 1.105469 -5.363281 1.476563 -5.757813 1.957031 -6.019531 C 2.4375 -6.273438 2.992188 -6.402344 3.621094 -6.40625 C 4.074219 -6.402344 4.484375 -6.328125 4.855469 -6.183594 C 5.222656 -6.035156 5.511719 -5.832031 5.722656 -5.566406 C 5.929688 -5.300781 6.089844 -4.957031 6.199219 -4.539063 L 5.449219 -4.332031 C 5.351563 -4.648438 5.230469 -4.902344 5.09375 -5.085938 C 4.953125 -5.269531 4.753906 -5.414063 4.492188 -5.527344 C 4.230469 -5.636719 3.941406 -5.695313 3.625 -5.695313 C 3.242188 -5.695313 2.914063 -5.636719 2.636719 -5.519531 C 2.359375 -5.402344 2.132813 -5.246094 1.964844 -5.058594 C 1.792969 -4.867188 1.664063 -4.660156 1.570313 -4.4375 C 1.40625 -4.046875 1.324219 -3.625 1.328125 -3.171875 C 1.324219 -2.605469 1.421875 -2.136719 1.617188 -1.761719 C 1.808594 -1.382813 2.089844 -1.101563 2.460938 -0.917969 C 2.828125 -0.734375 3.21875 -0.644531 3.640625 -0.644531 C 3.996094 -0.644531 4.347656 -0.710938 4.695313 -0.851563 C 5.035156 -0.988281 5.296875 -1.136719 5.476563 -1.296875 L 5.476563 -2.46875 Z M 3.625 -2.46875 "/>
</symbol>
<symbol overflow="visible" id="glyph1-9">
<path style="stroke:none;" d="M 0.679688 0 L 0.679688 -6.300781 L 3.054688 -6.300781 C 3.46875 -6.296875 3.789063 -6.277344 4.011719 -6.238281 C 4.320313 -6.183594 4.578125 -6.085938 4.789063 -5.941406 C 4.996094 -5.796875 5.167969 -5.59375 5.296875 -5.335938 C 5.421875 -5.074219 5.484375 -4.789063 5.488281 -4.476563 C 5.484375 -3.941406 5.3125 -3.488281 4.976563 -3.117188 C 4.632813 -2.746094 4.019531 -2.558594 3.128906 -2.5625 L 1.511719 -2.5625 L 1.511719 0 Z M 1.511719 -3.304688 L 3.140625 -3.304688 C 3.679688 -3.304688 4.0625 -3.402344 4.289063 -3.605469 C 4.515625 -3.800781 4.628906 -4.085938 4.628906 -4.453125 C 4.628906 -4.714844 4.558594 -4.9375 4.425781 -5.128906 C 4.289063 -5.3125 4.117188 -5.4375 3.902344 -5.5 C 3.761719 -5.535156 3.5 -5.554688 3.125 -5.554688 L 1.511719 -5.554688 Z M 1.511719 -3.304688 "/>
</symbol>
<symbol overflow="visible" id="glyph1-10">
<path style="stroke:none;" d="M 0.820313 0 L 0.820313 -6.300781 L 1.65625 -6.300781 L 1.65625 0 Z M 0.820313 0 "/>
</symbol>
<symbol overflow="visible" id="glyph1-11">
<path style="stroke:none;" d="M 0.394531 -2.023438 L 1.179688 -2.09375 C 1.214844 -1.773438 1.304688 -1.515625 1.441406 -1.316406 C 1.574219 -1.113281 1.785156 -0.949219 2.074219 -0.828125 C 2.359375 -0.699219 2.679688 -0.636719 3.042969 -0.640625 C 3.355469 -0.636719 3.636719 -0.683594 3.882813 -0.78125 C 4.125 -0.875 4.304688 -1.007813 4.425781 -1.171875 C 4.542969 -1.335938 4.605469 -1.515625 4.605469 -1.710938 C 4.605469 -1.90625 4.546875 -2.078125 4.433594 -2.226563 C 4.316406 -2.375 4.128906 -2.5 3.867188 -2.601563 C 3.695313 -2.664063 3.320313 -2.765625 2.746094 -2.90625 C 2.164063 -3.046875 1.757813 -3.175781 1.53125 -3.300781 C 1.226563 -3.453125 1.003906 -3.648438 0.855469 -3.886719 C 0.707031 -4.117188 0.632813 -4.378906 0.636719 -4.671875 C 0.632813 -4.984375 0.722656 -5.28125 0.90625 -5.5625 C 1.082031 -5.835938 1.34375 -6.046875 1.695313 -6.191406 C 2.039063 -6.332031 2.425781 -6.402344 2.851563 -6.40625 C 3.316406 -6.402344 3.730469 -6.328125 4.089844 -6.179688 C 4.445313 -6.027344 4.71875 -5.804688 4.910156 -5.515625 C 5.101563 -5.21875 5.203125 -4.890625 5.21875 -4.523438 L 4.421875 -4.464844 C 4.375 -4.863281 4.230469 -5.164063 3.984375 -5.367188 C 3.734375 -5.570313 3.367188 -5.671875 2.886719 -5.671875 C 2.382813 -5.671875 2.015625 -5.578125 1.785156 -5.394531 C 1.554688 -5.207031 1.441406 -4.984375 1.441406 -4.726563 C 1.441406 -4.496094 1.519531 -4.308594 1.683594 -4.167969 C 1.839844 -4.019531 2.261719 -3.871094 2.941406 -3.71875 C 3.617188 -3.5625 4.082031 -3.429688 4.335938 -3.316406 C 4.703125 -3.144531 4.972656 -2.929688 5.148438 -2.671875 C 5.320313 -2.414063 5.40625 -2.113281 5.410156 -1.777344 C 5.40625 -1.441406 5.3125 -1.128906 5.121094 -0.832031 C 4.929688 -0.535156 4.652344 -0.300781 4.292969 -0.136719 C 3.929688 0.0273438 3.527344 0.105469 3.082031 0.109375 C 2.511719 0.105469 2.03125 0.0234375 1.648438 -0.140625 C 1.257813 -0.304688 0.957031 -0.554688 0.742188 -0.890625 C 0.519531 -1.222656 0.402344 -1.597656 0.394531 -2.023438 Z M 0.394531 -2.023438 "/>
</symbol>
<symbol overflow="visible" id="glyph1-12">
<path style="stroke:none;" d="M 0.652344 0 L 0.652344 -6.300781 L 1.90625 -6.300781 L 3.398438 -1.839844 C 3.535156 -1.421875 3.632813 -1.109375 3.699219 -0.90625 C 3.769531 -1.132813 3.882813 -1.46875 4.035156 -1.917969 L 5.542969 -6.300781 L 6.664063 -6.300781 L 6.664063 0 L 5.859375 0 L 5.859375 -5.273438 L 4.03125 0 L 3.277344 0 L 1.457031 -5.363281 L 1.457031 0 Z M 0.652344 0 "/>
</symbol>
<symbol overflow="visible" id="glyph1-13">
<path style="stroke:none;" d="M 2.28125 0 L 2.28125 -5.554688 L 0.207031 -5.554688 L 0.207031 -6.300781 L 5.199219 -6.300781 L 5.199219 -5.554688 L 3.117188 -5.554688 L 3.117188 0 Z M 2.28125 0 "/>
</symbol>
<symbol overflow="visible" id="glyph2-0">
<path style="stroke:none;" d="M 1.648438 0 L 1.648438 -8.25 L 8.25 -8.25 L 8.25 0 Z M 1.855469 -0.207031 L 8.042969 -0.207031 L 8.042969 -8.042969 L 1.855469 -8.042969 Z M 1.855469 -0.207031 "/>
</symbol>
<symbol overflow="visible" id="glyph2-1">
<path style="stroke:none;" d="M 0.59375 -3.035156 L 1.773438 -3.140625 C 1.824219 -2.664063 1.953125 -2.273438 2.160156 -1.972656 C 2.363281 -1.667969 2.679688 -1.421875 3.113281 -1.238281 C 3.539063 -1.050781 4.023438 -0.960938 4.5625 -0.960938 C 5.035156 -0.960938 5.457031 -1.03125 5.824219 -1.171875 C 6.191406 -1.3125 6.460938 -1.503906 6.640625 -1.753906 C 6.816406 -1.996094 6.90625 -2.269531 6.910156 -2.566406 C 6.90625 -2.863281 6.820313 -3.121094 6.652344 -3.339844 C 6.476563 -3.558594 6.195313 -3.742188 5.800781 -3.898438 C 5.546875 -3.992188 4.984375 -4.148438 4.117188 -4.359375 C 3.246094 -4.566406 2.636719 -4.761719 2.292969 -4.949219 C 1.839844 -5.183594 1.503906 -5.476563 1.285156 -5.828125 C 1.058594 -6.175781 0.949219 -6.570313 0.953125 -7.007813 C 0.949219 -7.484375 1.085938 -7.929688 1.359375 -8.34375 C 1.628906 -8.757813 2.023438 -9.070313 2.542969 -9.285156 C 3.0625 -9.5 3.640625 -9.609375 4.28125 -9.609375 C 4.980469 -9.609375 5.597656 -9.496094 6.132813 -9.269531 C 6.664063 -9.042969 7.074219 -8.710938 7.363281 -8.273438 C 7.648438 -7.835938 7.804688 -7.339844 7.832031 -6.785156 L 6.632813 -6.695313 C 6.566406 -7.292969 6.347656 -7.746094 5.976563 -8.050781 C 5.605469 -8.355469 5.054688 -8.507813 4.332031 -8.507813 C 3.570313 -8.507813 3.019531 -8.367188 2.675781 -8.089844 C 2.328125 -7.8125 2.15625 -7.480469 2.160156 -7.089844 C 2.15625 -6.75 2.277344 -6.46875 2.527344 -6.25 C 2.761719 -6.027344 3.390625 -5.804688 4.410156 -5.578125 C 5.425781 -5.347656 6.125 -5.144531 6.503906 -4.976563 C 7.050781 -4.71875 7.453125 -4.398438 7.71875 -4.011719 C 7.976563 -3.621094 8.109375 -3.171875 8.113281 -2.667969 C 8.109375 -2.160156 7.964844 -1.6875 7.679688 -1.246094 C 7.390625 -0.796875 6.976563 -0.449219 6.441406 -0.207031 C 5.898438 0.0390625 5.292969 0.15625 4.621094 0.160156 C 3.765625 0.15625 3.050781 0.0351563 2.472656 -0.210938 C 1.894531 -0.460938 1.4375 -0.835938 1.109375 -1.335938 C 0.777344 -1.835938 0.605469 -2.402344 0.59375 -3.035156 Z M 0.59375 -3.035156 "/>
</symbol>
<symbol overflow="visible" id="glyph2-2">
<path style="stroke:none;" d="M 5.335938 -0.84375 C 4.902344 -0.476563 4.488281 -0.21875 4.09375 -0.0703125 C 3.695313 0.078125 3.269531 0.152344 2.816406 0.15625 C 2.0625 0.152344 1.484375 -0.0273438 1.082031 -0.394531 C 0.675781 -0.761719 0.472656 -1.234375 0.476563 -1.804688 C 0.472656 -2.140625 0.550781 -2.445313 0.703125 -2.722656 C 0.855469 -3 1.054688 -3.222656 1.304688 -3.390625 C 1.550781 -3.554688 1.828125 -3.679688 2.140625 -3.769531 C 2.363281 -3.824219 2.707031 -3.882813 3.171875 -3.945313 C 4.105469 -4.054688 4.796875 -4.1875 5.238281 -4.34375 C 5.242188 -4.5 5.242188 -4.601563 5.246094 -4.648438 C 5.242188 -5.117188 5.132813 -5.449219 4.917969 -5.644531 C 4.617188 -5.902344 4.179688 -6.035156 3.597656 -6.039063 C 3.050781 -6.035156 2.644531 -5.9375 2.386719 -5.75 C 2.125 -5.554688 1.933594 -5.21875 1.8125 -4.738281 L 0.675781 -4.890625 C 0.777344 -5.375 0.949219 -5.765625 1.183594 -6.066406 C 1.417969 -6.363281 1.757813 -6.59375 2.210938 -6.757813 C 2.65625 -6.914063 3.175781 -6.996094 3.765625 -7 C 4.347656 -6.996094 4.820313 -6.925781 5.1875 -6.792969 C 5.546875 -6.652344 5.816406 -6.480469 5.992188 -6.273438 C 6.160156 -6.0625 6.28125 -5.800781 6.355469 -5.484375 C 6.390625 -5.285156 6.410156 -4.925781 6.414063 -4.414063 L 6.414063 -2.867188 C 6.410156 -1.785156 6.433594 -1.105469 6.488281 -0.820313 C 6.535156 -0.535156 6.632813 -0.261719 6.78125 0 L 5.570313 0 C 5.445313 -0.238281 5.367188 -0.519531 5.335938 -0.84375 Z M 5.238281 -3.433594 C 4.816406 -3.261719 4.183594 -3.113281 3.34375 -2.996094 C 2.863281 -2.925781 2.527344 -2.851563 2.332031 -2.765625 C 2.132813 -2.679688 1.980469 -2.550781 1.875 -2.386719 C 1.765625 -2.21875 1.710938 -2.035156 1.714844 -1.835938 C 1.710938 -1.523438 1.828125 -1.265625 2.066406 -1.0625 C 2.296875 -0.851563 2.640625 -0.75 3.09375 -0.753906 C 3.539063 -0.75 3.933594 -0.847656 4.285156 -1.046875 C 4.628906 -1.238281 4.886719 -1.507813 5.054688 -1.851563 C 5.175781 -2.109375 5.238281 -2.496094 5.238281 -3.011719 Z M 5.238281 -3.433594 "/>
</symbol>
<symbol overflow="visible" id="glyph2-3">
<path style="stroke:none;" d="M 0.871094 0 L 0.871094 -6.84375 L 1.90625 -6.84375 L 1.90625 -5.882813 C 2.117188 -6.21875 2.40625 -6.488281 2.765625 -6.691406 C 3.121094 -6.894531 3.527344 -6.996094 3.984375 -7 C 4.488281 -6.996094 4.902344 -6.890625 5.230469 -6.683594 C 5.554688 -6.46875 5.785156 -6.175781 5.917969 -5.800781 C 6.457031 -6.597656 7.160156 -6.996094 8.03125 -7 C 8.707031 -6.996094 9.230469 -6.808594 9.597656 -6.433594 C 9.960938 -6.058594 10.140625 -5.480469 10.144531 -4.699219 L 10.144531 0 L 8.992188 0 L 8.992188 -4.3125 C 8.988281 -4.773438 8.949219 -5.105469 8.878906 -5.3125 C 8.800781 -5.515625 8.664063 -5.679688 8.46875 -5.804688 C 8.265625 -5.925781 8.035156 -5.988281 7.773438 -5.992188 C 7.289063 -5.988281 6.890625 -5.828125 6.574219 -5.511719 C 6.253906 -5.191406 6.09375 -4.679688 6.097656 -3.976563 L 6.097656 0 L 4.9375 0 L 4.9375 -4.445313 C 4.933594 -4.957031 4.839844 -5.34375 4.652344 -5.605469 C 4.464844 -5.859375 4.15625 -5.988281 3.726563 -5.992188 C 3.398438 -5.988281 3.09375 -5.902344 2.816406 -5.734375 C 2.539063 -5.558594 2.339844 -5.308594 2.214844 -4.980469 C 2.089844 -4.648438 2.027344 -4.171875 2.03125 -3.550781 L 2.03125 0 Z M 0.871094 0 "/>
</symbol>
<symbol overflow="visible" id="glyph2-4">
<path style="stroke:none;" d="M 0.871094 2.625 L 0.871094 -6.84375 L 1.925781 -6.84375 L 1.925781 -5.957031 C 2.171875 -6.300781 2.453125 -6.5625 2.769531 -6.738281 C 3.082031 -6.910156 3.464844 -6.996094 3.914063 -7 C 4.496094 -6.996094 5.007813 -6.84375 5.457031 -6.546875 C 5.902344 -6.242188 6.242188 -5.820313 6.46875 -5.273438 C 6.695313 -4.726563 6.808594 -4.125 6.8125 -3.472656 C 6.808594 -2.769531 6.683594 -2.140625 6.433594 -1.582031 C 6.183594 -1.019531 5.816406 -0.589844 5.339844 -0.292969 C 4.855469 0.00390625 4.351563 0.152344 3.828125 0.15625 C 3.4375 0.152344 3.09375 0.0742188 2.789063 -0.0898438 C 2.480469 -0.25 2.226563 -0.457031 2.03125 -0.710938 L 2.03125 2.625 Z M 1.921875 -3.382813 C 1.921875 -2.5 2.097656 -1.851563 2.457031 -1.429688 C 2.808594 -1.007813 3.242188 -0.796875 3.75 -0.800781 C 4.265625 -0.796875 4.707031 -1.015625 5.074219 -1.453125 C 5.441406 -1.890625 5.625 -2.566406 5.625 -3.480469 C 5.625 -4.351563 5.445313 -5.003906 5.085938 -5.4375 C 4.726563 -5.871094 4.296875 -6.085938 3.804688 -6.089844 C 3.304688 -6.085938 2.867188 -5.855469 2.492188 -5.394531 C 2.109375 -4.929688 1.921875 -4.257813 1.921875 -3.382813 Z M 1.921875 -3.382813 "/>
</symbol>
<symbol overflow="visible" id="glyph2-5">
<path style="stroke:none;" d="M 0.84375 0 L 0.84375 -9.449219 L 2.003906 -9.449219 L 2.003906 0 Z M 0.84375 0 "/>
</symbol>
<symbol overflow="visible" id="glyph2-6">
<path style="stroke:none;" d="M 5.554688 -2.203125 L 6.753906 -2.054688 C 6.5625 -1.351563 6.210938 -0.808594 5.703125 -0.421875 C 5.1875 -0.0390625 4.535156 0.152344 3.746094 0.15625 C 2.738281 0.152344 1.945313 -0.152344 1.363281 -0.769531 C 0.773438 -1.382813 0.480469 -2.25 0.484375 -3.363281 C 0.480469 -4.515625 0.777344 -5.410156 1.371094 -6.046875 C 1.964844 -6.679688 2.734375 -6.996094 3.679688 -7 C 4.59375 -6.996094 5.339844 -6.683594 5.921875 -6.0625 C 6.5 -5.4375 6.789063 -4.5625 6.792969 -3.433594 C 6.789063 -3.363281 6.789063 -3.257813 6.785156 -3.125 L 1.683594 -3.125 C 1.722656 -2.371094 1.9375 -1.796875 2.320313 -1.398438 C 2.703125 -0.996094 3.179688 -0.796875 3.75 -0.800781 C 4.175781 -0.796875 4.539063 -0.90625 4.839844 -1.132813 C 5.140625 -1.351563 5.378906 -1.710938 5.554688 -2.203125 Z M 1.746094 -4.078125 L 5.570313 -4.078125 C 5.515625 -4.65625 5.367188 -5.085938 5.128906 -5.375 C 4.757813 -5.820313 4.28125 -6.046875 3.691406 -6.046875 C 3.160156 -6.046875 2.710938 -5.867188 2.347656 -5.511719 C 1.984375 -5.152344 1.785156 -4.675781 1.746094 -4.078125 Z M 1.746094 -4.078125 "/>
</symbol>
<symbol overflow="visible" id="glyph2-7">
<path style="stroke:none;" d="M 3.421875 0 L 3.421875 -8.332031 L 0.308594 -8.332031 L 0.308594 -9.449219 L 7.796875 -9.449219 L 7.796875 -8.332031 L 4.671875 -8.332031 L 4.671875 0 Z M 3.421875 0 "/>
</symbol>
<symbol overflow="visible" id="glyph2-8">
<path style="stroke:none;" d="M 0.820313 2.636719 L 0.691406 1.546875 C 0.941406 1.613281 1.160156 1.644531 1.351563 1.648438 C 1.609375 1.644531 1.816406 1.601563 1.972656 1.519531 C 2.125 1.429688 2.25 1.3125 2.351563 1.160156 C 2.421875 1.042969 2.542969 0.753906 2.707031 0.296875 C 2.726563 0.230469 2.757813 0.136719 2.808594 0.0117188 L 0.210938 -6.84375 L 1.464844 -6.84375 L 2.886719 -2.882813 C 3.070313 -2.375 3.234375 -1.84375 3.382813 -1.296875 C 3.511719 -1.824219 3.671875 -2.34375 3.859375 -2.855469 L 5.324219 -6.84375 L 6.484375 -6.84375 L 3.878906 0.117188 C 3.597656 0.867188 3.378906 1.382813 3.230469 1.667969 C 3.019531 2.046875 2.785156 2.328125 2.519531 2.507813 C 2.253906 2.6875 1.933594 2.777344 1.566406 2.777344 C 1.339844 2.777344 1.09375 2.730469 0.820313 2.636719 Z M 0.820313 2.636719 "/>
</symbol>
<symbol overflow="visible" id="glyph2-9">
<path style="stroke:none;" d="M -0.199219 2.625 L -0.199219 1.785156 L 7.488281 1.785156 L 7.488281 2.625 Z M -0.199219 2.625 "/>
</symbol>
<symbol overflow="visible" id="glyph2-10">
<path style="stroke:none;" d="M 1.003906 0 L 1.003906 -9.449219 L 2.289063 -9.449219 L 7.25 -2.03125 L 7.25 -9.449219 L 8.449219 -9.449219 L 8.449219 0 L 7.167969 0 L 2.203125 -7.425781 L 2.203125 0 Z M 1.003906 0 "/>
</symbol>
<symbol overflow="visible" id="glyph2-11">
<path style="stroke:none;" d="M 5.355469 0 L 5.355469 -1.003906 C 4.824219 -0.230469 4.097656 0.152344 3.183594 0.15625 C 2.777344 0.152344 2.402344 0.078125 2.050781 -0.0742188 C 1.699219 -0.226563 1.4375 -0.421875 1.273438 -0.660156 C 1.101563 -0.890625 0.984375 -1.175781 0.914063 -1.519531 C 0.867188 -1.746094 0.84375 -2.109375 0.84375 -2.605469 L 0.84375 -6.84375 L 2.003906 -6.84375 L 2.003906 -3.046875 C 2.003906 -2.441406 2.027344 -2.03125 2.074219 -1.824219 C 2.144531 -1.515625 2.296875 -1.277344 2.539063 -1.105469 C 2.773438 -0.929688 3.066406 -0.84375 3.414063 -0.84375 C 3.761719 -0.84375 4.089844 -0.929688 4.394531 -1.109375 C 4.699219 -1.285156 4.914063 -1.53125 5.042969 -1.839844 C 5.167969 -2.144531 5.230469 -2.589844 5.234375 -3.175781 L 5.234375 -6.84375 L 6.394531 -6.84375 L 6.394531 0 Z M 5.355469 0 "/>
</symbol>
<symbol overflow="visible" id="glyph2-12">
<path style="stroke:none;" d="M 0.855469 0 L 0.855469 -6.84375 L 1.902344 -6.84375 L 1.902344 -5.808594 C 2.164063 -6.289063 2.410156 -6.609375 2.636719 -6.765625 C 2.863281 -6.917969 3.109375 -6.996094 3.382813 -7 C 3.769531 -6.996094 4.167969 -6.871094 4.578125 -6.625 L 4.175781 -5.550781 C 3.890625 -5.714844 3.605469 -5.800781 3.324219 -5.800781 C 3.066406 -5.800781 2.839844 -5.722656 2.640625 -5.570313 C 2.4375 -5.417969 2.292969 -5.207031 2.210938 -4.9375 C 2.078125 -4.523438 2.015625 -4.070313 2.015625 -3.582031 L 2.015625 0 Z M 0.855469 0 "/>
</symbol>
<symbol overflow="visible" id="glyph2-13">
<path style="stroke:none;" d="M 0.4375 -3.421875 C 0.433594 -4.6875 0.785156 -5.625 1.496094 -6.238281 C 2.082031 -6.742188 2.800781 -6.996094 3.648438 -7 C 4.585938 -6.996094 5.355469 -6.6875 5.953125 -6.074219 C 6.550781 -5.453125 6.847656 -4.601563 6.851563 -3.519531 C 6.847656 -2.636719 6.714844 -1.945313 6.453125 -1.441406 C 6.1875 -0.933594 5.804688 -0.539063 5.300781 -0.261719 C 4.792969 0.015625 4.242188 0.152344 3.648438 0.15625 C 2.6875 0.152344 1.914063 -0.152344 1.324219 -0.765625 C 0.730469 -1.378906 0.433594 -2.265625 0.4375 -3.421875 Z M 1.628906 -3.421875 C 1.628906 -2.546875 1.820313 -1.890625 2.203125 -1.453125 C 2.585938 -1.015625 3.066406 -0.796875 3.648438 -0.800781 C 4.222656 -0.796875 4.703125 -1.015625 5.085938 -1.457031 C 5.46875 -1.890625 5.660156 -2.558594 5.660156 -3.460938 C 5.660156 -4.304688 5.464844 -4.945313 5.082031 -5.382813 C 4.691406 -5.816406 4.214844 -6.035156 3.648438 -6.039063 C 3.066406 -6.035156 2.585938 -5.816406 2.203125 -5.386719 C 1.820313 -4.949219 1.628906 -4.296875 1.628906 -3.421875 Z M 1.628906 -3.421875 "/>
</symbol>
<symbol overflow="visible" id="glyph2-14">
<path style="stroke:none;" d="M 0.871094 0 L 0.871094 -6.84375 L 1.914063 -6.84375 L 1.914063 -5.871094 C 2.414063 -6.621094 3.140625 -6.996094 4.09375 -7 C 4.503906 -6.996094 4.882813 -6.921875 5.230469 -6.777344 C 5.574219 -6.625 5.832031 -6.429688 6.007813 -6.191406 C 6.175781 -5.949219 6.296875 -5.664063 6.367188 -5.335938 C 6.410156 -5.121094 6.433594 -4.746094 6.433594 -4.207031 L 6.433594 0 L 5.273438 0 L 5.273438 -4.164063 C 5.273438 -4.632813 5.226563 -4.984375 5.136719 -5.222656 C 5.042969 -5.453125 4.882813 -5.640625 4.65625 -5.78125 C 4.425781 -5.917969 4.15625 -5.988281 3.847656 -5.992188 C 3.351563 -5.988281 2.925781 -5.832031 2.566406 -5.523438 C 2.207031 -5.207031 2.027344 -4.613281 2.03125 -3.738281 L 2.03125 0 Z M 0.871094 0 "/>
</symbol>
<symbol overflow="visible" id="glyph2-15">
<path style="stroke:none;" d="M 7.761719 -3.3125 L 9.011719 -2.996094 C 8.746094 -1.964844 8.273438 -1.183594 7.59375 -0.648438 C 6.914063 -0.109375 6.082031 0.15625 5.097656 0.160156 C 4.078125 0.15625 3.25 -0.046875 2.613281 -0.460938 C 1.972656 -0.871094 1.484375 -1.472656 1.15625 -2.261719 C 0.820313 -3.046875 0.65625 -3.890625 0.65625 -4.796875 C 0.65625 -5.777344 0.84375 -6.632813 1.21875 -7.367188 C 1.59375 -8.097656 2.128906 -8.65625 2.824219 -9.039063 C 3.519531 -9.417969 4.28125 -9.609375 5.117188 -9.609375 C 6.058594 -9.609375 6.855469 -9.367188 7.5 -8.886719 C 8.144531 -8.40625 8.59375 -7.730469 8.847656 -6.859375 L 7.617188 -6.566406 C 7.398438 -7.25 7.078125 -7.75 6.664063 -8.066406 C 6.242188 -8.378906 5.71875 -8.535156 5.09375 -8.539063 C 4.363281 -8.535156 3.757813 -8.363281 3.269531 -8.015625 C 2.78125 -7.667969 2.4375 -7.199219 2.242188 -6.613281 C 2.042969 -6.023438 1.945313 -5.417969 1.945313 -4.800781 C 1.945313 -3.996094 2.0625 -3.296875 2.296875 -2.695313 C 2.53125 -2.09375 2.894531 -1.644531 3.390625 -1.351563 C 3.882813 -1.054688 4.417969 -0.90625 4.996094 -0.910156 C 5.695313 -0.90625 6.289063 -1.109375 6.773438 -1.515625 C 7.257813 -1.917969 7.585938 -2.515625 7.761719 -3.3125 Z M 7.761719 -3.3125 "/>
</symbol>
<symbol overflow="visible" id="glyph2-16">
<path style="stroke:none;" d="M 5.3125 0 L 5.3125 -0.863281 C 4.875 -0.183594 4.238281 0.152344 3.398438 0.15625 C 2.851563 0.152344 2.347656 0.00390625 1.890625 -0.292969 C 1.433594 -0.59375 1.078125 -1.011719 0.828125 -1.554688 C 0.574219 -2.09375 0.449219 -2.714844 0.453125 -3.414063 C 0.449219 -4.097656 0.5625 -4.71875 0.792969 -5.273438 C 1.015625 -5.828125 1.359375 -6.253906 1.816406 -6.554688 C 2.269531 -6.847656 2.777344 -6.996094 3.34375 -7 C 3.753906 -6.996094 4.121094 -6.910156 4.445313 -6.738281 C 4.765625 -6.5625 5.027344 -6.335938 5.234375 -6.058594 L 5.234375 -9.449219 L 6.386719 -9.449219 L 6.386719 0 Z M 1.644531 -3.414063 C 1.640625 -2.535156 1.824219 -1.878906 2.199219 -1.449219 C 2.566406 -1.011719 3.003906 -0.796875 3.507813 -0.800781 C 4.011719 -0.796875 4.441406 -1.003906 4.796875 -1.421875 C 5.152344 -1.832031 5.332031 -2.464844 5.332031 -3.320313 C 5.332031 -4.253906 5.148438 -4.941406 4.789063 -5.378906 C 4.421875 -5.816406 3.976563 -6.035156 3.453125 -6.039063 C 2.933594 -6.035156 2.503906 -5.824219 2.160156 -5.40625 C 1.8125 -4.984375 1.640625 -4.320313 1.644531 -3.414063 Z M 1.644531 -3.414063 "/>
</symbol>
<symbol overflow="visible" id="glyph2-17">
<path style="stroke:none;" d="M 0.875 -8.113281 L 0.875 -9.449219 L 2.035156 -9.449219 L 2.035156 -8.113281 Z M 0.875 0 L 0.875 -6.84375 L 2.035156 -6.84375 L 2.035156 0 Z M 0.875 0 "/>
</symbol>
<symbol overflow="visible" id="glyph2-18">
<path style="stroke:none;" d="M 3.402344 -1.039063 L 3.570313 -0.0117188 C 3.242188 0.0546875 2.953125 0.0859375 2.695313 0.0898438 C 2.273438 0.0859375 1.945313 0.0234375 1.714844 -0.109375 C 1.480469 -0.238281 1.316406 -0.414063 1.222656 -0.632813 C 1.125 -0.851563 1.078125 -1.308594 1.082031 -2.003906 L 1.082031 -5.941406 L 0.230469 -5.941406 L 0.230469 -6.84375 L 1.082031 -6.84375 L 1.082031 -8.539063 L 2.238281 -9.234375 L 2.238281 -6.84375 L 3.402344 -6.84375 L 3.402344 -5.941406 L 2.238281 -5.941406 L 2.238281 -1.941406 C 2.238281 -1.605469 2.257813 -1.394531 2.296875 -1.300781 C 2.335938 -1.207031 2.402344 -1.128906 2.496094 -1.074219 C 2.589844 -1.015625 2.722656 -0.988281 2.894531 -0.992188 C 3.019531 -0.988281 3.1875 -1.003906 3.402344 -1.039063 Z M 3.402344 -1.039063 "/>
</symbol>
<symbol overflow="visible" id="glyph2-19">
<path style="stroke:none;" d="M 1.019531 0 L 1.019531 -9.449219 L 4.273438 -9.449219 C 5.003906 -9.445313 5.566406 -9.398438 5.957031 -9.3125 C 6.492188 -9.183594 6.953125 -8.960938 7.339844 -8.636719 C 7.835938 -8.214844 8.207031 -7.675781 8.457031 -7.019531 C 8.699219 -6.363281 8.824219 -5.613281 8.828125 -4.777344 C 8.824219 -4.054688 8.742188 -3.417969 8.578125 -2.867188 C 8.410156 -2.308594 8.195313 -1.851563 7.933594 -1.492188 C 7.667969 -1.128906 7.378906 -0.84375 7.070313 -0.632813 C 6.757813 -0.421875 6.382813 -0.261719 5.945313 -0.160156 C 5.503906 -0.0507813 5 0 4.429688 0 Z M 2.269531 -1.113281 L 4.285156 -1.113281 C 4.902344 -1.113281 5.390625 -1.171875 5.75 -1.289063 C 6.101563 -1.40625 6.386719 -1.566406 6.601563 -1.777344 C 6.894531 -2.070313 7.125 -2.46875 7.289063 -2.972656 C 7.453125 -3.472656 7.535156 -4.082031 7.539063 -4.796875 C 7.535156 -5.78125 7.371094 -6.539063 7.050781 -7.074219 C 6.722656 -7.601563 6.332031 -7.957031 5.871094 -8.140625 C 5.535156 -8.265625 4.996094 -8.332031 4.253906 -8.332031 L 2.269531 -8.332031 Z M 2.269531 -1.113281 "/>
</symbol>
<symbol overflow="visible" id="glyph2-20">
<path style="stroke:none;" d="M 2.773438 0 L 0.167969 -6.84375 L 1.390625 -6.84375 L 2.863281 -2.746094 C 3.019531 -2.300781 3.164063 -1.839844 3.300781 -1.367188 C 3.398438 -1.722656 3.542969 -2.15625 3.730469 -2.667969 L 5.253906 -6.84375 L 6.445313 -6.84375 L 3.855469 0 Z M 2.773438 0 "/>
</symbol>
<symbol overflow="visible" id="glyph2-21">
<path style="stroke:none;" d=""/>
</symbol>
<symbol overflow="visible" id="glyph2-22">
<path style="stroke:none;" d="M 3.085938 2.777344 C 2.441406 1.96875 1.898438 1.023438 1.460938 -0.0585938 C 1.015625 -1.140625 0.796875 -2.261719 0.800781 -3.421875 C 0.796875 -4.445313 0.960938 -5.425781 1.296875 -6.363281 C 1.679688 -7.449219 2.277344 -8.53125 3.085938 -9.609375 L 3.917969 -9.609375 C 3.398438 -8.714844 3.054688 -8.074219 2.886719 -7.695313 C 2.625 -7.097656 2.417969 -6.480469 2.269531 -5.839844 C 2.082031 -5.03125 1.992188 -4.222656 1.992188 -3.414063 C 1.992188 -1.347656 2.632813 0.714844 3.917969 2.777344 Z M 3.085938 2.777344 "/>
</symbol>
<symbol overflow="visible" id="glyph2-23">
<path style="stroke:none;" d="M 1.082031 0 L 1.082031 -9.449219 L 7.457031 -9.449219 L 7.457031 -8.332031 L 2.332031 -8.332031 L 2.332031 -5.40625 L 6.765625 -5.40625 L 6.765625 -4.292969 L 2.332031 -4.292969 L 2.332031 0 Z M 1.082031 0 "/>
</symbol>
<symbol overflow="visible" id="glyph2-24">
<path style="stroke:none;" d="M -0.0195313 0 L 3.609375 -9.449219 L 4.957031 -9.449219 L 8.824219 0 L 7.398438 0 L 6.296875 -2.863281 L 2.347656 -2.863281 L 1.308594 0 Z M 2.707031 -3.878906 L 5.910156 -3.878906 L 4.925781 -6.496094 C 4.621094 -7.289063 4.398438 -7.941406 4.253906 -8.457031 C 4.132813 -7.847656 3.960938 -7.246094 3.746094 -6.652344 Z M 2.707031 -3.878906 "/>
</symbol>
<symbol overflow="visible" id="glyph2-25">
<path style="stroke:none;" d="M 1.628906 2.777344 L 0.800781 2.777344 C 2.082031 0.714844 2.722656 -1.347656 2.726563 -3.414063 C 2.722656 -4.222656 2.632813 -5.023438 2.449219 -5.820313 C 2.300781 -6.460938 2.09375 -7.082031 1.835938 -7.675781 C 1.664063 -8.0625 1.320313 -8.707031 0.800781 -9.609375 L 1.628906 -9.609375 C 2.4375 -8.53125 3.035156 -7.449219 3.421875 -6.363281 C 3.75 -5.425781 3.914063 -4.445313 3.917969 -3.421875 C 3.914063 -2.261719 3.691406 -1.140625 3.25 -0.0585938 C 2.804688 1.023438 2.265625 1.96875 1.628906 2.777344 Z M 1.628906 2.777344 "/>
</symbol>
<symbol overflow="visible" id="glyph2-26">
<path style="stroke:none;" d="M 2.667969 0 L 0.160156 -9.449219 L 1.445313 -9.449219 L 2.882813 -3.253906 C 3.035156 -2.601563 3.167969 -1.957031 3.28125 -1.320313 C 3.519531 -2.328125 3.660156 -2.910156 3.707031 -3.066406 L 5.503906 -9.449219 L 7.011719 -9.449219 L 8.367188 -4.667969 C 8.703125 -3.476563 8.945313 -2.359375 9.101563 -1.320313 C 9.21875 -1.914063 9.375 -2.601563 9.570313 -3.378906 L 11.054688 -9.449219 L 12.3125 -9.449219 L 9.71875 0 L 8.515625 0 L 6.523438 -7.199219 C 6.351563 -7.796875 6.253906 -8.167969 6.226563 -8.308594 C 6.125 -7.871094 6.03125 -7.5 5.949219 -7.199219 L 3.945313 0 Z M 2.667969 0 "/>
</symbol>
<symbol overflow="visible" id="glyph2-27">
<path style="stroke:none;" d="M 0.875 0 L 0.875 -9.449219 L 2.035156 -9.449219 L 2.035156 -4.0625 L 4.78125 -6.84375 L 6.285156 -6.84375 L 3.667969 -4.304688 L 6.546875 0 L 5.117188 0 L 2.855469 -3.5 L 2.035156 -2.714844 L 2.035156 0 Z M 0.875 0 "/>
</symbol>
<symbol overflow="visible" id="glyph2-28">
<path style="stroke:none;" d="M 0.65625 0.566406 L 1.785156 0.734375 C 1.828125 1.078125 1.960938 1.332031 2.179688 1.496094 C 2.464844 1.707031 2.855469 1.816406 3.359375 1.816406 C 3.890625 1.816406 4.304688 1.707031 4.601563 1.492188 C 4.890625 1.277344 5.089844 0.976563 5.195313 0.59375 C 5.253906 0.351563 5.28125 -0.140625 5.277344 -0.894531 C 4.769531 -0.296875 4.136719 0 3.382813 0 C 2.4375 0 1.710938 -0.335938 1.199219 -1.015625 C 0.679688 -1.691406 0.421875 -2.507813 0.425781 -3.460938 C 0.421875 -4.113281 0.539063 -4.714844 0.777344 -5.269531 C 1.011719 -5.816406 1.355469 -6.242188 1.804688 -6.546875 C 2.253906 -6.84375 2.78125 -6.996094 3.390625 -7 C 4.195313 -6.996094 4.859375 -6.667969 5.386719 -6.019531 L 5.386719 -6.84375 L 6.457031 -6.84375 L 6.457031 -0.929688 C 6.457031 0.136719 6.347656 0.890625 6.132813 1.335938 C 5.914063 1.78125 5.570313 2.132813 5.101563 2.390625 C 4.628906 2.648438 4.050781 2.777344 3.363281 2.777344 C 2.546875 2.777344 1.886719 2.59375 1.386719 2.226563 C 0.882813 1.859375 0.640625 1.304688 0.65625 0.566406 Z M 1.617188 -3.546875 C 1.617188 -2.644531 1.792969 -1.988281 2.152344 -1.578125 C 2.503906 -1.164063 2.953125 -0.960938 3.492188 -0.960938 C 4.023438 -0.960938 4.46875 -1.164063 4.832031 -1.574219 C 5.191406 -1.984375 5.371094 -2.628906 5.375 -3.507813 C 5.371094 -4.339844 5.1875 -4.96875 4.816406 -5.398438 C 4.445313 -5.820313 3.996094 -6.035156 3.472656 -6.039063 C 2.953125 -6.035156 2.515625 -5.824219 2.15625 -5.410156 C 1.796875 -4.988281 1.617188 -4.367188 1.617188 -3.546875 Z M 1.617188 -3.546875 "/>
</symbol>
</g>
</defs>
<g id="surface526">
<rect x="0" y="0" width="720" height="360" style="fill:rgb(100%,100%,100%);fill-opacity:1;stroke:none;"/>
<path style=" stroke:none;fill-rule:nonzero;fill:rgb(65.098039%,80.784314%,89.019608%);fill-opacity:0.501961;" d="M 156.25 188.851563 L 156.25 63.851563 L 151.390625 63.945313 L 146.539063 64.230469 L 141.703125 64.703125 L 136.886719 65.363281 L 141.5625 95.167969 L 142.230469 99.429688 L 142.894531 103.6875 L 146.234375 124.976563 L 146.902344 129.238281 L 151.578125 159.042969 L 152.246094 163.304688 L 152.914063 167.5625 L 153.578125 171.820313 Z M 156.25 188.851563 "/>
<path style=" stroke:none;fill-rule:nonzero;fill:rgb(12.156863%,47.058824%,70.588235%);fill-opacity:0.501961;" d="M 156.25 188.851563 L 153.578125 171.820313 L 152.914063 167.5625 L 152.246094 163.304688 L 151.578125 159.042969 L 146.902344 129.238281 L 146.234375 124.976563 L 142.894531 103.6875 L 142.230469 99.429688 L 141.5625 95.167969 L 136.886719 65.363281 L 132.316406 66.164063 L 127.78125 67.136719 L 123.28125 68.277344 L 118.832031 69.585938 L 114.429688 71.054688 L 110.085938 72.6875 L 105.808594 74.480469 L 101.597656 76.433594 L 97.464844 78.539063 L 93.410156 80.796875 L 97.746094 88.25 L 99.910156 91.972656 L 104.246094 99.425781 L 106.410156 103.152344 L 112.914063 114.332031 L 115.078125 118.058594 L 117.246094 121.785156 L 119.414063 125.507813 L 121.582031 129.234375 L 123.746094 132.960938 L 128.082031 140.414063 L 130.246094 144.140625 L 134.582031 151.59375 L 136.75 155.316406 L 138.914063 159.042969 L 145.417969 170.222656 L 147.582031 173.949219 L 151.917969 181.402344 L 154.082031 185.128906 Z M 156.25 188.851563 "/>
<path style=" stroke:none;fill-rule:nonzero;fill:rgb(69.803922%,87.45098%,54.117647%);fill-opacity:0.501961;" d="M 156.25 188.851563 L 154.082031 185.128906 L 151.917969 181.402344 L 147.582031 173.949219 L 145.417969 170.222656 L 138.914063 159.042969 L 136.75 155.316406 L 134.582031 151.59375 L 130.246094 144.140625 L 128.082031 140.414063 L 123.746094 132.960938 L 121.582031 129.234375 L 119.414063 125.507813 L 117.246094 121.785156 L 115.078125 118.058594 L 112.914063 114.332031 L 106.410156 103.152344 L 104.246094 99.425781 L 99.910156 91.972656 L 97.746094 88.25 L 93.410156 80.796875 L 88.382813 83.878906 L 93.0625 91.121094 L 95.402344 94.738281 L 97.746094 98.359375 L 100.085938 101.980469 L 102.425781 105.597656 L 107.105469 112.839844 L 109.445313 116.457031 L 114.125 123.699219 L 116.464844 127.316406 L 118.808594 130.9375 L 121.148438 134.558594 L 123.488281 138.175781 L 128.167969 145.417969 L 130.507813 149.035156 L 135.1875 156.277344 L 137.527344 159.894531 L 139.867188 163.515625 L 142.210938 167.132813 L 146.890625 174.375 L 149.230469 177.992188 L 153.910156 185.234375 Z M 156.25 188.851563 "/>
<path style=" stroke:none;fill-rule:nonzero;fill:rgb(55.294118%,82.745098%,78.039216%);fill-opacity:0.501961;" d="M 156.25 188.851563 L 153.910156 185.234375 L 149.230469 177.992188 L 146.890625 174.375 L 142.210938 167.132813 L 139.867188 163.515625 L 137.527344 159.894531 L 135.1875 156.277344 L 130.507813 149.035156 L 128.167969 145.417969 L 123.488281 138.175781 L 121.148438 134.558594 L 118.808594 130.9375 L 116.464844 127.316406 L 114.125 123.699219 L 109.445313 116.457031 L 107.105469 112.839844 L 102.425781 105.597656 L 100.085938 101.980469 L 97.746094 98.359375 L 95.402344 94.738281 L 93.0625 91.121094 L 88.382813 83.878906 L 84.832031 86.261719 L 81.367188 88.765625 L 77.988281 91.382813 L 74.703125 94.117188 L 71.511719 96.960938 L 68.417969 99.910156 L 65.429688 102.964844 L 62.542969 106.121094 L 59.769531 109.375 L 57.109375 112.71875 L 54.566406 116.15625 L 52.136719 119.675781 L 49.832031 123.273438 L 47.652344 126.953125 L 45.601563 130.699219 L 43.675781 134.519531 L 41.886719 138.398438 L 40.226563 142.339844 L 38.703125 146.332031 L 37.320313 150.378906 L 36.074219 154.46875 L 34.96875 158.597656 L 34.003906 162.761719 L 33.183594 166.957031 L 32.507813 171.175781 L 31.972656 175.417969 L 31.585938 179.675781 L 31.347656 183.945313 L 31.25 188.21875 L 31.304688 192.492188 L 31.5 196.761719 L 31.84375 201.023438 L 32.332031 205.269531 L 32.964844 209.496094 L 33.746094 213.699219 L 34.664063 217.875 L 35.730469 222.015625 L 36.933594 226.117188 L 38.277344 230.175781 L 39.757813 234.183594 L 41.378906 238.140625 L 43.128906 242.039063 L 45.015625 245.875 L 47.03125 249.648438 L 49.171875 253.34375 L 51.441406 256.96875 L 53.832031 260.511719 L 56.339844 263.972656 L 58.96875 267.34375 L 61.707031 270.625 L 64.558594 273.8125 L 67.519531 276.894531 L 70.582031 279.878906 L 73.742188 282.753906 L 77 285.519531 L 80.351563 288.175781 L 83.792969 290.710938 L 87.320313 293.128906 L 90.925781 295.425781 L 94.605469 297.597656 L 98.359375 299.640625 L 102.183594 301.554688 L 106.070313 303.339844 L 110.011719 304.988281 L 114.011719 306.5 L 118.058594 307.875 L 122.148438 309.113281 L 126.28125 310.207031 L 130.449219 311.160156 L 134.644531 311.972656 L 138.867188 312.640625 L 143.109375 313.160156 L 147.367188 313.539063 L 151.636719 313.769531 L 155.910156 313.851563 L 160.1875 313.792969 L 164.457031 313.585938 L 168.714844 313.230469 L 172.960938 312.730469 L 172.382813 308.460938 L 171.808594 304.1875 L 171.230469 299.917969 L 170.65625 295.644531 L 170.078125 291.375 L 169.503906 287.101563 L 168.925781 282.832031 L 168.351563 278.558594 L 167.773438 274.285156 L 167.199219 270.015625 L 166.621094 265.742188 L 166.046875 261.472656 L 165.46875 257.199219 L 164.894531 252.929688 L 164.316406 248.65625 L 163.742188 244.386719 L 163.164063 240.113281 L 162.589844 235.839844 L 162.011719 231.570313 L 161.4375 227.296875 L 160.859375 223.027344 L 160.285156 218.753906 L 159.707031 214.484375 L 159.132813 210.210938 L 158.554688 205.941406 L 157.980469 201.667969 L 157.402344 197.394531 L 156.828125 193.125 Z M 156.25 188.851563 "/>
<path style=" stroke:none;fill-rule:nonzero;fill:rgb(98.431373%,60.392157%,60%);fill-opacity:0.501961;" d="M 156.25 188.851563 L 156.828125 193.125 L 157.402344 197.394531 L 157.980469 201.667969 L 158.554688 205.941406 L 159.132813 210.210938 L 159.707031 214.484375 L 160.285156 218.753906 L 160.859375 223.027344 L 161.4375 227.296875 L 162.011719 231.570313 L 162.589844 235.839844 L 163.164063 240.113281 L 163.742188 244.386719 L 164.316406 248.65625 L 164.894531 252.929688 L 165.46875 257.199219 L 166.046875 261.472656 L 166.621094 265.742188 L 167.199219 270.015625 L 167.773438 274.285156 L 168.351563 278.558594 L 168.925781 282.832031 L 169.503906 287.101563 L 170.078125 291.375 L 170.65625 295.644531 L 171.230469 299.917969 L 171.808594 304.1875 L 172.382813 308.460938 L 172.960938 312.730469 L 177.15625 312.09375 L 181.328125 311.3125 L 185.472656 310.390625 L 189.582031 309.328125 L 193.652344 308.128906 L 197.679688 306.789063 L 201.660156 305.3125 L 205.585938 303.707031 L 209.457031 301.964844 L 213.269531 300.09375 L 217.011719 298.09375 L 220.683594 295.96875 L 224.285156 293.71875 L 227.804688 291.347656 L 231.242188 288.859375 L 234.597656 286.253906 L 237.859375 283.539063 L 241.023438 280.714844 L 244.09375 277.785156 L 247.0625 274.75 L 249.925781 271.617188 L 252.683594 268.390625 L 255.328125 265.070313 L 257.859375 261.660156 L 260.273438 258.171875 L 262.566406 254.597656 L 264.734375 250.953125 L 266.78125 247.234375 L 268.699219 243.445313 L 270.488281 239.597656 L 272.144531 235.691406 L 273.667969 231.726563 L 275.054688 227.71875 L 276.308594 223.660156 L 277.417969 219.566406 L 278.394531 215.433594 L 279.226563 211.273438 L 279.914063 207.082031 L 280.460938 202.875 L 280.867188 198.648438 L 281.128906 194.414063 L 281.246094 190.171875 L 281.21875 185.925781 L 281.046875 181.6875 L 280.730469 177.453125 L 280.273438 173.234375 L 279.671875 169.03125 L 278.925781 164.851563 L 278.039063 160.703125 L 277.015625 156.582031 L 275.847656 152.503906 L 271.726563 153.757813 L 267.601563 155.007813 L 259.351563 157.515625 L 255.230469 158.769531 L 242.855469 162.53125 L 238.734375 163.785156 L 234.609375 165.039063 L 230.484375 166.289063 L 222.234375 168.796875 L 218.113281 170.050781 L 205.738281 173.8125 L 201.617188 175.066406 L 197.492188 176.320313 L 193.367188 177.570313 L 189.242188 178.824219 L 185.121094 180.078125 L 172.746094 183.839844 L 168.625 185.09375 L 160.375 187.601563 Z M 156.25 188.851563 "/>
<path style=" stroke:none;fill-rule:nonzero;fill:rgb(89.019608%,10.196078%,10.980392%);fill-opacity:0.501961;" d="M 156.25 188.851563 L 160.375 187.601563 L 168.625 185.09375 L 172.746094 183.839844 L 185.121094 180.078125 L 189.242188 178.824219 L 193.367188 177.570313 L 197.492188 176.320313 L 201.617188 175.066406 L 205.738281 173.8125 L 218.113281 170.050781 L 222.234375 168.796875 L 230.484375 166.289063 L 234.609375 165.039063 L 238.734375 163.785156 L 242.855469 162.53125 L 255.230469 158.769531 L 259.351563 157.515625 L 267.601563 155.007813 L 271.726563 153.757813 L 275.847656 152.503906 L 274.546875 148.46875 L 273.113281 144.480469 L 271.539063 140.546875 L 269.835938 136.664063 L 268 132.84375 L 266.039063 129.089844 L 263.949219 125.402344 L 261.738281 121.785156 L 258.097656 124.097656 L 254.460938 126.414063 L 239.914063 135.664063 L 236.273438 137.976563 L 221.726563 147.226563 L 218.085938 149.539063 L 203.539063 158.789063 L 199.898438 161.101563 L 181.714844 172.664063 L 178.074219 174.976563 L 163.527344 184.226563 L 159.886719 186.539063 Z M 156.25 188.851563 "/>
<path style=" stroke:none;fill-rule:nonzero;fill:rgb(99.215686%,74.901961%,43.529412%);fill-opacity:0.501961;" d="M 156.25 188.851563 L 159.886719 186.539063 L 163.527344 184.226563 L 178.074219 174.976563 L 181.714844 172.664063 L 199.898438 161.101563 L 203.539063 158.789063 L 218.085938 149.539063 L 221.726563 147.226563 L 236.273438 137.976563 L 239.914063 135.664063 L 254.460938 126.414063 L 258.097656 124.097656 L 261.738281 121.785156 L 260.429688 119.773438 L 256.839844 122.15625 L 249.652344 126.921875 L 246.0625 129.304688 L 242.46875 131.683594 L 238.875 134.066406 L 235.285156 136.449219 L 228.097656 141.214844 L 224.507813 143.59375 L 217.320313 148.359375 L 213.730469 150.742188 L 210.136719 153.125 L 206.542969 155.503906 L 202.953125 157.886719 L 195.765625 162.652344 L 192.175781 165.03125 L 184.988281 169.796875 L 181.398438 172.179688 L 177.804688 174.5625 L 174.214844 176.941406 L 167.027344 181.707031 L 163.4375 184.089844 L 159.84375 186.472656 Z M 156.25 188.851563 "/>
<path style=" stroke:none;fill-rule:nonzero;fill:rgb(100%,49.803922%,0%);fill-opacity:0.501961;" d="M 156.25 188.851563 L 159.84375 186.472656 L 163.4375 184.089844 L 167.027344 181.707031 L 174.214844 176.941406 L 177.804688 174.5625 L 181.398438 172.179688 L 184.988281 169.796875 L 192.175781 165.03125 L 195.765625 162.652344 L 202.953125 157.886719 L 206.542969 155.503906 L 210.136719 153.125 L 213.730469 150.742188 L 217.320313 148.359375 L 224.507813 143.59375 L 228.097656 141.214844 L 235.285156 136.449219 L 238.875 134.066406 L 242.46875 131.683594 L 246.0625 129.304688 L 249.652344 126.921875 L 256.839844 122.15625 L 260.429688 119.773438 L 259.023438 117.699219 L 255.480469 120.152344 L 251.933594 122.605469 L 241.304688 129.964844 L 237.757813 132.417969 L 234.214844 134.871094 L 230.671875 137.328125 L 223.585938 142.234375 L 220.039063 144.6875 L 209.410156 152.046875 L 205.863281 154.503906 L 195.234375 161.863281 L 191.6875 164.316406 L 181.058594 171.675781 L 177.515625 174.132813 L 173.96875 176.585938 L 163.339844 183.945313 L 159.792969 186.398438 Z M 156.25 188.851563 "/>
<path style=" stroke:none;fill-rule:nonzero;fill:rgb(50.196078%,50.196078%,50.196078%);fill-opacity:0.501961;" d="M 156.25 188.851563 L 159.792969 186.398438 L 163.339844 183.945313 L 173.96875 176.585938 L 177.515625 174.132813 L 181.058594 171.675781 L 191.6875 164.316406 L 195.234375 161.863281 L 205.863281 154.503906 L 209.410156 152.046875 L 220.039063 144.6875 L 223.585938 142.234375 L 230.671875 137.328125 L 234.214844 134.871094 L 237.757813 132.417969 L 241.304688 129.964844 L 251.933594 122.605469 L 255.480469 120.152344 L 259.023438 117.699219 L 256.527344 114.222656 L 253.917969 110.835938 L 251.191406 107.542969 L 248.355469 104.34375 L 245.410156 101.242188 L 242.359375 98.242188 L 239.210938 95.351563 L 235.964844 92.566406 L 232.625 89.898438 L 229.195313 87.34375 L 225.679688 84.90625 L 222.082031 82.59375 L 210.734375 100.914063 L 208.460938 104.578125 L 194.84375 126.5625 L 192.570313 130.226563 L 178.953125 152.210938 L 176.679688 155.875 L 163.0625 177.859375 L 160.789063 181.523438 Z M 156.25 188.851563 "/>
<path style=" stroke:none;fill-rule:nonzero;fill:rgb(79.215686%,69.803922%,83.921569%);fill-opacity:0.501961;" d="M 156.25 188.851563 L 160.789063 181.523438 L 163.0625 177.859375 L 176.679688 155.875 L 178.953125 152.210938 L 192.570313 130.226563 L 194.84375 126.5625 L 208.460938 104.578125 L 210.734375 100.914063 L 222.082031 82.59375 L 217.675781 79.988281 L 213.167969 77.5625 L 208.566406 75.328125 L 203.152344 87.070313 L 201.351563 90.984375 L 199.546875 94.898438 L 197.742188 98.816406 L 192.328125 110.558594 L 190.527344 114.472656 L 188.722656 118.386719 L 186.917969 122.304688 L 183.308594 130.132813 L 181.507813 134.046875 L 177.898438 141.875 L 176.09375 145.792969 L 174.289063 149.707031 L 172.488281 153.621094 L 167.074219 165.363281 L 165.269531 169.28125 L 163.464844 173.195313 L 161.664063 177.109375 Z M 156.25 188.851563 "/>
<path style=" stroke:none;fill-rule:nonzero;fill:rgb(41.568627%,23.921569%,60.392157%);fill-opacity:0.501961;" d="M 156.25 188.851563 L 161.664063 177.109375 L 163.464844 173.195313 L 165.269531 169.28125 L 167.074219 165.363281 L 172.488281 153.621094 L 174.289063 149.707031 L 176.09375 145.792969 L 177.898438 141.875 L 181.507813 134.046875 L 183.308594 130.132813 L 186.917969 122.304688 L 188.722656 118.386719 L 190.527344 114.472656 L 192.328125 110.558594 L 197.742188 98.816406 L 199.546875 94.898438 L 201.351563 90.984375 L 203.152344 87.070313 L 208.566406 75.328125 L 204.449219 73.519531 L 200.265625 71.859375 L 196.027344 70.351563 L 191.738281 68.996094 L 187.40625 67.796875 L 183.03125 66.753906 L 178.621094 65.871094 L 174.179688 65.144531 L 169.71875 64.578125 L 165.238281 64.175781 L 160.746094 63.933594 L 156.25 63.851563 Z M 156.25 188.851563 "/>
<g style="fill:rgb(0%,0%,0%);fill-opacity:1;">
  <use xlink:href="#glyph0-1" x="318.171875" y="95.011719"/>
  <use xlink:href="#glyph0-2" x="321.228027" y="95.011719"/>
  <use xlink:href="#glyph0-3" x="326.728027" y="95.011719"/>
  <use xlink:href="#glyph0-4" x="332.845703" y="95.011719"/>
</g>
<path style=" stroke:none;fill-rule:nonzero;fill:rgb(65.098039%,80.784314%,89.019608%);fill-opacity:0.501961;" d="M 318.878906 118.21875 L 334.742188 118.21875 L 334.742188 102.355469 L 318.878906 102.355469 Z M 318.878906 118.21875 "/>
<path style=" stroke:none;fill-rule:nonzero;fill:rgb(12.156863%,47.058824%,70.588235%);fill-opacity:0.501961;" d="M 318.878906 135.5 L 334.742188 135.5 L 334.742188 119.636719 L 318.878906 119.636719 Z M 318.878906 135.5 "/>
<path style=" stroke:none;fill-rule:nonzero;fill:rgb(69.803922%,87.45098%,54.117647%);fill-opacity:0.501961;" d="M 318.878906 152.777344 L 334.742188 152.777344 L 334.742188 136.914063 L 318.878906 136.914063 Z M 318.878906 152.777344 "/>
<path style=" stroke:none;fill-rule:nonzero;fill:rgb(55.294118%,82.745098%,78.039216%);fill-opacity:0.501961;" d="M 318.878906 170.058594 L 334.742188 170.058594 L 334.742188 154.195313 L 318.878906 154.195313 Z M 318.878906 170.058594 "/>
<path style=" stroke:none;fill-rule:nonzero;fill:rgb(98.431373%,60.392157%,60%);fill-opacity:0.501961;" d="M 318.878906 187.339844 L 334.742188 187.339844 L 334.742188 171.476563 L 318.878906 171.476563 Z M 318.878906 187.339844 "/>
<path style=" stroke:none;fill-rule:nonzero;fill:rgb(89.019608%,10.196078%,10.980392%);fill-opacity:0.501961;" d="M 318.878906 204.617188 L 334.742188 204.617188 L 334.742188 188.753906 L 318.878906 188.753906 Z M 318.878906 204.617188 "/>
<path style=" stroke:none;fill-rule:nonzero;fill:rgb(99.215686%,74.901961%,43.529412%);fill-opacity:0.501961;" d="M 318.878906 221.898438 L 334.742188 221.898438 L 334.742188 206.035156 L 318.878906 206.035156 Z M 318.878906 221.898438 "/>
<path style=" stroke:none;fill-rule:nonzero;fill:rgb(100%,49.803922%,0%);fill-opacity:0.501961;" d="M 318.878906 239.179688 L 334.742188 239.179688 L 334.742188 223.316406 L 318.878906 223.316406 Z M 318.878906 239.179688 "/>
<path style=" stroke:none;fill-rule:nonzero;fill:rgb(50.196078%,50.196078%,50.196078%);fill-opacity:0.501961;" d="M 318.878906 256.457031 L 334.742188 256.457031 L 334.742188 240.59375 L 318.878906 240.59375 Z M 318.878906 256.457031 "/>
<path style=" stroke:none;fill-rule:nonzero;fill:rgb(79.215686%,69.803922%,83.921569%);fill-opacity:0.501961;" d="M 318.878906 273.738281 L 334.742188 273.738281 L 334.742188 257.875 L 318.878906 257.875 Z M 318.878906 273.738281 "/>
<path style=" stroke:none;fill-rule:nonzero;fill:rgb(41.568627%,23.921569%,60.392157%);fill-opacity:0.501961;" d="M 318.878906 291.019531 L 334.742188 291.019531 L 334.742188 275.15625 L 318.878906 275.15625 Z M 318.878906 291.019531 "/>
<g style="fill:rgb(0%,0%,0%);fill-opacity:1;">
  <use xlink:href="#glyph1-1" x="340.929688" y="113.4375"/>
  <use xlink:href="#glyph1-2" x="347.284766" y="113.4375"/>
  <use xlink:href="#glyph1-3" x="353.154297" y="113.4375"/>
</g>
<g style="fill:rgb(0%,0%,0%);fill-opacity:1;">
  <use xlink:href="#glyph1-1" x="340.929688" y="130.71875"/>
  <use xlink:href="#glyph1-4" x="347.284766" y="130.71875"/>
</g>
<g style="fill:rgb(0%,0%,0%);fill-opacity:1;">
  <use xlink:href="#glyph1-1" x="340.929688" y="147.996094"/>
  <use xlink:href="#glyph1-5" x="347.284766" y="147.996094"/>
  <use xlink:href="#glyph1-6" x="352.178906" y="147.996094"/>
</g>
<g style="fill:rgb(0%,0%,0%);fill-opacity:1;">
  <use xlink:href="#glyph1-7" x="340.929688" y="165.277344"/>
  <use xlink:href="#glyph1-2" x="347.284766" y="165.277344"/>
  <use xlink:href="#glyph1-8" x="353.154297" y="165.277344"/>
</g>
<g style="fill:rgb(0%,0%,0%);fill-opacity:1;">
  <use xlink:href="#glyph1-9" x="340.929688" y="182.558594"/>
  <use xlink:href="#glyph1-1" x="346.799219" y="182.558594"/>
</g>
<g style="fill:rgb(0%,0%,0%);fill-opacity:1;">
  <use xlink:href="#glyph1-9" x="340.929688" y="199.835938"/>
  <use xlink:href="#glyph1-4" x="346.799219" y="199.835938"/>
</g>
<g style="fill:rgb(0%,0%,0%);fill-opacity:1;">
  <use xlink:href="#glyph1-9" x="340.929688" y="217.117188"/>
  <use xlink:href="#glyph1-8" x="346.799219" y="217.117188"/>
</g>
<g style="fill:rgb(0%,0%,0%);fill-opacity:1;">
  <use xlink:href="#glyph1-9" x="340.929688" y="234.398438"/>
  <use xlink:href="#glyph1-10" x="346.799219" y="234.398438"/>
</g>
<g style="fill:rgb(0%,0%,0%);fill-opacity:1;">
  <use xlink:href="#glyph1-9" x="340.929688" y="251.675781"/>
  <use xlink:href="#glyph1-11" x="346.799219" y="251.675781"/>
</g>
<g style="fill:rgb(0%,0%,0%);fill-opacity:1;">
  <use xlink:href="#glyph1-11" x="340.929688" y="268.957031"/>
  <use xlink:href="#glyph1-12" x="346.799219" y="268.957031"/>
</g>
<g style="fill:rgb(0%,0%,0%);fill-opacity:1;">
  <use xlink:href="#glyph1-13" x="340.929688" y="286.238281"/>
  <use xlink:href="#glyph1-2" x="346.305078" y="286.238281"/>
  <use xlink:href="#glyph1-8" x="352.174609" y="286.238281"/>
</g>
<g style="fill:rgb(0%,0%,0%);fill-opacity:1;">
  <use xlink:href="#glyph2-1" x="0" y="29.824219"/>
  <use xlink:href="#glyph2-2" x="8.804297" y="29.824219"/>
  <use xlink:href="#glyph2-3" x="16.145508" y="29.824219"/>
  <use xlink:href="#glyph2-4" x="27.141211" y="29.824219"/>
  <use xlink:href="#glyph2-5" x="34.482422" y="29.824219"/>
  <use xlink:href="#glyph2-6" x="37.415039" y="29.824219"/>
  <use xlink:href="#glyph2-7" x="44.75625" y="29.824219"/>
  <use xlink:href="#glyph2-8" x="52.819336" y="29.824219"/>
  <use xlink:href="#glyph2-4" x="59.419336" y="29.824219"/>
  <use xlink:href="#glyph2-6" x="66.760547" y="29.824219"/>
  <use xlink:href="#glyph2-9" x="74.101758" y="29.824219"/>
  <use xlink:href="#glyph2-10" x="81.442969" y="29.824219"/>
  <use xlink:href="#glyph2-6" x="90.975586" y="29.824219"/>
  <use xlink:href="#glyph2-11" x="98.316797" y="29.824219"/>
  <use xlink:href="#glyph2-12" x="105.658008" y="29.824219"/>
  <use xlink:href="#glyph2-13" x="110.053711" y="29.824219"/>
  <use xlink:href="#glyph2-14" x="117.394922" y="29.824219"/>
  <use xlink:href="#glyph2-9" x="124.736133" y="29.824219"/>
  <use xlink:href="#glyph2-1" x="132.077344" y="29.824219"/>
  <use xlink:href="#glyph2-5" x="140.881641" y="29.824219"/>
  <use xlink:href="#glyph2-6" x="143.814258" y="29.824219"/>
  <use xlink:href="#glyph2-6" x="151.155469" y="29.824219"/>
  <use xlink:href="#glyph2-4" x="158.49668" y="29.824219"/>
  <use xlink:href="#glyph2-15" x="165.837891" y="29.824219"/>
  <use xlink:href="#glyph2-13" x="175.370508" y="29.824219"/>
  <use xlink:href="#glyph2-14" x="182.711719" y="29.824219"/>
  <use xlink:href="#glyph2-16" x="190.05293" y="29.824219"/>
  <use xlink:href="#glyph2-17" x="197.394141" y="29.824219"/>
  <use xlink:href="#glyph2-18" x="200.326758" y="29.824219"/>
  <use xlink:href="#glyph2-17" x="203.994141" y="29.824219"/>
  <use xlink:href="#glyph2-13" x="206.926758" y="29.824219"/>
  <use xlink:href="#glyph2-14" x="214.267969" y="29.824219"/>
  <use xlink:href="#glyph2-9" x="221.60918" y="29.824219"/>
  <use xlink:href="#glyph2-19" x="228.950391" y="29.824219"/>
  <use xlink:href="#glyph2-6" x="238.483008" y="29.824219"/>
  <use xlink:href="#glyph2-4" x="245.824219" y="29.824219"/>
  <use xlink:href="#glyph2-12" x="253.16543" y="29.824219"/>
  <use xlink:href="#glyph2-17" x="257.561133" y="29.824219"/>
  <use xlink:href="#glyph2-20" x="260.49375" y="29.824219"/>
  <use xlink:href="#glyph2-6" x="267.09375" y="29.824219"/>
  <use xlink:href="#glyph2-16" x="274.434961" y="29.824219"/>
  <use xlink:href="#glyph2-21" x="281.776172" y="29.824219"/>
  <use xlink:href="#glyph2-22" x="285.443555" y="29.824219"/>
  <use xlink:href="#glyph2-10" x="289.839258" y="29.824219"/>
  <use xlink:href="#glyph2-13" x="299.371875" y="29.824219"/>
  <use xlink:href="#glyph2-21" x="306.713086" y="29.824219"/>
  <use xlink:href="#glyph2-23" x="310.380469" y="29.824219"/>
  <use xlink:href="#glyph2-24" x="318.443555" y="29.824219"/>
  <use xlink:href="#glyph2-25" x="327.247852" y="29.824219"/>
</g>
<path style=" stroke:none;fill-rule:nonzero;fill:rgb(65.098039%,80.784314%,89.019608%);fill-opacity:0.501961;" d="M 516.25 188.851563 L 516.25 63.851563 L 511.328125 63.949219 L 506.410156 64.238281 L 501.511719 64.722656 L 496.632813 65.402344 L 491.785156 66.269531 L 494.316406 78.949219 L 495.160156 83.179688 L 501.910156 116.992188 L 502.753906 121.222656 L 509.503906 155.035156 L 510.347656 159.265625 L 511.1875 163.492188 Z M 516.25 188.851563 "/>
<path style=" stroke:none;fill-rule:nonzero;fill:rgb(12.156863%,47.058824%,70.588235%);fill-opacity:0.501961;" d="M 516.25 188.851563 L 511.1875 163.492188 L 510.347656 159.265625 L 509.503906 155.035156 L 502.753906 121.222656 L 501.910156 116.992188 L 495.160156 83.179688 L 494.316406 78.949219 L 491.785156 66.269531 L 487.578125 67.183594 L 483.40625 68.246094 L 479.273438 69.449219 L 475.179688 70.792969 L 471.140625 72.277344 L 467.152344 73.898438 L 463.222656 75.660156 L 459.355469 77.550781 L 455.554688 79.578125 L 451.828125 81.734375 L 448.175781 84.015625 L 444.605469 86.421875 L 441.121094 88.949219 L 437.722656 91.597656 L 434.421875 94.359375 L 431.214844 97.234375 L 428.109375 100.21875 L 425.109375 103.304688 L 422.214844 106.496094 L 419.4375 109.785156 L 416.769531 113.164063 L 414.222656 116.636719 L 411.796875 120.191406 L 409.492188 123.832031 L 413.175781 126.074219 L 420.535156 130.558594 L 424.21875 132.800781 L 427.898438 135.042969 L 431.582031 137.285156 L 438.941406 141.769531 L 442.625 144.011719 L 446.304688 146.253906 L 449.988281 148.496094 L 453.667969 150.738281 L 457.351563 152.980469 L 464.710938 157.464844 L 468.394531 159.707031 L 472.074219 161.949219 L 475.757813 164.191406 L 483.117188 168.675781 L 486.800781 170.917969 L 490.480469 173.15625 L 494.164063 175.398438 L 497.84375 177.640625 L 501.527344 179.882813 L 508.886719 184.367188 L 512.570313 186.609375 Z M 516.25 188.851563 "/>
<path style=" stroke:none;fill-rule:nonzero;fill:rgb(69.803922%,87.45098%,54.117647%);fill-opacity:0.501961;" d="M 516.25 188.851563 L 512.570313 186.609375 L 508.886719 184.367188 L 501.527344 179.882813 L 497.84375 177.640625 L 494.164063 175.398438 L 490.480469 173.15625 L 486.800781 170.917969 L 483.117188 168.675781 L 475.757813 164.191406 L 472.074219 161.949219 L 468.394531 159.707031 L 464.710938 157.464844 L 457.351563 152.980469 L 453.667969 150.738281 L 449.988281 148.496094 L 446.304688 146.253906 L 442.625 144.011719 L 438.941406 141.769531 L 431.582031 137.285156 L 427.898438 135.042969 L 424.21875 132.800781 L 420.535156 130.558594 L 413.175781 126.074219 L 409.492188 123.832031 L 405.988281 129.964844 L 409.792969 131.996094 L 417.394531 136.058594 L 421.199219 138.089844 L 425 140.117188 L 428.800781 142.148438 L 432.605469 144.179688 L 440.207031 148.242188 L 444.011719 150.273438 L 447.8125 152.300781 L 451.613281 154.332031 L 455.417969 156.363281 L 459.21875 158.394531 L 463.023438 160.425781 L 466.824219 162.457031 L 470.625 164.484375 L 474.429688 166.515625 L 482.03125 170.578125 L 485.835938 172.609375 L 489.636719 174.640625 L 493.4375 176.667969 L 497.242188 178.699219 L 504.84375 182.761719 L 508.648438 184.792969 L 512.449219 186.824219 Z M 516.25 188.851563 "/>
<path style=" stroke:none;fill-rule:nonzero;fill:rgb(55.294118%,82.745098%,78.039216%);fill-opacity:0.501961;" d="M 516.25 188.851563 L 512.449219 186.824219 L 508.648438 184.792969 L 504.84375 182.761719 L 497.242188 178.699219 L 493.4375 176.667969 L 489.636719 174.640625 L 485.835938 172.609375 L 482.03125 170.578125 L 474.429688 166.515625 L 470.625 164.484375 L 466.824219 162.457031 L 463.023438 160.425781 L 459.21875 158.394531 L 455.417969 156.363281 L 451.613281 154.332031 L 447.8125 152.300781 L 444.011719 150.273438 L 440.207031 148.242188 L 432.605469 144.179688 L 428.800781 142.148438 L 425 140.117188 L 421.199219 138.089844 L 417.394531 136.058594 L 409.792969 131.996094 L 405.988281 129.964844 L 404.039063 133.773438 L 402.21875 137.644531 L 400.535156 141.578125 L 398.984375 145.566406 L 397.570313 149.605469 L 396.296875 153.691406 L 395.164063 157.816406 L 394.171875 161.976563 L 393.324219 166.171875 L 392.621094 170.390625 L 392.0625 174.632813 L 391.648438 178.890625 L 391.378906 183.160156 L 391.257813 187.4375 L 391.28125 191.714844 L 391.453125 195.992188 L 391.773438 200.257813 L 392.234375 204.511719 L 392.84375 208.746094 L 393.597656 212.957031 L 394.492188 217.140625 L 395.53125 221.292969 L 396.714844 225.40625 L 398.035156 229.472656 L 399.492188 233.496094 L 401.089844 237.464844 L 402.820313 241.378906 L 404.683594 245.230469 L 406.679688 249.015625 L 408.804688 252.730469 L 411.050781 256.367188 L 413.425781 259.929688 L 415.917969 263.40625 L 418.527344 266.796875 L 421.25 270.09375 L 424.085938 273.300781 L 427.03125 276.402344 L 430.082031 279.40625 L 433.230469 282.300781 L 436.476563 285.089844 L 439.816406 287.761719 L 445.089844 280.941406 L 447.722656 277.53125 L 450.359375 274.121094 L 452.996094 270.707031 L 455.628906 267.296875 L 463.539063 257.066406 L 466.171875 253.65625 L 471.445313 246.835938 L 474.082031 243.421875 L 476.714844 240.011719 L 481.988281 233.191406 L 484.621094 229.78125 L 492.53125 219.550781 L 495.164063 216.136719 L 503.074219 205.90625 L 505.707031 202.496094 L 510.980469 195.675781 L 513.613281 192.265625 Z M 516.25 188.851563 "/>
<path style=" stroke:none;fill-rule:nonzero;fill:rgb(98.431373%,60.392157%,60%);fill-opacity:0.501961;" d="M 516.25 188.851563 L 513.613281 192.265625 L 510.980469 195.675781 L 505.707031 202.496094 L 503.074219 205.90625 L 495.164063 216.136719 L 492.53125 219.550781 L 484.621094 229.78125 L 481.988281 233.191406 L 476.714844 240.011719 L 474.082031 243.421875 L 471.445313 246.835938 L 466.171875 253.65625 L 463.539063 257.066406 L 455.628906 267.296875 L 452.996094 270.707031 L 450.359375 274.121094 L 447.722656 277.53125 L 445.089844 280.941406 L 439.816406 287.761719 L 443.253906 290.324219 L 446.777344 292.769531 L 450.378906 295.089844 L 454.0625 297.285156 L 457.816406 299.355469 L 461.640625 301.292969 L 465.527344 303.101563 L 469.476563 304.773438 L 473.476563 306.308594 L 477.53125 307.707031 L 481.628906 308.964844 L 485.765625 310.078125 L 489.941406 311.054688 L 494.148438 311.882813 L 498.378906 312.570313 L 502.632813 313.109375 L 506.902344 313.503906 L 511.179688 313.75 L 515.46875 313.851563 L 519.753906 313.804688 L 524.035156 313.609375 L 528.308594 313.269531 L 532.570313 312.785156 L 536.808594 312.152344 L 541.023438 311.375 L 545.210938 310.453125 L 549.363281 309.386719 L 553.476563 308.183594 L 557.546875 306.835938 L 561.570313 305.347656 L 565.539063 303.726563 L 569.449219 301.96875 L 573.292969 300.078125 L 577.074219 298.058594 L 580.785156 295.90625 L 584.417969 293.632813 L 587.96875 291.234375 L 591.4375 288.714844 L 594.820313 286.074219 L 598.105469 283.324219 L 601.296875 280.460938 L 604.386719 277.492188 L 607.375 274.417969 L 610.257813 271.242188 L 613.027344 267.972656 L 615.683594 264.605469 L 618.222656 261.152344 L 620.640625 257.613281 L 622.9375 253.992188 L 625.109375 250.296875 L 627.152344 246.527344 L 629.0625 242.691406 L 630.84375 238.789063 L 632.488281 234.832031 L 633.996094 230.820313 L 635.367188 226.757813 L 636.597656 222.648438 L 637.683594 218.503906 L 638.628906 214.320313 L 639.429688 210.109375 L 640.085938 205.875 L 640.597656 201.617188 L 640.960938 197.347656 L 636.664063 197.054688 L 597.957031 194.417969 L 593.660156 194.125 L 550.652344 191.195313 L 546.355469 190.902344 Z M 516.25 188.851563 "/>
<path style=" stroke:none;fill-rule:nonzero;fill:rgb(89.019608%,10.196078%,10.980392%);fill-opacity:0.501961;" d="M 516.25 188.851563 L 546.355469 190.902344 L 550.652344 191.195313 L 593.660156 194.125 L 597.957031 194.417969 L 636.664063 197.054688 L 640.960938 197.347656 L 641.179688 193.09375 L 641.25 188.835938 L 641.179688 184.578125 L 640.960938 180.324219 L 640.597656 176.082031 L 640.089844 171.851563 L 639.4375 167.644531 L 638.644531 163.460938 L 637.710938 159.304688 L 636.632813 155.1875 L 632.480469 156.347656 L 628.332031 157.507813 L 624.179688 158.667969 L 620.027344 159.832031 L 615.878906 160.992188 L 603.421875 164.472656 L 599.273438 165.636719 L 590.96875 167.957031 L 586.820313 169.117188 L 578.515625 171.4375 L 574.367188 172.601563 L 566.0625 174.921875 L 561.914063 176.082031 L 557.761719 177.242188 L 553.609375 178.40625 L 549.460938 179.566406 L 541.15625 181.886719 L 537.007813 183.046875 L 532.855469 184.210938 L 528.703125 185.371094 L 524.554688 186.53125 Z M 516.25 188.851563 "/>
<path style=" stroke:none;fill-rule:nonzero;fill:rgb(99.215686%,74.901961%,43.529412%);fill-opacity:0.501961;" d="M 516.25 188.851563 L 524.554688 186.53125 L 528.703125 185.371094 L 532.855469 184.210938 L 537.007813 183.046875 L 541.15625 181.886719 L 549.460938 179.566406 L 553.609375 178.40625 L 557.761719 177.242188 L 561.914063 176.082031 L 566.0625 174.921875 L 574.367188 172.601563 L 578.515625 171.4375 L 586.820313 169.117188 L 590.96875 167.957031 L 599.273438 165.636719 L 603.421875 164.472656 L 615.878906 160.992188 L 620.027344 159.832031 L 624.179688 158.667969 L 628.332031 157.507813 L 632.480469 156.347656 L 636.632813 155.1875 L 635.6875 151.972656 L 631.570313 153.246094 L 627.449219 154.519531 L 623.332031 155.789063 L 619.214844 157.0625 L 615.09375 158.332031 L 610.976563 159.605469 L 606.859375 160.875 L 602.738281 162.148438 L 598.621094 163.417969 L 594.503906 164.691406 L 590.382813 165.964844 L 586.265625 167.234375 L 582.148438 168.507813 L 578.027344 169.777344 L 573.910156 171.050781 L 569.792969 172.320313 L 565.671875 173.59375 L 561.554688 174.863281 L 557.4375 176.136719 L 553.316406 177.40625 L 545.082031 179.953125 L 540.960938 181.222656 L 536.84375 182.496094 L 532.726563 183.765625 L 528.605469 185.039063 L 524.488281 186.308594 L 520.371094 187.582031 Z M 516.25 188.851563 "/>
<path style=" stroke:none;fill-rule:nonzero;fill:rgb(100%,49.803922%,0%);fill-opacity:0.501961;" d="M 516.25 188.851563 L 520.371094 187.582031 L 524.488281 186.308594 L 528.605469 185.039063 L 532.726563 183.765625 L 536.84375 182.496094 L 540.960938 181.222656 L 545.082031 179.953125 L 553.316406 177.40625 L 557.4375 176.136719 L 561.554688 174.863281 L 565.671875 173.59375 L 569.792969 172.320313 L 573.910156 171.050781 L 578.027344 169.777344 L 582.148438 168.507813 L 586.265625 167.234375 L 590.382813 165.964844 L 594.503906 164.691406 L 598.621094 163.417969 L 602.738281 162.148438 L 606.859375 160.875 L 610.976563 159.605469 L 615.09375 158.332031 L 619.214844 157.0625 L 623.332031 155.789063 L 627.449219 154.519531 L 631.570313 153.246094 L 635.6875 151.972656 L 634.714844 148.957031 L 626.542969 151.707031 L 622.460938 153.085938 L 610.203125 157.210938 L 606.121094 158.585938 L 602.035156 159.960938 L 597.949219 161.339844 L 593.863281 162.714844 L 589.78125 164.089844 L 581.609375 166.839844 L 577.523438 168.21875 L 573.441406 169.59375 L 561.183594 173.71875 L 557.101563 175.097656 L 544.84375 179.222656 L 540.761719 180.597656 L 536.675781 181.972656 L 532.589844 183.351563 L 528.503906 184.726563 L 524.421875 186.101563 Z M 516.25 188.851563 "/>
<path style=" stroke:none;fill-rule:nonzero;fill:rgb(50.196078%,50.196078%,50.196078%);fill-opacity:0.501961;" d="M 516.25 188.851563 L 524.421875 186.101563 L 528.503906 184.726563 L 532.589844 183.351563 L 536.675781 181.972656 L 540.761719 180.597656 L 544.84375 179.222656 L 557.101563 175.097656 L 561.183594 173.71875 L 573.441406 169.59375 L 577.523438 168.21875 L 581.609375 166.839844 L 589.78125 164.089844 L 593.863281 162.714844 L 597.949219 161.339844 L 602.035156 159.960938 L 606.121094 158.585938 L 610.203125 157.210938 L 622.460938 153.085938 L 626.542969 151.707031 L 634.714844 148.957031 L 633.273438 144.910156 L 631.695313 140.917969 L 629.980469 136.980469 L 628.128906 133.101563 L 626.148438 129.292969 L 624.039063 125.550781 L 621.800781 121.886719 L 619.4375 118.300781 L 616.953125 114.796875 L 614.347656 111.378906 L 611.628906 108.054688 L 608.796875 104.828125 L 605.855469 101.695313 L 602.808594 98.667969 L 599.660156 95.75 L 596.410156 92.9375 L 593.648438 96.246094 L 590.882813 99.554688 L 588.117188 102.859375 L 585.355469 106.167969 L 579.824219 112.785156 L 577.0625 116.089844 L 574.296875 119.398438 L 571.535156 122.707031 L 568.769531 126.011719 L 566.003906 129.320313 L 563.242188 132.628906 L 560.476563 135.933594 L 557.714844 139.242188 L 554.949219 142.550781 L 552.183594 145.855469 L 549.421875 149.164063 L 546.65625 152.472656 L 543.890625 155.777344 L 541.128906 159.085938 L 538.363281 162.394531 L 535.601563 165.703125 L 532.835938 169.007813 L 530.070313 172.316406 L 527.308594 175.625 L 524.542969 178.929688 L 521.777344 182.238281 L 519.015625 185.546875 Z M 516.25 188.851563 "/>
<path style=" stroke:none;fill-rule:nonzero;fill:rgb(79.215686%,69.803922%,83.921569%);fill-opacity:0.501961;" d="M 516.25 188.851563 L 519.015625 185.546875 L 521.777344 182.238281 L 524.542969 178.929688 L 527.308594 175.625 L 530.070313 172.316406 L 532.835938 169.007813 L 535.601563 165.703125 L 538.363281 162.394531 L 541.128906 159.085938 L 543.890625 155.777344 L 546.65625 152.472656 L 549.421875 149.164063 L 552.183594 145.855469 L 554.949219 142.550781 L 557.714844 139.242188 L 560.476563 135.933594 L 563.242188 132.628906 L 566.003906 129.320313 L 568.769531 126.011719 L 571.535156 122.707031 L 574.296875 119.398438 L 577.0625 116.089844 L 579.824219 112.785156 L 585.355469 106.167969 L 588.117188 102.859375 L 590.882813 99.554688 L 593.648438 96.246094 L 596.410156 92.9375 L 592.742188 89.988281 L 588.96875 87.179688 L 585.085938 84.515625 L 581.109375 81.996094 L 577.042969 79.628906 L 574.945313 83.398438 L 572.847656 87.164063 L 570.753906 90.929688 L 568.65625 94.695313 L 566.5625 98.460938 L 564.464844 102.226563 L 562.367188 105.996094 L 560.273438 109.761719 L 556.078125 117.292969 L 553.984375 121.058594 L 551.886719 124.824219 L 549.789063 128.59375 L 547.695313 132.359375 L 545.597656 136.125 L 543.503906 139.890625 L 539.308594 147.421875 L 537.214844 151.191406 L 533.019531 158.722656 L 530.925781 162.488281 L 528.828125 166.253906 L 526.730469 170.023438 L 524.636719 173.789063 L 520.441406 181.320313 L 518.347656 185.085938 Z M 516.25 188.851563 "/>
<path style=" stroke:none;fill-rule:nonzero;fill:rgb(41.568627%,23.921569%,60.392157%);fill-opacity:0.501961;" d="M 516.25 188.851563 L 518.347656 185.085938 L 520.441406 181.320313 L 524.636719 173.789063 L 526.730469 170.023438 L 528.828125 166.253906 L 530.925781 162.488281 L 533.019531 158.722656 L 537.214844 151.191406 L 539.308594 147.421875 L 543.503906 139.890625 L 545.597656 136.125 L 547.695313 132.359375 L 549.789063 128.59375 L 551.886719 124.824219 L 553.984375 121.058594 L 556.078125 117.292969 L 560.273438 109.761719 L 562.367188 105.996094 L 564.464844 102.226563 L 566.5625 98.460938 L 568.65625 94.695313 L 570.753906 90.929688 L 572.847656 87.164063 L 574.945313 83.398438 L 577.042969 79.628906 L 573.308594 77.636719 L 569.511719 75.765625 L 565.652344 74.027344 L 561.738281 72.421875 L 557.769531 70.949219 L 553.753906 69.613281 L 549.695313 68.410156 L 545.601563 67.347656 L 541.46875 66.421875 L 537.3125 65.640625 L 533.128906 64.996094 L 528.925781 64.496094 L 524.710938 64.140625 L 520.480469 63.925781 L 516.25 63.851563 Z M 516.25 188.851563 "/>
<g style="fill:rgb(0%,0%,0%);fill-opacity:1;">
  <use xlink:href="#glyph0-1" x="678.171875" y="95.011719"/>
  <use xlink:href="#glyph0-2" x="681.228027" y="95.011719"/>
  <use xlink:href="#glyph0-3" x="686.728027" y="95.011719"/>
  <use xlink:href="#glyph0-4" x="692.845703" y="95.011719"/>
</g>
<path style=" stroke:none;fill-rule:nonzero;fill:rgb(65.098039%,80.784314%,89.019608%);fill-opacity:0.501961;" d="M 678.878906 118.21875 L 694.742188 118.21875 L 694.742188 102.355469 L 678.878906 102.355469 Z M 678.878906 118.21875 "/>
<path style=" stroke:none;fill-rule:nonzero;fill:rgb(12.156863%,47.058824%,70.588235%);fill-opacity:0.501961;" d="M 678.878906 135.5 L 694.742188 135.5 L 694.742188 119.636719 L 678.878906 119.636719 Z M 678.878906 135.5 "/>
<path style=" stroke:none;fill-rule:nonzero;fill:rgb(69.803922%,87.45098%,54.117647%);fill-opacity:0.501961;" d="M 678.878906 152.777344 L 694.742188 152.777344 L 694.742188 136.914063 L 678.878906 136.914063 Z M 678.878906 152.777344 "/>
<path style=" stroke:none;fill-rule:nonzero;fill:rgb(55.294118%,82.745098%,78.039216%);fill-opacity:0.501961;" d="M 678.878906 170.058594 L 694.742188 170.058594 L 694.742188 154.195313 L 678.878906 154.195313 Z M 678.878906 170.058594 "/>
<path style=" stroke:none;fill-rule:nonzero;fill:rgb(98.431373%,60.392157%,60%);fill-opacity:0.501961;" d="M 678.878906 187.339844 L 694.742188 187.339844 L 694.742188 171.476563 L 678.878906 171.476563 Z M 678.878906 187.339844 "/>
<path style=" stroke:none;fill-rule:nonzero;fill:rgb(89.019608%,10.196078%,10.980392%);fill-opacity:0.501961;" d="M 678.878906 204.617188 L 694.742188 204.617188 L 694.742188 188.753906 L 678.878906 188.753906 Z M 678.878906 204.617188 "/>
<path style=" stroke:none;fill-rule:nonzero;fill:rgb(99.215686%,74.901961%,43.529412%);fill-opacity:0.501961;" d="M 678.878906 221.898438 L 694.742188 221.898438 L 694.742188 206.035156 L 678.878906 206.035156 Z M 678.878906 221.898438 "/>
<path style=" stroke:none;fill-rule:nonzero;fill:rgb(100%,49.803922%,0%);fill-opacity:0.501961;" d="M 678.878906 239.179688 L 694.742188 239.179688 L 694.742188 223.316406 L 678.878906 223.316406 Z M 678.878906 239.179688 "/>
<path style=" stroke:none;fill-rule:nonzero;fill:rgb(50.196078%,50.196078%,50.196078%);fill-opacity:0.501961;" d="M 678.878906 256.457031 L 694.742188 256.457031 L 694.742188 240.59375 L 678.878906 240.59375 Z M 678.878906 256.457031 "/>
<path style=" stroke:none;fill-rule:nonzero;fill:rgb(79.215686%,69.803922%,83.921569%);fill-opacity:0.501961;" d="M 678.878906 273.738281 L 694.742188 273.738281 L 694.742188 257.875 L 678.878906 257.875 Z M 678.878906 273.738281 "/>
<path style=" stroke:none;fill-rule:nonzero;fill:rgb(41.568627%,23.921569%,60.392157%);fill-opacity:0.501961;" d="M 678.878906 291.019531 L 694.742188 291.019531 L 694.742188 275.15625 L 678.878906 275.15625 Z M 678.878906 291.019531 "/>
<g style="fill:rgb(0%,0%,0%);fill-opacity:1;">
  <use xlink:href="#glyph1-1" x="700.929688" y="113.4375"/>
  <use xlink:href="#glyph1-2" x="707.284766" y="113.4375"/>
  <use xlink:href="#glyph1-3" x="713.154297" y="113.4375"/>
</g>
<g style="fill:rgb(0%,0%,0%);fill-opacity:1;">
  <use xlink:href="#glyph1-1" x="700.929688" y="130.71875"/>
  <use xlink:href="#glyph1-4" x="707.284766" y="130.71875"/>
</g>
<g style="fill:rgb(0%,0%,0%);fill-opacity:1;">
  <use xlink:href="#glyph1-1" x="700.929688" y="147.996094"/>
  <use xlink:href="#glyph1-5" x="707.284766" y="147.996094"/>
  <use xlink:href="#glyph1-6" x="712.178906" y="147.996094"/>
</g>
<g style="fill:rgb(0%,0%,0%);fill-opacity:1;">
  <use xlink:href="#glyph1-7" x="700.929688" y="165.277344"/>
  <use xlink:href="#glyph1-2" x="707.284766" y="165.277344"/>
  <use xlink:href="#glyph1-8" x="713.154297" y="165.277344"/>
</g>
<g style="fill:rgb(0%,0%,0%);fill-opacity:1;">
  <use xlink:href="#glyph1-9" x="700.929688" y="182.558594"/>
  <use xlink:href="#glyph1-1" x="706.799219" y="182.558594"/>
</g>
<g style="fill:rgb(0%,0%,0%);fill-opacity:1;">
  <use xlink:href="#glyph1-9" x="700.929688" y="199.835938"/>
  <use xlink:href="#glyph1-4" x="706.799219" y="199.835938"/>
</g>
<g style="fill:rgb(0%,0%,0%);fill-opacity:1;">
  <use xlink:href="#glyph1-9" x="700.929688" y="217.117188"/>
  <use xlink:href="#glyph1-8" x="706.799219" y="217.117188"/>
</g>
<g style="fill:rgb(0%,0%,0%);fill-opacity:1;">
  <use xlink:href="#glyph1-9" x="700.929688" y="234.398438"/>
  <use xlink:href="#glyph1-10" x="706.799219" y="234.398438"/>
</g>
<g style="fill:rgb(0%,0%,0%);fill-opacity:1;">
  <use xlink:href="#glyph1-9" x="700.929688" y="251.675781"/>
  <use xlink:href="#glyph1-11" x="706.799219" y="251.675781"/>
</g>
<g style="fill:rgb(0%,0%,0%);fill-opacity:1;">
  <use xlink:href="#glyph1-11" x="700.929688" y="268.957031"/>
  <use xlink:href="#glyph1-12" x="706.799219" y="268.957031"/>
</g>
<g style="fill:rgb(0%,0%,0%);fill-opacity:1;">
  <use xlink:href="#glyph1-13" x="700.929688" y="286.238281"/>
  <use xlink:href="#glyph1-2" x="706.305078" y="286.238281"/>
  <use xlink:href="#glyph1-8" x="712.174609" y="286.238281"/>
</g>
<g style="fill:rgb(0%,0%,0%);fill-opacity:1;">
  <use xlink:href="#glyph2-1" x="360" y="29.824219"/>
  <use xlink:href="#glyph2-2" x="368.804297" y="29.824219"/>
  <use xlink:href="#glyph2-3" x="376.145508" y="29.824219"/>
  <use xlink:href="#glyph2-4" x="387.141211" y="29.824219"/>
  <use xlink:href="#glyph2-5" x="394.482422" y="29.824219"/>
  <use xlink:href="#glyph2-6" x="397.415039" y="29.824219"/>
  <use xlink:href="#glyph2-7" x="404.75625" y="29.824219"/>
  <use xlink:href="#glyph2-8" x="412.819336" y="29.824219"/>
  <use xlink:href="#glyph2-4" x="419.419336" y="29.824219"/>
  <use xlink:href="#glyph2-6" x="426.760547" y="29.824219"/>
  <use xlink:href="#glyph2-9" x="434.101758" y="29.824219"/>
  <use xlink:href="#glyph2-10" x="441.442969" y="29.824219"/>
  <use xlink:href="#glyph2-6" x="450.975586" y="29.824219"/>
  <use xlink:href="#glyph2-11" x="458.316797" y="29.824219"/>
  <use xlink:href="#glyph2-12" x="465.658008" y="29.824219"/>
  <use xlink:href="#glyph2-13" x="470.053711" y="29.824219"/>
  <use xlink:href="#glyph2-14" x="477.394922" y="29.824219"/>
  <use xlink:href="#glyph2-9" x="484.736133" y="29.824219"/>
  <use xlink:href="#glyph2-1" x="492.077344" y="29.824219"/>
  <use xlink:href="#glyph2-5" x="500.881641" y="29.824219"/>
  <use xlink:href="#glyph2-6" x="503.814258" y="29.824219"/>
  <use xlink:href="#glyph2-6" x="511.155469" y="29.824219"/>
  <use xlink:href="#glyph2-4" x="518.49668" y="29.824219"/>
  <use xlink:href="#glyph2-15" x="525.837891" y="29.824219"/>
  <use xlink:href="#glyph2-13" x="535.370508" y="29.824219"/>
  <use xlink:href="#glyph2-14" x="542.711719" y="29.824219"/>
  <use xlink:href="#glyph2-16" x="550.05293" y="29.824219"/>
  <use xlink:href="#glyph2-17" x="557.394141" y="29.824219"/>
  <use xlink:href="#glyph2-18" x="560.326758" y="29.824219"/>
  <use xlink:href="#glyph2-17" x="563.994141" y="29.824219"/>
  <use xlink:href="#glyph2-13" x="566.926758" y="29.824219"/>
  <use xlink:href="#glyph2-14" x="574.267969" y="29.824219"/>
  <use xlink:href="#glyph2-9" x="581.60918" y="29.824219"/>
  <use xlink:href="#glyph2-26" x="588.950391" y="29.824219"/>
  <use xlink:href="#glyph2-2" x="601.40918" y="29.824219"/>
  <use xlink:href="#glyph2-27" x="608.750391" y="29.824219"/>
  <use xlink:href="#glyph2-17" x="615.350391" y="29.824219"/>
  <use xlink:href="#glyph2-14" x="618.283008" y="29.824219"/>
  <use xlink:href="#glyph2-28" x="625.624219" y="29.824219"/>
  <use xlink:href="#glyph2-11" x="632.96543" y="29.824219"/>
  <use xlink:href="#glyph2-4" x="640.306641" y="29.824219"/>
  <use xlink:href="#glyph2-21" x="647.647852" y="29.824219"/>
  <use xlink:href="#glyph2-22" x="651.315234" y="29.824219"/>
  <use xlink:href="#glyph2-10" x="655.710938" y="29.824219"/>
  <use xlink:href="#glyph2-13" x="665.243555" y="29.824219"/>
  <use xlink:href="#glyph2-21" x="672.584766" y="29.824219"/>
  <use xlink:href="#glyph2-23" x="676.252148" y="29.824219"/>
  <use xlink:href="#glyph2-24" x="684.315234" y="29.824219"/>
  <use xlink:href="#glyph2-25" x="693.119531" y="29.824219"/>
</g>
</g>
</svg>
