<?xml version="1.0" encoding="UTF-8"?>
<svg xmlns="http://www.w3.org/2000/svg" xmlns:xlink="http://www.w3.org/1999/xlink" width="720pt" height="360pt" viewBox="0 0 720 360" version="1.1">
<defs>
<g>
<symbol overflow="visible" id="glyph0-0">
<path style="stroke:none;" d="M 1.375 0 L 1.375 -6.875 L 6.875 -6.875 L 6.875 0 Z M 1.546875 -0.171875 L 6.703125 -0.171875 L 6.703125 -6.703125 L 1.546875 -6.703125 Z M 1.546875 -0.171875 "/>
</symbol>
<symbol overflow="visible" id="glyph0-1">
<path style="stroke:none;" d="M 0.804688 0 L 0.804688 -7.875 L 1.847656 -7.875 L 1.847656 -0.929688 L 5.726563 -0.929688 L 5.726563 0 Z M 0.804688 0 "/>
</symbol>
<symbol overflow="visible" id="glyph0-2">
<path style="stroke:none;" d="M 0.730469 -6.761719 L 0.730469 -7.875 L 1.695313 -7.875 L 1.695313 -6.761719 Z M 0.730469 0 L 0.730469 -5.703125 L 1.695313 -5.703125 L 1.695313 0 Z M 0.730469 0 "/>
</symbol>
<symbol overflow="visible" id="glyph0-3">
<path style="stroke:none;" d="M 0.726563 2.1875 L 0.726563 -5.703125 L 1.605469 -5.703125 L 1.605469 -4.960938 C 1.8125 -5.25 2.046875 -5.46875 2.308594 -5.613281 C 2.570313 -5.757813 2.886719 -5.828125 3.261719 -5.832031 C 3.746094 -5.828125 4.175781 -5.703125 4.550781 -5.457031 C 4.921875 -5.203125 5.203125 -4.851563 5.390625 -4.394531 C 5.578125 -3.9375 5.671875 -3.4375 5.675781 -2.894531 C 5.671875 -2.308594 5.566406 -1.78125 5.359375 -1.316406 C 5.148438 -0.847656 4.84375 -0.488281 4.449219 -0.242188 C 4.046875 0.0078125 3.628906 0.128906 3.191406 0.128906 C 2.867188 0.128906 2.578125 0.0625 2.320313 -0.0742188 C 2.0625 -0.210938 1.851563 -0.382813 1.691406 -0.589844 L 1.691406 2.1875 Z M 1.601563 -2.820313 C 1.597656 -2.082031 1.746094 -1.539063 2.046875 -1.191406 C 2.339844 -0.835938 2.699219 -0.660156 3.125 -0.664063 C 3.550781 -0.660156 3.917969 -0.84375 4.226563 -1.210938 C 4.53125 -1.574219 4.6875 -2.136719 4.6875 -2.898438 C 4.6875 -3.625 4.535156 -4.167969 4.238281 -4.53125 C 3.9375 -4.890625 3.582031 -5.074219 3.167969 -5.074219 C 2.753906 -5.074219 2.390625 -4.878906 2.074219 -4.496094 C 1.757813 -4.109375 1.597656 -3.550781 1.601563 -2.820313 Z M 1.601563 -2.820313 "/>
</symbol>
<symbol overflow="visible" id="glyph0-4">
<path style="stroke:none;" d="M 4.425781 0 L 4.425781 -0.71875 C 4.058594 -0.152344 3.527344 0.128906 2.832031 0.128906 C 2.371094 0.128906 1.953125 0.00390625 1.574219 -0.246094 C 1.191406 -0.496094 0.894531 -0.84375 0.6875 -1.296875 C 0.476563 -1.742188 0.375 -2.261719 0.375 -2.847656 C 0.375 -3.414063 0.46875 -3.929688 0.660156 -4.394531 C 0.847656 -4.859375 1.132813 -5.214844 1.515625 -5.460938 C 1.894531 -5.707031 2.320313 -5.828125 2.789063 -5.832031 C 3.132813 -5.828125 3.4375 -5.757813 3.707031 -5.613281 C 3.972656 -5.46875 4.191406 -5.277344 4.359375 -5.046875 L 4.359375 -7.875 L 5.324219 -7.875 L 5.324219 0 Z M 1.371094 -2.847656 C 1.371094 -2.113281 1.523438 -1.566406 1.832031 -1.207031 C 2.136719 -0.84375 2.5 -0.660156 2.921875 -0.664063 C 3.339844 -0.660156 3.699219 -0.835938 3.996094 -1.183594 C 4.292969 -1.527344 4.441406 -2.054688 4.441406 -2.765625 C 4.441406 -3.546875 4.289063 -4.117188 3.988281 -4.484375 C 3.6875 -4.84375 3.316406 -5.027344 2.878906 -5.03125 C 2.445313 -5.027344 2.085938 -4.851563 1.800781 -4.503906 C 1.511719 -4.152344 1.371094 -3.601563 1.371094 -2.847656 Z M 1.371094 -2.847656 "/>
</symbol>
<symbol overflow="visible" id="glyph0-5">
<path style="stroke:none;" d=""/>
</symbol>
<symbol overflow="visible" id="glyph0-6">
<path style="stroke:none;" d="M 4.445313 -2.089844 L 5.398438 -1.964844 C 5.289063 -1.308594 5.023438 -0.796875 4.597656 -0.425781 C 4.167969 -0.0546875 3.644531 0.128906 3.023438 0.128906 C 2.242188 0.128906 1.613281 -0.125 1.140625 -0.636719 C 0.664063 -1.144531 0.425781 -1.875 0.429688 -2.832031 C 0.425781 -3.441406 0.527344 -3.980469 0.734375 -4.445313 C 0.9375 -4.90625 1.25 -5.253906 1.667969 -5.484375 C 2.082031 -5.714844 2.535156 -5.828125 3.03125 -5.832031 C 3.644531 -5.828125 4.152344 -5.671875 4.546875 -5.363281 C 4.941406 -5.046875 5.191406 -4.601563 5.304688 -4.027344 L 4.367188 -3.882813 C 4.273438 -4.261719 4.117188 -4.550781 3.890625 -4.746094 C 3.664063 -4.941406 3.386719 -5.039063 3.066406 -5.039063 C 2.574219 -5.039063 2.179688 -4.863281 1.878906 -4.515625 C 1.570313 -4.164063 1.417969 -3.613281 1.421875 -2.859375 C 1.417969 -2.089844 1.566406 -1.53125 1.863281 -1.183594 C 2.15625 -0.835938 2.539063 -0.660156 3.011719 -0.664063 C 3.390625 -0.660156 3.707031 -0.777344 3.960938 -1.011719 C 4.214844 -1.242188 4.375 -1.601563 4.445313 -2.089844 Z M 4.445313 -2.089844 "/>
</symbol>
<symbol overflow="visible" id="glyph0-7">
<path style="stroke:none;" d="M 0.703125 0 L 0.703125 -7.875 L 1.671875 -7.875 L 1.671875 0 Z M 0.703125 0 "/>
</symbol>
<symbol overflow="visible" id="glyph0-8">
<path style="stroke:none;" d="M 4.445313 -0.703125 C 4.085938 -0.398438 3.742188 -0.183594 3.414063 -0.0585938 C 3.082031 0.0664063 2.726563 0.128906 2.347656 0.128906 C 1.71875 0.128906 1.238281 -0.0234375 0.902344 -0.328125 C 0.566406 -0.632813 0.398438 -1.023438 0.398438 -1.503906 C 0.398438 -1.78125 0.460938 -2.035156 0.585938 -2.269531 C 0.710938 -2.496094 0.875 -2.683594 1.085938 -2.824219 C 1.289063 -2.964844 1.523438 -3.070313 1.78125 -3.140625 C 1.96875 -3.191406 2.253906 -3.238281 2.640625 -3.289063 C 3.417969 -3.375 3.992188 -3.488281 4.367188 -3.621094 C 4.367188 -3.753906 4.371094 -3.835938 4.371094 -3.871094 C 4.371094 -4.265625 4.277344 -4.542969 4.097656 -4.703125 C 3.847656 -4.917969 3.480469 -5.027344 2.996094 -5.03125 C 2.539063 -5.027344 2.203125 -4.949219 1.988281 -4.792969 C 1.769531 -4.632813 1.609375 -4.351563 1.507813 -3.949219 L 0.5625 -4.078125 C 0.648438 -4.480469 0.789063 -4.804688 0.988281 -5.054688 C 1.183594 -5.300781 1.46875 -5.492188 1.84375 -5.628906 C 2.214844 -5.761719 2.644531 -5.828125 3.136719 -5.832031 C 3.621094 -5.828125 4.019531 -5.773438 4.324219 -5.660156 C 4.628906 -5.542969 4.851563 -5.398438 4.996094 -5.226563 C 5.136719 -5.054688 5.238281 -4.835938 5.296875 -4.570313 C 5.328125 -4.40625 5.34375 -4.109375 5.34375 -3.679688 L 5.34375 -2.390625 C 5.34375 -1.492188 5.363281 -0.921875 5.40625 -0.683594 C 5.445313 -0.445313 5.527344 -0.21875 5.648438 0 L 4.640625 0 C 4.539063 -0.199219 4.472656 -0.433594 4.445313 -0.703125 Z M 4.367188 -2.863281 C 4.011719 -2.71875 3.488281 -2.597656 2.789063 -2.496094 C 2.390625 -2.4375 2.105469 -2.371094 1.941406 -2.300781 C 1.773438 -2.226563 1.648438 -2.121094 1.5625 -1.988281 C 1.472656 -1.847656 1.429688 -1.695313 1.429688 -1.53125 C 1.429688 -1.269531 1.527344 -1.054688 1.722656 -0.886719 C 1.917969 -0.710938 2.203125 -0.625 2.578125 -0.628906 C 2.949219 -0.625 3.277344 -0.707031 3.570313 -0.871094 C 3.859375 -1.03125 4.074219 -1.253906 4.210938 -1.542969 C 4.3125 -1.753906 4.363281 -2.078125 4.367188 -2.507813 Z M 4.367188 -2.863281 "/>
</symbol>
<symbol overflow="visible" id="glyph0-9">
<path style="stroke:none;" d="M 0.339844 -1.703125 L 1.292969 -1.851563 C 1.34375 -1.46875 1.492188 -1.171875 1.742188 -0.96875 C 1.984375 -0.761719 2.328125 -0.660156 2.773438 -0.664063 C 3.210938 -0.660156 3.539063 -0.75 3.757813 -0.933594 C 3.96875 -1.113281 4.078125 -1.328125 4.082031 -1.574219 C 4.078125 -1.789063 3.984375 -1.960938 3.796875 -2.089844 C 3.664063 -2.171875 3.332031 -2.28125 2.808594 -2.417969 C 2.097656 -2.59375 1.605469 -2.75 1.332031 -2.882813 C 1.054688 -3.011719 0.847656 -3.191406 0.710938 -3.421875 C 0.566406 -3.652344 0.496094 -3.90625 0.5 -4.1875 C 0.496094 -4.441406 0.554688 -4.675781 0.671875 -4.894531 C 0.785156 -5.105469 0.945313 -5.289063 1.148438 -5.4375 C 1.296875 -5.546875 1.5 -5.636719 1.761719 -5.714844 C 2.019531 -5.789063 2.300781 -5.828125 2.601563 -5.832031 C 3.046875 -5.828125 3.4375 -5.765625 3.777344 -5.636719 C 4.113281 -5.507813 4.363281 -5.332031 4.527344 -5.113281 C 4.6875 -4.890625 4.796875 -4.597656 4.859375 -4.234375 L 3.914063 -4.101563 C 3.871094 -4.394531 3.746094 -4.621094 3.542969 -4.789063 C 3.335938 -4.953125 3.042969 -5.039063 2.667969 -5.039063 C 2.222656 -5.039063 1.90625 -4.964844 1.71875 -4.816406 C 1.523438 -4.667969 1.429688 -4.496094 1.433594 -4.300781 C 1.429688 -4.175781 1.46875 -4.0625 1.550781 -3.964844 C 1.628906 -3.859375 1.753906 -3.773438 1.921875 -3.707031 C 2.015625 -3.667969 2.300781 -3.585938 2.777344 -3.460938 C 3.460938 -3.273438 3.9375 -3.121094 4.207031 -3.007813 C 4.476563 -2.890625 4.6875 -2.722656 4.84375 -2.503906 C 4.996094 -2.277344 5.074219 -2.003906 5.074219 -1.675781 C 5.074219 -1.351563 4.980469 -1.046875 4.792969 -0.765625 C 4.605469 -0.480469 4.332031 -0.261719 3.980469 -0.105469 C 3.621094 0.0507813 3.222656 0.128906 2.777344 0.128906 C 2.035156 0.128906 1.46875 -0.0234375 1.082031 -0.332031 C 0.691406 -0.640625 0.445313 -1.097656 0.339844 -1.703125 Z M 0.339844 -1.703125 "/>
</symbol>
<symbol overflow="visible" id="glyph1-0">
<path style="stroke:none;" d="M 1.101563 0 L 1.101563 -5.5 L 5.5 -5.5 L 5.5 0 Z M 1.238281 -0.136719 L 5.363281 -0.136719 L 5.363281 -5.363281 L 1.238281 -5.363281 Z M 1.238281 -0.136719 "/>
</symbol>
<symbol overflow="visible" id="glyph1-1">
<path style="stroke:none;" d="M 5.171875 -2.207031 L 6.007813 -2 C 5.828125 -1.3125 5.515625 -0.789063 5.0625 -0.429688 C 4.609375 -0.0703125 4.054688 0.105469 3.398438 0.109375 C 2.71875 0.105469 2.164063 -0.03125 1.742188 -0.304688 C 1.3125 -0.582031 0.988281 -0.980469 0.769531 -1.507813 C 0.542969 -2.027344 0.433594 -2.589844 0.4375 -3.195313 C 0.433594 -3.847656 0.558594 -4.421875 0.8125 -4.910156 C 1.0625 -5.398438 1.417969 -5.769531 1.882813 -6.023438 C 2.34375 -6.277344 2.855469 -6.402344 3.410156 -6.40625 C 4.039063 -6.402344 4.566406 -6.242188 5 -5.925781 C 5.425781 -5.601563 5.726563 -5.152344 5.898438 -4.570313 L 5.078125 -4.378906 C 4.929688 -4.832031 4.71875 -5.167969 4.441406 -5.378906 C 4.164063 -5.589844 3.8125 -5.695313 3.394531 -5.695313 C 2.90625 -5.695313 2.503906 -5.578125 2.179688 -5.34375 C 1.851563 -5.109375 1.621094 -4.796875 1.492188 -4.410156 C 1.359375 -4.015625 1.292969 -3.613281 1.296875 -3.203125 C 1.292969 -2.664063 1.371094 -2.195313 1.53125 -1.796875 C 1.683594 -1.394531 1.925781 -1.097656 2.257813 -0.902344 C 2.585938 -0.703125 2.945313 -0.601563 3.332031 -0.605469 C 3.796875 -0.601563 4.191406 -0.738281 4.515625 -1.007813 C 4.835938 -1.277344 5.054688 -1.675781 5.171875 -2.207031 Z M 5.171875 -2.207031 "/>
</symbol>
<symbol overflow="visible" id="glyph1-2">
<path style="stroke:none;" d="M -0.0117188 0 L 2.40625 -6.300781 L 3.304688 -6.300781 L 5.882813 0 L 4.933594 0 L 4.199219 -1.90625 L 1.5625 -1.90625 L 0.871094 0 Z M 1.804688 -2.585938 L 3.941406 -2.585938 L 3.28125 -4.332031 C 3.078125 -4.855469 2.929688 -5.292969 2.835938 -5.636719 C 2.753906 -5.230469 2.640625 -4.828125 2.496094 -4.433594 Z M 1.804688 -2.585938 "/>
</symbol>
<symbol overflow="visible" id="glyph1-3">
<path style="stroke:none;" d="M 0.691406 0 L 0.691406 -6.300781 L 3.484375 -6.300781 C 4.042969 -6.296875 4.46875 -6.242188 4.765625 -6.128906 C 5.054688 -6.015625 5.289063 -5.816406 5.464844 -5.53125 C 5.636719 -5.242188 5.722656 -4.925781 5.726563 -4.582031 C 5.722656 -4.132813 5.578125 -3.753906 5.292969 -3.449219 C 5 -3.140625 4.554688 -2.945313 3.953125 -2.867188 C 4.171875 -2.757813 4.339844 -2.652344 4.457031 -2.550781 C 4.695313 -2.324219 4.925781 -2.046875 5.148438 -1.714844 L 6.242188 0 L 5.195313 0 L 4.359375 -1.3125 C 4.117188 -1.6875 3.914063 -1.976563 3.757813 -2.179688 C 3.597656 -2.378906 3.457031 -2.515625 3.335938 -2.597656 C 3.207031 -2.675781 3.082031 -2.734375 2.957031 -2.765625 C 2.859375 -2.785156 2.703125 -2.792969 2.492188 -2.796875 L 1.527344 -2.796875 L 1.527344 0 Z M 1.527344 -3.519531 L 3.316406 -3.519531 C 3.699219 -3.515625 3.996094 -3.554688 4.210938 -3.636719 C 4.421875 -3.710938 4.585938 -3.835938 4.699219 -4.011719 C 4.808594 -4.183594 4.863281 -4.375 4.867188 -4.582031 C 4.863281 -4.878906 4.753906 -5.121094 4.542969 -5.3125 C 4.324219 -5.503906 3.984375 -5.601563 3.519531 -5.601563 L 1.527344 -5.601563 Z M 1.527344 -3.519531 "/>
</symbol>
<symbol overflow="visible" id="glyph1-4">
<path style="stroke:none;" d="M 0.695313 0 L 0.695313 -6.300781 L 5.25 -6.300781 L 5.25 -5.554688 L 1.53125 -5.554688 L 1.53125 -3.625 L 5.015625 -3.625 L 5.015625 -2.886719 L 1.53125 -2.886719 L 1.53125 -0.742188 L 5.398438 -0.742188 L 5.398438 0 Z M 0.695313 0 "/>
</symbol>
<symbol overflow="visible" id="glyph1-5">
<path style="stroke:none;" d="M 3.703125 -1.46875 L 4.503906 -1.371094 C 4.375 -0.902344 4.140625 -0.539063 3.800781 -0.285156 C 3.460938 -0.0273438 3.027344 0.0976563 2.496094 0.101563 C 1.828125 0.0976563 1.296875 -0.101563 0.90625 -0.511719 C 0.511719 -0.917969 0.316406 -1.496094 0.320313 -2.242188 C 0.316406 -3.007813 0.515625 -3.605469 0.914063 -4.03125 C 1.308594 -4.453125 1.820313 -4.664063 2.453125 -4.667969 C 3.058594 -4.664063 3.554688 -4.457031 3.945313 -4.042969 C 4.328125 -3.628906 4.523438 -3.042969 4.527344 -2.289063 C 4.523438 -2.242188 4.523438 -2.175781 4.523438 -2.085938 L 1.121094 -2.085938 C 1.144531 -1.582031 1.289063 -1.195313 1.546875 -0.929688 C 1.800781 -0.660156 2.117188 -0.527344 2.5 -0.53125 C 2.78125 -0.527344 3.023438 -0.601563 3.226563 -0.753906 C 3.425781 -0.902344 3.585938 -1.140625 3.703125 -1.46875 Z M 1.164063 -2.71875 L 3.710938 -2.71875 C 3.671875 -3.101563 3.578125 -3.386719 3.421875 -3.582031 C 3.171875 -3.878906 2.851563 -4.03125 2.460938 -4.03125 C 2.105469 -4.03125 1.804688 -3.910156 1.566406 -3.671875 C 1.320313 -3.433594 1.1875 -3.117188 1.164063 -2.71875 Z M 1.164063 -2.71875 "/>
</symbol>
<symbol overflow="visible" id="glyph1-6">
<path style="stroke:none;" d="M 0.570313 0 L 0.570313 -4.5625 L 1.265625 -4.5625 L 1.265625 -3.871094 C 1.445313 -4.191406 1.609375 -4.40625 1.757813 -4.511719 C 1.90625 -4.613281 2.070313 -4.664063 2.257813 -4.667969 C 2.515625 -4.664063 2.78125 -4.582031 3.050781 -4.417969 L 2.785156 -3.699219 C 2.589844 -3.808594 2.402344 -3.867188 2.21875 -3.867188 C 2.046875 -3.867188 1.894531 -3.816406 1.761719 -3.714844 C 1.625 -3.613281 1.527344 -3.472656 1.472656 -3.292969 C 1.382813 -3.015625 1.339844 -2.714844 1.34375 -2.390625 L 1.34375 0 Z M 0.570313 0 "/>
</symbol>
<symbol overflow="visible" id="glyph1-7">
<path style="stroke:none;" d="M 0.679688 0 L 0.679688 -6.300781 L 2.847656 -6.300781 C 3.335938 -6.296875 3.707031 -6.269531 3.96875 -6.210938 C 4.328125 -6.125 4.636719 -5.972656 4.894531 -5.757813 C 5.222656 -5.472656 5.472656 -5.113281 5.636719 -4.679688 C 5.800781 -4.242188 5.882813 -3.742188 5.886719 -3.183594 C 5.882813 -2.699219 5.828125 -2.277344 5.71875 -1.910156 C 5.605469 -1.542969 5.460938 -1.238281 5.289063 -0.996094 C 5.113281 -0.753906 4.921875 -0.5625 4.714844 -0.421875 C 4.507813 -0.28125 4.257813 -0.175781 3.964844 -0.105469 C 3.667969 -0.0351563 3.332031 0 2.953125 0 Z M 1.511719 -0.742188 L 2.859375 -0.742188 C 3.273438 -0.738281 3.597656 -0.777344 3.832031 -0.859375 C 4.066406 -0.933594 4.253906 -1.042969 4.398438 -1.1875 C 4.59375 -1.382813 4.746094 -1.648438 4.859375 -1.984375 C 4.96875 -2.316406 5.027344 -2.71875 5.027344 -3.195313 C 5.027344 -3.851563 4.917969 -4.359375 4.703125 -4.714844 C 4.484375 -5.066406 4.222656 -5.304688 3.914063 -5.425781 C 3.6875 -5.511719 3.328125 -5.554688 2.835938 -5.554688 L 1.511719 -5.554688 Z M 1.511719 -0.742188 "/>
</symbol>
<symbol overflow="visible" id="glyph1-8">
<path style="stroke:none;" d="M 3.625 -2.46875 L 3.625 -3.210938 L 6.296875 -3.214844 L 6.296875 -0.875 C 5.882813 -0.546875 5.460938 -0.300781 5.027344 -0.136719 C 4.589844 0.0273438 4.140625 0.105469 3.6875 0.109375 C 3.0625 0.105469 2.5 -0.0234375 2 -0.289063 C 1.492188 -0.550781 1.113281 -0.933594 0.855469 -1.4375 C 0.597656 -1.9375 0.46875 -2.5 0.46875 -3.121094 C 0.46875 -3.730469 0.59375 -4.300781 0.851563 -4.835938 C 1.105469 -5.363281 1.476563 -5.757813 1.957031 -6.019531 C 2.4375 -6.273438 2.992188 -6.402344 3.621094 -6.40625 C 4.074219 -6.402344 4.484375 -6.328125 4.855469 -6.183594 C 5.222656 -6.035156 5.511719 -5.832031 5.722656 -5.566406 C 5.929688 -5.300781 6.089844 -4.957031 6.199219 -4.539063 L 5.449219 -4.332031 C 5.351563 -4.648438 5.230469 -4.902344 5.09375 -5.085938 C 4.953125 -5.269531 4.753906 -5.414063 4.492188 -5.527344 C 4.230469 -5.636719 3.941406 -5.695313 3.625 -5.695313 C 3.242188 -5.695313 2.914063 -5.636719 2.636719 -5.519531 C 2.359375 -5.402344 2.132813 -5.246094 1.964844 -5.058594 C 1.792969 -4.867188 1.664063 -4.660156 1.570313 -4.4375 C 1.40625 -4.046875 1.324219 -3.625 1.328125 -3.171875 C 1.324219 -2.605469 1.421875 -2.136719 1.617188 -1.761719 C 1.808594 -1.382813 2.089844 -1.101563 2.460938 -0.917969 C 2.828125 -0.734375 3.21875 -0.644531 3.640625 -0.644531 C 3.996094 -0.644531 4.347656 -0.710938 4.695313 -0.851563 C 5.035156 -0.988281 5.296875 -1.136719 5.476563 -1.296875 L 5.476563 -2.46875 Z M 3.625 -2.46875 "/>
</symbol>
<symbol overflow="visible" id="glyph1-9">
<path style="stroke:none;" d="M 0.722656 0 L 0.722656 -6.300781 L 4.972656 -6.300781 L 4.972656 -5.554688 L 1.554688 -5.554688 L 1.554688 -3.605469 L 4.511719 -3.605469 L 4.511719 -2.863281 L 1.554688 -2.863281 L 1.554688 0 Z M 0.722656 0 "/>
</symbol>
<symbol overflow="visible" id="glyph1-10">
<path style="stroke:none;" d="M 0.679688 0 L 0.679688 -6.300781 L 3.054688 -6.300781 C 3.46875 -6.296875 3.789063 -6.277344 4.011719 -6.238281 C 4.320313 -6.183594 4.578125 -6.085938 4.789063 -5.941406 C 4.996094 -5.796875 5.167969 -5.59375 5.296875 -5.335938 C 5.421875 -5.074219 5.484375 -4.789063 5.488281 -4.476563 C 5.484375 -3.941406 5.3125 -3.488281 4.976563 -3.117188 C 4.632813 -2.746094 4.019531 -2.558594 3.128906 -2.5625 L 1.511719 -2.5625 L 1.511719 0 Z M 1.511719 -3.304688 L 3.140625 -3.304688 C 3.679688 -3.304688 4.0625 -3.402344 4.289063 -3.605469 C 4.515625 -3.800781 4.628906 -4.085938 4.628906 -4.453125 C 4.628906 -4.714844 4.558594 -4.9375 4.425781 -5.128906 C 4.289063 -5.3125 4.117188 -5.4375 3.902344 -5.5 C 3.761719 -5.535156 3.5 -5.554688 3.125 -5.554688 L 1.511719 -5.554688 Z M 1.511719 -3.304688 "/>
</symbol>
<symbol overflow="visible" id="glyph1-11">
<path style="stroke:none;" d="M 0.820313 0 L 0.820313 -6.300781 L 1.65625 -6.300781 L 1.65625 0 Z M 0.820313 0 "/>
</symbol>
<symbol overflow="visible" id="glyph1-12">
<path style="stroke:none;" d="M 0.394531 -2.023438 L 1.179688 -2.09375 C 1.214844 -1.773438 1.304688 -1.515625 1.441406 -1.316406 C 1.574219 -1.113281 1.785156 -0.949219 2.074219 -0.828125 C 2.359375 -0.699219 2.679688 -0.636719 3.042969 -0.640625 C 3.355469 -0.636719 3.636719 -0.683594 3.882813 -0.78125 C 4.125 -0.875 4.304688 -1.007813 4.425781 -1.171875 C 4.542969 -1.335938 4.605469 -1.515625 4.605469 -1.710938 C 4.605469 -1.90625 4.546875 -2.078125 4.433594 -2.226563 C 4.316406 -2.375 4.128906 -2.5 3.867188 -2.601563 C 3.695313 -2.664063 3.320313 -2.765625 2.746094 -2.90625 C 2.164063 -3.046875 1.757813 -3.175781 1.53125 -3.300781 C 1.226563 -3.453125 1.003906 -3.648438 0.855469 -3.886719 C 0.707031 -4.117188 0.632813 -4.378906 0.636719 -4.671875 C 0.632813 -4.984375 0.722656 -5.28125 0.90625 -5.5625 C 1.082031 -5.835938 1.34375 -6.046875 1.695313 -6.191406 C 2.039063 -6.332031 2.425781 -6.402344 2.851563 -6.40625 C 3.316406 -6.402344 3.730469 -6.328125 4.089844 -6.179688 C 4.445313 -6.027344 4.71875 -5.804688 4.910156 -5.515625 C 5.101563 -5.21875 5.203125 -4.890625 5.21875 -4.523438 L 4.421875 -4.464844 C 4.375 -4.863281 4.230469 -5.164063 3.984375 -5.367188 C 3.734375 -5.570313 3.367188 -5.671875 2.886719 -5.671875 C 2.382813 -5.671875 2.015625 -5.578125 1.785156 -5.394531 C 1.554688 -5.207031 1.441406 -4.984375 1.441406 -4.726563 C 1.441406 -4.496094 1.519531 -4.308594 1.683594 -4.167969 C 1.839844 -4.019531 2.261719 -3.871094 2.941406 -3.71875 C 3.617188 -3.5625 4.082031 -3.429688 4.335938 -3.316406 C 4.703125 -3.144531 4.972656 -2.929688 5.148438 -2.671875 C 5.320313 -2.414063 5.40625 -2.113281 5.410156 -1.777344 C 5.40625 -1.441406 5.3125 -1.128906 5.121094 -0.832031 C 4.929688 -0.535156 4.652344 -0.300781 4.292969 -0.136719 C 3.929688 0.0273438 3.527344 0.105469 3.082031 0.109375 C 2.511719 0.105469 2.03125 0.0234375 1.648438 -0.140625 C 1.257813 -0.304688 0.957031 -0.554688 0.742188 -0.890625 C 0.519531 -1.222656 0.402344 -1.597656 0.394531 -2.023438 Z M 0.394531 -2.023438 "/>
</symbol>
<symbol overflow="visible" id="glyph1-13">
<path style="stroke:none;" d="M 0.652344 0 L 0.652344 -6.300781 L 1.90625 -6.300781 L 3.398438 -1.839844 C 3.535156 -1.421875 3.632813 -1.109375 3.699219 -0.90625 C 3.769531 -1.132813 3.882813 -1.46875 4.035156 -1.917969 L 5.542969 -6.300781 L 6.664063 -6.300781 L 6.664063 0 L 5.859375 0 L 5.859375 -5.273438 L 4.03125 0 L 3.277344 0 L 1.457031 -5.363281 L 1.457031 0 Z M 0.652344 0 "/>
</symbol>
<symbol overflow="visible" id="glyph1-14">
<path style="stroke:none;" d="M 2.28125 0 L 2.28125 -5.554688 L 0.207031 -5.554688 L 0.207031 -6.300781 L 5.199219 -6.300781 L 5.199219 -5.554688 L 3.117188 -5.554688 L 3.117188 0 Z M 2.28125 0 "/>
</symbol>
<symbol overflow="visible" id="glyph2-0">
<path style="stroke:none;" d="M 1.648438 0 L 1.648438 -8.25 L 8.25 -8.25 L 8.25 0 Z M 1.855469 -0.207031 L 8.042969 -0.207031 L 8.042969 -8.042969 L 1.855469 -8.042969 Z M 1.855469 -0.207031 "/>
</symbol>
<symbol overflow="visible" id="glyph2-1">
<path style="stroke:none;" d="M 0.59375 -3.035156 L 1.773438 -3.140625 C 1.824219 -2.664063 1.953125 -2.273438 2.160156 -1.972656 C 2.363281 -1.667969 2.679688 -1.421875 3.113281 -1.238281 C 3.539063 -1.050781 4.023438 -0.960938 4.5625 -0.960938 C 5.035156 -0.960938 5.457031 -1.03125 5.824219 -1.171875 C 6.191406 -1.3125 6.460938 -1.503906 6.640625 -1.753906 C 6.816406 -1.996094 6.90625 -2.269531 6.910156 -2.566406 C 6.90625 -2.863281 6.820313 -3.121094 6.652344 -3.339844 C 6.476563 -3.558594 6.195313 -3.742188 5.800781 -3.898438 C 5.546875 -3.992188 4.984375 -4.148438 4.117188 -4.359375 C 3.246094 -4.566406 2.636719 -4.761719 2.292969 -4.949219 C 1.839844 -5.183594 1.503906 -5.476563 1.285156 -5.828125 C 1.058594 -6.175781 0.949219 -6.570313 0.953125 -7.007813 C 0.949219 -7.484375 1.085938 -7.929688 1.359375 -8.34375 C 1.628906 -8.757813 2.023438 -9.070313 2.542969 -9.285156 C 3.0625 -9.5 3.640625 -9.609375 4.28125 -9.609375 C 4.980469 -9.609375 5.597656 -9.496094 6.132813 -9.269531 C 6.664063 -9.042969 7.074219 -8.710938 7.363281 -8.273438 C 7.648438 -7.835938 7.804688 -7.339844 7.832031 -6.785156 L 6.632813 -6.695313 C 6.566406 -7.292969 6.347656 -7.746094 5.976563 -8.050781 C 5.605469 -8.355469 5.054688 -8.507813 4.332031 -8.507813 C 3.570313 -8.507813 3.019531 -8.367188 2.675781 -8.089844 C 2.328125 -7.8125 2.15625 -7.480469 2.160156 -7.089844 C 2.15625 -6.75 2.277344 -6.46875 2.527344 -6.25 C 2.761719 -6.027344 3.390625 -5.804688 4.410156 -5.578125 C 5.425781 -5.347656 6.125 -5.144531 6.503906 -4.976563 C 7.050781 -4.71875 7.453125 -4.398438 7.71875 -4.011719 C 7.976563 -3.621094 8.109375 -3.171875 8.113281 -2.667969 C 8.109375 -2.160156 7.964844 -1.6875 7.679688 -1.246094 C 7.390625 -0.796875 6.976563 -0.449219 6.441406 -0.207031 C 5.898438 0.0390625 5.292969 0.15625 4.621094 0.160156 C 3.765625 0.15625 3.050781 0.0351563 2.472656 -0.210938 C 1.894531 -0.460938 1.4375 -0.835938 1.109375 -1.335938 C 0.777344 -1.835938 0.605469 -2.402344 0.59375 -3.035156 Z M 0.59375 -3.035156 "/>
</symbol>
<symbol overflow="visible" id="glyph2-2">
<path style="stroke:none;" d="M 5.335938 -0.84375 C 4.902344 -0.476563 4.488281 -0.21875 4.09375 -0.0703125 C 3.695313 0.078125 3.269531 0.152344 2.816406 0.15625 C 2.0625 0.152344 1.484375 -0.0273438 1.082031 -0.394531 C 0.675781 -0.761719 0.472656 -1.234375 0.476563 -1.804688 C 0.472656 -2.140625 0.550781 -2.445313 0.703125 -2.722656 C 0.855469 -3 1.054688 -3.222656 1.304688 -3.390625 C 1.550781 -3.554688 1.828125 -3.679688 2.140625 -3.769531 C 2.363281 -3.824219 2.707031 -3.882813 3.171875 -3.945313 C 4.105469 -4.054688 4.796875 -4.1875 5.238281 -4.34375 C 5.242188 -4.5 5.242188 -4.601563 5.246094 -4.648438 C 5.242188 -5.117188 5.132813 -5.449219 4.917969 -5.644531 C 4.617188 -5.902344 4.179688 -6.035156 3.597656 -6.039063 C 3.050781 -6.035156 2.644531 -5.9375 2.386719 -5.75 C 2.125 -5.554688 1.933594 -5.21875 1.8125 -4.738281 L 0.675781 -4.890625 C 0.777344 -5.375 0.949219 -5.765625 1.183594 -6.066406 C 1.417969 -6.363281 1.757813 -6.59375 2.210938 -6.757813 C 2.65625 -6.914063 3.175781 -6.996094 3.765625 -7 C 4.347656 -6.996094 4.820313 -6.925781 5.1875 -6.792969 C 5.546875 -6.652344 5.816406 -6.480469 5.992188 -6.273438 C 6.160156 -6.0625 6.28125 -5.800781 6.355469 -5.484375 C 6.390625 -5.285156 6.410156 -4.925781 6.414063 -4.414063 L 6.414063 -2.867188 C 6.410156 -1.785156 6.433594 -1.105469 6.488281 -0.820313 C 6.535156 -0.535156 6.632813 -0.261719 6.78125 0 L 5.570313 0 C 5.445313 -0.238281 5.367188 -0.519531 5.335938 -0.84375 Z M 5.238281 -3.433594 C 4.816406 -3.261719 4.183594 -3.113281 3.34375 -2.996094 C 2.863281 -2.925781 2.527344 -2.851563 2.332031 -2.765625 C 2.132813 -2.679688 1.980469 -2.550781 1.875 -2.386719 C 1.765625 -2.21875 1.710938 -2.035156 1.714844 -1.835938 C 1.710938 -1.523438 1.828125 -1.265625 2.066406 -1.0625 C 2.296875 -0.851563 2.640625 -0.75 3.09375 -0.753906 C 3.539063 -0.75 3.933594 -0.847656 4.285156 -1.046875 C 4.628906 -1.238281 4.886719 -1.507813 5.054688 -1.851563 C 5.175781 -2.109375 5.238281 -2.496094 5.238281 -3.011719 Z M 5.238281 -3.433594 "/>
</symbol>
<symbol overflow="visible" id="glyph2-3">
<path style="stroke:none;" d="M 0.871094 0 L 0.871094 -6.84375 L 1.90625 -6.84375 L 1.90625 -5.882813 C 2.117188 -6.21875 2.40625 -6.488281 2.765625 -6.691406 C 3.121094 -6.894531 3.527344 -6.996094 3.984375 -7 C 4.488281 -6.996094 4.902344 -6.890625 5.230469 -6.683594 C 5.554688 -6.46875 5.785156 -6.175781 5.917969 -5.800781 C 6.457031 -6.597656 7.160156 -6.996094 8.03125 -7 C 8.707031 -6.996094 9.230469 -6.808594 9.597656 -6.433594 C 9.960938 -6.058594 10.140625 -5.480469 10.144531 -4.699219 L 10.144531 0 L 8.992188 0 L 8.992188 -4.3125 C 8.988281 -4.773438 8.949219 -5.105469 8.878906 -5.3125 C 8.800781 -5.515625 8.664063 -5.679688 8.46875 -5.804688 C 8.265625 -5.925781 8.035156 -5.988281 7.773438 -5.992188 C 7.289063 -5.988281 6.890625 -5.828125 6.574219 -5.511719 C 6.253906 -5.191406 6.09375 -4.679688 6.097656 -3.976563 L 6.097656 0 L 4.9375 0 L 4.9375 -4.445313 C 4.933594 -4.957031 4.839844 -5.34375 4.652344 -5.605469 C 4.464844 -5.859375 4.15625 -5.988281 3.726563 -5.992188 C 3.398438 -5.988281 3.09375 -5.902344 2.816406 -5.734375 C 2.539063 -5.558594 2.339844 -5.308594 2.214844 -4.980469 C 2.089844 -4.648438 2.027344 -4.171875 2.03125 -3.550781 L 2.03125 0 Z M 0.871094 0 "/>
</symbol>
<symbol overflow="visible" id="glyph2-4">
<path style="stroke:none;" d="M 0.871094 2.625 L 0.871094 -6.84375 L 1.925781 -6.84375 L 1.925781 -5.957031 C 2.171875 -6.300781 2.453125 -6.5625 2.769531 -6.738281 C 3.082031 -6.910156 3.464844 -6.996094 3.914063 -7 C 4.496094 -6.996094 5.007813 -6.84375 5.457031 -6.546875 C 5.902344 -6.242188 6.242188 -5.820313 6.46875 -5.273438 C 6.695313 -4.726563 6.808594 -4.125 6.8125 -3.472656 C 6.808594 -2.769531 6.683594 -2.140625 6.433594 -1.582031 C 6.183594 -1.019531 5.816406 -0.589844 5.339844 -0.292969 C 4.855469 0.00390625 4.351563 0.152344 3.828125 0.15625 C 3.4375 0.152344 3.09375 0.0742188 2.789063 -0.0898438 C 2.480469 -0.25 2.226563 -0.457031 2.03125 -0.710938 L 2.03125 2.625 Z M 1.921875 -3.382813 C 1.921875 -2.5 2.097656 -1.851563 2.457031 -1.429688 C 2.808594 -1.007813 3.242188 -0.796875 3.75 -0.800781 C 4.265625 -0.796875 4.707031 -1.015625 5.074219 -1.453125 C 5.441406 -1.890625 5.625 -2.566406 5.625 -3.480469 C 5.625 -4.351563 5.445313 -5.003906 5.085938 -5.4375 C 4.726563 -5.871094 4.296875 -6.085938 3.804688 -6.089844 C 3.304688 -6.085938 2.867188 -5.855469 2.492188 -5.394531 C 2.109375 -4.929688 1.921875 -4.257813 1.921875 -3.382813 Z M 1.921875 -3.382813 "/>
</symbol>
<symbol overflow="visible" id="glyph2-5">
<path style="stroke:none;" d="M 0.84375 0 L 0.84375 -9.449219 L 2.003906 -9.449219 L 2.003906 0 Z M 0.84375 0 "/>
</symbol>
<symbol overflow="visible" id="glyph2-6">
<path style="stroke:none;" d="M 5.554688 -2.203125 L 6.753906 -2.054688 C 6.5625 -1.351563 6.210938 -0.808594 5.703125 -0.421875 C 5.1875 -0.0390625 4.535156 0.152344 3.746094 0.15625 C 2.738281 0.152344 1.945313 -0.152344 1.363281 -0.769531 C 0.773438 -1.382813 0.480469 -2.25 0.484375 -3.363281 C 0.480469 -4.515625 0.777344 -5.410156 1.371094 -6.046875 C 1.964844 -6.679688 2.734375 -6.996094 3.679688 -7 C 4.59375 -6.996094 5.339844 -6.683594 5.921875 -6.0625 C 6.5 -5.4375 6.789063 -4.5625 6.792969 -3.433594 C 6.789063 -3.363281 6.789063 -3.257813 6.785156 -3.125 L 1.683594 -3.125 C 1.722656 -2.371094 1.9375 -1.796875 2.320313 -1.398438 C 2.703125 -0.996094 3.179688 -0.796875 3.75 -0.800781 C 4.175781 -0.796875 4.539063 -0.90625 4.839844 -1.132813 C 5.140625 -1.351563 5.378906 -1.710938 5.554688 -2.203125 Z M 1.746094 -4.078125 L 5.570313 -4.078125 C 5.515625 -4.65625 5.367188 -5.085938 5.128906 -5.375 C 4.757813 -5.820313 4.28125 -6.046875 3.691406 -6.046875 C 3.160156 -6.046875 2.710938 -5.867188 2.347656 -5.511719 C 1.984375 -5.152344 1.785156 -4.675781 1.746094 -4.078125 Z M 1.746094 -4.078125 "/>
</symbol>
<symbol overflow="visible" id="glyph2-7">
<path style="stroke:none;" d="M 3.421875 0 L 3.421875 -8.332031 L 0.308594 -8.332031 L 0.308594 -9.449219 L 7.796875 -9.449219 L 7.796875 -8.332031 L 4.671875 -8.332031 L 4.671875 0 Z M 3.421875 0 "/>
</symbol>
<symbol overflow="visible" id="glyph2-8">
<path style="stroke:none;" d="M 0.820313 2.636719 L 0.691406 1.546875 C 0.941406 1.613281 1.160156 1.644531 1.351563 1.648438 C 1.609375 1.644531 1.816406 1.601563 1.972656 1.519531 C 2.125 1.429688 2.25 1.3125 2.351563 1.160156 C 2.421875 1.042969 2.542969 0.753906 2.707031 0.296875 C 2.726563 0.230469 2.757813 0.136719 2.808594 0.0117188 L 0.210938 -6.84375 L 1.464844 -6.84375 L 2.886719 -2.882813 C 3.070313 -2.375 3.234375 -1.84375 3.382813 -1.296875 C 3.511719 -1.824219 3.671875 -2.34375 3.859375 -2.855469 L 5.324219 -6.84375 L 6.484375 -6.84375 L 3.878906 0.117188 C 3.597656 0.867188 3.378906 1.382813 3.230469 1.667969 C 3.019531 2.046875 2.785156 2.328125 2.519531 2.507813 C 2.253906 2.6875 1.933594 2.777344 1.566406 2.777344 C 1.339844 2.777344 1.09375 2.730469 0.820313 2.636719 Z M 0.820313 2.636719 "/>
</symbol>
<symbol overflow="visible" id="glyph2-9">
<path style="stroke:none;" d="M -0.199219 2.625 L -0.199219 1.785156 L 7.488281 1.785156 L 7.488281 2.625 Z M -0.199219 2.625 "/>
</symbol>
<symbol overflow="visible" id="glyph2-10">
<path style="stroke:none;" d="M 1.003906 0 L 1.003906 -9.449219 L 2.289063 -9.449219 L 7.25 -2.03125 L 7.25 -9.449219 L 8.449219 -9.449219 L 8.449219 0 L 7.167969 0 L 2.203125 -7.425781 L 2.203125 0 Z M 1.003906 0 "/>
</symbol>
<symbol overflow="visible" id="glyph2-11">
<path style="stroke:none;" d="M 5.355469 0 L 5.355469 -1.003906 C 4.824219 -0.230469 4.097656 0.152344 3.183594 0.15625 C 2.777344 0.152344 2.402344 0.078125 2.050781 -0.0742188 C 1.699219 -0.226563 1.4375 -0.421875 1.273438 -0.660156 C 1.101563 -0.890625 0.984375 -1.175781 0.914063 -1.519531 C 0.867188 -1.746094 0.84375 -2.109375 0.84375 -2.605469 L 0.84375 -6.84375 L 2.003906 -6.84375 L 2.003906 -3.046875 C 2.003906 -2.441406 2.027344 -2.03125 2.074219 -1.824219 C 2.144531 -1.515625 2.296875 -1.277344 2.539063 -1.105469 C 2.773438 -0.929688 3.066406 -0.84375 3.414063 -0.84375 C 3.761719 -0.84375 4.089844 -0.929688 4.394531 -1.109375 C 4.699219 -1.285156 4.914063 -1.53125 5.042969 -1.839844 C 5.167969 -2.144531 5.230469 -2.589844 5.234375 -3.175781 L 5.234375 -6.84375 L 6.394531 -6.84375 L 6.394531 0 Z M 5.355469 0 "/>
</symbol>
<symbol overflow="visible" id="glyph2-12">
<path style="stroke:none;" d="M 0.855469 0 L 0.855469 -6.84375 L 1.902344 -6.84375 L 1.902344 -5.808594 C 2.164063 -6.289063 2.410156 -6.609375 2.636719 -6.765625 C 2.863281 -6.917969 3.109375 -6.996094 3.382813 -7 C 3.769531 -6.996094 4.167969 -6.871094 4.578125 -6.625 L 4.175781 -5.550781 C 3.890625 -5.714844 3.605469 -5.800781 3.324219 -5.800781 C 3.066406 -5.800781 2.839844 -5.722656 2.640625 -5.570313 C 2.4375 -5.417969 2.292969 -5.207031 2.210938 -4.9375 C 2.078125 -4.523438 2.015625 -4.070313 2.015625 -3.582031 L 2.015625 0 Z M 0.855469 0 "/>
</symbol>
<symbol overflow="visible" id="glyph2-13">
<path style="stroke:none;" d="M 0.4375 -3.421875 C 0.433594 -4.6875 0.785156 -5.625 1.496094 -6.238281 C 2.082031 -6.742188 2.800781 -6.996094 3.648438 -7 C 4.585938 -6.996094 5.355469 -6.6875 5.953125 -6.074219 C 6.550781 -5.453125 6.847656 -4.601563 6.851563 -3.519531 C 6.847656 -2.636719 6.714844 -1.945313 6.453125 -1.441406 C 6.1875 -0.933594 5.804688 -0.539063 5.300781 -0.261719 C 4.792969 0.015625 4.242188 0.152344 3.648438 0.15625 C 2.6875 0.152344 1.914063 -0.152344 1.324219 -0.765625 C 0.730469 -1.378906 0.433594 -2.265625 0.4375 -3.421875 Z M 1.628906 -3.421875 C 1.628906 -2.546875 1.820313 -1.890625 2.203125 -1.453125 C 2.585938 -1.015625 3.066406 -0.796875 3.648438 -0.800781 C 4.222656 -0.796875 4.703125 -1.015625 5.085938 -1.457031 C 5.46875 -1.890625 5.660156 -2.558594 5.660156 -3.460938 C 5.660156 -4.304688 5.464844 -4.945313 5.082031 -5.382813 C 4.691406 -5.816406 4.214844 -6.035156 3.648438 -6.039063 C 3.066406 -6.035156 2.585938 -5.816406 2.203125 -5.386719 C 1.820313 -4.949219 1.628906 -4.296875 1.628906 -3.421875 Z M 1.628906 -3.421875 "/>
</symbol>
<symbol overflow="visible" id="glyph2-14">
<path style="stroke:none;" d="M 0.871094 0 L 0.871094 -6.84375 L 1.914063 -6.84375 L 1.914063 -5.871094 C 2.414063 -6.621094 3.140625 -6.996094 4.09375 -7 C 4.503906 -6.996094 4.882813 -6.921875 5.230469 -6.777344 C 5.574219 -6.625 5.832031 -6.429688 6.007813 -6.191406 C 6.175781 -5.949219 6.296875 -5.664063 6.367188 -5.335938 C 6.410156 -5.121094 6.433594 -4.746094 6.433594 -4.207031 L 6.433594 0 L 5.273438 0 L 5.273438 -4.164063 C 5.273438 -4.632813 5.226563 -4.984375 5.136719 -5.222656 C 5.042969 -5.453125 4.882813 -5.640625 4.65625 -5.78125 C 4.425781 -5.917969 4.15625 -5.988281 3.847656 -5.992188 C 3.351563 -5.988281 2.925781 -5.832031 2.566406 -5.523438 C 2.207031 -5.207031 2.027344 -4.613281 2.03125 -3.738281 L 2.03125 0 Z M 0.871094 0 "/>
</symbol>
<symbol overflow="visible" id="glyph2-15">
<path style="stroke:none;" d="M 7.761719 -3.3125 L 9.011719 -2.996094 C 8.746094 -1.964844 8.273438 -1.183594 7.59375 -0.648438 C 6.914063 -0.109375 6.082031 0.15625 5.097656 0.160156 C 4.078125 0.15625 3.25 -0.046875 2.613281 -0.460938 C 1.972656 -0.871094 1.484375 -1.472656 1.15625 -2.261719 C 0.820313 -3.046875 0.65625 -3.890625 0.65625 -4.796875 C 0.65625 -5.777344 0.84375 -6.632813 1.21875 -7.367188 C 1.59375 -8.097656 2.128906 -8.65625 2.824219 -9.039063 C 3.519531 -9.417969 4.28125 -9.609375 5.117188 -9.609375 C 6.058594 -9.609375 6.855469 -9.367188 7.5 -8.886719 C 8.144531 -8.40625 8.59375 -7.730469 8.847656 -6.859375 L 7.617188 -6.566406 C 7.398438 -7.25 7.078125 -7.75 6.664063 -8.066406 C 6.242188 -8.378906 5.71875 -8.535156 5.09375 -8.539063 C 4.363281 -8.535156 3.757813 -8.363281 3.269531 -8.015625 C 2.78125 -7.667969 2.4375 -7.199219 2.242188 -6.613281 C 2.042969 -6.023438 1.945313 -5.417969 1.945313 -4.800781 C 1.945313 -3.996094 2.0625 -3.296875 2.296875 -2.695313 C 2.53125 -2.09375 2.894531 -1.644531 3.390625 -1.351563 C 3.882813 -1.054688 4.417969 -0.90625 4.996094 -0.910156 C 5.695313 -0.90625 6.289063 -1.109375 6.773438 -1.515625 C 7.257813 -1.917969 7.585938 -2.515625 7.761719 -3.3125 Z M 7.761719 -3.3125 "/>
</symbol>
<symbol overflow="visible" id="glyph2-16">
<path style="stroke:none;" d="M 5.3125 0 L 5.3125 -0.863281 C 4.875 -0.183594 4.238281 0.152344 3.398438 0.15625 C 2.851563 0.152344 2.347656 0.00390625 1.890625 -0.292969 C 1.433594 -0.59375 1.078125 -1.011719 0.828125 -1.554688 C 0.574219 -2.09375 0.449219 -2.714844 0.453125 -3.414063 C 0.449219 -4.097656 0.5625 -4.71875 0.792969 -5.273438 C 1.015625 -5.828125 1.359375 -6.253906 1.816406 -6.554688 C 2.269531 -6.847656 2.777344 -6.996094 3.34375 -7 C 3.753906 -6.996094 4.121094 -6.910156 4.445313 -6.738281 C 4.765625 -6.5625 5.027344 -6.335938 5.234375 -6.058594 L 5.234375 -9.449219 L 6.386719 -9.449219 L 6.386719 0 Z M 1.644531 -3.414063 C 1.640625 -2.535156 1.824219 -1.878906 2.199219 -1.449219 C 2.566406 -1.011719 3.003906 -0.796875 3.507813 -0.800781 C 4.011719 -0.796875 4.441406 -1.003906 4.796875 -1.421875 C 5.152344 -1.832031 5.332031 -2.464844 5.332031 -3.320313 C 5.332031 -4.253906 5.148438 -4.941406 4.789063 -5.378906 C 4.421875 -5.816406 3.976563 -6.035156 3.453125 -6.039063 C 2.933594 -6.035156 2.503906 -5.824219 2.160156 -5.40625 C 1.8125 -4.984375 1.640625 -4.320313 1.644531 -3.414063 Z M 1.644531 -3.414063 "/>
</symbol>
<symbol overflow="visible" id="glyph2-17">
<path style="stroke:none;" d="M 0.875 -8.113281 L 0.875 -9.449219 L 2.035156 -9.449219 L 2.035156 -8.113281 Z M 0.875 0 L 0.875 -6.84375 L 2.035156 -6.84375 L 2.035156 0 Z M 0.875 0 "/>
</symbol>
<symbol overflow="visible" id="glyph2-18">
<path style="stroke:none;" d="M 3.402344 -1.039063 L 3.570313 -0.0117188 C 3.242188 0.0546875 2.953125 0.0859375 2.695313 0.0898438 C 2.273438 0.0859375 1.945313 0.0234375 1.714844 -0.109375 C 1.480469 -0.238281 1.316406 -0.414063 1.222656 -0.632813 C 1.125 -0.851563 1.078125 -1.308594 1.082031 -2.003906 L 1.082031 -5.941406 L 0.230469 -5.941406 L 0.230469 -6.84375 L 1.082031 -6.84375 L 1.082031 -8.539063 L 2.238281 -9.234375 L 2.238281 -6.84375 L 3.402344 -6.84375 L 3.402344 -5.941406 L 2.238281 -5.941406 L 2.238281 -1.941406 C 2.238281 -1.605469 2.257813 -1.394531 2.296875 -1.300781 C 2.335938 -1.207031 2.402344 -1.128906 2.496094 -1.074219 C 2.589844 -1.015625 2.722656 -0.988281 2.894531 -0.992188 C 3.019531 -0.988281 3.1875 -1.003906 3.402344 -1.039063 Z M 3.402344 -1.039063 "/>
</symbol>
<symbol overflow="visible" id="glyph2-19">
<path style="stroke:none;" d="M 2.667969 0 L 0.160156 -9.449219 L 1.445313 -9.449219 L 2.882813 -3.253906 C 3.035156 -2.601563 3.167969 -1.957031 3.28125 -1.320313 C 3.519531 -2.328125 3.660156 -2.910156 3.707031 -3.066406 L 5.503906 -9.449219 L 7.011719 -9.449219 L 8.367188 -4.667969 C 8.703125 -3.476563 8.945313 -2.359375 9.101563 -1.320313 C 9.21875 -1.914063 9.375 -2.601563 9.570313 -3.378906 L 11.054688 -9.449219 L 12.3125 -9.449219 L 9.71875 0 L 8.515625 0 L 6.523438 -7.199219 C 6.351563 -7.796875 6.253906 -8.167969 6.226563 -8.308594 C 6.125 -7.871094 6.03125 -7.5 5.949219 -7.199219 L 3.945313 0 Z M 2.667969 0 "/>
</symbol>
<symbol overflow="visible" id="glyph2-20">
<path style="stroke:none;" d="M 0.875 0 L 0.875 -9.449219 L 2.035156 -9.449219 L 2.035156 -4.0625 L 4.78125 -6.84375 L 6.285156 -6.84375 L 3.667969 -4.304688 L 6.546875 0 L 5.117188 0 L 2.855469 -3.5 L 2.035156 -2.714844 L 2.035156 0 Z M 0.875 0 "/>
</symbol>
<symbol overflow="visible" id="glyph2-21">
<path style="stroke:none;" d="M 0.65625 0.566406 L 1.785156 0.734375 C 1.828125 1.078125 1.960938 1.332031 2.179688 1.496094 C 2.464844 1.707031 2.855469 1.816406 3.359375 1.816406 C 3.890625 1.816406 4.304688 1.707031 4.601563 1.492188 C 4.890625 1.277344 5.089844 0.976563 5.195313 0.59375 C 5.253906 0.351563 5.28125 -0.140625 5.277344 -0.894531 C 4.769531 -0.296875 4.136719 0 3.382813 0 C 2.4375 0 1.710938 -0.335938 1.199219 -1.015625 C 0.679688 -1.691406 0.421875 -2.507813 0.425781 -3.460938 C 0.421875 -4.113281 0.539063 -4.714844 0.777344 -5.269531 C 1.011719 -5.816406 1.355469 -6.242188 1.804688 -6.546875 C 2.253906 -6.84375 2.78125 -6.996094 3.390625 -7 C 4.195313 -6.996094 4.859375 -6.667969 5.386719 -6.019531 L 5.386719 -6.84375 L 6.457031 -6.84375 L 6.457031 -0.929688 C 6.457031 0.136719 6.347656 0.890625 6.132813 1.335938 C 5.914063 1.78125 5.570313 2.132813 5.101563 2.390625 C 4.628906 2.648438 4.050781 2.777344 3.363281 2.777344 C 2.546875 2.777344 1.886719 2.59375 1.386719 2.226563 C 0.882813 1.859375 0.640625 1.304688 0.65625 0.566406 Z M 1.617188 -3.546875 C 1.617188 -2.644531 1.792969 -1.988281 2.152344 -1.578125 C 2.503906 -1.164063 2.953125 -0.960938 3.492188 -0.960938 C 4.023438 -0.960938 4.46875 -1.164063 4.832031 -1.574219 C 5.191406 -1.984375 5.371094 -2.628906 5.375 -3.507813 C 5.371094 -4.339844 5.1875 -4.96875 4.816406 -5.398438 C 4.445313 -5.820313 3.996094 -6.035156 3.472656 -6.039063 C 2.953125 -6.035156 2.515625 -5.824219 2.15625 -5.410156 C 1.796875 -4.988281 1.617188 -4.367188 1.617188 -3.546875 Z M 1.617188 -3.546875 "/>
</symbol>
<symbol overflow="visible" id="glyph2-22">
<path style="stroke:none;" d="M 0.0976563 0 L 2.597656 -3.558594 L 0.285156 -6.84375 L 1.734375 -6.84375 L 2.785156 -5.238281 C 2.980469 -4.933594 3.140625 -4.675781 3.261719 -4.472656 C 3.449219 -4.753906 3.625 -5.007813 3.785156 -5.226563 L 4.9375 -6.84375 L 6.324219 -6.84375 L 3.957031 -3.621094 L 6.503906 0 L 5.078125 0 L 3.671875 -2.125 L 3.300781 -2.699219 L 1.5 0 Z M 0.0976563 0 "/>
</symbol>
</g>
</defs>
<g id="surface296">
<rect x="0" y="0" width="720" height="360" style="fill:rgb(100%,100%,100%);fill-opacity:1;stroke:none;"/>
<path style=" stroke:none;fill-rule:nonzero;fill:rgb(65.098039%,80.784314%,89.019608%);fill-opacity:0.501961;" d="M 151.484375 188.851563 L 151.484375 67.664063 L 147.375 67.734375 L 143.265625 67.941406 L 139.171875 68.292969 L 135.085938 68.777344 L 131.023438 69.40625 L 126.980469 70.167969 L 122.96875 71.066406 L 118.988281 72.101563 L 115.046875 73.273438 L 111.144531 74.574219 L 107.292969 76.007813 L 103.488281 77.574219 L 105.144531 81.410156 L 106.800781 85.25 L 108.453125 89.085938 L 110.109375 92.921875 L 111.765625 96.761719 L 113.417969 100.597656 L 115.074219 104.433594 L 116.730469 108.273438 L 118.386719 112.109375 L 120.039063 115.945313 L 121.695313 119.785156 L 123.351563 123.621094 L 125.003906 127.457031 L 126.660156 131.292969 L 128.316406 135.132813 L 129.96875 138.96875 L 131.625 142.804688 L 133.28125 146.644531 L 134.933594 150.480469 L 136.589844 154.316406 L 138.246094 158.15625 L 139.902344 161.992188 L 141.554688 165.828125 L 143.210938 169.667969 L 144.867188 173.503906 L 146.519531 177.339844 L 148.175781 181.179688 L 149.832031 185.015625 Z M 151.484375 188.851563 "/>
<path style=" stroke:none;fill-rule:nonzero;fill:rgb(12.156863%,47.058824%,70.588235%);fill-opacity:0.501961;" d="M 151.484375 188.851563 L 149.832031 185.015625 L 148.175781 181.179688 L 146.519531 177.339844 L 144.867188 173.503906 L 143.210938 169.667969 L 141.554688 165.828125 L 139.902344 161.992188 L 138.246094 158.15625 L 136.589844 154.316406 L 134.933594 150.480469 L 133.28125 146.644531 L 131.625 142.804688 L 129.96875 138.96875 L 128.316406 135.132813 L 126.660156 131.292969 L 125.003906 127.457031 L 123.351563 123.621094 L 121.695313 119.785156 L 120.039063 115.945313 L 118.386719 112.109375 L 116.730469 108.273438 L 115.074219 104.433594 L 113.417969 100.597656 L 111.765625 96.761719 L 110.109375 92.921875 L 108.453125 89.085938 L 106.800781 85.25 L 105.144531 81.410156 L 103.488281 77.574219 L 97.339844 80.433594 L 112.277344 110.339844 L 114.144531 114.082031 L 132.816406 151.464844 L 134.683594 155.207031 L 147.753906 181.375 L 149.617188 185.113281 Z M 151.484375 188.851563 "/>
<path style=" stroke:none;fill-rule:nonzero;fill:rgb(69.803922%,87.45098%,54.117647%);fill-opacity:0.501961;" d="M 151.484375 188.851563 L 149.617188 185.113281 L 147.753906 181.375 L 134.683594 155.207031 L 132.816406 151.464844 L 114.144531 114.082031 L 112.277344 110.339844 L 97.339844 80.433594 L 96.816406 80.695313 L 98.699219 84.425781 L 100.585938 88.15625 L 102.46875 91.886719 L 104.355469 95.613281 L 106.242188 99.34375 L 108.125 103.074219 L 110.011719 106.804688 L 111.894531 110.53125 L 115.667969 117.992188 L 117.550781 121.722656 L 119.4375 125.449219 L 121.324219 129.179688 L 123.207031 132.910156 L 125.09375 136.640625 L 126.976563 140.371094 L 128.863281 144.097656 L 130.75 147.828125 L 132.632813 151.558594 L 134.519531 155.289063 L 136.40625 159.015625 L 138.289063 162.746094 L 140.175781 166.476563 L 142.058594 170.207031 L 143.945313 173.933594 L 145.832031 177.664063 L 147.714844 181.394531 L 149.601563 185.125 Z M 151.484375 188.851563 "/>
<path style=" stroke:none;fill-rule:nonzero;fill:rgb(55.294118%,82.745098%,78.039216%);fill-opacity:0.501961;" d="M 151.484375 188.851563 L 149.601563 185.125 L 147.714844 181.394531 L 145.832031 177.664063 L 143.945313 173.933594 L 142.058594 170.207031 L 140.175781 166.476563 L 138.289063 162.746094 L 136.40625 159.015625 L 134.519531 155.289063 L 132.632813 151.558594 L 130.75 147.828125 L 128.863281 144.097656 L 126.976563 140.371094 L 125.09375 136.640625 L 123.207031 132.910156 L 121.324219 129.179688 L 119.4375 125.449219 L 117.550781 121.722656 L 115.667969 117.992188 L 111.894531 110.53125 L 110.011719 106.804688 L 108.125 103.074219 L 106.242188 99.34375 L 104.355469 95.613281 L 102.46875 91.886719 L 100.585938 88.15625 L 98.699219 84.425781 L 96.816406 80.695313 L 93.054688 82.679688 L 89.367188 84.796875 L 91.507813 88.382813 L 93.652344 91.972656 L 95.792969 95.558594 L 97.933594 99.148438 L 100.078125 102.738281 L 102.21875 106.324219 L 104.359375 109.914063 L 106.503906 113.5 L 108.644531 117.089844 L 110.785156 120.675781 L 112.929688 124.265625 L 115.070313 127.855469 L 117.214844 131.441406 L 119.355469 135.03125 L 121.496094 138.617188 L 123.640625 142.207031 L 125.78125 145.796875 L 127.921875 149.382813 L 130.066406 152.972656 L 132.207031 156.558594 L 134.351563 160.148438 L 136.492188 163.734375 L 138.632813 167.324219 L 140.777344 170.914063 L 142.917969 174.5 L 145.058594 178.089844 L 147.203125 181.675781 L 149.34375 185.265625 Z M 151.484375 188.851563 "/>
<path style=" stroke:none;fill-rule:nonzero;fill:rgb(20%,62.745098%,17.254902%);fill-opacity:0.501961;" d="M 151.484375 188.851563 L 149.34375 185.265625 L 147.203125 181.675781 L 145.058594 178.089844 L 142.917969 174.5 L 140.777344 170.914063 L 138.632813 167.324219 L 136.492188 163.734375 L 134.351563 160.148438 L 132.207031 156.558594 L 130.066406 152.972656 L 127.921875 149.382813 L 125.78125 145.796875 L 123.640625 142.207031 L 121.496094 138.617188 L 119.355469 135.03125 L 117.214844 131.441406 L 115.070313 127.855469 L 112.929688 124.265625 L 110.785156 120.675781 L 108.644531 117.089844 L 106.503906 113.5 L 104.359375 109.914063 L 102.21875 106.324219 L 100.078125 102.738281 L 97.933594 99.148438 L 95.792969 95.558594 L 93.652344 91.972656 L 91.507813 88.382813 L 89.367188 84.796875 L 85.871094 86.964844 L 82.453125 89.246094 L 79.113281 91.648438 L 75.855469 94.160156 L 72.6875 96.777344 L 69.609375 99.503906 L 66.625 102.335938 L 63.738281 105.265625 L 60.953125 108.289063 L 58.273438 111.40625 L 55.699219 114.613281 L 53.234375 117.90625 L 50.882813 121.28125 L 48.648438 124.734375 L 46.535156 128.257813 L 44.539063 131.855469 L 42.664063 135.515625 L 40.917969 139.238281 L 39.300781 143.019531 L 37.808594 146.851563 L 36.449219 150.730469 L 35.222656 154.65625 L 34.128906 158.621094 L 33.171875 162.617188 L 32.347656 166.648438 L 31.664063 170.703125 L 31.117188 174.777344 L 30.710938 178.871094 L 30.441406 182.972656 L 30.308594 187.082031 L 30.320313 191.195313 L 30.46875 195.304688 L 30.757813 199.40625 L 31.183594 203.496094 L 31.75 207.570313 L 32.457031 211.621094 L 33.296875 215.648438 L 34.273438 219.640625 L 35.386719 223.601563 L 36.632813 227.519531 L 38.007813 231.394531 L 39.519531 235.21875 L 41.15625 238.992188 L 42.917969 242.707031 L 44.808594 246.359375 L 46.820313 249.945313 L 48.953125 253.460938 L 51.207031 256.902344 L 53.570313 260.265625 L 56.050781 263.546875 L 58.640625 266.738281 L 61.335938 269.84375 L 64.136719 272.855469 L 67.035156 275.773438 L 70.035156 278.585938 L 73.125 281.300781 L 76.304688 283.90625 L 79.574219 286.402344 L 82.925781 288.785156 L 86.355469 291.050781 L 89.859375 293.203125 L 93.4375 295.234375 L 97.078125 297.140625 L 100.785156 298.925781 L 104.546875 300.582031 L 108.363281 302.109375 L 112.230469 303.507813 L 116.144531 304.773438 L 120.097656 305.90625 L 124.085938 306.902344 L 128.109375 307.765625 L 132.15625 308.492188 L 136.226563 309.078125 L 140.3125 309.527344 L 144.414063 309.835938 L 148.523438 310.003906 L 152.636719 310.035156 L 156.746094 309.929688 L 160.851563 309.679688 L 164.945313 309.292969 L 169.023438 308.765625 L 173.082031 308.101563 L 177.113281 307.300781 L 181.117188 306.363281 L 185.085938 305.289063 L 189.019531 304.082031 L 192.90625 302.742188 L 196.746094 301.273438 L 200.535156 299.671875 L 204.265625 297.945313 L 207.9375 296.089844 L 211.542969 294.113281 L 215.078125 292.015625 L 218.542969 289.800781 L 221.929688 287.464844 L 225.234375 285.019531 L 228.453125 282.460938 L 231.585938 279.796875 L 234.625 277.027344 L 237.570313 274.15625 L 240.414063 271.1875 L 243.15625 268.121094 L 245.792969 264.964844 L 248.320313 261.722656 L 250.738281 258.394531 L 253.039063 254.988281 L 255.222656 251.503906 L 257.289063 247.949219 L 259.234375 244.324219 L 261.054688 240.636719 L 262.746094 236.890625 L 264.3125 233.089844 L 265.75 229.234375 L 267.054688 225.335938 L 268.226563 221.394531 L 269.261719 217.414063 L 270.164063 213.402344 L 270.925781 209.359375 L 271.554688 205.296875 L 272.042969 201.214844 L 272.394531 197.117188 L 272.605469 193.011719 L 272.675781 188.898438 L 272.605469 184.785156 L 272.398438 180.679688 L 272.050781 176.582031 L 271.566406 172.5 L 270.941406 168.433594 L 270.179688 164.394531 L 269.28125 160.378906 L 268.25 156.402344 L 267.082031 152.457031 L 265.78125 148.558594 L 264.347656 144.703125 L 262.785156 140.898438 L 261.09375 137.152344 L 259.277344 133.460938 L 257.335938 129.835938 L 255.269531 126.28125 L 253.089844 122.792969 L 250.789063 119.386719 L 248.375 116.054688 L 245.847656 112.8125 L 243.214844 109.652344 L 240.476563 106.585938 L 237.632813 103.617188 L 234.691406 100.742188 L 231.652344 97.96875 L 228.523438 95.300781 L 225.304688 92.742188 L 222.003906 90.292969 L 218.617188 87.957031 L 215.15625 85.738281 L 211.621094 83.636719 L 208.019531 81.65625 L 204.347656 79.800781 L 200.617188 78.070313 L 196.832031 76.46875 L 192.992188 74.992188 L 189.105469 73.652344 L 185.175781 72.441406 L 181.207031 71.363281 L 177.203125 70.425781 L 173.171875 69.621094 L 169.113281 68.953125 L 165.035156 68.425781 L 164.566406 72.578125 L 164.101563 76.730469 L 163.164063 85.035156 L 162.699219 89.1875 L 162.230469 93.339844 L 161.765625 97.492188 L 160.828125 105.796875 L 160.363281 109.953125 L 159.894531 114.105469 L 159.429688 118.257813 L 158.492188 126.5625 L 158.027344 130.714844 L 157.558594 134.867188 L 157.09375 139.019531 L 156.15625 147.324219 L 155.691406 151.480469 L 155.222656 155.632813 L 154.757813 159.785156 L 153.820313 168.089844 L 153.355469 172.242188 L 152.886719 176.394531 L 152.421875 180.546875 Z M 151.484375 188.851563 "/>
<path style=" stroke:none;fill-rule:nonzero;fill:rgb(98.431373%,60.392157%,60%);fill-opacity:0.501961;" d="M 151.484375 188.851563 L 152.421875 180.546875 L 152.886719 176.394531 L 153.355469 172.242188 L 153.820313 168.089844 L 154.757813 159.785156 L 155.222656 155.632813 L 155.691406 151.480469 L 156.15625 147.324219 L 157.09375 139.019531 L 157.558594 134.867188 L 158.027344 130.714844 L 158.492188 126.5625 L 159.429688 118.257813 L 159.894531 114.105469 L 160.363281 109.953125 L 160.828125 105.796875 L 161.765625 97.492188 L 162.230469 93.339844 L 162.699219 89.1875 L 163.164063 85.035156 L 164.101563 76.730469 L 164.566406 72.578125 L 165.035156 68.425781 L 160.535156 68.003906 L 160.222656 72.167969 L 158.660156 93.007813 L 158.347656 97.171875 L 158.039063 101.339844 L 157.101563 113.84375 L 156.789063 118.007813 L 156.164063 126.34375 L 155.855469 130.511719 L 155.230469 138.847656 L 154.917969 143.011719 L 153.980469 155.515625 L 153.671875 159.683594 L 153.359375 163.847656 L 151.796875 184.6875 Z M 151.484375 188.851563 "/>
<path style=" stroke:none;fill-rule:nonzero;fill:rgb(89.019608%,10.196078%,10.980392%);fill-opacity:0.501961;" d="M 151.484375 188.851563 L 151.796875 184.6875 L 153.359375 163.847656 L 153.671875 159.683594 L 153.980469 155.515625 L 154.917969 143.011719 L 155.230469 138.847656 L 155.855469 130.511719 L 156.164063 126.34375 L 156.789063 118.007813 L 157.101563 113.84375 L 158.039063 101.339844 L 158.347656 97.171875 L 158.660156 93.007813 L 160.222656 72.167969 L 160.535156 68.003906 L 160.015625 67.964844 L 159.429688 76.300781 L 159.132813 80.46875 L 158.839844 84.640625 L 158.546875 88.808594 L 158.25 92.976563 L 157.664063 101.3125 L 157.367188 105.480469 L 157.074219 109.648438 L 156.78125 113.820313 L 156.488281 117.988281 L 156.191406 122.15625 L 155.605469 130.492188 L 155.308594 134.660156 L 155.015625 138.832031 L 154.722656 143 L 154.425781 147.167969 L 153.546875 159.671875 L 153.25 163.839844 L 152.957031 168.011719 L 152.664063 172.179688 L 152.367188 176.347656 L 151.78125 184.683594 Z M 151.484375 188.851563 "/>
<path style=" stroke:none;fill-rule:nonzero;fill:rgb(99.215686%,74.901961%,43.529412%);fill-opacity:0.501961;" d="M 151.484375 188.851563 L 151.78125 184.683594 L 152.367188 176.347656 L 152.664063 172.179688 L 152.957031 168.011719 L 153.25 163.839844 L 153.546875 159.671875 L 154.425781 147.167969 L 154.722656 143 L 155.015625 138.832031 L 155.308594 134.660156 L 155.605469 130.492188 L 156.191406 122.15625 L 156.488281 117.988281 L 156.78125 113.820313 L 157.074219 109.648438 L 157.367188 105.480469 L 157.664063 101.3125 L 158.25 92.976563 L 158.546875 88.808594 L 158.839844 84.640625 L 159.132813 80.46875 L 159.429688 76.300781 L 160.015625 67.964844 L 159.886719 67.957031 L 159.019531 80.460938 L 158.730469 84.632813 L 158.441406 88.800781 L 158.148438 92.96875 L 157.859375 97.136719 L 157.570313 101.308594 L 156.703125 113.8125 L 156.410156 117.980469 L 156.121094 122.152344 L 155.253906 134.65625 L 154.964844 138.828125 L 154.671875 142.996094 L 154.09375 151.332031 L 153.804688 155.503906 L 153.515625 159.671875 L 153.222656 163.839844 L 152.644531 172.175781 L 152.355469 176.347656 L 151.777344 184.683594 Z M 151.484375 188.851563 "/>
<path style=" stroke:none;fill-rule:nonzero;fill:rgb(100%,49.803922%,0%);fill-opacity:0.501961;" d="M 151.484375 188.851563 L 151.777344 184.683594 L 152.355469 176.347656 L 152.644531 172.175781 L 153.222656 163.839844 L 153.515625 159.671875 L 153.804688 155.503906 L 154.09375 151.332031 L 154.671875 142.996094 L 154.964844 138.828125 L 155.253906 134.65625 L 156.121094 122.152344 L 156.410156 117.980469 L 156.703125 113.8125 L 157.570313 101.308594 L 157.859375 97.136719 L 158.148438 92.96875 L 158.441406 88.800781 L 158.730469 84.632813 L 159.019531 80.460938 L 159.886719 67.957031 L 159.726563 67.945313 L 159.445313 72.113281 L 159.160156 76.285156 L 158.589844 84.621094 L 158.308594 88.792969 L 157.453125 101.296875 L 157.171875 105.46875 L 156.601563 113.804688 L 156.316406 117.976563 L 156.035156 122.144531 L 155.75 126.3125 L 155.464844 130.484375 L 155.179688 134.652344 L 154.898438 138.820313 L 154.613281 142.992188 L 154.042969 151.328125 L 153.761719 155.5 L 153.191406 163.835938 L 152.90625 168.007813 L 152.621094 172.175781 L 152.339844 176.34375 L 152.054688 180.515625 Z M 151.484375 188.851563 "/>
<path style=" stroke:none;fill-rule:nonzero;fill:rgb(50.196078%,50.196078%,50.196078%);fill-opacity:0.501961;" d="M 151.484375 188.851563 L 152.054688 180.515625 L 152.339844 176.34375 L 152.621094 172.175781 L 152.90625 168.007813 L 153.191406 163.835938 L 153.761719 155.5 L 154.042969 151.328125 L 154.613281 142.992188 L 154.898438 138.820313 L 155.179688 134.652344 L 155.464844 130.484375 L 155.75 126.3125 L 156.035156 122.144531 L 156.316406 117.976563 L 156.601563 113.804688 L 157.171875 105.46875 L 157.453125 101.296875 L 158.308594 88.792969 L 158.589844 84.621094 L 159.160156 76.285156 L 159.445313 72.113281 L 159.726563 67.945313 L 154.945313 67.714844 L 154.828125 71.890625 L 154.707031 76.066406 L 154.589844 80.246094 L 154.46875 84.421875 L 154.347656 88.601563 L 154.230469 92.777344 L 154.109375 96.953125 L 153.992188 101.132813 L 153.871094 105.308594 L 153.753906 109.484375 L 153.632813 113.664063 L 153.515625 117.839844 L 153.394531 122.015625 L 153.277344 126.195313 L 153.15625 130.371094 L 153.039063 134.550781 L 152.796875 142.902344 L 152.679688 147.082031 L 152.558594 151.257813 L 152.441406 155.433594 L 152.320313 159.613281 L 152.203125 163.789063 L 152.082031 167.96875 L 151.964844 172.144531 L 151.84375 176.320313 L 151.726563 180.5 Z M 151.484375 188.851563 "/>
<path style=" stroke:none;fill-rule:nonzero;fill:rgb(79.215686%,69.803922%,83.921569%);fill-opacity:0.501961;" d="M 151.484375 188.851563 L 151.726563 180.5 L 151.84375 176.320313 L 151.964844 172.144531 L 152.082031 167.96875 L 152.203125 163.789063 L 152.320313 159.613281 L 152.441406 155.433594 L 152.558594 151.257813 L 152.679688 147.082031 L 152.796875 142.902344 L 153.039063 134.550781 L 153.15625 130.371094 L 153.277344 126.195313 L 153.394531 122.015625 L 153.515625 117.839844 L 153.632813 113.664063 L 153.753906 109.484375 L 153.871094 105.308594 L 153.992188 101.132813 L 154.109375 96.953125 L 154.230469 92.777344 L 154.347656 88.601563 L 154.46875 84.421875 L 154.589844 80.246094 L 154.707031 76.066406 L 154.828125 71.890625 L 154.945313 67.714844 L 153.214844 67.675781 L 153.152344 71.855469 L 153.09375 76.035156 L 153.035156 80.210938 L 152.976563 84.390625 L 152.914063 88.570313 L 152.855469 92.746094 L 152.738281 101.105469 L 152.675781 105.28125 L 152.5 117.820313 L 152.4375 121.996094 L 152.320313 130.355469 L 152.261719 134.53125 L 152.199219 138.710938 L 152.140625 142.890625 L 152.082031 147.066406 L 152.023438 151.246094 L 151.960938 155.425781 L 151.902344 159.605469 L 151.84375 163.78125 L 151.785156 167.960938 L 151.722656 172.140625 L 151.664063 176.316406 L 151.546875 184.675781 Z M 151.484375 188.851563 "/>
<path style=" stroke:none;fill-rule:nonzero;fill:rgb(41.568627%,23.921569%,60.392157%);fill-opacity:0.501961;" d="M 151.484375 188.851563 L 151.546875 184.675781 L 151.664063 176.316406 L 151.722656 172.140625 L 151.785156 167.960938 L 151.84375 163.78125 L 151.902344 159.605469 L 151.960938 155.425781 L 152.023438 151.246094 L 152.082031 147.066406 L 152.140625 142.890625 L 152.199219 138.710938 L 152.261719 134.53125 L 152.320313 130.355469 L 152.4375 121.996094 L 152.5 117.820313 L 152.675781 105.28125 L 152.738281 101.105469 L 152.855469 92.746094 L 152.914063 88.570313 L 152.976563 84.390625 L 153.035156 80.210938 L 153.09375 76.035156 L 153.152344 71.855469 L 153.214844 67.675781 L 151.484375 67.664063 Z M 151.484375 188.851563 "/>
<g style="fill:rgb(0%,0%,0%);fill-opacity:1;">
  <use xlink:href="#glyph0-1" x="308.640625" y="86.371094"/>
  <use xlink:href="#glyph0-2" x="314.758301" y="86.371094"/>
  <use xlink:href="#glyph0-3" x="317.202148" y="86.371094"/>
  <use xlink:href="#glyph0-2" x="323.319824" y="86.371094"/>
  <use xlink:href="#glyph0-4" x="325.763672" y="86.371094"/>
  <use xlink:href="#glyph0-5" x="331.881348" y="86.371094"/>
  <use xlink:href="#glyph0-6" x="334.9375" y="86.371094"/>
  <use xlink:href="#glyph0-7" x="340.4375" y="86.371094"/>
  <use xlink:href="#glyph0-8" x="342.881348" y="86.371094"/>
  <use xlink:href="#glyph0-9" x="348.999023" y="86.371094"/>
  <use xlink:href="#glyph0-9" x="354.499023" y="86.371094"/>
</g>
<path style=" stroke:none;fill-rule:nonzero;fill:rgb(65.098039%,80.784314%,89.019608%);fill-opacity:0.501961;" d="M 309.351563 109.578125 L 325.214844 109.578125 L 325.214844 93.714844 L 309.351563 93.714844 Z M 309.351563 109.578125 "/>
<path style=" stroke:none;fill-rule:nonzero;fill:rgb(12.156863%,47.058824%,70.588235%);fill-opacity:0.501961;" d="M 309.351563 126.859375 L 325.214844 126.859375 L 325.214844 110.996094 L 309.351563 110.996094 Z M 309.351563 126.859375 "/>
<path style=" stroke:none;fill-rule:nonzero;fill:rgb(69.803922%,87.45098%,54.117647%);fill-opacity:0.501961;" d="M 309.351563 144.136719 L 325.214844 144.136719 L 325.214844 128.273438 L 309.351563 128.273438 Z M 309.351563 144.136719 "/>
<path style=" stroke:none;fill-rule:nonzero;fill:rgb(55.294118%,82.745098%,78.039216%);fill-opacity:0.501961;" d="M 309.351563 161.417969 L 325.214844 161.417969 L 325.214844 145.554688 L 309.351563 145.554688 Z M 309.351563 161.417969 "/>
<path style=" stroke:none;fill-rule:nonzero;fill:rgb(20%,62.745098%,17.254902%);fill-opacity:0.501961;" d="M 309.351563 178.699219 L 325.214844 178.699219 L 325.214844 162.835938 L 309.351563 162.835938 Z M 309.351563 178.699219 "/>
<path style=" stroke:none;fill-rule:nonzero;fill:rgb(98.431373%,60.392157%,60%);fill-opacity:0.501961;" d="M 309.351563 195.980469 L 325.214844 195.980469 L 325.214844 180.117188 L 309.351563 180.117188 Z M 309.351563 195.980469 "/>
<path style=" stroke:none;fill-rule:nonzero;fill:rgb(89.019608%,10.196078%,10.980392%);fill-opacity:0.501961;" d="M 309.351563 213.257813 L 325.214844 213.257813 L 325.214844 197.394531 L 309.351563 197.394531 Z M 309.351563 213.257813 "/>
<path style=" stroke:none;fill-rule:nonzero;fill:rgb(99.215686%,74.901961%,43.529412%);fill-opacity:0.501961;" d="M 309.351563 230.539063 L 325.214844 230.539063 L 325.214844 214.675781 L 309.351563 214.675781 Z M 309.351563 230.539063 "/>
<path style=" stroke:none;fill-rule:nonzero;fill:rgb(100%,49.803922%,0%);fill-opacity:0.501961;" d="M 309.351563 247.820313 L 325.214844 247.820313 L 325.214844 231.957031 L 309.351563 231.957031 Z M 309.351563 247.820313 "/>
<path style=" stroke:none;fill-rule:nonzero;fill:rgb(50.196078%,50.196078%,50.196078%);fill-opacity:0.501961;" d="M 309.351563 265.097656 L 325.214844 265.097656 L 325.214844 249.234375 L 309.351563 249.234375 Z M 309.351563 265.097656 "/>
<path style=" stroke:none;fill-rule:nonzero;fill:rgb(79.215686%,69.803922%,83.921569%);fill-opacity:0.501961;" d="M 309.351563 282.378906 L 325.214844 282.378906 L 325.214844 266.515625 L 309.351563 266.515625 Z M 309.351563 282.378906 "/>
<path style=" stroke:none;fill-rule:nonzero;fill:rgb(41.568627%,23.921569%,60.392157%);fill-opacity:0.501961;" d="M 309.351563 299.660156 L 325.214844 299.660156 L 325.214844 283.796875 L 309.351563 283.796875 Z M 309.351563 299.660156 "/>
<g style="fill:rgb(0%,0%,0%);fill-opacity:1;">
  <use xlink:href="#glyph1-1" x="331.402344" y="104.796875"/>
  <use xlink:href="#glyph1-2" x="337.757422" y="104.796875"/>
  <use xlink:href="#glyph1-3" x="343.626953" y="104.796875"/>
</g>
<g style="fill:rgb(0%,0%,0%);fill-opacity:1;">
  <use xlink:href="#glyph1-1" x="331.402344" y="122.078125"/>
  <use xlink:href="#glyph1-4" x="337.757422" y="122.078125"/>
</g>
<g style="fill:rgb(0%,0%,0%);fill-opacity:1;">
  <use xlink:href="#glyph1-1" x="331.402344" y="139.355469"/>
  <use xlink:href="#glyph1-5" x="337.757422" y="139.355469"/>
  <use xlink:href="#glyph1-6" x="342.651562" y="139.355469"/>
</g>
<g style="fill:rgb(0%,0%,0%);fill-opacity:1;">
  <use xlink:href="#glyph1-7" x="331.402344" y="156.636719"/>
  <use xlink:href="#glyph1-2" x="337.757422" y="156.636719"/>
  <use xlink:href="#glyph1-8" x="343.626953" y="156.636719"/>
</g>
<g style="fill:rgb(0%,0%,0%);fill-opacity:1;">
  <use xlink:href="#glyph1-9" x="331.402344" y="173.917969"/>
  <use xlink:href="#glyph1-2" x="336.777734" y="173.917969"/>
</g>
<g style="fill:rgb(0%,0%,0%);fill-opacity:1;">
  <use xlink:href="#glyph1-10" x="331.402344" y="191.195313"/>
  <use xlink:href="#glyph1-1" x="337.271875" y="191.195313"/>
</g>
<g style="fill:rgb(0%,0%,0%);fill-opacity:1;">
  <use xlink:href="#glyph1-10" x="331.402344" y="208.476563"/>
  <use xlink:href="#glyph1-4" x="337.271875" y="208.476563"/>
</g>
<g style="fill:rgb(0%,0%,0%);fill-opacity:1;">
  <use xlink:href="#glyph1-10" x="331.402344" y="225.757813"/>
  <use xlink:href="#glyph1-8" x="337.271875" y="225.757813"/>
</g>
<g style="fill:rgb(0%,0%,0%);fill-opacity:1;">
  <use xlink:href="#glyph1-10" x="331.402344" y="243.035156"/>
  <use xlink:href="#glyph1-11" x="337.271875" y="243.035156"/>
</g>
<g style="fill:rgb(0%,0%,0%);fill-opacity:1;">
  <use xlink:href="#glyph1-10" x="331.402344" y="260.316406"/>
  <use xlink:href="#glyph1-12" x="337.271875" y="260.316406"/>
</g>
<g style="fill:rgb(0%,0%,0%);fill-opacity:1;">
  <use xlink:href="#glyph1-12" x="331.402344" y="277.597656"/>
  <use xlink:href="#glyph1-13" x="337.271875" y="277.597656"/>
</g>
<g style="fill:rgb(0%,0%,0%);fill-opacity:1;">
  <use xlink:href="#glyph1-14" x="331.402344" y="294.875"/>
  <use xlink:href="#glyph1-2" x="336.777734" y="294.875"/>
  <use xlink:href="#glyph1-8" x="342.647266" y="294.875"/>
</g>
<g style="fill:rgb(0%,0%,0%);fill-opacity:1;">
  <use xlink:href="#glyph2-1" x="0" y="34.589844"/>
  <use xlink:href="#glyph2-2" x="8.804297" y="34.589844"/>
  <use xlink:href="#glyph2-3" x="16.145508" y="34.589844"/>
  <use xlink:href="#glyph2-4" x="27.141211" y="34.589844"/>
  <use xlink:href="#glyph2-5" x="34.482422" y="34.589844"/>
  <use xlink:href="#glyph2-6" x="37.415039" y="34.589844"/>
  <use xlink:href="#glyph2-7" x="44.75625" y="34.589844"/>
  <use xlink:href="#glyph2-8" x="52.819336" y="34.589844"/>
  <use xlink:href="#glyph2-4" x="59.419336" y="34.589844"/>
  <use xlink:href="#glyph2-6" x="66.760547" y="34.589844"/>
  <use xlink:href="#glyph2-9" x="74.101758" y="34.589844"/>
  <use xlink:href="#glyph2-10" x="81.442969" y="34.589844"/>
  <use xlink:href="#glyph2-6" x="90.975586" y="34.589844"/>
  <use xlink:href="#glyph2-11" x="98.316797" y="34.589844"/>
  <use xlink:href="#glyph2-12" x="105.658008" y="34.589844"/>
  <use xlink:href="#glyph2-13" x="110.053711" y="34.589844"/>
  <use xlink:href="#glyph2-14" x="117.394922" y="34.589844"/>
  <use xlink:href="#glyph2-9" x="124.736133" y="34.589844"/>
  <use xlink:href="#glyph2-1" x="132.077344" y="34.589844"/>
  <use xlink:href="#glyph2-5" x="140.881641" y="34.589844"/>
  <use xlink:href="#glyph2-6" x="143.814258" y="34.589844"/>
  <use xlink:href="#glyph2-6" x="151.155469" y="34.589844"/>
  <use xlink:href="#glyph2-4" x="158.49668" y="34.589844"/>
  <use xlink:href="#glyph2-15" x="165.837891" y="34.589844"/>
  <use xlink:href="#glyph2-13" x="175.370508" y="34.589844"/>
  <use xlink:href="#glyph2-14" x="182.711719" y="34.589844"/>
  <use xlink:href="#glyph2-16" x="190.05293" y="34.589844"/>
  <use xlink:href="#glyph2-17" x="197.394141" y="34.589844"/>
  <use xlink:href="#glyph2-18" x="200.326758" y="34.589844"/>
  <use xlink:href="#glyph2-17" x="203.994141" y="34.589844"/>
  <use xlink:href="#glyph2-13" x="206.926758" y="34.589844"/>
  <use xlink:href="#glyph2-14" x="214.267969" y="34.589844"/>
  <use xlink:href="#glyph2-9" x="221.60918" y="34.589844"/>
  <use xlink:href="#glyph2-19" x="228.950391" y="34.589844"/>
  <use xlink:href="#glyph2-2" x="241.40918" y="34.589844"/>
  <use xlink:href="#glyph2-20" x="248.750391" y="34.589844"/>
  <use xlink:href="#glyph2-17" x="255.350391" y="34.589844"/>
  <use xlink:href="#glyph2-14" x="258.283008" y="34.589844"/>
  <use xlink:href="#glyph2-21" x="265.624219" y="34.589844"/>
  <use xlink:href="#glyph2-11" x="272.96543" y="34.589844"/>
  <use xlink:href="#glyph2-4" x="280.306641" y="34.589844"/>
  <use xlink:href="#glyph2-9" x="287.647852" y="34.589844"/>
  <use xlink:href="#glyph2-1" x="294.989062" y="34.589844"/>
  <use xlink:href="#glyph2-6" x="303.793359" y="34.589844"/>
  <use xlink:href="#glyph2-22" x="311.13457" y="34.589844"/>
  <use xlink:href="#glyph2-9" x="317.73457" y="34.589844"/>
  <use xlink:href="#glyph2-3" x="325.075781" y="34.589844"/>
  <use xlink:href="#glyph2-2" x="336.071484" y="34.589844"/>
  <use xlink:href="#glyph2-5" x="343.412695" y="34.589844"/>
  <use xlink:href="#glyph2-6" x="346.345313" y="34.589844"/>
</g>
<path style=" stroke:none;fill-rule:nonzero;fill:rgb(65.098039%,80.784314%,89.019608%);fill-opacity:0.501961;" d="M 511.484375 188.851563 L 511.484375 67.664063 L 507.375 67.734375 L 503.265625 67.941406 L 499.171875 68.292969 L 495.085938 68.777344 L 491.023438 69.40625 L 486.980469 70.167969 L 482.96875 71.066406 L 478.988281 72.101563 L 475.046875 73.273438 L 471.144531 74.574219 L 467.292969 76.007813 L 463.488281 77.574219 L 465.144531 81.410156 L 466.800781 85.25 L 468.453125 89.085938 L 470.109375 92.921875 L 471.765625 96.761719 L 473.417969 100.597656 L 475.074219 104.433594 L 476.730469 108.273438 L 478.386719 112.109375 L 480.039063 115.945313 L 481.695313 119.785156 L 483.351563 123.621094 L 485.003906 127.457031 L 486.660156 131.292969 L 488.316406 135.132813 L 489.96875 138.96875 L 491.625 142.804688 L 493.28125 146.644531 L 494.933594 150.480469 L 496.589844 154.316406 L 498.246094 158.15625 L 499.902344 161.992188 L 501.554688 165.828125 L 503.210938 169.667969 L 504.867188 173.503906 L 506.519531 177.339844 L 508.175781 181.179688 L 509.832031 185.015625 Z M 511.484375 188.851563 "/>
<path style=" stroke:none;fill-rule:nonzero;fill:rgb(12.156863%,47.058824%,70.588235%);fill-opacity:0.501961;" d="M 511.484375 188.851563 L 509.832031 185.015625 L 508.175781 181.179688 L 506.519531 177.339844 L 504.867188 173.503906 L 503.210938 169.667969 L 501.554688 165.828125 L 499.902344 161.992188 L 498.246094 158.15625 L 496.589844 154.316406 L 494.933594 150.480469 L 493.28125 146.644531 L 491.625 142.804688 L 489.96875 138.96875 L 488.316406 135.132813 L 486.660156 131.292969 L 485.003906 127.457031 L 483.351563 123.621094 L 481.695313 119.785156 L 480.039063 115.945313 L 478.386719 112.109375 L 476.730469 108.273438 L 475.074219 104.433594 L 473.417969 100.597656 L 471.765625 96.761719 L 470.109375 92.921875 L 468.453125 89.085938 L 466.800781 85.25 L 465.144531 81.410156 L 463.488281 77.574219 L 457.339844 80.433594 L 472.277344 110.339844 L 474.144531 114.082031 L 492.816406 151.464844 L 494.683594 155.207031 L 507.753906 181.375 L 509.617188 185.113281 Z M 511.484375 188.851563 "/>
<path style=" stroke:none;fill-rule:nonzero;fill:rgb(69.803922%,87.45098%,54.117647%);fill-opacity:0.501961;" d="M 511.484375 188.851563 L 509.617188 185.113281 L 507.753906 181.375 L 494.683594 155.207031 L 492.816406 151.464844 L 474.144531 114.082031 L 472.277344 110.339844 L 457.339844 80.433594 L 456.816406 80.695313 L 458.699219 84.425781 L 460.585938 88.15625 L 462.46875 91.886719 L 464.355469 95.613281 L 466.242188 99.34375 L 468.125 103.074219 L 470.011719 106.804688 L 471.894531 110.53125 L 475.667969 117.992188 L 477.550781 121.722656 L 479.4375 125.449219 L 481.324219 129.179688 L 483.207031 132.910156 L 485.09375 136.640625 L 486.976563 140.371094 L 488.863281 144.097656 L 490.75 147.828125 L 492.632813 151.558594 L 494.519531 155.289063 L 496.40625 159.015625 L 498.289063 162.746094 L 500.175781 166.476563 L 502.058594 170.207031 L 503.945313 173.933594 L 505.832031 177.664063 L 507.714844 181.394531 L 509.601563 185.125 Z M 511.484375 188.851563 "/>
<path style=" stroke:none;fill-rule:nonzero;fill:rgb(55.294118%,82.745098%,78.039216%);fill-opacity:0.501961;" d="M 511.484375 188.851563 L 509.601563 185.125 L 507.714844 181.394531 L 505.832031 177.664063 L 503.945313 173.933594 L 502.058594 170.207031 L 500.175781 166.476563 L 498.289063 162.746094 L 496.40625 159.015625 L 494.519531 155.289063 L 492.632813 151.558594 L 490.75 147.828125 L 488.863281 144.097656 L 486.976563 140.371094 L 485.09375 136.640625 L 483.207031 132.910156 L 481.324219 129.179688 L 479.4375 125.449219 L 477.550781 121.722656 L 475.667969 117.992188 L 471.894531 110.53125 L 470.011719 106.804688 L 468.125 103.074219 L 466.242188 99.34375 L 464.355469 95.613281 L 462.46875 91.886719 L 460.585938 88.15625 L 458.699219 84.425781 L 456.816406 80.695313 L 453.054688 82.679688 L 449.367188 84.796875 L 451.507813 88.382813 L 453.652344 91.972656 L 455.792969 95.558594 L 457.933594 99.148438 L 460.078125 102.738281 L 462.21875 106.324219 L 464.359375 109.914063 L 466.503906 113.5 L 468.644531 117.089844 L 470.785156 120.675781 L 472.929688 124.265625 L 475.070313 127.855469 L 477.214844 131.441406 L 479.355469 135.03125 L 481.496094 138.617188 L 483.640625 142.207031 L 485.78125 145.796875 L 487.921875 149.382813 L 490.066406 152.972656 L 492.207031 156.558594 L 494.351563 160.148438 L 496.492188 163.734375 L 498.632813 167.324219 L 500.777344 170.914063 L 502.917969 174.5 L 505.058594 178.089844 L 507.203125 181.675781 L 509.34375 185.265625 Z M 511.484375 188.851563 "/>
<path style=" stroke:none;fill-rule:nonzero;fill:rgb(20%,62.745098%,17.254902%);fill-opacity:0.501961;" d="M 511.484375 188.851563 L 509.34375 185.265625 L 507.203125 181.675781 L 505.058594 178.089844 L 502.917969 174.5 L 500.777344 170.914063 L 498.632813 167.324219 L 496.492188 163.734375 L 494.351563 160.148438 L 492.207031 156.558594 L 490.066406 152.972656 L 487.921875 149.382813 L 485.78125 145.796875 L 483.640625 142.207031 L 481.496094 138.617188 L 479.355469 135.03125 L 477.214844 131.441406 L 475.070313 127.855469 L 472.929688 124.265625 L 470.785156 120.675781 L 468.644531 117.089844 L 466.503906 113.5 L 464.359375 109.914063 L 462.21875 106.324219 L 460.078125 102.738281 L 457.933594 99.148438 L 455.792969 95.558594 L 453.652344 91.972656 L 451.507813 88.382813 L 449.367188 84.796875 L 445.871094 86.964844 L 442.453125 89.246094 L 439.113281 91.648438 L 435.855469 94.160156 L 432.6875 96.777344 L 429.609375 99.503906 L 426.625 102.335938 L 423.738281 105.265625 L 420.953125 108.289063 L 418.273438 111.40625 L 415.699219 114.613281 L 413.234375 117.90625 L 410.882813 121.28125 L 408.648438 124.734375 L 406.535156 128.257813 L 404.539063 131.855469 L 402.664063 135.515625 L 400.917969 139.238281 L 399.300781 143.019531 L 397.808594 146.851563 L 396.449219 150.730469 L 395.222656 154.65625 L 394.128906 158.621094 L 393.171875 162.617188 L 392.347656 166.648438 L 391.664063 170.703125 L 391.117188 174.777344 L 390.710938 178.871094 L 390.441406 182.972656 L 390.308594 187.082031 L 390.320313 191.195313 L 390.46875 195.304688 L 390.757813 199.40625 L 391.183594 203.496094 L 391.75 207.570313 L 392.457031 211.621094 L 393.296875 215.648438 L 394.273438 219.640625 L 395.386719 223.601563 L 396.632813 227.519531 L 398.007813 231.394531 L 399.519531 235.21875 L 401.15625 238.992188 L 402.917969 242.707031 L 404.808594 246.359375 L 406.820313 249.945313 L 408.953125 253.460938 L 411.207031 256.902344 L 413.570313 260.265625 L 416.050781 263.546875 L 418.640625 266.738281 L 421.335938 269.84375 L 424.136719 272.855469 L 427.035156 275.773438 L 430.035156 278.585938 L 433.125 281.300781 L 436.304688 283.90625 L 439.574219 286.402344 L 442.925781 288.785156 L 446.355469 291.050781 L 449.859375 293.203125 L 453.4375 295.234375 L 457.078125 297.140625 L 460.785156 298.925781 L 464.546875 300.582031 L 468.363281 302.109375 L 472.230469 303.507813 L 476.144531 304.773438 L 480.097656 305.90625 L 484.085938 306.902344 L 488.109375 307.765625 L 492.15625 308.492188 L 496.226563 309.078125 L 500.3125 309.527344 L 504.414063 309.835938 L 508.523438 310.003906 L 512.636719 310.035156 L 516.746094 309.929688 L 520.851563 309.679688 L 524.945313 309.292969 L 529.023438 308.765625 L 533.082031 308.101563 L 537.113281 307.300781 L 541.117188 306.363281 L 545.085938 305.289063 L 549.019531 304.082031 L 552.90625 302.742188 L 556.746094 301.273438 L 560.535156 299.671875 L 564.265625 297.945313 L 567.9375 296.089844 L 571.542969 294.113281 L 575.078125 292.015625 L 578.542969 289.800781 L 581.929688 287.464844 L 585.234375 285.019531 L 588.453125 282.460938 L 591.585938 279.796875 L 594.625 277.027344 L 597.570313 274.15625 L 600.414063 271.1875 L 603.15625 268.121094 L 605.792969 264.964844 L 608.320313 261.722656 L 610.738281 258.394531 L 613.039063 254.988281 L 615.222656 251.503906 L 617.289063 247.949219 L 619.234375 244.324219 L 621.054688 240.636719 L 622.746094 236.890625 L 624.3125 233.089844 L 625.75 229.234375 L 627.054688 225.335938 L 628.226563 221.394531 L 629.261719 217.414063 L 630.164063 213.402344 L 630.925781 209.359375 L 631.554688 205.296875 L 632.042969 201.214844 L 632.394531 197.117188 L 632.605469 193.011719 L 632.675781 188.898438 L 632.605469 184.785156 L 632.398438 180.679688 L 632.050781 176.582031 L 631.566406 172.5 L 630.941406 168.433594 L 630.179688 164.394531 L 629.28125 160.378906 L 628.25 156.402344 L 627.082031 152.457031 L 625.78125 148.558594 L 624.347656 144.703125 L 622.785156 140.898438 L 621.09375 137.152344 L 619.277344 133.460938 L 617.335938 129.835938 L 615.269531 126.28125 L 613.089844 122.792969 L 610.789063 119.386719 L 608.375 116.054688 L 605.847656 112.8125 L 603.214844 109.652344 L 600.476563 106.585938 L 597.632813 103.617188 L 594.691406 100.742188 L 591.652344 97.96875 L 588.523438 95.300781 L 585.304688 92.742188 L 582.003906 90.292969 L 578.617188 87.957031 L 575.15625 85.738281 L 571.621094 83.636719 L 568.019531 81.65625 L 564.347656 79.800781 L 560.617188 78.070313 L 556.832031 76.46875 L 552.992188 74.992188 L 549.105469 73.652344 L 545.175781 72.441406 L 541.207031 71.363281 L 537.203125 70.425781 L 533.171875 69.621094 L 529.113281 68.953125 L 525.035156 68.425781 L 524.566406 72.578125 L 524.101563 76.730469 L 523.164063 85.035156 L 522.699219 89.1875 L 522.230469 93.339844 L 521.765625 97.492188 L 520.828125 105.796875 L 520.363281 109.953125 L 519.894531 114.105469 L 519.429688 118.257813 L 518.492188 126.5625 L 518.027344 130.714844 L 517.558594 134.867188 L 517.09375 139.019531 L 516.15625 147.324219 L 515.691406 151.480469 L 515.222656 155.632813 L 514.757813 159.785156 L 513.820313 168.089844 L 513.355469 172.242188 L 512.886719 176.394531 L 512.421875 180.546875 Z M 511.484375 188.851563 "/>
<path style=" stroke:none;fill-rule:nonzero;fill:rgb(98.431373%,60.392157%,60%);fill-opacity:0.501961;" d="M 511.484375 188.851563 L 512.421875 180.546875 L 512.886719 176.394531 L 513.355469 172.242188 L 513.820313 168.089844 L 514.757813 159.785156 L 515.222656 155.632813 L 515.691406 151.480469 L 516.15625 147.324219 L 517.09375 139.019531 L 517.558594 134.867188 L 518.027344 130.714844 L 518.492188 126.5625 L 519.429688 118.257813 L 519.894531 114.105469 L 520.363281 109.953125 L 520.828125 105.796875 L 521.765625 97.492188 L 522.230469 93.339844 L 522.699219 89.1875 L 523.164063 85.035156 L 524.101563 76.730469 L 524.566406 72.578125 L 525.035156 68.425781 L 520.535156 68.003906 L 520.222656 72.167969 L 518.660156 93.007813 L 518.347656 97.171875 L 518.039063 101.339844 L 517.101563 113.84375 L 516.789063 118.007813 L 516.164063 126.34375 L 515.855469 130.511719 L 515.230469 138.847656 L 514.917969 143.011719 L 513.980469 155.515625 L 513.671875 159.683594 L 513.359375 163.847656 L 511.796875 184.6875 Z M 511.484375 188.851563 "/>
<path style=" stroke:none;fill-rule:nonzero;fill:rgb(89.019608%,10.196078%,10.980392%);fill-opacity:0.501961;" d="M 511.484375 188.851563 L 511.796875 184.6875 L 513.359375 163.847656 L 513.671875 159.683594 L 513.980469 155.515625 L 514.917969 143.011719 L 515.230469 138.847656 L 515.855469 130.511719 L 516.164063 126.34375 L 516.789063 118.007813 L 517.101563 113.84375 L 518.039063 101.339844 L 518.347656 97.171875 L 518.660156 93.007813 L 520.222656 72.167969 L 520.535156 68.003906 L 520.015625 67.964844 L 519.429688 76.300781 L 519.132813 80.46875 L 518.839844 84.640625 L 518.546875 88.808594 L 518.25 92.976563 L 517.664063 101.3125 L 517.367188 105.480469 L 517.074219 109.648438 L 516.78125 113.820313 L 516.488281 117.988281 L 516.191406 122.15625 L 515.605469 130.492188 L 515.308594 134.660156 L 515.015625 138.832031 L 514.722656 143 L 514.425781 147.167969 L 513.546875 159.671875 L 513.25 163.839844 L 512.957031 168.011719 L 512.664063 172.179688 L 512.367188 176.347656 L 511.78125 184.683594 Z M 511.484375 188.851563 "/>
<path style=" stroke:none;fill-rule:nonzero;fill:rgb(99.215686%,74.901961%,43.529412%);fill-opacity:0.501961;" d="M 511.484375 188.851563 L 511.78125 184.683594 L 512.367188 176.347656 L 512.664063 172.179688 L 512.957031 168.011719 L 513.25 163.839844 L 513.546875 159.671875 L 514.425781 147.167969 L 514.722656 143 L 515.015625 138.832031 L 515.308594 134.660156 L 515.605469 130.492188 L 516.191406 122.15625 L 516.488281 117.988281 L 516.78125 113.820313 L 517.074219 109.648438 L 517.367188 105.480469 L 517.664063 101.3125 L 518.25 92.976563 L 518.546875 88.808594 L 518.839844 84.640625 L 519.132813 80.46875 L 519.429688 76.300781 L 520.015625 67.964844 L 519.886719 67.957031 L 519.019531 80.460938 L 518.730469 84.632813 L 518.441406 88.800781 L 518.148438 92.96875 L 517.859375 97.136719 L 517.570313 101.308594 L 516.703125 113.8125 L 516.410156 117.980469 L 516.121094 122.152344 L 515.253906 134.65625 L 514.964844 138.828125 L 514.671875 142.996094 L 514.09375 151.332031 L 513.804688 155.503906 L 513.515625 159.671875 L 513.222656 163.839844 L 512.644531 172.175781 L 512.355469 176.347656 L 511.777344 184.683594 Z M 511.484375 188.851563 "/>
<path style=" stroke:none;fill-rule:nonzero;fill:rgb(100%,49.803922%,0%);fill-opacity:0.501961;" d="M 511.484375 188.851563 L 511.777344 184.683594 L 512.355469 176.347656 L 512.644531 172.175781 L 513.222656 163.839844 L 513.515625 159.671875 L 513.804688 155.503906 L 514.09375 151.332031 L 514.671875 142.996094 L 514.964844 138.828125 L 515.253906 134.65625 L 516.121094 122.152344 L 516.410156 117.980469 L 516.703125 113.8125 L 517.570313 101.308594 L 517.859375 97.136719 L 518.148438 92.96875 L 518.441406 88.800781 L 518.730469 84.632813 L 519.019531 80.460938 L 519.886719 67.957031 L 519.726563 67.945313 L 519.445313 72.113281 L 519.160156 76.285156 L 518.589844 84.621094 L 518.308594 88.792969 L 517.453125 101.296875 L 517.171875 105.46875 L 516.601563 113.804688 L 516.316406 117.976563 L 516.035156 122.144531 L 515.75 126.3125 L 515.464844 130.484375 L 515.179688 134.652344 L 514.898438 138.820313 L 514.613281 142.992188 L 514.042969 151.328125 L 513.761719 155.5 L 513.191406 163.835938 L 512.90625 168.007813 L 512.621094 172.175781 L 512.339844 176.34375 L 512.054688 180.515625 Z M 511.484375 188.851563 "/>
<path style=" stroke:none;fill-rule:nonzero;fill:rgb(50.196078%,50.196078%,50.196078%);fill-opacity:0.501961;" d="M 511.484375 188.851563 L 512.054688 180.515625 L 512.339844 176.34375 L 512.621094 172.175781 L 512.90625 168.007813 L 513.191406 163.835938 L 513.761719 155.5 L 514.042969 151.328125 L 514.613281 142.992188 L 514.898438 138.820313 L 515.179688 134.652344 L 515.464844 130.484375 L 515.75 126.3125 L 516.035156 122.144531 L 516.316406 117.976563 L 516.601563 113.804688 L 517.171875 105.46875 L 517.453125 101.296875 L 518.308594 88.792969 L 518.589844 84.621094 L 519.160156 76.285156 L 519.445313 72.113281 L 519.726563 67.945313 L 514.945313 67.714844 L 514.828125 71.890625 L 514.707031 76.066406 L 514.589844 80.246094 L 514.46875 84.421875 L 514.347656 88.601563 L 514.230469 92.777344 L 514.109375 96.953125 L 513.992188 101.132813 L 513.871094 105.308594 L 513.753906 109.484375 L 513.632813 113.664063 L 513.515625 117.839844 L 513.394531 122.015625 L 513.277344 126.195313 L 513.15625 130.371094 L 513.039063 134.550781 L 512.796875 142.902344 L 512.679688 147.082031 L 512.558594 151.257813 L 512.441406 155.433594 L 512.320313 159.613281 L 512.203125 163.789063 L 512.082031 167.96875 L 511.964844 172.144531 L 511.84375 176.320313 L 511.726563 180.5 Z M 511.484375 188.851563 "/>
<path style=" stroke:none;fill-rule:nonzero;fill:rgb(79.215686%,69.803922%,83.921569%);fill-opacity:0.501961;" d="M 511.484375 188.851563 L 511.726563 180.5 L 511.84375 176.320313 L 511.964844 172.144531 L 512.082031 167.96875 L 512.203125 163.789063 L 512.320313 159.613281 L 512.441406 155.433594 L 512.558594 151.257813 L 512.679688 147.082031 L 512.796875 142.902344 L 513.039063 134.550781 L 513.15625 130.371094 L 513.277344 126.195313 L 513.394531 122.015625 L 513.515625 117.839844 L 513.632813 113.664063 L 513.753906 109.484375 L 513.871094 105.308594 L 513.992188 101.132813 L 514.109375 96.953125 L 514.230469 92.777344 L 514.347656 88.601563 L 514.46875 84.421875 L 514.589844 80.246094 L 514.707031 76.066406 L 514.828125 71.890625 L 514.945313 67.714844 L 513.214844 67.675781 L 513.152344 71.855469 L 513.09375 76.035156 L 513.035156 80.210938 L 512.976563 84.390625 L 512.914063 88.570313 L 512.855469 92.746094 L 512.738281 101.105469 L 512.675781 105.28125 L 512.5 117.820313 L 512.4375 121.996094 L 512.320313 130.355469 L 512.261719 134.53125 L 512.199219 138.710938 L 512.140625 142.890625 L 512.082031 147.066406 L 512.023438 151.246094 L 511.960938 155.425781 L 511.902344 159.605469 L 511.84375 163.78125 L 511.785156 167.960938 L 511.722656 172.140625 L 511.664063 176.316406 L 511.546875 184.675781 Z M 511.484375 188.851563 "/>
<path style=" stroke:none;fill-rule:nonzero;fill:rgb(41.568627%,23.921569%,60.392157%);fill-opacity:0.501961;" d="M 511.484375 188.851563 L 511.546875 184.675781 L 511.664063 176.316406 L 511.722656 172.140625 L 511.785156 167.960938 L 511.84375 163.78125 L 511.902344 159.605469 L 511.960938 155.425781 L 512.023438 151.246094 L 512.082031 147.066406 L 512.140625 142.890625 L 512.199219 138.710938 L 512.261719 134.53125 L 512.320313 130.355469 L 512.4375 121.996094 L 512.5 117.820313 L 512.675781 105.28125 L 512.738281 101.105469 L 512.855469 92.746094 L 512.914063 88.570313 L 512.976563 84.390625 L 513.035156 80.210938 L 513.09375 76.035156 L 513.152344 71.855469 L 513.214844 67.675781 L 511.484375 67.664063 Z M 511.484375 188.851563 "/>
<g style="fill:rgb(0%,0%,0%);fill-opacity:1;">
  <use xlink:href="#glyph0-1" x="668.640625" y="86.371094"/>
  <use xlink:href="#glyph0-2" x="674.758301" y="86.371094"/>
  <use xlink:href="#glyph0-3" x="677.202148" y="86.371094"/>
  <use xlink:href="#glyph0-2" x="683.319824" y="86.371094"/>
  <use xlink:href="#glyph0-4" x="685.763672" y="86.371094"/>
  <use xlink:href="#glyph0-5" x="691.881348" y="86.371094"/>
  <use xlink:href="#glyph0-6" x="694.9375" y="86.371094"/>
  <use xlink:href="#glyph0-7" x="700.4375" y="86.371094"/>
  <use xlink:href="#glyph0-8" x="702.881348" y="86.371094"/>
  <use xlink:href="#glyph0-9" x="708.999023" y="86.371094"/>
  <use xlink:href="#glyph0-9" x="714.499023" y="86.371094"/>
</g>
<path style=" stroke:none;fill-rule:nonzero;fill:rgb(65.098039%,80.784314%,89.019608%);fill-opacity:0.501961;" d="M 669.351563 109.578125 L 685.214844 109.578125 L 685.214844 93.714844 L 669.351563 93.714844 Z M 669.351563 109.578125 "/>
<path style=" stroke:none;fill-rule:nonzero;fill:rgb(12.156863%,47.058824%,70.588235%);fill-opacity:0.501961;" d="M 669.351563 126.859375 L 685.214844 126.859375 L 685.214844 110.996094 L 669.351563 110.996094 Z M 669.351563 126.859375 "/>
<path style=" stroke:none;fill-rule:nonzero;fill:rgb(69.803922%,87.45098%,54.117647%);fill-opacity:0.501961;" d="M 669.351563 144.136719 L 685.214844 144.136719 L 685.214844 128.273438 L 669.351563 128.273438 Z M 669.351563 144.136719 "/>
<path style=" stroke:none;fill-rule:nonzero;fill:rgb(55.294118%,82.745098%,78.039216%);fill-opacity:0.501961;" d="M 669.351563 161.417969 L 685.214844 161.417969 L 685.214844 145.554688 L 669.351563 145.554688 Z M 669.351563 161.417969 "/>
<path style=" stroke:none;fill-rule:nonzero;fill:rgb(20%,62.745098%,17.254902%);fill-opacity:0.501961;" d="M 669.351563 178.699219 L 685.214844 178.699219 L 685.214844 162.835938 L 669.351563 162.835938 Z M 669.351563 178.699219 "/>
<path style=" stroke:none;fill-rule:nonzero;fill:rgb(98.431373%,60.392157%,60%);fill-opacity:0.501961;" d="M 669.351563 195.980469 L 685.214844 195.980469 L 685.214844 180.117188 L 669.351563 180.117188 Z M 669.351563 195.980469 "/>
<path style=" stroke:none;fill-rule:nonzero;fill:rgb(89.019608%,10.196078%,10.980392%);fill-opacity:0.501961;" d="M 669.351563 213.257813 L 685.214844 213.257813 L 685.214844 197.394531 L 669.351563 197.394531 Z M 669.351563 213.257813 "/>
<path style=" stroke:none;fill-rule:nonzero;fill:rgb(99.215686%,74.901961%,43.529412%);fill-opacity:0.501961;" d="M 669.351563 230.539063 L 685.214844 230.539063 L 685.214844 214.675781 L 669.351563 214.675781 Z M 669.351563 230.539063 "/>
<path style=" stroke:none;fill-rule:nonzero;fill:rgb(100%,49.803922%,0%);fill-opacity:0.501961;" d="M 669.351563 247.820313 L 685.214844 247.820313 L 685.214844 231.957031 L 669.351563 231.957031 Z M 669.351563 247.820313 "/>
<path style=" stroke:none;fill-rule:nonzero;fill:rgb(50.196078%,50.196078%,50.196078%);fill-opacity:0.501961;" d="M 669.351563 265.097656 L 685.214844 265.097656 L 685.214844 249.234375 L 669.351563 249.234375 Z M 669.351563 265.097656 "/>
<path style=" stroke:none;fill-rule:nonzero;fill:rgb(79.215686%,69.803922%,83.921569%);fill-opacity:0.501961;" d="M 669.351563 282.378906 L 685.214844 282.378906 L 685.214844 266.515625 L 669.351563 266.515625 Z M 669.351563 282.378906 "/>
<path style=" stroke:none;fill-rule:nonzero;fill:rgb(41.568627%,23.921569%,60.392157%);fill-opacity:0.501961;" d="M 669.351563 299.660156 L 685.214844 299.660156 L 685.214844 283.796875 L 669.351563 283.796875 Z M 669.351563 299.660156 "/>
<g style="fill:rgb(0%,0%,0%);fill-opacity:1;">
  <use xlink:href="#glyph1-1" x="691.402344" y="104.796875"/>
  <use xlink:href="#glyph1-2" x="697.757422" y="104.796875"/>
  <use xlink:href="#glyph1-3" x="703.626953" y="104.796875"/>
</g>
<g style="fill:rgb(0%,0%,0%);fill-opacity:1;">
  <use xlink:href="#glyph1-1" x="691.402344" y="122.078125"/>
  <use xlink:href="#glyph1-4" x="697.757422" y="122.078125"/>
</g>
<g style="fill:rgb(0%,0%,0%);fill-opacity:1;">
  <use xlink:href="#glyph1-1" x="691.402344" y="139.355469"/>
  <use xlink:href="#glyph1-5" x="697.757422" y="139.355469"/>
  <use xlink:href="#glyph1-6" x="702.651562" y="139.355469"/>
</g>
<g style="fill:rgb(0%,0%,0%);fill-opacity:1;">
  <use xlink:href="#glyph1-7" x="691.402344" y="156.636719"/>
  <use xlink:href="#glyph1-2" x="697.757422" y="156.636719"/>
  <use xlink:href="#glyph1-8" x="703.626953" y="156.636719"/>
</g>
<g style="fill:rgb(0%,0%,0%);fill-opacity:1;">
  <use xlink:href="#glyph1-9" x="691.402344" y="173.917969"/>
  <use xlink:href="#glyph1-2" x="696.777734" y="173.917969"/>
</g>
<g style="fill:rgb(0%,0%,0%);fill-opacity:1;">
  <use xlink:href="#glyph1-10" x="691.402344" y="191.195313"/>
  <use xlink:href="#glyph1-1" x="697.271875" y="191.195313"/>
</g>
<g style="fill:rgb(0%,0%,0%);fill-opacity:1;">
  <use xlink:href="#glyph1-10" x="691.402344" y="208.476563"/>
  <use xlink:href="#glyph1-4" x="697.271875" y="208.476563"/>
</g>
<g style="fill:rgb(0%,0%,0%);fill-opacity:1;">
  <use xlink:href="#glyph1-10" x="691.402344" y="225.757813"/>
  <use xlink:href="#glyph1-8" x="697.271875" y="225.757813"/>
</g>
<g style="fill:rgb(0%,0%,0%);fill-opacity:1;">
  <use xlink:href="#glyph1-10" x="691.402344" y="243.035156"/>
  <use xlink:href="#glyph1-11" x="697.271875" y="243.035156"/>
</g>
<g style="fill:rgb(0%,0%,0%);fill-opacity:1;">
  <use xlink:href="#glyph1-10" x="691.402344" y="260.316406"/>
  <use xlink:href="#glyph1-12" x="697.271875" y="260.316406"/>
</g>
<g style="fill:rgb(0%,0%,0%);fill-opacity:1;">
  <use xlink:href="#glyph1-12" x="691.402344" y="277.597656"/>
  <use xlink:href="#glyph1-13" x="697.271875" y="277.597656"/>
</g>
<g style="fill:rgb(0%,0%,0%);fill-opacity:1;">
  <use xlink:href="#glyph1-14" x="691.402344" y="294.875"/>
  <use xlink:href="#glyph1-2" x="696.777734" y="294.875"/>
  <use xlink:href="#glyph1-8" x="702.647266" y="294.875"/>
</g>
<g style="fill:rgb(0%,0%,0%);fill-opacity:1;">
  <use xlink:href="#glyph2-1" x="360" y="34.589844"/>
  <use xlink:href="#glyph2-2" x="368.804297" y="34.589844"/>
  <use xlink:href="#glyph2-3" x="376.145508" y="34.589844"/>
  <use xlink:href="#glyph2-4" x="387.141211" y="34.589844"/>
  <use xlink:href="#glyph2-5" x="394.482422" y="34.589844"/>
  <use xlink:href="#glyph2-6" x="397.415039" y="34.589844"/>
  <use xlink:href="#glyph2-7" x="404.75625" y="34.589844"/>
  <use xlink:href="#glyph2-8" x="412.819336" y="34.589844"/>
  <use xlink:href="#glyph2-4" x="419.419336" y="34.589844"/>
  <use xlink:href="#glyph2-6" x="426.760547" y="34.589844"/>
  <use xlink:href="#glyph2-9" x="434.101758" y="34.589844"/>
  <use xlink:href="#glyph2-10" x="441.442969" y="34.589844"/>
  <use xlink:href="#glyph2-6" x="450.975586" y="34.589844"/>
  <use xlink:href="#glyph2-11" x="458.316797" y="34.589844"/>
  <use xlink:href="#glyph2-12" x="465.658008" y="34.589844"/>
  <use xlink:href="#glyph2-13" x="470.053711" y="34.589844"/>
  <use xlink:href="#glyph2-14" x="477.394922" y="34.589844"/>
  <use xlink:href="#glyph2-9" x="484.736133" y="34.589844"/>
  <use xlink:href="#glyph2-1" x="492.077344" y="34.589844"/>
  <use xlink:href="#glyph2-5" x="500.881641" y="34.589844"/>
  <use xlink:href="#glyph2-6" x="503.814258" y="34.589844"/>
  <use xlink:href="#glyph2-6" x="511.155469" y="34.589844"/>
  <use xlink:href="#glyph2-4" x="518.49668" y="34.589844"/>
  <use xlink:href="#glyph2-15" x="525.837891" y="34.589844"/>
  <use xlink:href="#glyph2-13" x="535.370508" y="34.589844"/>
  <use xlink:href="#glyph2-14" x="542.711719" y="34.589844"/>
  <use xlink:href="#glyph2-16" x="550.05293" y="34.589844"/>
  <use xlink:href="#glyph2-17" x="557.394141" y="34.589844"/>
  <use xlink:href="#glyph2-18" x="560.326758" y="34.589844"/>
  <use xlink:href="#glyph2-17" x="563.994141" y="34.589844"/>
  <use xlink:href="#glyph2-13" x="566.926758" y="34.589844"/>
  <use xlink:href="#glyph2-14" x="574.267969" y="34.589844"/>
  <use xlink:href="#glyph2-9" x="581.60918" y="34.589844"/>
  <use xlink:href="#glyph2-19" x="588.950391" y="34.589844"/>
  <use xlink:href="#glyph2-2" x="601.40918" y="34.589844"/>
  <use xlink:href="#glyph2-20" x="608.750391" y="34.589844"/>
  <use xlink:href="#glyph2-17" x="615.350391" y="34.589844"/>
  <use xlink:href="#glyph2-14" x="618.283008" y="34.589844"/>
  <use xlink:href="#glyph2-21" x="625.624219" y="34.589844"/>
  <use xlink:href="#glyph2-11" x="632.96543" y="34.589844"/>
  <use xlink:href="#glyph2-4" x="640.306641" y="34.589844"/>
  <use xlink:href="#glyph2-9" x="647.647852" y="34.589844"/>
  <use xlink:href="#glyph2-1" x="654.989063" y="34.589844"/>
  <use xlink:href="#glyph2-6" x="663.793359" y="34.589844"/>
  <use xlink:href="#glyph2-22" x="671.13457" y="34.589844"/>
  <use xlink:href="#glyph2-9" x="677.73457" y="34.589844"/>
  <use xlink:href="#glyph2-3" x="685.075781" y="34.589844"/>
  <use xlink:href="#glyph2-2" x="696.071484" y="34.589844"/>
  <use xlink:href="#glyph2-5" x="703.412695" y="34.589844"/>
  <use xlink:href="#glyph2-6" x="706.345313" y="34.589844"/>
</g>
</g>
</svg>
