<?xml version="1.0" encoding="UTF-8"?>
<svg xmlns="http://www.w3.org/2000/svg" xmlns:xlink="http://www.w3.org/1999/xlink" width="720pt" height="360pt" viewBox="0 0 720 360" version="1.1">
<defs>
<g>
<symbol overflow="visible" id="glyph0-0">
<path style="stroke:none;" d="M 1.375 0 L 1.375 -6.875 L 6.875 -6.875 L 6.875 0 Z M 1.546875 -0.171875 L 6.703125 -0.171875 L 6.703125 -6.703125 L 1.546875 -6.703125 Z M 1.546875 -0.171875 "/>
</symbol>
<symbol overflow="visible" id="glyph0-1">
<path style="stroke:none;" d="M 2.835938 -0.863281 L 2.976563 -0.0117188 C 2.703125 0.0429688 2.457031 0.0703125 2.246094 0.0742188 C 1.890625 0.0703125 1.621094 0.0195313 1.429688 -0.0898438 C 1.234375 -0.199219 1.097656 -0.347656 1.019531 -0.527344 C 0.941406 -0.707031 0.902344 -1.085938 0.902344 -1.671875 L 0.902344 -4.953125 L 0.195313 -4.953125 L 0.195313 -5.703125 L 0.902344 -5.703125 L 0.902344 -7.117188 L 1.863281 -7.695313 L 1.863281 -5.703125 L 2.835938 -5.703125 L 2.835938 -4.953125 L 1.863281 -4.953125 L 1.863281 -1.617188 C 1.863281 -1.339844 1.878906 -1.160156 1.914063 -1.085938 C 1.945313 -1.003906 2 -0.941406 2.078125 -0.898438 C 2.152344 -0.847656 2.261719 -0.824219 2.410156 -0.828125 C 2.515625 -0.824219 2.660156 -0.835938 2.835938 -0.863281 Z M 2.835938 -0.863281 "/>
</symbol>
<symbol overflow="visible" id="glyph0-2">
<path style="stroke:none;" d="M 0.683594 2.195313 L 0.574219 1.289063 C 0.785156 1.34375 0.96875 1.371094 1.128906 1.375 C 1.339844 1.371094 1.511719 1.335938 1.640625 1.265625 C 1.769531 1.195313 1.875 1.09375 1.960938 0.96875 C 2.019531 0.867188 2.117188 0.628906 2.257813 0.246094 C 2.269531 0.191406 2.300781 0.113281 2.34375 0.0117188 L 0.175781 -5.703125 L 1.21875 -5.703125 L 2.40625 -2.402344 C 2.558594 -1.980469 2.695313 -1.539063 2.820313 -1.078125 C 2.925781 -1.523438 3.058594 -1.957031 3.21875 -2.378906 L 4.4375 -5.703125 L 5.402344 -5.703125 L 3.234375 0.0976563 C 3 0.71875 2.816406 1.148438 2.691406 1.390625 C 2.515625 1.703125 2.320313 1.9375 2.097656 2.089844 C 1.875 2.238281 1.609375 2.3125 1.304688 2.316406 C 1.117188 2.3125 0.910156 2.273438 0.683594 2.195313 Z M 0.683594 2.195313 "/>
</symbol>
<symbol overflow="visible" id="glyph0-3">
<path style="stroke:none;" d="M 0.726563 2.1875 L 0.726563 -5.703125 L 1.605469 -5.703125 L 1.605469 -4.960938 C 1.8125 -5.25 2.046875 -5.46875 2.308594 -5.613281 C 2.570313 -5.757813 2.886719 -5.828125 3.261719 -5.832031 C 3.746094 -5.828125 4.175781 -5.703125 4.550781 -5.457031 C 4.921875 -5.203125 5.203125 -4.851563 5.390625 -4.394531 C 5.578125 -3.9375 5.671875 -3.4375 5.675781 -2.894531 C 5.671875 -2.308594 5.566406 -1.78125 5.359375 -1.316406 C 5.148438 -0.847656 4.84375 -0.488281 4.449219 -0.242188 C 4.046875 0.0078125 3.628906 0.128906 3.191406 0.128906 C 2.867188 0.128906 2.578125 0.0625 2.320313 -0.0742188 C 2.0625 -0.210938 1.851563 -0.382813 1.691406 -0.589844 L 1.691406 2.1875 Z M 1.601563 -2.820313 C 1.597656 -2.082031 1.746094 -1.539063 2.046875 -1.191406 C 2.339844 -0.835938 2.699219 -0.660156 3.125 -0.664063 C 3.550781 -0.660156 3.917969 -0.84375 4.226563 -1.210938 C 4.53125 -1.574219 4.6875 -2.136719 4.6875 -2.898438 C 4.6875 -3.625 4.535156 -4.167969 4.238281 -4.53125 C 3.9375 -4.890625 3.582031 -5.074219 3.167969 -5.074219 C 2.753906 -5.074219 2.390625 -4.878906 2.074219 -4.496094 C 1.757813 -4.109375 1.597656 -3.550781 1.601563 -2.820313 Z M 1.601563 -2.820313 "/>
</symbol>
<symbol overflow="visible" id="glyph0-4">
<path style="stroke:none;" d="M 4.628906 -1.835938 L 5.628906 -1.714844 C 5.46875 -1.125 5.175781 -0.671875 4.75 -0.351563 C 4.324219 -0.03125 3.78125 0.128906 3.121094 0.128906 C 2.28125 0.128906 1.617188 -0.125 1.132813 -0.640625 C 0.640625 -1.152344 0.398438 -1.875 0.402344 -2.804688 C 0.398438 -3.761719 0.644531 -4.503906 1.144531 -5.035156 C 1.636719 -5.5625 2.277344 -5.828125 3.066406 -5.832031 C 3.824219 -5.828125 4.449219 -5.570313 4.933594 -5.050781 C 5.417969 -4.53125 5.660156 -3.800781 5.660156 -2.863281 C 5.660156 -2.804688 5.65625 -2.71875 5.65625 -2.605469 L 1.402344 -2.605469 C 1.433594 -1.976563 1.613281 -1.496094 1.933594 -1.164063 C 2.25 -0.828125 2.644531 -0.660156 3.125 -0.664063 C 3.476563 -0.660156 3.78125 -0.753906 4.03125 -0.945313 C 4.28125 -1.128906 4.480469 -1.425781 4.628906 -1.835938 Z M 1.457031 -3.398438 L 4.640625 -3.398438 C 4.597656 -3.878906 4.472656 -4.238281 4.273438 -4.480469 C 3.960938 -4.851563 3.5625 -5.039063 3.078125 -5.039063 C 2.628906 -5.039063 2.257813 -4.890625 1.957031 -4.59375 C 1.652344 -4.296875 1.484375 -3.898438 1.457031 -3.398438 Z M 1.457031 -3.398438 "/>
</symbol>
<symbol overflow="visible" id="glyph1-0">
<path style="stroke:none;" d="M 1.101563 0 L 1.101563 -5.5 L 5.5 -5.5 L 5.5 0 Z M 1.238281 -0.136719 L 5.363281 -0.136719 L 5.363281 -5.363281 L 1.238281 -5.363281 Z M 1.238281 -0.136719 "/>
</symbol>
<symbol overflow="visible" id="glyph1-1">
<path style="stroke:none;" d="M 5.171875 -2.207031 L 6.007813 -2 C 5.828125 -1.3125 5.515625 -0.789063 5.0625 -0.429688 C 4.609375 -0.0703125 4.054688 0.105469 3.398438 0.109375 C 2.71875 0.105469 2.164063 -0.03125 1.742188 -0.304688 C 1.3125 -0.582031 0.988281 -0.980469 0.769531 -1.507813 C 0.542969 -2.027344 0.433594 -2.589844 0.4375 -3.195313 C 0.433594 -3.847656 0.558594 -4.421875 0.8125 -4.910156 C 1.0625 -5.398438 1.417969 -5.769531 1.882813 -6.023438 C 2.34375 -6.277344 2.855469 -6.402344 3.410156 -6.40625 C 4.039063 -6.402344 4.566406 -6.242188 5 -5.925781 C 5.425781 -5.601563 5.726563 -5.152344 5.898438 -4.570313 L 5.078125 -4.378906 C 4.929688 -4.832031 4.71875 -5.167969 4.441406 -5.378906 C 4.164063 -5.589844 3.8125 -5.695313 3.394531 -5.695313 C 2.90625 -5.695313 2.503906 -5.578125 2.179688 -5.34375 C 1.851563 -5.109375 1.621094 -4.796875 1.492188 -4.410156 C 1.359375 -4.015625 1.292969 -3.613281 1.296875 -3.203125 C 1.292969 -2.664063 1.371094 -2.195313 1.53125 -1.796875 C 1.683594 -1.394531 1.925781 -1.097656 2.257813 -0.902344 C 2.585938 -0.703125 2.945313 -0.601563 3.332031 -0.605469 C 3.796875 -0.601563 4.191406 -0.738281 4.515625 -1.007813 C 4.835938 -1.277344 5.054688 -1.675781 5.171875 -2.207031 Z M 5.171875 -2.207031 "/>
</symbol>
<symbol overflow="visible" id="glyph1-2">
<path style="stroke:none;" d="M -0.0117188 0 L 2.40625 -6.300781 L 3.304688 -6.300781 L 5.882813 0 L 4.933594 0 L 4.199219 -1.90625 L 1.5625 -1.90625 L 0.871094 0 Z M 1.804688 -2.585938 L 3.941406 -2.585938 L 3.28125 -4.332031 C 3.078125 -4.855469 2.929688 -5.292969 2.835938 -5.636719 C 2.753906 -5.230469 2.640625 -4.828125 2.496094 -4.433594 Z M 1.804688 -2.585938 "/>
</symbol>
<symbol overflow="visible" id="glyph1-3">
<path style="stroke:none;" d="M 0.691406 0 L 0.691406 -6.300781 L 3.484375 -6.300781 C 4.042969 -6.296875 4.46875 -6.242188 4.765625 -6.128906 C 5.054688 -6.015625 5.289063 -5.816406 5.464844 -5.53125 C 5.636719 -5.242188 5.722656 -4.925781 5.726563 -4.582031 C 5.722656 -4.132813 5.578125 -3.753906 5.292969 -3.449219 C 5 -3.140625 4.554688 -2.945313 3.953125 -2.867188 C 4.171875 -2.757813 4.339844 -2.652344 4.457031 -2.550781 C 4.695313 -2.324219 4.925781 -2.046875 5.148438 -1.714844 L 6.242188 0 L 5.195313 0 L 4.359375 -1.3125 C 4.117188 -1.6875 3.914063 -1.976563 3.757813 -2.179688 C 3.597656 -2.378906 3.457031 -2.515625 3.335938 -2.597656 C 3.207031 -2.675781 3.082031 -2.734375 2.957031 -2.765625 C 2.859375 -2.785156 2.703125 -2.792969 2.492188 -2.796875 L 1.527344 -2.796875 L 1.527344 0 Z M 1.527344 -3.519531 L 3.316406 -3.519531 C 3.699219 -3.515625 3.996094 -3.554688 4.210938 -3.636719 C 4.421875 -3.710938 4.585938 -3.835938 4.699219 -4.011719 C 4.808594 -4.183594 4.863281 -4.375 4.867188 -4.582031 C 4.863281 -4.878906 4.753906 -5.121094 4.542969 -5.3125 C 4.324219 -5.503906 3.984375 -5.601563 3.519531 -5.601563 L 1.527344 -5.601563 Z M 1.527344 -3.519531 "/>
</symbol>
<symbol overflow="visible" id="glyph1-4">
<path style="stroke:none;" d="M 0.695313 0 L 0.695313 -6.300781 L 5.25 -6.300781 L 5.25 -5.554688 L 1.53125 -5.554688 L 1.53125 -3.625 L 5.015625 -3.625 L 5.015625 -2.886719 L 1.53125 -2.886719 L 1.53125 -0.742188 L 5.398438 -0.742188 L 5.398438 0 Z M 0.695313 0 "/>
</symbol>
<symbol overflow="visible" id="glyph1-5">
<path style="stroke:none;" d="M 3.703125 -1.46875 L 4.503906 -1.371094 C 4.375 -0.902344 4.140625 -0.539063 3.800781 -0.285156 C 3.460938 -0.0273438 3.027344 0.0976563 2.496094 0.101563 C 1.828125 0.0976563 1.296875 -0.101563 0.90625 -0.511719 C 0.511719 -0.917969 0.316406 -1.496094 0.320313 -2.242188 C 0.316406 -3.007813 0.515625 -3.605469 0.914063 -4.03125 C 1.308594 -4.453125 1.820313 -4.664063 2.453125 -4.667969 C 3.058594 -4.664063 3.554688 -4.457031 3.945313 -4.042969 C 4.328125 -3.628906 4.523438 -3.042969 4.527344 -2.289063 C 4.523438 -2.242188 4.523438 -2.175781 4.523438 -2.085938 L 1.121094 -2.085938 C 1.144531 -1.582031 1.289063 -1.195313 1.546875 -0.929688 C 1.800781 -0.660156 2.117188 -0.527344 2.5 -0.53125 C 2.78125 -0.527344 3.023438 -0.601563 3.226563 -0.753906 C 3.425781 -0.902344 3.585938 -1.140625 3.703125 -1.46875 Z M 1.164063 -2.71875 L 3.710938 -2.71875 C 3.671875 -3.101563 3.578125 -3.386719 3.421875 -3.582031 C 3.171875 -3.878906 2.851563 -4.03125 2.460938 -4.03125 C 2.105469 -4.03125 1.804688 -3.910156 1.566406 -3.671875 C 1.320313 -3.433594 1.1875 -3.117188 1.164063 -2.71875 Z M 1.164063 -2.71875 "/>
</symbol>
<symbol overflow="visible" id="glyph1-6">
<path style="stroke:none;" d="M 0.570313 0 L 0.570313 -4.5625 L 1.265625 -4.5625 L 1.265625 -3.871094 C 1.445313 -4.191406 1.609375 -4.40625 1.757813 -4.511719 C 1.90625 -4.613281 2.070313 -4.664063 2.257813 -4.667969 C 2.515625 -4.664063 2.78125 -4.582031 3.050781 -4.417969 L 2.785156 -3.699219 C 2.589844 -3.808594 2.402344 -3.867188 2.21875 -3.867188 C 2.046875 -3.867188 1.894531 -3.816406 1.761719 -3.714844 C 1.625 -3.613281 1.527344 -3.472656 1.472656 -3.292969 C 1.382813 -3.015625 1.339844 -2.714844 1.34375 -2.390625 L 1.34375 0 Z M 0.570313 0 "/>
</symbol>
<symbol overflow="visible" id="glyph1-7">
<path style="stroke:none;" d="M 0.679688 0 L 0.679688 -6.300781 L 2.847656 -6.300781 C 3.335938 -6.296875 3.707031 -6.269531 3.96875 -6.210938 C 4.328125 -6.125 4.636719 -5.972656 4.894531 -5.757813 C 5.222656 -5.472656 5.472656 -5.113281 5.636719 -4.679688 C 5.800781 -4.242188 5.882813 -3.742188 5.886719 -3.183594 C 5.882813 -2.699219 5.828125 -2.277344 5.71875 -1.910156 C 5.605469 -1.542969 5.460938 -1.238281 5.289063 -0.996094 C 5.113281 -0.753906 4.921875 -0.5625 4.714844 -0.421875 C 4.507813 -0.28125 4.257813 -0.175781 3.964844 -0.105469 C 3.667969 -0.0351563 3.332031 0 2.953125 0 Z M 1.511719 -0.742188 L 2.859375 -0.742188 C 3.273438 -0.738281 3.597656 -0.777344 3.832031 -0.859375 C 4.066406 -0.933594 4.253906 -1.042969 4.398438 -1.1875 C 4.59375 -1.382813 4.746094 -1.648438 4.859375 -1.984375 C 4.96875 -2.316406 5.027344 -2.71875 5.027344 -3.195313 C 5.027344 -3.851563 4.917969 -4.359375 4.703125 -4.714844 C 4.484375 -5.066406 4.222656 -5.304688 3.914063 -5.425781 C 3.6875 -5.511719 3.328125 -5.554688 2.835938 -5.554688 L 1.511719 -5.554688 Z M 1.511719 -0.742188 "/>
</symbol>
<symbol overflow="visible" id="glyph1-8">
<path style="stroke:none;" d="M 3.625 -2.46875 L 3.625 -3.210938 L 6.296875 -3.214844 L 6.296875 -0.875 C 5.882813 -0.546875 5.460938 -0.300781 5.027344 -0.136719 C 4.589844 0.0273438 4.140625 0.105469 3.6875 0.109375 C 3.0625 0.105469 2.5 -0.0234375 2 -0.289063 C 1.492188 -0.550781 1.113281 -0.933594 0.855469 -1.4375 C 0.597656 -1.9375 0.46875 -2.5 0.46875 -3.121094 C 0.46875 -3.730469 0.59375 -4.300781 0.851563 -4.835938 C 1.105469 -5.363281 1.476563 -5.757813 1.957031 -6.019531 C 2.4375 -6.273438 2.992188 -6.402344 3.621094 -6.40625 C 4.074219 -6.402344 4.484375 -6.328125 4.855469 -6.183594 C 5.222656 -6.035156 5.511719 -5.832031 5.722656 -5.566406 C 5.929688 -5.300781 6.089844 -4.957031 6.199219 -4.539063 L 5.449219 -4.332031 C 5.351563 -4.648438 5.230469 -4.902344 5.09375 -5.085938 C 4.953125 -5.269531 4.753906 -5.414063 4.492188 -5.527344 C 4.230469 -5.636719 3.941406 -5.695313 3.625 -5.695313 C 3.242188 -5.695313 2.914063 -5.636719 2.636719 -5.519531 C 2.359375 -5.402344 2.132813 -5.246094 1.964844 -5.058594 C 1.792969 -4.867188 1.664063 -4.660156 1.570313 -4.4375 C 1.40625 -4.046875 1.324219 -3.625 1.328125 -3.171875 C 1.324219 -2.605469 1.421875 -2.136719 1.617188 -1.761719 C 1.808594 -1.382813 2.089844 -1.101563 2.460938 -0.917969 C 2.828125 -0.734375 3.21875 -0.644531 3.640625 -0.644531 C 3.996094 -0.644531 4.347656 -0.710938 4.695313 -0.851563 C 5.035156 -0.988281 5.296875 -1.136719 5.476563 -1.296875 L 5.476563 -2.46875 Z M 3.625 -2.46875 "/>
</symbol>
<symbol overflow="visible" id="glyph1-9">
<path style="stroke:none;" d="M 0.722656 0 L 0.722656 -6.300781 L 4.972656 -6.300781 L 4.972656 -5.554688 L 1.554688 -5.554688 L 1.554688 -3.605469 L 4.511719 -3.605469 L 4.511719 -2.863281 L 1.554688 -2.863281 L 1.554688 0 Z M 0.722656 0 "/>
</symbol>
<symbol overflow="visible" id="glyph1-10">
<path style="stroke:none;" d="M 0.679688 0 L 0.679688 -6.300781 L 3.054688 -6.300781 C 3.46875 -6.296875 3.789063 -6.277344 4.011719 -6.238281 C 4.320313 -6.183594 4.578125 -6.085938 4.789063 -5.941406 C 4.996094 -5.796875 5.167969 -5.59375 5.296875 -5.335938 C 5.421875 -5.074219 5.484375 -4.789063 5.488281 -4.476563 C 5.484375 -3.941406 5.3125 -3.488281 4.976563 -3.117188 C 4.632813 -2.746094 4.019531 -2.558594 3.128906 -2.5625 L 1.511719 -2.5625 L 1.511719 0 Z M 1.511719 -3.304688 L 3.140625 -3.304688 C 3.679688 -3.304688 4.0625 -3.402344 4.289063 -3.605469 C 4.515625 -3.800781 4.628906 -4.085938 4.628906 -4.453125 C 4.628906 -4.714844 4.558594 -4.9375 4.425781 -5.128906 C 4.289063 -5.3125 4.117188 -5.4375 3.902344 -5.5 C 3.761719 -5.535156 3.5 -5.554688 3.125 -5.554688 L 1.511719 -5.554688 Z M 1.511719 -3.304688 "/>
</symbol>
<symbol overflow="visible" id="glyph1-11">
<path style="stroke:none;" d="M 0.820313 0 L 0.820313 -6.300781 L 1.65625 -6.300781 L 1.65625 0 Z M 0.820313 0 "/>
</symbol>
<symbol overflow="visible" id="glyph1-12">
<path style="stroke:none;" d="M 0.394531 -2.023438 L 1.179688 -2.09375 C 1.214844 -1.773438 1.304688 -1.515625 1.441406 -1.316406 C 1.574219 -1.113281 1.785156 -0.949219 2.074219 -0.828125 C 2.359375 -0.699219 2.679688 -0.636719 3.042969 -0.640625 C 3.355469 -0.636719 3.636719 -0.683594 3.882813 -0.78125 C 4.125 -0.875 4.304688 -1.007813 4.425781 -1.171875 C 4.542969 -1.335938 4.605469 -1.515625 4.605469 -1.710938 C 4.605469 -1.90625 4.546875 -2.078125 4.433594 -2.226563 C 4.316406 -2.375 4.128906 -2.5 3.867188 -2.601563 C 3.695313 -2.664063 3.320313 -2.765625 2.746094 -2.90625 C 2.164063 -3.046875 1.757813 -3.175781 1.53125 -3.300781 C 1.226563 -3.453125 1.003906 -3.648438 0.855469 -3.886719 C 0.707031 -4.117188 0.632813 -4.378906 0.636719 -4.671875 C 0.632813 -4.984375 0.722656 -5.28125 0.90625 -5.5625 C 1.082031 -5.835938 1.34375 -6.046875 1.695313 -6.191406 C 2.039063 -6.332031 2.425781 -6.402344 2.851563 -6.40625 C 3.316406 -6.402344 3.730469 -6.328125 4.089844 -6.179688 C 4.445313 -6.027344 4.71875 -5.804688 4.910156 -5.515625 C 5.101563 -5.21875 5.203125 -4.890625 5.21875 -4.523438 L 4.421875 -4.464844 C 4.375 -4.863281 4.230469 -5.164063 3.984375 -5.367188 C 3.734375 -5.570313 3.367188 -5.671875 2.886719 -5.671875 C 2.382813 -5.671875 2.015625 -5.578125 1.785156 -5.394531 C 1.554688 -5.207031 1.441406 -4.984375 1.441406 -4.726563 C 1.441406 -4.496094 1.519531 -4.308594 1.683594 -4.167969 C 1.839844 -4.019531 2.261719 -3.871094 2.941406 -3.71875 C 3.617188 -3.5625 4.082031 -3.429688 4.335938 -3.316406 C 4.703125 -3.144531 4.972656 -2.929688 5.148438 -2.671875 C 5.320313 -2.414063 5.40625 -2.113281 5.410156 -1.777344 C 5.40625 -1.441406 5.3125 -1.128906 5.121094 -0.832031 C 4.929688 -0.535156 4.652344 -0.300781 4.292969 -0.136719 C 3.929688 0.0273438 3.527344 0.105469 3.082031 0.109375 C 2.511719 0.105469 2.03125 0.0234375 1.648438 -0.140625 C 1.257813 -0.304688 0.957031 -0.554688 0.742188 -0.890625 C 0.519531 -1.222656 0.402344 -1.597656 0.394531 -2.023438 Z M 0.394531 -2.023438 "/>
</symbol>
<symbol overflow="visible" id="glyph1-13">
<path style="stroke:none;" d="M 0.652344 0 L 0.652344 -6.300781 L 1.90625 -6.300781 L 3.398438 -1.839844 C 3.535156 -1.421875 3.632813 -1.109375 3.699219 -0.90625 C 3.769531 -1.132813 3.882813 -1.46875 4.035156 -1.917969 L 5.542969 -6.300781 L 6.664063 -6.300781 L 6.664063 0 L 5.859375 0 L 5.859375 -5.273438 L 4.03125 0 L 3.277344 0 L 1.457031 -5.363281 L 1.457031 0 Z M 0.652344 0 "/>
</symbol>
<symbol overflow="visible" id="glyph1-14">
<path style="stroke:none;" d="M 2.28125 0 L 2.28125 -5.554688 L 0.207031 -5.554688 L 0.207031 -6.300781 L 5.199219 -6.300781 L 5.199219 -5.554688 L 3.117188 -5.554688 L 3.117188 0 Z M 2.28125 0 "/>
</symbol>
<symbol overflow="visible" id="glyph2-0">
<path style="stroke:none;" d="M 1.648438 0 L 1.648438 -8.25 L 8.25 -8.25 L 8.25 0 Z M 1.855469 -0.207031 L 8.042969 -0.207031 L 8.042969 -8.042969 L 1.855469 -8.042969 Z M 1.855469 -0.207031 "/>
</symbol>
<symbol overflow="visible" id="glyph2-1">
<path style="stroke:none;" d="M 0.59375 -3.035156 L 1.773438 -3.140625 C 1.824219 -2.664063 1.953125 -2.273438 2.160156 -1.972656 C 2.363281 -1.667969 2.679688 -1.421875 3.113281 -1.238281 C 3.539063 -1.050781 4.023438 -0.960938 4.5625 -0.960938 C 5.035156 -0.960938 5.457031 -1.03125 5.824219 -1.171875 C 6.191406 -1.3125 6.460938 -1.503906 6.640625 -1.753906 C 6.816406 -1.996094 6.90625 -2.269531 6.910156 -2.566406 C 6.90625 -2.863281 6.820313 -3.121094 6.652344 -3.339844 C 6.476563 -3.558594 6.195313 -3.742188 5.800781 -3.898438 C 5.546875 -3.992188 4.984375 -4.148438 4.117188 -4.359375 C 3.246094 -4.566406 2.636719 -4.761719 2.292969 -4.949219 C 1.839844 -5.183594 1.503906 -5.476563 1.285156 -5.828125 C 1.058594 -6.175781 0.949219 -6.570313 0.953125 -7.007813 C 0.949219 -7.484375 1.085938 -7.929688 1.359375 -8.34375 C 1.628906 -8.757813 2.023438 -9.070313 2.542969 -9.285156 C 3.0625 -9.5 3.640625 -9.609375 4.28125 -9.609375 C 4.980469 -9.609375 5.597656 -9.496094 6.132813 -9.269531 C 6.664063 -9.042969 7.074219 -8.710938 7.363281 -8.273438 C 7.648438 -7.835938 7.804688 -7.339844 7.832031 -6.785156 L 6.632813 -6.695313 C 6.566406 -7.292969 6.347656 -7.746094 5.976563 -8.050781 C 5.605469 -8.355469 5.054688 -8.507813 4.332031 -8.507813 C 3.570313 -8.507813 3.019531 -8.367188 2.675781 -8.089844 C 2.328125 -7.8125 2.15625 -7.480469 2.160156 -7.089844 C 2.15625 -6.75 2.277344 -6.46875 2.527344 -6.25 C 2.761719 -6.027344 3.390625 -5.804688 4.410156 -5.578125 C 5.425781 -5.347656 6.125 -5.144531 6.503906 -4.976563 C 7.050781 -4.71875 7.453125 -4.398438 7.71875 -4.011719 C 7.976563 -3.621094 8.109375 -3.171875 8.113281 -2.667969 C 8.109375 -2.160156 7.964844 -1.6875 7.679688 -1.246094 C 7.390625 -0.796875 6.976563 -0.449219 6.441406 -0.207031 C 5.898438 0.0390625 5.292969 0.15625 4.621094 0.160156 C 3.765625 0.15625 3.050781 0.0351563 2.472656 -0.210938 C 1.894531 -0.460938 1.4375 -0.835938 1.109375 -1.335938 C 0.777344 -1.835938 0.605469 -2.402344 0.59375 -3.035156 Z M 0.59375 -3.035156 "/>
</symbol>
<symbol overflow="visible" id="glyph2-2">
<path style="stroke:none;" d="M 5.335938 -0.84375 C 4.902344 -0.476563 4.488281 -0.21875 4.09375 -0.0703125 C 3.695313 0.078125 3.269531 0.152344 2.816406 0.15625 C 2.0625 0.152344 1.484375 -0.0273438 1.082031 -0.394531 C 0.675781 -0.761719 0.472656 -1.234375 0.476563 -1.804688 C 0.472656 -2.140625 0.550781 -2.445313 0.703125 -2.722656 C 0.855469 -3 1.054688 -3.222656 1.304688 -3.390625 C 1.550781 -3.554688 1.828125 -3.679688 2.140625 -3.769531 C 2.363281 -3.824219 2.707031 -3.882813 3.171875 -3.945313 C 4.105469 -4.054688 4.796875 -4.1875 5.238281 -4.34375 C 5.242188 -4.5 5.242188 -4.601563 5.246094 -4.648438 C 5.242188 -5.117188 5.132813 -5.449219 4.917969 -5.644531 C 4.617188 -5.902344 4.179688 -6.035156 3.597656 -6.039063 C 3.050781 -6.035156 2.644531 -5.9375 2.386719 -5.75 C 2.125 -5.554688 1.933594 -5.21875 1.8125 -4.738281 L 0.675781 -4.890625 C 0.777344 -5.375 0.949219 -5.765625 1.183594 -6.066406 C 1.417969 -6.363281 1.757813 -6.59375 2.210938 -6.757813 C 2.65625 -6.914063 3.175781 -6.996094 3.765625 -7 C 4.347656 -6.996094 4.820313 -6.925781 5.1875 -6.792969 C 5.546875 -6.652344 5.816406 -6.480469 5.992188 -6.273438 C 6.160156 -6.0625 6.28125 -5.800781 6.355469 -5.484375 C 6.390625 -5.285156 6.410156 -4.925781 6.414063 -4.414063 L 6.414063 -2.867188 C 6.410156 -1.785156 6.433594 -1.105469 6.488281 -0.820313 C 6.535156 -0.535156 6.632813 -0.261719 6.78125 0 L 5.570313 0 C 5.445313 -0.238281 5.367188 -0.519531 5.335938 -0.84375 Z M 5.238281 -3.433594 C 4.816406 -3.261719 4.183594 -3.113281 3.34375 -2.996094 C 2.863281 -2.925781 2.527344 -2.851563 2.332031 -2.765625 C 2.132813 -2.679688 1.980469 -2.550781 1.875 -2.386719 C 1.765625 -2.21875 1.710938 -2.035156 1.714844 -1.835938 C 1.710938 -1.523438 1.828125 -1.265625 2.066406 -1.0625 C 2.296875 -0.851563 2.640625 -0.75 3.09375 -0.753906 C 3.539063 -0.75 3.933594 -0.847656 4.285156 -1.046875 C 4.628906 -1.238281 4.886719 -1.507813 5.054688 -1.851563 C 5.175781 -2.109375 5.238281 -2.496094 5.238281 -3.011719 Z M 5.238281 -3.433594 "/>
</symbol>
<symbol overflow="visible" id="glyph2-3">
<path style="stroke:none;" d="M 0.871094 0 L 0.871094 -6.84375 L 1.90625 -6.84375 L 1.90625 -5.882813 C 2.117188 -6.21875 2.40625 -6.488281 2.765625 -6.691406 C 3.121094 -6.894531 3.527344 -6.996094 3.984375 -7 C 4.488281 -6.996094 4.902344 -6.890625 5.230469 -6.683594 C 5.554688 -6.46875 5.785156 -6.175781 5.917969 -5.800781 C 6.457031 -6.597656 7.160156 -6.996094 8.03125 -7 C 8.707031 -6.996094 9.230469 -6.808594 9.597656 -6.433594 C 9.960938 -6.058594 10.140625 -5.480469 10.144531 -4.699219 L 10.144531 0 L 8.992188 0 L 8.992188 -4.3125 C 8.988281 -4.773438 8.949219 -5.105469 8.878906 -5.3125 C 8.800781 -5.515625 8.664063 -5.679688 8.46875 -5.804688 C 8.265625 -5.925781 8.035156 -5.988281 7.773438 -5.992188 C 7.289063 -5.988281 6.890625 -5.828125 6.574219 -5.511719 C 6.253906 -5.191406 6.09375 -4.679688 6.097656 -3.976563 L 6.097656 0 L 4.9375 0 L 4.9375 -4.445313 C 4.933594 -4.957031 4.839844 -5.34375 4.652344 -5.605469 C 4.464844 -5.859375 4.15625 -5.988281 3.726563 -5.992188 C 3.398438 -5.988281 3.09375 -5.902344 2.816406 -5.734375 C 2.539063 -5.558594 2.339844 -5.308594 2.214844 -4.980469 C 2.089844 -4.648438 2.027344 -4.171875 2.03125 -3.550781 L 2.03125 0 Z M 0.871094 0 "/>
</symbol>
<symbol overflow="visible" id="glyph2-4">
<path style="stroke:none;" d="M 0.871094 2.625 L 0.871094 -6.84375 L 1.925781 -6.84375 L 1.925781 -5.957031 C 2.171875 -6.300781 2.453125 -6.5625 2.769531 -6.738281 C 3.082031 -6.910156 3.464844 -6.996094 3.914063 -7 C 4.496094 -6.996094 5.007813 -6.84375 5.457031 -6.546875 C 5.902344 -6.242188 6.242188 -5.820313 6.46875 -5.273438 C 6.695313 -4.726563 6.808594 -4.125 6.8125 -3.472656 C 6.808594 -2.769531 6.683594 -2.140625 6.433594 -1.582031 C 6.183594 -1.019531 5.816406 -0.589844 5.339844 -0.292969 C 4.855469 0.00390625 4.351563 0.152344 3.828125 0.15625 C 3.4375 0.152344 3.09375 0.0742188 2.789063 -0.0898438 C 2.480469 -0.25 2.226563 -0.457031 2.03125 -0.710938 L 2.03125 2.625 Z M 1.921875 -3.382813 C 1.921875 -2.5 2.097656 -1.851563 2.457031 -1.429688 C 2.808594 -1.007813 3.242188 -0.796875 3.75 -0.800781 C 4.265625 -0.796875 4.707031 -1.015625 5.074219 -1.453125 C 5.441406 -1.890625 5.625 -2.566406 5.625 -3.480469 C 5.625 -4.351563 5.445313 -5.003906 5.085938 -5.4375 C 4.726563 -5.871094 4.296875 -6.085938 3.804688 -6.089844 C 3.304688 -6.085938 2.867188 -5.855469 2.492188 -5.394531 C 2.109375 -4.929688 1.921875 -4.257813 1.921875 -3.382813 Z M 1.921875 -3.382813 "/>
</symbol>
<symbol overflow="visible" id="glyph2-5">
<path style="stroke:none;" d="M 0.84375 0 L 0.84375 -9.449219 L 2.003906 -9.449219 L 2.003906 0 Z M 0.84375 0 "/>
</symbol>
<symbol overflow="visible" id="glyph2-6">
<path style="stroke:none;" d="M 5.554688 -2.203125 L 6.753906 -2.054688 C 6.5625 -1.351563 6.210938 -0.808594 5.703125 -0.421875 C 5.1875 -0.0390625 4.535156 0.152344 3.746094 0.15625 C 2.738281 0.152344 1.945313 -0.152344 1.363281 -0.769531 C 0.773438 -1.382813 0.480469 -2.25 0.484375 -3.363281 C 0.480469 -4.515625 0.777344 -5.410156 1.371094 -6.046875 C 1.964844 -6.679688 2.734375 -6.996094 3.679688 -7 C 4.59375 -6.996094 5.339844 -6.683594 5.921875 -6.0625 C 6.5 -5.4375 6.789063 -4.5625 6.792969 -3.433594 C 6.789063 -3.363281 6.789063 -3.257813 6.785156 -3.125 L 1.683594 -3.125 C 1.722656 -2.371094 1.9375 -1.796875 2.320313 -1.398438 C 2.703125 -0.996094 3.179688 -0.796875 3.75 -0.800781 C 4.175781 -0.796875 4.539063 -0.90625 4.839844 -1.132813 C 5.140625 -1.351563 5.378906 -1.710938 5.554688 -2.203125 Z M 1.746094 -4.078125 L 5.570313 -4.078125 C 5.515625 -4.65625 5.367188 -5.085938 5.128906 -5.375 C 4.757813 -5.820313 4.28125 -6.046875 3.691406 -6.046875 C 3.160156 -6.046875 2.710938 -5.867188 2.347656 -5.511719 C 1.984375 -5.152344 1.785156 -4.675781 1.746094 -4.078125 Z M 1.746094 -4.078125 "/>
</symbol>
<symbol overflow="visible" id="glyph2-7">
<path style="stroke:none;" d="M 3.421875 0 L 3.421875 -8.332031 L 0.308594 -8.332031 L 0.308594 -9.449219 L 7.796875 -9.449219 L 7.796875 -8.332031 L 4.671875 -8.332031 L 4.671875 0 Z M 3.421875 0 "/>
</symbol>
<symbol overflow="visible" id="glyph2-8">
<path style="stroke:none;" d="M 0.820313 2.636719 L 0.691406 1.546875 C 0.941406 1.613281 1.160156 1.644531 1.351563 1.648438 C 1.609375 1.644531 1.816406 1.601563 1.972656 1.519531 C 2.125 1.429688 2.25 1.3125 2.351563 1.160156 C 2.421875 1.042969 2.542969 0.753906 2.707031 0.296875 C 2.726563 0.230469 2.757813 0.136719 2.808594 0.0117188 L 0.210938 -6.84375 L 1.464844 -6.84375 L 2.886719 -2.882813 C 3.070313 -2.375 3.234375 -1.84375 3.382813 -1.296875 C 3.511719 -1.824219 3.671875 -2.34375 3.859375 -2.855469 L 5.324219 -6.84375 L 6.484375 -6.84375 L 3.878906 0.117188 C 3.597656 0.867188 3.378906 1.382813 3.230469 1.667969 C 3.019531 2.046875 2.785156 2.328125 2.519531 2.507813 C 2.253906 2.6875 1.933594 2.777344 1.566406 2.777344 C 1.339844 2.777344 1.09375 2.730469 0.820313 2.636719 Z M 0.820313 2.636719 "/>
</symbol>
<symbol overflow="visible" id="glyph2-9">
<path style="stroke:none;" d="M -0.199219 2.625 L -0.199219 1.785156 L 7.488281 1.785156 L 7.488281 2.625 Z M -0.199219 2.625 "/>
</symbol>
<symbol overflow="visible" id="glyph2-10">
<path style="stroke:none;" d="M 1.003906 0 L 1.003906 -9.449219 L 2.289063 -9.449219 L 7.25 -2.03125 L 7.25 -9.449219 L 8.449219 -9.449219 L 8.449219 0 L 7.167969 0 L 2.203125 -7.425781 L 2.203125 0 Z M 1.003906 0 "/>
</symbol>
<symbol overflow="visible" id="glyph2-11">
<path style="stroke:none;" d="M 5.355469 0 L 5.355469 -1.003906 C 4.824219 -0.230469 4.097656 0.152344 3.183594 0.15625 C 2.777344 0.152344 2.402344 0.078125 2.050781 -0.0742188 C 1.699219 -0.226563 1.4375 -0.421875 1.273438 -0.660156 C 1.101563 -0.890625 0.984375 -1.175781 0.914063 -1.519531 C 0.867188 -1.746094 0.84375 -2.109375 0.84375 -2.605469 L 0.84375 -6.84375 L 2.003906 -6.84375 L 2.003906 -3.046875 C 2.003906 -2.441406 2.027344 -2.03125 2.074219 -1.824219 C 2.144531 -1.515625 2.296875 -1.277344 2.539063 -1.105469 C 2.773438 -0.929688 3.066406 -0.84375 3.414063 -0.84375 C 3.761719 -0.84375 4.089844 -0.929688 4.394531 -1.109375 C 4.699219 -1.285156 4.914063 -1.53125 5.042969 -1.839844 C 5.167969 -2.144531 5.230469 -2.589844 5.234375 -3.175781 L 5.234375 -6.84375 L 6.394531 -6.84375 L 6.394531 0 Z M 5.355469 0 "/>
</symbol>
<symbol overflow="visible" id="glyph2-12">
<path style="stroke:none;" d="M 0.855469 0 L 0.855469 -6.84375 L 1.902344 -6.84375 L 1.902344 -5.808594 C 2.164063 -6.289063 2.410156 -6.609375 2.636719 -6.765625 C 2.863281 -6.917969 3.109375 -6.996094 3.382813 -7 C 3.769531 -6.996094 4.167969 -6.871094 4.578125 -6.625 L 4.175781 -5.550781 C 3.890625 -5.714844 3.605469 -5.800781 3.324219 -5.800781 C 3.066406 -5.800781 2.839844 -5.722656 2.640625 -5.570313 C 2.4375 -5.417969 2.292969 -5.207031 2.210938 -4.9375 C 2.078125 -4.523438 2.015625 -4.070313 2.015625 -3.582031 L 2.015625 0 Z M 0.855469 0 "/>
</symbol>
<symbol overflow="visible" id="glyph2-13">
<path style="stroke:none;" d="M 0.4375 -3.421875 C 0.433594 -4.6875 0.785156 -5.625 1.496094 -6.238281 C 2.082031 -6.742188 2.800781 -6.996094 3.648438 -7 C 4.585938 -6.996094 5.355469 -6.6875 5.953125 -6.074219 C 6.550781 -5.453125 6.847656 -4.601563 6.851563 -3.519531 C 6.847656 -2.636719 6.714844 -1.945313 6.453125 -1.441406 C 6.1875 -0.933594 5.804688 -0.539063 5.300781 -0.261719 C 4.792969 0.015625 4.242188 0.152344 3.648438 0.15625 C 2.6875 0.152344 1.914063 -0.152344 1.324219 -0.765625 C 0.730469 -1.378906 0.433594 -2.265625 0.4375 -3.421875 Z M 1.628906 -3.421875 C 1.628906 -2.546875 1.820313 -1.890625 2.203125 -1.453125 C 2.585938 -1.015625 3.066406 -0.796875 3.648438 -0.800781 C 4.222656 -0.796875 4.703125 -1.015625 5.085938 -1.457031 C 5.46875 -1.890625 5.660156 -2.558594 5.660156 -3.460938 C 5.660156 -4.304688 5.464844 -4.945313 5.082031 -5.382813 C 4.691406 -5.816406 4.214844 -6.035156 3.648438 -6.039063 C 3.066406 -6.035156 2.585938 -5.816406 2.203125 -5.386719 C 1.820313 -4.949219 1.628906 -4.296875 1.628906 -3.421875 Z M 1.628906 -3.421875 "/>
</symbol>
<symbol overflow="visible" id="glyph2-14">
<path style="stroke:none;" d="M 0.871094 0 L 0.871094 -6.84375 L 1.914063 -6.84375 L 1.914063 -5.871094 C 2.414063 -6.621094 3.140625 -6.996094 4.09375 -7 C 4.503906 -6.996094 4.882813 -6.921875 5.230469 -6.777344 C 5.574219 -6.625 5.832031 -6.429688 6.007813 -6.191406 C 6.175781 -5.949219 6.296875 -5.664063 6.367188 -5.335938 C 6.410156 -5.121094 6.433594 -4.746094 6.433594 -4.207031 L 6.433594 0 L 5.273438 0 L 5.273438 -4.164063 C 5.273438 -4.632813 5.226563 -4.984375 5.136719 -5.222656 C 5.042969 -5.453125 4.882813 -5.640625 4.65625 -5.78125 C 4.425781 -5.917969 4.15625 -5.988281 3.847656 -5.992188 C 3.351563 -5.988281 2.925781 -5.832031 2.566406 -5.523438 C 2.207031 -5.207031 2.027344 -4.613281 2.03125 -3.738281 L 2.03125 0 Z M 0.871094 0 "/>
</symbol>
<symbol overflow="visible" id="glyph2-15">
<path style="stroke:none;" d="M 7.761719 -3.3125 L 9.011719 -2.996094 C 8.746094 -1.964844 8.273438 -1.183594 7.59375 -0.648438 C 6.914063 -0.109375 6.082031 0.15625 5.097656 0.160156 C 4.078125 0.15625 3.25 -0.046875 2.613281 -0.460938 C 1.972656 -0.871094 1.484375 -1.472656 1.15625 -2.261719 C 0.820313 -3.046875 0.65625 -3.890625 0.65625 -4.796875 C 0.65625 -5.777344 0.84375 -6.632813 1.21875 -7.367188 C 1.59375 -8.097656 2.128906 -8.65625 2.824219 -9.039063 C 3.519531 -9.417969 4.28125 -9.609375 5.117188 -9.609375 C 6.058594 -9.609375 6.855469 -9.367188 7.5 -8.886719 C 8.144531 -8.40625 8.59375 -7.730469 8.847656 -6.859375 L 7.617188 -6.566406 C 7.398438 -7.25 7.078125 -7.75 6.664063 -8.066406 C 6.242188 -8.378906 5.71875 -8.535156 5.09375 -8.539063 C 4.363281 -8.535156 3.757813 -8.363281 3.269531 -8.015625 C 2.78125 -7.667969 2.4375 -7.199219 2.242188 -6.613281 C 2.042969 -6.023438 1.945313 -5.417969 1.945313 -4.800781 C 1.945313 -3.996094 2.0625 -3.296875 2.296875 -2.695313 C 2.53125 -2.09375 2.894531 -1.644531 3.390625 -1.351563 C 3.882813 -1.054688 4.417969 -0.90625 4.996094 -0.910156 C 5.695313 -0.90625 6.289063 -1.109375 6.773438 -1.515625 C 7.257813 -1.917969 7.585938 -2.515625 7.761719 -3.3125 Z M 7.761719 -3.3125 "/>
</symbol>
<symbol overflow="visible" id="glyph2-16">
<path style="stroke:none;" d="M 5.3125 0 L 5.3125 -0.863281 C 4.875 -0.183594 4.238281 0.152344 3.398438 0.15625 C 2.851563 0.152344 2.347656 0.00390625 1.890625 -0.292969 C 1.433594 -0.59375 1.078125 -1.011719 0.828125 -1.554688 C 0.574219 -2.09375 0.449219 -2.714844 0.453125 -3.414063 C 0.449219 -4.097656 0.5625 -4.71875 0.792969 -5.273438 C 1.015625 -5.828125 1.359375 -6.253906 1.816406 -6.554688 C 2.269531 -6.847656 2.777344 -6.996094 3.34375 -7 C 3.753906 -6.996094 4.121094 -6.910156 4.445313 -6.738281 C 4.765625 -6.5625 5.027344 -6.335938 5.234375 -6.058594 L 5.234375 -9.449219 L 6.386719 -9.449219 L 6.386719 0 Z M 1.644531 -3.414063 C 1.640625 -2.535156 1.824219 -1.878906 2.199219 -1.449219 C 2.566406 -1.011719 3.003906 -0.796875 3.507813 -0.800781 C 4.011719 -0.796875 4.441406 -1.003906 4.796875 -1.421875 C 5.152344 -1.832031 5.332031 -2.464844 5.332031 -3.320313 C 5.332031 -4.253906 5.148438 -4.941406 4.789063 -5.378906 C 4.421875 -5.816406 3.976563 -6.035156 3.453125 -6.039063 C 2.933594 -6.035156 2.503906 -5.824219 2.160156 -5.40625 C 1.8125 -4.984375 1.640625 -4.320313 1.644531 -3.414063 Z M 1.644531 -3.414063 "/>
</symbol>
<symbol overflow="visible" id="glyph2-17">
<path style="stroke:none;" d="M 0.875 -8.113281 L 0.875 -9.449219 L 2.035156 -9.449219 L 2.035156 -8.113281 Z M 0.875 0 L 0.875 -6.84375 L 2.035156 -6.84375 L 2.035156 0 Z M 0.875 0 "/>
</symbol>
<symbol overflow="visible" id="glyph2-18">
<path style="stroke:none;" d="M 3.402344 -1.039063 L 3.570313 -0.0117188 C 3.242188 0.0546875 2.953125 0.0859375 2.695313 0.0898438 C 2.273438 0.0859375 1.945313 0.0234375 1.714844 -0.109375 C 1.480469 -0.238281 1.316406 -0.414063 1.222656 -0.632813 C 1.125 -0.851563 1.078125 -1.308594 1.082031 -2.003906 L 1.082031 -5.941406 L 0.230469 -5.941406 L 0.230469 -6.84375 L 1.082031 -6.84375 L 1.082031 -8.539063 L 2.238281 -9.234375 L 2.238281 -6.84375 L 3.402344 -6.84375 L 3.402344 -5.941406 L 2.238281 -5.941406 L 2.238281 -1.941406 C 2.238281 -1.605469 2.257813 -1.394531 2.296875 -1.300781 C 2.335938 -1.207031 2.402344 -1.128906 2.496094 -1.074219 C 2.589844 -1.015625 2.722656 -0.988281 2.894531 -0.992188 C 3.019531 -0.988281 3.1875 -1.003906 3.402344 -1.039063 Z M 3.402344 -1.039063 "/>
</symbol>
<symbol overflow="visible" id="glyph2-19">
<path style="stroke:none;" d="M 5.441406 -3.707031 L 5.441406 -4.816406 L 9.441406 -4.820313 L 9.441406 -1.316406 C 8.824219 -0.820313 8.191406 -0.449219 7.539063 -0.207031 C 6.886719 0.0390625 6.21875 0.15625 5.53125 0.160156 C 4.601563 0.15625 3.757813 -0.0390625 3 -0.433594 C 2.242188 -0.832031 1.667969 -1.40625 1.28125 -2.160156 C 0.894531 -2.910156 0.703125 -3.75 0.703125 -4.679688 C 0.703125 -5.597656 0.894531 -6.457031 1.277344 -7.253906 C 1.660156 -8.050781 2.210938 -8.640625 2.9375 -9.027344 C 3.65625 -9.414063 4.488281 -9.609375 5.433594 -9.609375 C 6.113281 -9.609375 6.730469 -9.496094 7.285156 -9.277344 C 7.832031 -9.050781 8.265625 -8.742188 8.582031 -8.351563 C 8.894531 -7.953125 9.132813 -7.4375 9.300781 -6.804688 L 8.171875 -6.496094 C 8.027344 -6.976563 7.851563 -7.355469 7.644531 -7.628906 C 7.429688 -7.902344 7.128906 -8.121094 6.742188 -8.289063 C 6.347656 -8.453125 5.914063 -8.535156 5.441406 -8.539063 C 4.867188 -8.535156 4.371094 -8.449219 3.957031 -8.277344 C 3.535156 -8.101563 3.199219 -7.875 2.949219 -7.59375 C 2.691406 -7.308594 2.492188 -6.996094 2.351563 -6.65625 C 2.109375 -6.070313 1.992188 -5.4375 1.992188 -4.757813 C 1.992188 -3.914063 2.136719 -3.207031 2.425781 -2.640625 C 2.714844 -2.074219 3.136719 -1.652344 3.691406 -1.378906 C 4.246094 -1.101563 4.835938 -0.964844 5.460938 -0.96875 C 6 -0.964844 6.527344 -1.070313 7.042969 -1.28125 C 7.558594 -1.488281 7.949219 -1.710938 8.21875 -1.945313 L 8.21875 -3.707031 Z M 5.441406 -3.707031 "/>
</symbol>
<symbol overflow="visible" id="glyph2-20">
<path style="stroke:none;" d="M 0.65625 0.566406 L 1.785156 0.734375 C 1.828125 1.078125 1.960938 1.332031 2.179688 1.496094 C 2.464844 1.707031 2.855469 1.816406 3.359375 1.816406 C 3.890625 1.816406 4.304688 1.707031 4.601563 1.492188 C 4.890625 1.277344 5.089844 0.976563 5.195313 0.59375 C 5.253906 0.351563 5.28125 -0.140625 5.277344 -0.894531 C 4.769531 -0.296875 4.136719 0 3.382813 0 C 2.4375 0 1.710938 -0.335938 1.199219 -1.015625 C 0.679688 -1.691406 0.421875 -2.507813 0.425781 -3.460938 C 0.421875 -4.113281 0.539063 -4.714844 0.777344 -5.269531 C 1.011719 -5.816406 1.355469 -6.242188 1.804688 -6.546875 C 2.253906 -6.84375 2.78125 -6.996094 3.390625 -7 C 4.195313 -6.996094 4.859375 -6.667969 5.386719 -6.019531 L 5.386719 -6.84375 L 6.457031 -6.84375 L 6.457031 -0.929688 C 6.457031 0.136719 6.347656 0.890625 6.132813 1.335938 C 5.914063 1.78125 5.570313 2.132813 5.101563 2.390625 C 4.628906 2.648438 4.050781 2.777344 3.363281 2.777344 C 2.546875 2.777344 1.886719 2.59375 1.386719 2.226563 C 0.882813 1.859375 0.640625 1.304688 0.65625 0.566406 Z M 1.617188 -3.546875 C 1.617188 -2.644531 1.792969 -1.988281 2.152344 -1.578125 C 2.503906 -1.164063 2.953125 -0.960938 3.492188 -0.960938 C 4.023438 -0.960938 4.46875 -1.164063 4.832031 -1.574219 C 5.191406 -1.984375 5.371094 -2.628906 5.375 -3.507813 C 5.371094 -4.339844 5.1875 -4.96875 4.816406 -5.398438 C 4.445313 -5.820313 3.996094 -6.035156 3.472656 -6.039063 C 2.953125 -6.035156 2.515625 -5.824219 2.15625 -5.410156 C 1.796875 -4.988281 1.617188 -4.367188 1.617188 -3.546875 Z M 1.617188 -3.546875 "/>
</symbol>
<symbol overflow="visible" id="glyph2-21">
<path style="stroke:none;" d="M 0.40625 -2.042969 L 1.554688 -2.222656 C 1.613281 -1.761719 1.792969 -1.410156 2.089844 -1.167969 C 2.382813 -0.917969 2.792969 -0.796875 3.324219 -0.800781 C 3.855469 -0.796875 4.253906 -0.90625 4.511719 -1.125 C 4.769531 -1.339844 4.898438 -1.59375 4.898438 -1.886719 C 4.898438 -2.148438 4.785156 -2.355469 4.558594 -2.507813 C 4.398438 -2.609375 4 -2.738281 3.371094 -2.898438 C 2.515625 -3.113281 1.925781 -3.300781 1.601563 -3.457031 C 1.269531 -3.613281 1.019531 -3.828125 0.851563 -4.105469 C 0.679688 -4.382813 0.597656 -4.691406 0.597656 -5.027344 C 0.597656 -5.332031 0.667969 -5.613281 0.808594 -5.875 C 0.949219 -6.132813 1.136719 -6.347656 1.378906 -6.523438 C 1.554688 -6.652344 1.800781 -6.765625 2.117188 -6.859375 C 2.425781 -6.949219 2.761719 -6.996094 3.121094 -7 C 3.65625 -6.996094 4.128906 -6.917969 4.535156 -6.765625 C 4.941406 -6.609375 5.238281 -6.398438 5.433594 -6.136719 C 5.621094 -5.871094 5.753906 -5.519531 5.832031 -5.078125 L 4.699219 -4.925781 C 4.644531 -5.273438 4.492188 -5.546875 4.25 -5.75 C 4 -5.945313 3.652344 -6.046875 3.203125 -6.046875 C 2.667969 -6.046875 2.289063 -5.957031 2.0625 -5.78125 C 1.835938 -5.601563 1.722656 -5.394531 1.722656 -5.164063 C 1.722656 -5.007813 1.769531 -4.875 1.863281 -4.757813 C 1.957031 -4.632813 2.105469 -4.527344 2.308594 -4.445313 C 2.421875 -4.402344 2.761719 -4.304688 3.332031 -4.152344 C 4.148438 -3.929688 4.71875 -3.75 5.046875 -3.609375 C 5.367188 -3.46875 5.625 -3.265625 5.8125 -3.003906 C 5.996094 -2.734375 6.085938 -2.402344 6.089844 -2.011719 C 6.085938 -1.621094 5.972656 -1.257813 5.75 -0.917969 C 5.523438 -0.574219 5.199219 -0.308594 4.773438 -0.125 C 4.347656 0.0625 3.867188 0.152344 3.332031 0.15625 C 2.441406 0.152344 1.761719 -0.03125 1.296875 -0.398438 C 0.828125 -0.765625 0.53125 -1.3125 0.40625 -2.042969 Z M 0.40625 -2.042969 "/>
</symbol>
<symbol overflow="visible" id="glyph2-22">
<path style="stroke:none;" d="M 0.0976563 0 L 2.597656 -3.558594 L 0.285156 -6.84375 L 1.734375 -6.84375 L 2.785156 -5.238281 C 2.980469 -4.933594 3.140625 -4.675781 3.261719 -4.472656 C 3.449219 -4.753906 3.625 -5.007813 3.785156 -5.226563 L 4.9375 -6.84375 L 6.324219 -6.84375 L 3.957031 -3.621094 L 6.503906 0 L 5.078125 0 L 3.671875 -2.125 L 3.300781 -2.699219 L 1.5 0 Z M 0.0976563 0 "/>
</symbol>
<symbol overflow="visible" id="glyph2-23">
<path style="stroke:none;" d="M 1.082031 0 L 1.082031 -9.449219 L 7.457031 -9.449219 L 7.457031 -8.332031 L 2.332031 -8.332031 L 2.332031 -5.40625 L 6.765625 -5.40625 L 6.765625 -4.292969 L 2.332031 -4.292969 L 2.332031 0 Z M 1.082031 0 "/>
</symbol>
</g>
</defs>
<g id="surface541">
<rect x="0" y="0" width="720" height="360" style="fill:rgb(100%,100%,100%);fill-opacity:1;stroke:none;"/>
<path style=" stroke:none;fill-rule:nonzero;fill:rgb(65.098039%,80.784314%,89.019608%);fill-opacity:0.501961;" d="M 156.25 188.851563 L 156.25 63.851563 L 153.875 63.875 L 153.957031 68.183594 L 154.039063 72.496094 L 154.285156 85.421875 L 154.367188 89.734375 L 154.613281 102.660156 L 154.695313 106.972656 L 154.941406 119.898438 L 155.023438 124.210938 L 155.269531 137.136719 L 155.347656 141.449219 L 155.59375 154.375 L 155.675781 158.6875 L 155.921875 171.613281 L 156.003906 175.925781 Z M 156.25 188.851563 "/>
<path style=" stroke:none;fill-rule:nonzero;fill:rgb(12.156863%,47.058824%,70.588235%);fill-opacity:0.501961;" d="M 156.25 188.851563 L 156.003906 175.925781 L 155.921875 171.613281 L 155.675781 158.6875 L 155.59375 154.375 L 155.347656 141.449219 L 155.269531 137.136719 L 155.023438 124.210938 L 154.941406 119.898438 L 154.695313 106.972656 L 154.613281 102.660156 L 154.367188 89.734375 L 154.285156 85.421875 L 154.039063 72.496094 L 153.957031 68.183594 L 153.875 63.875 L 148.046875 64.121094 L 148.328125 68.421875 L 148.613281 72.722656 L 148.894531 77.023438 L 149.179688 81.328125 L 149.460938 85.628906 L 149.746094 89.929688 L 150.308594 98.53125 L 150.59375 102.832031 L 150.875 107.132813 L 151.160156 111.433594 L 151.722656 120.035156 L 152.007813 124.335938 L 152.289063 128.636719 L 152.574219 132.9375 L 152.855469 137.238281 L 153.140625 141.542969 L 153.703125 150.144531 L 153.988281 154.445313 L 154.269531 158.746094 L 154.554688 163.046875 L 154.835938 167.347656 L 155.121094 171.648438 L 155.683594 180.25 L 155.96875 184.550781 Z M 156.25 188.851563 "/>
<path style=" stroke:none;fill-rule:nonzero;fill:rgb(69.803922%,87.45098%,54.117647%);fill-opacity:0.501961;" d="M 156.25 188.851563 L 155.96875 184.550781 L 155.683594 180.25 L 155.121094 171.648438 L 154.835938 167.347656 L 154.554688 163.046875 L 154.269531 158.746094 L 153.988281 154.445313 L 153.703125 150.144531 L 153.140625 141.542969 L 152.855469 137.238281 L 152.574219 132.9375 L 152.289063 128.636719 L 152.007813 124.335938 L 151.722656 120.035156 L 151.160156 111.433594 L 150.875 107.132813 L 150.59375 102.832031 L 150.308594 98.53125 L 149.746094 89.929688 L 149.460938 85.628906 L 149.179688 81.328125 L 148.894531 77.023438 L 148.613281 72.722656 L 148.328125 68.421875 L 148.046875 64.121094 L 147.519531 64.15625 L 148.421875 77.058594 L 148.722656 81.355469 L 149.023438 85.65625 L 149.328125 89.957031 L 149.628906 94.257813 L 149.929688 98.554688 L 150.832031 111.457031 L 151.132813 115.753906 L 152.335938 132.957031 L 152.636719 137.253906 L 153.238281 145.855469 L 153.542969 150.15625 L 153.84375 154.453125 L 154.746094 167.355469 L 155.046875 171.652344 L 155.949219 184.554688 Z M 156.25 188.851563 "/>
<path style=" stroke:none;fill-rule:nonzero;fill:rgb(55.294118%,82.745098%,78.039216%);fill-opacity:0.501961;" d="M 156.25 188.851563 L 155.949219 184.554688 L 155.046875 171.652344 L 154.746094 167.355469 L 153.84375 154.453125 L 153.542969 150.15625 L 153.238281 145.855469 L 152.636719 137.253906 L 152.335938 132.957031 L 151.132813 115.753906 L 150.832031 111.457031 L 149.929688 98.554688 L 149.628906 94.257813 L 149.328125 89.957031 L 149.023438 85.65625 L 148.722656 81.355469 L 148.421875 77.058594 L 147.519531 64.15625 L 141.589844 64.714844 L 135.695313 65.554688 L 136.402344 69.804688 L 137.113281 74.058594 L 137.820313 78.308594 L 138.53125 82.5625 L 139.238281 86.8125 L 139.949219 91.0625 L 140.65625 95.316406 L 141.367188 99.566406 L 142.074219 103.820313 L 142.78125 108.070313 L 143.492188 112.324219 L 144.199219 116.574219 L 144.910156 120.824219 L 145.617188 125.078125 L 146.328125 129.328125 L 147.035156 133.582031 L 147.746094 137.832031 L 148.453125 142.085938 L 149.164063 146.335938 L 149.871094 150.589844 L 150.582031 154.839844 L 151.289063 159.089844 L 151.996094 163.34375 L 152.707031 167.59375 L 153.414063 171.847656 L 154.125 176.097656 L 154.832031 180.351563 L 155.542969 184.601563 Z M 156.25 188.851563 "/>
<path style=" stroke:none;fill-rule:nonzero;fill:rgb(20%,62.745098%,17.254902%);fill-opacity:0.501961;" d="M 156.25 188.851563 L 155.542969 184.601563 L 154.832031 180.351563 L 154.125 176.097656 L 153.414063 171.847656 L 152.707031 167.59375 L 151.996094 163.34375 L 151.289063 159.089844 L 150.582031 154.839844 L 149.871094 150.589844 L 149.164063 146.335938 L 148.453125 142.085938 L 147.746094 137.832031 L 147.035156 133.582031 L 146.328125 129.328125 L 145.617188 125.078125 L 144.910156 120.824219 L 144.199219 116.574219 L 143.492188 112.324219 L 142.78125 108.070313 L 142.074219 103.820313 L 141.367188 99.566406 L 140.65625 95.316406 L 139.949219 91.0625 L 139.238281 86.8125 L 138.53125 82.5625 L 137.820313 78.308594 L 137.113281 74.058594 L 136.402344 69.804688 L 135.695313 65.554688 L 131.519531 66.324219 L 127.371094 67.234375 L 123.257813 68.285156 L 119.179688 69.476563 L 115.144531 70.804688 L 111.160156 72.269531 L 107.226563 73.867188 L 103.347656 75.597656 L 99.53125 77.460938 L 95.78125 79.453125 L 92.097656 81.570313 L 88.492188 83.808594 L 84.964844 86.171875 L 81.515625 88.652344 L 78.15625 91.25 L 74.886719 93.960938 L 71.710938 96.777344 L 68.628906 99.703125 L 65.652344 102.730469 L 62.78125 105.855469 L 60.015625 109.082031 L 57.359375 112.394531 L 54.820313 115.796875 L 52.398438 119.285156 L 50.09375 122.855469 L 47.914063 126.5 L 45.859375 130.214844 L 43.929688 133.996094 L 42.132813 137.84375 L 40.464844 141.75 L 38.929688 145.710938 L 37.535156 149.722656 L 36.273438 153.777344 L 35.148438 157.871094 L 34.167969 162.003906 L 33.328125 166.164063 L 32.625 170.355469 L 32.070313 174.5625 L 31.65625 178.789063 L 31.386719 183.027344 L 31.261719 187.273438 L 31.277344 191.519531 L 31.441406 195.761719 L 31.75 200 L 32.199219 204.222656 L 32.792969 208.425781 L 33.527344 212.609375 L 34.40625 216.765625 L 35.425781 220.886719 L 36.582031 224.972656 L 37.878906 229.015625 L 39.3125 233.015625 L 40.878906 236.960938 L 42.578125 240.851563 L 44.410156 244.683594 L 46.371094 248.449219 L 48.460938 252.148438 L 50.671875 255.773438 L 53.007813 259.320313 L 55.460938 262.789063 L 58.027344 266.167969 L 60.710938 269.460938 L 63.503906 272.660156 L 66.40625 275.761719 L 69.410156 278.761719 L 72.511719 281.660156 L 75.714844 284.453125 L 79.007813 287.132813 L 82.390625 289.699219 L 85.859375 292.148438 L 89.410156 294.480469 L 93.035156 296.691406 L 96.734375 298.777344 L 100.503906 300.734375 L 104.335938 302.5625 L 108.226563 304.261719 L 112.175781 305.824219 L 116.175781 307.253906 L 120.21875 308.546875 L 124.304688 309.703125 L 128.429688 310.71875 L 132.585938 311.59375 L 136.769531 312.328125 L 140.972656 312.917969 L 145.195313 313.363281 L 149.433594 313.667969 L 153.675781 313.828125 L 157.921875 313.84375 L 162.167969 313.714844 L 166.40625 313.441406 L 170.632813 313.023438 L 174.839844 312.464844 L 179.027344 311.761719 L 183.191406 310.917969 L 187.320313 309.929688 L 191.417969 308.804688 L 195.472656 307.542969 L 199.480469 306.140625 L 203.4375 304.605469 L 207.34375 302.933594 L 211.1875 301.132813 L 214.972656 299.203125 L 218.6875 297.144531 L 222.328125 294.960938 L 225.894531 292.65625 L 229.378906 290.230469 L 232.78125 287.6875 L 236.09375 285.03125 L 239.316406 282.261719 L 242.441406 279.386719 L 245.464844 276.40625 L 248.390625 273.328125 L 251.203125 270.148438 L 253.910156 266.875 L 256.503906 263.511719 L 258.984375 260.066406 L 261.34375 256.535156 L 263.582031 252.925781 L 265.695313 249.242188 L 267.683594 245.488281 L 269.542969 241.671875 L 271.273438 237.792969 L 272.867188 233.859375 L 274.332031 229.871094 L 275.65625 225.835938 L 276.84375 221.757813 L 277.890625 217.644531 L 278.796875 213.496094 L 279.566406 209.316406 L 280.1875 205.117188 L 280.667969 200.898438 L 281.007813 196.664063 L 281.199219 192.421875 L 281.25 188.175781 L 281.15625 183.929688 L 280.914063 179.691406 L 280.53125 175.460938 L 280.003906 171.246094 L 279.335938 167.054688 L 278.523438 162.886719 L 277.570313 158.746094 L 276.480469 154.644531 L 275.246094 150.578125 L 273.878906 146.558594 L 272.375 142.589844 L 270.734375 138.671875 L 268.964844 134.808594 L 267.066406 131.011719 L 265.035156 127.28125 L 262.882813 123.621094 L 260.605469 120.039063 L 258.207031 116.53125 L 255.691406 113.113281 L 253.0625 109.777344 L 250.320313 106.535156 L 247.46875 103.386719 L 244.511719 100.335938 L 241.457031 97.390625 L 238.300781 94.550781 L 235.046875 91.816406 L 231.707031 89.195313 L 228.277344 86.691406 L 224.765625 84.300781 L 221.175781 82.035156 L 217.507813 79.890625 L 213.773438 77.875 L 209.96875 75.984375 L 206.105469 74.222656 L 202.183594 72.597656 L 198.207031 71.105469 L 194.183594 69.746094 L 190.117188 68.527344 L 186.007813 67.445313 L 181.867188 66.503906 L 177.695313 65.707031 L 176.21875 74.199219 L 175.476563 78.445313 L 173.261719 91.183594 L 172.519531 95.429688 L 171.78125 99.675781 L 171.042969 103.925781 L 170.300781 108.171875 L 168.824219 116.664063 L 168.082031 120.910156 L 166.605469 129.402344 L 165.863281 133.648438 L 164.386719 142.140625 L 163.644531 146.386719 L 162.90625 150.636719 L 162.167969 154.882813 L 161.425781 159.128906 L 159.949219 167.621094 L 159.207031 171.867188 L 156.992188 184.605469 Z M 156.25 188.851563 "/>
<path style=" stroke:none;fill-rule:nonzero;fill:rgb(98.431373%,60.392157%,60%);fill-opacity:0.501961;" d="M 156.25 188.851563 L 156.992188 184.605469 L 159.207031 171.867188 L 159.949219 167.621094 L 161.425781 159.128906 L 162.167969 154.882813 L 162.90625 150.636719 L 163.644531 146.386719 L 164.386719 142.140625 L 165.863281 133.648438 L 166.605469 129.402344 L 168.082031 120.910156 L 168.824219 116.664063 L 170.300781 108.171875 L 171.042969 103.925781 L 171.78125 99.675781 L 172.519531 95.429688 L 173.261719 91.183594 L 175.476563 78.445313 L 176.21875 74.199219 L 177.695313 65.707031 L 172.679688 64.9375 L 167.632813 64.371094 L 167.238281 68.664063 L 166.847656 72.957031 L 166.453125 77.25 L 166.0625 81.542969 L 165.667969 85.832031 L 165.277344 90.125 L 164.882813 94.417969 L 164.101563 103.003906 L 163.707031 107.296875 L 163.316406 111.589844 L 162.921875 115.882813 L 162.53125 120.171875 L 162.136719 124.464844 L 161.746094 128.757813 L 161.351563 133.050781 L 160.960938 137.34375 L 160.566406 141.636719 L 160.175781 145.929688 L 159.78125 150.222656 L 159.390625 154.511719 L 158.996094 158.804688 L 158.214844 167.390625 L 157.820313 171.683594 L 157.429688 175.976563 L 157.035156 180.269531 L 156.644531 184.5625 Z M 156.25 188.851563 "/>
<path style=" stroke:none;fill-rule:nonzero;fill:rgb(89.019608%,10.196078%,10.980392%);fill-opacity:0.501961;" d="M 156.25 188.851563 L 156.644531 184.5625 L 157.035156 180.269531 L 157.429688 175.976563 L 157.820313 171.683594 L 158.214844 167.390625 L 158.996094 158.804688 L 159.390625 154.511719 L 159.78125 150.222656 L 160.175781 145.929688 L 160.566406 141.636719 L 160.960938 137.34375 L 161.351563 133.050781 L 161.746094 128.757813 L 162.136719 124.464844 L 162.53125 120.171875 L 162.921875 115.882813 L 163.316406 111.589844 L 163.707031 107.296875 L 164.101563 103.003906 L 164.882813 94.417969 L 165.277344 90.125 L 165.667969 85.832031 L 166.0625 81.542969 L 166.453125 77.25 L 166.847656 72.957031 L 167.238281 68.664063 L 167.632813 64.371094 L 166.953125 64.3125 L 166.585938 68.605469 L 166.214844 72.902344 L 165.847656 77.195313 L 165.476563 81.488281 L 165.109375 85.785156 L 164.738281 90.078125 L 164.371094 94.375 L 164 98.667969 L 163.632813 102.960938 L 163.261719 107.257813 L 162.894531 111.550781 L 162.523438 115.847656 L 162.15625 120.140625 L 161.785156 124.433594 L 161.417969 128.730469 L 161.046875 133.023438 L 160.679688 137.320313 L 160.308594 141.613281 L 159.941406 145.90625 L 159.574219 150.203125 L 159.203125 154.496094 L 158.835938 158.792969 L 158.464844 163.085938 L 158.097656 167.378906 L 157.726563 171.675781 L 157.359375 175.96875 L 156.988281 180.265625 L 156.621094 184.558594 Z M 156.25 188.851563 "/>
<path style=" stroke:none;fill-rule:nonzero;fill:rgb(99.215686%,74.901961%,43.529412%);fill-opacity:0.501961;" d="M 156.25 188.851563 L 156.621094 184.558594 L 156.988281 180.265625 L 157.359375 175.96875 L 157.726563 171.675781 L 158.097656 167.378906 L 158.464844 163.085938 L 158.835938 158.792969 L 159.203125 154.496094 L 159.574219 150.203125 L 159.941406 145.90625 L 160.308594 141.613281 L 160.679688 137.320313 L 161.046875 133.023438 L 161.417969 128.730469 L 161.785156 124.433594 L 162.15625 120.140625 L 162.523438 115.847656 L 162.894531 111.550781 L 163.261719 107.257813 L 163.632813 102.960938 L 164 98.667969 L 164.371094 94.375 L 164.738281 90.078125 L 165.109375 85.785156 L 165.476563 81.488281 L 165.847656 77.195313 L 166.214844 72.902344 L 166.585938 68.605469 L 166.953125 64.3125 L 166.726563 64.292969 L 166.367188 68.585938 L 166.003906 72.882813 L 165.644531 77.179688 L 165.28125 81.472656 L 164.921875 85.769531 L 164.558594 90.0625 L 164.199219 94.359375 L 163.835938 98.652344 L 163.117188 107.246094 L 162.753906 111.539063 L 162.394531 115.835938 L 162.03125 120.128906 L 161.671875 124.425781 L 161.308594 128.71875 L 160.949219 133.015625 L 160.585938 137.3125 L 160.226563 141.605469 L 159.863281 145.902344 L 159.503906 150.195313 L 159.140625 154.492188 L 158.78125 158.785156 L 158.417969 163.082031 L 158.058594 167.378906 L 157.695313 171.671875 L 157.335938 175.96875 L 156.972656 180.261719 L 156.613281 184.558594 Z M 156.25 188.851563 "/>
<path style=" stroke:none;fill-rule:nonzero;fill:rgb(100%,49.803922%,0%);fill-opacity:0.501961;" d="M 156.25 188.851563 L 156.613281 184.558594 L 156.972656 180.261719 L 157.335938 175.96875 L 157.695313 171.671875 L 158.058594 167.378906 L 158.417969 163.082031 L 158.78125 158.785156 L 159.140625 154.492188 L 159.503906 150.195313 L 159.863281 145.902344 L 160.226563 141.605469 L 160.585938 137.3125 L 160.949219 133.015625 L 161.308594 128.71875 L 161.671875 124.425781 L 162.03125 120.128906 L 162.394531 115.835938 L 162.753906 111.539063 L 163.117188 107.246094 L 163.835938 98.652344 L 164.199219 94.359375 L 164.558594 90.0625 L 164.921875 85.769531 L 165.28125 81.472656 L 165.644531 77.179688 L 166.003906 72.882813 L 166.367188 68.585938 L 166.726563 64.292969 L 166.539063 64.277344 L 166.183594 68.574219 L 165.832031 72.867188 L 165.121094 81.460938 L 164.765625 85.753906 L 164.054688 94.347656 L 163.703125 98.640625 L 162.636719 111.53125 L 162.28125 115.824219 L 161.925781 120.121094 L 161.574219 124.417969 L 161.21875 128.710938 L 160.152344 141.601563 L 159.800781 145.894531 L 159.089844 154.488281 L 158.734375 158.78125 L 158.023438 167.375 L 157.671875 171.671875 L 157.316406 175.964844 L 156.605469 184.558594 Z M 156.25 188.851563 "/>
<path style=" stroke:none;fill-rule:nonzero;fill:rgb(50.196078%,50.196078%,50.196078%);fill-opacity:0.501961;" d="M 156.25 188.851563 L 156.605469 184.558594 L 157.316406 175.964844 L 157.671875 171.671875 L 158.023438 167.375 L 158.734375 158.78125 L 159.089844 154.488281 L 159.800781 145.894531 L 160.152344 141.601563 L 161.21875 128.710938 L 161.574219 124.417969 L 161.925781 120.121094 L 162.28125 115.824219 L 162.636719 111.53125 L 163.703125 98.640625 L 164.054688 94.347656 L 164.765625 85.753906 L 165.121094 81.460938 L 165.832031 72.867188 L 166.183594 68.574219 L 166.539063 64.277344 L 162.144531 63.992188 L 161.535156 76.90625 L 161.332031 81.214844 L 160.722656 94.128906 L 160.519531 98.4375 L 159.910156 111.351563 L 159.707031 115.660156 L 158.894531 132.878906 L 158.691406 137.1875 L 158.082031 150.101563 L 157.878906 154.410156 L 157.671875 158.714844 L 157.0625 171.628906 L 156.859375 175.9375 Z M 156.25 188.851563 "/>
<path style=" stroke:none;fill-rule:nonzero;fill:rgb(79.215686%,69.803922%,83.921569%);fill-opacity:0.501961;" d="M 156.25 188.851563 L 156.859375 175.9375 L 157.0625 171.628906 L 157.671875 158.714844 L 157.878906 154.410156 L 158.082031 150.101563 L 158.691406 137.1875 L 158.894531 132.878906 L 159.707031 115.660156 L 159.910156 111.351563 L 160.519531 98.4375 L 160.722656 94.128906 L 161.332031 81.214844 L 161.535156 76.90625 L 162.144531 63.992188 L 160.367188 63.921875 L 160.226563 68.226563 L 160.082031 72.535156 L 159.800781 81.152344 L 159.65625 85.460938 L 159.375 94.078125 L 159.230469 98.382813 L 158.949219 107 L 158.804688 111.308594 L 158.523438 119.925781 L 158.378906 124.234375 L 158.238281 128.539063 L 158.097656 132.847656 L 157.953125 137.15625 L 157.671875 145.773438 L 157.527344 150.082031 L 157.386719 154.390625 L 157.246094 158.695313 L 157.101563 163.003906 L 156.820313 171.621094 L 156.675781 175.929688 L 156.394531 184.546875 Z M 156.25 188.851563 "/>
<path style=" stroke:none;fill-rule:nonzero;fill:rgb(41.568627%,23.921569%,60.392157%);fill-opacity:0.501961;" d="M 156.25 188.851563 L 156.394531 184.546875 L 156.675781 175.929688 L 156.820313 171.621094 L 157.101563 163.003906 L 157.246094 158.695313 L 157.386719 154.390625 L 157.527344 150.082031 L 157.671875 145.773438 L 157.953125 137.15625 L 158.097656 132.847656 L 158.238281 128.539063 L 158.378906 124.234375 L 158.523438 119.925781 L 158.804688 111.308594 L 158.949219 107 L 159.230469 98.382813 L 159.375 94.078125 L 159.65625 85.460938 L 159.800781 81.152344 L 160.082031 72.535156 L 160.226563 68.226563 L 160.367188 63.921875 L 156.25 63.851563 Z M 156.25 188.851563 "/>
<g style="fill:rgb(0%,0%,0%);fill-opacity:1;">
  <use xlink:href="#glyph0-1" x="318.171875" y="86.371094"/>
  <use xlink:href="#glyph0-2" x="321.228027" y="86.371094"/>
  <use xlink:href="#glyph0-3" x="326.728027" y="86.371094"/>
  <use xlink:href="#glyph0-4" x="332.845703" y="86.371094"/>
</g>
<path style=" stroke:none;fill-rule:nonzero;fill:rgb(65.098039%,80.784314%,89.019608%);fill-opacity:0.501961;" d="M 318.878906 109.578125 L 334.742188 109.578125 L 334.742188 93.714844 L 318.878906 93.714844 Z M 318.878906 109.578125 "/>
<path style=" stroke:none;fill-rule:nonzero;fill:rgb(12.156863%,47.058824%,70.588235%);fill-opacity:0.501961;" d="M 318.878906 126.859375 L 334.742188 126.859375 L 334.742188 110.996094 L 318.878906 110.996094 Z M 318.878906 126.859375 "/>
<path style=" stroke:none;fill-rule:nonzero;fill:rgb(69.803922%,87.45098%,54.117647%);fill-opacity:0.501961;" d="M 318.878906 144.136719 L 334.742188 144.136719 L 334.742188 128.273438 L 318.878906 128.273438 Z M 318.878906 144.136719 "/>
<path style=" stroke:none;fill-rule:nonzero;fill:rgb(55.294118%,82.745098%,78.039216%);fill-opacity:0.501961;" d="M 318.878906 161.417969 L 334.742188 161.417969 L 334.742188 145.554688 L 318.878906 145.554688 Z M 318.878906 161.417969 "/>
<path style=" stroke:none;fill-rule:nonzero;fill:rgb(20%,62.745098%,17.254902%);fill-opacity:0.501961;" d="M 318.878906 178.699219 L 334.742188 178.699219 L 334.742188 162.835938 L 318.878906 162.835938 Z M 318.878906 178.699219 "/>
<path style=" stroke:none;fill-rule:nonzero;fill:rgb(98.431373%,60.392157%,60%);fill-opacity:0.501961;" d="M 318.878906 195.980469 L 334.742188 195.980469 L 334.742188 180.117188 L 318.878906 180.117188 Z M 318.878906 195.980469 "/>
<path style=" stroke:none;fill-rule:nonzero;fill:rgb(89.019608%,10.196078%,10.980392%);fill-opacity:0.501961;" d="M 318.878906 213.257813 L 334.742188 213.257813 L 334.742188 197.394531 L 318.878906 197.394531 Z M 318.878906 213.257813 "/>
<path style=" stroke:none;fill-rule:nonzero;fill:rgb(99.215686%,74.901961%,43.529412%);fill-opacity:0.501961;" d="M 318.878906 230.539063 L 334.742188 230.539063 L 334.742188 214.675781 L 318.878906 214.675781 Z M 318.878906 230.539063 "/>
<path style=" stroke:none;fill-rule:nonzero;fill:rgb(100%,49.803922%,0%);fill-opacity:0.501961;" d="M 318.878906 247.820313 L 334.742188 247.820313 L 334.742188 231.957031 L 318.878906 231.957031 Z M 318.878906 247.820313 "/>
<path style=" stroke:none;fill-rule:nonzero;fill:rgb(50.196078%,50.196078%,50.196078%);fill-opacity:0.501961;" d="M 318.878906 265.097656 L 334.742188 265.097656 L 334.742188 249.234375 L 318.878906 249.234375 Z M 318.878906 265.097656 "/>
<path style=" stroke:none;fill-rule:nonzero;fill:rgb(79.215686%,69.803922%,83.921569%);fill-opacity:0.501961;" d="M 318.878906 282.378906 L 334.742188 282.378906 L 334.742188 266.515625 L 318.878906 266.515625 Z M 318.878906 282.378906 "/>
<path style=" stroke:none;fill-rule:nonzero;fill:rgb(41.568627%,23.921569%,60.392157%);fill-opacity:0.501961;" d="M 318.878906 299.660156 L 334.742188 299.660156 L 334.742188 283.796875 L 318.878906 283.796875 Z M 318.878906 299.660156 "/>
<g style="fill:rgb(0%,0%,0%);fill-opacity:1;">
  <use xlink:href="#glyph1-1" x="340.929688" y="104.796875"/>
  <use xlink:href="#glyph1-2" x="347.284766" y="104.796875"/>
  <use xlink:href="#glyph1-3" x="353.154297" y="104.796875"/>
</g>
<g style="fill:rgb(0%,0%,0%);fill-opacity:1;">
  <use xlink:href="#glyph1-1" x="340.929688" y="122.078125"/>
  <use xlink:href="#glyph1-4" x="347.284766" y="122.078125"/>
</g>
<g style="fill:rgb(0%,0%,0%);fill-opacity:1;">
  <use xlink:href="#glyph1-1" x="340.929688" y="139.355469"/>
  <use xlink:href="#glyph1-5" x="347.284766" y="139.355469"/>
  <use xlink:href="#glyph1-6" x="352.178906" y="139.355469"/>
</g>
<g style="fill:rgb(0%,0%,0%);fill-opacity:1;">
  <use xlink:href="#glyph1-7" x="340.929688" y="156.636719"/>
  <use xlink:href="#glyph1-2" x="347.284766" y="156.636719"/>
  <use xlink:href="#glyph1-8" x="353.154297" y="156.636719"/>
</g>
<g style="fill:rgb(0%,0%,0%);fill-opacity:1;">
  <use xlink:href="#glyph1-9" x="340.929688" y="173.917969"/>
  <use xlink:href="#glyph1-2" x="346.305078" y="173.917969"/>
</g>
<g style="fill:rgb(0%,0%,0%);fill-opacity:1;">
  <use xlink:href="#glyph1-10" x="340.929688" y="191.195313"/>
  <use xlink:href="#glyph1-1" x="346.799219" y="191.195313"/>
</g>
<g style="fill:rgb(0%,0%,0%);fill-opacity:1;">
  <use xlink:href="#glyph1-10" x="340.929688" y="208.476563"/>
  <use xlink:href="#glyph1-4" x="346.799219" y="208.476563"/>
</g>
<g style="fill:rgb(0%,0%,0%);fill-opacity:1;">
  <use xlink:href="#glyph1-10" x="340.929688" y="225.757813"/>
  <use xlink:href="#glyph1-8" x="346.799219" y="225.757813"/>
</g>
<g style="fill:rgb(0%,0%,0%);fill-opacity:1;">
  <use xlink:href="#glyph1-10" x="340.929688" y="243.035156"/>
  <use xlink:href="#glyph1-11" x="346.799219" y="243.035156"/>
</g>
<g style="fill:rgb(0%,0%,0%);fill-opacity:1;">
  <use xlink:href="#glyph1-10" x="340.929688" y="260.316406"/>
  <use xlink:href="#glyph1-12" x="346.799219" y="260.316406"/>
</g>
<g style="fill:rgb(0%,0%,0%);fill-opacity:1;">
  <use xlink:href="#glyph1-12" x="340.929688" y="277.597656"/>
  <use xlink:href="#glyph1-13" x="346.799219" y="277.597656"/>
</g>
<g style="fill:rgb(0%,0%,0%);fill-opacity:1;">
  <use xlink:href="#glyph1-14" x="340.929688" y="294.875"/>
  <use xlink:href="#glyph1-2" x="346.305078" y="294.875"/>
  <use xlink:href="#glyph1-8" x="352.174609" y="294.875"/>
</g>
<g style="fill:rgb(0%,0%,0%);fill-opacity:1;">
  <use xlink:href="#glyph2-1" x="0" y="29.824219"/>
  <use xlink:href="#glyph2-2" x="8.804297" y="29.824219"/>
  <use xlink:href="#glyph2-3" x="16.145508" y="29.824219"/>
  <use xlink:href="#glyph2-4" x="27.141211" y="29.824219"/>
  <use xlink:href="#glyph2-5" x="34.482422" y="29.824219"/>
  <use xlink:href="#glyph2-6" x="37.415039" y="29.824219"/>
  <use xlink:href="#glyph2-7" x="44.75625" y="29.824219"/>
  <use xlink:href="#glyph2-8" x="52.819336" y="29.824219"/>
  <use xlink:href="#glyph2-4" x="59.419336" y="29.824219"/>
  <use xlink:href="#glyph2-6" x="66.760547" y="29.824219"/>
  <use xlink:href="#glyph2-9" x="74.101758" y="29.824219"/>
  <use xlink:href="#glyph2-10" x="81.442969" y="29.824219"/>
  <use xlink:href="#glyph2-6" x="90.975586" y="29.824219"/>
  <use xlink:href="#glyph2-11" x="98.316797" y="29.824219"/>
  <use xlink:href="#glyph2-12" x="105.658008" y="29.824219"/>
  <use xlink:href="#glyph2-13" x="110.053711" y="29.824219"/>
  <use xlink:href="#glyph2-14" x="117.394922" y="29.824219"/>
  <use xlink:href="#glyph2-9" x="124.736133" y="29.824219"/>
  <use xlink:href="#glyph2-1" x="132.077344" y="29.824219"/>
  <use xlink:href="#glyph2-5" x="140.881641" y="29.824219"/>
  <use xlink:href="#glyph2-6" x="143.814258" y="29.824219"/>
  <use xlink:href="#glyph2-6" x="151.155469" y="29.824219"/>
  <use xlink:href="#glyph2-4" x="158.49668" y="29.824219"/>
  <use xlink:href="#glyph2-15" x="165.837891" y="29.824219"/>
  <use xlink:href="#glyph2-13" x="175.370508" y="29.824219"/>
  <use xlink:href="#glyph2-14" x="182.711719" y="29.824219"/>
  <use xlink:href="#glyph2-16" x="190.05293" y="29.824219"/>
  <use xlink:href="#glyph2-17" x="197.394141" y="29.824219"/>
  <use xlink:href="#glyph2-18" x="200.326758" y="29.824219"/>
  <use xlink:href="#glyph2-17" x="203.994141" y="29.824219"/>
  <use xlink:href="#glyph2-13" x="206.926758" y="29.824219"/>
  <use xlink:href="#glyph2-14" x="214.267969" y="29.824219"/>
  <use xlink:href="#glyph2-9" x="221.60918" y="29.824219"/>
  <use xlink:href="#glyph2-19" x="228.950391" y="29.824219"/>
  <use xlink:href="#glyph2-13" x="239.217773" y="29.824219"/>
  <use xlink:href="#glyph2-17" x="246.558984" y="29.824219"/>
  <use xlink:href="#glyph2-14" x="249.491602" y="29.824219"/>
  <use xlink:href="#glyph2-20" x="256.832812" y="29.824219"/>
  <use xlink:href="#glyph2-18" x="264.174023" y="29.824219"/>
  <use xlink:href="#glyph2-13" x="267.841406" y="29.824219"/>
  <use xlink:href="#glyph2-21" x="275.182617" y="29.824219"/>
  <use xlink:href="#glyph2-5" x="281.782617" y="29.824219"/>
  <use xlink:href="#glyph2-6" x="284.715234" y="29.824219"/>
  <use xlink:href="#glyph2-6" x="292.056445" y="29.824219"/>
  <use xlink:href="#glyph2-4" x="299.397656" y="29.824219"/>
  <use xlink:href="#glyph2-9" x="306.738867" y="29.824219"/>
  <use xlink:href="#glyph2-1" x="314.080078" y="29.824219"/>
  <use xlink:href="#glyph2-6" x="322.884375" y="29.824219"/>
  <use xlink:href="#glyph2-22" x="330.225586" y="29.824219"/>
  <use xlink:href="#glyph2-9" x="336.825586" y="29.824219"/>
  <use xlink:href="#glyph2-3" x="344.166797" y="29.824219"/>
  <use xlink:href="#glyph2-2" x="355.1625" y="29.824219"/>
  <use xlink:href="#glyph2-5" x="362.503711" y="29.824219"/>
  <use xlink:href="#glyph2-6" x="365.436328" y="29.824219"/>
</g>
<path style=" stroke:none;fill-rule:nonzero;fill:rgb(65.098039%,80.784314%,89.019608%);fill-opacity:0.501961;" d="M 516.25 188.851563 L 516.25 63.851563 L 515.425781 63.855469 L 515.453125 68.164063 L 515.484375 72.476563 L 515.511719 76.785156 L 515.539063 81.097656 L 515.570313 85.40625 L 515.597656 89.714844 L 515.625 94.027344 L 515.652344 98.335938 L 515.683594 102.648438 L 515.710938 106.957031 L 515.738281 111.269531 L 515.765625 115.578125 L 515.796875 119.890625 L 515.851563 128.507813 L 515.882813 132.820313 L 515.910156 137.128906 L 515.9375 141.441406 L 515.964844 145.75 L 515.996094 150.0625 L 516.050781 158.679688 L 516.082031 162.992188 L 516.109375 167.300781 L 516.136719 171.613281 L 516.164063 175.921875 L 516.195313 180.234375 Z M 516.25 188.851563 "/>
<path style=" stroke:none;fill-rule:nonzero;fill:rgb(12.156863%,47.058824%,70.588235%);fill-opacity:0.501961;" d="M 516.25 188.851563 L 516.195313 180.234375 L 516.164063 175.921875 L 516.136719 171.613281 L 516.109375 167.300781 L 516.082031 162.992188 L 516.050781 158.679688 L 515.996094 150.0625 L 515.964844 145.75 L 515.9375 141.441406 L 515.910156 137.128906 L 515.882813 132.820313 L 515.851563 128.507813 L 515.796875 119.890625 L 515.765625 115.578125 L 515.738281 111.269531 L 515.710938 106.957031 L 515.683594 102.648438 L 515.652344 98.335938 L 515.625 94.027344 L 515.597656 89.714844 L 515.570313 85.40625 L 515.539063 81.097656 L 515.511719 76.785156 L 515.484375 72.476563 L 515.453125 68.164063 L 515.425781 63.855469 L 515.191406 63.855469 L 515.226563 68.167969 L 515.261719 72.476563 L 515.300781 76.789063 L 515.335938 81.097656 L 515.375 85.40625 L 515.410156 89.71875 L 515.445313 94.027344 L 515.484375 98.339844 L 515.519531 102.648438 L 515.554688 106.960938 L 515.59375 111.269531 L 515.628906 115.578125 L 515.664063 119.890625 L 515.703125 124.199219 L 515.738281 128.511719 L 515.777344 132.820313 L 515.8125 137.128906 L 515.847656 141.441406 L 515.886719 145.75 L 515.921875 150.0625 L 515.957031 154.371094 L 515.996094 158.679688 L 516.03125 162.992188 L 516.066406 167.300781 L 516.105469 171.613281 L 516.140625 175.921875 L 516.175781 180.234375 L 516.214844 184.542969 Z M 516.25 188.851563 "/>
<path style=" stroke:none;fill-rule:nonzero;fill:rgb(69.803922%,87.45098%,54.117647%);fill-opacity:0.501961;" d="M 516.25 188.851563 L 516.214844 184.542969 L 516.175781 180.234375 L 516.140625 175.921875 L 516.105469 171.613281 L 516.066406 167.300781 L 516.03125 162.992188 L 515.996094 158.679688 L 515.957031 154.371094 L 515.921875 150.0625 L 515.886719 145.75 L 515.847656 141.441406 L 515.8125 137.128906 L 515.777344 132.820313 L 515.738281 128.511719 L 515.703125 124.199219 L 515.664063 119.890625 L 515.628906 115.578125 L 515.59375 111.269531 L 515.554688 106.960938 L 515.519531 102.648438 L 515.484375 98.339844 L 515.445313 94.027344 L 515.410156 89.71875 L 515.375 85.40625 L 515.335938 81.097656 L 515.300781 76.789063 L 515.261719 72.476563 L 515.226563 68.167969 L 515.191406 63.855469 L 515.113281 63.859375 L 515.191406 72.476563 L 515.230469 76.789063 L 515.269531 81.097656 L 515.308594 85.410156 L 515.386719 94.027344 L 515.425781 98.339844 L 515.464844 102.648438 L 515.507813 106.960938 L 515.585938 115.578125 L 515.625 119.890625 L 515.664063 124.199219 L 515.703125 128.511719 L 515.78125 137.128906 L 515.820313 141.441406 L 515.859375 145.75 L 515.898438 150.0625 L 515.9375 154.371094 L 515.976563 158.683594 L 516.054688 167.300781 L 516.09375 171.613281 L 516.132813 175.921875 L 516.171875 180.234375 Z M 516.25 188.851563 "/>
<path style=" stroke:none;fill-rule:nonzero;fill:rgb(55.294118%,82.745098%,78.039216%);fill-opacity:0.501961;" d="M 516.25 188.851563 L 516.171875 180.234375 L 516.132813 175.921875 L 516.09375 171.613281 L 516.054688 167.300781 L 515.976563 158.683594 L 515.9375 154.371094 L 515.898438 150.0625 L 515.859375 145.75 L 515.820313 141.441406 L 515.78125 137.128906 L 515.703125 128.511719 L 515.664063 124.199219 L 515.625 119.890625 L 515.585938 115.578125 L 515.507813 106.960938 L 515.464844 102.648438 L 515.425781 98.339844 L 515.386719 94.027344 L 515.308594 85.410156 L 515.269531 81.097656 L 515.230469 76.789063 L 515.191406 72.476563 L 515.113281 63.859375 L 509.914063 64.011719 L 504.726563 64.382813 L 499.558594 64.972656 L 500.132813 69.242188 L 500.710938 73.515625 L 501.285156 77.789063 L 501.859375 82.058594 L 502.4375 86.332031 L 503.011719 90.601563 L 503.589844 94.875 L 504.164063 99.144531 L 504.738281 103.417969 L 505.316406 107.691406 L 505.890625 111.960938 L 506.464844 116.234375 L 507.042969 120.503906 L 507.617188 124.777344 L 508.191406 129.046875 L 508.769531 133.320313 L 509.34375 137.59375 L 509.917969 141.863281 L 510.496094 146.136719 L 511.070313 150.40625 L 511.644531 154.679688 L 512.222656 158.949219 L 513.371094 167.496094 L 513.949219 171.765625 L 514.523438 176.039063 L 515.101563 180.308594 L 515.675781 184.582031 Z M 516.25 188.851563 "/>
<path style=" stroke:none;fill-rule:nonzero;fill:rgb(20%,62.745098%,17.254902%);fill-opacity:0.501961;" d="M 516.25 188.851563 L 515.675781 184.582031 L 515.101563 180.308594 L 514.523438 176.039063 L 513.949219 171.765625 L 513.371094 167.496094 L 512.222656 158.949219 L 511.644531 154.679688 L 511.070313 150.40625 L 510.496094 146.136719 L 509.917969 141.863281 L 509.34375 137.59375 L 508.769531 133.320313 L 508.191406 129.046875 L 507.617188 124.777344 L 507.042969 120.503906 L 506.464844 116.234375 L 505.890625 111.960938 L 505.316406 107.691406 L 504.738281 103.417969 L 504.164063 99.144531 L 503.589844 94.875 L 503.011719 90.601563 L 502.4375 86.332031 L 501.859375 82.058594 L 501.285156 77.789063 L 500.710938 73.515625 L 500.132813 69.242188 L 499.558594 64.972656 L 495.375 65.609375 L 491.214844 66.386719 L 487.082031 67.304688 L 482.984375 68.359375 L 478.925781 69.554688 L 474.910156 70.886719 L 470.941406 72.355469 L 467.023438 73.953125 L 463.160156 75.6875 L 459.359375 77.546875 L 455.625 79.539063 L 451.960938 81.652344 L 448.367188 83.890625 L 444.851563 86.25 L 441.421875 88.726563 L 438.074219 91.316406 L 434.816406 94.015625 L 431.652344 96.828125 L 428.585938 99.746094 L 425.621094 102.761719 L 422.757813 105.878906 L 420.003906 109.09375 L 417.359375 112.398438 L 414.828125 115.789063 L 412.414063 119.261719 L 410.117188 122.816406 L 407.941406 126.449219 L 405.890625 130.152344 L 403.96875 133.921875 L 402.171875 137.753906 L 400.507813 141.644531 L 398.976563 145.589844 L 397.578125 149.582031 L 396.316406 153.621094 L 395.195313 157.703125 L 394.207031 161.820313 L 393.363281 165.964844 L 392.660156 170.136719 L 392.097656 174.332031 L 391.675781 178.542969 L 391.398438 182.765625 L 391.265625 186.996094 L 391.273438 191.226563 L 391.425781 195.457031 L 391.71875 199.679688 L 392.15625 203.886719 L 392.738281 208.082031 L 393.460938 212.25 L 394.320313 216.394531 L 395.324219 220.503906 L 396.464844 224.582031 L 397.742188 228.613281 L 399.15625 232.605469 L 400.703125 236.542969 L 402.386719 240.425781 L 404.195313 244.25 L 406.136719 248.011719 L 408.203125 251.707031 L 410.390625 255.328125 L 412.703125 258.875 L 415.132813 262.339844 L 417.675781 265.71875 L 420.335938 269.011719 L 423.105469 272.210938 L 425.980469 275.316406 L 428.957031 278.324219 L 432.035156 281.226563 L 435.210938 284.027344 L 438.480469 286.714844 L 441.835938 289.292969 L 445.28125 291.753906 L 448.804688 294.097656 L 452.40625 296.320313 L 456.078125 298.417969 L 459.824219 300.390625 L 463.628906 302.238281 L 467.5 303.953125 L 471.421875 305.539063 L 475.398438 306.988281 L 479.421875 308.304688 L 483.484375 309.484375 L 487.589844 310.523438 L 491.722656 311.421875 L 495.886719 312.183594 L 500.074219 312.800781 L 504.277344 313.277344 L 508.496094 313.613281 L 512.722656 313.804688 L 516.957031 313.851563 L 521.1875 313.757813 L 525.414063 313.519531 L 529.628906 313.136719 L 533.828125 312.613281 L 538.003906 311.945313 L 542.160156 311.140625 L 546.285156 310.191406 L 550.375 309.105469 L 554.425781 307.882813 L 558.433594 306.519531 L 562.390625 305.027344 L 566.296875 303.398438 L 570.148438 301.636719 L 573.933594 299.75 L 577.65625 297.730469 L 581.304688 295.589844 L 584.882813 293.328125 L 588.378906 290.945313 L 591.792969 288.445313 L 595.121094 285.832031 L 598.359375 283.105469 L 601.503906 280.273438 L 604.546875 277.332031 L 607.492188 274.292969 L 610.332031 271.15625 L 613.066406 267.925781 L 615.6875 264.601563 L 618.191406 261.191406 L 620.582031 257.699219 L 622.855469 254.128906 L 625.003906 250.484375 L 627.027344 246.765625 L 628.921875 242.984375 L 630.691406 239.136719 L 632.328125 235.234375 L 633.832031 231.28125 L 635.199219 227.273438 L 636.433594 223.226563 L 637.527344 219.140625 L 638.484375 215.015625 L 639.296875 210.863281 L 639.972656 206.6875 L 640.503906 202.488281 L 640.894531 198.273438 L 641.144531 194.046875 L 641.246094 189.816406 L 641.207031 185.585938 L 641.027344 181.359375 L 640.703125 177.136719 L 640.234375 172.933594 L 639.625 168.746094 L 638.871094 164.578125 L 637.980469 160.441406 L 636.949219 156.339844 L 635.777344 152.273438 L 634.472656 148.246094 L 633.03125 144.269531 L 631.453125 140.339844 L 629.746094 136.46875 L 627.90625 132.65625 L 625.941406 128.910156 L 623.847656 125.230469 L 621.632813 121.625 L 619.296875 118.097656 L 616.84375 114.648438 L 614.273438 111.285156 L 611.589844 108.011719 L 608.800781 104.832031 L 605.902344 101.746094 L 602.902344 98.761719 L 599.804688 95.878906 L 596.609375 93.105469 L 593.320313 90.4375 L 589.945313 87.886719 L 586.484375 85.449219 L 582.945313 83.132813 L 579.328125 80.933594 L 575.640625 78.859375 L 571.882813 76.914063 L 568.0625 75.09375 L 564.179688 73.40625 L 560.246094 71.851563 L 556.257813 70.429688 L 552.226563 69.140625 L 548.152344 67.992188 L 544.042969 66.980469 L 539.902344 66.109375 L 539.085938 70.34375 L 538.273438 74.574219 L 537.457031 78.808594 L 536.640625 83.039063 L 535.824219 87.273438 L 535.007813 91.503906 L 534.195313 95.738281 L 533.378906 99.96875 L 531.746094 108.4375 L 530.929688 112.667969 L 530.117188 116.902344 L 529.300781 121.132813 L 528.484375 125.367188 L 527.667969 129.597656 L 526.855469 133.832031 L 526.039063 138.0625 L 525.222656 142.296875 L 524.40625 146.527344 L 523.589844 150.761719 L 522.777344 154.992188 L 521.960938 159.226563 L 521.144531 163.457031 L 520.328125 167.691406 L 519.511719 171.921875 L 518.699219 176.15625 L 517.882813 180.386719 L 517.066406 184.621094 Z M 516.25 188.851563 "/>
<path style=" stroke:none;fill-rule:nonzero;fill:rgb(98.431373%,60.392157%,60%);fill-opacity:0.501961;" d="M 516.25 188.851563 L 517.066406 184.621094 L 517.882813 180.386719 L 518.699219 176.15625 L 519.511719 171.921875 L 520.328125 167.691406 L 521.144531 163.457031 L 521.960938 159.226563 L 522.777344 154.992188 L 523.589844 150.761719 L 524.40625 146.527344 L 525.222656 142.296875 L 526.039063 138.0625 L 526.855469 133.832031 L 527.667969 129.597656 L 528.484375 125.367188 L 529.300781 121.132813 L 530.117188 116.902344 L 530.929688 112.667969 L 531.746094 108.4375 L 533.378906 99.96875 L 534.195313 95.738281 L 535.007813 91.503906 L 535.824219 87.273438 L 536.640625 83.039063 L 537.457031 78.808594 L 538.273438 74.574219 L 539.085938 70.34375 L 539.902344 66.109375 L 535.496094 65.34375 L 531.066406 64.734375 L 526.617188 64.28125 L 522.15625 63.992188 L 521.75 72.601563 L 521.546875 76.910156 L 521.339844 81.214844 L 520.933594 89.824219 L 520.730469 94.132813 L 519.917969 111.351563 L 519.710938 115.660156 L 519.101563 128.574219 L 518.898438 132.882813 L 518.492188 141.492188 L 518.285156 145.796875 L 518.082031 150.101563 L 517.878906 154.410156 L 517.269531 167.324219 L 517.066406 171.632813 L 516.863281 175.9375 L 516.65625 180.242188 Z M 516.25 188.851563 "/>
<path style=" stroke:none;fill-rule:nonzero;fill:rgb(89.019608%,10.196078%,10.980392%);fill-opacity:0.501961;" d="M 516.25 188.851563 L 516.65625 180.242188 L 516.863281 175.9375 L 517.066406 171.632813 L 517.269531 167.324219 L 517.878906 154.410156 L 518.082031 150.101563 L 518.285156 145.796875 L 518.492188 141.492188 L 518.898438 132.882813 L 519.101563 128.574219 L 519.710938 115.660156 L 519.917969 111.351563 L 520.730469 94.132813 L 520.933594 89.824219 L 521.339844 81.214844 L 521.546875 76.910156 L 521.75 72.601563 L 522.15625 63.992188 L 520.332031 63.917969 L 519.628906 85.460938 L 519.488281 89.765625 L 518.925781 107 L 518.78125 111.308594 L 518.5 119.925781 L 518.359375 124.230469 L 517.515625 150.082031 L 517.375 154.386719 L 516.390625 184.546875 Z M 516.25 188.851563 "/>
<path style=" stroke:none;fill-rule:nonzero;fill:rgb(99.215686%,74.901961%,43.529412%);fill-opacity:0.501961;" d="M 516.25 188.851563 L 516.390625 184.546875 L 517.375 154.386719 L 517.515625 150.082031 L 518.359375 124.230469 L 518.5 119.925781 L 518.78125 111.308594 L 518.925781 107 L 519.488281 89.765625 L 519.628906 85.460938 L 520.332031 63.917969 L 520.265625 63.917969 L 520.128906 68.226563 L 519.988281 72.535156 L 519.851563 76.839844 L 519.710938 81.148438 L 519.574219 85.457031 L 519.433594 89.765625 L 519.160156 98.382813 L 519.019531 102.691406 L 518.882813 107 L 518.742188 111.304688 L 518.605469 115.613281 L 518.464844 119.921875 L 518.328125 124.230469 L 518.1875 128.539063 L 517.914063 137.15625 L 517.773438 141.464844 L 517.636719 145.773438 L 517.496094 150.078125 L 517.359375 154.386719 L 517.21875 158.695313 L 517.082031 163.003906 L 516.941406 167.3125 L 516.667969 175.929688 L 516.527344 180.238281 L 516.390625 184.546875 Z M 516.25 188.851563 "/>
<path style=" stroke:none;fill-rule:nonzero;fill:rgb(100%,49.803922%,0%);fill-opacity:0.501961;" d="M 516.25 188.851563 L 516.390625 184.546875 L 516.527344 180.238281 L 516.667969 175.929688 L 516.941406 167.3125 L 517.082031 163.003906 L 517.21875 158.695313 L 517.359375 154.386719 L 517.496094 150.078125 L 517.636719 145.773438 L 517.773438 141.464844 L 517.914063 137.15625 L 518.1875 128.539063 L 518.328125 124.230469 L 518.464844 119.921875 L 518.605469 115.613281 L 518.742188 111.304688 L 518.882813 107 L 519.019531 102.691406 L 519.160156 98.382813 L 519.433594 89.765625 L 519.574219 85.457031 L 519.710938 81.148438 L 519.851563 76.839844 L 519.988281 72.535156 L 520.128906 68.226563 L 520.265625 63.917969 L 520.167969 63.914063 L 520.035156 68.222656 L 519.898438 72.53125 L 519.765625 76.839844 L 519.492188 85.457031 L 519.359375 89.761719 L 519.222656 94.070313 L 519.089844 98.378906 L 518.816406 106.996094 L 518.683594 111.304688 L 518.546875 115.613281 L 518.414063 119.921875 L 518.140625 128.539063 L 518.007813 132.847656 L 517.871094 137.152344 L 517.738281 141.460938 L 517.601563 145.769531 L 517.46875 150.078125 L 517.195313 158.695313 L 517.0625 163.003906 L 516.925781 167.3125 L 516.792969 171.621094 L 516.519531 180.238281 L 516.386719 184.542969 Z M 516.25 188.851563 "/>
<path style=" stroke:none;fill-rule:nonzero;fill:rgb(50.196078%,50.196078%,50.196078%);fill-opacity:0.501961;" d="M 516.25 188.851563 L 516.386719 184.542969 L 516.519531 180.238281 L 516.792969 171.621094 L 516.925781 167.3125 L 517.0625 163.003906 L 517.195313 158.695313 L 517.46875 150.078125 L 517.601563 145.769531 L 517.738281 141.460938 L 517.871094 137.152344 L 518.007813 132.847656 L 518.140625 128.539063 L 518.414063 119.921875 L 518.546875 115.613281 L 518.683594 111.304688 L 518.816406 106.996094 L 519.089844 98.378906 L 519.222656 94.070313 L 519.359375 89.761719 L 519.492188 85.457031 L 519.765625 76.839844 L 519.898438 72.53125 L 520.035156 68.222656 L 520.167969 63.914063 L 518.367188 63.871094 L 518.296875 68.179688 L 518.222656 72.488281 L 518.148438 76.800781 L 518.078125 81.109375 L 518.003906 85.417969 L 517.929688 89.730469 L 517.859375 94.039063 L 517.710938 102.65625 L 517.636719 106.96875 L 517.566406 111.277344 L 517.492188 115.585938 L 517.417969 119.898438 L 517.347656 124.207031 L 517.273438 128.515625 L 517.199219 132.828125 L 517.128906 137.136719 L 516.980469 145.753906 L 516.90625 150.066406 L 516.835938 154.375 L 516.761719 158.683594 L 516.6875 162.996094 L 516.617188 167.304688 L 516.542969 171.613281 L 516.46875 175.925781 L 516.398438 180.234375 Z M 516.25 188.851563 "/>
<path style=" stroke:none;fill-rule:nonzero;fill:rgb(79.215686%,69.803922%,83.921569%);fill-opacity:0.501961;" d="M 516.25 188.851563 L 516.398438 180.234375 L 516.46875 175.925781 L 516.542969 171.613281 L 516.617188 167.304688 L 516.6875 162.996094 L 516.761719 158.683594 L 516.835938 154.375 L 516.90625 150.066406 L 516.980469 145.753906 L 517.128906 137.136719 L 517.199219 132.828125 L 517.273438 128.515625 L 517.347656 124.207031 L 517.417969 119.898438 L 517.492188 115.585938 L 517.566406 111.277344 L 517.636719 106.96875 L 517.710938 102.65625 L 517.859375 94.039063 L 517.929688 89.730469 L 518.003906 85.417969 L 518.078125 81.109375 L 518.148438 76.800781 L 518.222656 72.488281 L 518.296875 68.179688 L 518.367188 63.871094 L 518.179688 63.867188 L 518.113281 68.175781 L 518.046875 72.488281 L 517.914063 81.105469 L 517.847656 85.417969 L 517.714844 94.035156 L 517.648438 98.347656 L 517.515625 106.964844 L 517.449219 111.277344 L 517.316406 119.894531 L 517.25 124.207031 L 517.183594 128.515625 L 517.113281 132.824219 L 517.046875 137.136719 L 516.847656 150.0625 L 516.78125 154.375 L 516.648438 162.992188 L 516.582031 167.304688 L 516.449219 175.921875 L 516.382813 180.234375 Z M 516.25 188.851563 "/>
<path style=" stroke:none;fill-rule:nonzero;fill:rgb(41.568627%,23.921569%,60.392157%);fill-opacity:0.501961;" d="M 516.25 188.851563 L 516.382813 180.234375 L 516.449219 175.921875 L 516.582031 167.304688 L 516.648438 162.992188 L 516.78125 154.375 L 516.847656 150.0625 L 517.046875 137.136719 L 517.113281 132.824219 L 517.183594 128.515625 L 517.25 124.207031 L 517.316406 119.894531 L 517.449219 111.277344 L 517.515625 106.964844 L 517.648438 98.347656 L 517.714844 94.035156 L 517.847656 85.417969 L 517.914063 81.105469 L 518.046875 72.488281 L 518.113281 68.175781 L 518.179688 63.867188 L 516.25 63.851563 Z M 516.25 188.851563 "/>
<g style="fill:rgb(0%,0%,0%);fill-opacity:1;">
  <use xlink:href="#glyph0-1" x="678.171875" y="86.371094"/>
  <use xlink:href="#glyph0-2" x="681.228027" y="86.371094"/>
  <use xlink:href="#glyph0-3" x="686.728027" y="86.371094"/>
  <use xlink:href="#glyph0-4" x="692.845703" y="86.371094"/>
</g>
<path style=" stroke:none;fill-rule:nonzero;fill:rgb(65.098039%,80.784314%,89.019608%);fill-opacity:0.501961;" d="M 678.878906 109.578125 L 694.742188 109.578125 L 694.742188 93.714844 L 678.878906 93.714844 Z M 678.878906 109.578125 "/>
<path style=" stroke:none;fill-rule:nonzero;fill:rgb(12.156863%,47.058824%,70.588235%);fill-opacity:0.501961;" d="M 678.878906 126.859375 L 694.742188 126.859375 L 694.742188 110.996094 L 678.878906 110.996094 Z M 678.878906 126.859375 "/>
<path style=" stroke:none;fill-rule:nonzero;fill:rgb(69.803922%,87.45098%,54.117647%);fill-opacity:0.501961;" d="M 678.878906 144.136719 L 694.742188 144.136719 L 694.742188 128.273438 L 678.878906 128.273438 Z M 678.878906 144.136719 "/>
<path style=" stroke:none;fill-rule:nonzero;fill:rgb(55.294118%,82.745098%,78.039216%);fill-opacity:0.501961;" d="M 678.878906 161.417969 L 694.742188 161.417969 L 694.742188 145.554688 L 678.878906 145.554688 Z M 678.878906 161.417969 "/>
<path style=" stroke:none;fill-rule:nonzero;fill:rgb(20%,62.745098%,17.254902%);fill-opacity:0.501961;" d="M 678.878906 178.699219 L 694.742188 178.699219 L 694.742188 162.835938 L 678.878906 162.835938 Z M 678.878906 178.699219 "/>
<path style=" stroke:none;fill-rule:nonzero;fill:rgb(98.431373%,60.392157%,60%);fill-opacity:0.501961;" d="M 678.878906 195.980469 L 694.742188 195.980469 L 694.742188 180.117188 L 678.878906 180.117188 Z M 678.878906 195.980469 "/>
<path style=" stroke:none;fill-rule:nonzero;fill:rgb(89.019608%,10.196078%,10.980392%);fill-opacity:0.501961;" d="M 678.878906 213.257813 L 694.742188 213.257813 L 694.742188 197.394531 L 678.878906 197.394531 Z M 678.878906 213.257813 "/>
<path style=" stroke:none;fill-rule:nonzero;fill:rgb(99.215686%,74.901961%,43.529412%);fill-opacity:0.501961;" d="M 678.878906 230.539063 L 694.742188 230.539063 L 694.742188 214.675781 L 678.878906 214.675781 Z M 678.878906 230.539063 "/>
<path style=" stroke:none;fill-rule:nonzero;fill:rgb(100%,49.803922%,0%);fill-opacity:0.501961;" d="M 678.878906 247.820313 L 694.742188 247.820313 L 694.742188 231.957031 L 678.878906 231.957031 Z M 678.878906 247.820313 "/>
<path style=" stroke:none;fill-rule:nonzero;fill:rgb(50.196078%,50.196078%,50.196078%);fill-opacity:0.501961;" d="M 678.878906 265.097656 L 694.742188 265.097656 L 694.742188 249.234375 L 678.878906 249.234375 Z M 678.878906 265.097656 "/>
<path style=" stroke:none;fill-rule:nonzero;fill:rgb(79.215686%,69.803922%,83.921569%);fill-opacity:0.501961;" d="M 678.878906 282.378906 L 694.742188 282.378906 L 694.742188 266.515625 L 678.878906 266.515625 Z M 678.878906 282.378906 "/>
<path style=" stroke:none;fill-rule:nonzero;fill:rgb(41.568627%,23.921569%,60.392157%);fill-opacity:0.501961;" d="M 678.878906 299.660156 L 694.742188 299.660156 L 694.742188 283.796875 L 678.878906 283.796875 Z M 678.878906 299.660156 "/>
<g style="fill:rgb(0%,0%,0%);fill-opacity:1;">
  <use xlink:href="#glyph1-1" x="700.929688" y="104.796875"/>
  <use xlink:href="#glyph1-2" x="707.284766" y="104.796875"/>
  <use xlink:href="#glyph1-3" x="713.154297" y="104.796875"/>
</g>
<g style="fill:rgb(0%,0%,0%);fill-opacity:1;">
  <use xlink:href="#glyph1-1" x="700.929688" y="122.078125"/>
  <use xlink:href="#glyph1-4" x="707.284766" y="122.078125"/>
</g>
<g style="fill:rgb(0%,0%,0%);fill-opacity:1;">
  <use xlink:href="#glyph1-1" x="700.929688" y="139.355469"/>
  <use xlink:href="#glyph1-5" x="707.284766" y="139.355469"/>
  <use xlink:href="#glyph1-6" x="712.178906" y="139.355469"/>
</g>
<g style="fill:rgb(0%,0%,0%);fill-opacity:1;">
  <use xlink:href="#glyph1-7" x="700.929688" y="156.636719"/>
  <use xlink:href="#glyph1-2" x="707.284766" y="156.636719"/>
  <use xlink:href="#glyph1-8" x="713.154297" y="156.636719"/>
</g>
<g style="fill:rgb(0%,0%,0%);fill-opacity:1;">
  <use xlink:href="#glyph1-9" x="700.929688" y="173.917969"/>
  <use xlink:href="#glyph1-2" x="706.305078" y="173.917969"/>
</g>
<g style="fill:rgb(0%,0%,0%);fill-opacity:1;">
  <use xlink:href="#glyph1-10" x="700.929688" y="191.195313"/>
  <use xlink:href="#glyph1-1" x="706.799219" y="191.195313"/>
</g>
<g style="fill:rgb(0%,0%,0%);fill-opacity:1;">
  <use xlink:href="#glyph1-10" x="700.929688" y="208.476563"/>
  <use xlink:href="#glyph1-4" x="706.799219" y="208.476563"/>
</g>
<g style="fill:rgb(0%,0%,0%);fill-opacity:1;">
  <use xlink:href="#glyph1-10" x="700.929688" y="225.757813"/>
  <use xlink:href="#glyph1-8" x="706.799219" y="225.757813"/>
</g>
<g style="fill:rgb(0%,0%,0%);fill-opacity:1;">
  <use xlink:href="#glyph1-10" x="700.929688" y="243.035156"/>
  <use xlink:href="#glyph1-11" x="706.799219" y="243.035156"/>
</g>
<g style="fill:rgb(0%,0%,0%);fill-opacity:1;">
  <use xlink:href="#glyph1-10" x="700.929688" y="260.316406"/>
  <use xlink:href="#glyph1-12" x="706.799219" y="260.316406"/>
</g>
<g style="fill:rgb(0%,0%,0%);fill-opacity:1;">
  <use xlink:href="#glyph1-12" x="700.929688" y="277.597656"/>
  <use xlink:href="#glyph1-13" x="706.799219" y="277.597656"/>
</g>
<g style="fill:rgb(0%,0%,0%);fill-opacity:1;">
  <use xlink:href="#glyph1-14" x="700.929688" y="294.875"/>
  <use xlink:href="#glyph1-2" x="706.305078" y="294.875"/>
  <use xlink:href="#glyph1-8" x="712.174609" y="294.875"/>
</g>
<g style="fill:rgb(0%,0%,0%);fill-opacity:1;">
  <use xlink:href="#glyph2-1" x="360" y="29.824219"/>
  <use xlink:href="#glyph2-2" x="368.804297" y="29.824219"/>
  <use xlink:href="#glyph2-3" x="376.145508" y="29.824219"/>
  <use xlink:href="#glyph2-4" x="387.141211" y="29.824219"/>
  <use xlink:href="#glyph2-5" x="394.482422" y="29.824219"/>
  <use xlink:href="#glyph2-6" x="397.415039" y="29.824219"/>
  <use xlink:href="#glyph2-7" x="404.75625" y="29.824219"/>
  <use xlink:href="#glyph2-8" x="412.819336" y="29.824219"/>
  <use xlink:href="#glyph2-4" x="419.419336" y="29.824219"/>
  <use xlink:href="#glyph2-6" x="426.760547" y="29.824219"/>
  <use xlink:href="#glyph2-9" x="434.101758" y="29.824219"/>
  <use xlink:href="#glyph2-10" x="441.442969" y="29.824219"/>
  <use xlink:href="#glyph2-6" x="450.975586" y="29.824219"/>
  <use xlink:href="#glyph2-11" x="458.316797" y="29.824219"/>
  <use xlink:href="#glyph2-12" x="465.658008" y="29.824219"/>
  <use xlink:href="#glyph2-13" x="470.053711" y="29.824219"/>
  <use xlink:href="#glyph2-14" x="477.394922" y="29.824219"/>
  <use xlink:href="#glyph2-9" x="484.736133" y="29.824219"/>
  <use xlink:href="#glyph2-1" x="492.077344" y="29.824219"/>
  <use xlink:href="#glyph2-5" x="500.881641" y="29.824219"/>
  <use xlink:href="#glyph2-6" x="503.814258" y="29.824219"/>
  <use xlink:href="#glyph2-6" x="511.155469" y="29.824219"/>
  <use xlink:href="#glyph2-4" x="518.49668" y="29.824219"/>
  <use xlink:href="#glyph2-15" x="525.837891" y="29.824219"/>
  <use xlink:href="#glyph2-13" x="535.370508" y="29.824219"/>
  <use xlink:href="#glyph2-14" x="542.711719" y="29.824219"/>
  <use xlink:href="#glyph2-16" x="550.05293" y="29.824219"/>
  <use xlink:href="#glyph2-17" x="557.394141" y="29.824219"/>
  <use xlink:href="#glyph2-18" x="560.326758" y="29.824219"/>
  <use xlink:href="#glyph2-17" x="563.994141" y="29.824219"/>
  <use xlink:href="#glyph2-13" x="566.926758" y="29.824219"/>
  <use xlink:href="#glyph2-14" x="574.267969" y="29.824219"/>
  <use xlink:href="#glyph2-9" x="581.60918" y="29.824219"/>
  <use xlink:href="#glyph2-19" x="588.950391" y="29.824219"/>
  <use xlink:href="#glyph2-13" x="599.217773" y="29.824219"/>
  <use xlink:href="#glyph2-17" x="606.558984" y="29.824219"/>
  <use xlink:href="#glyph2-14" x="609.491602" y="29.824219"/>
  <use xlink:href="#glyph2-20" x="616.832813" y="29.824219"/>
  <use xlink:href="#glyph2-18" x="624.174023" y="29.824219"/>
  <use xlink:href="#glyph2-13" x="627.841406" y="29.824219"/>
  <use xlink:href="#glyph2-21" x="635.182617" y="29.824219"/>
  <use xlink:href="#glyph2-5" x="641.782617" y="29.824219"/>
  <use xlink:href="#glyph2-6" x="644.715234" y="29.824219"/>
  <use xlink:href="#glyph2-6" x="652.056445" y="29.824219"/>
  <use xlink:href="#glyph2-4" x="659.397656" y="29.824219"/>
  <use xlink:href="#glyph2-9" x="666.738867" y="29.824219"/>
  <use xlink:href="#glyph2-1" x="674.080078" y="29.824219"/>
  <use xlink:href="#glyph2-6" x="682.884375" y="29.824219"/>
  <use xlink:href="#glyph2-22" x="690.225586" y="29.824219"/>
  <use xlink:href="#glyph2-9" x="696.825586" y="29.824219"/>
  <use xlink:href="#glyph2-23" x="704.166797" y="29.824219"/>
  <use xlink:href="#glyph2-6" x="712.229883" y="29.824219"/>
  <use xlink:href="#glyph2-3" x="719.571094" y="29.824219"/>
  <use xlink:href="#glyph2-2" x="730.566797" y="29.824219"/>
  <use xlink:href="#glyph2-5" x="737.908008" y="29.824219"/>
  <use xlink:href="#glyph2-6" x="740.840625" y="29.824219"/>
</g>
</g>
</svg>
